<svg xmlns="http://www.w3.org/2000/svg" fill="none" viewBox="0 0 477 404">
  <path fill="#5F66B9" d="M290.889 323.047c-1.138-.656-1.138-1.72 0-2.377 1.14-.656 2.985-.656 4.124 0 1.139.657 1.139 1.721 0 2.377-1.139.657-2.984.657-4.124 0Zm-7.363 4.245c-1.138-.657-1.138-1.72 0-2.377 1.14-.656 2.985-.656 4.125 0 1.138.657 1.138 1.72 0 2.377-1.14.656-2.985.656-4.125 0Zm-7.361 4.245c-1.14-.657-1.14-1.721 0-2.377 1.138-.657 2.983-.657 4.123 0 1.138.656 1.138 1.72 0 2.377-1.14.656-2.985.656-4.123 0Zm-7.363 4.245c-1.139-.657-1.139-1.721 0-2.376 1.138-.657 2.983-.657 4.123 0 1.138.655 1.138 1.719 0 2.376-1.14.656-2.985.656-4.123 0Zm-7.363 4.245c-1.139-.656-1.139-1.72 0-2.376 1.138-.657 2.985-.657 4.123 0 1.138.656 1.138 1.72 0 2.376-1.138.657-2.985.657-4.123 0Zm-7.363 4.245c-1.138-.656-1.138-1.72 0-2.377 1.138-.656 2.985-.656 4.123 0 1.138.657 1.138 1.721 0 2.377-1.138.657-2.985.657-4.123 0Zm-7.363 4.246c-1.138-.657-1.138-1.721 0-2.378 1.138-.656 2.985-.656 4.123 0 1.139.657 1.139 1.721 0 2.378-1.138.656-2.985.656-4.123 0Zm-7.363 4.244c-1.138-.657-1.138-1.721 0-2.378 1.139-.654 2.985-.654 4.123 0 1.139.657 1.139 1.721 0 2.378-1.138.656-2.984.656-4.123 0Zm54.444-39.296-66.94 38.593 49.34 28.448 66.94-38.594-49.34-28.447Z"/>
  <path fill="#C3E7F7" d="M280.018 325.269c-1.138-.656-1.138-1.721 0-2.377 1.14-.657 2.984-.657 4.122 0 1.139.656 1.139 1.721 0 2.377-1.138.657-2.982.657-4.122 0Zm-7.363 4.244c-1.138-.656-1.138-1.721 0-2.377 1.14-.656 2.984-.656 4.122 0 1.139.656 1.139 1.721 0 2.377-1.138.657-2.982.657-4.122 0Zm-7.363 4.246c-1.138-.657-1.138-1.721 0-2.378 1.14-.656 2.984-.656 4.123 0 1.138.657 1.138 1.721 0 2.378-1.139.656-2.983.656-4.123 0Zm-7.362 4.246c-1.139-.657-1.139-1.721 0-2.378 1.139-.656 2.984-.656 4.122 0 1.138.657 1.138 1.721 0 2.378-1.138.654-2.983.654-4.122 0Zm-7.362 4.244c-1.139-.657-1.139-1.721 0-2.377 1.138-.657 2.983-.657 4.122 0 1.138.656 1.138 1.72 0 2.377-1.139.655-2.984.655-4.122 0Zm-7.363 4.245c-1.139-.656-1.139-1.721 0-2.377 1.138-.657 2.984-.657 4.123 0 1.137.656 1.137 1.721 0 2.377-1.139.657-2.985.657-4.123 0Zm-7.363 4.244c-1.139-.656-1.139-1.72 0-2.376 1.138-.657 2.985-.657 4.123 0 1.137.656 1.137 1.72 0 2.376-1.138.657-2.985.657-4.123 0Zm-7.363 4.245c-1.139-.656-1.139-1.72 0-2.377 1.138-.655 2.985-.655 4.123 0 1.138.657 1.138 1.721 0 2.377-1.138.657-2.985.657-4.123 0Zm54.443-39.296-66.939 38.595 49.34 28.447 66.938-38.595-49.339-28.447Z"/>
  <path fill="#EBF6F9" d="m168.107 234.607-7.658-9.137 11.755 2.053-4.097 7.084Z"/>
  <path fill="#3E3E7C" d="m160.449 225.47 1.941 2.318 1.04-1.798-2.981-.52Z"/>
  <path fill="#504B90" d="M172.203 227.523c-.528-.307-1.259-.263-2.065.203-1.605.925-2.906 3.168-2.902 5.007.004.918.328 1.561.848 1.864l64.518 37.442c-.523-.304-.846-.947-.849-1.864-.005-1.841 1.296-4.083 2.9-5.009.806-.465 1.538-.508 2.065-.201l-64.515-37.442Z"/>
  <path fill="#3E3E7C" d="M234.653 265.166c1.605-.925 2.908-.182 2.912 1.658.005 1.847-1.289 4.087-2.893 5.011-1.603.926-2.913.189-2.919-1.66-.005-1.841 1.296-4.083 2.9-5.009Z"/>
  <path fill="#EBF6F9" d="m207.595 267.513-7.657-9.137 11.754 2.053-4.097 7.084Z"/>
  <path fill="#3E3E7C" d="m199.938 258.376 1.943 2.317 1.037-1.796-2.98-.521Z"/>
  <path fill="#5C60B6" d="M211.692 260.43c-.528-.307-1.259-.264-2.065.201-1.604.925-2.905 3.168-2.899 5.01.001.916.325 1.559.847 1.862l64.515 37.441c-.521-.302-.845-.946-.847-1.863-.006-1.84 1.296-4.083 2.9-5.008.806-.466 1.537-.509 2.065-.203l-64.516-37.44Z"/>
  <path fill="#4E54AE" d="M274.142 298.073c1.604-.926 2.907-.183 2.913 1.657.005 1.848-1.29 4.087-2.894 5.012-1.604.925-2.914.187-2.919-1.661-.006-1.84 1.297-4.083 2.9-5.008Z"/>
  <path fill="#ABD4E4" d="m398.772 228.61-5.145 2.987c.926-.538 1.504-1.682 1.509-3.312l5.145-2.987c-.004 1.632-.58 2.774-1.509 3.312Z"/>
  <path fill="#C3E7F7" d="m247.264 37.195 5.146-2.987c.939-.544 2.242-.465 3.685.367l-5.146 2.986c-1.442-.83-2.746-.91-3.685-.366Z"/>
  <path fill="#ABD4E4" d="m395.424 126.807 5.146-2.987-.289 101.478-5.145 2.987.288-101.478Z"/>
  <path fill="#C3E7F7" d="m250.948 37.561 5.146-2.985 139.318 80.323-5.146 2.988-139.318-80.326Z"/>
  <path fill="#C3E7F7" d="m390.266 117.887 5.146-2.988c2.844 1.64 5.168 5.633 5.158 8.921l-5.146 2.987c.009-3.29-2.314-7.281-5.158-8.92Z"/>
  <path fill="#504B90" d="M390.266 117.887c2.844 1.639 5.168 5.63 5.158 8.92l-.288 101.478c-.01 3.29-2.349 4.593-5.192 2.954l-139.317-80.324c-2.868-1.653-5.167-5.632-5.157-8.92l.288-101.478c.009-3.291 2.324-4.608 5.19-2.956l139.318 80.326Z"/>
  <path fill="#F8CF3E" d="m390.229 129.604-.252 89.917-139.313-80.327.242-83.722.012-6.196 139.071 80.195.24.133Z"/>
  <path fill="#F8E193" d="m389.989 129.471-.012 6.196-139.071-80.195.012-6.196 139.071 80.195Z"/>
  <path fill="#ABD4E4" d="m392.087 234.244-.017 5.943c-.002 1.075-.705 2.149-2.109 2.963l.017-5.943c1.403-.814 2.105-1.888 2.109-2.963Zm-89.991 53.964-.018 5.943c-2.825 1.64-7.471 1.64-10.315.001l.018-5.944c2.842 1.639 7.49 1.639 10.315 0Zm-151.802-77.383.018-5.944c-.004 1.085.711 2.173 2.15 3.003l-.015 5.943c-1.441-.83-2.155-1.918-2.153-3.002Z"/>
  <path fill="#ABD4E4" d="m389.977 237.207-.017 5.943-87.883 51.001.018-5.943 87.882-51.001Zm-98.196 51.001-.019 5.944-139.316-80.325.016-5.943 139.319 80.324Z"/>
  <path fill="#C3E7F7" d="M389.944 231.239c2.843 1.639 2.859 4.328.034 5.968l-87.882 51.001c-2.825 1.639-7.473 1.639-10.315 0l-139.319-80.324c-2.866-1.654-2.858-4.328-.032-5.968l87.882-51.001c2.825-1.64 7.447-1.653 10.315 0l139.317 80.324Z"/>
  <path fill="#ABD4E4" d="m276.922 246.298-51.35-29.606c-1.422-.82-3.723-.833-5.159 0l-14.542 8.44c-1.413.82-1.405 2.163.017 2.983l51.349 29.607c1.446.832 3.746.82 5.158 0l14.542-8.44c1.436-.835 1.429-2.151-.015-2.984Z"/>
  <path fill="#3E3E7C" d="m252.158 159.994-.004 1.485-9.379 5.444.004-1.486 9.379-5.443Z"/>
  <path fill="#504B90" d="m242.779 165.437-.004 1.486-9.231-5.323.005-1.485 9.23 5.322Z"/>
  <path fill="#504B90" d="m252.158 159.994-9.379 5.443-9.23-5.323 9.379-5.442 9.23 5.322Z"/>
  <path fill="#3E3E7C" d="m263.999 166.821-.005 1.486-9.379 5.443.005-1.487 9.379-5.442Z"/>
  <path fill="#504B90" d="m254.62 172.263-.004 1.487-9.254-5.336.005-1.485 9.253 5.334Z"/>
  <path fill="#504B90" d="m263.999 166.821-9.379 5.442-9.253-5.334 9.379-5.444 9.253 5.336Z"/>
  <path fill="#3E3E7C" d="m275.816 173.634-.003 1.486-9.379 5.443.004-1.486 9.378-5.443Z"/>
  <path fill="#504B90" d="m266.438 179.077-.005 1.486-9.23-5.323.004-1.485 9.231 5.322Z"/>
  <path fill="#504B90" d="m275.816 173.634-9.378 5.444-9.231-5.323 9.379-5.442 9.23 5.321Z"/>
  <path fill="#3E3E7C" d="m287.634 180.447-.004 1.487-9.379 5.443.004-1.486 9.379-5.444Z"/>
  <path fill="#504B90" d="m278.254 185.891-.003 1.486-9.23-5.322.003-1.486 9.23 5.322Zm9.38-5.444-9.379 5.444-9.231-5.322 9.379-5.443 9.231 5.321Z"/>
  <path fill="#3E3E7C" d="m299.451 187.261-.003 1.486-9.379 5.443.004-1.486 9.378-5.443Z"/>
  <path fill="#504B90" d="m290.073 192.704-.004 1.486-9.231-5.321.005-1.487 9.23 5.322Z"/>
  <path fill="#504B90" d="m299.451 187.261-9.378 5.444-9.23-5.323 9.379-5.442 9.229 5.321Z"/>
  <path fill="#3E3E7C" d="m311.292 194.089-.004 1.485-9.379 5.444.005-1.487 9.378-5.442Z"/>
  <path fill="#504B90" d="m301.914 199.531-.005 1.487-9.23-5.323.005-1.486 9.23 5.322Z"/>
  <path fill="#504B90" d="m311.292 194.089-9.378 5.442-9.23-5.322 9.379-5.443 9.229 5.323Z"/>
  <path fill="#3E3E7C" d="m323.11 200.902-.004 1.485-9.379 5.444.004-1.486 9.379-5.443Z"/>
  <path fill="#504B90" d="m313.731 206.345-.005 1.486-9.23-5.322.004-1.485 9.231 5.321Z"/>
  <path fill="#504B90" d="m323.111 200.901-9.38 5.444-9.231-5.322 9.379-5.443 9.232 5.321Z"/>
  <path fill="#3E3E7C" d="m334.926 207.716-.002 1.485-9.379 5.444.005-1.487 9.376-5.442Z"/>
  <path fill="#504B90" d="m325.55 213.158-.005 1.487-9.231-5.322.004-1.487 9.232 5.322Z"/>
  <path fill="#504B90" d="m334.926 207.716-9.376 5.442-9.232-5.322 9.379-5.443 9.229 5.323Z"/>
  <path fill="#3E3E7C" d="m346.768 214.542-.003 1.485-9.378 5.444.003-1.486 9.378-5.443Z"/>
  <path fill="#504B90" d="m337.39 219.985-.004 1.486-9.254-5.336.003-1.484 9.255 5.334Zm9.378-5.443-9.378 5.443-9.254-5.334 9.379-5.444 9.253 5.335Z"/>
  <path fill="#3E3E7C" d="m358.586 221.356-.005 1.486-9.378 5.443.004-1.487 9.379-5.442Z"/>
  <path fill="#504B90" d="m349.207 226.798-.004 1.487-9.231-5.321.005-1.487 9.23 5.321Z"/>
  <path fill="#504B90" d="m358.586 221.356-9.379 5.442-9.23-5.321 9.379-5.443 9.23 5.322Z"/>
  <path fill="#3E3E7C" d="m382.244 234.995-.003 1.487-9.379 5.443.004-1.486 9.378-5.444Z"/>
  <path fill="#504B90" d="m372.866 240.439-.003 1.486-21.072-12.149.005-1.485 21.07 12.148Z"/>
  <path fill="#504B90" d="m382.244 234.995-9.379 5.443-21.07-12.147 9.379-5.443 21.07 12.147Z"/>
  <path fill="#3E3E7C" d="m252.049 173.755-.004 1.485-9.356 5.43.005-1.485 9.355-5.43Z"/>
  <path fill="#504B90" d="m242.694 179.185-.004 1.485-21.071-12.148.004-1.486 21.071 12.149Z"/>
  <path fill="#504B90" d="m252.049 173.755-9.355 5.43-21.072-12.149 9.356-5.43 21.071 12.149Z"/>
  <path fill="#3E3E7C" d="m263.868 180.569-.004 1.486-9.357 5.43.005-1.487 9.356-5.429Z"/>
  <path fill="#504B90" d="m254.511 185.998-.005 1.487-9.229-5.323.004-1.485 9.23 5.321Z"/>
  <path fill="#504B90" d="m263.868 180.569-9.357 5.429-9.23-5.321 9.356-5.43 9.231 5.322Z"/>
  <path fill="#3E3E7C" d="m275.685 187.382-.005 1.487-9.355 5.429.005-1.486 9.355-5.43Z"/>
  <path fill="#504B90" d="m266.33 192.812-.005 1.486-9.23-5.321.003-1.487 9.232 5.322Zm9.355-5.43-9.355 5.43-9.231-5.323 9.356-5.428 9.23 5.321Z"/>
  <path fill="#3E3E7C" d="m287.502 194.196-.004 1.486-9.356 5.43.004-1.487 9.356-5.429Z"/>
  <path fill="#504B90" d="m278.147 199.625-.005 1.487-9.23-5.322.004-1.486 9.231 5.321Z"/>
  <path fill="#504B90" d="m287.503 194.196-9.356 5.429-9.232-5.321 9.357-5.43 9.231 5.322Z"/>
  <path fill="#3E3E7C" d="m299.343 201.024-.004 1.485-9.356 5.429.004-1.486 9.356-5.428Z"/>
  <path fill="#504B90" d="m289.987 206.452-.004 1.486-9.23-5.321.004-1.487 9.23 5.322Z"/>
  <path fill="#504B90" d="m299.343 201.024-9.356 5.429-9.23-5.323 9.356-5.429 9.23 5.323Z"/>
  <path fill="#3E3E7C" d="m311.16 207.836-.003 1.487-9.356 5.429.005-1.487 9.354-5.429Z"/>
  <path fill="#504B90" d="m301.805 213.265-.004 1.487-9.231-5.323.005-1.485 9.23 5.321Z"/>
  <path fill="#504B90" d="m311.16 207.837-9.355 5.429-9.23-5.322 9.355-5.43 9.23 5.323Z"/>
  <path fill="#3E3E7C" d="m322.979 214.651-.004 1.484-9.357 5.43.005-1.486 9.356-5.428Z"/>
  <path fill="#504B90" d="m313.623 220.079-.005 1.486-9.23-5.321.005-1.486 9.23 5.321Z"/>
  <path fill="#504B90" d="m322.979 214.651-9.356 5.429-9.23-5.322 9.356-5.429 9.23 5.322Z"/>
  <path fill="#3E3E7C" d="m334.82 221.477-.005 1.487-9.356 5.429.005-1.487 9.356-5.429Z"/>
  <path fill="#504B90" d="m325.464 226.906-.005 1.487-9.253-5.335.004-1.487 9.254 5.335Z"/>
  <path fill="#504B90" d="m334.82 221.477-9.356 5.429-9.254-5.335 9.356-5.43 9.254 5.336Z"/>
  <path fill="#3E3E7C" d="m346.637 228.291-.005 1.486-9.355 5.429.004-1.486 9.356-5.429Z"/>
  <path fill="#504B90" d="m337.281 233.72-.004 1.486-9.231-5.322.005-1.485 9.23 5.321Z"/>
  <path fill="#504B90" d="m346.637 228.291-9.356 5.429-9.23-5.322 9.355-5.43 9.231 5.323Z"/>
  <path fill="#3E3E7C" d="m358.454 235.104-.003 1.487-9.356 5.429.003-1.487 9.356-5.429Z"/>
  <path fill="#504B90" d="m349.098 240.533-.003 1.487-9.231-5.322.004-1.487 9.23 5.322Z"/>
  <path fill="#504B90" d="m358.454 235.104-9.356 5.429-9.23-5.322 9.356-5.429 9.23 5.322Z"/>
  <path fill="#3E3E7C" d="m370.295 241.931-.003 1.486-9.357 5.429.004-1.486 9.356-5.429Z"/>
  <path fill="#504B90" d="m360.94 247.36-.005 1.486-9.253-5.335.004-1.485 9.254 5.334Z"/>
  <path fill="#504B90" d="m370.296 241.931-9.356 5.429-9.253-5.334 9.354-5.43 9.255 5.335Z"/>
  <path fill="#3E3E7C" d="m240.124 180.677-.005 1.485-9.354 5.43.002-1.486 9.357-5.429Z"/>
  <path fill="#504B90" d="m230.766 186.106-.002 1.486-21.072-12.149.004-1.486 21.07 12.149Zm9.358-5.429-9.357 5.428-21.071-12.148 9.356-5.429 21.072 12.149Z"/>
  <path fill="#3E3E7C" d="m251.942 187.49-.005 1.486-9.355 5.429.004-1.485 9.356-5.43Z"/>
  <path fill="#504B90" d="m242.586 192.92-.004 1.485-9.231-5.321.004-1.487 9.231 5.323Z"/>
  <path fill="#504B90" d="m251.941 187.489-9.356 5.43-9.231-5.322 9.355-5.429 9.232 5.321Z"/>
  <path fill="#3E3E7C" d="m263.758 194.304-.004 1.486-9.356 5.429.004-1.487 9.356-5.428Z"/>
  <path fill="#504B90" d="m254.403 199.732-.004 1.487-9.23-5.322.005-1.486 9.229 5.321Zm9.356-5.428-9.356 5.428-9.229-5.321 9.355-5.43 9.23 5.323Z"/>
  <path fill="#3E3E7C" d="m275.575 201.117-.003 1.486-9.356 5.429.005-1.485 9.354-5.43Z"/>
  <path fill="#504B90" d="m266.22 206.547-.004 1.485-9.231-5.321.005-1.486 9.23 5.322Z"/>
  <path fill="#504B90" d="m275.575 201.117-9.355 5.43-9.23-5.321 9.355-5.431 9.23 5.322Z"/>
  <path fill="#3E3E7C" d="m287.417 207.944-.005 1.486-9.354 5.43.003-1.487 9.356-5.429Z"/>
  <path fill="#504B90" d="m278.061 213.373-.004 1.487-9.23-5.323.004-1.485 9.23 5.321Z"/>
  <path fill="#504B90" d="m287.417 207.944-9.356 5.429-9.23-5.321 9.356-5.429 9.23 5.321Z"/>
  <path fill="#3E3E7C" d="m299.236 214.758-.005 1.485-9.356 5.429.004-1.485 9.357-5.429Z"/>
  <path fill="#504B90" d="m289.878 220.187-.003 1.485-9.229-5.321.003-1.487 9.229 5.323Zm9.358-5.429-9.358 5.429-9.229-5.323 9.355-5.428 9.232 5.322Z"/>
  <path fill="#3E3E7C" d="m311.053 221.571-.005 1.487-9.355 5.429.004-1.487 9.356-5.429Z"/>
  <path fill="#504B90" d="m301.697 227-.004 1.487-9.231-5.322.005-1.486 9.23 5.321Z"/>
  <path fill="#504B90" d="M311.053 221.571 301.697 227l-9.23-5.321 9.355-5.429 9.231 5.321Z"/>
  <path fill="#3E3E7C" d="m322.893 228.399-.004 1.485-9.356 5.429.005-1.486 9.355-5.428Z"/>
  <path fill="#504B90" d="m313.538 233.827-.004 1.486-9.254-5.335.005-1.485 9.253 5.334Z"/>
  <path fill="#504B90" d="m322.893 228.399-9.355 5.429-9.253-5.335 9.355-5.429 9.253 5.335Z"/>
  <path fill="#3E3E7C" d="m334.711 235.211-.005 1.487-9.354 5.429.003-1.487 9.356-5.429Z"/>
  <path fill="#504B90" d="m325.355 240.64-.004 1.487-9.23-5.321.004-1.487 9.23 5.321Z"/>
  <path fill="#504B90" d="m334.711 235.211-9.356 5.429-9.23-5.321 9.356-5.429 9.23 5.321Z"/>
  <path fill="#3E3E7C" d="m358.368 248.852-.003 1.487-9.356 5.429.005-1.487 9.354-5.429Z"/>
  <path fill="#504B90" d="m349.014 254.281-.005 1.487-21.071-12.149.004-1.486 21.072 12.148Z"/>
  <path fill="#504B90" d="m358.369 248.852-9.355 5.429-21.072-12.148 9.356-5.429 21.071 12.148Z"/>
  <path fill="#3E3E7C" d="m240.015 194.411-.005 1.486-9.355 5.43.004-1.486 9.356-5.43Z"/>
  <path fill="#504B90" d="m230.659 199.841-.003 1.486-32.89-18.963.004-1.486 32.889 18.963Z"/>
  <path fill="#504B90" d="m240.015 194.411-9.356 5.43-32.888-18.963 9.356-5.429 32.888 18.962Z"/>
  <path fill="#3E3E7C" d="m251.832 201.225-.003 1.486-9.356 5.429.003-1.486 9.356-5.429Z"/>
  <path fill="#504B90" d="m242.476 206.654-.004 1.486-9.23-5.322.004-1.486 9.23 5.322Z"/>
  <path fill="#504B90" d="m251.832 201.225-9.356 5.429-9.23-5.322 9.356-5.429 9.23 5.322Z"/>
  <path fill="#3E3E7C" d="m263.649 208.038-.003 1.487-9.355 5.429.004-1.487 9.354-5.429Z"/>
  <path fill="#504B90" d="m254.295 213.467-.004 1.487-9.231-5.322.004-1.486 9.231 5.321Z"/>
  <path fill="#504B90" d="m263.65 208.038-9.355 5.429-9.231-5.321 9.355-5.43 9.231 5.322Z"/>
  <path fill="#3E3E7C" d="m275.491 214.865-.005 1.486-9.355 5.429.005-1.484 9.355-5.431Z"/>
  <path fill="#504B90" d="m266.136 220.296-.004 1.484-9.231-5.321.005-1.487 9.23 5.324Zm9.355-5.431-9.354 5.431-9.231-5.324 9.355-5.429 9.23 5.322Z"/>
  <path fill="#3E3E7C" d="m287.308 221.679-.004 1.486-9.356 5.429.005-1.486 9.355-5.429Z"/>
  <path fill="#504B90" d="m277.954 227.108-.005 1.486-9.23-5.322.005-1.486 9.23 5.322Z"/>
  <path fill="#504B90" d="m287.308 221.679-9.355 5.428-9.23-5.321 9.356-5.429 9.229 5.322Z"/>
  <path fill="#3E3E7C" d="m299.126 228.493-.005 1.485-9.354 5.429.004-1.485 9.355-5.429Z"/>
  <path fill="#504B90" d="m289.772 233.922-.005 1.485-9.23-5.321.004-1.486 9.231 5.322Z"/>
  <path fill="#504B90" d="m299.126 228.493-9.355 5.429-9.231-5.321 9.356-5.431 9.23 5.323Z"/>
  <path fill="#3E3E7C" d="m310.967 235.319-.004 1.487-9.355 5.429.004-1.486 9.355-5.43Z"/>
  <path fill="#504B90" d="m301.612 240.749-.004 1.486-9.254-5.335.003-1.487 9.255 5.336Z"/>
  <path fill="#504B90" d="m310.967 235.319-9.355 5.43-9.255-5.336 9.356-5.429 9.254 5.335Z"/>
  <path fill="#3E3E7C" d="m322.783 242.133-.002 1.486-9.357 5.428.005-1.485 9.354-5.429Z"/>
  <path fill="#504B90" d="m313.429 247.562-.004 1.485-9.231-5.321.005-1.486 9.23 5.322Z"/>
  <path fill="#504B90" d="m322.784 242.133-9.355 5.429-9.23-5.321 9.356-5.43 9.229 5.322Z"/>
  <path fill="#3E3E7C" d="m346.444 255.774-.005 1.485-9.355 5.429.004-1.484 9.356-5.43Z"/>
  <path fill="#504B90" d="m337.088 261.204-.004 1.484-21.071-12.148.005-1.486 21.07 12.15Zm9.356-5.43-9.356 5.43-21.07-12.15 9.354-5.429 21.072 12.149Z"/>
  <path fill="#3E3E7C" d="m204.431 187.691-.005 1.487-9.379 5.442.005-1.485 9.379-5.444Z"/>
  <path fill="#504B90" d="m195.052 193.135-.005 1.485-9.231-5.321.005-1.486 9.231 5.322Zm9.379-5.444-9.379 5.444-9.231-5.322 9.378-5.443 9.232 5.321Z"/>
  <path fill="#3E3E7C" d="m216.27 194.519-.003 1.485-9.379 5.444.003-1.486 9.379-5.443Z"/>
  <path fill="#504B90" d="m206.892 199.962-.004 1.486-9.253-5.335.003-1.487 9.254 5.336Z"/>
  <path fill="#504B90" d="m216.271 194.519-9.379 5.443-9.253-5.336 9.379-5.442 9.253 5.335Z"/>
  <path fill="#3E3E7C" d="m228.09 201.332-.005 1.486-9.378 5.444.004-1.487 9.379-5.443Z"/>
  <path fill="#504B90" d="m218.71 206.775-.004 1.487-9.231-5.323.004-1.485 9.231 5.321Z"/>
  <path fill="#504B90" d="m228.089 201.332-9.379 5.443-9.231-5.321 9.38-5.444 9.23 5.322Z"/>
  <path fill="#3E3E7C" d="m287.201 235.413-.004 1.487-9.379 5.442.004-1.485 9.379-5.444Z"/>
  <path fill="#504B90" d="m277.821 240.857-.003 1.485-56.526-32.589.005-1.485 56.524 32.589Z"/>
  <path fill="#504B90" d="m287.2 235.413-9.379 5.443-56.524-32.588 9.379-5.444 56.524 32.589Z"/>
  <path fill="#3E3E7C" d="m299.042 242.241-.005 1.485-9.379 5.443.005-1.486 9.379-5.442Z"/>
  <path fill="#504B90" d="m289.663 247.683-.005 1.486-9.255-5.335.005-1.486 9.255 5.335Z"/>
  <path fill="#504B90" d="m299.042 242.24-9.379 5.443-9.255-5.335 9.379-5.442 9.255 5.334Z"/>
  <path fill="#3E3E7C" d="m310.859 249.054-.004 1.486-9.379 5.442.004-1.485 9.379-5.443Z"/>
  <path fill="#504B90" d="m301.48 254.497-.005 1.485-9.23-5.321.004-1.485 9.231 5.321Z"/>
  <path fill="#504B90" d="m310.859 249.054-9.379 5.443-9.231-5.321 9.379-5.444 9.231 5.322Z"/>
  <path fill="#3E3E7C" d="m334.518 262.694-.005 1.487-9.379 5.442.005-1.485 9.379-5.444Z"/>
  <path fill="#504B90" d="m325.139 268.138-.005 1.485-21.071-12.148.004-1.486 21.072 12.149Zm9.379-5.444-9.379 5.443-21.072-12.149 9.379-5.443 21.072 12.149Z"/>
  <path fill="#BF4B49" d="M322.238 294.191c-1.54-.888-2.311-2.053-2.307-3.216l-.011 3.728c-.004 1.163.767 2.329 2.308 3.216l5.533 3.19.009-3.728-5.532-3.19Z"/>
  <path fill="#F68081" d="m338.763 291.002-.01 3.728-10.992 6.379.009-3.728 10.993-6.379Z"/>
  <path fill="#1C364F" d="m328.685 297.347 9.158-5.314-.004 2.692-9.159 5.313.005-2.691Z"/>
  <path fill="#EC6974" d="m338.763 291.003-10.993 6.378-5.531-3.19c-3.059-1.763-3.082-4.618-.043-6.383 3.04-1.763 7.976-1.76 11.035.004l5.532 3.191Z"/>
  <path fill="#F1F1F1" d="m348.448 298.615-.011 3.728-7.483 4.344.011-3.729 7.483-4.343Z"/>
  <path fill="#DFE8EA" d="m340.965 302.958-.011 3.729-6.808-3.926.011-3.728 6.808 3.925Z"/>
  <path fill="#EBF6F9" d="m348.448 298.615-7.483 4.343-6.808-3.925 7.483-4.343 6.808 3.925Z"/>
  <path fill="#BF4B49" d="M370.701 315.774c-3.039 1.763-7.976 1.759-11.035-.004l-20.457-11.794-.01 3.729 20.456 11.793c3.059 1.764 7.996 1.767 11.035.004 1.508-.874 2.263-2.019 2.265-3.165l.011-3.729c-.002 1.146-.757 2.291-2.265 3.166Z"/>
  <path fill="#EC6974" d="M370.659 309.391c3.058 1.763 3.08 4.619.042 6.383-3.039 1.763-7.976 1.759-11.035-.004l-20.457-11.794 1.756-1.018 7.483-4.343 1.753-1.019 20.458 11.795Z"/>
  <path fill="#1C364F" d="m341.202 295.835-1.64.945 1.64.945 1.637-.945-1.637-.945Zm-5.096 2.937 1.64.944 1.639-.944-1.639-.945-1.64.945Z"/>
  <path fill="#5F66B9" d="m218.267 275.693-76.824 44.293-99.444-57.335 76.824-44.294 99.444 57.336Z"/>
  <path fill="#EC6974" d="m202.996 274.232-76.825 44.293-99.444-57.335 76.824-44.294 99.445 57.336Z"/>
  <path fill="#F8CF3E" d="m202.996 262.817-76.825 44.292-99.444-57.334 76.824-44.293 99.445 57.335Z"/>
  <path fill="#EC6974" d="m108.05 214.684-61.381 35.39 1.711.993 61.38-35.39-1.71-.993Zm29.957 17.129-1.71-.994-61.372 35.385 1.711.994 61.371-35.385Zm7.066 4.029-1.703-.989-61.38 35.39 1.704.987 61.379-35.388Zm7.059 4.032-1.703-.987-61.371 35.384 1.702.988 61.372-35.385Zm21.189 12.101-1.71-.992-61.372 35.385 1.71.992 61.372-35.385Zm-32.052 24.614 1.609 1.039 37.503-21.619-1.693-.99-37.419 21.57Zm24.988-28.651-1.704-.988-61.38 35.389 1.704.987 61.38-35.388Zm-7.067-4.029-1.703-.988-61.372 35.385 1.703.987 61.372-35.384Zm-28.249-16.135-1.702-.988-61.38 35.388 1.702.99 61.38-35.39Zm-7.064-4.029-1.704-.988-61.372 35.385 1.704.988 61.372-35.385Zm-7.059-4.034-1.704-.988-61.37 35.385 1.702.988 61.372-35.385Zm26.06 57.917-1.609-1.039 1.609 1.039Z"/>
  <path fill="#EBF6F9" d="m176.268 268.307-76.824 44.294L0 255.266l76.824-44.293 99.444 57.334Z"/>
  <path fill="#A4B7C7" d="m25.333 260.483 11.608-6.693-6.74-3.886-11.608 6.692 6.74 3.887Zm12.857-6.693-12.856 7.414-7.99-4.608 12.856-7.412 7.99 4.606Z"/>
  <path fill="#A4B7C7" d="m37.566 253.429 11.608-6.692-6.74-3.886-11.608 6.693 6.74 3.885Zm12.857-6.692-12.856 7.413-7.99-4.607 12.856-7.412 7.99 4.606Z"/>
  <path fill="#A4B7C7" d="m49.798 246.377 11.608-6.693-6.74-3.886-11.609 6.694 6.74 3.885Zm12.858-6.692-12.858 7.413-7.99-4.606 12.856-7.413 7.992 4.606Z"/>
  <path fill="#A4B7C7" d="m62.03 239.324 11.608-6.692-6.74-3.886-11.608 6.693 6.74 3.885Zm12.857-6.692-12.857 7.413-7.99-4.606 12.857-7.414 7.99 4.607Z"/>
  <path fill="#A4B7C7" d="m74.263 232.273 11.608-6.693-6.74-3.887-11.608 6.694 6.74 3.886Zm12.857-6.692-12.856 7.411-7.99-4.607 12.855-7.412 7.991 4.608ZM32.7 264.73l11.607-6.693-6.74-3.887-11.608 6.692 6.741 3.888Zm12.857-6.692L32.7 265.449l-7.991-4.607 12.856-7.413 7.99 4.609Z"/>
  <path fill="#A4B7C7" d="m44.931 257.677 11.609-6.692-6.742-3.887-11.608 6.693 6.742 3.886Zm12.858-6.692-12.857 7.412-7.99-4.606 12.856-7.414 7.991 4.608Z"/>
  <path fill="#A4B7C7" d="m57.164 250.625 11.608-6.693-6.742-3.887-11.607 6.692 6.74 3.888Zm12.857-6.692-12.856 7.412-7.991-4.608 12.856-7.413 7.991 4.609Z"/>
  <path fill="#A4B7C7" d="m69.396 243.571 11.608-6.692-6.74-3.887-11.608 6.693 6.74 3.886Zm12.858-6.692-12.857 7.413-7.99-4.608 12.855-7.411 7.992 4.606Z"/>
  <path fill="#A4B7C7" d="m81.63 236.518 11.607-6.692-6.741-3.887-11.608 6.693 6.741 3.886Zm12.855-6.692-12.856 7.413-7.99-4.607 12.856-7.412 7.99 4.606Zm-54.419 39.149 11.607-6.692-6.74-3.886-11.609 6.692 6.742 3.886Zm12.856-6.691-12.856 7.412-7.99-4.607 12.855-7.412 7.992 4.607Z"/>
  <path fill="#A4B7C7" d="m52.297 261.924 11.609-6.693-6.741-3.886-11.609 6.693 6.741 3.886Zm12.857-6.693-12.856 7.414-7.991-4.608 12.856-7.412 7.991 4.606Z"/>
  <path fill="#A4B7C7" d="m64.53 254.871 11.609-6.693-6.742-3.885-11.608 6.692 6.742 3.886Zm12.858-6.693-12.857 7.413-7.991-4.606 12.856-7.413 7.992 4.606Z"/>
  <path fill="#A4B7C7" d="m76.762 247.819 11.608-6.693-6.741-3.887-11.608 6.694 6.741 3.886Zm12.857-6.692-12.856 7.412-7.992-4.608 12.858-7.413 7.99 4.609Z"/>
  <path fill="#A4B7C7" d="m88.995 240.766 11.607-6.692-6.74-3.888-11.608 6.693 6.74 3.887Zm12.857-6.692-12.856 7.412-7.992-4.607 12.857-7.413 7.991 4.608Zm-54.42 39.149 11.608-6.692-6.742-3.886-11.607 6.692 6.741 3.886Zm12.857-6.692-12.855 7.413-7.992-4.607 12.856-7.413 7.991 4.607Z"/>
  <path fill="#A4B7C7" d="m59.664 266.171 11.61-6.693-6.743-3.887-11.608 6.694 6.74 3.886Zm12.857-6.692-12.856 7.413-7.991-4.609 12.857-7.412 7.99 4.608Z"/>
  <path fill="#A4B7C7" d="m71.896 259.118 11.609-6.692-6.742-3.887-11.609 6.692 6.742 3.887Zm12.857-6.692-12.856 7.413-7.99-4.608 12.855-7.412 7.99 4.607Z"/>
  <path fill="#A4B7C7" d="m84.13 252.066 11.607-6.694-6.741-3.886-11.608 6.692 6.741 3.888Zm12.857-6.692-12.858 7.412-7.99-4.608 12.856-7.412 7.992 4.608Z"/>
  <path fill="#A4B7C7" d="m96.36 245.012 11.609-6.692-6.742-3.886-11.608 6.693 6.742 3.885Zm12.858-6.692-12.856 7.413-7.992-4.607 12.857-7.412 7.991 4.606Zm-54.421 39.15 11.608-6.694-6.74-3.884-11.608 6.692 6.74 3.886Zm12.857-6.693-12.856 7.412-7.99-4.606 12.856-7.412 7.99 4.606Z"/>
  <path fill="#A4B7C7" d="m67.03 270.417 11.607-6.692-6.74-3.886-11.608 6.692 6.74 3.886Zm12.857-6.692-12.856 7.412-7.991-4.606 12.856-7.413 7.99 4.607Z"/>
  <path fill="#A4B7C7" d="m79.26 263.365 11.61-6.693-6.742-3.887-11.607 6.694 6.74 3.886Zm12.858-6.692-12.856 7.411-7.99-4.606 12.856-7.412 7.99 4.607Z"/>
  <path fill="#A4B7C7" d="m91.494 256.312 11.608-6.692-6.74-3.887-11.609 6.693 6.741 3.886Zm12.858-6.692-12.858 7.413-7.99-4.607 12.857-7.414 7.991 4.608Z"/>
  <path fill="#A4B7C7" d="m103.727 249.259 11.608-6.692-6.74-3.887-11.608 6.694 6.74 3.885Zm12.856-6.692-12.856 7.413-7.99-4.608 12.856-7.412 7.99 4.607Zm-54.419 39.15 11.608-6.693-6.742-3.887-11.608 6.692 6.742 3.888Zm12.857-6.692-12.856 7.412-7.992-4.608 12.856-7.412 7.992 4.608Z"/>
  <path fill="#A4B7C7" d="m74.396 274.664 11.608-6.692-6.741-3.888-11.608 6.694 6.74 3.886Zm12.857-6.692-12.856 7.413-7.992-4.609 12.856-7.41 7.992 4.606Z"/>
  <path fill="#A4B7C7" d="m86.627 267.612 11.608-6.694-6.741-3.885-11.608 6.692 6.741 3.887Zm12.858-6.694-12.856 7.414-7.992-4.607 12.857-7.413 7.99 4.606Z"/>
  <path fill="#A4B7C7" d="m98.86 260.559 11.609-6.694-6.743-3.885-11.608 6.693 6.742 3.886Zm12.857-6.692-12.856 7.413-7.99-4.608 12.855-7.413 7.991 4.608Z"/>
  <path fill="#A4B7C7" d="m111.092 253.507 11.609-6.692-6.741-3.887-11.608 6.692 6.74 3.887Zm12.857-6.692-12.856 7.412-7.99-4.607 12.856-7.413 7.99 4.608Z"/>
  <path fill="#EC6974" d="m62.593 282.139-.858-.124 4.837-11.229-7.159-13.069 24.245-5.459-2.502-15.564 10.309-1.735-5.39-9.299.839-.161 5.68 9.8-10.492 1.765 2.497 15.529-24.095 5.424 6.983 12.753-.029.069-4.865 11.3Z"/>
  <path fill="#EC6974" d="M86.45 251.088c1.283.739 1.283 1.937 0 2.676-1.283.74-3.362.74-4.645 0-1.282-.739-1.282-1.937 0-2.676 1.283-.741 3.362-.741 4.646 0Zm-24.226 5.473c1.283.739 1.283 1.938 0 2.679-1.282.739-3.362.739-4.644 0-1.284-.741-1.284-1.94 0-2.679 1.282-.739 3.362-.739 4.644 0Zm7.129 12.877c1.283.739 1.283 1.94 0 2.679-1.282.739-3.362.739-4.644 0-1.284-.739-1.284-1.94 0-2.679 1.281-.738 3.362-.738 4.644 0Zm14.598-33.897c1.284.739 1.284 1.938 0 2.677-1.282.74-3.36.74-4.644 0-1.282-.739-1.282-1.938 0-2.677 1.283-.74 3.362-.74 4.644 0Zm4.866-11.301c1.283.74 1.283 1.94 0 2.679-1.283.739-3.362.739-4.644 0-1.283-.739-1.283-1.939 0-2.679 1.282-.739 3.361-.739 4.644 0Z"/>
  <path fill="#A4B7C7" d="m77.673 288.84-.407.235-4.222-2.435-.436 1.079-.49-.065.532-1.305.352-.203 4.671 2.694Zm.196-4.171c.926.535.99 1.17 1.074 3.025l2.213-1.275.301.238-2.634 1.519-.343-.198c-.113-2.065-.19-2.58-1.011-3.054a1.82 1.82 0 0 0-1.792-.012c-.45.258-.57.547-.514.91l-.49.041c-.078-.473.12-.839.68-1.161.8-.463 1.813-.439 2.516-.033Zm4.817.981a.84.84 0 0 1 .28.282l.542.766-.295.172-.752-.759a.705.705 0 0 1-.45-.074c-.181-.105-.181-.274.008-.384a.708.708 0 0 1 .667-.003Zm-.879-1.892c1.44.831 2.452.985 3.125.596.675-.389.41-.964-1.031-1.795-1.44-.83-2.446-.988-3.12-.599-.667.385-.413.969 1.026 1.798Zm2.523-1.445c1.58.91 1.897 1.685.941 2.235-.963.556-2.305.365-3.885-.546-1.58-.911-1.903-1.681-.94-2.236.96-.555 2.296-.369 3.884.547Zm1.34-.78c1.44.828 2.451.983 3.125.594.674-.388.408-.964-1.032-1.794-1.44-.831-2.446-.989-3.12-.6-.667.385-.414.969 1.026 1.8Zm2.521-1.447c1.58.91 1.898 1.685.942 2.235-.962.556-2.305.365-3.886-.546-1.58-.911-1.903-1.681-.94-2.236.962-.555 2.296-.368 3.884.547Zm-2.436 13.413-.408.234-4.221-2.432-.436 1.076-.492-.065.535-1.304.35-.202 4.672 2.693Zm-.691-4.625 2.572 3.606-.506.145-2.459-3.491-2.184 1.26-.344-.198 2.606-1.504.316.182Zm3.056.564c1.44.83 2.451.983 3.125.596.675-.389.409-.964-1.032-1.795-1.44-.83-2.445-.988-3.119-.6-.667.386-.414.968 1.026 1.799Zm2.522-1.447c1.58.912 1.897 1.686.94 2.237-.96.554-2.303.365-3.884-.547-1.58-.911-1.904-1.681-.941-2.236.963-.555 2.297-.368 3.885.546Zm3.594.318c.12.069.204.167.281.283l.54.766-.294.17-.752-.757a.7.7 0 0 1-.45-.074c-.182-.105-.182-.274.008-.384a.708.708 0 0 1 .666-.004Zm-.878-1.891c1.44.83 2.452.984 3.125.596.675-.389.41-.964-1.031-1.795-1.44-.83-2.446-.988-3.12-.599-.667.385-.414.967 1.026 1.798Zm2.522-1.446c1.58.911 1.898 1.685.942 2.236-.963.556-2.305.365-3.886-.546-1.58-.912-1.903-1.681-.94-2.237.962-.554 2.297-.367 3.884.547Zm1.34-.781c1.44.829 2.45.984 3.126.595.673-.388.407-.964-1.032-1.794-1.44-.83-2.445-.989-3.12-.599-.668.384-.414.967 1.027 1.798Zm2.522-1.445c1.581.91 1.897 1.684.941 2.234-.963.556-2.304.365-3.886-.545-1.58-.912-1.902-1.682-.94-2.237.962-.555 2.297-.367 3.885.548Zm37.618-28.199-37.32 21.517-.209-.12 37.321-21.518.208.121Zm8.083 4.659-37.322 21.519-.209-.121 37.321-21.518.21.12Z"/>
  <path fill="#96C5D2" d="m244.906 304.437-.014 4.65-47.342 27.475.012-4.649 47.344-27.476Z"/>
  <path fill="#ABD4E4" d="m197.562 331.913-.012 4.649-32.824-18.925.013-4.649 32.823 18.925Z"/>
  <path fill="#C3E7F7" d="m244.906 304.437-47.343 27.476-32.824-18.925 47.344-27.475 32.823 18.924Z"/>
  <path fill="#504B90" d="m239.237 305.381-28.768-16.587-8.106 4.704 28.769 16.586 8.105-4.703Z"/>
  <path fill="#EC6974" d="m205.674 297.771-4.734-2.73c-.342-.198-.898-.195-1.238.002l-5.123 2.973c-.346.201-.344.521 0 .718l4.733 2.73c.343.197.899.2 1.244 0l5.123-2.973c.341-.198.34-.523-.005-.72Zm7.599 4.38-4.732-2.728c-.347-.199-.903-.197-1.243 0l-5.123 2.973c-.345.2-.342.521.004.72l4.73 2.727c.343.198.9.201 1.243 0l5.124-2.973c.34-.197.339-.522-.003-.719Zm7.599 4.382-4.733-2.73c-.343-.198-.903-.198-1.245 0l-5.123 2.974c-.344.199-.339.522.004.72l4.734 2.729c.343.197.895.197 1.239-.002l5.124-2.974c.341-.198.342-.519 0-.717Z"/>
  <path fill="#EBF6F9" d="m228.469 310.914-4.733-2.73c-.343-.198-.899-.196-1.24.001l-5.124 2.974c-.344.2-.341.52.001.717l4.734 2.728c.343.2.896.2 1.239 0l5.125-2.973c.339-.198.341-.521-.002-.717Zm-30.765-8.518-4.734-2.729c-.345-.198-.9-.196-1.241.002l-5.123 2.974c-.34.197-.342.519.001.717l4.734 2.73c.342.198.902.198 1.242 0l5.124-2.974c.341-.198.339-.522-.003-.72Zm7.597 4.381-4.73-2.727c-.346-.2-.903-.198-1.245 0l-5.123 2.972c-.34.198-.341.521.005.72l4.73 2.729c.342.196.902.196 1.243 0l5.124-2.974c.34-.198.338-.523-.004-.72Zm7.601 4.382-4.735-2.73c-.343-.197-.903-.197-1.242 0l-5.125 2.974c-.341.198-.338.522.004.72l4.734 2.729c.343.198.898.196 1.24-.002l5.124-2.974c.339-.197.342-.519 0-.717Zm7.596 4.38-4.734-2.729c-.343-.198-.9-.196-1.239.002l-5.125 2.974c-.34.196-.342.519 0 .717l4.735 2.729c.344.197.9.195 1.24-.002l5.123-2.973c.341-.199.342-.521 0-.718Zm-30.765-8.517-4.735-2.729c-.342-.197-.899-.195-1.24.002l-5.123 2.974c-.341.198-.342.52 0 .717l4.734 2.73c.343.198.903.198 1.243 0l5.124-2.974c.34-.197.339-.522-.003-.72Zm7.596 4.381-4.73-2.727c-.347-.201-.903-.198-1.243 0l-5.124 2.973c-.34.197-.343.519.005.72l4.73 2.727c.342.197.902.197 1.243 0l5.123-2.973c.341-.199.339-.522-.004-.72Zm7.6 4.383-4.733-2.73c-.343-.198-.903-.198-1.244 0l-5.124 2.973c-.34.197-.339.522.005.719l4.734 2.73c.343.198.899.195 1.24-.003l5.123-2.972c.34-.198.342-.521-.001-.717Zm7.596 4.379-4.733-2.729c-.343-.197-.899-.196-1.239.002l-5.123 2.974c-.342.198-.343.519 0 .717l4.734 2.73c.342.198.898.195 1.239-.003l5.123-2.973c.341-.197.344-.52-.001-.718Zm-30.765-8.516-4.734-2.729c-.342-.198-.895-.198-1.239.001l-5.125 2.973c-.339.199-.341.521.002.718l4.733 2.731c.343.196.903.196 1.245 0l5.123-2.974c.343-.2.337-.523-.005-.72Zm7.596 4.38-4.73-2.728c-.346-.199-.899-.199-1.242 0l-5.124 2.974c-.341.198-.343.52.003.719l4.73 2.728c.345.198.905.198 1.245 0l5.123-2.974c.343-.199.339-.522-.005-.719Zm7.602 4.382-4.734-2.729c-.343-.198-.9-.201-1.243 0l-5.123 2.973c-.342.197-.34.522.004.72l4.734 2.73c.343.196.899.194 1.239-.003l5.123-2.973c.346-.201.343-.52 0-.718Zm7.597 4.381-4.733-2.731c-.344-.197-.896-.197-1.241.002l-5.123 2.974c-.34.198-.342.52.001.717l4.734 2.73c.342.198.898.196 1.238-.001l5.124-2.974c.345-.2.343-.52 0-.717Zm77.026-13.279c-1.138-.658-1.138-1.722 0-2.377 1.139-.657 2.983-.657 4.121 0 1.14.655 1.14 1.719 0 2.377-1.138.655-2.982.655-4.121 0Zm-7.363 4.245c-1.138-.656-1.138-1.721 0-2.377 1.139-.657 2.983-.657 4.122 0 1.139.656 1.139 1.721 0 2.377-1.139.657-2.983.657-4.122 0Zm-7.363 4.244c-1.138-.656-1.138-1.721 0-2.377 1.139-.656 2.984-.656 4.123 0 1.138.657 1.138 1.721 0 2.377-1.138.657-2.984.657-4.123 0Zm-7.363 4.246c-1.138-.657-1.138-1.721 0-2.378 1.139-.656 2.985-.656 4.123 0 1.138.657 1.138 1.721 0 2.378-1.138.656-2.984.656-4.123 0Zm-7.362 4.246c-1.139-.657-1.139-1.722 0-2.379 1.138-.655 2.984-.655 4.122 0 1.138.657 1.138 1.722.001 2.379-1.139.654-2.985.654-4.123 0Zm-7.363 4.244c-1.139-.657-1.139-1.721 0-2.377 1.138-.657 2.984-.657 4.123 0 1.137.656 1.137 1.72 0 2.377-1.139.655-2.985.655-4.123 0Zm-7.363 4.245c-1.139-.656-1.139-1.721 0-2.377 1.139-.657 2.985-.657 4.123 0 1.137.656 1.137 1.721 0 2.377-1.138.657-2.984.657-4.123 0Zm-7.362 4.244c-1.14-.656-1.14-1.72 0-2.376 1.138-.657 2.984-.657 4.122 0 1.139.656 1.139 1.72 0 2.376-1.138.657-2.984.657-4.122 0Zm54.443-39.297-66.939 38.595 49.339 28.448 66.939-38.595-49.339-28.448Z"/>
  <path fill="#A4B7C7" d="M319.517 333.479 287.464 315l.164-.095 32.053 18.48-.164.094Zm-7.363 4.247L280.1 319.245l.164-.096 32.054 18.481-.164.096Zm-7.363 4.245-32.052-18.481.164-.095 32.053 18.481-.165.095Zm-7.362 4.244-32.054-18.48.163-.095 32.055 18.481-.164.094Zm-7.362 4.245-32.053-18.481.164-.094 32.052 18.481-.163.094Zm-7.363 4.246-32.055-18.481.166-.095 32.053 18.481-.164.095Zm-7.363 4.244-32.053-18.48.165-.096 32.053 18.482-.165.094Zm-7.363 4.246-32.053-18.481.164-.095 32.053 18.481-.164.095Z"/>
  <path fill="#7273C1" d="M461.359 191.171v106.003l-15.271 8.812-.029-105.975 15.3-8.84Z"/>
  <path fill="#7273C1" d="m461.359 191.171-15.3 8.841-61.283-35.334 15.301-8.841 61.282 35.334Z"/>
  <path fill="#EBF6F9" d="m400.077 159.141-9.574 5.533 58.421 33.672.027 105.996 9.542-5.507V192.818l.006-.003-58.422-33.674Z"/>
  <path fill="#54C5AF" d="m446.058 200.011.029 105.975-61.339-35.334.028-105.975 61.282 35.334Z"/>
  <path fill="#EBF6F9" d="M400.109 191.171v17.667l30.652 17.667v-17.683l-30.652-17.651Zm0 35.333v4.408l30.652 17.667v-4.425l-30.652-17.65Zm0 13.261v4.406l30.652 17.667v-4.424l-30.652-17.649Zm0 13.258v4.408l30.652 17.667v-4.424l-30.652-17.651Z"/>
  <path fill="#F8CF3E" d="M446.087 199.984v106.002l-15.27 8.812-.029-105.973 15.299-8.841Z"/>
  <path fill="#F8E193" d="m446.087 199.984-15.299 8.841-61.282-35.336 15.299-8.84 61.282 35.335Z"/>
  <path fill="#EBF6F9" d="m384.806 167.953-9.574 5.534 58.421 33.672.028 105.995 9.541-5.506v-106.02l.005-.002-58.421-33.673Z"/>
  <path fill="#F8CF3E" d="m430.789 208.825.029 105.973-61.339-35.334.027-105.975 61.283 35.336Z"/>
  <path fill="#EBF6F9" d="M384.839 199.984v17.666l30.651 17.668v-17.685l-30.651-17.649Zm0 35.333v4.407l30.651 17.666v-4.424l-30.651-17.649Zm0 13.26v4.407l30.651 17.667v-4.424l-30.651-17.65Zm0 13.258v4.408l30.651 17.666v-4.424l-30.651-17.65Z"/>
  <path fill="#EC6974" d="M430.818 208.796v106.002l-15.27 8.813-.029-105.976 15.299-8.839Zm-.001 0-15.299 8.839-61.284-35.333 15.301-8.84 61.282 35.334Z"/>
  <path fill="#EBF6F9" d="m369.536 176.765-9.575 5.534 58.422 33.671.027 105.996 9.541-5.506V210.442l.006-.004-58.421-33.673Z"/>
  <path fill="#D65667" d="m415.518 217.635.029 105.976-61.34-35.334.028-105.975 61.283 35.333Z"/>
  <path fill="#CB5261" d="m400.219 244.129-30.652-17.667v-17.667l30.652 17.649v17.685Zm0 22.074-30.652-17.667v-4.408l30.652 17.651v4.424Zm0 13.259-30.652-17.667v-4.407l30.652 17.65v4.424Zm0 13.259-30.652-17.667v-4.406l30.652 17.649v4.424Z"/>
  <path fill="#DF636F" d="m415.548 323.611-.005-17.613-.024-88.363 2.865-1.653.026 105.977-2.862 1.652Z"/>
  <path fill="#7F7AC5" d="M427.951 316.452v-.001l2.866-1.653 2.864-1.654v.001l-5.73 3.307Zm15.271-8.813 2.866-1.653 2.863-1.652-5.729 3.305Z"/>
  <path fill="#6B6DBE" d="M446.087 305.986V199.994l2.836-1.638.028 105.978-2.864 1.652Z"/>
  <path fill="#6B6DBE" d="M446.087 199.995v-.008l2.836-1.637v.006l-2.836 1.639Zm12.405 98.833V192.827l2.867-1.656v106.003l-2.867 1.654Z"/>
  <path fill="#6B6DBE" d="M458.492 192.827v-.002l2.867-1.654-2.867 1.656Z"/>
  <path fill="#DDEAEC" d="m448.952 304.334-.028-105.978v-.006l9.569-5.524v106.002l-9.541 5.506Z"/>
  <path fill="#E9C33C" d="M430.817 314.798v-105.99l2.836-1.639.028 105.975-2.864 1.654Zm12.405-7.159V201.641l2.865-1.654v105.999l-2.865 1.653Z"/>
  <path fill="#E9D68B" d="M430.817 208.808v-.004l2.836-1.639v.004l-2.836 1.639Z"/>
  <path fill="#DDEAEC" d="M433.681 313.146v-.002l-.028-105.975v-.004l9.569-5.524v105.998l-9.541 5.507Z"/>
  <path fill="#DF636F" d="M427.951 316.451V210.457l2.866-1.653v105.994l-2.866 1.653Z"/>
  <path fill="#DDEAEC" d="m418.41 321.958-.026-105.976 9.567-5.525v105.995l-9.541 5.506Z"/>
  <path fill="#CB5261" d="m415.548 323.611-.029-105.976.024 88.363.005 17.613Z"/>
  <path fill="#F8CF3E" d="M209.409 59.663c-3.258 1.878-8.562-1.178-11.82-6.816-3.259-5.637-3.259-11.75 0-13.631 3.258-1.878 8.562 1.179 11.82 6.815 3.259 5.638 3.26 11.753 0 13.632Zm-16.687-26.296c-4 3.467-3.939 11.938.138 19.993 4.632 9.151 12.566 14.77 18.266 13.672l8.796 15.213c.37.642.972.989 1.344.774l2.471-1.424c.371-.214.371-.908 0-1.55l-8.795-15.213c3.563-4.105 2.992-12.854-1.718-21-5.73-9.908-15.296-14.974-20.502-10.465Zm-66.051 72.929L89.267 84.73l18.702 23.423 18.702-1.857Z"/>
  <path fill="#F8CF3E" d="M107.969 110.182 88.657 85.995v25.692l38.624 22.27v-25.693l-19.312 1.918Zm50.118-80.085-4.691 2.704c-.186-2.553-2.112-3.561-4.467-2.204l-7.032 4.055c.144-.68.227-1.354.227-2.003 0-3.884-2.756-5.473-6.126-3.531l-10.784 6.219c-3.368 1.94-6.124 6.709-6.124 10.593 0 .648.082 1.227.226 1.741l-.959.553c-2.355 1.357-4.28 4.585-4.467 7.355l-1.41.813c-3.199 1.843-5.816 6.37-5.816 10.059 0 3.687 2.617 5.195 5.816 3.352l45.607-26.295c3.198-1.844 5.815-6.37 5.815-10.058 0-3.689-2.617-5.197-5.815-3.353ZM48.273 130.683c-1.402.807-2.539.152-2.539-1.465 0-1.616 1.137-3.583 2.54-4.392 1.401-.808 2.538-.153 2.538 1.464s-1.136 3.583-2.539 4.393Zm-11.65 6.716c-1.401.808-2.539.153-2.539-1.464s1.137-3.583 2.54-4.391c1.402-.81 2.538-.154 2.538 1.463 0 1.616-1.136 3.583-2.538 4.392Zm-11.649 6.716c-1.402.809-2.54.154-2.54-1.464 0-1.617 1.137-3.583 2.54-4.391 1.402-.809 2.54-.153 2.54 1.464s-1.138 3.583-2.54 4.391Zm29.162-38.371-35.024 20.193c-2.822 1.627-5.11 5.583-5.11 8.836v25.48c0 3.253 2.288 4.572 5.11 2.945L40.9 150.635l6.616 3.814v-7.628l6.619-3.817c2.821-1.627 5.108-5.582 5.108-8.835v-25.48c0-3.252-2.287-4.571-5.108-2.945ZM442.729 75.35l2.957 5.268c2.874-1.512 6.74-1.233 11.03 1.239 4.289 2.473 8.156 6.655 11.029 11.478l2.956-1.857c-3.636-6.109-8.555-11.424-13.985-14.556-5.433-3.13-10.351-3.488-13.987-1.571Zm13.987-8.923c-7.873-4.54-15.015-5.075-20.285-2.296l2.958 5.27c4.507-2.375 10.596-1.92 17.327 1.96 6.731 3.882 12.819 10.446 17.326 18.019L477 87.521c-5.269-8.856-12.413-16.556-20.284-21.094Zm-7.85 19.855 2.957 5.267c1.276-.671 2.986-.548 4.893.55 1.906 1.1 3.615 2.948 4.893 5.093l2.956-1.858c-2.041-3.429-4.801-6.412-7.849-8.17-3.049-1.756-5.81-1.957-7.85-.882Zm7.85 10.11c-1.856-1.07-3.361-.203-3.361 1.938 0 2.137 1.505 4.74 3.361 5.809 1.855 1.07 3.359.203 3.359-1.936 0-2.14-1.504-4.742-3.359-5.81Z"/>
  <path fill="#F8E193" d="m308.229 122.862.93-3.892.909 4.953-1.839-1.061Z"/>
  <path fill="#F8CF3E" d="m294.747 145.664-.004 1.634-25.231-14.548.005-1.634 25.23 14.548Zm8.597-.074-.005 1.634-33.814-19.495.005-1.635 33.814 19.496Zm.014-5.022-.005 1.634-33.814-19.495.005-1.635 33.814 19.496Zm.015-5.022-.005 1.636-33.814-19.497.005-1.634 33.814 19.495Z"/>
  <path fill="#F8E193" d="M287.482 109.714c-.008 2.656-.839 2.854-2.084 2.136l-.681-.394.018-6.568.655.378c1.206.695 2.1 1.762 2.092 4.448Z"/>
  <path fill="#F8CF3E" d="m303.386 130.525-.005 1.634-33.814-19.496.005-1.634 33.814 19.496Zm33.355 39.351-.004 1.634-25.232-14.548.004-1.634 25.232 14.548Zm8.597-.074-.004 1.634-33.814-19.496.004-1.634 33.814 19.496Zm.015-5.022-.005 1.634-33.814-19.496.005-1.634 33.814 19.496Zm.013-5.021-.005 1.635-33.814-19.497.005-1.634 33.814 19.496Zm.014-5.021-.004 1.634-33.814-19.497.004-1.634 33.814 19.497Z"/>
  <path fill="#F8E193" d="M327.075 136.11c-1.129-.651-1.76-1.999-1.753-4.534.008-2.53.616-3.164 1.773-2.496 1.169.672 1.771 2.005 1.764 4.535-.008 2.535-.6 3.179-1.784 2.495Z"/>
  <path fill="#EC6974" d="M266.027 83.259c.71.41 1.281 1.396 1.278 2.21-.002.814-.576 1.141-1.286.732-.709-.408-1.281-1.396-1.279-2.21.003-.814.578-1.141 1.287-.732Z"/>
  <path fill="#F8CF3E" d="M271.152 86.213c.704.406 1.281 1.396 1.278 2.21-.002.814-.583 1.138-1.286.733-.71-.409-1.281-1.397-1.279-2.21.003-.815.577-1.142 1.287-.733Z"/>
  <path fill="#8681C8" d="M276.275 89.167c.704.406 1.281 1.396 1.278 2.21-.002.815-.581 1.138-1.285.732-.71-.41-1.281-1.396-1.279-2.21.003-.814.576-1.141 1.286-.732Z"/>
  <path fill="#F8E193" d="M276.275 89.167c-.71-.41-1.284-.082-1.286.732-.003.814.568 1.8 1.278 2.21.704.406 1.283.082 1.286-.732.002-.814-.575-1.804-1.278-2.21Zm-5.124-2.954c-.71-.41-1.284-.082-1.286.732-.003.814.568 1.802 1.278 2.211.704.405 1.284.081 1.287-.733.002-.814-.575-1.804-1.279-2.21Zm-5.132-.012c.71.41 1.284.082 1.286-.732.003-.814-.568-1.8-1.278-2.21-.709-.41-1.284-.082-1.287.732-.002.814.57 1.802 1.279 2.21Zm53.872 37.239-.029 9.999 2.063 1.189.029-9.999-2.063-1.189Zm-25.149 23.858.005-1.634-25.232-14.548-.004 1.634 25.231 14.548Zm41.995 24.212.003-1.635-25.232-14.547-.003 1.634 25.232 14.548Zm-55.949-66.526-2.679-1.545.007-2.392 3.066 1.768.224-1.564-5.348-3.084-.029 9.999 5.348 3.084.005-1.697-3.285-1.894.007-2.56 2.679 1.544.005-1.659Zm22.565 37.218.005-1.634-33.814-19.496-.005 1.635 33.814 19.495Zm41.995 24.212.005-1.634-33.814-19.496-.005 1.634 33.814 19.496Zm-42.009-19.19.005-1.634-33.814-19.496-.005 1.634 33.814 19.496Zm.042-15.066.005-1.634-33.814-19.495-.005 1.634 33.814 19.495Zm-.013 5.024.005-1.636-33.814-19.495-.005 1.634 33.814 19.497Zm41.965 34.254.005-1.634-33.814-19.496-.005 1.634 33.814 19.496Zm.043-15.064.004-1.635-33.814-19.496-.004 1.634 33.814 19.497Zm-.015 5.021.005-1.634-33.814-19.496-.005 1.634 33.814 19.496Zm-32.967-42.276-.005 1.815 2.247 1.296-.022 8.184 2.062 1.19.023-8.184 2.151 1.24.205-1.7-6.661-3.841Zm19.878 11.461-.028 10 1.838 1.06.011-3.663c.005-1.848-.155-3.269-.256-4.237l2.499 9.198 2.624 1.514.029-9.999-1.849-1.067-.011 4.039a29.79 29.79 0 0 0 .266 3.885l-2.553-9.249-2.57-1.481Zm-49.596-28.594-.028 9.999 2.62 1.51c2.226 1.283 4.34 1.48 4.352-2.546.011-4.132-2.191-6.224-4.516-7.563l-2.428-1.4Zm8.066 4.65-.019 6.68c-.006 2.111 1.114 4.217 3.389 5.529 2.275 1.313 3.416.42 3.422-1.603l.018-6.681-2.064-1.188-.018 6.581c-.003 1.282-.408 1.67-1.353 1.125-.932-.537-1.329-1.387-1.326-2.671l.019-6.58-2.068-1.192Zm11.88 6.604c-2.266-1.306-3.967-.405-3.977 2.938-.01 3.425 1.584 6.194 3.974 7.572 1.206.695 2.152.613 2.731.283l-.912-1.881c-.52.146-1.023.22-1.715-.18-1.157-.667-1.918-2.134-1.912-4.545.007-2.454.791-3.025 1.91-2.38.589.339 1.079.88 1.568 1.594l.987-.773c-.73-1.129-1.52-1.974-2.654-2.628Zm7.791 12.602.446 2.408 2.189 1.262-2.597-11.514-2.504-1.443-2.659 8.483 2.139 1.233.447-1.892 2.539 1.463Zm16.687 1.512c-2.45-1.413-3.929-.284-3.938 2.978-.009 3.331 1.458 6.103 3.908 7.515 2.466 1.422 3.945.293 3.955-2.981.009-3.338-1.459-6.091-3.925-7.512Zm23.528 2.175c1.386.799 2.506 2.737 2.502 4.321l-.147 51.995c-.005 1.591-1.132 2.233-2.519 1.434l-86.142-49.667c-1.387-.799-2.508-2.737-2.504-4.327l.148-51.996c.005-1.584 1.133-2.225 2.518-1.427l86.144 49.667Z"/>
  <path fill="#EC6974" d="m337.14 133.384-.011 4.039c-.005 1.603.155 3.012.266 3.885l-2.553-9.249-2.57-1.482-.028 10.001 1.838 1.06.011-3.663c.005-1.848-.155-3.269-.256-4.237l2.5 9.198 2.623 1.514.03-9.999-1.85-1.067Zm-10.065 2.726c-1.128-.651-1.76-1.999-1.752-4.534.007-2.53.615-3.164 1.773-2.496 1.168.673 1.77 2.005 1.763 4.535-.007 2.535-.6 3.179-1.784 2.495Zm.025-8.758c-2.45-1.414-3.929-.284-3.937 2.978-.01 3.331 1.457 6.103 3.907 7.515 2.466 1.422 3.945.293 3.955-2.981.01-3.338-1.459-6.091-3.925-7.512Zm-7.238 6.087 2.063 1.189.029-9.999-2.063-1.189-.029 9.999Zm-7.473-12.507 2.247 1.296-.022 8.184 2.062 1.19.023-8.184 2.151 1.24.205-1.7-6.661-3.841-.005 1.815Zm-7.951 1.218c-.52.146-1.022.22-1.715-.18-1.157-.667-1.918-2.134-1.912-4.545.008-2.454.791-3.025 1.91-2.38.589.339 1.079.88 1.569 1.594l.987-.773c-.731-1.129-1.521-1.974-2.655-2.628-2.265-1.306-3.967-.405-3.977 2.938-.009 3.425 1.585 6.194 3.974 7.572 1.206.695 2.152.613 2.731.283l-.912-1.881Zm3.791.712.93-3.892.909 4.953-1.839-1.061Zm-.282-6.309-2.658 8.483 2.138 1.233.447-1.892 2.539 1.462.446 2.409 2.189 1.262-2.596-11.514-2.505-1.443Zm-12.476-.601c-.004 1.283-.409 1.67-1.354 1.125-.932-.537-1.329-1.388-1.325-2.67l.018-6.581-2.068-1.192-.018 6.68c-.006 2.111 1.114 4.217 3.388 5.529 2.275 1.313 3.416.42 3.422-1.603l.018-6.681-2.063-1.189-.018 6.582Zm-14.288-13.137.223-1.564-5.348-3.084-.029 9.999 5.348 3.084.005-1.697-3.285-1.894.008-2.56 2.679 1.544.004-1.659-2.679-1.545.008-2.392 3.066 1.768Zm4.214 9.035-.681-.394.019-6.569.655.378c1.206.696 2.1 1.762 2.091 4.448-.007 2.656-.838 2.853-2.084 2.137Zm-.292-8.466-2.429-1.4-.028 9.999 2.62 1.51c2.227 1.283 4.341 1.48 4.353-2.546.011-4.132-2.192-6.224-4.516-7.563Z"/>
  <path fill="#7273C1" d="M177.953 102.858c.562-.327 1.343-.281 2.205.217l28.343 16.342c1.704.982 3.085 3.369 3.079 5.325l-.092 32.525c-.004.975-.348 1.663-.903 1.985l-16.897 9.805c.556-.323.901-1.009.903-1.986l.093-32.524c.005-1.956-1.373-4.343-3.078-5.326l-28.345-16.341c-.862-.497-1.641-.543-2.204-.217l16.896-9.805Z"/>
  <path fill="#5F66B9" d="m211.488 157.267.092-32.525a4.976 4.976 0 0 0-.119-1.004l-16.91 9.75c.08.359.133.716.133 1.059l-.093 32.524c-.002.977-.347 1.663-.903 1.986l16.896-9.805c.555-.322.9-1.01.904-1.985Z"/>
  <path fill="#525BB3" d="M163.261 112.88c-1.711-.986-3.1-.197-3.106 1.76l-.092 32.524c-.004 1.963 1.374 4.35 3.086 5.337l28.344 16.342c1.704.983 3.093.192 3.098-1.772l.093-32.524c.005-1.956-1.374-4.343-3.079-5.326l-28.344-16.341Z"/>
  <path fill="#5F66B9" d="M183.377 159.279c5.179 0 8.527-4.189 8.527-10.67 0-8.892-6.274-19.743-13.986-24.188-2.277-1.313-4.481-1.979-6.547-1.979-5.18 0-8.527 4.188-8.527 10.67 0 8.891 6.274 19.743 13.985 24.187 2.278 1.314 4.48 1.98 6.548 1.98Z"/>
  <path fill="#C3E7F7" d="M163.935 133.111c0 8.559 6.015 18.967 13.439 23.246 7.422 4.28 13.439.81 13.439-7.748 0-8.559-6.017-18.968-13.439-23.247-7.424-4.279-13.439-.81-13.439 7.749Z"/>
  <path fill="#525BB3" d="m170.264 141.841 7.581-.385v-13.133l-.944-.544v12.485l-7.089.36.452 1.217Z"/>
  <path fill="#525BB3" d="M175.966 140.049c0 .896.63 1.987 1.408 2.435.777.448 1.407.084 1.407-.813 0-.896-.63-1.985-1.407-2.433-.778-.449-1.408-.085-1.408.811Z"/>
  <path fill="#8F90D0" d="m197.463 117.004-5.531 3.21-15.96-9.202 5.53-3.21 15.961 9.202Z"/>
  <path fill="#5F66B9" d="m197.463 117.004-.006 1.97-5.53 3.209.006-1.969 5.53-3.21Z"/>
  <path fill="#525BB3" d="m191.933 120.214-.007 1.969-15.96-9.202.006-1.969 15.961 9.202Z"/>
  <path fill="#504B90" d="m369.587 41.661-.12 42.185c-.018 6.087-4.023 12.166-12.027 16.811-16.115 9.353-42.324 9.353-58.544 0-8.162-4.704-12.237-10.88-12.219-17.048l.12-42.183c-.017 6.166 4.058 12.342 12.218 17.047 16.22 9.352 42.429 9.352 58.544 0 8.004-4.645 12.011-10.723 12.028-16.812Z"/>
  <path fill="#504B90" d="M357.366 24.61c16.219 9.352 16.305 24.513.193 33.864-16.115 9.351-42.324 9.351-58.544 0-16.217-9.35-16.302-24.512-.187-33.864 16.11-9.35 42.321-9.35 58.538 0Z"/>
  <path fill="#3E3D7C" d="M357.559 58.474c-8.044 4.666-18.602 7.004-29.178 7.013v42.182c10.536-.025 21.046-2.361 29.058-7.012 8.004-4.645 12.01-10.724 12.028-16.811l.12-42.185c-.017 6.089-4.024 12.167-12.028 16.813Z"/>
  <path fill="#5E5AA6" d="m406.311 45.22-77.919 45.219-78.428-45.22L327.882 0l78.429 45.22Z"/>
  <path fill="#504B90" d="m406.311 45.22-.01 3.456-77.92 45.22.011-3.457 77.919-45.22Z"/>
  <path fill="#3E3D7C" d="m328.392 90.439-.011 3.457-78.428-45.219.011-3.458 78.428 45.22Z"/>
  <path fill="#F8CF3E" d="M369.529 102.346c1.003.579 1.011 1.519.016 2.097-1.001.581-2.626.579-3.63 0-1.003-.578-1.007-1.517-.008-2.097.997-.578 2.618-.578 3.622 0Zm1.274 8.334c1.71.987 1.724 2.589.025 3.576-1.705.989-4.477.986-6.187 0-1.711-.987-1.72-2.586-.015-3.576 1.699-.986 4.465-.986 6.177 0Z"/>
  <path fill="#F8CF3E" d="m363.353 112.469 1.808-8.846 5.113-.127 1.819 8.973h-8.74Z"/>
  <path fill="#DB9B49" d="m370.286 99.47-.012 4.026c0 .376-.248.751-.741 1.039-1.001.58-2.626.577-3.629 0-.504-.291-.757-.673-.756-1.055l.013-4.024c-.002.382.25.764.754 1.053 1.004.579 2.628.581 3.63 0 .493-.286.74-.661.741-1.038Z"/>
  <path fill="#F8CF3E" d="M369.529 98.413c1.003.578 1.011 1.52.016 2.097-1.001.58-2.626.578-3.63 0-1.003-.578-1.007-1.516-.008-2.097.997-.577 2.618-.577 3.622 0Z"/>
  <path fill="#DB9B49" d="M367.621 100.348c-.446-.022-.885-.133-1.223-.328-.367-.212-.558-.48-.575-.754v-.137l-.122-34.53 1.796 1.043.124 34.706Z"/>
  <path fill="#F8CF3E" d="m367.502 62.705 1.796 1.043c-.191-.111-.457-.096-.75.073l-1.796-1.042c.293-.17.559-.185.75-.074Z"/>
  <path fill="#F8CF3E" d="M369.732 99.184v.093c-.018.269-.209.539-.566.743-.424.247-.993.353-1.546.327l-.123-34.706c-.005-.67.472-1.485 1.049-1.82a.999.999 0 0 1 .481-.145l.11.014h.012l.086.029.024.01.027.011c.199.107.318.345.322.683l.124 34.761Z"/>
  <path fill="#F8CF3E" d="m367.496 65.64-1.796-1.042c-.001-.67.471-1.484 1.052-1.819l1.796 1.042c-.58.335-1.053 1.15-1.052 1.82Zm-39.848-24.044.006 2.075c0 .22.144.437.431.604l-.006-2.075c-.287-.167-.431-.385-.431-.604Z"/>
  <path fill="#DB9B49" d="m328.079 42.2.006 2.075 38.96 22.61-.006-2.074-38.96-22.61Z"/>
  <path fill="#F8CF3E" d="m369.587 66.272-.006-2.075c.001.222-.145.444-.439.614-.583.335-1.524.335-2.103 0l.006 2.074c.579.336 1.52.336 2.102 0 .295-.17.441-.39.44-.613Z"/>
  <path fill="#F8CF3E" d="M328.086 40.984c-.583.337-.583.882-.008 1.216l38.96 22.61c.58.336 1.521.336 2.104 0 .583-.336.586-.88.006-1.217l-38.959-22.609c-.577-.334-1.519-.336-2.103 0Z"/>
  <path fill="#DB9B49" d="M367.502 67.065v-2.073l-.464-.181-.204.47.125 1.432.085.172.458.18Z"/>
  <path fill="#F8CF3E" d="m165.38 394.439-70.493-40.642 43.998-25.366 70.492 40.642-43.997 25.366Z"/>
  <path fill="#E6BB3A" d="m94.887 356.96 70.493 40.643v-3.164l-70.493-40.642v3.163Zm70.493 40.643 43.997-25.367v-3.163l-43.997 25.366v3.164Z"/>
  <path fill="#F8CF3E" d="m165.38 379.272-70.493-40.643 43.998-25.366 70.492 40.643-43.997 25.366Z"/>
  <path fill="#E6BB3A" d="M205.313 356.249v18.439l4.064-2.343v-18.439l-4.064 2.343Z"/>
  <path fill="#EBF6F9" d="M165.38 382.437v9.843l-68.53-39.552v-9.844l68.53 39.553Z"/>
  <path fill="#E6BB3A" d="m165.38 382.437 43.997-25.368v-3.163l-43.997 25.367v3.164Zm-70.493-40.645 70.493 40.645v-3.164l-70.493-40.644v3.163Z"/>
  <path fill="#E9EAEA" d="m165.38 382.437 39.934-23.037v9.845L165.38 392.28v-9.843Z"/>
  <path fill="#F8E7A9" d="m179.09 343.02-33.103 19.087 1.167.671 33.103-19.086-1.167-.672Zm-38.191 16.152 1.166.672 33.103-19.086-1.166-.672-33.103 19.086Zm-18.065-10.416 33.103-19.086-13.255-7.642-33.103 19.087 13.255 7.641Zm61.347-2.801-33.103 19.085 1.166.673 33.102-19.086-1.165-.672Z"/>
  <path fill="#F8CF3E" d="M36.623 163.418a.603.603 0 0 1-.604-.604v-1.208a.604.604 0 0 1 1.209 0v1.208c0 .335-.27.604-.605.604Zm0 6.175a.604.604 0 0 1-.604-.604v-2.47a.604.604 0 1 1 1.209 0v2.47c0 .334-.27.604-.605.604Zm0 6.173a.603.603 0 0 1-.604-.604v-2.469a.604.604 0 1 1 1.209 0v2.469c0 .335-.27.604-.605.604Zm0 6.174a.603.603 0 0 1-.604-.604v-2.469a.604.604 0 1 1 1.209 0v2.469c0 .335-.27.604-.605.604Zm0 6.175a.604.604 0 0 1-.604-.604v-2.47a.603.603 0 0 1 1.21 0v2.47a.606.606 0 0 1-.606.604Zm0 6.173a.603.603 0 0 1-.604-.604v-2.47a.604.604 0 0 1 1.209 0v2.47c0 .335-.27.604-.605.604Zm0 6.174a.603.603 0 0 1-.604-.604v-2.468a.603.603 0 1 1 1.21 0v2.468a.605.605 0 0 1-.606.604Zm0 6.174a.604.604 0 0 1-.604-.604v-2.47a.604.604 0 0 1 1.209 0v2.47c0 .334-.27.604-.605.604Zm0 6.174a.603.603 0 0 1-.604-.604v-2.47a.603.603 0 0 1 1.209 0v2.47c0 .335-.27.604-.605.604Zm0 6.175a.603.603 0 0 1-.604-.603v-2.47a.603.603 0 1 1 1.21 0v2.47a.606.606 0 0 1-.606.603Zm0 6.173a.604.604 0 0 1-.604-.604v-2.47a.603.603 0 0 1 1.209 0v2.47c0 .334-.27.604-.605.604Zm0 4.912a.603.603 0 0 1-.604-.604v-1.207a.604.604 0 1 1 1.209 0v1.207c0 .335-.27.604-.605.604ZM202.635 74.284a.604.604 0 0 1-.605-.604v-1.207c0-.335.27-.604.605-.604.334 0 .605.269.605.604v1.207a.605.605 0 0 1-.605.604Zm0 5.509a.604.604 0 0 1-.605-.604v-2.204a.604.604 0 0 1 1.21 0v2.204a.605.605 0 0 1-.605.604Zm0 5.508a.604.604 0 0 1-.605-.604v-2.204a.604.604 0 0 1 1.21 0v2.204a.605.605 0 0 1-.605.604Zm0 5.509a.604.604 0 0 1-.605-.604v-2.204a.604.604 0 0 1 1.21 0v2.204a.605.605 0 0 1-.605.604Zm0 5.508a.604.604 0 0 1-.605-.604V93.51a.604.604 0 0 1 1.21 0v2.204a.605.605 0 0 1-.605.604Zm0 5.508a.604.604 0 0 1-.605-.604v-2.203a.604.604 0 0 1 1.21 0v2.203a.604.604 0 0 1-.605.604Zm1.049 5.113-.302-.079-1.048-.601a.602.602 0 0 1-.304-.524v-1.207a.604.604 0 0 1 1.21 0v.858l.745.427a.602.602 0 0 1-.301 1.126Zm5.191 2.972-.301-.081-2.077-1.189a.604.604 0 1 1 .602-1.047l2.077 1.189a.6.6 0 0 1 .222.823.6.6 0 0 1-.523.305Zm5.193 2.969-.3-.079-2.078-1.189a.603.603 0 1 1 .6-1.048l2.078 1.188a.603.603 0 0 1-.3 1.128Zm5.192 2.97-.3-.079-2.078-1.189a.604.604 0 1 1 .6-1.048l2.078 1.188a.603.603 0 0 1-.3 1.128Zm5.192 2.971-.301-.081-2.077-1.188a.603.603 0 1 1 .603-1.047l2.076 1.188a.603.603 0 0 1-.301 1.128Zm5.192 2.97-.3-.08-2.077-1.188a.603.603 0 1 1 .6-1.048l2.077 1.187a.603.603 0 0 1-.3 1.129Zm5.192 2.97-.301-.08-2.077-1.188a.604.604 0 1 1 .603-1.047l2.076 1.187a.604.604 0 0 1-.301 1.128Zm5.193 2.97-.3-.08-2.077-1.187a.604.604 0 1 1 .599-1.05l2.078 1.189a.603.603 0 0 1-.3 1.128Zm4.165 2.383-.3-.08-1.05-.6a.605.605 0 1 1 .6-1.05l1.05.602a.603.603 0 0 1-.3 1.128Z"/>
  <path fill="#F8CF3E" d="M36.943 192.263a.605.605 0 0 1-.306-1.126l1.046-.607a.603.603 0 1 1 .608 1.043l-1.045.608-.303.082Zm63.309-36.803a.605.605 0 0 1-.305-1.126l2.148-1.247a.604.604 0 0 1 .608 1.043l-2.148 1.249-.303.081Zm-5.368 3.121a.603.603 0 0 1-.305-1.126l2.147-1.247a.604.604 0 1 1 .609 1.043l-2.147 1.248-.304.082Zm-5.367 3.119a.604.604 0 0 1-.305-1.125l2.147-1.248a.605.605 0 0 1 .608 1.044l-2.146 1.249-.304.08Zm-5.368 3.121a.603.603 0 0 1-.304-1.125l2.147-1.248a.606.606 0 0 1 .827.217.606.606 0 0 1-.219.827l-2.148 1.247-.303.082Zm-5.367 3.12a.604.604 0 0 1-.305-1.126l2.146-1.247a.603.603 0 1 1 .608 1.043l-2.146 1.249-.303.081Zm-5.368 3.121a.604.604 0 0 1-.305-1.126l2.147-1.247a.603.603 0 1 1 .608 1.043l-2.147 1.248-.303.082Zm-5.368 3.119a.604.604 0 0 1-.305-1.125l2.147-1.248a.605.605 0 0 1 .609 1.044L68.35 174.1l-.304.081Zm-5.367 3.121a.603.603 0 0 1-.305-1.125l2.147-1.248a.605.605 0 1 1 .608 1.044l-2.147 1.247-.303.082Zm-5.367 3.12a.604.604 0 0 1-.305-1.126l2.147-1.247a.603.603 0 1 1 .607 1.043l-2.146 1.249-.303.081Zm-5.369 3.121a.604.604 0 0 1-.305-1.126l2.148-1.248a.603.603 0 1 1 .609 1.044l-2.148 1.248-.304.082Zm-5.367 3.119a.603.603 0 0 1-.305-1.125l2.147-1.248a.603.603 0 1 1 .608 1.044l-2.147 1.248-.303.081Zm-5.368 3.121a.602.602 0 0 1-.523-.301.602.602 0 0 1 .218-.824l2.147-1.248a.605.605 0 0 1 .609 1.043l-2.148 1.248-.303.082Zm65.466-36.843a.603.603 0 0 1-.605-.6l-.001-.165-.145.083a.604.604 0 0 1-.608-1.043l1.046-.609a.602.602 0 0 1 .908.518l.008 1.208a.603.603 0 0 1-.599.608h-.004Zm.039 5.775a.604.604 0 0 1-.604-.599l-.016-2.311a.603.603 0 0 1 .6-.607h.004c.332 0 .603.267.605.599l.016 2.31a.604.604 0 0 1-.6.608h-.005Zm.041 5.775a.605.605 0 0 1-.604-.6l-.016-2.309a.606.606 0 0 1 .6-.609h.005c.331 0 .602.268.604.6l.016 2.311a.604.604 0 0 1-.6.607h-.005Zm.041 5.775a.603.603 0 0 1-.604-.599l-.017-2.311a.603.603 0 0 1 .6-.607h.005c.331 0 .602.267.604.599l.017 2.31a.605.605 0 0 1-.601.608h-.004Zm.042 5.775a.604.604 0 0 1-.605-.6l-.017-2.309a.604.604 0 0 1 .6-.609h.005c.332 0 .602.268.604.6l.017 2.311a.604.604 0 0 1-.6.607h-.004Zm.041 5.776a.606.606 0 0 1-.605-.601l-.017-2.309a.606.606 0 0 1 .6-.609h.005c.332 0 .602.268.604.601l.017 2.309a.605.605 0 0 1-.599.609h-.005Zm.041 5.774a.605.605 0 0 1-.605-.599l-.017-2.311a.605.605 0 0 1 .601-.607h.004c.332 0 .603.268.605.599l.017 2.31a.604.604 0 0 1-.6.608h-.005Zm.032 4.673-.301-.08a.609.609 0 0 1-.304-.519l-.007-1.208a.604.604 0 0 1 .6-.609h.005c.331 0 .602.268.604.6l.002.173.149-.086a.604.604 0 0 1 .603 1.048l-1.049.601-.302.08Zm50.757-29.094a.603.603 0 0 1-.301-1.128l2.07-1.187a.606.606 0 0 1 .826.222.605.605 0 0 1-.224.825l-2.07 1.187-.301.081Zm-5.178 2.967a.604.604 0 0 1-.301-1.126l2.071-1.189a.604.604 0 1 1 .602 1.047l-2.071 1.189-.301.079Zm-5.177 2.968a.605.605 0 0 1-.525-.303.601.601 0 0 1 .224-.824l2.07-1.187a.605.605 0 0 1 .602 1.047l-2.07 1.187-.301.08Zm-5.178 2.968a.605.605 0 0 1-.302-1.128l2.07-1.187a.607.607 0 0 1 .826.224.603.603 0 0 1-.223.825l-2.07 1.186-.301.08Zm-5.179 2.968a.603.603 0 0 1-.301-1.127l2.071-1.187a.605.605 0 0 1 .826.222.605.605 0 0 1-.224.825l-2.07 1.187-.302.08Zm-5.177 2.969a.604.604 0 0 1-.301-1.128l2.07-1.188a.605.605 0 0 1 .603 1.049l-2.071 1.186-.301.081Zm-5.178 2.967a.602.602 0 0 1-.301-1.127l2.071-1.187a.604.604 0 1 1 .602 1.047l-2.07 1.187-.302.08Zm-5.177 2.969a.604.604 0 0 1-.302-1.128l2.07-1.188a.607.607 0 0 1 .826.224.603.603 0 0 1-.224.825l-2.069 1.187-.301.08Zm-5.179 2.967a.603.603 0 0 1-.301-1.127l2.072-1.187a.603.603 0 1 1 .602 1.047l-2.072 1.187-.301.08Zm-5.177 2.969a.605.605 0 0 1-.301-1.128l2.071-1.187a.605.605 0 0 1 .603 1.048l-2.072 1.187-.301.08Zm51.778-29.681a.603.603 0 0 1-.302-1.127l1.049-.601a.603.603 0 1 1 .603 1.047l-1.049.601-.301.08Z"/>
  <path fill="#F8CF3E" d="M106.664 151.733a.604.604 0 0 1-.604-.604v-1.208a.603.603 0 1 1 1.209 0v1.208c0 .333-.27.604-.605.604Zm0-17.167a.604.604 0 0 1-.604-.604v-2.456a.603.603 0 0 1 1.209 0v2.456c0 .333-.27.604-.605.604Zm0 6.137a.603.603 0 0 1-.604-.603v-2.456a.604.604 0 0 1 1.209 0v2.456c0 .334-.27.603-.605.603Zm0 6.138a.603.603 0 0 1-.604-.604v-2.454a.603.603 0 1 1 1.209 0v2.454c0 .335-.27.604-.605.604Zm0-18.413a.604.604 0 0 1-.604-.604v-1.208a.603.603 0 1 1 1.209 0v1.208c0 .333-.27.604-.605.604Zm95.97-34.255-.306-.083-1.043-.612a.603.603 0 1 1 .612-1.041l1.043.612a.6.6 0 0 1 .214.826.601.601 0 0 1-.52.298ZM147.76 61.968l-.306-.083-2.032-1.192a.603.603 0 1 1 .612-1.041l2.032 1.192a.604.604 0 0 1-.306 1.124Zm5.078 2.981-.306-.083-2.032-1.192a.604.604 0 1 1 .612-1.041l2.032 1.192a.603.603 0 0 1-.306 1.124Zm5.078 2.98-.306-.082-2.03-1.192a.603.603 0 1 1 .61-1.043l2.032 1.194a.602.602 0 0 1-.306 1.124Zm5.079 2.98-.306-.083-2.031-1.192a.604.604 0 0 1 .612-1.041l2.031 1.192a.603.603 0 0 1-.306 1.124Zm5.079 2.981-.306-.083-2.032-1.192a.603.603 0 1 1 .612-1.041l2.031 1.192a.604.604 0 0 1-.305 1.124Zm5.077 2.98-.306-.082-2.032-1.192a.605.605 0 0 1-.215-.828.606.606 0 0 1 .827-.213l2.032 1.19c.288.17.385.54.214.828a.602.602 0 0 1-.52.298Zm5.079 2.98-.306-.082-2.032-1.192a.602.602 0 0 1-.214-.827.606.606 0 0 1 .826-.215l2.031 1.192a.605.605 0 0 1-.305 1.124Zm5.078 2.981-.306-.083-2.031-1.191a.602.602 0 0 1-.215-.827.605.605 0 0 1 .826-.215l2.032 1.192a.602.602 0 0 1-.306 1.124Zm5.078 2.98-.305-.082-2.031-1.192a.602.602 0 0 1-.216-.827.605.605 0 0 1 .828-.214l2.03 1.192a.6.6 0 0 1 .215.826.602.602 0 0 1-.521.298Zm5.08 2.982-.306-.084-2.032-1.192a.604.604 0 1 1 .612-1.042l2.032 1.193c.288.17.384.539.214.826a.602.602 0 0 1-.52.299Zm5.078 2.98-.306-.083-2.032-1.193a.602.602 0 0 1-.214-.826.606.606 0 0 1 .826-.215l2.032 1.192a.604.604 0 0 1-.306 1.125ZM142.68 58.988l-.304-.082-1.044-.613a.603.603 0 1 1 .612-1.04l1.042.61a.603.603 0 0 1-.306 1.125ZM59.31 300.062a.604.604 0 0 1-.302-1.127l2.096-1.205a.604.604 0 1 1 .603 1.047l-2.096 1.205-.3.08Zm-5.241 3.012a.604.604 0 0 1-.302-1.128l2.096-1.204a.604.604 0 1 1 .603 1.047l-2.096 1.204-.301.081Zm-5.242 3.012a.604.604 0 0 1-.302-1.128l2.096-1.204a.605.605 0 0 1 .604 1.047l-2.096 1.204-.302.081Zm-5.24 3.012a.603.603 0 0 1-.303-1.128l2.096-1.205a.607.607 0 0 1 .826.223.602.602 0 0 1-.222.824l-2.096 1.207-.302.079Zm-5.242 3.012a.603.603 0 0 1-.302-1.128l2.096-1.205a.607.607 0 0 1 .826.224.603.603 0 0 1-.222.824l-2.097 1.206-.3.079Zm-5.241 3.011a.603.603 0 0 1-.302-1.126l2.097-1.205a.604.604 0 1 1 .602 1.048l-2.097 1.204-.3.079Zm-5.241 3.013a.602.602 0 0 1-.525-.304.602.602 0 0 1 .222-.823l2.097-1.204a.605.605 0 0 1 .604 1.047l-2.097 1.204-.301.08Zm-5.241 3.013a.605.605 0 0 1-.303-1.128l2.097-1.205a.604.604 0 1 1 .603 1.047l-2.096 1.205-.301.081Zm-5.241 3.012a.604.604 0 0 1-.303-1.128l2.097-1.205a.604.604 0 0 1 .604 1.047l-2.097 1.205-.301.081Zm-5.242 3.011a.604.604 0 0 1-.302-1.128l2.096-1.204a.605.605 0 0 1 .604 1.047l-2.097 1.204-.3.081Zm-5.24 3.012a.605.605 0 0 1-.303-1.128l2.096-1.204a.608.608 0 0 1 .827.223.603.603 0 0 1-.223.824l-2.097 1.205-.3.08Zm-5.242 3.012a.602.602 0 0 1-.524-.303.602.602 0 0 1 .222-.824l2.097-1.206a.606.606 0 0 1 .603 1.048l-2.096 1.206-.302.079Zm4.91 3.028-.302-.081-2.092-1.211a.604.604 0 1 1 .605-1.046l2.093 1.211a.604.604 0 0 1-.303 1.127Zm5.232 3.028-.303-.082-2.092-1.212a.604.604 0 0 1 .606-1.044l2.093 1.211a.604.604 0 0 1-.304 1.127Zm5.233 3.028-.303-.082-2.093-1.212a.603.603 0 1 1 .606-1.044l2.093 1.211a.604.604 0 0 1-.303 1.127Zm5.232 3.026-.303-.08-2.093-1.211a.603.603 0 1 1 .606-1.044l2.093 1.21a.602.602 0 0 1-.303 1.125Zm5.23 3.029-.302-.08-2.092-1.212a.604.604 0 1 1 .607-1.045l2.092 1.212a.603.603 0 0 1-.304 1.125Zm5.233 3.028-.302-.081-2.093-1.211a.604.604 0 1 1 .606-1.045l2.093 1.211a.604.604 0 0 1-.304 1.126Zm5.232 3.028-.302-.081-2.093-1.211a.604.604 0 1 1 .606-1.046l2.093 1.211a.604.604 0 0 1-.304 1.127Zm5.232 3.028-.302-.082-2.093-1.211a.603.603 0 1 1 .606-1.045l2.093 1.211a.604.604 0 0 1-.304 1.127Zm5.232 3.029-.303-.082-2.092-1.211a.603.603 0 0 1-.22-.825.602.602 0 0 1 .825-.22l2.093 1.211a.603.603 0 0 1-.303 1.127Zm5.232 3.027-.302-.081-2.093-1.212a.602.602 0 0 1-.22-.824.602.602 0 0 1 .825-.22l2.094 1.211a.603.603 0 0 1-.304 1.126Zm5.232 3.028-.303-.081-2.092-1.212a.604.604 0 1 1 .606-1.044l2.092 1.211a.603.603 0 0 1-.304 1.126Zm5.232 3.027-.304-.081-2.092-1.211a.604.604 0 0 1 .607-1.045l2.092 1.211a.604.604 0 0 1-.303 1.126Zm5.232 3.029-.303-.08-2.092-1.212a.603.603 0 1 1 .606-1.046l2.092 1.212a.603.603 0 0 1-.303 1.126Zm5.232 3.028-.303-.082-2.092-1.211a.604.604 0 1 1 .606-1.045l2.092 1.211a.604.604 0 0 1-.303 1.127Zm5.231 3.028-.302-.082-2.092-1.211a.603.603 0 0 1-.22-.825.602.602 0 0 1 .826-.22l2.092 1.211a.604.604 0 0 1-.303 1.127Zm5.232 3.027-.302-.081-2.092-1.212a.602.602 0 0 1-.22-.826.601.601 0 0 1 .826-.218l2.092 1.211a.602.602 0 0 1-.304 1.126Zm39.782 1.809a.604.604 0 0 1-.303-1.126l2.095-1.207a.603.603 0 1 1 .605 1.044l-2.095 1.208-.302.081Zm-34.55 1.22-.302-.081-2.092-1.211a.605.605 0 1 1 .606-1.045l2.092 1.211a.603.603 0 0 1-.303 1.126Zm29.313 1.799a.603.603 0 0 1-.302-1.126l2.094-1.207a.603.603 0 1 1 .605 1.045l-2.095 1.208-.302.08Zm-24.08 1.229-.302-.081-2.093-1.212a.603.603 0 1 1 .606-1.044l2.092 1.21a.604.604 0 0 1-.302 1.127Zm18.843 1.791a.6.6 0 0 1-.523-.302.6.6 0 0 1 .221-.824l2.095-1.208a.604.604 0 1 1 .604 1.045l-2.094 1.208-.303.081Zm-13.611 1.237-.302-.082-2.093-1.211a.604.604 0 1 1 .606-1.046l2.093 1.212a.604.604 0 0 1-.304 1.127Zm8.374 1.782a.6.6 0 0 1-.523-.302.6.6 0 0 1 .221-.824l2.095-1.207a.603.603 0 1 1 .604 1.045l-2.094 1.207-.303.081Zm-3.143 1.245-.302-.082-2.092-1.211a.603.603 0 1 1 .605-1.045l2.093 1.211a.603.603 0 0 1-.304 1.127Z"/>
  <path fill="#C6C5C3" d="M321.607 309.334c1.242-.718 1.863-1.658 1.86-2.599l.016 5.222c.003.94-.619 1.882-1.861 2.598l-3.014 1.738-.013-5.222 3.012-1.737Z"/>
  <path fill="#F1F1F1" d="m309.7 305.91.015 5.222 8.893 5.161-.014-5.222-8.894-5.161Zm0 0 8.894 5.161 3.013-1.737c2.468-1.423 2.482-3.737.029-5.161-2.459-1.427-6.455-1.424-8.923 0l-3.013 1.737Z"/>
  <path fill="#4BC2AF" d="m303.499 309.485.015 5.222 8.892 5.161-.013-5.221-8.894-5.162Z"/>
  <path fill="#E6BB3A" d="m312.393 314.647.013 5.221 6.202-3.575-.014-5.223-6.201 3.577Z"/>
  <path fill="#F8CF3E" d="m303.499 309.485 8.894 5.162 6.202-3.576-8.894-5.161-6.202 3.575Z"/>
  <path fill="#C6C5C3" d="M300.457 316.384c2.452 1.424 6.452 1.424 8.921 0l3.014-1.737.014 5.221-3.013 1.737c-2.469 1.424-6.469 1.424-8.923 0-1.22-.708-1.83-1.634-1.832-2.562l-.015-5.221c.002.928.612 1.853 1.834 2.562Z"/>
  <path fill="#F1F1F1" d="M300.485 311.223c-2.468 1.423-2.488 3.734-.028 5.161 2.453 1.424 6.453 1.424 8.922 0l3.014-1.737-8.894-5.162-3.014 1.738Z"/>
  <path fill="#F8CF3E" d="M456.716 111.687a.604.604 0 0 1-.605-.604v-2.415c0-.335.27-.604.605-.604.334 0 .605.269.605.604v2.415a.605.605 0 0 1-.605.604Zm0 6.039a.604.604 0 0 1-.605-.604v-2.416a.604.604 0 0 1 1.21 0v2.416a.605.605 0 0 1-.605.604Zm0 6.038a.603.603 0 0 1-.605-.603v-2.416a.604.604 0 0 1 1.21 0v2.416a.604.604 0 0 1-.605.603Zm0 6.039a.604.604 0 0 1-.605-.604v-2.415c0-.335.27-.604.605-.604.334 0 .605.269.605.604v2.415a.604.604 0 0 1-.605.604Zm0 6.039a.604.604 0 0 1-.605-.604v-2.415c0-.335.27-.604.605-.604.334 0 .605.269.605.604v2.415a.605.605 0 0 1-.605.604Zm0 6.039a.604.604 0 0 1-.605-.604v-2.416c0-.334.27-.603.605-.603.334 0 .605.269.605.603v2.416a.605.605 0 0 1-.605.604Zm-50.413.968-.303-.08-2.094-1.208a.602.602 0 0 1-.222-.825.608.608 0 0 1 .826-.222l2.095 1.207a.605.605 0 0 1-.302 1.128Zm5.237 3.02-.303-.081-2.095-1.208a.602.602 0 0 1-.221-.825.607.607 0 0 1 .826-.222l2.095 1.208a.605.605 0 0 1-.302 1.128Zm45.176 2.051a.604.604 0 0 1-.605-.604V144.9a.604.604 0 0 1 1.21 0v2.416a.605.605 0 0 1-.605.604Zm-39.94.968-.302-.081-2.095-1.207a.604.604 0 0 1 .605-1.048l2.095 1.208a.604.604 0 0 1-.303 1.128Zm5.237 3.02-.302-.081-2.095-1.208a.604.604 0 1 1 .605-1.047l2.094 1.208c.291.167.39.536.222.826a.607.607 0 0 1-.524.302Zm34.703 2.05a.604.604 0 0 1-.605-.604v-2.415c0-.335.27-.604.605-.604.334 0 .605.269.605.604v2.415a.604.604 0 0 1-.605.604Zm-29.466.969-.303-.081-2.094-1.208a.605.605 0 0 1 .604-1.047l2.095 1.208a.604.604 0 0 1-.302 1.128Zm5.237 3.019-.303-.081-2.094-1.207a.604.604 0 1 1 .604-1.047l2.095 1.207a.603.603 0 0 1-.302 1.128Zm24.229 2.051a.604.604 0 0 1-.605-.604v-2.415c0-.335.27-.604.605-.604.334 0 .605.269.605.604v2.415a.604.604 0 0 1-.605.604Zm-18.991.969-.303-.081-2.096-1.208a.603.603 0 0 1-.22-.825.607.607 0 0 1 .825-.222l2.096 1.208a.604.604 0 0 1-.302 1.128Zm5.236 3.019-.302-.081-2.096-1.208a.605.605 0 0 1 .605-1.047l2.096 1.208a.604.604 0 0 1-.303 1.128Zm13.755 2.051a.604.604 0 0 1-.605-.604v-2.415c0-.335.27-.604.605-.604.334 0 .605.269.605.604v2.415a.605.605 0 0 1-.605.604Zm-8.518.969-.302-.081-2.095-1.208a.605.605 0 0 1 .605-1.047l2.094 1.207a.605.605 0 0 1-.302 1.129Zm5.237 3.019-.302-.081-2.095-1.208a.605.605 0 0 1 .604-1.047l2.095 1.208a.604.604 0 0 1-.302 1.128Zm3.281 1.89-.304-.081-.139-.081a.602.602 0 0 1-.219-.825l.057-.081v-1.791a.604.604 0 0 1 1.21 0v2.255a.604.604 0 0 1-.304.524l-.301.08Zm-25.033 146.98-.29-.073-1.539-.841a.603.603 0 1 1 .581-1.059l1.539.841a.602.602 0 0 1-.291 1.132Zm5.307 2.897-.29-.075-2.123-1.159a.602.602 0 0 1-.239-.82.602.602 0 0 1 .82-.239l2.122 1.159a.604.604 0 0 1-.29 1.134Zm-.82 2.968a.604.604 0 0 1-.302-1.127l2.094-1.209a.603.603 0 1 1 .605 1.045l-2.095 1.209-.302.082Zm-5.236 3.021a.601.601 0 0 1-.522-.302.602.602 0 0 1 .22-.825l2.095-1.208a.6.6 0 0 1 .824.221.6.6 0 0 1-.22.824l-2.094 1.208-.303.082Zm-5.235 3.022a.605.605 0 0 1-.303-1.127l2.095-1.209a.602.602 0 0 1 .825.221.601.601 0 0 1-.22.824l-2.095 1.209-.302.082Zm-5.236 3.021a.604.604 0 0 1-.302-1.126l2.095-1.209a.601.601 0 0 1 .824.221.6.6 0 0 1-.22.823l-2.094 1.209-.303.082Zm-5.235 3.021a.603.603 0 0 1-.303-1.127l2.094-1.208a.602.602 0 0 1 .826.222.599.599 0 0 1-.222.823l-2.093 1.208-.302.082Zm-5.236 3.022a.604.604 0 0 1-.302-1.127l2.093-1.209a.603.603 0 1 1 .605 1.045l-2.094 1.209-.302.082Zm-5.235 3.02a.603.603 0 0 1-.303-1.125l2.094-1.209a.603.603 0 1 1 .604 1.045l-2.093 1.209-.302.08Zm-5.236 3.022a.604.604 0 0 1-.302-1.125l2.093-1.209a.604.604 0 1 1 .605 1.044l-2.094 1.209-.302.081Zm-5.237 3.021a.602.602 0 0 1-.523-.302.6.6 0 0 1 .221-.824l2.095-1.208a.604.604 0 1 1 .604 1.045l-2.094 1.208-.303.081Zm-5.237 3.022a.604.604 0 0 1-.302-1.126l2.096-1.209a.603.603 0 1 1 .605 1.045l-2.096 1.209-.303.081Zm-5.235 3.021a.606.606 0 0 1-.523-.301.6.6 0 0 1 .221-.824l2.095-1.209a.6.6 0 0 1 .825.22.602.602 0 0 1-.22.825l-2.096 1.209-.302.08Zm-5.236 3.021a.601.601 0 0 1-.522-.302.601.601 0 0 1 .22-.824l2.095-1.207a.602.602 0 0 1 .825.22.601.601 0 0 1-.221.824l-2.094 1.208-.303.081Zm-5.235 3.022a.605.605 0 0 1-.303-1.126l2.095-1.209a.603.603 0 1 1 .605 1.045l-2.095 1.209-.302.081Zm-5.236 3.022a.602.602 0 0 1-.302-1.126l2.095-1.209a.602.602 0 1 1 .604 1.045l-2.094 1.209-.303.081Zm-5.235 3.02a.604.604 0 0 1-.303-1.125l2.094-1.208a.602.602 0 1 1 .604 1.045l-2.093 1.207-.302.081Zm-5.236 3.022a.603.603 0 0 1-.302-1.126l2.093-1.209a.603.603 0 1 1 .605 1.045l-2.094 1.209-.302.081Zm-5.235 3.022a.603.603 0 0 1-.303-1.127l2.094-1.209a.605.605 0 0 1 .604 1.046l-2.093 1.209-.302.081Zm-5.236 3.022a.608.608 0 0 1-.524-.302.601.601 0 0 1 .222-.825l2.093-1.209a.604.604 0 0 1 .605 1.046l-2.094 1.209-.302.081Zm-5.236 3.02a.602.602 0 0 1-.523-.302.602.602 0 0 1 .221-.825l2.094-1.207a.604.604 0 1 1 .604 1.046l-2.093 1.207-.303.081Zm-50.183.412-.306-.083-2.086-1.22a.606.606 0 0 1 .612-1.044l2.086 1.222a.602.602 0 0 1-.306 1.125Zm44.947 2.61a.603.603 0 0 1-.303-1.127l2.095-1.209a.603.603 0 1 1 .605 1.046l-2.095 1.209-.302.081Zm-39.727.441-.306-.082-2.089-1.221a.605.605 0 0 1 .612-1.043l2.089 1.222a.602.602 0 0 1-.306 1.124Zm34.491 2.581a.604.604 0 0 1-.302-1.127l2.094-1.209a.604.604 0 0 1 .605 1.046l-2.095 1.209-.302.081Zm-29.274.471-.306-.083-2.086-1.221a.601.601 0 0 1-.216-.826.607.607 0 0 1 .828-.217l2.086 1.221a.605.605 0 0 1-.306 1.126Zm24.039 2.55a.603.603 0 0 1-.303-1.127l2.095-1.208a.602.602 0 0 1 .825.221.602.602 0 0 1-.22.825l-2.095 1.207-.302.082Zm-18.819.5-.305-.083-2.088-1.219a.604.604 0 1 1 .609-1.043l2.089 1.219a.601.601 0 0 1 .216.826.602.602 0 0 1-.521.3Zm13.583 2.521a.603.603 0 0 1-.522-.302.602.602 0 0 1 .22-.825l2.094-1.208a.604.604 0 0 1 .605 1.044l-2.095 1.209-.302.082Zm-8.365.529-.306-.082-2.087-1.22a.6.6 0 0 1-.216-.826.606.606 0 0 1 .828-.216l2.086 1.22a.604.604 0 0 1-.305 1.124Zm3.699 2.163-.306-.082-.568-.332a.606.606 0 0 1-.217-.827.61.61 0 0 1 .829-.217l.265.156 1.219-.704a.605.605 0 0 1 .826.221.6.6 0 0 1-.222.824l-1.524.881-.302.08Z"/>
  <path fill="#F8CF3E" d="m376.414 324.03-.303-.081-2.094-1.208a.603.603 0 1 1 .604-1.045l2.095 1.208a.603.603 0 0 1-.302 1.126Zm5.237 3.019-.303-.081-2.094-1.208a.603.603 0 1 1 .604-1.044l2.095 1.207a.604.604 0 0 1-.302 1.126Zm5.236 3.019-.302-.08-2.095-1.208a.604.604 0 1 1 .605-1.045l2.095 1.208a.604.604 0 0 1-.303 1.125Zm5.237 3.02-.302-.081-2.095-1.208a.604.604 0 1 1 .605-1.045l2.094 1.208a.6.6 0 0 1 .222.824.606.606 0 0 1-.524.302Zm5.237 3.019-.302-.081-2.095-1.207a.605.605 0 0 1-.222-.825.606.606 0 0 1 .827-.22l2.094 1.208a.6.6 0 0 1 .222.823.607.607 0 0 1-.524.302Zm5.238 3.02-.302-.081-2.096-1.208a.603.603 0 1 1 .604-1.045l2.096 1.208a.604.604 0 0 1-.302 1.126Zm4.085 2.356-.302-.081-.945-.545a.602.602 0 1 1 .605-1.044l.945.544a.604.604 0 0 1-.303 1.126Zm-301.835-27.234a.603.603 0 0 1-.305-1.125l1.792-1.044a.603.603 0 1 1 .61 1.043l-1.793 1.043-.304.083Zm-5.224 3.043a.605.605 0 0 1-.305-1.126l2.089-1.216a.604.604 0 1 1 .61 1.042l-2.09 1.218-.304.082Zm-5.223 3.042a.604.604 0 0 1-.305-1.125l2.089-1.218a.603.603 0 1 1 .61 1.042l-2.09 1.218-.304.083Zm-5.224 3.042a.603.603 0 0 1-.306-1.124l2.09-1.217a.604.604 0 1 1 .61 1.042l-2.09 1.217-.304.082Zm-5.223 3.043a.604.604 0 0 1-.306-1.126l2.09-1.217a.604.604 0 1 1 .61 1.043l-2.09 1.216-.304.084Zm-5.224 3.041a.602.602 0 0 1-.306-1.124l2.09-1.217a.6.6 0 0 1 .827.218.603.603 0 0 1-.217.825l-2.09 1.216-.304.082Zm-5.223 3.043a.603.603 0 0 1-.306-1.125l2.09-1.218a.603.603 0 0 1 .826.218.603.603 0 0 1-.217.826l-2.09 1.216-.303.083Zm-5.225 3.042a.603.603 0 0 1-.305-1.125l2.089-1.216a.604.604 0 1 1 .61 1.042l-2.09 1.216-.304.083Zm-5.223 3.043a.604.604 0 0 1-.305-1.125l2.09-1.218a.604.604 0 1 1 .608 1.044l-2.089 1.217-.304.082Zm-5.224 3.041a.602.602 0 0 1-.305-1.124l2.09-1.218a.603.603 0 1 1 .61 1.043l-2.09 1.217-.305.082Zm-5.223 3.044a.605.605 0 0 1-.305-1.126l2.09-1.216a.604.604 0 1 1 .609 1.042l-2.09 1.218-.304.082Zm-5.224 3.042a.605.605 0 0 1-.305-1.125l2.09-1.218a.604.604 0 0 1 .609 1.042l-2.09 1.218-.304.083Zm-5.223 3.042a.604.604 0 0 1-.305-1.125l2.089-1.216a.603.603 0 1 1 .61 1.042l-2.09 1.217-.304.082Zm-5.224 3.043a.604.604 0 0 1-.306-1.126l2.09-1.217a.605.605 0 0 1 .61 1.042l-2.09 1.217-.304.084Zm160.867 32.124-.303-.081-2.094-1.208a.605.605 0 1 1 .604-1.045l2.095 1.208a.604.604 0 0 1-.302 1.126Zm60.748 1.152a.602.602 0 0 1-.303-1.126l2.095-1.208a.602.602 0 0 1 .826.22.602.602 0 0 1-.221.825l-2.095 1.208-.302.081Zm-55.51 1.867-.303-.081-2.095-1.208a.602.602 0 1 1 .604-1.044l2.096 1.207a.604.604 0 0 1-.302 1.126Zm50.273 1.152a.602.602 0 0 1-.303-1.125l2.095-1.208a.603.603 0 1 1 .605 1.044l-2.095 1.208-.302.081Zm-45.036 1.868-.303-.082-2.096-1.207a.604.604 0 0 1 .605-1.045l2.096 1.208a.605.605 0 0 1-.302 1.126Zm39.799 1.152a.603.603 0 0 1-.302-1.126l2.094-1.208a.602.602 0 0 1 .826.22.602.602 0 0 1-.221.825l-2.095 1.207-.302.082Zm-34.563 1.867-.302-.081-2.096-1.208a.602.602 0 0 1-.22-.825.605.605 0 0 1 .825-.22l2.096 1.208a.603.603 0 0 1-.303 1.126Zm29.326 1.152a.602.602 0 0 1-.523-.302.6.6 0 0 1 .221-.824l2.095-1.207a.603.603 0 1 1 .604 1.044l-2.094 1.208-.303.081Zm-24.089 1.867-.302-.081-2.096-1.208a.603.603 0 1 1 .605-1.044l2.095 1.208a.604.604 0 0 1-.302 1.125Zm18.852 1.152a.6.6 0 0 1-.523-.302.6.6 0 0 1 .221-.823l2.095-1.208a.603.603 0 1 1 .604 1.044l-2.094 1.208-.303.081Zm-13.615 1.868-.303-.081-2.095-1.208a.603.603 0 1 1 .604-1.045l2.096 1.208a.6.6 0 0 1 .22.824.601.601 0 0 1-.522.302Zm8.379 1.152a.604.604 0 0 1-.303-1.126l2.095-1.208a.603.603 0 1 1 .605 1.045l-2.095 1.208-.302.081Zm-3.21 1.827-.283-.069-2.046-1.18a.604.604 0 1 1 .604-1.044l1.946 1.12a.602.602 0 0 1 .35.273c.163.291.083.645-.207.809a.767.767 0 0 1-.364.091ZM98.352 157.565a2.613 2.613 0 0 1-2.615 2.61 2.613 2.613 0 0 1-2.615-2.61 2.613 2.613 0 0 1 2.615-2.611 2.613 2.613 0 0 1 2.615 2.611Zm-59.115 53.408a2.612 2.612 0 0 1-2.614 2.611 2.613 2.613 0 0 1-2.614-2.611 2.613 2.613 0 0 1 2.614-2.611 2.612 2.612 0 0 1 2.614 2.611Zm115.84-45.536c0 1.442-1.17 2.61-2.615 2.61a2.611 2.611 0 1 1 0-5.221 2.613 2.613 0 0 1 2.615 2.611Zm38.351-79.059a2.613 2.613 0 0 1-2.615 2.61 2.614 2.614 0 0 1-2.615-2.61 2.613 2.613 0 0 1 2.615-2.61 2.612 2.612 0 0 1 2.615 2.61Zm38.368 34.695a2.612 2.612 0 0 1-2.614 2.61 2.612 2.612 0 0 1-2.615-2.61 2.614 2.614 0 0 1 5.229 0Zm196.501 32.366a2.613 2.613 0 0 1-2.615 2.61 2.613 2.613 0 0 1-2.615-2.61 2.613 2.613 0 0 1 2.615-2.611 2.613 2.613 0 0 1 2.615 2.611Zm48.577 88.486a2.613 2.613 0 0 1-2.614 2.612 2.613 2.613 0 1 1 0-5.223 2.612 2.612 0 0 1 2.614 2.611ZM318.933 393.317a2.612 2.612 0 0 1-2.614 2.612 2.612 2.612 0 1 1 0-5.223 2.612 2.612 0 0 1 2.614 2.611Zm55.386-31.756a2.613 2.613 0 0 1-5.228 0 2.611 2.611 0 0 1 2.613-2.611 2.613 2.613 0 0 1 2.615 2.611Z"/>
  <path fill="#F8CF3E" d="M220.16 397.051a2.613 2.613 0 0 1-2.615 2.611 2.612 2.612 0 1 1 0-5.222 2.613 2.613 0 0 1 2.615 2.611ZM87.73 325.273a2.612 2.612 0 0 1-2.614 2.611 2.612 2.612 0 1 1 0-5.223 2.613 2.613 0 0 1 2.613 2.612Zm-14.463 47.531a2.613 2.613 0 0 1-5.228 0 2.614 2.614 0 0 1 5.228 0ZM15.99 325.82a2.613 2.613 0 0 1-2.615 2.611 2.613 2.613 0 1 1 0-5.223 2.612 2.612 0 0 1 2.614 2.612Zm425.063-3.854a2.613 2.613 0 0 1-2.615 2.611 2.613 2.613 0 0 1-2.615-2.611 2.613 2.613 0 0 1 2.615-2.61 2.613 2.613 0 0 1 2.615 2.61ZM124.166 185.08a.603.603 0 0 1-.604-.604v-2.415a.604.604 0 1 1 1.209 0v2.415a.604.604 0 0 1-.605.604Zm0 6.039a.604.604 0 0 1-.604-.604v-2.416a.603.603 0 0 1 1.209 0v2.416a.605.605 0 0 1-.605.604Zm0 6.039a.604.604 0 0 1-.604-.604v-2.416a.603.603 0 1 1 1.209 0v2.416a.605.605 0 0 1-.605.604Zm0 6.037a.603.603 0 0 1-.604-.603v-2.415a.604.604 0 1 1 1.209 0v2.415a.603.603 0 0 1-.605.603Zm0 6.039a.603.603 0 0 1-.604-.604v-2.415a.603.603 0 1 1 1.209 0v2.415a.604.604 0 0 1-.605.604Zm0 6.015a.604.604 0 0 1-.604-.604v-2.392a.604.604 0 0 1 1.209 0v2.392a.605.605 0 0 1-.605.604Zm334.616-42.079-.314-.088-2.067-1.255a.604.604 0 0 1 .628-1.032l2.066 1.254a.601.601 0 0 1 .202.83.6.6 0 0 1-.515.291Zm5.167 3.138-.315-.088-2.066-1.256a.605.605 0 1 1 .628-1.032l2.067 1.255a.604.604 0 0 1-.314 1.121Zm5.166 3.137-.314-.087-2.067-1.255a.604.604 0 0 1 .628-1.033l2.067 1.255a.603.603 0 0 1-.314 1.12Zm5.102 3.136a.615.615 0 0 1-.5-.238l-1.816-1.104a.604.604 0 1 1 .629-1.031l2.001 1.216c.182.109.29.304.29.516 0 .333-.269.641-.604.641Zm.005 6.076a.603.603 0 0 1-.605-.602l-.003-2.416c0-.334.271-.604.604-.605h.001c.335 0 .605.271.605.604l.002 2.415a.603.603 0 0 1-.604.604Zm.003 6.039a.603.603 0 0 1-.605-.603l-.001-2.415a.605.605 0 0 1 1.21-.001l.001 2.415c0 .334-.27.604-.605.604Zm.005 6.039a.603.603 0 0 1-.605-.603l-.002-2.415c0-.335.271-.604.603-.605h.002c.335 0 .604.27.604.603l.003 2.416a.605.605 0 0 1-.605.604Zm.005 6.039a.604.604 0 0 1-.605-.604l-.002-2.416a.605.605 0 0 1 1.209 0l.003 2.416a.605.605 0 0 1-.604.604h-.001Zm.004 6.038a.603.603 0 0 1-.605-.603l-.001-2.416a.605.605 0 0 1 1.209 0l.001 2.416a.603.603 0 0 1-.604.603Zm.004 6.039a.602.602 0 0 1-.604-.604l-.003-2.415c0-.332.271-.604.604-.604h.001c.334 0 .605.27.605.604l.002 2.415a.604.604 0 0 1-.605.604Zm.004 6.039a.603.603 0 0 1-.605-.604l-.001-2.415a.604.604 0 1 1 1.209 0l.002 2.415a.604.604 0 0 1-.605.604Zm.005 6.039a.604.604 0 0 1-.605-.604l-.001-2.416a.604.604 0 0 1 1.209 0l.002 2.416a.604.604 0 0 1-.605.604Zm.005 6.039a.604.604 0 0 1-.605-.604l-.002-2.416a.604.604 0 0 1 1.209 0l.002 2.416a.605.605 0 0 1-.604.604Zm-.412 5.8a.603.603 0 0 1-.302-1.126l.113-.065-.002-1.59a.605.605 0 0 1 1.21 0l.001 1.938a.6.6 0 0 1-.302.522l-.415.24-.303.081Zm-5.236 3.02a.606.606 0 0 1-.524-.302.602.602 0 0 1 .221-.825l2.095-1.208a.605.605 0 0 1 .605 1.046l-2.095 1.208-.302.081Zm-5.237 3.019a.606.606 0 0 1-.524-.302.602.602 0 0 1 .222-.825l2.094-1.207a.605.605 0 0 1 .826.221.602.602 0 0 1-.221.824l-2.095 1.208-.302.081Z"/>
</svg>
