<svg width="718" height="200" viewBox="0 0 718 200" fill="none" xmlns="http://www.w3.org/2000/svg">
<path d="M240.613 24.367C237.673 24.367 235.151 23.4634 233.061 21.6562C230.971 19.849 229.925 17.2933 229.925 13.9891C229.925 10.9951 230.998 8.52706 233.142 6.59173C235.286 4.65641 237.774 3.68538 240.613 3.68538C243.452 3.68538 245.779 4.562 247.896 6.322C250.014 8.07526 251.072 10.631 251.072 13.9891C251.072 17.3473 250.041 19.7883 247.977 21.6158C245.914 23.45 243.459 24.367 240.62 24.367H240.613ZM251.066 46.2085V107.316C251.066 111.551 250.061 114.754 248.045 116.919C246.028 119.083 243.473 120.169 240.377 120.169C237.282 120.169 234.76 119.056 232.825 116.838C230.89 114.619 229.919 111.443 229.919 107.309V46.8222C229.919 42.6413 230.89 39.4922 232.825 37.3748C234.76 35.2575 237.276 34.1988 240.377 34.1988C243.479 34.1988 246.028 35.2575 248.045 37.3748C250.061 39.4922 251.066 42.4323 251.066 46.2018V46.2085Z" fill="#231F20"/>
<path d="M317.952 34.2055C323.529 34.2055 328.512 35.4193 332.902 37.8469C337.292 40.2745 340.569 43.7068 342.741 48.1439C344.137 50.7265 345.04 53.5115 345.451 56.5056C345.863 59.4996 346.072 63.323 346.072 67.9691V107.316C346.072 111.551 345.101 114.754 343.165 116.919C341.23 119.083 338.708 120.169 335.613 120.169C332.518 120.169 329.908 119.056 327.946 116.838C325.984 114.619 325.006 111.443 325.006 107.309V72.0691C325.006 65.0965 324.041 59.7693 322.099 56.074C320.164 52.3854 316.3 50.5377 310.521 50.5377H295.565C293.515 50.5377 291.856 52.1966 291.856 54.2465V107.309C291.856 111.598 290.858 114.808 288.875 116.952C286.886 119.097 284.317 120.169 281.168 120.169C278.019 120.169 275.618 119.056 273.656 116.838C271.693 114.619 270.716 111.443 270.716 107.309V52.2505C270.716 42.2772 278.801 34.192 288.774 34.192H317.959L317.952 34.2055Z" fill="#231F20"/>
<path d="M402.83 120C380.975 120 374.185 111.929 371.035 107.95C367.886 103.972 365.499 99.3052 363.867 93.9308C362.242 88.5631 361.426 82.7504 361.426 76.5061C361.426 63.2893 364.65 52.9855 371.11 45.6017C377.563 38.2178 386.06 34.5292 396.593 34.5292C402.688 34.5292 407.827 35.5744 412.008 37.6648C416.189 39.7552 420.268 42.9718 424.247 47.3077V16.855C424.247 12.5191 425.11 9.23511 426.843 7.01656C428.569 4.79802 431.037 3.68538 434.24 3.68538C437.443 3.68538 439.905 4.70362 441.638 6.74683C443.364 8.7833 444.234 11.7976 444.234 15.7693V89.2847C444.234 106.251 430.484 120 413.518 120H402.837H402.83ZM382.654 77.2074C382.654 82.9392 383.544 87.8214 385.324 91.8471C387.105 95.8728 389.546 98.9073 392.641 100.951C395.743 102.987 399.209 103.87 405.811 103.87H413.653C418.859 103.87 423.087 99.6491 423.087 94.4365V77.2074C423.087 71.5768 422.17 66.7419 420.336 62.6824C418.501 58.6297 416.027 55.5345 412.898 53.3901C409.776 51.2458 406.35 50.1736 402.634 50.1736C398.919 50.1736 395.298 51.2727 392.257 53.4643C389.209 55.6626 386.848 58.8117 385.169 62.9117C383.49 67.0183 382.654 71.7791 382.654 77.2007V77.2074Z" fill="#231F20"/>
<path d="M532.463 120C515.497 120 501.747 106.251 501.747 89.2847V15.7693C501.747 11.7976 502.611 8.7833 504.344 6.74683C506.077 4.71036 508.538 3.68538 511.741 3.68538C514.944 3.68538 517.405 4.79802 519.138 7.01656C520.871 9.23511 521.735 12.5123 521.735 16.855V47.3077C525.713 42.9718 529.793 39.7552 533.974 37.6648C538.154 35.5744 543.293 34.5292 549.389 34.5292C559.922 34.5292 568.418 38.2245 574.872 45.6017C581.325 52.9855 584.555 63.2893 584.555 76.5061C584.555 82.7572 583.746 88.5631 582.114 93.9308C580.489 99.2984 578.102 103.972 574.946 107.95C571.797 111.929 565.006 120 543.151 120H532.47H532.463ZM560.805 62.9117C559.126 58.805 556.766 55.6559 553.718 53.4643C550.67 51.266 547.211 50.1736 543.34 50.1736C539.624 50.1736 536.206 51.2458 533.077 53.3901C529.955 55.5345 527.473 58.6297 525.639 62.6824C523.805 66.7351 522.888 71.5768 522.888 77.2074V94.4365C522.888 99.6423 527.109 103.87 532.321 103.87H540.164C546.766 103.87 550.232 102.987 553.334 100.951C556.429 98.9141 558.87 95.8728 560.65 91.8471C562.43 87.8214 563.32 82.9392 563.32 77.2074C563.32 71.7858 562.484 67.0251 560.805 62.9184V62.9117Z" fill="#231F20"/>
<path d="M473.79 24.367C470.85 24.367 468.328 23.4634 466.237 21.6562C464.147 19.849 463.102 17.2933 463.102 13.9891C463.102 10.9951 464.174 8.52706 466.318 6.59173C468.463 4.65641 470.951 3.68538 473.79 3.68538C476.629 3.68538 478.955 4.562 481.073 6.322C483.19 8.07526 484.249 10.631 484.249 13.9891C484.249 17.3473 483.217 19.7883 481.153 21.6158C479.09 23.45 476.635 24.367 473.797 24.367H473.79ZM484.242 46.2085V107.316C484.242 111.551 483.237 114.754 481.221 116.919C479.205 119.083 476.649 120.169 473.554 120.169C470.459 120.169 467.937 119.056 466.001 116.838C464.066 114.619 463.095 111.443 463.095 107.309V46.8222C463.095 42.6413 464.066 39.4922 466.001 37.3748C467.937 35.2575 470.452 34.1988 473.554 34.1988C476.656 34.1988 479.205 35.2575 481.221 37.3748C483.237 39.4922 484.242 42.4323 484.242 46.2018V46.2085Z" fill="#231F20"/>
<path d="M611.063 24.367C608.123 24.367 605.601 23.4634 603.51 21.6562C601.42 19.849 600.375 17.2933 600.375 13.9891C600.375 10.9951 601.447 8.52706 603.591 6.59173C605.736 4.65641 608.224 3.68538 611.063 3.68538C613.902 3.68538 616.228 4.562 618.346 6.322C620.463 8.07526 621.522 10.631 621.522 13.9891C621.522 17.3473 620.49 19.7883 618.426 21.6158C616.363 23.45 613.908 24.367 611.07 24.367H611.063ZM621.515 46.2085V107.316C621.515 111.551 620.51 114.754 618.494 116.919C616.478 119.083 613.922 120.169 610.827 120.169C607.732 120.169 605.21 119.056 603.274 116.838C601.339 114.619 600.368 111.443 600.368 107.309V46.8222C600.368 42.6413 601.339 39.4922 603.274 37.3748C605.21 35.2575 607.725 34.1988 610.827 34.1988C613.929 34.1988 616.478 35.2575 618.494 37.3748C620.51 39.4922 621.515 42.4323 621.515 46.2018V46.2085Z" fill="#231F20"/>
<path d="M704.275 58.4476L665.549 101.746H706.986C710.344 101.746 712.873 102.535 714.572 104.106C716.278 105.684 717.128 107.707 717.128 110.189C717.128 112.67 716.285 114.498 714.613 116.002C712.934 117.499 710.391 118.247 706.986 118.247H649.675C645.649 118.247 642.642 117.37 640.652 115.61C638.663 113.857 637.672 111.457 637.672 108.409C637.672 106.601 638.366 104.781 639.762 102.947C641.158 101.112 644.051 97.7475 648.434 92.8384C653.08 87.673 657.302 82.9999 661.098 78.8191C664.895 74.6382 668.414 70.7271 671.671 67.0858C674.922 63.4444 677.619 60.3627 679.763 57.8272C681.908 55.2985 683.621 53.1272 684.915 51.32H653.471C649.135 51.32 645.851 50.9356 643.633 50.1601C641.414 49.3846 640.302 47.3482 640.302 44.044C640.302 41.6164 641.138 39.6811 642.817 38.2312C644.496 36.7882 646.883 36.0599 649.978 36.0599H698.537C703.028 36.0599 706.474 36.7208 708.874 38.0357C711.275 39.3506 712.475 41.7108 712.475 45.1229C712.475 46.2558 712.246 47.4358 711.781 48.6496C711.315 49.8634 710.803 50.8547 710.23 51.6302C709.663 52.4056 708.888 53.3497 707.903 54.4556C706.919 55.5615 705.705 56.8967 704.262 58.4409L704.275 58.4476Z" fill="#231F20"/>
<path d="M14.3248 113.934C10.6581 113.934 6.99139 112.535 4.19249 109.736C-1.3975 104.146 -1.3975 95.0689 4.19249 89.4789L55.2373 38.4341C60.8351 32.8363 69.8963 32.8363 75.4941 38.4341C81.0841 44.0241 81.0841 53.101 75.4941 58.691L24.4494 109.736C21.6504 112.535 17.9837 113.934 14.317 113.934H14.3248Z" fill="#939598"/>
<path d="M100.801 199.355C92.2249 199.355 85.2667 192.397 85.2667 183.821V61.8104C85.2667 53.2339 92.2249 46.2757 100.801 46.2757C109.378 46.2757 116.336 53.2339 116.336 61.8104V183.821C116.336 192.397 109.378 199.355 100.801 199.355Z" fill="#EE3124"/>
<path d="M100.802 34.4156C110.305 34.4156 118.009 26.7114 118.009 17.2078C118.009 7.70419 110.305 0 100.802 0C91.2981 0 83.5939 7.70419 83.5939 17.2078C83.5939 26.7114 91.2981 34.4156 100.802 34.4156Z" fill="#EE3124"/>
<path d="M177.122 88.9316C179.921 86.1327 183.588 84.7333 187.247 84.7333H116.328V113.926H152.12L177.122 88.9238V88.9316Z" fill="#6D6E71"/>
<path d="M49.4518 84.7333L24.4493 109.736C21.6583 112.527 17.9994 113.926 14.3405 113.934H85.2668V84.7411H49.4518V84.7333Z" fill="#6D6E71"/>
<path d="M197.379 88.9316C191.781 83.3338 182.72 83.3338 177.122 88.9316L116.336 149.718V183.821C116.336 187.902 114.765 191.608 112.193 194.383L197.387 109.188C202.977 103.598 202.977 94.5216 197.387 88.9316H197.379Z" fill="#939598"/>
<path fill-rule="evenodd" clip-rule="evenodd" d="M574.349 198.63C575.262 199.543 576.552 200 578.217 200C579.936 200 581.225 199.543 582.084 198.63C582.944 197.663 583.374 196.347 583.374 194.682V178.083H597.716C603.947 178.083 608.755 176.526 612.139 173.41C615.523 170.241 617.215 165.863 617.215 160.276C617.215 154.69 615.523 150.339 612.139 147.223C608.755 144.107 603.947 142.55 597.716 142.55H578.297C576.632 142.55 575.343 143.006 574.43 143.919C573.517 144.779 573.06 146.068 573.06 147.787V194.682C573.06 196.347 573.49 197.663 574.349 198.63ZM604.404 167.528C602.524 169.139 599.757 169.945 596.105 169.945H583.374V150.688H596.105C599.757 150.688 602.524 151.493 604.404 153.105C606.284 154.716 607.224 157.107 607.224 160.276C607.224 163.445 606.284 165.863 604.404 167.528Z" fill="#EE3124"/>
<path fill-rule="evenodd" clip-rule="evenodd" d="M617.143 199.114C617.949 199.705 618.996 200 620.285 200C621.682 200 622.756 199.651 623.509 198.953C624.261 198.254 624.986 197.126 625.684 195.568L629.646 186.222H657.356L661.379 195.568C662.024 197.072 662.749 198.2 663.555 198.953C664.414 199.651 665.596 200 667.1 200C668.335 200 669.329 199.731 670.081 199.194C670.833 198.603 671.29 197.798 671.451 196.777C671.612 195.756 671.397 194.628 670.806 193.393L649.454 146.256C648.756 144.698 647.896 143.597 646.875 142.952C645.909 142.254 644.807 141.905 643.572 141.905C642.283 141.905 641.128 142.254 640.107 142.952C639.14 143.597 638.308 144.698 637.609 146.256L616.337 193.393C615.8 194.628 615.612 195.756 615.773 196.777C615.934 197.744 616.391 198.523 617.143 199.114ZM633.214 178.003L643.411 153.75H643.572L653.841 178.003H633.214Z" fill="#EE3124"/>
<path d="M689.235 198.63C690.148 199.543 691.437 200 693.103 200C696.541 200 698.259 198.2 698.259 194.601V173.348L715.422 149.076C716.228 147.894 716.604 146.766 716.55 145.692C716.55 144.618 716.147 143.731 715.342 143.033C714.589 142.281 713.515 141.905 712.118 141.905C710.937 141.905 709.943 142.173 709.137 142.711C708.331 143.194 707.499 144.027 706.639 145.209L693.267 164.078L679.969 145.209C679.163 144.08 678.304 143.248 677.39 142.711C676.531 142.173 675.564 141.905 674.49 141.905C673.039 141.905 671.911 142.308 671.105 143.114C670.3 143.866 669.843 144.806 669.736 145.934C669.682 147.008 670.004 148.029 670.703 148.996L687.946 173.251V194.601C687.946 196.32 688.376 197.663 689.235 198.63Z" fill="#EE3124"/>
</svg>
