<svg width="363" height="200" viewBox="0 0 363 200" fill="none" xmlns="http://www.w3.org/2000/svg">
<g clip-path="url(#clip0_334_1646)">
<mask id="mask0_334_1646" style="mask-type:luminance" maskUnits="userSpaceOnUse" x="1" y="0" width="362" height="200">
<path d="M362.574 0H1.33386V199.743H362.574V0Z" fill="white"/>
</mask>
<g mask="url(#mask0_334_1646)">
<path d="M3.34114 179.678C3.3399 179.422 3.43875 179.177 3.61642 178.994C3.7941 178.811 4.03638 178.705 4.29114 178.701H9.73698C13.5905 178.701 16.1329 180.752 16.1329 184.119V184.167C16.1329 187.853 13.0553 189.757 9.41585 189.757H5.26791V194.935C5.26791 195.191 5.16641 195.436 4.98574 195.616C4.80507 195.797 4.56004 195.898 4.30452 195.898C4.04901 195.898 3.80397 195.797 3.62331 195.616C3.44263 195.436 3.34114 195.191 3.34114 194.935V179.678ZM9.49166 188C12.3239 188 14.1793 186.487 14.1793 184.24V184.203C14.1793 181.764 12.3462 180.493 9.58979 180.493H5.26791V188.012L9.49166 188Z" fill="#182958"/>
<path d="M18.1353 192.126V192.076C18.1353 189.4 20.3296 188 23.5276 188C24.8406 187.986 26.1483 188.167 27.4079 188.54V188.093C27.4079 185.823 26.0207 184.65 23.6525 184.65C22.5231 184.65 21.4066 184.891 20.3787 185.36C20.2713 185.405 20.1564 185.431 20.0398 185.434C19.8271 185.434 19.6226 185.352 19.4679 185.206C19.313 185.06 19.2193 184.862 19.2057 184.65C19.2076 184.484 19.2569 184.322 19.3479 184.185C19.4387 184.047 19.5674 183.936 19.7186 183.87C21.0167 183.291 22.4235 183 23.8443 183.012C25.6283 183.012 26.9931 183.459 27.9207 184.405C28.7772 185.26 29.2187 186.479 29.2187 188.093V195.002C29.2235 195.122 29.204 195.242 29.1614 195.353C29.1187 195.467 29.0538 195.569 28.9704 195.656C28.8871 195.743 28.7871 195.811 28.6766 195.859C28.5659 195.905 28.4469 195.93 28.3266 195.93C28.09 195.93 27.8632 195.836 27.6959 195.668C27.5286 195.501 27.4347 195.274 27.4347 195.037V193.882C26.9021 194.581 26.2102 195.144 25.4166 195.521C24.6229 195.899 23.7505 196.082 22.8719 196.054C20.5125 196.054 18.1353 194.712 18.1353 192.126ZM27.4347 191.149V189.93C26.2302 189.572 24.9803 189.391 23.7238 189.391C21.3555 189.391 20.0398 190.417 20.0398 192.005V192.054C20.0398 193.642 21.5026 194.569 23.211 194.569C25.5302 194.569 27.4347 193.15 27.4347 191.149Z" fill="#182958"/>
<path d="M32.5552 194.462C32.4488 194.383 32.3623 194.281 32.3028 194.161C32.2431 194.043 32.2119 193.913 32.2118 193.78C32.2154 193.563 32.3045 193.357 32.46 193.205C32.6155 193.054 32.8245 192.971 33.0414 192.972C33.202 192.972 33.3586 193.023 33.4875 193.119C34.6594 193.961 36.0589 194.428 37.5016 194.457C39.0135 194.457 40.1152 193.678 40.1152 192.456V192.406C40.1152 191.14 38.6254 190.648 36.9664 190.177C34.9861 189.614 32.7916 188.932 32.7916 186.608V186.558C32.7916 184.386 34.5757 182.946 37.0867 182.946C38.4915 182.978 39.8681 183.347 41.1009 184.022C41.2377 184.099 41.351 184.214 41.4295 184.35C41.5078 184.488 41.5482 184.643 41.5468 184.802C41.5457 184.909 41.5233 185.016 41.4809 185.115C41.4386 185.212 41.3771 185.302 41.3 185.378C41.2228 185.453 41.1316 185.512 41.0316 185.552C40.9316 185.591 40.8248 185.611 40.7174 185.609C40.5733 185.608 40.4315 185.575 40.3025 185.51C39.3078 184.91 38.1764 184.574 37.0154 184.533C35.5257 184.533 34.5757 185.315 34.5757 186.367V186.412C34.5757 187.611 36.1368 188.076 37.8226 188.588C39.7761 189.172 41.8724 189.926 41.8724 192.202V192.233C41.8724 194.623 39.8966 196.014 37.3811 196.014C35.6544 195.985 33.9752 195.445 32.5552 194.462Z" fill="#182958"/>
<path d="M44.4279 192.126V192.076C44.4279 189.4 46.6223 188 49.8202 188C51.1333 187.986 52.4411 188.167 53.7006 188.54V188.093C53.7006 185.823 52.309 184.65 49.9451 184.65C48.8157 184.65 47.6992 184.891 46.6713 185.36C46.5639 185.405 46.449 185.431 46.3324 185.434C46.1181 185.437 45.9115 185.357 45.7547 185.209C45.598 185.064 45.5031 184.864 45.4895 184.65C45.4913 184.484 45.5406 184.322 45.6315 184.185C45.7225 184.047 45.8512 183.936 46.0023 183.87C47.3003 183.291 48.7073 183 50.1279 183.012C51.9121 183.012 53.2769 183.459 54.2045 184.405C55.0609 185.26 55.498 186.479 55.498 188.093V195.002C55.5028 195.122 55.4833 195.242 55.4406 195.353C55.398 195.467 55.333 195.569 55.2496 195.656C55.1664 195.743 55.0664 195.811 54.9558 195.859C54.8451 195.905 54.7262 195.93 54.6059 195.93C54.3695 195.93 54.1425 195.836 53.9752 195.668C53.8079 195.501 53.714 195.274 53.714 195.037V193.882C53.1814 194.581 52.4895 195.144 51.6958 195.521C50.9022 195.899 50.0298 196.082 49.1512 196.054C46.7918 196.054 44.4279 194.712 44.4279 192.126ZM53.7273 191.149V189.93C52.523 189.572 51.273 189.391 50.0164 189.391C47.6481 189.391 46.3324 190.417 46.3324 192.005V192.054C46.3324 193.642 47.7954 194.569 49.5036 194.569C51.8228 194.569 53.7273 193.15 53.7273 191.149Z" fill="#182958"/>
<path d="M59.5121 183.998C59.5109 183.75 59.6073 183.51 59.7808 183.332C59.9543 183.153 60.191 183.05 60.4398 183.045C60.5656 183.042 60.6905 183.065 60.8071 183.113C60.9237 183.161 61.0298 183.231 61.1188 183.319C61.2078 183.409 61.278 183.515 61.3253 183.631C61.3726 183.747 61.3961 183.873 61.3943 183.998V186.367C62.322 184.267 64.1507 182.995 65.7384 182.995C65.864 182.989 65.9893 183.011 66.1061 183.057C66.2228 183.104 66.3284 183.175 66.416 183.265C66.5036 183.355 66.5712 183.462 66.6143 183.58C66.6574 183.699 66.675 183.825 66.6662 183.95C66.6721 184.183 66.5901 184.411 66.4364 184.586C66.2828 184.763 66.0687 184.874 65.8366 184.899C63.3924 185.194 61.3764 187.023 61.3764 190.662V194.957C61.3764 195.206 61.2772 195.446 61.1008 195.623C60.9243 195.8 60.685 195.898 60.4354 195.898C60.1857 195.898 59.9464 195.8 59.7699 195.623C59.5933 195.446 59.4943 195.206 59.4943 194.957L59.5121 183.998Z" fill="#182958"/>
<path d="M77.0406 179.678C77.0404 179.422 77.1403 179.177 77.3187 178.994C77.497 178.811 77.7398 178.705 77.995 178.701H82.9547C88.3068 178.701 92.0355 182.385 92.0355 187.174V187.223C92.0533 192.054 88.3426 195.8 82.9547 195.8H77.995C77.7398 195.794 77.497 195.688 77.3187 195.507C77.1403 195.324 77.0404 195.079 77.0406 194.823V179.678ZM82.9547 194.016C87.2766 194.016 90.033 191.085 90.033 187.299V187.254C90.033 183.468 87.2766 180.488 82.9547 180.488H78.9406V194.016H82.9547Z" fill="#182958"/>
<path d="M95.8133 179.212C95.8133 178.918 95.9307 178.634 96.1398 178.425C96.349 178.215 96.6325 178.098 96.9283 178.098C97.224 178.098 97.5076 178.215 97.7167 178.425C97.9259 178.634 98.0434 178.918 98.0434 179.212V179.53C98.0434 179.825 97.9259 180.109 97.7167 180.318C97.5076 180.527 97.224 180.645 96.9283 180.645C96.6325 180.645 96.349 180.527 96.1398 180.318C95.9307 180.109 95.8133 179.825 95.8133 179.53V179.212ZM95.9872 183.998C95.986 183.75 96.0824 183.51 96.2559 183.332C96.4294 183.153 96.666 183.05 96.9148 183.045C97.0406 183.042 97.1652 183.067 97.2817 183.113C97.3979 183.161 97.5037 183.231 97.5924 183.319C97.6809 183.409 97.7508 183.515 97.7976 183.631C97.8445 183.749 97.8672 183.873 97.8649 183.998V194.957C97.8697 195.082 97.8493 195.206 97.8048 195.322C97.7601 195.439 97.6924 195.544 97.6057 195.634C97.5189 195.722 97.4148 195.794 97.3 195.842C97.1851 195.888 97.0617 195.913 96.9372 195.912C96.8116 195.913 96.6868 195.89 96.5705 195.843C96.4541 195.795 96.3485 195.726 96.2598 195.636C96.1711 195.547 96.1014 195.44 96.0545 195.324C96.0077 195.208 95.9848 195.082 95.9872 194.957V183.998Z" fill="#182958"/>
<path d="M102.553 198.253C102.406 198.181 102.283 198.071 102.197 197.933C102.111 197.795 102.066 197.636 102.067 197.473C102.082 197.254 102.177 197.048 102.334 196.896C102.491 196.743 102.699 196.653 102.918 196.643C103.065 196.643 103.209 196.685 103.333 196.764C104.65 197.654 106.203 198.132 107.793 198.133C110.576 198.133 112.383 196.594 112.383 193.642V192.152C111.281 193.615 109.747 194.828 107.428 194.828C106.647 194.842 105.872 194.698 105.148 194.406C104.424 194.115 103.766 193.681 103.213 193.129C102.66 192.578 102.223 191.922 101.928 191.2C101.633 190.478 101.486 189.704 101.495 188.922V188.874C101.499 187.605 101.905 186.371 102.657 185.349C103.408 184.327 104.466 183.572 105.675 183.191C106.885 182.811 108.185 182.825 109.386 183.233C110.587 183.64 111.627 184.419 112.356 185.457V184.017C112.351 183.891 112.372 183.766 112.416 183.65C112.46 183.532 112.528 183.425 112.614 183.335C112.701 183.243 112.805 183.171 112.92 183.121C113.035 183.071 113.158 183.045 113.284 183.045C113.537 183.045 113.78 183.144 113.959 183.324C114.138 183.502 114.238 183.746 114.238 183.998V193.592C114.238 195.541 113.649 197.031 112.624 198.053C111.504 199.177 109.818 199.738 107.816 199.738C105.956 199.749 104.132 199.234 102.553 198.253ZM112.441 188.887V188.837C112.441 186.251 110.211 184.569 107.802 184.569C105.394 184.569 103.431 186.229 103.431 188.815V188.865C103.428 189.436 103.54 190.002 103.759 190.53C103.979 191.057 104.302 191.535 104.709 191.936C105.117 192.336 105.6 192.651 106.132 192.86C106.663 193.071 107.231 193.174 107.802 193.16C110.193 193.15 112.441 191.415 112.441 188.878V188.887Z" fill="#182958"/>
<path d="M118.444 179.212C118.444 178.918 118.562 178.634 118.771 178.425C118.98 178.215 119.263 178.098 119.559 178.098C119.855 178.098 120.139 178.215 120.348 178.425C120.557 178.634 120.674 178.918 120.674 179.212V179.53C120.674 179.825 120.557 180.109 120.348 180.318C120.139 180.527 119.855 180.645 119.559 180.645C119.263 180.645 118.98 180.527 118.771 180.318C118.562 180.109 118.444 179.825 118.444 179.53V179.212ZM118.618 183.998C118.617 183.753 118.711 183.516 118.88 183.338C119.05 183.16 119.282 183.054 119.528 183.045C119.654 183.042 119.778 183.067 119.895 183.113C120.011 183.161 120.117 183.231 120.205 183.319C120.294 183.409 120.364 183.515 120.411 183.631C120.457 183.749 120.48 183.873 120.478 183.998V194.957C120.483 195.082 120.462 195.206 120.418 195.322C120.373 195.439 120.306 195.544 120.219 195.634C120.132 195.722 120.028 195.794 119.913 195.842C119.798 195.888 119.675 195.913 119.55 195.912C119.425 195.913 119.3 195.89 119.184 195.843C119.067 195.795 118.962 195.726 118.873 195.636C118.784 195.547 118.714 195.44 118.668 195.324C118.621 195.208 118.598 195.082 118.6 194.957L118.618 183.998Z" fill="#182958"/>
<path d="M125.527 192.442V184.828H124.501C124.283 184.822 124.076 184.732 123.922 184.578C123.768 184.423 123.678 184.217 123.671 183.998C123.674 183.78 123.762 183.569 123.917 183.414C124.072 183.259 124.282 183.172 124.501 183.169H125.527V180.189C125.524 180.067 125.545 179.943 125.59 179.828C125.635 179.713 125.703 179.608 125.789 179.519C125.875 179.431 125.977 179.36 126.091 179.312C126.204 179.262 126.326 179.236 126.45 179.236C126.702 179.24 126.942 179.343 127.12 179.519C127.298 179.698 127.4 179.938 127.404 180.189V183.169H130.678C130.9 183.171 131.114 183.257 131.273 183.412C131.433 183.566 131.527 183.777 131.535 183.998C131.53 184.222 131.437 184.434 131.277 184.589C131.117 184.744 130.902 184.831 130.678 184.828H127.409V192.202C127.409 193.735 128.265 194.298 129.532 194.298C129.919 194.282 130.304 194.226 130.678 194.127C130.892 194.129 131.097 194.214 131.248 194.366C131.399 194.516 131.484 194.721 131.486 194.935C131.482 195.098 131.429 195.254 131.333 195.384C131.238 195.516 131.104 195.614 130.95 195.667C130.36 195.901 129.73 196.017 129.095 196.006C127.061 196.006 125.527 195.006 125.527 192.442Z" fill="#182958"/>
<path d="M133.8 192.126V192.076C133.8 189.4 135.995 188 139.193 188C140.506 187.986 141.813 188.167 143.073 188.54V188.093C143.073 185.823 141.682 184.65 139.318 184.65C138.183 184.648 137.062 184.891 136.031 185.363C135.922 185.409 135.805 185.436 135.687 185.439C135.471 185.437 135.265 185.352 135.111 185.202C134.956 185.051 134.865 184.848 134.858 184.633C134.859 184.467 134.909 184.305 135 184.166C135.091 184.028 135.219 183.919 135.37 183.851C136.668 183.274 138.075 182.981 139.496 182.995C141.28 182.995 142.645 183.442 143.573 184.386C144.429 185.243 144.866 186.46 144.866 188.076V194.984C144.871 195.104 144.851 195.223 144.809 195.336C144.766 195.448 144.701 195.552 144.618 195.639C144.534 195.724 144.434 195.794 144.324 195.84C144.213 195.888 144.094 195.912 143.974 195.912C143.737 195.912 143.511 195.817 143.343 195.651C143.176 195.484 143.082 195.256 143.082 195.02V193.882C142.549 194.581 141.858 195.144 141.064 195.521C140.27 195.899 139.398 196.082 138.519 196.054C136.142 196.054 133.8 194.712 133.8 192.126ZM143.1 191.149V189.93C141.895 189.572 140.645 189.391 139.389 189.391C137.021 189.391 135.7 190.417 135.7 192.005V192.054C135.7 193.642 137.168 194.569 138.876 194.569C141.173 194.569 143.078 193.15 143.078 191.149H143.1Z" fill="#182958"/>
<path d="M149.036 178.798C149.027 178.67 149.045 178.54 149.088 178.419C149.131 178.298 149.199 178.186 149.287 178.091C149.375 177.997 149.482 177.922 149.6 177.87C149.718 177.819 149.846 177.792 149.975 177.792C150.104 177.792 150.232 177.819 150.35 177.87C150.469 177.922 150.575 177.997 150.663 178.091C150.751 178.186 150.819 178.298 150.862 178.419C150.905 178.54 150.923 178.67 150.914 178.798V194.957C150.919 195.082 150.898 195.206 150.854 195.322C150.809 195.439 150.742 195.544 150.655 195.634C150.568 195.722 150.464 195.794 150.349 195.842C150.234 195.888 150.111 195.913 149.986 195.912C149.861 195.913 149.736 195.89 149.62 195.843C149.503 195.795 149.398 195.726 149.309 195.636C149.22 195.547 149.15 195.44 149.104 195.324C149.057 195.208 149.034 195.082 149.036 194.957V178.798Z" fill="#182958"/>
<path d="M162.657 188.637V179.552C162.657 179.296 162.76 179.051 162.94 178.871C163.121 178.69 163.366 178.589 163.62 178.589C163.876 178.589 164.121 178.69 164.302 178.871C164.482 179.051 164.584 179.296 164.584 179.552V188.512C164.584 192.202 166.56 194.274 169.808 194.274C172.957 194.274 174.958 192.371 174.958 188.637V179.552C174.949 179.42 174.967 179.287 175.012 179.161C175.057 179.037 175.127 178.922 175.217 178.825C175.307 178.729 175.417 178.651 175.538 178.598C175.66 178.546 175.792 178.518 175.924 178.518C176.057 178.518 176.188 178.546 176.31 178.598C176.431 178.651 176.541 178.729 176.631 178.825C176.722 178.922 176.792 179.037 176.836 179.161C176.881 179.287 176.899 179.42 176.89 179.552V188.473C176.89 193.45 174.031 196.054 169.753 196.054C165.476 196.054 162.657 193.468 162.657 188.637Z" fill="#182958"/>
<path d="M181.453 179.578C181.457 179.327 181.56 179.087 181.736 178.909C181.915 178.73 182.155 178.629 182.406 178.625H182.625C182.806 178.626 182.981 178.674 183.138 178.764C183.295 178.854 183.425 178.983 183.518 179.136L189.623 188.316L195.726 179.136C195.815 178.981 195.947 178.853 196.102 178.763C196.259 178.673 196.437 178.625 196.617 178.625H196.836C197.087 178.629 197.327 178.732 197.504 178.909C197.681 179.087 197.781 179.327 197.786 179.578V194.935C197.786 195.189 197.688 195.436 197.51 195.617C197.332 195.8 197.09 195.905 196.836 195.912C196.578 195.907 196.332 195.803 196.15 195.62C195.967 195.439 195.864 195.192 195.859 194.935V182.192L190.391 190.22C190.31 190.366 190.194 190.487 190.053 190.574C189.91 190.659 189.749 190.707 189.583 190.712C189.414 190.707 189.25 190.659 189.105 190.574C188.96 190.488 188.839 190.366 188.753 190.22L183.312 182.214V194.957C183.312 195.206 183.214 195.447 183.037 195.623C182.86 195.798 182.62 195.898 182.371 195.898C182.121 195.898 181.882 195.798 181.705 195.623C181.529 195.447 181.429 195.206 181.429 194.957L181.453 179.578Z" fill="#182958"/>
<path d="M202.643 179.552C202.634 179.42 202.653 179.287 202.696 179.161C202.741 179.037 202.811 178.922 202.901 178.825C202.992 178.729 203.101 178.651 203.223 178.598C203.344 178.546 203.476 178.518 203.608 178.518C203.741 178.518 203.873 178.546 203.994 178.598C204.115 178.651 204.225 178.729 204.315 178.825C204.406 178.922 204.476 179.037 204.519 179.161C204.564 179.287 204.583 179.42 204.574 179.552V188.918L214.315 178.932C214.412 178.829 214.529 178.746 214.657 178.687C214.788 178.629 214.927 178.597 215.068 178.594C215.316 178.602 215.549 178.705 215.722 178.882C215.895 179.059 215.992 179.296 215.997 179.543C215.992 179.673 215.963 179.8 215.909 179.918C215.854 180.034 215.777 180.14 215.679 180.225L209.623 186.22L216.116 194.248C216.29 194.443 216.384 194.696 216.384 194.957C216.378 195.214 216.274 195.46 216.091 195.642C215.91 195.823 215.665 195.929 215.408 195.933C215.25 195.932 215.096 195.89 214.96 195.812C214.823 195.735 214.709 195.623 214.626 195.488L208.254 187.553L204.569 191.242V194.953C204.578 195.085 204.56 195.219 204.516 195.343C204.471 195.468 204.402 195.583 204.312 195.679C204.22 195.777 204.112 195.853 203.989 195.907C203.868 195.96 203.736 195.986 203.603 195.986C203.471 195.986 203.34 195.96 203.219 195.907C203.096 195.853 202.988 195.777 202.896 195.679C202.806 195.583 202.736 195.468 202.691 195.343C202.648 195.219 202.629 195.085 202.639 194.953L202.643 179.552Z" fill="#182958"/>
<path d="M220.073 179.578C220.077 179.327 220.18 179.087 220.358 178.909C220.535 178.73 220.775 178.629 221.028 178.625H221.246C221.426 178.628 221.602 178.678 221.758 178.766C221.913 178.856 222.045 178.983 222.138 179.136L228.239 188.316L234.341 179.136C234.433 178.981 234.563 178.853 234.719 178.763C234.876 178.673 235.053 178.625 235.233 178.625H235.491C235.743 178.629 235.983 178.73 236.161 178.909C236.34 179.087 236.442 179.327 236.446 179.578V194.935C236.446 195.191 236.346 195.436 236.167 195.619C235.989 195.8 235.747 195.905 235.491 195.912C235.234 195.905 234.989 195.802 234.808 195.619C234.625 195.437 234.521 195.192 234.515 194.935V182.192L229.046 190.22C228.967 190.366 228.851 190.487 228.71 190.574C228.571 190.659 228.409 190.707 228.243 190.712C228.074 190.707 227.908 190.66 227.763 190.574C227.617 190.488 227.496 190.366 227.409 190.22L221.969 182.214V194.957C221.969 195.206 221.87 195.447 221.693 195.623C221.516 195.798 221.277 195.898 221.028 195.898C220.778 195.898 220.538 195.798 220.361 195.623C220.186 195.447 220.087 195.206 220.087 194.957L220.073 179.578Z" fill="#182958"/>
<path d="M248.76 179.552C248.76 179.296 248.862 179.051 249.042 178.871C249.223 178.69 249.468 178.589 249.724 178.589C249.98 178.589 250.225 178.69 250.405 178.871C250.586 179.051 250.687 179.296 250.687 179.552V194.935C250.687 195.191 250.586 195.436 250.405 195.615C250.225 195.797 249.98 195.898 249.724 195.898C249.468 195.898 249.223 195.797 249.042 195.615C248.862 195.436 248.76 195.191 248.76 194.935V179.552Z" fill="#182958"/>
<path d="M255.375 183.998C255.374 183.75 255.47 183.51 255.643 183.332C255.817 183.153 256.054 183.05 256.302 183.045C256.428 183.042 256.553 183.067 256.67 183.113C256.786 183.161 256.891 183.231 256.98 183.319C257.068 183.409 257.138 183.515 257.186 183.631C257.233 183.749 257.256 183.873 257.253 183.998V185.363C257.678 184.595 258.305 183.96 259.068 183.526C259.831 183.09 260.698 182.873 261.575 182.898C264.625 182.898 266.409 184.949 266.409 187.95V194.957C266.419 195.085 266.4 195.215 266.357 195.336C266.315 195.459 266.247 195.571 266.158 195.664C266.07 195.758 265.964 195.834 265.845 195.885C265.727 195.936 265.6 195.963 265.47 195.963C265.341 195.963 265.214 195.936 265.096 195.885C264.977 195.834 264.871 195.758 264.783 195.664C264.695 195.571 264.626 195.459 264.583 195.336C264.541 195.215 264.522 195.085 264.532 194.957V188.414C264.532 186.073 263.26 184.605 261.039 184.605C258.819 184.605 257.253 186.194 257.253 188.561V194.957C257.257 195.082 257.239 195.206 257.194 195.321C257.15 195.437 257.082 195.544 256.997 195.633C256.91 195.722 256.806 195.794 256.691 195.842C256.577 195.888 256.454 195.913 256.329 195.912C256.203 195.913 256.079 195.89 255.963 195.843C255.845 195.795 255.74 195.726 255.651 195.636C255.561 195.547 255.491 195.442 255.443 195.324C255.397 195.208 255.374 195.084 255.375 194.957V183.998Z" fill="#182958"/>
<path d="M282.426 194.957C282.426 195.206 282.327 195.446 282.15 195.623C281.974 195.798 281.735 195.898 281.485 195.898C281.236 195.898 280.995 195.798 280.819 195.623C280.642 195.446 280.544 195.206 280.544 194.957V193.25C279.518 194.761 278.028 196.054 275.709 196.054C272.685 196.054 269.684 193.664 269.684 189.516V189.467C269.684 185.341 272.685 182.898 275.709 182.898C278.054 182.898 279.567 184.167 280.544 185.574V178.798C280.538 178.674 280.56 178.55 280.603 178.434C280.648 178.318 280.716 178.211 280.803 178.122C280.89 178.033 280.994 177.963 281.109 177.915C281.223 177.867 281.347 177.842 281.471 177.843C281.597 177.842 281.722 177.865 281.839 177.913C281.955 177.96 282.06 178.031 282.15 178.119C282.239 178.208 282.31 178.315 282.357 178.431C282.405 178.547 282.428 178.673 282.426 178.798V194.957ZM271.619 189.44V189.49C271.619 192.468 273.693 194.374 276.079 194.374C278.465 194.374 280.647 192.392 280.647 189.49V189.44C280.668 188.82 280.567 188.203 280.349 187.623C280.13 187.042 279.8 186.512 279.375 186.059C278.95 185.608 278.44 185.245 277.874 184.991C277.309 184.738 276.699 184.598 276.079 184.583C273.612 184.583 271.619 186.389 271.619 189.44Z" fill="#182958"/>
<path d="M285.842 189.557V189.507C285.836 187.763 286.522 186.087 287.752 184.848C288.981 183.609 290.651 182.91 292.397 182.904C294.141 182.898 295.817 183.584 297.056 184.814C298.293 186.042 298.994 187.713 299 189.457V189.507C299.005 190.377 298.837 191.237 298.507 192.042C298.175 192.845 297.688 193.575 297.073 194.188C296.457 194.802 295.726 195.287 294.921 195.614C294.116 195.943 293.254 196.107 292.384 196.099C291.522 196.109 290.668 195.947 289.87 195.622C289.071 195.296 288.346 194.815 287.736 194.205C287.126 193.595 286.645 192.87 286.319 192.071C285.994 191.273 285.833 190.419 285.842 189.557ZM297.073 189.557V189.507C297.073 186.8 295.043 184.578 292.384 184.578C289.651 184.578 287.769 186.809 287.769 189.457V189.507C287.769 192.219 289.772 194.412 292.434 194.412C295.169 194.395 297.073 192.202 297.073 189.557Z" fill="#182958"/>
<path d="M302.394 183.998C302.392 183.75 302.488 183.51 302.662 183.332C302.836 183.153 303.073 183.05 303.321 183.045C303.448 183.042 303.572 183.067 303.688 183.113C303.806 183.161 303.912 183.231 304 183.319C304.09 183.409 304.16 183.515 304.208 183.631C304.254 183.747 304.278 183.873 304.276 183.998V185.363C304.699 184.595 305.327 183.96 306.088 183.524C306.85 183.09 307.716 182.873 308.594 182.898C311.643 182.898 313.428 184.949 313.428 187.95V194.957C313.437 195.085 313.419 195.215 313.377 195.336C313.333 195.459 313.265 195.571 313.177 195.664C313.09 195.758 312.983 195.834 312.865 195.885C312.746 195.936 312.619 195.963 312.49 195.963C312.36 195.963 312.233 195.936 312.115 195.885C311.995 195.834 311.89 195.758 311.802 195.664C311.713 195.571 311.645 195.459 311.603 195.336C311.56 195.215 311.541 195.085 311.55 194.957V188.414C311.55 186.073 310.279 184.605 308.059 184.605C305.837 184.605 304.276 186.194 304.276 188.561V194.957C304.281 195.082 304.26 195.206 304.215 195.322C304.171 195.439 304.104 195.544 304.017 195.634C303.93 195.722 303.826 195.794 303.712 195.842C303.597 195.888 303.473 195.913 303.349 195.912C303.222 195.913 303.098 195.89 302.981 195.843C302.864 195.795 302.758 195.726 302.67 195.636C302.58 195.547 302.51 195.442 302.464 195.324C302.416 195.208 302.392 195.084 302.394 194.957V183.998Z" fill="#182958"/>
<path d="M322.95 196.081C319.485 196.081 316.653 193.405 316.653 189.516V189.467C316.653 185.828 319.212 182.898 322.705 182.898C326.439 182.898 328.566 185.947 328.566 189.293C328.566 189.53 328.471 189.757 328.304 189.924C328.136 190.091 327.91 190.184 327.674 190.184H318.557C318.825 192.919 320.752 194.457 323.017 194.457C324.374 194.467 325.679 193.941 326.653 192.995C326.811 192.853 327.02 192.778 327.233 192.789C327.445 192.802 327.645 192.896 327.788 193.054C327.93 193.214 328.003 193.422 327.992 193.636C327.981 193.848 327.885 194.048 327.727 194.191C327.104 194.817 326.358 195.308 325.536 195.634C324.715 195.96 323.834 196.112 322.95 196.081ZM326.684 188.78C326.487 186.487 325.172 184.485 322.67 184.485C320.474 184.485 318.811 186.318 318.571 188.78H326.684Z" fill="#182958"/>
<path d="M331.202 194.462C331.095 194.383 331.009 194.281 330.949 194.161C330.89 194.043 330.859 193.913 330.859 193.78C330.859 193.673 330.882 193.566 330.924 193.467C330.966 193.367 331.028 193.279 331.105 193.203C331.183 193.129 331.273 193.07 331.374 193.029C331.473 192.991 331.58 192.971 331.688 192.972C331.848 192.972 332.005 193.023 332.133 193.119C333.304 193.964 334.705 194.431 336.147 194.457C337.66 194.457 338.761 193.678 338.761 192.456V192.406C338.761 191.14 337.271 190.648 335.612 190.177C333.633 189.614 331.439 188.932 331.439 186.608V186.558C331.439 184.386 333.245 182.946 335.733 182.946C337.138 182.978 338.515 183.347 339.747 184.022C339.884 184.099 339.997 184.214 340.076 184.35C340.153 184.488 340.195 184.643 340.194 184.802C340.192 184.909 340.169 185.016 340.127 185.115C340.085 185.212 340.023 185.302 339.946 185.378C339.87 185.453 339.778 185.512 339.678 185.552C339.578 185.591 339.471 185.611 339.364 185.609C339.22 185.608 339.078 185.575 338.949 185.51C337.952 184.909 336.817 184.574 335.653 184.533C334.163 184.533 333.214 185.315 333.214 186.367V186.412C333.214 187.611 334.774 188.076 336.46 188.588C338.409 189.172 340.51 189.926 340.51 192.202V192.233C340.51 194.623 338.535 196.014 336.019 196.014C334.295 195.985 332.619 195.443 331.202 194.462Z" fill="#182958"/>
<path d="M344.042 179.212C344.042 178.918 344.16 178.634 344.369 178.425C344.578 178.215 344.862 178.098 345.158 178.098C345.453 178.098 345.736 178.215 345.946 178.425C346.155 178.634 346.273 178.918 346.273 179.212V179.53C346.273 179.825 346.155 180.109 345.946 180.318C345.736 180.527 345.453 180.645 345.158 180.645C344.862 180.645 344.578 180.527 344.369 180.318C344.16 180.109 344.042 179.825 344.042 179.53V179.212ZM344.212 183.998C344.211 183.75 344.307 183.51 344.481 183.332C344.654 183.153 344.891 183.05 345.14 183.045C345.265 183.042 345.391 183.067 345.507 183.113C345.623 183.161 345.73 183.231 345.819 183.319C345.907 183.409 345.978 183.515 346.025 183.631C346.073 183.747 346.096 183.873 346.095 183.998V194.957C346.099 195.082 346.079 195.206 346.034 195.322C345.989 195.439 345.922 195.544 345.836 195.634C345.749 195.722 345.645 195.794 345.529 195.842C345.414 195.888 345.291 195.913 345.166 195.912C345.04 195.913 344.916 195.89 344.798 195.843C344.682 195.795 344.577 195.726 344.488 195.636C344.398 195.547 344.329 195.442 344.281 195.324C344.234 195.208 344.211 195.084 344.212 194.957V183.998Z" fill="#182958"/>
<path d="M349.51 192.126V192.076C349.51 189.4 351.71 188 354.907 188C356.22 187.986 357.529 188.169 358.788 188.54V188.093C358.788 185.823 357.397 184.65 355.028 184.65C353.899 184.65 352.784 184.891 351.758 185.36C351.65 185.405 351.533 185.431 351.415 185.436C351.198 185.434 350.992 185.349 350.837 185.198C350.682 185.048 350.592 184.843 350.586 184.628C350.586 184.462 350.636 184.299 350.726 184.161C350.817 184.023 350.947 183.913 351.098 183.847C352.397 183.268 353.803 182.977 355.225 182.991C357.008 182.991 358.374 183.437 359.301 184.383C360.152 185.239 360.594 186.456 360.594 188.071V194.98C360.598 195.099 360.58 195.22 360.536 195.332C360.495 195.445 360.429 195.547 360.346 195.634C360.262 195.721 360.163 195.789 360.051 195.836C359.941 195.884 359.822 195.907 359.702 195.907C359.584 195.912 359.467 195.89 359.357 195.847C359.247 195.803 359.147 195.738 359.064 195.654C358.98 195.571 358.913 195.471 358.87 195.361C358.826 195.251 358.806 195.133 358.809 195.016V193.882C358.276 194.581 357.584 195.144 356.789 195.521C355.995 195.899 355.122 196.082 354.243 196.054C351.901 196.054 349.51 194.712 349.51 192.126ZM358.809 191.149V189.93C357.606 189.572 356.355 189.391 355.099 189.391C352.73 189.391 351.415 190.417 351.415 192.005V192.054C351.415 193.642 352.877 194.569 354.586 194.569C356.905 194.569 358.809 193.15 358.809 191.149Z" fill="#182958"/>
<path d="M325.47 45.1722C323.33 45.1722 321.279 44.3223 319.766 42.8091C318.253 41.296 317.402 39.2437 317.402 37.1039C317.402 31.5443 315.194 26.2124 311.262 22.2811C307.33 18.3498 301.998 16.1412 296.439 16.1412C290.879 16.1412 285.547 18.3498 281.617 22.2811C277.685 26.2124 275.476 31.5443 275.476 37.1039C275.502 38.1791 275.312 39.2485 274.918 40.2493C274.524 41.2501 273.933 42.162 273.183 42.9313C272.431 43.7008 271.533 44.3121 270.543 44.7296C269.55 45.147 268.485 45.362 267.411 45.362C266.335 45.362 265.27 45.147 264.279 44.7296C263.288 44.3121 262.391 43.7008 261.639 42.9313C260.887 42.162 260.298 41.2501 259.902 40.2493C259.509 39.2485 259.319 38.1791 259.344 37.1039C259.451 27.3332 263.408 17.9991 270.355 11.1277C277.302 4.25633 286.679 0.402344 296.451 0.402344C306.222 0.402344 315.598 4.25633 322.546 11.1277C329.493 17.9991 333.45 27.3332 333.557 37.1039C333.557 38.1649 333.347 39.2156 332.941 40.1956C332.535 41.1758 331.938 42.066 331.188 42.8155C330.436 43.5649 329.544 44.1589 328.564 44.5632C327.583 44.9677 326.532 45.1747 325.47 45.1722Z" fill="#182958"/>
<path d="M238.35 40.449V156.609H354.51V40.449L296.431 98.529L238.35 40.449Z" fill="#009EA9"/>
<path d="M354.51 164.673H238.35C237.291 164.673 236.242 164.465 235.264 164.06C234.285 163.656 233.397 163.062 232.647 162.312C231.898 161.563 231.304 160.674 230.899 159.696C230.495 158.716 230.287 157.668 230.287 156.609V40.449C230.285 38.8535 230.758 37.2933 231.643 35.9664C232.53 34.6394 233.789 33.605 235.264 32.9943C236.738 32.3836 238.36 32.2239 239.926 32.5354C241.49 32.847 242.927 33.6158 244.056 34.7445L296.431 87.12L348.806 34.7445C349.933 33.6158 351.371 32.847 352.936 32.5354C354.501 32.2239 356.122 32.3836 357.597 32.9943C359.071 33.605 360.332 34.6394 361.217 35.9664C362.102 37.2933 362.575 38.8535 362.575 40.449V156.609C362.575 158.747 361.726 160.798 360.212 162.312C358.701 163.823 356.65 164.673 354.51 164.673ZM246.414 148.523H346.442V59.922L302.135 104.233C301.386 104.983 300.498 105.578 299.518 105.983C298.54 106.389 297.49 106.598 296.431 106.598C295.371 106.598 294.322 106.389 293.343 105.983C292.364 105.578 291.474 104.983 290.726 104.233L246.414 59.922V148.523Z" fill="#182958"/>
<path d="M1.33404 131.159V95.7102C1.32692 94.6189 1.53667 93.5372 1.95112 92.5278C2.36555 91.5183 2.97643 90.6013 3.74825 89.8298C4.52008 89.0585 5.43747 88.4481 6.44715 88.0341C7.45684 87.6203 8.5387 87.411 9.62991 87.4188C10.7222 87.4106 11.8053 87.6195 12.8161 88.0337C13.8269 88.4479 14.7452 89.0589 15.5177 89.8313C16.2901 90.6037 16.9012 91.5222 17.3153 92.5329C17.7296 93.5437 17.9386 94.6268 17.9302 95.7191V130.74C17.9302 143.023 24.0719 149.379 34.2008 149.379C44.3298 149.379 50.4715 143.238 50.4715 131.275V95.7102C50.4457 94.6044 50.6415 93.5044 51.047 92.4752C51.4524 91.4461 52.0595 90.5082 52.8327 89.7171C53.6057 88.9257 54.5293 88.2971 55.5487 87.8679C56.5682 87.4386 57.6634 87.2175 58.7696 87.2175C59.8758 87.2175 60.9708 87.4386 61.9904 87.8679C63.0099 88.2971 63.9333 88.9257 64.7063 89.7171C65.4795 90.5082 66.0867 91.4461 66.4921 92.4752C66.8977 93.5044 67.0933 94.6044 67.0676 95.7102V130.624C67.0676 153.469 54.2448 164.673 33.9823 164.673C13.7198 164.673 1.33404 153.358 1.33404 131.159Z" fill="#182958"/>
<path d="M159.036 96.2098C159.036 94.0096 159.91 91.8995 161.465 90.3437C163.022 88.7879 165.132 87.9139 167.332 87.9139C169.532 87.9139 171.642 88.7879 173.197 90.3437C174.753 91.8995 175.628 94.0096 175.628 96.2098L175.595 121.534L206.237 91.2054C208.288 89.1628 210.336 87.9808 213.243 87.9853C217.878 87.9853 220.893 91.5533 220.888 95.6432C220.888 98.2302 219.698 100.166 217.86 101.887L196.608 121.691L219.743 150.815C221.031 152.43 222 154.156 221.995 156.636C221.995 161.27 218.426 164.713 213.583 164.709C210.349 164.709 208.409 163.085 206.581 160.695L185.065 132.466L175.574 141.288L175.552 156.377C175.55 157.467 175.333 158.544 174.916 159.55C174.498 160.557 173.885 161.47 173.113 162.24C172.343 163.009 171.426 163.619 170.42 164.034C169.412 164.45 168.333 164.664 167.245 164.662C166.155 164.66 165.076 164.445 164.071 164.026C163.065 163.608 162.15 162.995 161.381 162.225C160.612 161.453 160.003 160.538 159.588 159.53C159.172 158.522 158.958 157.443 158.96 156.355L159.036 96.2098Z" fill="#182958"/>
<path d="M75.3189 96.464C75.31 95.3721 75.5186 94.2893 75.9322 93.2788C76.346 92.2682 76.9567 91.3502 77.7288 90.578C78.501 89.8059 79.419 89.1952 80.4296 88.7814C81.4401 88.3678 82.5229 88.1592 83.6148 88.1681H85.4479C86.9759 88.1437 88.4824 88.5309 89.8094 89.2888C91.1362 90.047 92.235 91.1479 92.99 92.4766L113.034 125.125L133.18 92.3696C134.906 89.5685 137.275 88.1681 140.615 88.1681H142.449C143.541 88.1592 144.623 88.3678 145.634 88.7814C146.644 89.1952 147.562 89.8059 148.335 90.578C149.107 91.3502 149.717 92.2682 150.131 93.2788C150.545 94.2893 150.753 95.3721 150.744 96.464V156.377C150.744 158.566 149.875 160.664 148.328 162.211C146.78 163.76 144.682 164.628 142.493 164.628C140.305 164.628 138.206 163.76 136.659 162.211C135.111 160.664 134.242 158.566 134.242 156.377V118.769L119.693 141.181C117.971 143.768 115.817 145.383 112.797 145.383C109.778 145.383 107.624 143.768 105.902 141.181L91.5896 119.086V156.586C91.5885 157.657 91.3752 158.716 90.962 159.704C90.5488 160.691 89.9438 161.586 89.1823 162.338C88.4207 163.09 87.5178 163.684 86.5254 164.085C85.533 164.485 84.471 164.685 83.4007 164.673C82.3369 164.684 81.2815 164.481 80.2967 164.078C79.3119 163.676 78.4172 163.081 77.6651 162.329C76.9128 161.575 76.3184 160.681 75.9162 159.696C75.5142 158.71 75.3127 157.656 75.3234 156.591L75.3189 96.464Z" fill="#182958"/>
<path d="M102.026 44.4721C102.022 43.9217 102.126 43.376 102.335 42.8665C102.543 42.357 102.851 41.8942 103.24 41.5048C103.629 41.1155 104.091 40.8073 104.6 40.5986C105.109 40.3898 105.655 40.2843 106.205 40.2885H117.552C126.615 40.2885 132.097 45.6406 132.097 53.428V53.5217C132.097 62.317 125.259 66.8753 116.736 66.8753H110.385V74.4219C110.385 75.5302 109.944 76.5933 109.161 77.377C108.377 78.1608 107.314 78.6011 106.205 78.6011C105.097 78.6011 104.034 78.1608 103.25 77.377C102.467 76.5933 102.026 75.5302 102.026 74.4219V44.4721ZM117.008 59.4536C121.187 59.4536 123.631 56.956 123.631 53.7001V53.5887C123.631 49.842 121.027 47.835 116.843 47.835H110.385V59.4536H117.008Z" fill="#009EA9"/>
<path d="M137.926 69.7121V69.6049C137.926 63.2538 142.756 60.3189 149.651 60.3189C152.074 60.2984 154.482 60.7031 156.766 61.5142V61.028C156.766 57.6071 154.647 55.7071 150.521 55.7071C148.591 55.6868 146.669 55.9606 144.821 56.5189C144.439 56.6617 144.034 56.7356 143.626 56.7375C143.179 56.7451 142.735 56.6637 142.32 56.4978C141.905 56.3321 141.527 56.0851 141.209 55.7716C140.89 55.4581 140.638 55.0843 140.465 54.6719C140.293 54.2595 140.204 53.817 140.205 53.37C140.207 52.6727 140.421 51.9925 140.819 51.4203C141.218 50.848 141.782 50.411 142.435 50.1676C145.044 49.1908 147.867 48.6511 151.721 48.6511C156.226 48.6511 159.482 49.842 161.533 51.9071C163.701 54.0792 164.678 57.2815 164.678 61.1886V74.4353C164.679 74.9601 164.575 75.4798 164.372 75.9641C164.171 76.4485 163.874 76.8877 163.501 77.2562C163.127 77.6249 162.684 77.9155 162.197 78.1111C161.71 78.3068 161.189 78.4035 160.664 78.3959C158.273 78.3959 156.699 76.7144 156.699 74.975V74.9304C154.691 77.1604 151.922 78.6234 147.908 78.6234C142.431 78.6144 137.926 75.4655 137.926 69.7121ZM156.873 67.7941V66.3268C155.214 65.5967 153.418 65.2272 151.605 65.2429C148.077 65.2429 145.905 66.6524 145.905 69.257V69.3641C145.905 71.5942 147.751 72.8921 150.414 72.8921C154.268 72.9144 156.873 70.7958 156.873 67.7941Z" fill="#009EA9"/>
<path d="M170.516 44.7976C170.512 44.2473 170.617 43.7015 170.825 43.1921C171.033 42.6826 171.341 42.2198 171.73 41.8304C172.118 41.441 172.581 41.133 173.09 40.9241C173.6 40.7153 174.146 40.6099 174.696 40.6141H185.338C197.277 40.6141 205.529 48.8117 205.529 59.5072V59.6142C205.529 70.3186 197.277 78.6144 185.338 78.6144H174.696C174.146 78.6186 173.6 78.5133 173.091 78.3048C172.583 78.0962 172.119 77.7885 171.732 77.3997C171.343 77.0108 171.034 76.5483 170.826 76.0395C170.617 75.5305 170.512 74.9852 170.516 74.4353V44.7976ZM185.338 71.0679C192.175 71.0679 196.791 66.4561 196.791 59.7212V59.6142C196.791 52.8838 192.175 48.1606 185.338 48.1606H178.879V71.0679H185.338Z" fill="#009EA9"/>
<path d="M211.358 42.2465C211.358 39.8558 213.364 38.3884 215.974 38.3884C218.583 38.3884 220.586 39.8558 220.586 42.2465V42.3713C220.586 44.7575 218.578 46.2784 215.974 46.2784C213.369 46.2784 211.358 44.7575 211.358 42.3713V42.2465ZM211.848 52.991C211.848 51.8967 212.282 50.8474 213.057 50.0736C213.831 49.3 214.879 48.8653 215.974 48.8653C217.068 48.8653 218.118 49.3 218.891 50.0736C219.665 50.8474 220.099 51.8967 220.099 52.991V74.4843C220.099 75.5786 219.665 76.6279 218.891 77.4015C218.118 78.1753 217.068 78.6099 215.974 78.6099C214.879 78.6099 213.831 78.1753 213.057 77.4015C212.282 76.6279 211.848 75.5786 211.848 74.4843V52.991Z" fill="#009EA9"/>
</g>
</g>
<defs>
<clipPath id="clip0_334_1646">
<rect width="362.791" height="200" fill="white"/>
</clipPath>
</defs>
</svg>
