<svg width="327" height="200" viewBox="0 0 327 200" fill="none" xmlns="http://www.w3.org/2000/svg">
<g clip-path="url(#clip0_335_1662)">
<path d="M94.023 110.125C94.023 125.566 89.9152 137.493 81.699 145.904C73.483 154.315 61.9051 158.52 46.9653 158.519C41.1144 158.519 36.1349 157.703 32.0263 156.07V178.668C32.0263 185.95 28.6028 189.465 21.7558 189.213H17.6476C11.2987 189.213 6.817 188.115 4.20256 185.919C1.58815 183.723 0.281058 179.8 0.281311 174.15V83.7605C0.281311 80.6218 0.903643 77.9856 2.14831 75.8516C3.39297 73.718 5.44712 71.6466 8.31072 69.6377C12.1698 67.0007 16.994 64.9605 22.7833 63.5172C29.0534 62.0177 35.4805 61.2904 41.9243 61.3514C58.2327 61.3514 70.682 65.3058 79.2722 73.2144C89.1063 81.8777 94.0233 94.1813 94.023 110.125ZM43.0433 86.3974C39.1367 86.4096 35.2919 87.3797 31.8398 89.224V130.651C35.699 132.408 39.1848 133.287 42.2972 133.287C55.1195 133.287 61.5309 125.566 61.5314 110.125C61.5314 94.3061 55.3681 86.3969 43.0433 86.3974Z" fill="#3088C8"/>
<path d="M128.414 156.84C126.463 158.236 124.039 158.87 121.142 158.744H116.99C110.57 158.744 106.007 157.602 103.3 155.317C100.594 153.032 99.241 149.096 99.2405 143.511V74.7709C99.2405 70.4545 100.185 67.598 102.073 66.2013C103.962 64.8048 106.416 64.1069 109.438 64.1071L113.591 64.297C120.012 64.297 124.575 65.4393 127.281 67.7238C129.987 70.0086 131.341 73.9441 131.341 79.5304V148.27C131.341 152.587 130.366 155.443 128.414 156.84Z" fill="#3088C8"/>
<path d="M136.281 153.891L138.33 152.62C142.742 149.653 144.948 144.727 144.948 137.841V73.0064C144.948 69.4041 145.735 67.0203 147.312 65.855C148.888 64.6894 150.936 64.1069 153.457 64.1071L156.924 64.2659C162.282 64.2659 166.09 65.2193 168.349 67.1259C170.607 69.0324 171.736 72.3167 171.737 76.9785V140.384C171.737 149.282 169.714 156.433 165.67 161.836C161.626 167.24 156.137 169.941 149.205 169.94C146.269 169.998 143.377 169.228 140.853 167.716C138.467 166.267 136.592 164.099 135.495 161.518C134.91 160.331 134.588 159.03 134.55 157.704C134.548 156.009 135.126 154.738 136.281 153.891Z" fill="#3088C8"/>
<path d="M255.743 96.22V135.528C255.809 137.993 255.111 140.417 253.741 142.461C252.407 144.391 250.233 146.233 247.216 147.988C239.793 152.55 229.178 154.832 215.372 154.832C202.494 154.832 192.547 152.404 185.53 147.549C178.513 142.694 175.003 135.587 175 126.228C175 118.156 177.378 111.956 182.135 107.627C186.891 103.298 194.258 100.607 204.235 99.5545L227.03 97.098V95.8696C227.03 89.5524 221.288 86.3934 209.803 86.3932C204.815 86.3932 199.072 87.2122 192.576 88.8502C190.255 89.4352 188.573 89.7276 187.529 89.7274C186.457 89.7641 185.395 89.5157 184.448 89.0076C183.501 88.4995 182.703 87.7494 182.135 86.8324C180.858 84.9018 180.22 82.5327 180.22 79.7251C180.22 76.6841 180.887 74.2856 182.221 72.5304C183.556 70.7752 185.847 69.196 189.095 67.7927C195.127 65.3355 203.422 64.1071 213.979 64.1071C227.436 64.1071 237.761 66.8269 244.954 72.2669C252.146 77.7066 255.743 85.6912 255.743 96.22ZM227.205 130.791V116.752L214.676 117.805C207.251 118.273 203.539 120.73 203.539 125.176C203.539 130.44 207.482 133.072 215.37 133.073C217.675 133.074 219.975 132.868 222.243 132.459C224.507 132.048 226.161 131.493 227.205 130.791Z" fill="#3088C8"/>
<path d="M291.899 156.85C289.78 158.284 287.248 158.971 284.701 158.803L281.013 158.617C274.739 158.617 270.281 157.501 267.635 155.269C264.992 153.037 263.668 149.192 263.671 143.734V87.9208C263.671 82.959 265.453 78.9284 269.02 75.8284C272.587 72.7281 278.367 69.8752 286.362 67.2694C293.19 65.2248 300.271 64.16 307.395 64.1071C320.187 64.1069 326.582 69.0061 326.582 78.8048C326.582 80.2932 326.522 81.161 326.397 81.4089C325.906 85.7499 322.585 88.2307 316.435 88.8509C312.435 89.2337 308.463 89.8555 304.537 90.7127C300.539 91.581 297.372 92.5112 295.035 93.5028V148.384C295.035 152.602 293.99 155.424 291.899 156.85Z" fill="#3088C8"/>
<path d="M144.763 2.25641V23.3096C141.728 24.7791 138.81 26.483 136.035 28.406C125.011 18.9373 115.291 19.6042 115.291 19.6042C126.912 1.38439 144.763 2.25641 144.763 2.25641Z" fill="#FFC555"/>
<path d="M136.035 28.4076C117.662 41.1719 115.316 57.8339 115.316 57.8339L115.291 19.6057C115.291 19.6057 125.011 18.9388 136.035 28.4076Z" fill="url(#paint0_linear_335_1662)"/>
<path d="M85.8185 2.25641V23.3096C88.8539 24.7791 91.7719 26.483 94.5468 28.406C105.571 18.9373 115.291 19.6042 115.291 19.6042C103.67 1.38439 85.8185 2.25641 85.8185 2.25641Z" fill="#FFC555"/>
<path d="M94.5468 28.4076C112.919 41.1719 115.265 57.8339 115.265 57.8339L115.291 19.6057C115.291 19.6057 105.571 18.9388 94.5468 28.4076Z" fill="#F6931E"/>
</g>
<defs>
<linearGradient id="paint0_linear_335_1662" x1="130.529" y1="38.7147" x2="116.341" y2="38.7147" gradientUnits="userSpaceOnUse">
<stop stop-color="#F6931E"/>
<stop offset="0.304" stop-color="#F78E1E"/>
<stop offset="0.552" stop-color="#F9831E"/>
<stop offset="0.779" stop-color="#FB7A1E"/>
<stop offset="0.994" stop-color="#FF681E"/>
</linearGradient>
<clipPath id="clip0_335_1662">
<rect width="326.582" height="200" fill="white"/>
</clipPath>
</defs>
</svg>
