<svg width="182" height="54" viewBox="0 0 182 54" fill="none" xmlns="http://www.w3.org/2000/svg">
  <path
    d="M20.4065 12.9888C20.4087 13.6902 20.2929 14.372 20.1107 15.0505C18.2608 21.9035 16.423 28.7586 14.5664 35.6094C13.7563 38.6016 11.8125 40.5353 8.71972 41.1118C3.32776 42.116 -1.13703 37.3086 0.258148 32.07C1.7615 26.4222 3.29685 20.7809 4.82117 15.1385C5.18321 13.7933 5.53753 12.4481 5.91502 11.1084C6.85433 7.77634 9.91401 5.59299 13.3997 5.7515C16.8325 5.90676 19.7211 8.4397 20.3083 11.8238C20.3745 12.2071 20.3767 12.599 20.4065 12.9888Z"
    fill="#36646F" />
  <path
    d="M66.9781 24.7177C66.8468 26.9086 66.1238 28.9671 65.5631 31.0604C64.5542 34.8234 63.531 38.5832 62.4813 42.3354C62.0277 43.9596 61.3886 45.5121 60.0607 46.663C57.9525 48.4946 55.5043 49.1623 52.8166 48.2926C50.1058 47.4154 48.4998 45.4568 47.885 42.7121C47.5847 41.3658 47.8309 40.0532 48.1366 38.7504C48.3673 37.7743 48.6653 36.8167 48.9159 35.8461C49.3132 34.3142 48.5605 32.9267 47.0946 32.4653C45.6796 32.019 44.1763 32.7714 43.6442 34.2545C43.3164 35.1697 43.0835 36.1197 42.8252 37.0589C42.1199 39.6374 41.4301 42.217 40.7236 44.7956C39.4444 49.4674 35.3593 52.9916 30.5137 53.4975C23.902 54.1913 18.6072 49.9103 17.3533 44.2603C16.935 42.3821 16.9846 40.5038 17.4957 38.6462C20.1746 28.9041 22.8402 19.16 25.5478 9.42663C26.7619 5.05993 29.5788 2.13287 34.0193 0.881057C41.0272 -1.09275 48.1631 3.61594 49.1124 10.6024C49.1874 11.1551 49.2581 11.7055 49.2393 12.2169C49.2713 13.2744 49.0848 14.2537 48.8165 15.2243C47.9026 18.5248 46.9986 21.8264 46.1001 25.1292C45.9842 25.5569 45.8551 25.9847 45.8441 26.4363C45.8087 27.8532 46.6851 28.9215 48.1377 29.2168C49.3541 29.4644 50.6521 28.7706 51.1245 27.5514C51.4049 26.8261 51.5881 26.0639 51.7968 25.3137C52.1676 23.9707 52.6124 22.6548 53.108 21.3498C53.7725 19.6073 55.0562 18.5205 56.7163 17.792C60.2307 16.2514 64.1182 17.4673 66.0719 20.7114C66.8181 21.9491 67.0631 23.2943 66.9781 24.7177Z"
    fill="#61B296" />
  <path
    d="M126.401 27.8748C126.346 28.4665 126.225 29.043 126.027 29.6033C125.401 31.3686 124.16 32.4912 122.335 32.9831C120.949 33.3587 119.545 33.3696 118.152 33.0569C115.732 32.5162 114.211 30.7791 113.909 28.2613C113.838 27.6729 113.8 27.0855 113.802 26.4927C113.808 24.5591 113.803 22.6265 113.806 20.6929C113.807 20.4443 113.807 20.1902 113.854 19.9481C114.004 19.1512 114.671 18.6268 115.475 18.6507C116.253 18.6724 116.87 19.2022 116.996 19.9796C117.035 20.225 117.035 20.4779 117.035 20.7276C117.038 22.7047 117.035 24.6839 117.038 26.6621C117.038 27.1843 117.06 27.7044 117.205 28.2146C117.544 29.4133 118.315 30.1157 119.571 30.3079C120.155 30.3969 120.727 30.3557 121.282 30.1787C122.482 29.7965 123.016 28.89 123.188 27.7315C123.238 27.396 123.233 27.0508 123.234 26.7099C123.237 24.6861 123.235 22.6624 123.235 20.6386C123.235 20.3672 123.228 20.0958 123.303 19.8265C123.503 19.1056 124.133 18.6333 124.889 18.6507C125.642 18.6659 126.262 19.1653 126.408 19.9003C126.456 20.1435 126.462 20.3976 126.463 20.6451C126.469 21.7819 126.467 22.9197 126.467 24.2562C126.439 25.3299 126.52 26.6035 126.401 27.8748Z"
    fill="#36646F" />
  <path
    d="M79.9321 33.1026C79.6606 33.1525 79.3858 33.1992 79.1109 33.2209C78.8582 33.2404 78.6032 33.2252 78.3493 33.2252C76.4276 33.2209 74.6671 32.6922 73.0777 31.6249C72.5324 31.258 72.2576 30.7542 72.3646 30.1093C72.528 29.1126 73.6174 28.5915 74.5501 29.054C74.8161 29.1853 75.0523 29.3764 75.3073 29.5317C76.442 30.2189 77.6639 30.5522 79.005 30.4089C79.3814 30.3698 79.7301 30.2656 80.0359 30.0485C80.6926 29.5795 80.7037 28.6664 80.0613 28.18C79.7279 27.927 79.3372 27.7783 78.9387 27.6632C78.1197 27.4232 77.2963 27.2061 76.4773 26.9672C75.7466 26.7545 75.0358 26.4906 74.3912 26.0748C73.4585 25.4701 72.9706 24.6145 72.8569 23.5321C72.5479 20.5942 74.4541 19.0503 76.6418 18.6833C78.6705 18.3424 80.5911 18.7137 82.3715 19.7506C82.7181 19.9525 83.0051 20.212 83.1221 20.6061C83.2987 21.2011 83.1916 21.7385 82.7104 22.1608C82.2346 22.5799 81.675 22.6429 81.0955 22.4106C80.7975 22.2922 80.5271 22.1087 80.2357 21.9708C79.4376 21.593 78.6098 21.3292 77.7069 21.365C77.3548 21.3802 77.0171 21.4399 76.7036 21.5952C75.8172 22.0371 75.7543 23.1032 76.5866 23.6363C76.9376 23.8632 77.3372 23.9826 77.7323 24.1075C78.6562 24.3952 79.6109 24.5787 80.5227 24.9077C81.132 25.1292 81.7203 25.3875 82.249 25.7632C83.1463 26.4016 83.6298 27.2669 83.6971 28.3559C83.8561 30.8931 82.4741 32.6379 79.9321 33.1026Z"
    fill="#36646F" />
  <path
    d="M99.6293 31.2004C99.5719 31.0267 99.4924 30.8638 99.4174 30.6966C98.5211 28.7032 97.6237 26.7088 96.7263 24.7144C95.9968 23.0945 95.2672 21.4757 94.5387 19.8548C94.2638 19.2435 93.8576 18.7832 93.1678 18.6116C92.0209 18.3261 91.0816 18.7604 90.575 19.8743C89.3752 22.5071 88.1952 25.1476 87.0076 27.7847C86.502 28.9063 85.9965 30.0267 85.4965 31.1504C85.2481 31.7085 85.3607 32.2231 85.7515 32.6747C86.1532 33.1416 86.6897 33.2317 87.2647 33.1058C87.8034 32.9874 88.14 32.6215 88.352 32.1384C88.6169 31.5326 88.8917 30.9322 89.1301 30.3166C89.2615 29.9768 89.4359 29.8237 89.8355 29.8291C91.6136 29.8541 93.394 29.8508 95.1722 29.8324C95.5508 29.828 95.755 29.9344 95.8908 30.2949C96.1336 30.9322 96.4162 31.5554 96.7076 32.1742C96.9902 32.7757 97.4593 33.1427 98.1646 33.1568C99.2319 33.172 99.9593 32.2046 99.6293 31.2004ZM90.5441 27.028C91.2008 25.4841 91.8256 24.0119 92.5132 22.3975C93.1987 24.0011 93.8311 25.4874 94.4901 27.028H90.5441Z"
    fill="#36646F" />
  <path
    d="M111.163 21.391C110.873 21.6081 110.546 21.6776 110.188 21.6733C109.403 21.6668 108.617 21.6689 107.832 21.6733C107.238 21.6765 107.232 21.6787 107.232 22.2726C107.228 25.2268 107.231 28.181 107.231 31.1363C107.231 31.3176 107.242 31.5011 107.226 31.6813C107.15 32.577 106.458 33.1828 105.554 33.1513C104.684 33.1231 104.054 32.5032 104.044 31.6096C104.026 30.0419 104.038 28.4741 104.038 26.9053C104.037 25.3375 104.042 23.7698 104.035 22.2009C104.034 21.6863 104.024 21.6787 103.491 21.6744C102.683 21.6678 101.873 21.6429 101.067 21.6798C100.132 21.7243 99.4787 20.9524 99.4919 20.2228C99.5062 19.3835 100.139 18.7875 101.08 18.7842C104.127 18.7788 107.175 18.7788 110.223 18.7853C110.935 18.7864 111.463 19.1534 111.669 19.7429C111.88 20.3444 111.674 21.0067 111.163 21.391Z"
    fill="#36646F" />
  <path
    d="M142.766 20.5053C142.762 24.1207 142.762 27.736 142.765 31.3514C142.765 32.1158 142.529 32.7379 141.759 33.0571C141.025 33.3632 140.203 33.1852 139.619 32.5403C139.174 32.0495 138.784 31.5099 138.377 30.9856C136.739 28.8717 135.104 26.7557 133.467 24.6385C133.384 24.5321 133.312 24.4116 133.122 24.3378C132.989 24.5875 133.046 24.8166 133.046 25.037C133.041 27.1052 133.043 29.1757 133.043 31.245C133.043 31.5175 133.047 31.7879 132.971 32.0571C132.746 32.8399 132.058 33.3035 131.244 33.2036C130.457 33.1081 129.895 32.5327 129.887 31.7325C129.867 30.0736 129.878 28.4135 129.878 26.7535C129.878 24.708 129.896 22.6615 129.87 20.6138C129.858 19.8072 130.079 19.1796 130.879 18.8561C131.646 18.5467 132.606 18.7464 133.181 19.3468C133.434 19.6106 133.652 19.906 133.876 20.1958C135.641 22.4736 137.402 24.7536 139.164 27.0314C139.258 27.1541 139.322 27.3094 139.531 27.3626C139.64 27.2073 139.591 27.0238 139.591 26.8566C139.595 24.7428 139.594 22.6278 139.595 20.5129C139.595 20.2642 139.575 20.0134 139.658 19.7692C139.851 19.185 140.429 18.7475 141.056 18.7139C141.742 18.678 142.359 19.0417 142.61 19.6389C142.725 19.9136 142.766 20.2034 142.766 20.5053Z"
    fill="#61B296" />
  <path
    d="M174.149 21.9146C172.706 19.8865 170.632 18.9604 168.174 18.854C166.745 18.7921 165.309 18.893 163.88 18.8236C162.812 18.7714 161.994 19.5336 162.033 20.6193C162.097 22.3901 162.049 24.1641 162.049 25.9371C162.049 27.7784 162.042 29.6187 162.054 31.4601C162.059 32.3981 162.545 32.9366 163.479 33.0864C163.614 33.1082 163.753 33.1255 163.89 33.1255C165.16 33.1266 166.43 33.1396 167.699 33.1168C168.367 33.1049 169.034 33.0387 169.691 32.8899C175.387 31.6034 176.729 25.5441 174.149 21.9146ZM171.994 26.6634C171.666 28.8891 170.122 30.1702 167.744 30.2701C167.075 30.2973 166.405 30.2821 165.736 30.2734C165.264 30.2669 165.256 30.2571 165.25 29.7533C165.241 29.0954 165.247 28.4364 165.247 27.7774C165.247 25.936 165.243 24.0957 165.248 22.2566C165.249 21.7039 165.259 21.6996 165.826 21.6931C166.219 21.6876 166.61 21.692 167.003 21.692C167.764 21.692 168.524 21.6703 169.261 21.9254C171.429 22.6702 172.283 24.7048 171.994 26.6634Z"
    fill="#61B296" />
  <path
    d="M159.347 30.966C158.323 28.7023 157.306 26.4364 156.29 24.1706C155.654 22.757 155.022 21.3412 154.388 19.9276C154.006 19.0819 153.372 18.5944 152.494 18.5857C151.38 18.5955 150.742 19.1155 150.34 20.0199C149.271 22.4367 148.174 24.8426 147.09 27.254C146.491 28.5839 145.873 29.9052 145.315 31.2526C144.872 32.3188 145.764 33.3556 146.924 33.196C147.538 33.1124 147.929 32.7639 148.168 32.2308C148.44 31.6293 148.714 31.0257 148.946 30.409C149.101 30.0019 149.346 29.8824 149.777 29.8889C151.463 29.9117 153.152 29.9204 154.837 29.8846C155.365 29.8738 155.616 30.0442 155.793 30.5252C156.036 31.1853 156.333 31.8324 156.668 32.4523C156.994 33.0538 157.561 33.2829 158.247 33.1971C158.89 33.1178 159.278 32.7313 159.487 32.1505C159.641 31.7325 159.521 31.3514 159.347 30.966ZM150.369 27.0933C151.017 25.57 151.636 24.1174 152.254 22.6625L152.437 22.6669C153.058 24.1184 153.678 25.5689 154.328 27.0933H150.369Z"
    fill="#61B296" />
  <path
    d="M181.557 31.1788C181.557 31.3818 181.563 31.5881 181.542 31.7911C181.457 32.5978 180.843 33.1775 180.04 33.2221C179.215 33.2666 178.51 32.7139 178.366 31.8975C178.332 31.6977 178.334 31.4904 178.334 31.2873C178.331 27.7403 178.333 24.1955 178.331 20.6496C178.331 20.3749 178.338 20.1046 178.414 19.8386C178.618 19.1231 179.246 18.6867 180.03 18.7181C180.763 18.7464 181.364 19.2295 181.5 19.9298C181.552 20.1958 181.553 20.4726 181.554 20.7441C181.559 22.4931 181.555 24.2444 181.555 25.9934C181.557 27.7241 181.56 29.4514 181.557 31.1788Z"
    fill="#61B296" />
  <path
    d="M75.6305 39.6903C75.4978 40.007 75.3119 40.2838 75.0719 40.5206C74.8318 40.7573 74.5475 40.9455 74.2189 41.0849C73.8903 41.2233 73.5275 41.2936 73.1303 41.2936C72.7331 41.2936 72.3703 41.2255 72.0417 41.0893C71.7131 40.953 71.431 40.7671 71.1954 40.5325C70.9597 40.2979 70.7761 40.0222 70.6433 39.7054C70.5106 39.3886 70.4453 39.0535 70.4453 38.6989C70.4453 38.3442 70.5117 38.0091 70.6433 37.6923C70.7761 37.3755 70.962 37.0988 71.202 36.862C71.4421 36.6252 71.7264 36.4371 72.055 36.2976C72.3836 36.1582 72.7464 36.089 73.1436 36.089C73.5407 36.089 73.9036 36.1571 74.2322 36.2944C74.5608 36.4306 74.8429 36.6166 75.0785 36.8512C75.3141 37.0858 75.4978 37.3615 75.6305 37.6783C75.7633 37.995 75.8297 38.3302 75.8297 38.6848C75.8286 39.0383 75.7622 39.3746 75.6305 39.6903ZM74.751 38.0048C74.6648 37.7864 74.5453 37.5961 74.3904 37.4328C74.2355 37.2696 74.0508 37.1409 73.835 37.0447C73.6193 36.9485 73.3837 36.9009 73.1292 36.9009C72.8736 36.9009 72.6402 36.9474 72.4267 37.0415C72.2132 37.1344 72.0306 37.262 71.8791 37.422C71.7275 37.5831 71.608 37.7723 71.5228 37.9896C71.4366 38.208 71.3945 38.4394 71.3945 38.6837C71.3945 38.9281 71.4377 39.1594 71.5228 39.3778C71.608 39.5962 71.7286 39.7865 71.8835 39.9497C72.0384 40.113 72.2231 40.2416 72.4389 40.3379C72.6546 40.4341 72.8902 40.4817 73.1447 40.4817C73.3991 40.4817 73.6337 40.4352 73.8472 40.3411C74.0607 40.2481 74.2432 40.1206 74.3948 39.9605C74.5464 39.8005 74.6659 39.6103 74.751 39.3929C74.8373 39.1746 74.8794 38.9432 74.8794 38.6989C74.8805 38.4534 74.8373 38.2232 74.751 38.0048Z"
    fill="#36646F" />
  <path
    d="M77.7195 41.2072H76.8223V37.4113H77.7195V38.007C77.7825 37.9151 77.8522 37.8297 77.9286 37.7497C78.0038 37.6697 78.0923 37.5984 78.193 37.5357C78.2936 37.4729 78.4032 37.4232 78.5227 37.3865C78.6421 37.3497 78.7782 37.3324 78.9298 37.3324C79.3701 37.3324 79.7097 37.4643 79.9498 37.7281C80.1899 37.9919 80.3093 38.3465 80.3093 38.7919V41.2072H79.4121V39.0557C79.4121 38.7595 79.3402 38.5314 79.1975 38.3703C79.0537 38.2103 78.8512 38.1303 78.589 38.1303C78.3313 38.1303 78.1222 38.2124 77.9618 38.3779C77.8013 38.5433 77.7206 38.7736 77.7206 39.0698V41.2072H77.7195Z"
    fill="#36646F" />
  <path
    d="M82.4422 40.3334C82.6435 40.4988 82.888 40.581 83.1779 40.581C83.398 40.581 83.5894 40.5432 83.752 40.4664C83.9136 40.3896 84.0729 40.2772 84.23 40.1291L84.7521 40.5821C84.5652 40.7983 84.3439 40.9702 84.0861 41.1C83.8284 41.2297 83.5208 41.2946 83.1635 41.2946C82.8836 41.2946 82.6225 41.247 82.3802 41.1508C82.1379 41.0545 81.9266 40.9205 81.7474 40.7486C81.5682 40.5756 81.4277 40.3691 81.3248 40.1269C81.2219 39.8848 81.1699 39.6156 81.1699 39.3182C81.1699 39.0447 81.2164 38.7885 81.3093 38.5495C81.4022 38.3095 81.5339 38.0998 81.7032 37.9203C81.8724 37.7409 82.0727 37.5981 82.3028 37.4922C82.5329 37.3873 82.7884 37.3344 83.0672 37.3344C83.3759 37.3344 83.6469 37.3895 83.8804 37.4998C84.1127 37.61 84.3074 37.7582 84.4612 37.9452C84.6161 38.1322 84.7322 38.3506 84.8108 38.5993C84.8893 38.849 84.928 39.1096 84.928 39.3831C84.928 39.422 84.9269 39.4599 84.9247 39.4977C84.9225 39.5366 84.9181 39.5766 84.9137 39.6199H82.0594C82.1136 39.9302 82.2408 40.168 82.4422 40.3334ZM84.0452 39.0436C84.0308 38.9052 83.9987 38.7744 83.9501 38.6523C83.9014 38.5301 83.835 38.4241 83.7509 38.3355C83.668 38.2468 83.5684 38.1766 83.4533 38.1236C83.3383 38.0706 83.2066 38.0447 83.0595 38.0447C82.7851 38.0447 82.5583 38.1366 82.3791 38.3214C82.1999 38.5063 82.0915 38.7463 82.0516 39.0436H84.0452Z"
    fill="#36646F" />
  <path
    d="M92.5922 39.6795C92.4594 39.9887 92.2725 40.2558 92.0291 40.4806C91.7868 40.7055 91.4969 40.8828 91.1606 41.0126C90.8243 41.1423 90.4559 41.2072 90.0532 41.2072H88.1338V36.1755H90.0532C90.4548 36.1755 90.8243 36.2393 91.1606 36.3658C91.4969 36.4923 91.7857 36.6685 92.0291 36.8945C92.2714 37.1194 92.4594 37.3853 92.5922 37.6924C92.7249 37.9994 92.7913 38.3302 92.7913 38.6849C92.7913 39.0384 92.7249 39.3703 92.5922 39.6795ZM91.7138 38.0092C91.6275 37.7994 91.5069 37.6178 91.352 37.4643C91.1971 37.3107 91.0091 37.1896 90.7878 37.1032C90.5665 37.0167 90.3209 36.9734 90.0499 36.9734H89.0321V40.4093H90.0499C90.3198 40.4093 90.5665 40.3671 90.7878 40.2828C91.0091 40.1985 91.1971 40.0806 91.352 39.9293C91.5069 39.7779 91.6275 39.5973 91.7138 39.3876C91.8001 39.1779 91.8432 38.9487 91.8432 38.6978C91.8421 38.4481 91.799 38.2189 91.7138 38.0092Z"
    fill="#36646F" />
  <path
    d="M93.7993 36.8295V36.0024H94.7629V36.8295H93.7993ZM93.8358 41.207V37.4112H94.733V41.207H93.8358Z"
    fill="#36646F" />
  <path
    d="M99.1616 41.9044C98.7988 42.2158 98.2832 42.3715 97.6172 42.3715C96.9701 42.3715 96.3915 42.2201 95.8815 41.9185L96.2122 41.2644C96.418 41.3887 96.6337 41.4871 96.8594 41.5595C97.0851 41.632 97.3307 41.6676 97.5951 41.6676C97.9923 41.6676 98.2965 41.5693 98.5067 41.3714C98.718 41.1736 98.8231 40.8827 98.8231 40.4978V40.2016C98.6616 40.4103 98.4724 40.5789 98.2567 40.7098C98.041 40.8406 97.7732 40.9054 97.4546 40.9054C97.2245 40.9054 97.0032 40.8654 96.7931 40.7865C96.5817 40.7076 96.3948 40.5908 96.2299 40.4384C96.0651 40.2849 95.9346 40.0978 95.8361 39.8773C95.7376 39.6567 95.689 39.4048 95.689 39.1226C95.689 38.8405 95.7376 38.5886 95.8361 38.368C95.9346 38.1475 96.0651 37.9604 96.2299 37.8069C96.3937 37.6534 96.5829 37.5366 96.7964 37.4544C97.0099 37.3734 97.2289 37.3323 97.4546 37.3323C97.7832 37.3323 98.0542 37.3961 98.2677 37.5247C98.4813 37.6534 98.6638 37.8069 98.8154 37.9853V37.4112H99.7059V40.4308C99.7059 41.1022 99.5245 41.593 99.1616 41.9044ZM98.739 38.6902C98.6782 38.5594 98.5952 38.4491 98.4923 38.3583C98.3894 38.2675 98.2677 38.1972 98.1284 38.1475C97.989 38.0977 97.8429 38.0729 97.6903 38.0729C97.5332 38.0729 97.3882 38.0977 97.2566 38.1475C97.1238 38.1972 97.0077 38.2675 96.907 38.3583C96.8063 38.4491 96.7278 38.5583 96.6714 38.6869C96.6149 38.8156 96.5873 38.9583 96.5873 39.1151C96.5873 39.2718 96.6171 39.4145 96.6758 39.5432C96.7344 39.6719 96.813 39.7821 96.9114 39.8751C97.0099 39.9681 97.126 40.0394 97.261 40.0892C97.396 40.1389 97.5398 40.1638 97.6914 40.1638C97.8429 40.1638 97.989 40.1389 98.1295 40.0892C98.2689 40.0394 98.3906 39.9681 98.4934 39.8751C98.5963 39.7821 98.6782 39.6729 98.7401 39.5464C98.801 39.42 98.832 39.2783 98.832 39.1216C98.832 38.9648 98.7999 38.821 98.739 38.6902Z"
    fill="#36646F" />
  <path
    d="M100.831 36.8295V36.0024H101.795V36.8295H100.831ZM100.869 41.207V37.4112H101.766V41.207H100.869Z"
    fill="#36646F" />
  <path
    d="M104.002 40.0199C104.002 40.1886 104.044 40.3096 104.127 40.3842C104.21 40.4588 104.328 40.4956 104.48 40.4956C104.671 40.4956 104.855 40.4524 105.032 40.3659V41.0773C104.919 41.14 104.798 41.1875 104.671 41.221C104.544 41.2546 104.397 41.2719 104.23 41.2719C104.068 41.2719 103.918 41.2524 103.779 41.2146C103.641 41.1756 103.521 41.114 103.42 41.0275C103.318 40.941 103.241 40.8275 103.186 40.6848C103.132 40.5432 103.105 40.3669 103.105 40.155V38.1517H102.612V37.4111H103.105V36.3689H104.002V37.4111H105.046V38.1517H104.002V40.0199Z"
    fill="#36646F" />
  <path
    d="M108.312 41.2072V40.7401C108.179 40.8937 108.01 41.0234 107.804 41.1283C107.598 41.2331 107.348 41.2861 107.054 41.2861C106.867 41.2861 106.691 41.2612 106.524 41.2104C106.357 41.1596 106.211 41.0861 106.086 40.9877C105.961 40.8893 105.86 40.7672 105.784 40.6212C105.708 40.4752 105.67 40.3066 105.67 40.1141V40.1001C105.67 39.8947 105.709 39.7141 105.787 39.5606C105.866 39.4071 105.975 39.2806 106.115 39.18C106.254 39.0795 106.421 39.0038 106.615 38.9541C106.808 38.9033 107.019 38.8784 107.243 38.8784C107.479 38.8784 107.678 38.8925 107.843 38.9217C108.006 38.9508 108.165 38.9887 108.317 39.0363V38.9433C108.317 38.6795 108.235 38.4784 108.071 38.3389C107.906 38.2005 107.67 38.1303 107.36 38.1303C107.14 38.1303 106.943 38.1519 106.772 38.1951C106.6 38.2384 106.426 38.2957 106.25 38.3681L106.007 37.6708C106.223 37.5746 106.444 37.4978 106.669 37.4405C106.895 37.3832 107.167 37.354 107.485 37.354C108.064 37.354 108.493 37.4945 108.773 37.7746C109.053 38.0546 109.192 38.4492 109.192 38.9573V41.2072H108.312ZM108.334 39.5974C108.221 39.5541 108.087 39.5184 107.933 39.4893C107.779 39.4601 107.616 39.446 107.444 39.446C107.165 39.446 106.947 39.499 106.789 39.6039C106.632 39.7098 106.554 39.8601 106.554 40.0569V40.0709C106.554 40.2536 106.626 40.392 106.771 40.4882C106.916 40.5844 107.093 40.632 107.304 40.632C107.451 40.632 107.587 40.6126 107.712 40.5747C107.837 40.5369 107.947 40.4828 108.04 40.4125C108.133 40.3433 108.206 40.259 108.256 40.1606C108.308 40.0623 108.334 39.9531 108.334 39.8331V39.5974Z"
    fill="#36646F" />
  <path d="M110.306 41.2071V35.9592H111.203V41.2071H110.306Z" fill="#36646F" />
  <path
    d="M115.565 39.087V41.2071H114.667V36.1755H115.565V38.2675H118.036V36.1755H118.933V41.2071H118.036V39.087H115.565Z"
    fill="#61B296" />
  <path
    d="M121.215 40.3335C121.416 40.499 121.66 40.5811 121.95 40.5811C122.17 40.5811 122.362 40.5433 122.524 40.4665C122.686 40.3898 122.845 40.2773 123.002 40.1292L123.525 40.5822C123.338 40.7984 123.116 40.9703 122.859 41.1001C122.601 41.2298 122.293 41.2947 121.936 41.2947C121.656 41.2947 121.395 41.2471 121.153 41.1509C120.91 41.0547 120.699 40.9206 120.52 40.7487C120.341 40.5757 120.2 40.3692 120.097 40.127C119.994 39.8849 119.942 39.6157 119.942 39.3184C119.942 39.0448 119.989 38.7886 120.082 38.5497C120.175 38.3097 120.306 38.0999 120.476 37.9204C120.645 37.741 120.845 37.5983 121.075 37.4923C121.305 37.3874 121.561 37.3345 121.84 37.3345C122.148 37.3345 122.419 37.3896 122.653 37.4999C122.885 37.6102 123.08 37.7583 123.234 37.9453C123.389 38.1323 123.505 38.3507 123.583 38.5994C123.662 38.8491 123.7 39.1097 123.7 39.3832C123.7 39.4221 123.699 39.46 123.697 39.4978C123.695 39.5367 123.691 39.5767 123.686 39.62H120.832C120.886 39.9303 121.013 40.1681 121.215 40.3335ZM122.818 39.0438C122.803 38.9054 122.771 38.7745 122.723 38.6524C122.674 38.5302 122.607 38.4243 122.523 38.3356C122.44 38.2469 122.341 38.1767 122.226 38.1237C122.111 38.0707 121.979 38.0448 121.832 38.0448C121.558 38.0448 121.331 38.1367 121.152 38.3216C120.972 38.5064 120.864 38.7464 120.824 39.0438H122.818Z"
    fill="#61B296" />
  <path
    d="M126.974 41.2072V40.7401C126.841 40.8937 126.672 41.0234 126.466 41.1283C126.26 41.2331 126.01 41.2861 125.716 41.2861C125.529 41.2861 125.353 41.2612 125.186 41.2104C125.019 41.1596 124.873 41.0861 124.748 40.9877C124.623 40.8893 124.522 40.7672 124.446 40.6212C124.37 40.4752 124.332 40.3066 124.332 40.1141V40.1001C124.332 39.8947 124.371 39.7141 124.449 39.5606C124.528 39.4071 124.637 39.2806 124.777 39.18C124.916 39.0795 125.083 39.0038 125.277 38.9541C125.47 38.9033 125.681 38.8784 125.905 38.8784C126.141 38.8784 126.34 38.8925 126.505 38.9217C126.669 38.9508 126.827 38.9887 126.979 39.0363V38.9433C126.979 38.6795 126.898 38.4784 126.733 38.3389C126.568 38.2005 126.332 38.1303 126.022 38.1303C125.802 38.1303 125.605 38.1519 125.434 38.1951C125.262 38.2384 125.089 38.2957 124.912 38.3681L124.669 37.6708C124.885 37.5746 125.106 37.4978 125.331 37.4405C125.557 37.3832 125.829 37.354 126.147 37.354C126.726 37.354 127.155 37.4945 127.435 37.7746C127.715 38.0546 127.855 38.4492 127.855 38.9573V41.2072H126.974ZM126.996 39.5974C126.883 39.5541 126.749 39.5184 126.596 39.4893C126.441 39.4601 126.278 39.446 126.107 39.446C125.827 39.446 125.609 39.499 125.452 39.6039C125.295 39.7098 125.216 39.8601 125.216 40.0569V40.0709C125.216 40.2536 125.288 40.392 125.433 40.4882C125.578 40.5844 125.755 40.632 125.966 40.632C126.113 40.632 126.249 40.6126 126.374 40.5747C126.499 40.5369 126.609 40.4828 126.702 40.4125C126.795 40.3433 126.868 40.259 126.919 40.1606C126.971 40.0623 126.996 39.9531 126.996 39.8331V39.5974Z"
    fill="#61B296" />
  <path d="M128.967 41.2071V35.9592H129.864V41.2071H128.967Z" fill="#61B296" />
  <path
    d="M132.1 40.0199C132.1 40.1886 132.142 40.3096 132.225 40.3842C132.308 40.4588 132.427 40.4956 132.578 40.4956C132.77 40.4956 132.953 40.4524 133.13 40.3659V41.0773C133.018 41.14 132.897 41.1875 132.77 41.221C132.643 41.2546 132.495 41.2719 132.328 41.2719C132.167 41.2719 132.016 41.2524 131.878 41.2146C131.74 41.1756 131.619 41.114 131.519 41.0275C131.417 40.941 131.339 40.8275 131.285 40.6848C131.231 40.5432 131.203 40.3669 131.203 40.155V38.1517H130.711V37.4111H131.203V36.3689H132.1V37.4111H133.145V38.1517H132.1V40.0199Z"
    fill="#61B296" />
  <path
    d="M134.932 41.2071H134.035V35.9592H134.932V38.0069C134.995 37.915 135.065 37.8296 135.141 37.7496C135.217 37.6696 135.305 37.5982 135.406 37.5355C135.507 37.4728 135.616 37.4231 135.736 37.3863C135.855 37.3496 135.991 37.3323 136.143 37.3323C136.583 37.3323 136.923 37.4642 137.163 37.728C137.403 37.9918 137.522 38.3464 137.522 38.7918V41.2071H136.625V39.0556C136.625 38.7594 136.553 38.5313 136.41 38.3702C136.267 38.2102 136.064 38.1302 135.802 38.1302C135.544 38.1302 135.335 38.2123 135.175 38.3777C135.014 38.5431 134.933 38.7734 134.933 39.0697V41.2071H134.932Z"
    fill="#61B296" />
  <path
    d="M141.715 37.7495C141.75 37.8219 141.813 37.889 141.903 37.9506C141.994 38.0133 142.119 38.0706 142.279 38.1236C142.439 38.1765 142.642 38.2317 142.888 38.289C143.158 38.356 143.398 38.4306 143.607 38.5117C143.816 38.5928 143.989 38.6922 144.127 38.8101C144.264 38.9279 144.369 39.0642 144.44 39.2198C144.511 39.3755 144.547 39.5593 144.547 39.7701C144.547 40.0102 144.502 40.2231 144.412 40.4102C144.323 40.5972 144.197 40.7551 144.036 40.8848C143.876 41.0145 143.683 41.1129 143.458 41.1799C143.232 41.247 142.985 41.2805 142.715 41.2805C142.318 41.2805 141.938 41.2145 141.575 41.0826C141.212 40.9507 140.876 40.7486 140.567 40.475L141.111 39.8426C141.361 40.0534 141.613 40.2156 141.869 40.328C142.123 40.4405 142.413 40.4967 142.737 40.4967C143.017 40.4967 143.239 40.4394 143.403 40.3237C143.567 40.2091 143.65 40.0534 143.65 39.8566C143.65 39.7658 143.635 39.6836 143.603 39.6123C143.571 39.5399 143.512 39.475 143.426 39.4144C143.339 39.355 143.222 39.2988 143.072 39.2458C142.921 39.1928 142.726 39.1377 142.485 39.0804C142.21 39.0177 141.965 38.9485 141.752 38.8717C141.538 38.795 141.358 38.6987 141.213 38.5841C141.068 38.4695 140.957 38.3301 140.881 38.1668C140.805 38.0036 140.767 37.8046 140.767 37.57C140.767 37.3495 140.81 37.1495 140.899 36.97C140.986 36.7905 141.107 36.6359 141.259 36.5062C141.412 36.3764 141.597 36.277 141.813 36.2078C142.028 36.1386 142.263 36.104 142.518 36.104C142.896 36.104 143.235 36.1581 143.537 36.2662C143.839 36.3743 144.123 36.5311 144.387 36.7365L143.901 37.4046C143.666 37.237 143.433 37.1084 143.202 37.0197C142.972 36.9311 142.739 36.8867 142.503 36.8867C142.239 36.8867 142.032 36.9451 141.885 37.063C141.737 37.1808 141.664 37.3235 141.664 37.4911C141.663 37.5916 141.68 37.6771 141.715 37.7495Z"
    fill="#61B296" />
  <path
    d="M149.28 40.0783C149.175 40.3183 149.03 40.528 148.846 40.7075C148.663 40.887 148.443 41.0297 148.188 41.1356C147.933 41.2405 147.656 41.2935 147.357 41.2935C147.063 41.2935 146.79 41.2416 146.538 41.1389C146.285 41.0362 146.066 40.8945 145.883 40.715C145.699 40.5356 145.555 40.3269 145.452 40.0902C145.349 39.8534 145.297 39.5982 145.297 39.3247C145.297 39.0512 145.35 38.7939 145.456 38.5517C145.561 38.3095 145.706 38.0987 145.889 37.9192C146.073 37.7398 146.291 37.597 146.544 37.4911C146.796 37.3862 147.073 37.3333 147.372 37.3333C147.67 37.3333 147.947 37.3851 148.199 37.4879C148.451 37.5906 148.67 37.7322 148.854 37.9117C149.038 38.0911 149.182 38.3009 149.284 38.5409C149.387 38.7809 149.439 39.0371 149.439 39.3096C149.438 39.582 149.385 39.8393 149.28 40.0783ZM148.454 38.849C148.395 38.7009 148.313 38.5701 148.209 38.4576C148.104 38.3452 147.98 38.2565 147.836 38.1917C147.693 38.1268 147.533 38.0944 147.357 38.0944C147.181 38.0944 147.022 38.1268 146.878 38.1917C146.734 38.2565 146.612 38.3441 146.509 38.4544C146.407 38.5647 146.328 38.6933 146.275 38.8393C146.222 38.9852 146.195 39.142 146.195 39.3096C146.195 39.4771 146.223 39.6372 146.282 39.7874C146.341 39.9388 146.422 40.0696 146.526 40.1788C146.632 40.2891 146.755 40.3767 146.899 40.4415C147.043 40.5064 147.2 40.5388 147.371 40.5388C147.551 40.5388 147.712 40.5064 147.856 40.4415C148 40.3767 148.123 40.2891 148.226 40.1788C148.328 40.0685 148.406 39.941 148.459 39.7939C148.512 39.648 148.54 39.4912 148.54 39.3236C148.541 39.156 148.511 38.9982 148.454 38.849Z"
    fill="#61B296" />
  <path d="M150.395 41.2071V35.9592H151.292V41.2071H150.395Z" fill="#61B296" />
  <path
    d="M154.992 37.4111H155.889V41.207H154.992V40.6113C154.865 40.7951 154.706 40.954 154.515 41.087C154.325 41.22 154.081 41.287 153.782 41.287C153.342 41.287 153.002 41.1551 152.762 40.8913C152.522 40.6275 152.402 40.2729 152.402 39.8275V37.4122H153.3V39.5637C153.3 39.8599 153.371 40.088 153.514 40.2491C153.658 40.4091 153.86 40.4891 154.124 40.4891C154.382 40.4891 154.591 40.407 154.751 40.2416C154.911 40.0761 154.992 39.8459 154.992 39.5496V37.4111Z"
    fill="#61B296" />
  <path
    d="M158.089 40.0199C158.089 40.1886 158.131 40.3096 158.214 40.3842C158.297 40.4588 158.415 40.4956 158.567 40.4956C158.758 40.4956 158.942 40.4524 159.119 40.3659V41.0773C159.006 41.14 158.885 41.1875 158.758 41.221C158.631 41.2546 158.484 41.2719 158.317 41.2719C158.155 41.2719 158.005 41.2524 157.866 41.2146C157.728 41.1756 157.607 41.114 157.507 41.0275C157.405 40.941 157.328 40.8275 157.273 40.6848C157.219 40.5432 157.192 40.3669 157.192 40.155V38.1517H156.699V37.4111H157.192V36.3689H158.089V37.4111H159.133V38.1517H158.089V40.0199Z"
    fill="#61B296" />
  <path
    d="M160.038 36.8295V36.0024H161.001V36.8295H160.038ZM160.074 41.207V37.4112H160.971V41.207H160.074Z"
    fill="#61B296" />
  <path
    d="M165.897 40.0783C165.792 40.3183 165.647 40.528 165.463 40.7075C165.279 40.887 165.059 41.0297 164.805 41.1356C164.549 41.2405 164.273 41.2935 163.974 41.2935C163.68 41.2935 163.406 41.2416 163.154 41.1389C162.902 41.0362 162.683 40.8945 162.499 40.715C162.316 40.5356 162.172 40.3269 162.069 40.0902C161.966 39.8534 161.914 39.5982 161.914 39.3247C161.914 39.0512 161.967 38.7939 162.072 38.5517C162.177 38.3095 162.322 38.0987 162.506 37.9192C162.69 37.7398 162.908 37.597 163.161 37.4911C163.413 37.3862 163.69 37.3333 163.988 37.3333C164.287 37.3333 164.564 37.3851 164.816 37.4879C165.068 37.5906 165.287 37.7322 165.471 37.9117C165.654 38.0911 165.798 38.3009 165.901 38.5409C166.004 38.7809 166.056 39.0371 166.056 39.3096C166.055 39.582 166.002 39.8393 165.897 40.0783ZM165.07 38.849C165.012 38.7009 164.93 38.5701 164.826 38.4576C164.721 38.3452 164.597 38.2565 164.453 38.1917C164.309 38.1268 164.15 38.0944 163.974 38.0944C163.798 38.0944 163.639 38.1268 163.495 38.1917C163.351 38.2565 163.228 38.3441 163.125 38.4544C163.024 38.5647 162.945 38.6933 162.892 38.8393C162.839 38.9852 162.811 39.142 162.811 39.3096C162.811 39.4771 162.84 39.6372 162.899 39.7874C162.957 39.9388 163.039 40.0696 163.143 40.1788C163.248 40.2891 163.372 40.3767 163.516 40.4415C163.66 40.5064 163.817 40.5388 163.987 40.5388C164.168 40.5388 164.329 40.5064 164.473 40.4415C164.617 40.3767 164.74 40.2891 164.842 40.1788C164.944 40.0685 165.023 39.941 165.076 39.7939C165.129 39.648 165.157 39.4912 165.157 39.3236C165.158 39.156 165.128 38.9982 165.07 38.849Z"
    fill="#61B296" />
  <path
    d="M167.857 41.2071H166.96V37.4112H167.857V38.0069C167.92 37.915 167.99 37.8296 168.066 37.7496C168.141 37.6696 168.23 37.5982 168.331 37.5355C168.431 37.4728 168.541 37.4231 168.66 37.3863C168.78 37.3496 168.916 37.3323 169.067 37.3323C169.508 37.3323 169.847 37.4642 170.087 37.728C170.328 37.9918 170.447 38.3464 170.447 38.7918V41.2071H169.55V39.0556C169.55 38.7594 169.478 38.5313 169.335 38.3702C169.191 38.2102 168.989 38.1302 168.727 38.1302C168.469 38.1302 168.26 38.2123 168.099 38.3777C167.939 38.5431 167.858 38.7734 167.858 39.0697V41.2071H167.857Z"
    fill="#61B296" />
</svg>