<svg width="773" height="200" viewBox="0 0 773 200" fill="none" xmlns="http://www.w3.org/2000/svg">
  <g clip-path="url(#clip0_604_1460)">
    <path
      d="M83.5903 193.696C129.756 193.696 167.181 156.271 167.181 110.106C167.181 63.9399 129.756 26.5152 83.5903 26.5152C37.4247 26.5152 0 63.9399 0 110.106C0 156.271 37.4247 193.696 83.5903 193.696Z"
      fill="#FDFCE8" />
    <path d="M87.9538 100.37L91.3117 84.5793L73.3835 82.442L78.0738 92.4882L87.9538 100.37Z"
      fill="#F0CCA3" />
    <path
      d="M149.799 99.4821C149.799 100.17 148.357 102.619 147.634 103.756L156.016 108.89L162.094 101.203C165.045 102.47 171.308 104.755 172.75 103.756C174.554 102.508 175.443 101.841 175.054 100.204C174.666 98.5662 173.25 97.4566 173.611 96.929C174.11 93.4324 170.863 92.1559 170.003 91.129C169.315 90.3076 168.237 91.2028 167.311 91.5448L163.87 87.7428C159.91 87.8262 151.742 87.7428 150.743 86.7441C149.494 85.4952 148.246 85.4117 147.08 86.7441C145.914 88.0759 149.799 98.6221 149.799 99.4821Z"
      fill="#FFEAD2" />
    <path
      d="M54.6285 156.933C52.0199 156.545 50.2345 153.964 49.2169 152.687C48.7728 152.687 45.3685 158.571 44.2214 161.651C45.9421 162.872 48.2574 163.65 49.4944 165.203C51.2261 167.379 54.0827 167.322 55.5444 167.729C55.6924 164.51 56.2556 157.176 54.6285 156.933Z"
      fill="#FFE6C9" />
    <mask id="mask0_604_1460" style="mask-type:alpha" maskUnits="userSpaceOnUse" x="0" y="26"
      width="168" height="168">
      <path
        d="M83.5903 193.703C129.756 193.703 167.181 156.278 167.181 110.112C167.181 63.9468 129.756 26.5221 83.5903 26.5221C37.4247 26.5221 0 63.9468 0 110.112C0 156.278 37.4247 193.703 83.5903 193.703Z"
        fill="#FDFCE8" />
    </mask>
    <g mask="url(#mask0_604_1460)">
      <mask id="mask1_604_1460" style="mask-type:alpha" maskUnits="userSpaceOnUse" x="44" y="152"
        width="12" height="16">
        <path
          d="M54.6421 156.92C52.0333 156.531 50.2479 153.95 49.2303 152.674C48.7863 152.674 45.382 158.557 44.2349 161.638C45.9556 162.859 48.2709 163.636 49.5079 165.19C51.2396 167.366 54.0963 167.308 55.5579 167.716C55.7059 164.497 56.2691 157.162 54.6421 156.92Z"
          fill="#C4C4C4" stroke="black" stroke-width="0.0362412" />
      </mask>
      <g mask="url(#mask1_604_1460)">
        <path
          d="M56.6026 167.108C55.0707 166.642 50.6173 162.659 48.5821 160.726L46.5285 158.311L43.6422 161.252L45.1409 165.832L55.215 169.939C56.3158 169.19 58.1345 167.574 56.6026 167.108Z"
          fill="#EBD3B9" />
      </g>
      <path
        d="M74.9069 84.329C77.3048 88.4586 83.8248 94.5048 86.7848 97.0117C85.7634 92.9931 86.8221 87.3814 87.4786 85.0779L95.8317 83.5793L99.9952 85.8276C99.9952 85.8276 100.411 85.1614 100.633 85.0779C100.994 84.9428 111.984 92.0993 111.984 92.0993C112.428 92.4324 111.401 93.9593 110.763 94.8469C114.204 96.4565 130.578 117.437 132.909 122.599C138.432 112.22 141.041 107.835 146.536 102.035L155.194 106.531L162.493 103.367C160.097 107.669 155.061 116.783 154.084 118.825C152.863 121.379 140.097 145.412 131.688 144.246C119.754 142.165 107.849 115.301 109.903 120.407C111.04 124.681 114.898 155.264 113.261 164.95C112.883 168.79 111.401 170.888 110.152 171.554C110.152 171.554 110.041 177.743 109.903 177.993C109.763 178.243 109.126 178.215 109.126 178.215C109.126 178.215 110.735 191.786 110.18 194.617C109.625 197.448 83.149 202.887 83.149 202.887L54.2868 189.066C54.2868 189.066 54.5643 184.959 54.6475 183.654C54.7308 182.35 55.0639 178.104 55.0639 178.104C55.0639 178.104 53.7872 177.521 53.6762 177.05C53.3987 176.606 53.7872 171.249 53.7872 171.249C53.7872 171.249 53.1489 171.194 53.1489 170.833C52.9824 170.611 52.494 141.999 52.3774 138.834C52.2608 135.671 52.0111 112.997 52.0111 112.997L46.3219 123.099C42.6863 129.232 38.6067 134.2 38.6067 134.2C39.8188 136.139 41.9858 139.137 43.9074 142.303C46.1947 146.074 48.2501 150.06 49.5411 152.461C51.9168 156.879 48.2923 161.85 46.1831 163.784C39.7446 158.761 25.1319 146.688 20.3734 138.557C18.181 134.81 18.6269 134.755 19.6519 133.007C22.9543 127.373 26.1341 121.537 32.6677 112.165C37.7741 103.922 42.5753 98.3993 45.8501 94.5972L45.1008 93.5703L57.4228 86.9931L57.8391 87.6593L66.4701 83.9407L68.5515 80.5545C69.671 80.0924 72.509 80.1993 74.9069 84.329Z"
        fill="#D1B283" />
      <mask id="mask2_604_1460" style="mask-type:alpha" maskUnits="userSpaceOnUse" x="18" y="80"
        width="145" height="123">
        <path
          d="M74.9069 84.329C77.3048 88.4586 83.8248 94.5048 86.7848 97.0117C85.7634 92.9931 86.8221 87.3814 87.4786 85.0779L95.8317 83.5793L99.9952 85.8276C99.9952 85.8276 100.411 85.1614 100.633 85.0779C100.994 84.9428 111.984 92.0993 111.984 92.0993C112.428 92.4324 111.401 93.9593 110.763 94.8469C114.204 96.4565 130.578 117.437 132.909 122.599C138.432 112.22 141.041 107.835 146.536 102.035L155.194 106.531L162.493 103.367C160.097 107.669 155.061 116.783 154.084 118.825C152.863 121.379 140.097 145.412 131.688 144.246C119.754 142.165 107.849 115.301 109.903 120.407C111.04 124.681 114.898 155.264 113.261 164.95C112.883 168.79 111.401 170.888 110.152 171.554C110.152 171.554 110.041 177.743 109.903 177.993C109.763 178.243 109.126 178.215 109.126 178.215C109.126 178.215 110.735 191.786 110.18 194.617C109.625 197.448 83.149 202.887 83.149 202.887L54.2868 189.066C54.2868 189.066 54.5643 184.959 54.6475 183.654C54.7308 182.35 55.0639 178.104 55.0639 178.104C55.0639 178.104 53.7872 177.521 53.6762 177.05C53.3987 176.606 53.7872 171.249 53.7872 171.249C53.7872 171.249 53.1489 171.194 53.1489 170.833C52.9824 170.611 52.494 141.999 52.3774 138.834C52.2608 135.671 52.0111 112.997 52.0111 112.997L46.3219 123.099C42.6863 129.232 38.6067 134.2 38.6067 134.2C39.8188 136.139 41.9858 139.137 43.9074 142.303C46.1947 146.074 48.2501 150.06 49.5411 152.461C51.9168 156.879 48.2923 161.85 46.1831 163.784C39.7446 158.761 25.1319 146.688 20.3734 138.557C18.181 134.81 18.6269 134.755 19.6519 133.007C22.9543 127.373 26.1341 121.537 32.6677 112.165C37.7741 103.922 42.5753 98.3993 45.8501 94.5972L45.1008 93.5703L57.4228 86.9931L57.8391 87.6593L66.4701 83.9407L68.5515 80.5545C69.671 80.0924 72.509 80.1993 74.9069 84.329Z"
          fill="#C4C4C4" />
      </mask>
      <g mask="url(#mask2_604_1460)">
        <path
          d="M85.6476 179.632C87.6683 175.791 85.12 120.14 83.5938 92.7952C83.5938 90.8986 82.7 85.4297 84.3435 88.049C85.3297 89.6221 90.7103 117.578 92.9462 138.42C94.5007 152.906 97.609 170.612 93.9731 180.603C90.2545 181.806 83.6269 183.473 85.6476 179.632Z"
          fill="#BD9B68" />
        <path
          d="M92.3993 164.224C93.3496 164.224 94.1199 163.454 94.1199 162.503C94.1199 161.553 93.3496 160.783 92.3993 160.783C91.449 160.783 90.6786 161.553 90.6786 162.503C90.6786 163.454 91.449 164.224 92.3993 164.224Z"
          fill="#AB824D" />
        <path
          d="M90.231 137.136C91.1813 137.136 91.9517 136.366 91.9517 135.415C91.9517 134.465 91.1813 133.695 90.231 133.695C89.2807 133.695 88.5104 134.465 88.5104 135.415C88.5104 136.366 89.2807 137.136 90.231 137.136Z"
          fill="#AB824D" />
        <path
          d="M87.1062 107.947C88.0565 107.947 88.8269 107.177 88.8269 106.226C88.8269 105.276 88.0565 104.506 87.1062 104.506C86.1559 104.506 85.3856 105.276 85.3856 106.226C85.3856 107.177 86.1559 107.947 87.1062 107.947Z"
          fill="#AB824D" />
        <path
          d="M93.4455 93.18C93.4455 92.9131 92.6959 89.8773 91.5862 89.3221C90.809 89.5166 94.3055 87.3793 94.611 87.8235C94.9165 88.2676 93.4455 93.5131 93.4455 93.18Z"
          fill="#AD8A55" />
        <path
          d="M94.5917 87.7938C91.7276 89.5704 88.0972 94.149 86.9317 96.9525C85.2221 95.0876 85.5352 89.3483 85.9048 86.7118L91.0393 85.5739C92.9634 85.7773 94.231 87.2387 94.5917 87.7938Z"
          fill="#BD9B68" />
        <path
          d="M61.6922 109.188L63.4406 194.36L53.1167 191.03L52.1454 177.737C50.9058 163.157 47.8757 130.795 51.0353 119.179C54.8096 105.303 46.1786 97.4766 42.8206 93.3697L66.8264 79.6876C68.7043 80.178 72.7766 81.8524 73.709 84.6276C74.1531 88.069 73.2097 92.149 70.8779 92.898C63.5516 95.2511 61.7015 104.739 61.6922 109.188Z"
          fill="#C1A47A" />
        <path
          d="M73.2938 99.1739C72.6276 97.0918 68.4648 88.489 66.2446 83.6325L67.8543 80.9401L76.291 85.1028L84.2834 94.2339C85.9027 95.3345 88.5917 97.2242 84.2834 94.678C78.6496 91.3476 74.9586 95.9263 73.2938 99.1739Z"
          fill="#BD9B68" />
        <mask id="mask3_604_1460" style="mask-type:alpha" maskUnits="userSpaceOnUse" x="42" y="79"
          width="32" height="116">
          <path
            d="M61.6922 109.188L63.4406 194.36L53.1167 191.03L52.1454 177.737C50.9058 163.157 47.8757 130.795 51.0353 119.179C54.8096 105.303 46.1786 97.4766 42.8206 93.3697L66.8264 79.6876C68.7043 80.178 72.7766 81.8524 73.709 84.6276C74.1531 88.069 73.2097 92.149 70.8779 92.898C63.5516 95.2511 61.7015 104.739 61.6922 109.188Z"
            fill="#AF9062" />
        </mask>
        <g mask="url(#mask3_604_1460)">
          <path
            d="M73.28 99.1739C72.6145 97.0918 68.4513 88.489 66.2312 83.6325L67.8408 80.9401L76.2772 85.1028L84.2703 94.2339C85.889 95.3345 88.5779 97.2242 84.2703 94.678C78.6365 91.3476 74.9455 95.9263 73.28 99.1739Z"
            fill="#BD9B68" />
        </g>
        <path
          d="M29.8184 137.554C31.5568 139.752 43.084 154.363 48.9952 161.172L46.331 166.472L37.589 162.698L10.1697 137.554L39.837 91.7634C44.1108 94.6214 52.2922 100.55 50.8269 101.393C48.9952 102.448 29.2356 133.281 28.7915 134.113C28.3475 134.945 28.3475 135.695 29.8184 137.554Z"
          fill="#C1A47A" />
        <path
          d="M109.039 114.634C108.594 116.327 109.612 119.203 110.399 121.517L113.118 128.621L125.135 150.906L144.812 145.661L166.097 101.563L152.999 104.088C151.083 106.225 146.199 125.069 138.179 132.506C129.048 141.803 119.085 125.652 116.115 120.49C111.182 111.914 109.237 113.878 109.039 114.634Z"
          fill="#C1A47A" />
        <path
          d="M91.7007 177.215C69.8876 178.881 55.1234 171.221 51.7931 170.777C51.0345 172.322 49.7505 174.773 51.2381 176.328C53.0974 178.27 65.697 182.738 81.0441 183.238C92.9779 183.238 104.661 180.518 110.85 177.548C111.83 174.403 114.075 168.496 112.765 169.917C111.128 171.692 98.8331 176.328 91.7007 177.215Z"
          fill="#332C2B" />
        <path
          d="M86.791 175.752C85.4145 175.908 85.2924 176.761 85.4034 177.168C85.5234 178.481 85.7917 181.403 85.9028 182.579C86.0138 183.756 86.8372 183.883 87.2345 183.801C90.0469 183.458 95.96 182.734 97.1145 182.579C98.269 182.424 98.4283 181.886 98.3634 181.636C98.2434 180.146 97.9641 176.885 97.8083 175.752C97.6531 174.62 96.3193 174.633 95.6717 174.781C93.2848 175.04 88.1676 175.597 86.791 175.752Z"
          fill="#D9BB4D" />
        <path
          d="M78.8862 114.682L63.0119 116.07C63.0119 121.297 63.2617 131.844 63.2617 132.777C63.2617 133.942 65.2321 135.247 66.0368 135.358C66.6807 135.446 74.0386 134.784 77.6372 134.442C78.3407 133.637 79.7579 131.839 79.8021 131.084C79.8462 130.329 79.2931 119.844 78.8862 114.682Z"
          fill="#C2A171" />
        <mask id="mask4_604_1460" style="mask-type:alpha" maskUnits="userSpaceOnUse" x="62" y="114"
          width="18" height="22">
          <path
            d="M78.8862 114.682L63.0119 116.07C63.0119 121.297 63.2617 131.844 63.2617 132.777C63.2617 133.942 65.2321 135.247 66.0368 135.358C66.6807 135.446 74.0386 134.784 77.6372 134.442C78.3407 133.637 79.7579 131.839 79.8021 131.084C79.8462 130.329 79.2931 119.844 78.8862 114.682Z"
            fill="#C4C4C4" stroke="black" stroke-width="0.0362412" />
        </mask>
        <g mask="url(#mask4_604_1460)">
          <path
            d="M79.3807 118.952C73.7634 124.325 65.6248 122.208 62.2575 120.479V115.095L78.7427 113.43C79.0752 113.957 79.6696 115.799 79.3807 118.952Z"
            fill="#AD8C5A" />
          <path d="M75.6683 120.615L76.3365 135.379" stroke="#AD8C5A" stroke-width="0.217447" />
          <path d="M68.2333 121.025L68.6774 136.122" stroke="#AD8C5A" stroke-width="0.217447" />
        </g>
        <path d="M98.0469 90.2724L100.739 84.8331L112.589 91.7159L109.564 96.8773L98.0469 90.2724Z"
          fill="#D9BB4D" />
        <path d="M48.8516 98.5641L44.8276 93.2634L56.7333 85.9641L61.035 92.0145L48.8516 98.5641Z"
          fill="#D9BB4D" />
        <path
          d="M108.296 114.662L95.7034 115.757C95.7034 119.88 95.9014 128.202 95.9014 128.938C95.9014 129.857 97.4641 130.886 98.1027 130.974C98.6138 131.044 104.45 130.521 107.305 130.251C107.863 129.617 108.987 128.197 109.022 127.602C109.057 127.006 108.619 118.735 108.296 114.662Z"
          fill="#C2A171" />
        <mask id="mask5_604_1460" style="mask-type:alpha" maskUnits="userSpaceOnUse" x="95" y="114"
          width="15" height="17">
          <path
            d="M108.296 114.662L95.7034 115.757C95.7034 119.88 95.9014 128.202 95.9014 128.938C95.9014 129.857 97.4641 130.886 98.1027 130.974C98.6138 131.044 104.45 130.521 107.305 130.251C107.863 129.617 108.987 128.197 109.022 127.602C109.057 127.006 108.619 118.735 108.296 114.662Z"
            fill="#C4C4C4" stroke="black" stroke-width="0.0362412" />
        </mask>
        <g mask="url(#mask5_604_1460)">
          <path
            d="M108.694 118.036C104.238 122.275 97.7814 120.605 95.1103 119.24V114.993L108.188 113.679C108.452 114.095 108.923 115.548 108.694 118.036Z"
            fill="#AD8C5A" />
          <path d="M105.645 119.347L106.175 130.995" stroke="#AD8C5A" stroke-width="0.144965" />
          <path d="M99.7452 119.665L100.097 131.576" stroke="#AD8C5A" stroke-width="0.144965" />
        </g>
      </g>
    </g>
    <path
      d="M78.5952 37.0372C64.3862 40.0241 54.4508 44.2065 47.7626 47.4721C47.5405 43.0039 46.5969 31.0705 46.4305 17.9159C61.439 -0.911353 87.5593 -1.5108 100.103 1.15342C100.631 2.18026 104.183 33.929 104.183 37.9808C102.518 36.6487 92.1938 34.1787 78.5952 37.0372Z"
      fill="#332C2B" />
    <path
      d="M94.0048 6.6296C91.6738 5.68602 86.7338 4.32615 86.6786 3.82661C88.0938 2.88303 96.8634 3.27157 96.8634 3.27157L99.1669 21.3106L94.0048 6.6296Z"
      fill="#FEFEFE" />
    <path
      d="M108.246 51.6065C106.248 49.3642 104.657 41.3289 104.111 37.5916C87.9034 31.2918 63.3707 38.785 47.7738 46.9164C47.7738 48.8868 48.1901 53.244 48.4121 53.91C41.9783 55.1724 41.629 60.2989 43.9687 64.0396C46.3085 67.7802 50.1883 70.3117 57.1541 72.3931C58.0699 73.8641 73.7779 89.7662 87.7924 86.7965C108.246 83.411 114.49 63.1238 108.246 51.6065Z"
      fill="#FFEAD2" />
    <mask id="mask6_604_1460" style="mask-type:alpha" maskUnits="userSpaceOnUse" x="42" y="35"
      width="69" height="53">
      <path
        d="M108.246 51.6065C106.248 49.3642 104.657 41.3289 104.111 37.5916C87.9034 31.2918 63.3707 38.785 47.7738 46.9164C47.7738 48.8868 48.1901 53.244 48.4121 53.91C41.9783 55.1724 41.629 60.2989 43.9687 64.0396C46.3085 67.7802 50.1883 70.3117 57.1541 72.3931C58.0699 73.8641 73.7779 89.7662 87.7924 86.7965C108.246 83.411 114.49 63.1238 108.246 51.6065Z"
        fill="#C4C4C4" stroke="black" stroke-width="0.0362412" />
    </mask>
    <g mask="url(#mask6_604_1460)">
      <path
        d="M74.1917 61.6509C75.6814 60.9386 79.409 60.1134 82.4062 62.5112C80.4641 61.984 77.6055 61.3456 74.1917 61.6509Z"
        fill="#FEFEFE" />
      <path
        d="M96.1993 61.5955C97.3096 60.2911 100.834 57.892 103.665 57.7102C102.028 57.4326 98.0869 57.9044 96.1993 61.5955Z"
        fill="#FEFEFE" />
      <path
        d="M63.1699 66.3991C56.5315 58.1178 55.8155 46.7042 56.2873 42.0326L48.4889 43.0594L38.9143 53.7718L44.4093 70.4786C54.1503 76.8986 73.6828 89.1062 73.8821 86.5751C74.1317 83.411 71.4676 76.751 63.1699 66.3991Z"
        fill="#EBD3B9" />
      <path
        d="M55.6487 56.4583C53.9281 49.2982 54.7051 43.609 56.2314 41.9993C57.7579 40.3897 46.3239 42.9429 46.3239 42.9429L45.8243 54.6543C45.8243 54.6543 50.8475 52.0457 55.6487 56.4583Z"
        fill="#332C2B" />
      <path
        d="M82.3765 47.7114C80.1841 43.7983 74.8 40.5236 68.75 46.3516C70.5814 45.963 76.909 45.6023 82.3765 47.7114Z"
        fill="#332C2B" />
      <path
        d="M104.328 47.0731C102.797 46.5625 97.2517 47.4061 94.5041 49.1268C95.3089 47.4061 96.1138 46.2121 98.0841 45.4912C101.498 44.2424 104.328 46.3516 104.328 47.0731Z"
        fill="#332C2B" />
      <path
        d="M80.0328 60.5512C82.2104 60.1798 83.5327 57.2817 82.9863 54.0782C82.4399 50.8747 80.2316 48.5788 78.054 48.9503C75.8764 49.3217 74.5541 52.2198 75.1005 55.4233C75.647 58.6268 77.8552 60.9227 80.0328 60.5512Z"
        fill="#332C2B" />
      <path
        d="M98.0216 58.8415C99.8451 58.5305 100.952 56.1037 100.495 53.4211C100.037 50.7385 98.1881 48.816 96.3646 49.127C94.5411 49.438 93.4338 51.8648 93.8914 54.5474C94.3489 57.23 96.1981 59.1525 98.0216 58.8415Z"
        fill="#332C2B" />
      <path
        d="M80.1324 53.3747C80.8988 53.3747 81.52 52.7534 81.52 51.987C81.52 51.2207 80.8988 50.5994 80.1324 50.5994C79.366 50.5994 78.7448 51.2207 78.7448 51.987C78.7448 52.7534 79.366 53.3747 80.1324 53.3747Z"
        fill="#FEFEFE" />
      <path
        d="M97.8089 52.3196C98.4067 52.3196 98.8913 51.835 98.8913 51.2373C98.8913 50.6395 98.4067 50.1549 97.8089 50.1549C97.2112 50.1549 96.7266 50.6395 96.7266 51.2373C96.7266 51.835 97.2112 52.3196 97.8089 52.3196Z"
        fill="#FEFEFE" />
      <path
        d="M93.5896 61.872C91.9248 61.1171 91.2676 58.9302 91.1476 57.9312C91.009 57.4871 91.7303 56.9599 91.9524 58.3752C93.0627 61.7055 94.7276 60.9561 94.6165 61.872C94.4779 63.8702 92.0634 65.008 90.1207 64.8415C89.871 64.8415 89.5931 64.1755 90.4538 64.1755C92.6186 64.2587 94.3945 62.2368 93.5896 61.872Z"
        fill="#C7AB8A" />
      <path
        d="M96.9593 68.4268C92.9634 71.8124 87.8565 71.8959 84.4152 69.0924C84.4152 70.3414 87.4124 73.5055 91.0207 73.0338C95.0165 72.34 96.9593 68.9821 96.9593 68.4268Z"
        fill="#332C2B" />
    </g>
    <path
      d="M163.382 67.7547L149.742 70.0205C147.563 70.3824 146.091 72.4421 146.453 74.6208L152.475 110.872C152.837 113.051 154.896 114.524 157.075 114.162L170.715 111.896C172.893 111.534 174.366 109.475 174.004 107.296L167.982 71.0443C167.62 68.8655 165.561 67.3927 163.382 67.7547Z"
      fill="#332C2B" />
    <path
      d="M163.769 68.9917L149.853 71.3035C148.491 71.5298 147.57 72.817 147.796 74.1787L153.785 110.228C154.011 111.589 155.298 112.51 156.66 112.284L170.577 109.972C171.939 109.746 172.859 108.458 172.633 107.097L166.644 71.0477C166.418 69.686 165.131 68.7655 163.769 68.9917Z"
      fill="white" />
    <path fill-rule="evenodd" clip-rule="evenodd"
      d="M152.55 71.3C152.552 71.3165 152.554 71.3331 152.557 71.3489C152.675 72.0586 153.346 72.5379 154.054 72.42L160.253 71.3903C160.963 71.2724 161.442 70.602 161.324 69.8924C161.316 69.8414 161.304 69.791 161.29 69.7427C161.297 69.5593 161.397 69.3834 161.879 69.2917C162.214 69.2282 161.581 69.1696 160.903 69.1317C160.619 68.8805 160.229 68.7547 159.826 68.8216L153.628 69.851C153.356 69.8965 153.117 70.0234 152.934 70.202L151.724 70.3889L151.808 70.98C151.825 70.9765 151.841 70.9731 151.857 70.9696C152.173 70.9055 152.421 70.8551 152.55 71.3Z"
      fill="#332C2B" />
    <path
      d="M102.581 37.8961L102.526 37.9055L102.51 37.9275L102.548 38.1539L102.569 38.1696L102.624 38.1602L102.639 38.1381L102.602 37.9118L102.581 37.8961ZM102.452 38.0344L102.397 38.0439L102.381 38.0659L102.4 38.179L102.421 38.1948L102.477 38.1853L102.492 38.1633L102.473 38.0501L102.452 38.0344ZM102.709 37.7577L102.654 37.7672L102.639 37.7892L102.694 38.1288L102.716 38.1444L102.772 38.135L102.787 38.113L102.73 37.7734L102.709 37.7577ZM102.837 37.6194L102.782 37.6288L102.767 37.6508L102.842 38.1036L102.863 38.1192L102.919 38.1099L102.934 38.0878L102.859 37.6351L102.837 37.6194ZM102.966 37.481L102.911 37.4905L102.896 37.5125L102.989 38.0784L103.011 38.0941L103.066 38.0847L103.081 38.0627L102.988 37.4968L102.966 37.481Z"
      fill="black" />
    <path d="M103.33 37.63L103.98 37.519L104.023 37.783L103.374 37.8939L103.33 37.63Z" fill="black" />
    <path
      d="M103.309 37.498C103.274 37.504 103.243 37.5235 103.223 37.5524C103.203 37.5813 103.195 37.6172 103.201 37.6522L103.244 37.9162C103.25 37.9511 103.27 37.9824 103.298 38.003C103.326 38.0235 103.361 38.0318 103.396 38.026L104.046 37.915C104.079 37.9091 104.11 37.8896 104.13 37.8606C104.151 37.8317 104.159 37.7958 104.153 37.7608L104.11 37.4969C104.103 37.4619 104.085 37.4306 104.056 37.4101C104.028 37.3895 103.992 37.3812 103.958 37.3871L103.309 37.498ZM103.969 37.4531C103.986 37.4502 104.003 37.4543 104.018 37.4646C104.032 37.4749 104.042 37.4905 104.045 37.508L104.088 37.772C104.091 37.7895 104.087 37.8074 104.077 37.8218C104.067 37.8363 104.052 37.8461 104.034 37.849L103.385 37.96C103.368 37.9629 103.35 37.9588 103.336 37.9485C103.322 37.9382 103.312 37.9226 103.309 37.9051L103.266 37.6411C103.263 37.6236 103.267 37.6057 103.277 37.5912C103.287 37.5767 103.302 37.567 103.319 37.564L103.969 37.4531ZM104.261 37.6067C104.266 37.6329 104.259 37.6599 104.244 37.6815C104.229 37.7032 104.206 37.7179 104.18 37.7223L104.148 37.5244C104.173 37.52 104.2 37.5261 104.221 37.5415C104.243 37.557 104.257 37.5804 104.261 37.6067Z"
      fill="black" />
    <g clip-path="url(#clip1_604_1460)">
      <path
        d="M240.11 138.799C240.11 153.547 234.211 160.92 222.413 160.92H189.521V141.108H213.757C217.219 141.108 218.95 139.12 218.95 135.145V127.066C218.95 123.09 217.732 119.821 215.296 117.256L195.099 95.52C193.303 93.5965 191.957 91.6082 191.059 89.5565C190.161 87.3765 189.713 84.8117 189.713 81.8627V69.5517C189.713 54.8048 195.612 47.4312 207.41 47.4312H237.224V67.2437H215.681C212.09 67.2437 210.294 69.231 210.294 73.2069V78.2076C210.294 82.0551 211.641 85.3248 214.334 88.0179L234.723 109.754C238.314 113.601 240.11 118.09 240.11 123.219V138.799Z"
        fill="#E1AA57" />
      <path
        d="M269.288 160.92H248.321V47.4312H269.288V160.92ZM269.288 39.5447H248.321V12.4227H269.288V39.5447Z"
        fill="#E1AA57" />
      <path
        d="M362.256 160.92H342.059V73.3993C342.059 69.2951 340.52 67.2437 337.442 67.2437H329.748V160.92H310.321V67.2437H299.741C298.587 67.2437 298.01 67.8849 298.01 69.1676V160.92H277.812V55.7025C277.812 50.1883 280.57 47.4312 286.083 47.4312H344.559C356.357 47.4312 362.256 55.1253 362.256 70.5138V160.92Z"
        fill="#E1AA57" />
      <path
        d="M401.958 140.146C405.035 140.146 406.574 138.094 406.574 133.99V73.3993C406.574 69.2951 405.035 67.2437 401.958 67.2437H393.302C392.276 67.2437 391.763 67.8849 391.763 69.1676V140.146H401.958ZM391.763 192.851H370.797V55.7025C370.797 50.1883 373.553 47.4312 379.068 47.4312H409.844C421.642 47.4312 427.541 55.1253 427.541 70.5138V137.068C427.541 152.328 421.642 159.959 409.844 159.959H391.763V192.851Z"
        fill="#E1AA57" />
      <path
        d="M470.026 101.098C471.052 101.098 471.564 100.392 471.564 98.982V72.822C471.564 68.4619 470.09 66.2819 467.14 66.2819H461.37C458.42 66.2819 456.946 68.4619 456.946 72.822V101.098H470.026ZM489.261 160.92H453.675C441.878 160.92 435.979 153.226 435.979 137.838V70.5138C435.979 55.1253 441.878 47.4312 453.675 47.4312H474.642C486.44 47.4312 492.339 55.1253 492.339 70.5138V108.985C492.339 114.37 489.453 117.063 483.683 117.063H456.946V134.952C456.946 139.056 458.42 141.108 461.37 141.108H489.261V160.92Z"
        fill="#E1AA57" />
      <path d="M521.752 160.92H500.786V9.15277H521.752V160.92Z" fill="#E1AA57" />
      <path
        d="M587.022 137.838C587.022 153.226 581.123 160.92 569.326 160.92H547.974C536.177 160.92 530.277 153.226 530.277 137.838V70.5138C530.277 55.1254 536.177 47.4313 547.974 47.4313H566.055V9.15277H587.022V137.838ZM561.439 141.108C564.517 141.108 566.055 139.056 566.055 134.952V67.2437H555.668C552.719 67.2437 551.244 69.2952 551.244 73.3993V134.952C551.244 139.056 552.719 141.108 555.668 141.108H561.439Z"
        fill="#E1AA57" />
      <path
        d="M629.507 101.098C630.532 101.098 631.046 100.392 631.046 98.982V72.822C631.046 68.4619 629.571 66.2819 626.621 66.2819H620.851C617.901 66.2819 616.427 68.4619 616.427 72.822V101.098H629.507ZM648.742 160.92H613.157C601.359 160.92 595.46 153.226 595.46 137.838V70.5138C595.46 55.1253 601.359 47.4312 613.157 47.4312H634.123C645.921 47.4312 651.82 55.1253 651.82 70.5138V108.985C651.82 114.37 648.934 117.063 643.164 117.063H616.427V134.952C616.427 139.056 617.901 141.108 620.851 141.108H648.742V160.92Z"
        fill="#E1AA57" />
      <path
        d="M708.786 138.799C708.786 153.547 702.89 160.92 691.09 160.92H658.196V141.108H682.432C685.895 141.108 687.626 139.12 687.626 135.145V127.066C687.626 123.09 686.408 119.821 683.972 117.256L663.774 95.52C661.979 93.5965 660.632 91.6082 659.735 89.5565C658.837 87.3765 658.388 84.8117 658.388 81.8627V69.5517C658.388 54.8048 664.287 47.4312 676.085 47.4312H705.897V67.2437H684.356C680.765 67.2437 678.97 69.231 678.97 73.2069V78.2076C678.97 82.0551 680.316 85.3248 683.01 88.0179L703.4 109.754C706.993 113.601 708.786 118.09 708.786 123.219V138.799Z"
        fill="#E1AA57" />
      <path
        d="M772.414 152.649C772.414 158.163 769.531 160.92 763.759 160.92H733.752C721.959 160.92 716.055 153.226 716.055 137.838V112.447C716.055 96.9303 721.697 89.1724 732.986 89.1724H751.448V73.3993C751.448 69.2951 749.91 67.2437 746.834 67.2437H719.138V47.4312H754.717C766.517 47.4312 772.414 55.1253 772.414 70.5138V152.649ZM749.717 141.877C750.876 141.877 751.448 141.236 751.448 139.954V105.33H741.062C738.11 105.33 736.641 107.445 736.641 111.677V135.722C736.641 139.825 738.179 141.877 741.255 141.877H749.717Z"
        fill="#E1AA57" />
    </g>
  </g>
  <defs>
    <clipPath id="clip0_604_1460">
      <rect width="772.414" height="200" fill="white" />
    </clipPath>
    <clipPath id="clip1_604_1460">
      <rect width="582.812" height="200" fill="white" transform="translate(189.453)" />
    </clipPath>
  </defs>
</svg>