<svg width="809" height="200" viewBox="0 0 809 200" fill="none" xmlns="http://www.w3.org/2000/svg">
<path d="M70.029 1.14804C62.3755 0.38268 55.2961 0 48.7907 0C40.1168 0 32.6547 0.510239 26.4044 1.53072C20.2816 2.5512 15.2431 4.40083 11.2888 7.07961C7.4621 9.75838 4.59206 13.5214 2.6787 18.3687C0.892901 23.0884 0 29.2751 0 36.9288C0 46.7509 2.1047 54.6597 6.31409 60.655C10.5235 66.6504 17.6667 71.4977 27.7437 75.1969L54.5308 84.3813C57.7197 85.2742 60.2071 86.2947 61.9929 87.4427C63.9062 88.4632 65.2456 89.9302 66.0109 91.8436C66.9038 93.6294 67.3503 96.0531 67.3503 99.1145C67.3503 102.686 66.7763 105.429 65.6282 107.342C64.4802 109.256 62.4393 110.531 59.5055 111.169C56.6992 111.807 52.745 112.126 47.6427 112.126H37.3105C33.3562 111.998 28.5728 111.871 22.9603 111.743C17.4754 111.488 10.9699 111.297 3.44405 111.169L1.53069 131.834C11.8628 134.13 21.047 135.533 29.0831 136.043C37.1192 136.681 43.3057 137 47.6427 137C56.6992 137 64.3527 136.362 70.603 135.087C76.8533 133.939 81.8918 131.961 85.7185 129.155C89.5452 126.349 92.3515 122.458 94.1373 117.483C95.9231 112.508 96.816 106.258 96.816 98.7318C96.816 88.7821 94.7751 80.7458 90.6933 74.6229C86.6114 68.5 79.2769 63.6527 68.6896 60.081L43.2419 51.8533C38.1396 50.1951 34.5043 48.3454 32.3358 46.3045C30.2949 44.2635 29.2744 41.0107 29.2744 36.5461C29.2744 33.6122 29.5933 31.3161 30.2311 29.6578C30.8689 27.9995 31.9531 26.7877 33.4838 26.0223C35.0145 25.1294 36.9916 24.6192 39.4152 24.4916C41.9664 24.2365 45.0277 24.1089 48.5993 24.1089C55.8701 24.1089 63.2684 24.1727 70.7943 24.3003C78.3202 24.4278 84.8894 24.5554 90.5019 24.683L92.4153 5.35754C85.1445 3.18901 77.6824 1.78584 70.029 1.14804Z" fill="#1D1D1B"/>
<path d="M319.135 13.2025C318.88 6.05912 315.308 2.48742 308.42 2.48742H280.485C274.107 2.48742 270.281 5.61265 269.005 11.8631L252.167 78.067L250.254 87.6341C249.744 90.6955 249.17 93.8208 248.532 97.0098H246.045C245.407 93.8208 244.833 90.6955 244.323 87.6341C243.812 84.4451 243.175 81.3198 242.409 78.2584L225.38 11.8631C223.977 5.61265 220.15 2.48742 213.9 2.48742H186.539C179.523 2.48742 175.888 6.05912 175.633 13.2025L170.658 134.513H197.828L201.846 25.0656H205.099L226.337 107.342C227.74 113.465 231.694 116.527 238.2 116.527H256.568C263.074 116.527 266.9 113.465 268.048 107.342L289.287 25.0656H292.731L297.131 134.513H324.11L319.135 13.2025Z" fill="#1D1D1B"/>
<path d="M146.551 134.513V2.48742H117.468V134.513H146.551Z" fill="#1D1D1B"/>
<path fill-rule="evenodd" clip-rule="evenodd" d="M428.013 4.40084C420.997 1.84962 411.303 0.574015 398.93 0.574015C391.021 0.574015 384.26 0.637794 378.648 0.765353C373.163 0.765353 368.061 0.892916 363.341 1.14804C358.621 1.40316 353.583 1.84962 348.226 2.48742V134.513H377.5V85.254C380.085 85.5682 382.764 85.8513 385.536 86.1033C391.149 86.6136 396.889 86.8687 402.756 86.8687C413.854 86.8687 422.655 85.6569 429.161 83.2332C435.666 80.682 440.322 76.2812 443.128 70.0307C446.062 63.7803 447.529 55.0424 447.529 43.817C447.529 32.5917 445.998 23.8538 442.937 17.6034C440.003 11.3529 435.028 6.95205 428.013 4.40084ZM377.5 64.8645H398.356C403.458 64.737 407.412 64.0992 410.218 62.9511C413.152 61.8031 415.193 59.6983 416.341 56.6369C417.617 53.5754 418.254 49.3021 418.254 43.817C418.254 38.2044 417.617 33.8673 416.341 30.8059C415.193 27.7444 413.152 25.6397 410.218 24.4916C407.412 23.216 403.458 22.5782 398.356 22.5782C390.697 22.5782 383.746 22.6054 377.5 22.6597V64.8645Z" fill="#E42313"/>
<path fill-rule="evenodd" clip-rule="evenodd" d="M529.791 4.59218C528.006 3.18901 525.901 2.48742 523.477 2.48742H495.734C493.31 2.48742 491.142 3.18901 489.228 4.59218C487.442 5.99534 486.231 7.84497 485.593 10.1411L447.134 134.513H477.174L486.859 99.6885H532.352L542.037 134.513H571.885L533.618 10.1411C532.98 7.84497 531.705 5.99534 529.791 4.59218ZM526.233 77.6843L515.059 37.5028L513.528 30.9972C513.018 28.7011 512.571 26.5326 512.188 24.4916H507.022C506.64 26.5326 506.193 28.7011 505.683 30.9972C505.3 33.1657 504.79 35.3343 504.152 37.5028L492.978 77.6843H526.233Z" fill="#E42313"/>
<path d="M650.203 1.14804C642.55 0.38268 635.47 0 628.965 0C620.291 0 612.829 0.510239 606.578 1.53072C600.456 2.5512 595.417 4.40083 591.463 7.07961C587.636 9.75838 584.766 13.5214 582.853 18.3687C581.067 23.0884 580.174 29.2751 580.174 36.9288C580.174 46.7509 582.279 54.6597 586.488 60.655C590.698 66.6504 597.841 71.4977 607.918 75.1969L634.705 84.3813C637.894 85.2742 640.381 86.2947 642.167 87.4427C644.08 88.4632 645.42 89.9302 646.185 91.8436C647.078 93.6294 647.524 96.0531 647.524 99.1145C647.524 102.686 646.95 105.429 645.802 107.342C644.654 109.256 642.613 110.531 639.68 111.169C636.873 111.807 632.919 112.126 627.817 112.126H617.485C613.53 111.998 608.747 111.871 603.134 111.743C597.649 111.488 591.144 111.297 583.618 111.169L581.705 131.834C592.037 134.13 601.221 135.533 609.257 136.043C617.293 136.681 623.48 137 627.817 137C636.873 137 644.527 136.362 650.777 135.087C657.027 133.939 662.066 131.961 665.893 129.155C669.719 126.349 672.526 122.458 674.311 117.483C676.097 112.508 676.99 106.258 676.99 98.7318C676.99 88.7821 674.949 80.7458 670.867 74.6229C666.785 68.5 659.451 63.6527 648.864 60.081L623.416 51.8533C618.314 50.1951 614.678 48.3454 612.51 46.3045C610.469 44.2635 609.448 41.0107 609.448 36.5461C609.448 33.6122 609.767 31.3161 610.405 29.6578C611.043 27.9995 612.127 26.7877 613.658 26.0223C615.189 25.1294 617.166 24.6192 619.589 24.4916C622.14 24.2365 625.202 24.1089 628.773 24.1089C636.044 24.1089 643.442 24.1727 650.968 24.3003C658.494 24.4278 665.063 24.5554 670.676 24.683L672.589 5.35754C665.319 3.18901 657.856 1.78584 650.203 1.14804Z" fill="#E42313"/>
<path fill-rule="evenodd" clip-rule="evenodd" d="M766.906 4.59218C765.12 3.18901 763.016 2.48742 760.592 2.48742H732.848C730.425 2.48742 728.256 3.18901 726.343 4.59218C724.557 5.99534 723.345 7.84497 722.707 10.1411L684.249 134.513H714.289L723.973 99.6885H769.467L779.152 134.513H809L770.733 10.1411C770.095 7.84497 768.819 5.99534 766.906 4.59218ZM763.348 77.6843L752.173 37.5028L750.643 30.9972C750.132 28.7011 749.686 26.5326 749.303 24.4916H744.137C743.754 26.5326 743.308 28.7011 742.798 30.9972C742.415 33.1657 741.905 35.3343 741.267 37.5028L730.093 77.6843H763.348Z" fill="#E42313"/>
<path d="M14.3778 158.866C12.8659 158.745 11.3692 158.669 9.88756 158.638C8.19428 158.638 6.72777 158.73 5.48805 158.912C4.24832 159.064 3.22026 159.414 2.40386 159.961C1.61769 160.508 1.01295 161.344 0.589625 162.469C0.196541 163.564 0 165.038 0 166.893C0 169.325 0.453557 171.24 1.36067 172.638C2.29803 174.007 3.88548 174.919 6.12303 175.375L12.7903 176.788C13.8184 176.971 14.6499 177.275 15.2849 177.7C15.9501 178.096 16.4188 178.688 16.6909 179.479C16.9933 180.239 17.1445 181.303 17.1445 182.671C17.1445 184.343 16.9177 185.59 16.4641 186.41C16.0408 187.231 15.3151 187.779 14.2871 188.052C13.259 188.326 11.8681 188.478 10.1143 188.508H7.43835C6.59171 188.478 5.63923 188.447 4.58093 188.417C3.55287 188.356 2.26779 188.295 0.725692 188.235L0.498913 190.423C2.55504 190.758 4.38439 190.971 5.98696 191.062C7.58953 191.153 8.93509 191.199 10.0236 191.199C11.7471 191.199 13.2439 191.092 14.5138 190.879C15.7838 190.667 16.827 190.271 17.6434 189.694C18.49 189.116 19.125 188.28 19.5483 187.186C19.9717 186.061 20.1833 184.571 20.1833 182.717C20.1833 180.193 19.7146 178.248 18.7773 176.879C17.8702 175.511 16.2374 174.584 13.8789 174.098L7.30228 172.73C5.76018 172.426 4.65653 171.878 3.99131 171.088C3.32609 170.267 2.99348 168.884 2.99348 166.938C2.99348 165.57 3.11443 164.506 3.35633 163.746C3.62846 162.986 4.05178 162.439 4.62629 162.104C5.2008 161.77 5.92649 161.557 6.80337 161.466C7.71048 161.375 8.7839 161.329 10.0236 161.329C11.4448 161.329 12.9113 161.359 14.4231 161.42C15.935 161.481 17.3561 161.557 18.6866 161.648L18.9134 159.459C17.4015 159.186 15.8896 158.988 14.3778 158.866Z" fill="#706F6F"/>
<path d="M29.6896 160.189C29.6896 159.55 29.3721 159.231 28.7371 159.231H27.3765C26.7415 159.231 26.424 159.55 26.424 160.189V162.879C26.424 163.518 26.7415 163.837 27.3765 163.837H28.7371C29.3721 163.837 29.6896 163.518 29.6896 162.879V160.189Z" fill="#706F6F"/>
<path d="M47.3004 168.078C46.2723 168.017 45.2896 167.987 44.3523 167.987C42.4171 167.957 40.8296 168.078 39.5899 168.352C38.3502 168.625 37.428 169.203 36.8232 170.085C36.2185 170.936 35.9161 172.243 35.9161 174.007C35.9161 175.223 36.0824 176.241 36.415 177.062C36.7779 177.852 37.3221 178.491 38.0478 178.977C38.7735 179.433 39.6957 179.783 40.8145 180.026L47.5272 181.257C48.5855 181.47 49.4472 181.805 50.1125 182.261C50.8079 182.717 51.1556 183.583 51.1556 184.86C51.1556 185.954 50.944 186.775 50.5207 187.322C50.0973 187.87 49.3868 188.235 48.3889 188.417C47.3911 188.569 46.0304 188.66 44.3069 188.691H41.5856C40.7389 188.66 39.9074 188.63 39.091 188.599C38.2746 188.539 37.4582 188.493 36.6418 188.463L36.415 190.56C38.199 190.834 39.8167 191.001 41.2681 191.062C42.7497 191.123 43.929 191.153 44.8058 191.153C46.8317 191.153 48.525 191.001 49.8857 190.697C51.2464 190.423 52.2593 189.846 52.9245 188.964C53.5897 188.083 53.9223 186.714 53.9223 184.86C53.9223 183.036 53.499 181.683 52.6524 180.801C51.836 179.92 50.5811 179.312 48.8879 178.977L42.1298 177.7C41.0111 177.488 40.1644 177.153 39.5899 176.697C39.0154 176.211 38.7282 175.314 38.7282 174.007C38.7282 172.851 38.9247 172.03 39.3178 171.544C39.7411 171.027 40.3761 170.723 41.2227 170.632C42.0996 170.51 43.2637 170.465 44.7151 170.495C46.0758 170.495 47.4667 170.526 48.8879 170.586C50.309 170.617 51.6999 170.678 53.0606 170.769L53.3327 168.625C52.4256 168.504 51.458 168.397 50.4299 168.306C49.4019 168.215 48.3587 168.139 47.3004 168.078Z" fill="#706F6F"/>
<path d="M65.3013 187.596C64.7873 187.079 64.5303 186.258 64.5303 185.134V170.906H71.9686V168.534H64.5303V161.876H61.6729V168.551L57.6816 168.762V170.906H61.6729V185.498C61.6729 187.292 62.1264 188.66 63.0335 189.603C63.9709 190.545 65.3316 191.016 67.1156 191.016C67.4482 191.016 67.8866 191.001 68.4309 190.971C68.9751 190.94 69.5345 190.879 70.109 190.788C70.7138 190.727 71.2429 190.636 71.6965 190.515L71.3336 188.371H67.7505C66.662 188.371 65.8456 188.113 65.3013 187.596Z" fill="#706F6F"/>
<path fill-rule="evenodd" clip-rule="evenodd" d="M92.5665 169.72C91.1151 168.565 88.8171 167.987 85.6725 167.987C83.3442 167.987 81.4544 168.352 80.003 169.081C78.5516 169.811 77.4782 171.012 76.7827 172.684C76.1175 174.356 75.7849 176.636 75.7849 179.524C75.7849 182.321 76.1326 184.586 76.8281 186.319C77.5235 188.022 78.6121 189.268 80.0937 190.059C81.6055 190.819 83.6012 191.199 86.0807 191.199C86.8971 191.199 87.8193 191.153 88.8473 191.062C89.9057 190.971 90.9186 190.849 91.8862 190.697C92.884 190.545 93.7004 190.347 94.3354 190.104L94.0179 188.143C92.9898 188.295 91.7804 188.432 90.3894 188.554C89.0288 188.645 87.7135 188.691 86.4435 188.691C84.6293 188.691 83.1628 188.432 82.044 187.915C80.9252 187.368 80.1088 186.426 79.5948 185.088C79.2048 184.05 78.9627 182.697 78.8686 181.029H89.7545C91.5989 181.029 92.9143 180.497 93.7004 179.433C94.4866 178.369 94.8646 176.849 94.8343 174.873C94.8041 172.593 94.0481 170.875 92.5665 169.72ZM78.829 178.749H89.1195C90.2383 178.749 90.9942 178.384 91.3873 177.655C91.7804 176.925 91.9618 176.013 91.9315 174.919C91.9013 173.338 91.4024 172.213 90.4348 171.544C89.4672 170.845 87.9251 170.495 85.8085 170.495C84.0548 170.495 82.6638 170.769 81.6358 171.316C80.6077 171.863 79.882 172.79 79.4587 174.098C79.0738 175.259 78.8639 176.809 78.829 178.749Z" fill="#706F6F"/>
<path d="M131.945 169.537C130.947 168.504 129.51 167.987 127.636 167.987C126.094 167.987 124.536 168.367 122.964 169.127C121.51 169.815 120.015 170.828 118.479 172.165C118.255 171.073 117.814 170.197 117.159 169.537C116.161 168.504 114.74 167.987 112.895 167.987C111.323 167.987 109.766 168.367 108.223 169.127C106.744 169.827 105.224 170.862 103.661 172.233L103.461 168.534H101.103V190.651H103.96V174.274C105.095 173.439 106.078 172.757 106.908 172.228C107.846 171.62 108.707 171.179 109.493 170.906C110.31 170.632 111.141 170.495 111.988 170.495C113.288 170.495 114.256 170.83 114.891 171.498C115.556 172.167 115.889 173.277 115.889 174.827V190.651H118.655V174.309C119.781 173.487 120.763 172.809 121.603 172.274C122.511 171.666 123.357 171.225 124.143 170.951C124.96 170.647 125.806 170.495 126.683 170.495C128.044 170.495 129.027 170.845 129.631 171.544C130.236 172.243 130.554 173.338 130.584 174.827V190.651H133.441V174.052C133.441 172.076 132.942 170.571 131.945 169.537Z" fill="#706F6F"/>
<path d="M181.135 174.052C181.135 170.009 179.154 167.987 175.193 167.987C173.53 167.987 171.837 168.367 170.113 169.127C168.469 169.865 166.782 170.904 165.052 172.244L164.852 168.534H162.448V190.651H165.305V174.332C167.156 173.14 168.758 172.211 170.113 171.544C171.534 170.845 172.986 170.495 174.467 170.495C175.798 170.495 176.765 170.83 177.37 171.498C177.975 172.137 178.277 173.246 178.277 174.827V190.651H181.135V174.052Z" fill="#706F6F"/>
<path d="M198.104 158.046C197.379 158.015 196.789 158 196.336 158C194.824 158 193.614 158.258 192.707 158.775C191.83 159.262 191.18 159.976 190.757 160.919C190.364 161.831 190.167 162.986 190.167 164.384V168.546L186.176 168.762V170.906H190.167V190.651H193.025V170.906H200.463V168.534H193.025V164.612C193.025 163.092 193.342 162.013 193.977 161.375C194.642 160.736 195.761 160.417 197.333 160.417H202.05L202.232 158.274C201.688 158.182 201.037 158.122 200.282 158.091C199.556 158.061 198.83 158.046 198.104 158.046Z" fill="#706F6F"/>
<path fill-rule="evenodd" clip-rule="evenodd" d="M219.891 169.127C218.41 168.367 216.444 167.987 213.995 167.987C211.546 167.987 209.58 168.367 208.099 169.127C206.617 169.887 205.544 171.118 204.878 172.821C204.213 174.523 203.881 176.788 203.881 179.616C203.881 182.443 204.213 184.708 204.878 186.41C205.544 188.113 206.617 189.344 208.099 190.104C209.58 190.864 211.546 191.244 213.995 191.244C216.444 191.244 218.41 190.864 219.891 190.104C221.373 189.344 222.431 188.113 223.066 186.41C223.731 184.708 224.064 182.443 224.064 179.616C224.064 176.788 223.731 174.523 223.066 172.821C222.431 171.118 221.373 169.887 219.891 169.127ZM209.777 171.316C210.805 170.769 212.211 170.495 213.995 170.495C215.749 170.495 217.14 170.769 218.168 171.316C219.226 171.863 219.967 172.806 220.39 174.143C220.844 175.451 221.07 177.275 221.07 179.616C221.07 181.926 220.844 183.75 220.39 185.088C219.967 186.426 219.226 187.368 218.168 187.915C217.14 188.463 215.749 188.736 213.995 188.736C212.211 188.736 210.805 188.463 209.777 187.915C208.749 187.368 208.008 186.426 207.554 185.088C207.131 183.75 206.919 181.926 206.919 179.616C206.919 177.275 207.131 175.451 207.554 174.143C208.008 172.806 208.749 171.863 209.777 171.316Z" fill="#706F6F"/>
<path d="M233.159 172.261L232.837 168.534H230.615V190.651H233.472V174.164C235.29 173.088 236.847 172.26 238.144 171.681C239.535 171.042 240.941 170.723 242.362 170.723H243.45L243.813 167.987H242.861C241.288 167.987 239.671 168.382 238.008 169.173C236.406 169.934 234.789 170.964 233.159 172.261Z" fill="#706F6F"/>
<path d="M279.351 169.537C278.353 168.504 276.917 167.987 275.042 167.987C273.5 167.987 271.943 168.367 270.37 169.127C268.916 169.815 267.421 170.828 265.886 172.165C265.661 171.073 265.221 170.197 264.565 169.537C263.567 168.504 262.146 167.987 260.301 167.987C258.729 167.987 257.172 168.367 255.63 169.127C254.151 169.827 252.63 170.862 251.067 172.233L250.867 168.534H248.509V190.651H251.366V174.274C252.501 173.439 253.484 172.757 254.314 172.228C255.252 171.62 256.114 171.179 256.9 170.906C257.716 170.632 258.548 170.495 259.394 170.495C260.694 170.495 261.662 170.83 262.297 171.498C262.962 172.167 263.295 173.277 263.295 174.827V190.651H266.062V174.309C267.187 173.487 268.17 172.809 269.01 172.274C269.917 171.666 270.763 171.225 271.55 170.951C272.366 170.647 273.213 170.495 274.09 170.495C275.45 170.495 276.433 170.845 277.038 171.544C277.642 172.243 277.96 173.338 277.99 174.827V190.651H280.848V174.052C280.848 172.076 280.349 170.571 279.351 169.537Z" fill="#706F6F"/>
<path fill-rule="evenodd" clip-rule="evenodd" d="M302.344 168.671C301.316 168.215 300.046 167.987 298.534 167.987C297.294 167.987 296.055 168.048 294.815 168.169C293.575 168.261 292.381 168.382 291.232 168.534C290.083 168.656 288.994 168.808 287.966 168.99L288.238 171.134C289.901 170.951 291.61 170.799 293.364 170.678C295.117 170.556 296.659 170.495 297.99 170.495C299.804 170.495 301.029 170.86 301.664 171.59C302.329 172.319 302.662 173.383 302.662 174.782V177.153H292.819C290.975 177.153 289.539 177.624 288.511 178.567C287.513 179.479 287.014 180.786 287.014 182.489V185.042C287.014 186.319 287.271 187.414 287.785 188.326C288.329 189.207 289.07 189.876 290.007 190.332C290.945 190.788 292.048 191.016 293.318 191.016C294.467 191.016 295.571 190.849 296.629 190.515C297.718 190.18 298.7 189.755 299.577 189.238C300.484 188.721 301.271 188.189 301.936 187.642C302.319 187.34 302.651 187.053 302.933 186.779L303.297 190.651H305.564V174.782C305.564 173.11 305.292 171.787 304.748 170.814C304.204 169.811 303.402 169.097 302.344 168.671ZM302.662 184.75V179.354L293.273 179.433C292.124 179.464 291.277 179.783 290.733 180.391C290.219 180.969 289.962 181.789 289.962 182.853V184.769C289.962 186.015 290.279 186.942 290.914 187.55C291.549 188.159 292.517 188.463 293.817 188.463C294.785 188.493 295.843 188.326 296.992 187.961C298.171 187.596 299.335 187.064 300.484 186.365C301.274 185.884 302 185.346 302.662 184.75Z" fill="#706F6F"/>
<path d="M323.023 168.078C321.995 168.017 321.012 167.987 320.075 167.987C318.139 167.957 316.552 168.078 315.312 168.352C314.073 168.625 313.15 169.203 312.546 170.085C311.941 170.936 311.638 172.243 311.638 174.007C311.638 175.223 311.805 176.241 312.137 177.062C312.5 177.852 313.044 178.491 313.77 178.977C314.496 179.433 315.418 179.783 316.537 180.026L323.25 181.257C324.308 181.47 325.17 181.805 325.835 182.261C326.53 182.717 326.878 183.583 326.878 184.86C326.878 185.954 326.666 186.775 326.243 187.322C325.82 187.87 325.109 188.235 324.111 188.417C323.113 188.569 321.753 188.66 320.029 188.691H317.308C316.461 188.66 315.63 188.63 314.813 188.599C313.997 188.539 313.181 188.493 312.364 188.463L312.137 190.56C313.921 190.834 315.539 191.001 316.99 191.062C318.472 191.123 319.651 191.153 320.528 191.153C322.554 191.153 324.247 191.001 325.608 190.697C326.969 190.423 327.982 189.846 328.647 188.964C329.312 188.083 329.645 186.714 329.645 184.86C329.645 183.036 329.221 181.683 328.375 180.801C327.558 179.92 326.303 179.312 324.61 178.977L317.852 177.7C316.733 177.488 315.887 177.153 315.312 176.697C314.738 176.211 314.451 175.314 314.451 174.007C314.451 172.851 314.647 172.03 315.04 171.544C315.463 171.027 316.098 170.723 316.945 170.632C317.822 170.51 318.986 170.465 320.437 170.495C321.798 170.495 323.189 170.526 324.61 170.586C326.031 170.617 327.422 170.678 328.783 170.769L329.055 168.625C328.148 168.504 327.18 168.397 326.152 168.306C325.124 168.215 324.081 168.139 323.023 168.078Z" fill="#706F6F"/>
<path d="M339.119 160.189C339.119 159.55 338.801 159.231 338.166 159.231H336.806C336.171 159.231 335.853 159.55 335.853 160.189V162.879C335.853 163.518 336.171 163.837 336.806 163.837H338.166C338.801 163.837 339.119 163.518 339.119 162.879V160.189Z" fill="#706F6F"/>
<path fill-rule="evenodd" clip-rule="evenodd" d="M373.493 159.642C372.072 159.064 370.167 158.775 367.779 158.775C366.146 158.775 364.755 158.79 363.606 158.821C362.457 158.821 361.399 158.851 360.431 158.912C359.463 158.973 358.42 159.064 357.301 159.186V190.651H360.25V177.711C360.617 177.753 361.01 177.795 361.429 177.837C362.366 177.898 363.394 177.959 364.513 178.02C365.632 178.05 366.811 178.065 368.051 178.065C370.379 178.065 372.223 177.792 373.584 177.244C374.975 176.697 375.973 175.724 376.578 174.326C377.182 172.927 377.485 170.966 377.485 168.443C377.485 165.92 377.167 163.974 376.532 162.606C375.928 161.207 374.915 160.219 373.493 159.642ZM360.25 175.466H367.733C369.396 175.435 370.712 175.223 371.679 174.827C372.677 174.432 373.388 173.733 373.811 172.73C374.234 171.696 374.446 170.267 374.446 168.443C374.446 166.558 374.234 165.114 373.811 164.111C373.388 163.107 372.677 162.408 371.679 162.013C370.712 161.618 369.396 161.42 367.733 161.42C365.314 161.42 363.228 161.435 361.474 161.466C361.029 161.466 360.621 161.468 360.25 161.472V175.466Z" fill="#706F6F"/>
<path fill-rule="evenodd" clip-rule="evenodd" d="M397.441 168.671C396.413 168.215 395.143 167.987 393.631 167.987C392.391 167.987 391.151 168.048 389.912 168.169C388.672 168.261 387.477 168.382 386.328 168.534C385.179 168.656 384.091 168.808 383.063 168.99L383.335 171.134C384.998 170.951 386.706 170.799 388.46 170.678C390.214 170.556 391.756 170.495 393.086 170.495C394.901 170.495 396.125 170.86 396.76 171.59C397.425 172.319 397.758 173.383 397.758 174.782V177.153H387.916C386.071 177.153 384.635 177.624 383.607 178.567C382.609 179.479 382.11 180.786 382.11 182.489V185.042C382.11 186.319 382.367 187.414 382.881 188.326C383.426 189.207 384.166 189.876 385.104 190.332C386.041 190.788 387.145 191.016 388.415 191.016C389.564 191.016 390.667 190.849 391.726 190.515C392.814 190.18 393.797 189.755 394.674 189.238C395.581 188.721 396.367 188.189 397.032 187.642C397.415 187.34 397.748 187.053 398.03 186.779L398.393 190.651H400.661V174.782C400.661 173.11 400.389 171.787 399.844 170.814C399.3 169.811 398.499 169.097 397.441 168.671ZM397.758 184.75V179.354L388.369 179.433C387.22 179.464 386.374 179.783 385.83 180.391C385.315 180.969 385.058 181.789 385.058 182.853V184.769C385.058 186.015 385.376 186.942 386.011 187.55C386.646 188.159 387.614 188.463 388.914 188.463C389.881 188.493 390.94 188.326 392.089 187.961C393.268 187.596 394.432 187.064 395.581 186.365C396.371 185.884 397.097 185.346 397.758 184.75Z" fill="#706F6F"/>
<path d="M410.681 194.938C411.014 193.935 411.18 192.871 411.18 191.746V168.534H408.277V191.746C408.277 193.205 408.065 194.467 407.642 195.531C407.249 196.625 406.629 197.705 405.783 198.769L407.37 200C408.126 199.331 408.791 198.571 409.366 197.72C409.94 196.869 410.379 195.941 410.681 194.938Z" fill="#706F6F"/>
<path d="M411.316 160.189C411.316 159.55 411.014 159.231 410.409 159.231H409.093C408.459 159.231 408.141 159.55 408.141 160.189V162.879C408.141 163.518 408.459 163.837 409.093 163.837H410.409C411.014 163.837 411.316 163.518 411.316 162.879V160.189Z" fill="#706F6F"/>
<path fill-rule="evenodd" clip-rule="evenodd" d="M433.008 168.671C431.98 168.215 430.71 167.987 429.198 167.987C427.958 167.987 426.718 168.048 425.479 168.169C424.239 168.261 423.045 168.382 421.896 168.534C420.746 168.656 419.658 168.808 418.63 168.99L418.902 171.134C420.565 170.951 422.273 170.799 424.027 170.678C425.781 170.556 427.323 170.495 428.654 170.495C430.468 170.495 431.692 170.86 432.327 171.59C432.993 172.319 433.325 173.383 433.325 174.782V177.153H423.483C421.638 177.153 420.202 177.624 419.174 178.567C418.176 179.479 417.677 180.786 417.677 182.489V185.042C417.677 186.319 417.934 187.414 418.448 188.326C418.993 189.207 419.734 189.876 420.671 190.332C421.608 190.788 422.712 191.016 423.982 191.016C425.131 191.016 426.235 190.849 427.293 190.515C428.381 190.18 429.364 189.755 430.241 189.238C431.148 188.721 431.934 188.189 432.599 187.642C432.982 187.34 433.315 187.053 433.597 186.779L433.96 190.651H436.228V174.782C436.228 173.11 435.956 171.787 435.412 170.814C434.867 169.811 434.066 169.097 433.008 168.671ZM433.325 184.75V179.354L423.937 179.433C422.787 179.464 421.941 179.783 421.397 180.391C420.883 180.969 420.626 181.789 420.626 182.853V184.769C420.626 186.015 420.943 186.942 421.578 187.55C422.213 188.159 423.181 188.463 424.481 188.463C425.448 188.493 426.507 188.326 427.656 187.961C428.835 187.596 429.999 187.064 431.148 186.365C431.938 185.884 432.664 185.346 433.325 184.75Z" fill="#706F6F"/>
<path d="M453.233 176.834L460.626 168.534H457.179L449.598 177.016H446.34C446.395 176.555 446.44 176.114 446.475 175.694C446.535 174.964 446.565 174.143 446.565 173.231L446.52 158.73H443.663V190.651H446.52V182.899C446.52 182.109 446.49 181.318 446.429 180.528C446.413 180.096 446.383 179.655 446.339 179.205H449.637L457.95 190.651H461.351L453.233 179.752C453.051 179.479 452.825 179.19 452.552 178.886C452.28 178.582 452.054 178.354 451.872 178.202V178.111C452.054 177.989 452.28 177.807 452.552 177.564C452.825 177.29 453.051 177.047 453.233 176.834Z" fill="#706F6F"/>
<path d="M489.152 158.866C487.64 158.745 486.143 158.669 484.662 158.638C482.968 158.638 481.502 158.73 480.262 158.912C479.022 159.064 477.994 159.414 477.178 159.961C476.392 160.508 475.787 161.344 475.364 162.469C474.971 163.564 474.774 165.038 474.774 166.893C474.774 169.325 475.228 171.24 476.135 172.638C477.072 174.007 478.659 174.919 480.897 175.375L487.564 176.788C488.592 176.971 489.424 177.275 490.059 177.7C490.724 178.096 491.193 178.688 491.465 179.479C491.767 180.239 491.918 181.303 491.918 182.671C491.918 184.343 491.692 185.59 491.238 186.41C490.815 187.231 490.089 187.779 489.061 188.052C488.033 188.326 486.642 188.478 484.888 188.508H482.212C481.366 188.478 480.413 188.447 479.355 188.417C478.327 188.356 477.042 188.295 475.5 188.235L475.273 190.423C477.329 190.758 479.158 190.971 480.761 191.062C482.363 191.153 483.709 191.199 484.798 191.199C486.521 191.199 488.018 191.092 489.288 190.879C490.558 190.667 491.601 190.271 492.417 189.694C493.264 189.116 493.899 188.28 494.322 187.186C494.746 186.061 494.957 184.571 494.957 182.717C494.957 180.193 494.489 178.248 493.551 176.879C492.644 175.511 491.011 174.584 488.653 174.098L482.076 172.73C480.534 172.426 479.43 171.878 478.765 171.088C478.1 170.267 477.767 168.884 477.767 166.938C477.767 165.57 477.888 164.506 478.13 163.746C478.402 162.986 478.826 162.439 479.4 162.104C479.975 161.77 480.7 161.557 481.577 161.466C482.484 161.375 483.558 161.329 484.798 161.329C486.219 161.329 487.685 161.359 489.197 161.42C490.709 161.481 492.13 161.557 493.461 161.648L493.687 159.459C492.175 159.186 490.664 158.988 489.152 158.866Z" fill="#706F6F"/>
<path fill-rule="evenodd" clip-rule="evenodd" d="M516.891 169.72C515.44 168.565 513.142 167.987 509.997 167.987C507.669 167.987 505.779 168.352 504.327 169.081C502.876 169.811 501.803 171.012 501.107 172.684C500.442 174.356 500.109 176.636 500.109 179.524C500.109 182.321 500.457 184.586 501.153 186.319C501.848 188.022 502.937 189.268 504.418 190.059C505.93 190.819 507.926 191.199 510.405 191.199C511.222 191.199 512.144 191.153 513.172 191.062C514.23 190.971 515.243 190.849 516.211 190.697C517.209 190.545 518.025 190.347 518.66 190.104L518.342 188.143C517.314 188.295 516.105 188.432 514.714 188.554C513.353 188.645 512.038 188.691 510.768 188.691C508.954 188.691 507.487 188.432 506.368 187.915C505.25 187.368 504.433 186.426 503.919 185.088C503.529 184.05 503.287 182.697 503.193 181.029H514.079C515.923 181.029 517.239 180.497 518.025 179.433C518.811 178.369 519.189 176.849 519.159 174.873C519.129 172.593 518.373 170.875 516.891 169.72ZM503.153 178.749H513.444C514.563 178.749 515.319 178.384 515.712 177.655C516.105 176.925 516.286 176.013 516.256 174.919C516.226 173.338 515.727 172.213 514.759 171.544C513.792 170.845 512.25 170.495 510.133 170.495C508.379 170.495 506.988 170.769 505.96 171.316C504.932 171.863 504.207 172.79 503.783 174.098C503.398 175.259 503.188 176.809 503.153 178.749Z" fill="#706F6F"/>
<path d="M528.285 185.134L528.33 158.73H525.473V185.726C525.473 187.429 525.926 188.736 526.833 189.648C527.771 190.56 529.01 191.016 530.552 191.016C530.885 191.016 531.293 191.001 531.777 190.971C532.261 190.94 532.714 190.879 533.138 190.788C533.591 190.727 533.939 190.636 534.181 190.515L533.863 188.371H531.55C530.522 188.371 529.721 188.098 529.146 187.55C528.572 187.003 528.285 186.198 528.285 185.134Z" fill="#706F6F"/>
<path d="M547.796 158.046C547.07 158.015 546.48 158 546.027 158C544.515 158 543.305 158.258 542.398 158.775C541.521 159.262 540.871 159.976 540.448 160.919C540.055 161.831 539.858 162.986 539.858 164.384V168.546L535.867 168.762V170.906H539.858V190.651H542.716V170.906H550.154V168.534H542.716V164.612C542.716 163.092 543.033 162.013 543.668 161.375C544.334 160.736 545.452 160.417 547.025 160.417H551.742L551.923 158.274C551.379 158.182 550.729 158.122 549.973 158.091C549.247 158.061 548.521 158.046 547.796 158.046Z" fill="#706F6F"/>
<path fill-rule="evenodd" clip-rule="evenodd" d="M575.95 159.414C575.738 159.262 575.496 159.186 575.224 159.186H571.822C571.55 159.186 571.308 159.262 571.096 159.414C570.885 159.566 570.734 159.779 570.643 160.052L560.166 190.651H563.25L566.712 180.208H580.334L583.796 190.651H586.88L576.403 160.052C576.343 159.779 576.191 159.566 575.95 159.414ZM579.472 177.609L574.997 164.111C574.876 163.685 574.74 163.26 574.589 162.834C574.438 162.378 574.302 161.952 574.181 161.557H572.865C572.744 161.952 572.608 162.378 572.457 162.834C572.336 163.26 572.2 163.685 572.049 164.111L567.574 177.609H579.472Z" fill="#706F6F"/>
<path d="M601.314 168.078C600.286 168.017 599.303 167.987 598.366 167.987C596.431 167.957 594.843 168.078 593.604 168.352C592.364 168.625 591.442 169.203 590.837 170.085C590.232 170.936 589.93 172.243 589.93 174.007C589.93 175.223 590.096 176.241 590.429 177.062C590.792 177.852 591.336 178.491 592.061 178.977C592.787 179.433 593.709 179.783 594.828 180.026L601.541 181.257C602.599 181.47 603.461 181.805 604.126 182.261C604.822 182.717 605.169 183.583 605.169 184.86C605.169 185.954 604.958 186.775 604.534 187.322C604.111 187.87 603.4 188.235 602.403 188.417C601.405 188.569 600.044 188.66 598.321 188.691H595.599C594.753 188.66 593.921 188.63 593.105 188.599C592.288 188.539 591.472 188.493 590.655 188.463L590.429 190.56C592.213 190.834 593.83 191.001 595.282 191.062C596.763 191.123 597.943 191.153 598.82 191.153C600.845 191.153 602.539 191.001 603.899 190.697C605.26 190.423 606.273 189.846 606.938 188.964C607.603 188.083 607.936 186.714 607.936 184.86C607.936 183.036 607.513 181.683 606.666 180.801C605.85 179.92 604.595 179.312 602.902 178.977L596.144 177.7C595.025 177.488 594.178 177.153 593.604 176.697C593.029 176.211 592.742 175.314 592.742 174.007C592.742 172.851 592.938 172.03 593.331 171.544C593.755 171.027 594.39 170.723 595.236 170.632C596.113 170.51 597.277 170.465 598.729 170.495C600.089 170.495 601.48 170.526 602.902 170.586C604.323 170.617 605.714 170.678 607.074 170.769L607.346 168.625C606.439 168.504 605.472 168.397 604.444 168.306C603.416 168.215 602.372 168.139 601.314 168.078Z" fill="#706F6F"/>
<path d="M624.213 168.078C623.185 168.017 622.203 167.987 621.265 167.987C619.33 167.957 617.743 168.078 616.503 168.352C615.263 168.625 614.341 169.203 613.736 170.085C613.131 170.936 612.829 172.243 612.829 174.007C612.829 175.223 612.995 176.241 613.328 177.062C613.691 177.852 614.235 178.491 614.961 178.977C615.687 179.433 616.609 179.783 617.728 180.026L624.44 181.257C625.499 181.47 626.36 181.805 627.025 182.261C627.721 182.717 628.069 183.583 628.069 184.86C628.069 185.954 627.857 186.775 627.434 187.322C627.01 187.87 626.3 188.235 625.302 188.417C624.304 188.569 622.943 188.66 621.22 188.691H618.499C617.652 188.66 616.82 188.63 616.004 188.599C615.188 188.539 614.371 188.493 613.555 188.463L613.328 190.56C615.112 190.834 616.73 191.001 618.181 191.062C619.663 191.123 620.842 191.153 621.719 191.153C623.745 191.153 625.438 191.001 626.799 190.697C628.159 190.423 629.172 189.846 629.838 188.964C630.503 188.083 630.835 186.714 630.835 184.86C630.835 183.036 630.412 181.683 629.565 180.801C628.749 179.92 627.494 179.312 625.801 178.977L619.043 177.7C617.924 177.488 617.077 177.153 616.503 176.697C615.928 176.211 615.641 175.314 615.641 174.007C615.641 172.851 615.838 172.03 616.231 171.544C616.654 171.027 617.289 170.723 618.136 170.632C619.013 170.51 620.177 170.465 621.628 170.495C622.989 170.495 624.38 170.526 625.801 170.586C627.222 170.617 628.613 170.678 629.974 170.769L630.246 168.625C629.339 168.504 628.371 168.397 627.343 168.306C626.315 168.215 625.272 168.139 624.213 168.078Z" fill="#706F6F"/>
<path fill-rule="evenodd" clip-rule="evenodd" d="M652.737 169.72C651.286 168.565 648.988 167.987 645.843 167.987C643.515 167.987 641.625 168.352 640.173 169.081C638.722 169.811 637.649 171.012 636.953 172.684C636.288 174.356 635.955 176.636 635.955 179.524C635.955 182.321 636.303 184.586 636.998 186.319C637.694 188.022 638.782 189.268 640.264 190.059C641.776 190.819 643.772 191.199 646.251 191.199C647.067 191.199 647.99 191.153 649.018 191.062C650.076 190.971 651.089 190.849 652.057 190.697C653.054 190.545 653.871 190.347 654.506 190.104L654.188 188.143C653.16 188.295 651.951 188.432 650.56 188.554C649.199 188.645 647.884 188.691 646.614 188.691C644.8 188.691 643.333 188.432 642.214 187.915C641.096 187.368 640.279 186.426 639.765 185.088C639.375 184.05 639.133 182.697 639.039 181.029H649.925C651.769 181.029 653.085 180.497 653.871 179.433C654.657 178.369 655.035 176.849 655.005 174.873C654.974 172.593 654.219 170.875 652.737 169.72ZM638.999 178.749H649.29C650.409 178.749 651.165 178.384 651.558 177.655C651.951 176.925 652.132 176.013 652.102 174.919C652.072 173.338 651.573 172.213 650.605 171.544C649.638 170.845 648.095 170.495 645.979 170.495C644.225 170.495 642.834 170.769 641.806 171.316C640.778 171.863 640.052 172.79 639.629 174.098C639.244 175.259 639.034 176.809 638.999 178.749Z" fill="#706F6F"/>
<path d="M671.297 168.078C670.269 168.017 669.286 167.987 668.348 167.987C666.413 167.957 664.826 168.078 663.586 168.352C662.346 168.625 661.424 169.203 660.819 170.085C660.215 170.936 659.912 172.243 659.912 174.007C659.912 175.223 660.079 176.241 660.411 177.062C660.774 177.852 661.318 178.491 662.044 178.977C662.77 179.433 663.692 179.783 664.811 180.026L671.523 181.257C672.582 181.47 673.443 181.805 674.109 182.261C674.804 182.717 675.152 183.583 675.152 184.86C675.152 185.954 674.94 186.775 674.517 187.322C674.094 187.87 673.383 188.235 672.385 188.417C671.387 188.569 670.027 188.66 668.303 188.691H665.582C664.735 188.66 663.904 188.63 663.087 188.599C662.271 188.539 661.454 188.493 660.638 188.463L660.411 190.56C662.195 190.834 663.813 191.001 665.264 191.062C666.746 191.123 667.925 191.153 668.802 191.153C670.828 191.153 672.521 191.001 673.882 190.697C675.243 190.423 676.256 189.846 676.921 188.964C677.586 188.083 677.919 186.714 677.919 184.86C677.919 183.036 677.495 181.683 676.649 180.801C675.832 179.92 674.577 179.312 672.884 178.977L666.126 177.7C665.007 177.488 664.161 177.153 663.586 176.697C663.012 176.211 662.724 175.314 662.724 174.007C662.724 172.851 662.921 172.03 663.314 171.544C663.737 171.027 664.372 170.723 665.219 170.632C666.096 170.51 667.26 170.465 668.711 170.495C670.072 170.495 671.463 170.526 672.884 170.586C674.305 170.617 675.696 170.678 677.057 170.769L677.329 168.625C676.422 168.504 675.454 168.397 674.426 168.306C673.398 168.215 672.355 168.139 671.297 168.078Z" fill="#706F6F"/>
<path d="M694.196 168.078C693.168 168.017 692.185 167.987 691.248 167.987C689.313 167.957 687.725 168.078 686.485 168.352C685.246 168.625 684.324 169.203 683.719 170.085C683.114 170.936 682.812 172.243 682.812 174.007C682.812 175.223 682.978 176.241 683.311 177.062C683.673 177.852 684.218 178.491 684.943 178.977C685.669 179.433 686.591 179.783 687.71 180.026L694.423 181.257C695.481 181.47 696.343 181.805 697.008 182.261C697.704 182.717 698.051 183.583 698.051 184.86C698.051 185.954 697.84 186.775 697.416 187.322C696.993 187.87 696.282 188.235 695.284 188.417C694.287 188.569 692.926 188.66 691.203 188.691H688.481C687.635 188.66 686.803 188.63 685.987 188.599C685.17 188.539 684.354 188.493 683.537 188.463L683.311 190.56C685.095 190.834 686.712 191.001 688.164 191.062C689.645 191.123 690.824 191.153 691.701 191.153C693.727 191.153 695.421 191.001 696.781 190.697C698.142 190.423 699.155 189.846 699.82 188.964C700.485 188.083 700.818 186.714 700.818 184.86C700.818 183.036 700.395 181.683 699.548 180.801C698.732 179.92 697.477 179.312 695.783 178.977L689.025 177.7C687.907 177.488 687.06 177.153 686.485 176.697C685.911 176.211 685.624 175.314 685.624 174.007C685.624 172.851 685.82 172.03 686.213 171.544C686.637 171.027 687.272 170.723 688.118 170.632C688.995 170.51 690.159 170.465 691.611 170.495C692.971 170.495 694.362 170.526 695.783 170.586C697.205 170.617 698.595 170.678 699.956 170.769L700.228 168.625C699.321 168.504 698.354 168.397 697.325 168.306C696.297 168.215 695.254 168.139 694.196 168.078Z" fill="#706F6F"/>
<path d="M737.914 169.537C736.916 168.504 735.48 167.987 733.605 167.987C732.063 167.987 730.506 168.367 728.933 169.127C727.479 169.815 725.984 170.828 724.448 172.165C724.224 171.073 723.783 170.197 723.128 169.537C722.13 168.504 720.709 167.987 718.864 167.987C717.292 167.987 715.735 168.367 714.193 169.127C712.713 169.827 711.193 170.862 709.63 172.233L709.43 168.534H707.072V190.651H709.929V174.274C711.064 173.439 712.047 172.757 712.877 172.228C713.815 171.62 714.676 171.179 715.463 170.906C716.279 170.632 717.11 170.495 717.957 170.495C719.257 170.495 720.225 170.83 720.86 171.498C721.525 172.167 721.858 173.277 721.858 174.827V190.651H724.624V174.309C725.75 173.487 726.732 172.809 727.573 172.274C728.48 171.666 729.326 171.225 730.112 170.951C730.929 170.647 731.775 170.495 732.652 170.495C734.013 170.495 734.996 170.845 735.6 171.544C736.205 172.243 736.523 173.338 736.553 174.827V190.651H739.41V174.052C739.41 172.076 738.911 170.571 737.914 169.537Z" fill="#706F6F"/>
<path fill-rule="evenodd" clip-rule="evenodd" d="M762.494 169.72C761.043 168.565 758.745 167.987 755.6 167.987C753.272 167.987 751.382 168.352 749.931 169.081C748.479 169.811 747.406 171.012 746.711 172.684C746.045 174.356 745.713 176.636 745.713 179.524C745.713 182.321 746.06 184.586 746.756 186.319C747.451 188.022 748.54 189.268 750.021 190.059C751.533 190.819 753.529 191.199 756.008 191.199C756.825 191.199 757.747 191.153 758.775 191.062C759.833 190.971 760.846 190.849 761.814 190.697C762.812 190.545 763.628 190.347 764.263 190.104L763.946 188.143C762.918 188.295 761.708 188.432 760.317 188.554C758.957 188.645 757.641 188.691 756.371 188.691C754.557 188.691 753.091 188.432 751.972 187.915C750.853 187.368 750.037 186.426 749.523 185.088C749.133 184.05 748.891 182.697 748.796 181.029H759.682C761.527 181.029 762.842 180.497 763.628 179.433C764.414 178.369 764.792 176.849 764.762 174.873C764.732 172.593 763.976 170.875 762.494 169.72ZM748.757 178.749H759.047C760.166 178.749 760.922 178.384 761.315 177.655C761.708 176.925 761.89 176.013 761.859 174.919C761.829 173.338 761.33 172.213 760.363 171.544C759.395 170.845 757.853 170.495 755.736 170.495C753.983 170.495 752.592 170.769 751.564 171.316C750.536 171.863 749.81 172.79 749.386 174.098C749.002 175.259 748.792 176.809 748.757 178.749Z" fill="#706F6F"/>
<path d="M789.717 174.052C789.717 170.009 787.736 167.987 783.775 167.987C782.112 167.987 780.419 168.367 778.696 169.127C777.051 169.865 775.365 170.904 773.635 172.244L773.434 168.534H771.03V190.651H773.888V174.332C775.738 173.14 777.34 172.211 778.696 171.544C780.117 170.845 781.568 170.495 783.05 170.495C784.38 170.495 785.348 170.83 785.952 171.498C786.557 172.137 786.86 173.246 786.86 174.827V190.651H789.717V174.052Z" fill="#706F6F"/>
<path d="M802.333 187.596C801.819 187.079 801.562 186.258 801.562 185.134V170.906H809V168.534H801.562V161.876H798.704V168.551L794.713 168.762V170.906H798.704V185.498C798.704 187.292 799.158 188.66 800.065 189.603C801.002 190.545 802.363 191.016 804.147 191.016C804.479 191.016 804.918 191.001 805.462 190.971C806.006 190.94 806.566 190.879 807.14 190.788C807.745 190.727 808.274 190.636 808.728 190.515L808.365 188.371H804.782C803.693 188.371 802.877 188.113 802.333 187.596Z" fill="#706F6F"/>
<path d="M29.4628 190.651V168.534H26.6508V190.651H29.4628Z" fill="#706F6F"/>
<path d="M154.421 190.651V159.186H151.473V190.651H154.421Z" fill="#706F6F"/>
<path d="M338.892 190.651V168.534H336.08V190.651H338.892Z" fill="#706F6F"/>
</svg>
