<svg width="900" height="200" viewBox="0 0 900 200" fill="none" xmlns="http://www.w3.org/2000/svg">
<path d="M120.25 20.8333C109.5 21 101.5 25.5833 101.5 25.5833L64.4166 47.0417C64.4166 47.0417 45.8333 57.75 45.8333 79.1667V122.042C45.8333 122.042 45.8333 143.458 64.375 154.167L101.5 175.583C101.5 175.583 120.083 186.292 138.625 175.583L175.75 154.167C194.333 143.458 194.333 122.042 194.333 122.042V79.1667C194.333 57.75 175.75 47.0417 175.75 47.0417L138.667 25.5833C133.064 22.3411 126.68 20.6981 120.208 20.8333H120.25ZM120 50C125.375 50.0833 129.375 52.375 129.375 52.375L157.208 68.4583C157.208 68.4583 166.5 73.7917 166.5 84.5417V116.667C166.5 127.375 157.208 132.75 157.208 132.75L129.375 148.792C120.083 154.167 110.792 148.792 110.792 148.792L82.9583 132.75C82.9583 132.75 73.6666 127.375 73.6666 116.667V84.5417C73.7778 81.3045 74.6834 78.1443 76.3038 75.3395C77.9241 72.5348 80.2094 70.1717 82.9583 68.4583L110.792 52.375C113.574 50.7639 116.744 49.9428 119.958 50H120Z" fill="#98A4AE"/>
<path d="M92.25 84.5417L120.083 100.583L147.917 84.5417V116.667L120.083 132.75L92.25 116.667V84.5417Z" fill="#98A4AE"/>
<path d="M550.958 49.8333L534.583 53.5416V69.375H521.833V83.125H534.583V114C534.583 120.042 536.333 124.667 539.833 127.833C543.417 130.958 548.667 132.5 555.583 132.5C557.333 132.5 559.458 132.292 561.917 131.917C564.417 131.583 566.5 131.167 568.25 130.583V117.25C566.667 117.792 565.167 118.167 563.833 118.417C562.458 118.583 561.042 118.667 559.542 118.667C556.375 118.667 554.125 118.083 552.875 116.875C551.583 115.667 550.958 113.625 550.958 110.667V83.125H568.583V69.375H550.958V49.8333ZM509.542 67.9583C506.125 67.9583 503 68.7083 500.125 70.125C497.333 71.4583 494.958 73.5 492.958 76.2083V69.4166H476.625V131.542H492.958V91.3333C494.322 88.5139 496.461 86.1421 499.126 84.4962C501.79 82.8504 504.869 81.9989 508 82.0416C509.5 82.0416 511 82.2083 512.417 82.5416C513.833 82.75 515.167 83.1666 516.333 83.7083V69.4166C515.542 68.9166 514.583 68.5833 513.5 68.4583C512.458 68.2083 511.125 68.0416 509.542 67.9583ZM334.917 68.2083C328.972 68.1165 323.196 70.1898 318.667 74.0416V69.4166H302.333V131.542H318.667V87.9166C320.125 86.125 321.792 84.7083 323.667 83.75C325.583 82.7916 327.792 82.3333 330.25 82.3333C333.833 82.3333 336.667 83.5 338.708 85.9166C340.875 88.2916 341.958 91.4166 341.958 95.3333V131.583H358.292V92.9166C358.292 92.0833 358.25 91.3333 358.167 90.625L357.917 88.5C359.255 86.5778 361.037 85.0063 363.111 83.9184C365.185 82.8305 367.491 82.2582 369.833 82.25C373.417 82.25 376.25 83.5 378.333 85.875C380.458 88.25 381.542 91.375 381.542 95.2916V131.542H397.875V92.9166C397.875 85.6666 395.667 79.75 391.208 75.125C389.004 72.8399 386.344 71.0435 383.401 69.8519C380.458 68.6604 377.298 68.1005 374.125 68.2083C369.958 68.2083 366.083 69.0416 362.583 70.5833C359.083 72.2083 356.083 74.5 353.625 77.5C351.471 74.5637 348.644 72.1872 345.382 70.5704C342.119 68.9535 338.516 68.1435 334.875 68.2083H334.917ZM437.75 68.2083C433.292 68.2083 428.75 68.75 424.125 69.875C419.583 71 414.917 72.6666 410.042 74.875L416.042 86.9583C419.917 85.2083 423.375 83.9166 426.417 83.125C429.203 82.2904 432.091 81.8418 435 81.7916C439.292 81.7916 442.542 82.7083 444.75 84.5416C447 86.375 448.083 89.0833 448.083 92.6666V97.0833C443.196 95.5074 438.093 94.706 432.958 94.7083C425.042 94.7083 418.792 96.375 414.208 99.7083C412.02 101.272 410.254 103.354 409.068 105.769C407.883 108.183 407.315 110.854 407.417 113.542C407.417 119.167 409.542 123.792 413.75 127.375C418.394 131.016 424.187 132.878 430.083 132.625C433.667 132.625 436.917 132.208 439.75 131.292C442.667 130.458 445.5 129.083 448.083 127.25V131.542H464.208V91.25C464.208 83.9166 461.875 78.2916 457.167 74.2916C452.583 70.25 446.083 68.2083 437.75 68.2083ZM605.25 68.3333C601.009 68.265 596.8 69.0653 592.88 70.6847C588.961 72.3041 585.414 74.7086 582.458 77.75C579.489 80.7469 577.149 84.3068 575.575 88.2207C574.001 92.1346 573.224 96.3236 573.292 100.542C573.292 105.083 574.125 109.292 575.792 113.292C577.5 117.208 579.833 120.583 582.792 123.417C589.237 129.508 597.799 132.855 606.667 132.75C611.583 132.75 616.042 132.042 620 130.583C624.306 129.018 628.309 126.72 631.833 123.792L621.083 114C619.417 115.583 617.375 116.833 615 117.708C612.625 118.583 610.083 119.042 607.375 119.042C603.331 119.133 599.371 117.872 596.125 115.458C592.991 113.128 590.731 109.811 589.708 106.042H636V101.667C636.059 92.9111 632.918 84.4355 627.167 77.8333C624.425 74.8653 621.089 72.5085 617.375 70.9166C613.564 69.1507 609.408 68.254 605.208 68.2916L605.25 68.3333ZM739.083 68.3333C734.842 68.2601 730.631 69.0581 726.711 70.6778C722.79 72.2975 719.244 74.7046 716.292 77.75C713.323 80.7469 710.982 84.3068 709.408 88.2207C707.834 92.1346 707.058 96.3236 707.125 100.542C707.125 105.083 707.958 109.292 709.625 113.292C711.375 117.208 713.708 120.583 716.667 123.417C723.102 129.498 731.646 132.845 740.5 132.75C745.458 132.75 749.875 132.042 753.833 130.583C758.14 129.018 762.143 126.721 765.667 123.792L754.958 114C753.292 115.583 751.208 116.833 748.833 117.708C746.458 118.583 743.917 119.042 741.208 119.042C737.178 119.124 733.235 117.863 730 115.458C726.868 113.125 724.609 109.81 723.583 106.042H769.833V101.667C769.896 92.9178 766.771 84.4455 761.042 77.8333C758.3 74.8653 754.964 72.5085 751.25 70.9166C747.439 69.1507 743.283 68.254 739.083 68.2916V68.3333ZM266.167 68.4583C258.292 68.4583 252 70.25 247.333 73.8333C245.087 75.4641 243.271 77.6178 242.044 80.108C240.817 82.5982 240.216 85.3499 240.292 88.125C240.292 93.125 241.875 97.1666 245.083 100.208C248.333 103.208 253 105.208 259.167 106.125L271.083 107.917C273.792 108.333 275.75 109 276.917 109.958C278.167 110.917 278.833 112.167 278.833 113.792C278.833 115.75 277.708 117.333 275.5 118.542C273.333 119.75 270.458 120.333 266.75 120.333C263.542 120.333 260.25 119.792 257 118.667C253.75 117.458 250.292 115.667 246.583 113.292L238.5 124.125C242.277 127.057 246.575 129.249 251.167 130.583C256.083 132.042 261.375 132.75 267 132.75C270.917 132.75 274.5 132.208 277.875 131.167C281.208 130.167 284.083 128.708 286.458 126.875C288.763 125.154 290.679 122.968 292.083 120.458C293.5 117.917 294.208 115.167 294.208 112.208C294.269 109.999 293.853 107.803 292.991 105.769C292.128 103.734 290.838 101.909 289.208 100.417C285.29 97.025 280.41 94.9419 275.25 94.4583L263.333 92.6666C261.029 92.4934 258.787 91.8405 256.75 90.75C255.5 89.7916 254.833 88.5 254.833 86.8333C254.833 85 255.708 83.5 257.458 82.4166C259.292 81.2916 261.708 80.75 264.625 80.75C267.833 80.75 270.958 81.25 274.042 82.2916C277.167 83.25 280.417 84.7083 283.833 86.7083L291.75 76.2083C284.162 71.1811 275.268 68.4868 266.167 68.4583ZM637.208 69.4166L661.375 132.125L660.458 134.417C659.464 136.934 657.773 139.117 655.583 140.708C653.583 142.167 651.125 142.875 648.167 142.875C646.255 142.872 644.346 142.719 642.458 142.417V156.458C644.858 156.943 647.302 157.181 649.75 157.167C656.5 157.167 661.958 155.583 666.167 152.417C670.417 149.25 674.083 143.917 677.292 136.417L705.917 69.4166H688.25L670.583 111.75L655.208 69.4166H637.208ZM800.542 73.4166C798.875 73.4166 797.458 74 796.25 75.2083C795 76.4166 794.417 77.8333 794.417 79.5416C794.417 81.2083 795.042 82.625 796.25 83.8333C797.458 85.0416 798.875 85.625 800.542 85.625C802.208 85.625 803.667 85.0416 804.875 83.8333C806.083 82.625 806.667 81.2083 806.667 79.5416C806.667 77.875 806.083 76.4166 804.875 75.2083C804.314 74.6281 803.64 74.1697 802.895 73.8614C802.149 73.5532 801.348 73.4018 800.542 73.4166ZM855.5 74.125L844.75 76.4583V93.1666C843.104 92.1166 841.305 91.3293 839.417 90.8333C835.798 89.7679 831.961 89.6849 828.3 90.5929C824.638 91.5009 821.285 93.3672 818.583 96C816.637 97.9636 815.098 100.292 814.054 102.852C813.01 105.412 812.482 108.152 812.5 110.917C812.489 116.465 814.673 121.792 818.577 125.734C822.48 129.677 827.785 131.914 833.333 131.958C837.552 132.083 841.675 130.694 844.958 128.042V131.375H855.5V74.1666V74.125ZM604.875 81.7916C608.458 81.7916 611.583 83 614.292 85.375C617.077 87.6975 619.071 90.8279 620 94.3333H589.583C590.625 90.5 592.5 87.5 595.208 85.25C597.897 82.95 601.338 81.7192 604.875 81.7916ZM738.708 81.7916C742.292 81.7916 745.458 83 748.125 85.375C750.925 87.6916 752.935 90.8226 753.875 94.3333H723.458C724.5 90.5 726.375 87.5 729.042 85.25C731.73 82.95 735.171 81.7192 738.708 81.7916ZM795.208 90.5416V131.375H805.958V90.5416H795.208ZM835 99.0416C836.958 99.0416 838.75 99.4166 840.417 100.083C842.167 100.75 843.583 101.708 844.75 102.917V118.833C843.5 120.083 842.083 121.042 840.417 121.75C838.792 122.417 837 122.75 835 122.75C831.667 122.75 828.833 121.625 826.542 119.292C825.424 118.206 824.541 116.902 823.946 115.462C823.351 114.022 823.058 112.475 823.083 110.917C823.055 109.348 823.344 107.789 823.934 106.335C824.524 104.881 825.402 103.561 826.515 102.456C827.629 101.35 828.954 100.481 830.413 99.9016C831.871 99.322 833.431 99.0437 835 99.0833V99.0416ZM435 105.417C439.477 105.386 443.923 106.163 448.125 107.708V117C444.038 119.655 439.247 121.02 434.375 120.917C430.958 120.917 428.25 120.25 426.167 118.917C425.195 118.308 424.397 117.459 423.85 116.451C423.303 115.444 423.024 114.313 423.042 113.167C423.042 110.792 424.083 108.917 426.167 107.583C428.834 106.008 431.907 105.254 435 105.417ZM781.5 119.375C779.75 119.375 778.25 120 777 121.25C775.75 122.5 775.125 124.042 775.125 125.833C775.125 127.542 775.75 129.042 777 130.292C778.25 131.542 779.75 132.167 781.5 132.167C783.25 132.167 784.792 131.542 786.042 130.292C787.292 129.042 787.917 127.542 787.917 125.833C787.917 124.042 787.292 122.5 786.042 121.25C785.446 120.642 784.732 120.162 783.944 119.839C783.155 119.517 782.31 119.359 781.458 119.375H781.5Z" fill="#3B4559"/>
</svg>
