<svg width="504" height="200" viewBox="0 0 504 200" fill="none" xmlns="http://www.w3.org/2000/svg">
<path d="M239.324 160.622V83.9473L237.814 71.8726H259.552L310.877 125.605L316.764 133.755H318.425V71.8726H338.351V160.622H319.179L266.647 105.984L260.759 98.8897H259.25V160.622H239.324Z" fill="#9C0E0E"/>
<path d="M362.53 160.622V71.8726H382.456V160.622H362.53Z" fill="#9C0E0E"/>
<path d="M408.117 160.622V83.9473L406.608 71.7217H473.481C479.922 71.7217 484.954 72.577 488.577 74.2876C492.301 75.9981 495.018 78.2621 496.729 81.0796C498.54 83.7964 499.697 86.7144 500.201 89.8337C500.704 92.953 500.955 95.9214 500.955 98.7388V107.644C500.955 109.958 500.603 112.574 499.899 115.492C499.194 118.31 497.886 121.077 495.974 123.794C494.062 126.41 491.294 128.624 487.671 130.435C484.048 132.145 479.318 133.001 473.481 133.001H458.084C451.744 133.001 445.806 132.85 440.271 132.548C434.837 132.246 430.761 131.995 428.044 131.793V160.622H408.117ZM428.044 118.511H469.104C473.632 118.511 476.752 117.404 478.463 115.191C480.174 112.977 481.029 110.31 481.029 107.191V97.6823C481.029 94.4624 480.174 91.7455 478.463 89.5319C476.752 87.3182 473.683 86.2113 469.255 86.2113H428.044V118.511Z" fill="#9C0E0E"/>
<path d="M121.198 3.16108C115.813 1.79431 110.308 0.950126 104.761 0.640249C104.161 0.640249 103.653 0.636743 103.208 0.633672C102.307 0.627454 101.665 0.623021 101.042 0.653076C100.897 0.660079 100.743 0.660996 100.584 0.661937C99.7253 0.667029 98.7534 0.672791 98.6127 1.6473C98.4622 2.68996 99.5612 2.96366 100.418 3.17698L100.419 3.17726C100.51 3.20006 100.599 3.22218 100.683 3.24447C107.248 4.98154 114.01 5.8612 120.801 5.86153C120.875 5.86153 120.952 5.86222 121.031 5.86293C122.003 5.87163 123.276 5.88302 123.365 4.64922C123.437 3.71054 122.428 3.46444 121.577 3.25706C121.446 3.22495 121.318 3.19377 121.198 3.16108Z" fill="#999999"/>
<path d="M76.2579 20.1013C72.9948 20.0564 70.3471 19.755 67.8918 18.626C64.2696 16.9519 63.7183 13.9564 66.7378 11.3458C71.1485 7.49715 76.572 5.95129 82.22 5.10459C85.3734 4.56577 88.6021 4.65513 91.7209 5.36758L91.7608 5.37759C94.0011 5.93947 96.5187 6.57091 96.9457 9.37655C97.3432 12 95.3238 13.4304 93.4646 14.662C88.3239 17.9937 82.3786 19.8731 76.2579 20.1013Z" fill="#999999"/>
<path d="M46.6078 72.5515C46.6078 77.4585 44.4601 81.4225 40.838 84.5143C35.3247 89.2609 28.5164 86.7016 27.1637 79.5111C26.0738 73.7381 29.5293 66.5477 34.6964 63.7831C40.6457 60.6144 46.5501 65.0018 46.6078 72.5515Z" fill="#999999"/>
<path d="M86.9452 26.7721C84.9258 25.5085 82.682 24.944 79.5279 24.944C77.3588 25.0414 75.2349 25.5969 73.2958 26.5742C71.3566 27.5515 69.6462 28.9284 68.2769 30.6143C64.7445 34.7901 65.8472 39.7676 70.713 42.2692C76.861 45.4379 86.3042 42.3846 89.5096 36.1884C90.4002 34.5956 90.6305 32.7167 90.151 30.9558C89.6714 29.1949 88.5203 27.6926 86.9452 26.7721Z" fill="#999999"/>
<path d="M29.4844 155.56C29.3947 157.279 29.3049 158.966 27.7214 159.876C26.0418 160.851 24.3173 160.281 22.9582 159.158C15.9447 153.385 11.3674 146.169 10.1365 137.086C9.89289 135.309 10.1942 133.327 12.0598 132.314C13.9253 131.301 15.4639 132.359 16.7397 133.449C23.5672 139.306 27.9522 146.631 29.4844 155.56Z" fill="#999999"/>
<path d="M67.9944 184.469C62.3208 177.227 54.7175 173.077 45.7423 171.364C45.6167 171.372 45.4912 171.379 45.3662 171.386L45.3644 171.386C43.5818 171.485 41.8796 171.579 40.9214 173.353C39.8957 175.252 41.0176 176.887 42.2036 178.273C47.4019 184.426 54.5284 188.637 62.4234 190.223C63.3678 190.39 64.3328 190.408 65.2826 190.274C68.924 189.844 70.2574 187.355 67.9944 184.469Z" fill="#999999"/>
<path d="M40.2227 147.105C46.1784 147.054 54.1343 154.848 54.2176 160.813C54.2219 161.668 54.0323 162.514 53.6629 163.285C53.2935 164.057 52.7541 164.735 52.0851 165.267C51.4162 165.8 50.6351 166.174 49.8008 166.362C48.9665 166.549 48.1006 166.544 47.2682 166.348C41.1267 164.828 36.9532 160.877 34.9851 154.918C33.5491 150.569 36.0365 147.157 40.2227 147.105Z" fill="#999999"/>
<path d="M159.234 24.2963C153.777 17.6377 146.259 12.9883 137.866 11.0827C137.752 11.0882 137.64 11.0932 137.528 11.0982C135.668 11.1818 134.194 11.248 133.468 12.7248C132.763 14.1488 133.539 15.4445 134.417 16.5285C138.014 21.0057 142.719 24.0525 147.745 26.6696C150.38 28.0487 153.131 29.2289 156.15 29.4342C157.528 29.5304 158.99 29.3893 159.875 28.1064C160.824 26.7017 160.073 25.329 159.234 24.2963Z" fill="#999999"/>
<path d="M163.484 45.7158C163.484 49.2694 161.131 51.2129 157.676 50.5394C152.643 49.5644 146.373 43.3104 145.36 38.2687C144.649 34.7152 146.784 32.0212 150.258 32.0853C155.868 32.1879 163.503 40.0648 163.484 45.7158Z" fill="#999999"/>
<path d="M15.6672 122.635C16.9161 120.887 17.6355 118.817 17.7393 116.671C18.018 112.534 17.4791 108.577 15.0089 105.098C13.1831 102.556 11.1043 102.715 9.43093 105.315C6.7138 109.536 7.22313 118.9 10.3717 122.675C12.1033 124.756 14.0291 124.768 15.6672 122.635Z" fill="#999999"/>
<path d="M85.368 183.571C89.1235 183.379 92.827 184.514 95.8305 186.778C98.5294 188.837 98.2281 191.467 95.0355 192.596C89.2658 194.636 83.6691 193.879 78.6943 190.242C76.1299 188.35 76.5531 185.996 79.4508 184.552C80.8932 183.828 82.5023 183.565 85.368 183.571Z" fill="#999999"/>
<path d="M107.575 13.1865C110.838 15.6881 114.704 16.3744 118.364 16.7464C119.961 16.8215 121.555 16.5615 123.044 15.9831C126.327 14.7067 126.699 12.3526 123.762 10.3642C119.153 7.24037 114.044 6.14351 108.556 7.59315C107.293 7.9267 106.094 8.47834 105.831 9.97929C105.568 11.4803 106.543 12.3975 107.575 13.1865Z" fill="#999999"/>
<path d="M14.0283 53.2828C15.5605 48.5041 18.1248 44.0141 22.5291 40.8967C24.2793 39.6652 25.6319 40.9288 25.2152 42.821C24.0772 47.9696 21.0595 52.5077 16.7529 55.5471C15.0092 56.7722 14.0283 55.6048 14.0283 53.2828Z" fill="#999999"/>
<path d="M171.771 43.6368C174.403 48.5298 176.557 53.6654 178.203 58.9721C178.237 59.0909 178.278 59.216 178.319 59.3449L178.319 59.3456C178.586 60.1793 178.903 61.1686 178.065 61.5972C176.966 62.1655 176.311 61.0737 175.811 60.2403L175.81 60.2373C175.77 60.1706 175.731 60.1055 175.692 60.043C172.147 54.2513 169.367 48.0249 167.421 41.519C167.396 41.4352 167.369 41.3476 167.34 41.2572C167.075 40.4153 166.734 39.335 167.702 38.919C168.607 38.5302 169.119 39.3561 169.572 40.0858C169.655 40.2207 169.737 40.3522 169.819 40.4722C170.169 40.9872 170.501 41.5374 170.966 42.309C171.196 42.6901 171.458 43.1252 171.771 43.6368Z" fill="#999999"/>
<path d="M44.8551 23.3804C44.9248 23.3797 44.9941 23.379 45.0627 23.379C48.1976 23.379 56.2432 18.7029 58.0062 15.8806C58.0283 15.8444 58.0506 15.8081 58.0729 15.7717C58.4459 15.1649 58.8289 14.5418 58.4357 13.8216C58.2235 13.4432 57.8849 13.1516 57.4793 12.998C57.0737 12.8443 56.6271 12.8384 56.2176 12.9813C51.3549 14.1832 46.9427 16.7647 43.5113 20.4156C42.9343 21.0313 42.5176 21.8652 43.0561 22.7376C43.4689 23.3949 44.177 23.3875 44.8551 23.3804Z" fill="#999999"/>
<path d="M139.978 44.3062C136.991 51.8332 125.965 54.52 115.351 50.3073V50.3073C112.574 49.2048 109.287 49.6018 107.283 51.8186L98.3139 61.7389C99.6722 63.9571 100.657 66.3902 101.223 68.9328C101.987 72.364 104.04 75.5873 107.364 76.7303L119.802 81.0069C123.324 82.218 127.14 80.6898 130.052 78.3677C131.043 77.5773 132.136 76.8535 133.332 76.1962C137.357 73.8818 142.892 72.7247 149.937 72.7247H190.997C197.84 72.7247 203.375 73.0769 207.602 73.7812C211.829 74.4856 213.942 75.2402 213.942 76.0452L210.923 88.7237C208.307 88.4218 202.369 88.1199 193.11 87.818C183.852 87.4156 171.423 87.2143 155.824 87.2143L154.164 87.0634C149.534 87.0634 146.415 88.0193 144.804 89.9311C143.194 91.7423 142.339 94.0566 142.238 96.8741V99.4399C142.238 102.76 143.144 105.276 144.955 106.987C146.868 108.597 149.987 109.402 154.315 109.402H187.827C194.268 109.402 199.753 110.056 204.281 111.364C208.81 112.672 212.282 115.087 214.697 118.609C217.113 122.03 218.32 127.111 218.32 133.853V136.268C218.32 143.814 216.358 149.902 212.433 154.531C208.609 159.159 201.916 161.474 192.356 161.474H142.238C135.395 161.474 130.363 161.172 127.143 160.568C123.922 159.964 122.312 159.26 122.312 158.455L128.35 145.324C130.665 145.726 136.401 146.129 145.559 146.531C154.818 146.833 167.498 146.984 183.6 146.984H186.468C190.796 146.984 193.865 146.229 195.677 144.72C197.488 143.11 198.394 140.444 198.394 136.721V133.702C198.394 130.18 197.639 127.665 196.13 126.155C194.721 124.646 191.5 123.891 186.468 123.891H151.447C141.282 123.891 133.885 122.03 129.256 118.307C124.627 114.483 122.312 108.295 122.312 99.7418V97.3269V97.3269C122.312 94.3717 120.657 91.5427 117.863 90.5818L106.148 86.5539C102.317 85.2364 98.2006 87.1246 95.4275 90.0788C89.0248 96.8997 78.8675 99.4921 69.6449 95.8315V95.8315C67.0505 94.8018 63.9656 95.1228 62.0937 97.1933L59.8397 99.6863C57.22 102.584 57.2613 106.923 58.5237 110.619C59.9955 114.929 59.9977 119.765 58.186 124.33C58.1196 124.497 58.0511 124.663 57.9807 124.827C56.1421 129.122 55.8519 134.575 59.2294 137.802L68.4119 146.577C69.6812 147.79 71.5783 148.013 73.2261 147.407V147.407C81.8359 144.238 89.5609 146.586 96.5616 151.974C99.5102 154.116 101.768 157.075 103.056 160.486C104.78 165.264 103.639 169.318 100.209 172.788C98.3042 174.694 96.0222 176.18 93.5096 177.152C90.997 178.124 88.3091 178.561 85.6183 178.433C78.2073 177.997 72.5914 175.463 67.9949 170.793C64.5251 167.268 62.9273 163.31 63.0603 159.6C63.2021 155.642 63.1355 151.145 60.2719 148.408L50.4624 139.034C48.2314 136.902 44.98 136.389 41.9125 136.726C38.8008 137.068 35.5625 136.676 32.4502 135.441C22.2752 131.402 17.3007 119.88 21.3392 109.705C21.3875 109.583 21.437 109.462 21.4875 109.341C22.8686 106.049 23.2521 102.172 21.2655 99.2062L18.3881 94.9102C17.0616 92.9296 14.2953 92.8031 11.9322 93.1162C11.3428 93.1942 10.7532 93.1788 10.1702 93.0618C10.1519 93.0582 10.1337 93.0544 10.1155 93.0505C8.71234 92.7534 6.94595 93.1577 6.47354 94.5119L5.30825 97.8523C4.77264 99.3876 4.74051 101.046 5.04421 102.643C5.34708 104.236 5.5832 106.04 5.72209 107.956C6.20187 114.577 5.33958 120.035 3.79611 120.146C2.25264 120.258 0.612467 114.982 0.132686 108.362C-0.347094 101.741 0.515197 96.2834 2.05867 96.1715V96.1715C2.85499 96.1138 3.95751 96.3168 4.22049 95.563L5.68661 91.3602C5.97221 90.5415 5.8452 89.6454 5.469 88.8642C3.89289 85.5913 3.41153 80.796 4.43212 75.7097C6.15796 67.1086 11.5251 60.9322 16.42 61.9145C21.315 62.8967 23.884 70.6655 22.1582 79.2666C21.8486 80.8091 21.422 82.2736 20.902 83.6329C19.7133 86.74 19.5575 90.3394 21.4088 93.1034L22.2626 94.3782C24.8921 98.3041 30.4004 98.9205 34.9853 97.7779C38.8656 96.8109 43.0744 97.0054 47.075 98.5933V98.5933C48.8993 99.3174 51.0521 99.0466 52.3684 97.5907L55.5585 94.0622C58.2172 91.1215 58.1682 86.7113 56.6413 83.0527C54.3647 77.5973 54.134 71.2826 56.487 65.3541V65.3541C57.5567 62.659 57.3405 59.4721 55.312 57.4002L52.5578 54.5872C49.7612 51.7308 45.3058 51.4818 41.6174 53.0231C40.3027 53.5725 38.9224 54.0443 37.479 54.4377C32.0234 55.9194 27.9974 52.43 28.1769 46.5609C28.2442 45.6666 28.4185 44.7836 28.6962 43.931C32.5427 34.752 38.9535 28.2671 48.8519 26.1183C55.1281 24.7649 59.5131 29.5436 57.4937 35.618C57.1369 36.7032 56.734 37.7466 56.2862 38.7478C54.6423 42.4226 54.7753 46.9212 57.5917 49.7978L58.375 50.5979C61.2663 53.551 65.907 53.6582 69.7557 52.1522C75.097 50.0622 81.2122 49.9131 86.9638 52.196C89.5381 53.2178 91.8313 54.6441 93.7994 56.3729L100.527 48.9313C103.285 45.8811 102.989 41.3049 101.596 37.4364C100.576 34.6069 100.489 31.705 101.543 29.0506C104.53 21.5236 115.556 18.8368 126.17 23.0495C136.783 27.2622 142.966 36.7791 139.978 44.3062Z" fill="#9C0E0E"/>
<path d="M135.711 183.652C135.803 183.951 135.849 184.295 135.849 184.685C135.849 185.228 135.742 185.698 135.528 186.096C135.321 186.494 135.008 186.8 134.587 187.014C134.174 187.228 133.661 187.335 133.05 187.335C132.606 187.335 132.189 187.274 131.799 187.152C131.417 187.022 131.076 186.823 130.778 186.555C130.48 186.287 130.246 185.951 130.078 185.545C129.91 185.132 129.826 184.639 129.826 184.065H127.715C127.715 184.899 127.868 185.633 128.174 186.268C128.48 186.895 128.889 187.423 129.401 187.851C129.914 188.28 130.484 188.601 131.111 188.815C131.746 189.029 132.392 189.136 133.05 189.136C133.807 189.136 134.488 189.033 135.092 188.827C135.696 188.612 136.212 188.31 136.641 187.92C137.069 187.53 137.394 187.06 137.616 186.509C137.845 185.958 137.96 185.343 137.96 184.662C137.96 184.012 137.872 183.431 137.696 182.918C137.528 182.398 137.26 181.935 136.893 181.53C136.526 181.117 136.052 180.746 135.47 180.417C134.889 180.088 134.189 179.79 133.371 179.522C132.843 179.331 132.384 179.132 131.994 178.926C131.612 178.719 131.29 178.494 131.03 178.249C130.778 178.004 130.591 177.74 130.468 177.457C130.346 177.167 130.285 176.845 130.285 176.494C130.285 175.973 130.376 175.511 130.56 175.105C130.751 174.7 131.042 174.379 131.432 174.142C131.83 173.905 132.334 173.786 132.946 173.786C133.627 173.786 134.178 173.927 134.598 174.21C135.027 174.486 135.34 174.868 135.539 175.358C135.746 175.84 135.849 176.394 135.849 177.021H137.96C137.96 176.149 137.769 175.331 137.386 174.566C137.004 173.794 136.438 173.17 135.688 172.696C134.946 172.214 134.032 171.973 132.946 171.973C132.22 171.973 131.562 172.088 130.973 172.317C130.384 172.547 129.879 172.868 129.459 173.281C129.046 173.687 128.724 174.165 128.495 174.715C128.273 175.266 128.162 175.866 128.162 176.516C128.162 177.167 128.269 177.744 128.484 178.249C128.698 178.754 129 179.201 129.39 179.591C129.788 179.981 130.266 180.329 130.824 180.635C131.382 180.933 132.006 181.205 132.694 181.45C133.329 181.679 133.853 181.905 134.266 182.127C134.679 182.348 135 182.582 135.229 182.826C135.459 183.071 135.619 183.346 135.711 183.652Z" fill="#605756"/>
<path d="M142.418 177.618L142.365 176.494H140.461V188.907H142.48V179.561C142.516 179.473 142.554 179.387 142.595 179.304C142.794 178.914 143.058 178.608 143.386 178.386C143.723 178.165 144.14 178.054 144.637 178.054C145.073 178.054 145.448 178.146 145.761 178.329C146.075 178.505 146.316 178.788 146.484 179.178C146.66 179.568 146.748 180.088 146.748 180.738V188.907H148.779V180.635C148.779 180.615 148.779 180.596 148.778 180.576C148.801 180.347 148.839 180.126 148.893 179.912C148.993 179.553 149.134 179.235 149.318 178.96C149.501 178.677 149.727 178.455 149.995 178.295C150.27 178.134 150.584 178.054 150.935 178.054C151.371 178.054 151.746 178.134 152.06 178.295C152.373 178.448 152.614 178.719 152.783 179.109C152.958 179.492 153.046 180.031 153.046 180.727V188.907H155.077V180.75C155.077 179.97 155.001 179.297 154.848 178.731C154.695 178.165 154.465 177.702 154.159 177.342C153.861 176.975 153.494 176.704 153.058 176.528C152.622 176.352 152.121 176.264 151.555 176.264C150.867 176.264 150.262 176.409 149.742 176.7C149.222 176.983 148.786 177.369 148.434 177.859C148.387 177.926 148.342 177.994 148.298 178.064C148.16 177.765 147.995 177.506 147.803 177.285C147.497 176.933 147.138 176.677 146.725 176.516C146.32 176.348 145.88 176.264 145.406 176.264C144.687 176.264 144.056 176.413 143.513 176.711C143.094 176.939 142.729 177.241 142.418 177.618Z" fill="#605756"/>
<path fill-rule="evenodd" clip-rule="evenodd" d="M163.991 178.868C164.144 179.167 164.221 179.561 164.221 180.05V181.381H162.821C162.01 181.381 161.295 181.484 160.676 181.691C160.064 181.897 159.555 182.188 159.15 182.563C158.744 182.93 158.439 183.366 158.232 183.87C158.026 184.375 157.922 184.926 157.922 185.522C157.922 186.31 158.071 186.972 158.37 187.507C158.668 188.043 159.085 188.448 159.62 188.723C160.163 188.999 160.794 189.136 161.513 189.136C162.003 189.136 162.443 189.037 162.833 188.838C163.23 188.632 163.574 188.372 163.865 188.058C164.013 187.894 164.145 187.727 164.259 187.557C164.271 187.679 164.285 187.804 164.301 187.932C164.355 188.337 164.431 188.662 164.531 188.907H166.63V188.723C166.508 188.387 166.412 187.985 166.343 187.519C166.282 187.052 166.251 186.612 166.251 186.199V180.073C166.251 179.148 166.083 178.406 165.747 177.847C165.41 177.289 164.947 176.887 164.358 176.643C163.77 176.39 163.093 176.264 162.328 176.264C161.685 176.264 161.104 176.371 160.584 176.585C160.071 176.792 159.632 177.075 159.265 177.434C158.897 177.786 158.614 178.18 158.416 178.616C158.224 179.052 158.129 179.492 158.129 179.935H160.159C160.159 179.583 160.24 179.262 160.4 178.972C160.569 178.681 160.806 178.448 161.112 178.272C161.425 178.096 161.796 178.008 162.225 178.008C162.668 178.008 163.035 178.077 163.326 178.214C163.624 178.352 163.846 178.57 163.991 178.868ZM164.221 185.838V182.872H163.154C162.672 182.872 162.232 182.926 161.834 183.033C161.444 183.14 161.108 183.297 160.825 183.503C160.542 183.702 160.324 183.951 160.171 184.249C160.026 184.547 159.953 184.888 159.953 185.27C159.953 185.767 160.022 186.165 160.159 186.463C160.297 186.754 160.504 186.964 160.779 187.094C161.054 187.224 161.402 187.289 161.823 187.289C162.335 187.289 162.787 187.171 163.177 186.934C163.567 186.697 163.869 186.41 164.083 186.073C164.136 185.993 164.182 185.915 164.221 185.838Z" fill="#605756"/>
<path d="M171.412 177.742L171.368 176.494H169.406V188.907H171.437V179.998C171.552 179.686 171.697 179.413 171.873 179.178C172.08 178.903 172.324 178.689 172.607 178.536C172.898 178.383 173.234 178.306 173.617 178.306C173.793 178.306 173.946 178.314 174.076 178.329C174.213 178.337 174.366 178.36 174.535 178.398L174.523 176.425C174.47 176.386 174.351 176.352 174.168 176.321C173.992 176.283 173.842 176.264 173.72 176.264C173.169 176.264 172.695 176.409 172.298 176.7C171.947 176.954 171.652 177.302 171.412 177.742Z" fill="#605756"/>
<path d="M179.95 186.784C179.85 186.57 179.801 186.253 179.801 185.832V178.123H181.671V176.494H179.801V173.476H177.77V176.494H175.877V178.123H177.77V185.821C177.77 186.647 177.885 187.305 178.114 187.794C178.344 188.276 178.646 188.62 179.02 188.827C179.395 189.033 179.801 189.136 180.237 189.136C180.588 189.136 180.879 189.11 181.108 189.056C181.338 189.01 181.522 188.96 181.659 188.907L181.671 187.175C181.609 187.197 181.495 187.228 181.326 187.266C181.158 187.297 181.005 187.312 180.868 187.312C180.684 187.312 180.512 187.278 180.351 187.209C180.191 187.14 180.057 186.999 179.95 186.784Z" fill="#605756"/>
<path d="M189.495 187.163C189.166 187.324 188.799 187.404 188.394 187.404C187.858 187.404 187.415 187.312 187.063 187.129C186.711 186.937 186.436 186.666 186.237 186.314C186.046 185.962 185.908 185.542 185.824 185.052C185.747 184.555 185.709 184.004 185.709 183.4V182C185.709 181.396 185.747 180.849 185.824 180.36C185.908 179.87 186.049 179.45 186.248 179.098C186.447 178.746 186.719 178.478 187.063 178.295C187.415 178.104 187.858 178.008 188.394 178.008C188.853 178.008 189.246 178.111 189.575 178.318C189.904 178.517 190.164 178.822 190.355 179.235C190.547 179.641 190.658 180.149 190.688 180.761H192.593C192.562 179.813 192.371 179.006 192.019 178.341C191.675 177.668 191.193 177.155 190.573 176.803C189.962 176.444 189.235 176.264 188.394 176.264C187.591 176.264 186.891 176.394 186.294 176.654C185.705 176.914 185.216 177.293 184.826 177.79C184.443 178.279 184.156 178.88 183.965 179.591C183.774 180.295 183.678 181.098 183.678 182V183.4C183.678 184.303 183.774 185.109 183.965 185.821C184.156 186.524 184.443 187.125 184.826 187.622C185.216 188.111 185.705 188.486 186.294 188.746C186.891 189.006 187.591 189.136 188.394 189.136C189.143 189.136 189.828 188.964 190.447 188.62C191.074 188.268 191.579 187.783 191.962 187.163C192.352 186.536 192.562 185.809 192.593 184.983H190.688C190.658 185.557 190.535 186.023 190.321 186.383C190.107 186.735 189.832 186.995 189.495 187.163Z" fill="#605756"/>
<path d="M195.277 172.329C195.086 172.566 194.99 172.857 194.99 173.201C194.99 173.53 195.086 173.813 195.277 174.05C195.468 174.279 195.755 174.394 196.138 174.394C196.52 174.394 196.807 174.279 196.998 174.05C197.197 173.813 197.296 173.53 197.296 173.201C197.296 172.857 197.197 172.566 196.998 172.329C196.807 172.092 196.52 171.973 196.138 171.973C195.755 171.973 195.468 172.092 195.277 172.329Z" fill="#605756"/>
<path d="M203.147 186.784C203.048 186.57 202.998 186.253 202.998 185.832V178.123H204.868V176.494H202.998V173.476H200.968V176.494H199.075V178.123H200.968V185.821C200.968 186.647 201.082 187.305 201.312 187.794C201.541 188.276 201.843 188.62 202.218 188.827C202.593 189.033 202.998 189.136 203.434 189.136C203.786 189.136 204.077 189.11 204.306 189.056C204.536 189.01 204.719 188.96 204.857 188.907L204.868 187.175C204.807 187.197 204.692 187.228 204.524 187.266C204.356 187.297 204.203 187.312 204.065 187.312C203.882 187.312 203.71 187.278 203.549 187.209C203.388 187.14 203.254 186.999 203.147 186.784Z" fill="#605756"/>
<path d="M209.823 188.794L209.457 190.031C209.32 190.544 209.151 190.945 208.953 191.236C208.754 191.534 208.513 191.744 208.23 191.867C207.954 191.997 207.618 192.062 207.22 192.062C207.174 192.062 207.102 192.054 207.002 192.039C206.903 192.031 206.83 192.024 206.784 192.016V193.737C206.884 193.767 207.044 193.806 207.266 193.852C207.496 193.897 207.683 193.92 207.828 193.92C208.302 193.92 208.715 193.817 209.067 193.611C209.419 193.412 209.721 193.152 209.974 192.831C210.226 192.509 210.433 192.169 210.593 191.809C210.761 191.458 210.895 191.129 210.995 190.823L215.09 176.494H212.934L210.69 185.523L208.379 176.494H206.165L209.823 188.794Z" fill="#605756"/>
<path d="M224.865 176.023L231.554 188.907H233.676V172.203H231.588V185.121L224.865 172.203H222.754V188.907H224.865V176.023Z" fill="#605756"/>
<path d="M243.389 187.816L243.428 188.907H245.355V176.494H243.325V185.667C243.137 186.136 242.862 186.52 242.499 186.819C242.07 187.163 241.497 187.335 240.778 187.335C240.564 187.335 240.353 187.293 240.147 187.209C239.94 187.125 239.753 186.979 239.585 186.773C239.416 186.559 239.282 186.272 239.183 185.913C239.084 185.545 239.034 185.083 239.034 184.524V176.494H237.015V184.501C237.015 185.327 237.095 186.035 237.256 186.624C237.424 187.213 237.657 187.691 237.955 188.058C238.261 188.425 238.621 188.697 239.034 188.872C239.454 189.048 239.921 189.136 240.433 189.136C241.191 189.136 241.829 188.995 242.349 188.712C242.76 188.482 243.107 188.184 243.389 187.816Z" fill="#605756"/>
<path d="M254.201 184.903C254.354 185.14 254.43 185.415 254.43 185.729C254.43 186.066 254.35 186.36 254.189 186.612C254.036 186.865 253.807 187.06 253.501 187.197C253.195 187.327 252.816 187.393 252.365 187.393C252.021 187.393 251.677 187.331 251.332 187.209C250.988 187.087 250.694 186.865 250.449 186.544C250.212 186.222 250.082 185.771 250.059 185.19H248.028C248.028 185.878 248.193 186.524 248.522 187.129C248.858 187.725 249.348 188.211 249.99 188.586C250.64 188.953 251.432 189.136 252.365 189.136C252.985 189.136 253.543 189.056 254.04 188.895C254.545 188.727 254.977 188.486 255.336 188.173C255.696 187.859 255.971 187.484 256.162 187.048C256.361 186.605 256.461 186.111 256.461 185.568C256.461 184.903 256.312 184.345 256.013 183.893C255.715 183.442 255.279 183.048 254.705 182.712C254.132 182.375 253.424 182.042 252.583 181.714C252.147 181.522 251.788 181.354 251.505 181.209C251.229 181.056 251.011 180.91 250.851 180.773C250.69 180.627 250.575 180.475 250.506 180.314C250.445 180.146 250.415 179.947 250.415 179.717C250.415 179.411 250.476 179.132 250.598 178.88C250.728 178.62 250.935 178.409 251.218 178.249C251.501 178.088 251.868 178.008 252.319 178.008C252.747 178.008 253.111 178.107 253.409 178.306C253.707 178.497 253.933 178.746 254.086 179.052C254.239 179.358 254.315 179.683 254.315 180.027H256.335C256.335 179.316 256.174 178.677 255.853 178.111C255.539 177.538 255.084 177.086 254.487 176.757C253.891 176.428 253.168 176.264 252.319 176.264C251.723 176.264 251.183 176.356 250.701 176.539C250.22 176.715 249.807 176.964 249.462 177.285C249.118 177.606 248.851 177.981 248.659 178.409C248.476 178.83 248.384 179.289 248.384 179.786C248.384 180.283 248.464 180.715 248.625 181.083C248.793 181.442 249.034 181.759 249.348 182.035C249.661 182.31 250.044 182.566 250.495 182.803C250.954 183.033 251.47 183.266 252.044 183.503C252.633 183.756 253.099 183.993 253.443 184.215C253.795 184.436 254.048 184.666 254.201 184.903Z" fill="#605756"/>
<path fill-rule="evenodd" clip-rule="evenodd" d="M264.973 178.868C265.126 179.167 265.203 179.561 265.203 180.05V181.381H263.803C262.993 181.381 262.277 181.484 261.658 181.691C261.046 181.897 260.537 182.188 260.132 182.563C259.727 182.93 259.421 183.366 259.214 183.87C259.008 184.375 258.904 184.926 258.904 185.522C258.904 186.31 259.054 186.972 259.352 187.507C259.65 188.043 260.067 188.448 260.602 188.723C261.145 188.999 261.776 189.136 262.495 189.136C262.985 189.136 263.425 189.037 263.815 188.838C264.212 188.632 264.557 188.372 264.847 188.058C264.995 187.894 265.127 187.727 265.241 187.557C265.253 187.679 265.267 187.804 265.283 187.932C265.337 188.337 265.413 188.662 265.513 188.907H267.612V188.723C267.49 188.387 267.394 187.985 267.325 187.519C267.264 187.052 267.234 186.612 267.234 186.199V180.073C267.234 179.148 267.065 178.406 266.729 177.847C266.392 177.289 265.93 176.887 265.341 176.643C264.752 176.39 264.075 176.264 263.31 176.264C262.667 176.264 262.086 176.371 261.566 176.585C261.054 176.792 260.614 177.075 260.247 177.434C259.88 177.786 259.597 178.18 259.398 178.616C259.207 179.052 259.111 179.492 259.111 179.935H261.142C261.142 179.583 261.222 179.262 261.383 178.972C261.551 178.681 261.788 178.448 262.094 178.272C262.407 178.096 262.778 178.008 263.207 178.008C263.65 178.008 264.017 178.077 264.308 178.214C264.606 178.352 264.828 178.57 264.973 178.868ZM265.203 185.838V182.872H264.136C263.654 182.872 263.214 182.926 262.817 183.033C262.427 183.14 262.09 183.297 261.807 183.503C261.524 183.702 261.306 183.951 261.153 184.249C261.008 184.547 260.935 184.888 260.935 185.27C260.935 185.767 261.004 186.165 261.142 186.463C261.279 186.754 261.486 186.964 261.761 187.094C262.036 187.224 262.384 187.289 262.805 187.289C263.318 187.289 263.769 187.171 264.159 186.934C264.549 186.697 264.851 186.41 265.065 186.073C265.118 185.993 265.164 185.915 265.203 185.838Z" fill="#605756"/>
<path d="M272.362 177.812L272.304 176.494H270.389V188.907H272.419V179.869C272.511 179.669 272.615 179.481 272.729 179.304C272.989 178.914 273.291 178.608 273.635 178.386C273.979 178.165 274.35 178.054 274.748 178.054C275.184 178.054 275.544 178.146 275.827 178.329C276.117 178.505 276.331 178.792 276.469 179.19C276.614 179.58 276.687 180.1 276.687 180.75V188.907H278.718V180.773C278.718 179.954 278.637 179.262 278.477 178.696C278.324 178.123 278.102 177.656 277.811 177.297C277.521 176.937 277.169 176.677 276.756 176.516C276.343 176.348 275.884 176.264 275.379 176.264C274.737 176.264 274.152 176.413 273.624 176.711C273.143 176.976 272.722 177.343 272.362 177.812Z" fill="#605756"/>
<path d="M284.58 186.784C284.481 186.57 284.431 186.253 284.431 185.832V178.123H286.301V176.494H284.431V173.476H282.4V176.494H280.507V178.123H282.4V185.821C282.4 186.647 282.515 187.305 282.745 187.794C282.974 188.276 283.276 188.62 283.651 188.827C284.026 189.033 284.431 189.136 284.867 189.136C285.219 189.136 285.509 189.11 285.739 189.056C285.968 189.01 286.152 188.96 286.29 188.907L286.301 187.175C286.24 187.197 286.125 187.228 285.957 187.266C285.789 187.297 285.636 187.312 285.498 187.312C285.314 187.312 285.142 187.278 284.982 187.209C284.821 187.14 284.687 186.999 284.58 186.784Z" fill="#605756"/>
<path fill-rule="evenodd" clip-rule="evenodd" d="M294.573 178.868C294.726 179.167 294.802 179.561 294.802 180.05V181.381H293.403C292.592 181.381 291.877 181.484 291.257 181.691C290.645 181.897 290.137 182.188 289.731 182.563C289.326 182.93 289.02 183.366 288.814 183.87C288.607 184.375 288.504 184.926 288.504 185.522C288.504 186.31 288.653 186.972 288.951 187.507C289.25 188.043 289.666 188.448 290.202 188.723C290.745 188.999 291.376 189.136 292.095 189.136C292.584 189.136 293.024 189.037 293.414 188.838C293.812 188.632 294.156 188.372 294.447 188.058C294.595 187.894 294.726 187.727 294.841 187.557C294.852 187.679 294.866 187.804 294.883 187.932C294.936 188.337 295.013 188.662 295.112 188.907H297.212V188.723C297.089 188.387 296.994 187.985 296.925 187.519C296.864 187.052 296.833 186.612 296.833 186.199V180.073C296.833 179.148 296.665 178.406 296.328 177.847C295.992 177.289 295.529 176.887 294.94 176.643C294.351 176.39 293.674 176.264 292.909 176.264C292.267 176.264 291.686 176.371 291.165 176.585C290.653 176.792 290.213 177.075 289.846 177.434C289.479 177.786 289.196 178.18 288.997 178.616C288.806 179.052 288.71 179.492 288.71 179.935H290.741C290.741 179.583 290.821 179.262 290.982 178.972C291.15 178.681 291.387 178.448 291.693 178.272C292.007 178.096 292.378 178.008 292.806 178.008C293.25 178.008 293.617 178.077 293.907 178.214C294.206 178.352 294.428 178.57 294.573 178.868ZM294.802 185.838V182.872H293.735C293.253 182.872 292.814 182.926 292.416 183.033C292.026 183.14 291.689 183.297 291.406 183.503C291.123 183.702 290.905 183.951 290.752 184.249C290.607 184.547 290.534 184.888 290.534 185.27C290.534 185.767 290.603 186.165 290.741 186.463C290.879 186.754 291.085 186.964 291.361 187.094C291.636 187.224 291.984 187.289 292.405 187.289C292.917 187.289 293.368 187.171 293.758 186.934C294.148 186.697 294.45 186.41 294.665 186.073C294.717 185.993 294.763 185.915 294.802 185.838Z" fill="#605756"/>
<path d="M301.994 177.742L301.95 176.494H299.988V188.907H302.019V179.998C302.133 179.686 302.279 179.413 302.455 179.178C302.661 178.903 302.906 178.689 303.189 178.536C303.479 178.383 303.816 178.306 304.198 178.306C304.374 178.306 304.527 178.314 304.657 178.329C304.795 178.337 304.948 178.36 305.116 178.398L305.105 176.425C305.051 176.386 304.933 176.352 304.749 176.321C304.573 176.283 304.424 176.264 304.302 176.264C303.751 176.264 303.277 176.409 302.879 176.7C302.528 176.954 302.233 177.302 301.994 177.742Z" fill="#605756"/>
<path fill-rule="evenodd" clip-rule="evenodd" d="M312.539 178.868C312.692 179.167 312.768 179.561 312.768 180.05V181.381H311.369C310.558 181.381 309.843 181.484 309.223 181.691C308.612 181.897 308.103 182.188 307.698 182.563C307.292 182.93 306.986 183.366 306.78 183.87C306.573 184.375 306.47 184.926 306.47 185.522C306.47 186.31 306.619 186.972 306.917 187.507C307.216 188.043 307.633 188.448 308.168 188.723C308.711 188.999 309.342 189.136 310.061 189.136C310.55 189.136 310.99 189.037 311.38 188.838C311.778 188.632 312.122 188.372 312.413 188.058C312.561 187.894 312.692 187.727 312.807 187.557C312.818 187.679 312.832 187.804 312.849 187.932C312.902 188.337 312.979 188.662 313.078 188.907H315.178V188.723C315.055 188.387 314.96 187.985 314.891 187.519C314.83 187.052 314.799 186.612 314.799 186.199V180.073C314.799 179.148 314.631 178.406 314.294 177.847C313.958 177.289 313.495 176.887 312.906 176.643C312.317 176.39 311.64 176.264 310.875 176.264C310.233 176.264 309.652 176.371 309.132 176.585C308.619 176.792 308.179 177.075 307.812 177.434C307.445 177.786 307.162 178.18 306.963 178.616C306.772 179.052 306.676 179.492 306.676 179.935H308.707C308.707 179.583 308.787 179.262 308.948 178.972C309.116 178.681 309.353 178.448 309.659 178.272C309.973 178.096 310.344 178.008 310.772 178.008C311.216 178.008 311.583 178.077 311.874 178.214C312.172 178.352 312.394 178.57 312.539 178.868ZM312.768 185.838V182.872H311.701C311.22 182.872 310.78 182.926 310.382 183.033C309.992 183.14 309.656 183.297 309.373 183.503C309.09 183.702 308.872 183.951 308.719 184.249C308.573 184.547 308.501 184.888 308.501 185.27C308.501 185.767 308.569 186.165 308.707 186.463C308.845 186.754 309.051 186.964 309.327 187.094C309.602 187.224 309.95 187.289 310.371 187.289C310.883 187.289 311.334 187.171 311.724 186.934C312.115 186.697 312.417 186.41 312.631 186.073C312.683 185.993 312.729 185.915 312.768 185.838Z" fill="#605756"/>
<path d="M331.193 177.812L331.136 176.494H329.22V188.907H331.251V179.869C331.343 179.669 331.446 179.481 331.561 179.304C331.821 178.914 332.123 178.608 332.467 178.386C332.811 178.165 333.182 178.054 333.58 178.054C334.016 178.054 334.375 178.146 334.658 178.329C334.949 178.505 335.163 178.792 335.301 179.19C335.446 179.58 335.519 180.1 335.519 180.75V188.907H337.549V180.773C337.549 179.954 337.469 179.262 337.308 178.696C337.155 178.123 336.934 177.656 336.643 177.297C336.352 176.937 336.001 176.677 335.588 176.516C335.175 176.348 334.716 176.264 334.211 176.264C333.568 176.264 332.983 176.413 332.455 176.711C331.974 176.976 331.554 177.343 331.193 177.812Z" fill="#605756"/>
<path d="M343.412 186.784C343.312 186.57 343.263 186.253 343.263 185.832V178.123H345.133V176.494H343.263V173.476H341.232V176.494H339.339V178.123H341.232V185.821C341.232 186.647 341.347 187.305 341.576 187.794C341.806 188.276 342.108 188.62 342.483 188.827C342.857 189.033 343.263 189.136 343.699 189.136C344.051 189.136 344.341 189.11 344.571 189.056C344.8 189.01 344.984 188.96 345.121 188.907L345.133 187.175C345.072 187.197 344.957 187.228 344.789 187.266C344.62 187.297 344.467 187.312 344.33 187.312C344.146 187.312 343.974 187.278 343.813 187.209C343.653 187.14 343.519 186.999 343.412 186.784Z" fill="#605756"/>
<path fill-rule="evenodd" clip-rule="evenodd" d="M349.986 188.804C350.582 189.025 351.251 189.136 351.993 189.136C352.712 189.136 353.328 189.048 353.84 188.872C354.361 188.689 354.797 188.456 355.148 188.173C355.508 187.882 355.798 187.58 356.02 187.266L354.953 185.993C354.624 186.406 354.238 186.746 353.795 187.014C353.351 187.274 352.789 187.404 352.108 187.404C351.642 187.404 351.225 187.331 350.858 187.186C350.498 187.033 350.192 186.804 349.94 186.498C349.695 186.184 349.508 185.79 349.378 185.316C349.255 184.834 349.194 184.26 349.194 183.595V183.297H356.112V182.115C356.112 181.167 356.028 180.329 355.86 179.603C355.699 178.876 355.447 178.264 355.102 177.767C354.758 177.27 354.311 176.895 353.76 176.643C353.209 176.39 352.544 176.264 351.764 176.264C351.183 176.264 350.617 176.371 350.066 176.585C349.515 176.792 349.022 177.128 348.586 177.595C348.15 178.054 347.802 178.662 347.542 179.419C347.29 180.176 347.163 181.102 347.163 182.195V183.595C347.163 184.543 347.274 185.366 347.496 186.062C347.718 186.758 348.039 187.335 348.46 187.794C348.88 188.245 349.389 188.582 349.986 188.804ZM349.207 181.564C349.231 181.008 349.288 180.53 349.378 180.13C349.508 179.587 349.684 179.163 349.905 178.857C350.135 178.543 350.406 178.325 350.72 178.203C351.041 178.073 351.389 178.008 351.764 178.008C352.353 178.008 352.808 178.149 353.129 178.432C353.45 178.708 353.68 179.09 353.818 179.58C353.963 180.069 354.051 180.635 354.081 181.278V181.564H349.207Z" fill="#605756"/>
<path fill-rule="evenodd" clip-rule="evenodd" d="M366.541 191.718C366.923 191.006 367.114 190.104 367.114 189.01V176.494H365.29L365.191 177.888C365.171 177.855 365.15 177.822 365.13 177.79C364.824 177.293 364.437 176.914 363.971 176.654C363.504 176.394 362.95 176.264 362.307 176.264C361.672 176.264 361.099 176.379 360.586 176.608C360.074 176.838 359.634 177.193 359.267 177.675C358.908 178.149 358.632 178.757 358.441 179.499C358.25 180.234 358.154 181.113 358.154 182.138V183.297C358.154 184.276 358.25 185.132 358.441 185.867C358.64 186.593 358.919 187.201 359.279 187.691C359.646 188.173 360.082 188.536 360.586 188.781C361.091 189.018 361.657 189.136 362.284 189.136C362.927 189.136 363.481 189.006 363.948 188.746C364.403 188.493 364.786 188.13 365.095 187.657V189.113C365.095 189.832 364.988 190.406 364.774 190.834C364.56 191.27 364.258 191.584 363.868 191.775C363.477 191.966 363.019 192.062 362.491 192.062C362.047 192.062 361.581 191.966 361.091 191.775C360.602 191.584 360.139 191.266 359.703 190.823L358.865 192.234C359.171 192.586 359.562 192.876 360.036 193.106C360.51 193.343 360.984 193.519 361.458 193.634C361.933 193.748 362.326 193.806 362.64 193.806C363.52 193.806 364.296 193.634 364.969 193.289C365.642 192.953 366.166 192.429 366.541 191.718ZM365.095 179.598C364.987 179.379 364.86 179.178 364.717 178.995C364.495 178.704 364.227 178.474 363.913 178.306C363.608 178.138 363.248 178.054 362.835 178.054C362.368 178.054 361.967 178.138 361.63 178.306C361.294 178.474 361.019 178.727 360.804 179.063C360.59 179.4 360.433 179.824 360.334 180.337C360.235 180.849 360.185 181.45 360.185 182.138V183.297C360.185 183.985 360.235 184.586 360.334 185.098C360.433 185.603 360.586 186.023 360.793 186.36C361.007 186.689 361.279 186.934 361.607 187.094C361.944 187.255 362.346 187.335 362.812 187.335C363.378 187.335 363.841 187.197 364.2 186.922C364.56 186.647 364.847 186.283 365.061 185.832C365.072 185.808 365.084 185.784 365.095 185.76V179.598Z" fill="#605756"/>
<path d="M372.16 177.742L372.116 176.494H370.155V188.907H372.185V179.998C372.3 179.686 372.445 179.413 372.621 179.178C372.828 178.903 373.072 178.689 373.355 178.536C373.646 178.383 373.983 178.306 374.365 178.306C374.541 178.306 374.694 178.314 374.824 178.329C374.962 178.337 375.115 178.36 375.283 178.398L375.271 176.425C375.218 176.386 375.099 176.352 374.916 176.321C374.74 176.283 374.591 176.264 374.468 176.264C373.918 176.264 373.443 176.409 373.046 176.7C372.695 176.954 372.4 177.302 372.16 177.742Z" fill="#605756"/>
<path fill-rule="evenodd" clip-rule="evenodd" d="M382.706 178.868C382.859 179.167 382.935 179.561 382.935 180.05V181.381H381.535C380.725 181.381 380.01 181.484 379.39 181.691C378.778 181.897 378.27 182.188 377.864 182.563C377.459 182.93 377.153 183.366 376.946 183.87C376.74 184.375 376.637 184.926 376.637 185.522C376.637 186.31 376.786 186.972 377.084 187.507C377.382 188.043 377.799 188.448 378.335 188.723C378.878 188.999 379.509 189.136 380.228 189.136C380.717 189.136 381.157 189.037 381.547 188.838C381.945 188.632 382.289 188.372 382.579 188.058C382.728 187.894 382.859 187.727 382.973 187.557C382.985 187.679 382.999 187.804 383.015 187.932C383.069 188.337 383.145 188.662 383.245 188.907H385.344V188.723C385.222 188.387 385.126 187.985 385.058 187.519C384.996 187.052 384.966 186.612 384.966 186.199V180.073C384.966 179.148 384.797 178.406 384.461 177.847C384.124 177.289 383.662 176.887 383.073 176.643C382.484 176.39 381.807 176.264 381.042 176.264C380.4 176.264 379.818 176.371 379.298 176.585C378.786 176.792 378.346 177.075 377.979 177.434C377.612 177.786 377.329 178.18 377.13 178.616C376.939 179.052 376.843 179.492 376.843 179.935H378.874C378.874 179.583 378.954 179.262 379.115 178.972C379.283 178.681 379.52 178.448 379.826 178.272C380.14 178.096 380.511 178.008 380.939 178.008C381.382 178.008 381.75 178.077 382.04 178.214C382.339 178.352 382.56 178.57 382.706 178.868ZM382.935 185.838V182.872H381.868C381.386 182.872 380.947 182.926 380.549 183.033C380.159 183.14 379.822 183.297 379.539 183.503C379.256 183.702 379.038 183.951 378.885 184.249C378.74 184.547 378.667 184.888 378.667 185.27C378.667 185.767 378.736 186.165 378.874 186.463C379.011 186.754 379.218 186.964 379.493 187.094C379.769 187.224 380.117 187.289 380.537 187.289C381.05 187.289 381.501 187.171 381.891 186.934C382.281 186.697 382.583 186.41 382.797 186.073C382.85 185.993 382.896 185.915 382.935 185.838Z" fill="#605756"/>
<path d="M390.932 186.784C390.832 186.57 390.782 186.253 390.782 185.832V178.123H392.652V176.494H390.782V173.476H388.752V176.494H386.859V178.123H388.752V185.821C388.752 186.647 388.866 187.305 389.096 187.794C389.325 188.276 389.627 188.62 390.002 188.827C390.377 189.033 390.782 189.136 391.218 189.136C391.57 189.136 391.861 189.11 392.09 189.056C392.32 189.01 392.503 188.96 392.641 188.907L392.652 187.175C392.591 187.197 392.476 187.228 392.308 187.266C392.14 187.297 391.987 187.312 391.849 187.312C391.666 187.312 391.494 187.278 391.333 187.209C391.172 187.14 391.039 186.999 390.932 186.784Z" fill="#605756"/>
<path fill-rule="evenodd" clip-rule="evenodd" d="M397.505 188.804C398.102 189.025 398.771 189.136 399.513 189.136C400.232 189.136 400.848 189.048 401.36 188.872C401.88 188.689 402.316 188.456 402.668 188.173C403.027 187.882 403.318 187.58 403.54 187.266L402.473 185.993C402.144 186.406 401.758 186.746 401.314 187.014C400.871 187.274 400.308 187.404 399.628 187.404C399.161 187.404 398.744 187.331 398.377 187.186C398.018 187.033 397.712 186.804 397.459 186.498C397.215 186.184 397.027 185.79 396.897 185.316C396.775 184.834 396.714 184.26 396.714 183.595V183.297H403.632V182.115C403.632 181.167 403.548 180.329 403.379 179.603C403.219 178.876 402.966 178.264 402.622 177.767C402.278 177.27 401.831 176.895 401.28 176.643C400.729 176.39 400.064 176.264 399.284 176.264C398.702 176.264 398.136 176.371 397.586 176.585C397.035 176.792 396.542 177.128 396.106 177.595C395.67 178.054 395.322 178.662 395.062 179.419C394.809 180.176 394.683 181.102 394.683 182.195V183.595C394.683 184.543 394.794 185.366 395.016 186.062C395.238 186.758 395.559 187.335 395.979 187.794C396.4 188.245 396.909 188.582 397.505 188.804ZM396.727 181.564C396.75 181.008 396.807 180.53 396.897 180.13C397.027 179.587 397.203 179.163 397.425 178.857C397.654 178.543 397.926 178.325 398.24 178.203C398.561 178.073 398.909 178.008 399.284 178.008C399.873 178.008 400.328 178.149 400.649 178.432C400.97 178.708 401.2 179.09 401.337 179.58C401.483 180.069 401.57 180.635 401.601 181.278V181.564H396.727Z" fill="#605756"/>
<path fill-rule="evenodd" clip-rule="evenodd" d="M412.667 187.556L412.764 188.907H414.611V171.285H412.592V177.719C412.286 177.257 411.912 176.902 411.468 176.654C411.009 176.394 410.458 176.264 409.815 176.264C409.196 176.264 408.63 176.379 408.118 176.608C407.605 176.838 407.165 177.193 406.798 177.675C406.431 178.149 406.148 178.757 405.949 179.499C405.75 180.234 405.651 181.113 405.651 182.138V183.297C405.651 184.276 405.75 185.132 405.949 185.867C406.148 186.593 406.431 187.201 406.798 187.691C407.173 188.173 407.613 188.536 408.118 188.781C408.622 189.018 409.181 189.136 409.793 189.136C410.435 189.136 410.989 189.006 411.456 188.746C411.923 188.486 412.313 188.111 412.626 187.622C412.64 187.6 412.654 187.578 412.667 187.556ZM412.592 179.589C412.481 179.374 412.355 179.176 412.213 178.995C411.999 178.704 411.735 178.474 411.422 178.306C411.116 178.138 410.756 178.054 410.343 178.054C409.877 178.054 409.471 178.138 409.127 178.306C408.791 178.474 408.515 178.727 408.301 179.063C408.095 179.4 407.938 179.824 407.831 180.337C407.731 180.849 407.682 181.45 407.682 182.138V183.297C407.682 183.985 407.731 184.586 407.831 185.098C407.93 185.603 408.087 186.023 408.301 186.36C408.515 186.689 408.787 186.934 409.116 187.094C409.452 187.255 409.854 187.335 410.32 187.335C410.886 187.335 411.349 187.197 411.708 186.922C412.068 186.647 412.355 186.283 412.569 185.832C412.577 185.816 412.584 185.8 412.592 185.784V179.589Z" fill="#605756"/>
<path fill-rule="evenodd" clip-rule="evenodd" d="M425.522 182.356V188.907H423.411V172.203H428.734C429.812 172.203 430.722 172.421 431.464 172.857C432.206 173.293 432.768 173.897 433.151 174.669C433.541 175.434 433.736 176.31 433.736 177.297C433.736 178.367 433.541 179.281 433.151 180.039C432.768 180.796 432.206 181.373 431.464 181.771C430.722 182.161 429.812 182.356 428.734 182.356H425.522ZM430.397 180.142C429.977 180.417 429.422 180.555 428.734 180.555H425.522V174.015H428.734C429.422 174.015 429.977 174.172 430.397 174.486C430.826 174.792 431.135 175.197 431.327 175.702C431.526 176.207 431.625 176.746 431.625 177.32C431.625 177.947 431.526 178.505 431.327 178.995C431.135 179.484 430.826 179.866 430.397 180.142Z" fill="#605756"/>
<path fill-rule="evenodd" clip-rule="evenodd" d="M447.411 178.868C447.564 179.167 447.641 179.561 447.641 180.05V181.381H446.241C445.43 181.381 444.715 181.484 444.096 181.691C443.484 181.897 442.975 182.188 442.57 182.563C442.164 182.93 441.859 183.366 441.652 183.87C441.446 184.375 441.342 184.926 441.342 185.522C441.342 186.31 441.491 186.972 441.79 187.507C442.088 188.043 442.505 188.448 443.04 188.723C443.583 188.999 444.214 189.136 444.933 189.136C445.423 189.136 445.862 189.037 446.253 188.838C446.65 188.632 446.994 188.372 447.285 188.058C447.433 187.894 447.565 187.727 447.679 187.557C447.691 187.679 447.705 187.804 447.721 187.932C447.775 188.337 447.851 188.662 447.951 188.907H450.05V188.723C449.928 188.387 449.832 187.985 449.763 187.519C449.702 187.052 449.671 186.612 449.671 186.199V180.073C449.671 179.148 449.503 178.406 449.167 177.847C448.83 177.289 448.367 176.887 447.778 176.643C447.189 176.39 446.513 176.264 445.748 176.264C445.105 176.264 444.524 176.371 444.004 176.585C443.491 176.792 443.052 177.075 442.685 177.434C442.317 177.786 442.034 178.18 441.836 178.616C441.644 179.052 441.549 179.492 441.549 179.935H443.579C443.579 179.583 443.66 179.262 443.82 178.972C443.989 178.681 444.226 178.448 444.532 178.272C444.845 178.096 445.216 178.008 445.645 178.008C446.088 178.008 446.455 178.077 446.746 178.214C447.044 178.352 447.266 178.57 447.411 178.868ZM447.641 185.838V182.872H446.574C446.092 182.872 445.652 182.926 445.254 183.033C444.864 183.14 444.528 183.297 444.245 183.503C443.962 183.702 443.744 183.951 443.591 184.249C443.446 184.547 443.373 184.888 443.373 185.27C443.373 185.767 443.442 186.165 443.579 186.463C443.717 186.754 443.924 186.964 444.199 187.094C444.474 187.224 444.822 187.289 445.243 187.289C445.755 187.289 446.207 187.171 446.597 186.934C446.987 186.697 447.289 186.41 447.503 186.073C447.556 185.993 447.602 185.915 447.641 185.838Z" fill="#605756"/>
<path d="M455.637 186.784C455.538 186.57 455.488 186.253 455.488 185.832V178.123H457.358V176.494H455.488V173.476H453.457V176.494H451.564V178.123H453.457V185.821C453.457 186.647 453.572 187.305 453.802 187.794C454.031 188.276 454.333 188.62 454.708 188.827C455.083 189.033 455.488 189.136 455.924 189.136C456.276 189.136 456.566 189.11 456.796 189.056C457.025 189.01 457.209 188.96 457.347 188.907L457.358 187.175C457.297 187.197 457.182 187.228 457.014 187.266C456.846 187.297 456.693 187.312 456.555 187.312C456.371 187.312 456.199 187.278 456.039 187.209C455.878 187.14 455.744 186.999 455.637 186.784Z" fill="#605756"/>
<path d="M461.098 172.926C460.815 173.537 460.674 174.291 460.674 175.186V176.494H459.056V178.123H460.674V188.907H462.704V178.123H464.815V176.494H462.704V175.186C462.704 174.681 462.769 174.256 462.899 173.912C463.037 173.568 463.236 173.308 463.496 173.132C463.756 172.948 464.07 172.857 464.437 172.857C464.59 172.857 464.75 172.864 464.919 172.88C465.094 172.895 465.244 172.922 465.366 172.96L465.458 171.228C465.267 171.166 465.064 171.12 464.85 171.09C464.643 171.059 464.437 171.044 464.23 171.044C463.496 171.044 462.861 171.205 462.326 171.526C461.798 171.839 461.389 172.306 461.098 172.926Z" fill="#605756"/>
<path fill-rule="evenodd" clip-rule="evenodd" d="M467.156 179.58C466.911 180.306 466.789 181.151 466.789 182.115V183.297C466.789 184.26 466.911 185.109 467.156 185.844C467.4 186.57 467.741 187.178 468.177 187.668C468.62 188.157 469.133 188.524 469.714 188.769C470.295 189.014 470.923 189.136 471.596 189.136C472.269 189.136 472.896 189.014 473.477 188.769C474.058 188.524 474.567 188.157 475.003 187.668C475.439 187.178 475.779 186.57 476.024 185.844C476.269 185.109 476.391 184.26 476.391 183.297V182.115C476.391 181.151 476.269 180.306 476.024 179.58C475.779 178.845 475.435 178.234 474.992 177.744C474.556 177.255 474.047 176.887 473.466 176.643C472.884 176.39 472.253 176.264 471.573 176.264C470.907 176.264 470.284 176.39 469.703 176.643C469.121 176.887 468.613 177.255 468.177 177.744C467.741 178.234 467.4 178.845 467.156 179.58ZM469.026 185.087C468.888 184.574 468.819 183.977 468.819 183.297V182.115C468.819 181.434 468.888 180.842 469.026 180.337C469.163 179.824 469.355 179.396 469.599 179.052C469.852 178.7 470.146 178.44 470.483 178.272C470.819 178.096 471.183 178.008 471.573 178.008C471.97 178.008 472.337 178.096 472.674 178.272C473.018 178.44 473.317 178.7 473.569 179.052C473.821 179.396 474.016 179.824 474.154 180.337C474.292 180.842 474.361 181.434 474.361 182.115V183.297C474.361 183.977 474.303 184.574 474.188 185.087C474.074 185.599 473.902 186.027 473.672 186.371C473.443 186.716 473.152 186.976 472.8 187.152C472.456 187.32 472.055 187.404 471.596 187.404C471.198 187.404 470.831 187.32 470.494 187.152C470.158 186.976 469.863 186.716 469.611 186.371C469.358 186.027 469.163 185.599 469.026 185.087Z" fill="#605756"/>
<path d="M481.013 177.742L480.969 176.494H479.007V188.907H481.038V179.998C481.152 179.686 481.298 179.413 481.474 179.178C481.68 178.903 481.925 178.689 482.208 178.536C482.498 178.383 482.835 178.306 483.217 178.306C483.393 178.306 483.546 178.314 483.676 178.329C483.814 178.337 483.967 178.36 484.135 178.398L484.124 176.425C484.07 176.386 483.952 176.352 483.768 176.321C483.592 176.283 483.443 176.264 483.321 176.264C482.77 176.264 482.296 176.409 481.898 176.7C481.547 176.954 481.252 177.302 481.013 177.742Z" fill="#605756"/>
<path d="M488.134 177.618L488.082 176.494H486.177V188.907H488.197V179.561C488.232 179.473 488.271 179.387 488.311 179.304C488.51 178.914 488.774 178.608 489.103 178.386C489.439 178.165 489.856 178.054 490.353 178.054C490.789 178.054 491.164 178.146 491.478 178.329C491.791 178.505 492.032 178.788 492.2 179.178C492.376 179.568 492.464 180.088 492.464 180.738V188.907H494.495V180.635C494.495 180.615 494.495 180.596 494.495 180.576C494.517 180.347 494.555 180.126 494.61 179.912C494.709 179.553 494.851 179.235 495.034 178.96C495.218 178.677 495.443 178.455 495.711 178.295C495.986 178.134 496.3 178.054 496.652 178.054C497.088 178.054 497.463 178.134 497.776 178.295C498.09 178.448 498.331 178.719 498.499 179.109C498.675 179.492 498.763 180.031 498.763 180.727V188.907H500.793V180.75C500.793 179.97 500.717 179.297 500.564 178.731C500.411 178.165 500.182 177.702 499.876 177.342C499.577 176.975 499.21 176.704 498.774 176.528C498.338 176.352 497.837 176.264 497.271 176.264C496.583 176.264 495.979 176.409 495.459 176.7C494.939 176.983 494.503 177.369 494.151 177.859C494.104 177.926 494.058 177.994 494.014 178.064C493.876 177.765 493.712 177.506 493.52 177.285C493.214 176.933 492.854 176.677 492.441 176.516C492.036 176.348 491.596 176.264 491.122 176.264C490.403 176.264 489.772 176.413 489.229 176.711C488.81 176.939 488.445 177.241 488.134 177.618Z" fill="#605756"/>
<path d="M197.124 188.907V176.494H195.105V188.907H197.124Z" fill="#605756"/>
<path d="M325.824 188.907V172.203H323.713V188.907H325.824Z" fill="#605756"/>
<path d="M438.348 188.907V171.285H436.329V188.907H438.348Z" fill="#605756"/>
</svg>
