<svg width="232" height="200" viewBox="0 0 232 200" fill="none" xmlns="http://www.w3.org/2000/svg">
  <path
    d="M117.832 82.5131C115.602 84.2872 113.248 85.9383 110.806 87.4313C110.385 87.6948 109.963 87.9407 109.542 88.1866C108.997 88.5028 108.435 88.8365 107.873 89.1351C107.785 89.1878 107.715 89.2229 107.627 89.2756C107.416 89.3986 107.188 89.504 106.977 89.6269C106.169 90.0661 105.344 90.4876 104.518 90.8916C104.061 91.12 103.587 91.3307 103.131 91.5415C101.936 92.086 100.724 92.613 99.4946 93.0873C94.471 95.0721 89.1312 96.53 83.5455 97.3731C75.3251 98.6203 67.21 98.427 59.4638 97.0043C56.4777 96.4598 53.5268 95.722 50.6637 94.8086C49.2936 94.3695 47.9411 93.8952 46.5886 93.3859C43.585 92.2266 40.6692 90.8741 37.8588 89.3459C36.5238 88.6257 35.224 87.8529 33.9418 87.0449C30.7449 85.0425 27.7237 82.7766 24.8782 80.2999C21.8746 86.2369 20.1356 92.9116 19.9951 99.9903C22.9987 102.221 26.178 104.206 29.4978 105.962C30.7625 106.63 32.0623 107.262 33.3621 107.859C35.9969 109.054 38.7019 110.09 41.4772 110.968C42.654 111.337 43.8309 111.671 45.0253 111.987C47.3439 112.584 49.6976 113.076 52.0865 113.463C59.2355 114.587 66.683 114.64 74.236 113.498C86.2505 111.689 97.1409 107.016 106.31 100.289C106.889 99.8498 107.469 99.4282 108.049 98.9715C108.277 98.7959 108.523 98.6027 108.751 98.427C109.173 98.0933 109.577 97.7596 109.998 97.4083C110.139 97.2853 110.28 97.1623 110.438 97.0394C110.666 96.8462 110.894 96.653 111.123 96.4422C111.421 96.1963 111.702 95.9328 111.983 95.6693C119.993 88.4501 126.334 79.5446 130.514 69.5852C126.843 74.3805 122.593 78.7366 117.832 82.5131Z"
    fill="#EC2024" />
  <path
    d="M70.2136 48.3491V50.615C88.7623 53.0565 103.991 66.0371 109.665 83.3562C112.545 81.5119 115.286 79.4568 117.832 77.226V48.3491C117.832 45.5035 120.134 43.2025 122.979 43.2025H127.704L94.0143 22.6865L60.342 43.2201H65.067C67.9126 43.2201 70.2136 45.5211 70.2136 48.3491Z"
    fill="#5D5756" />
  <path
    d="M70.2136 64.7022C70.2839 64.7022 70.3366 64.7022 70.4068 64.7022C85.6884 64.7022 99.0203 73.0807 106.046 85.5168C106.767 85.1128 107.487 84.6912 108.207 84.2696C102.094 68.6016 87.5855 57.1492 70.2136 55.4278C68.7206 55.2873 67.1924 55.1995 65.6467 55.1995C49.3112 55.1995 34.9781 63.7888 26.8982 76.6815C29.7262 79.1933 32.7474 81.4944 35.9442 83.5143C43.1986 72.2551 55.8278 64.7724 70.2136 64.7022Z"
    fill="#736D6D" />
  <path
    d="M101.831 87.6772C102.867 87.1854 103.903 86.676 104.922 86.1315C97.9488 75.5573 85.9694 68.5664 72.3565 68.5664C71.6364 68.5664 70.9337 68.584 70.2311 68.6191C57.6194 69.3041 46.5886 75.9789 39.9666 85.8504C42.8648 87.4313 45.886 88.8014 49.0126 89.9431C54.1942 83.3913 61.677 78.7541 70.2311 77.226C72.2336 76.8747 74.3062 76.6815 76.414 76.6815C86.4086 76.6815 95.4546 80.9146 101.831 87.6772Z"
    fill="#80807F" />
  <path
    d="M53.316 91.3835C56.5304 92.3321 59.8151 93.0347 63.1876 93.5089C65.3657 91.7875 67.8072 90.3472 70.4244 89.2933C73.8672 87.8881 77.6436 87.1152 81.5958 87.1152C85.5479 87.1152 89.3244 87.8881 92.7672 89.2933C93.5752 89.627 94.3656 89.9959 95.1384 90.3823C96.1397 90.031 97.1233 89.6797 98.0894 89.2933C98.7393 89.0298 99.3892 88.7663 100.039 88.4853C94.1899 83.3387 86.5316 80.2122 78.1355 80.2122C75.3953 80.2122 72.743 80.5459 70.1961 81.1782C63.574 82.7942 57.7073 86.4302 53.316 91.3835Z"
    fill="#999695" />
  <path
    d="M30.2707 148.593C30.2707 147.539 29.9897 146.731 29.41 146.169C28.8304 145.607 27.8116 145.062 26.3186 144.518C24.8255 143.991 23.6838 143.429 22.8934 142.832C22.103 142.252 21.5057 141.567 21.1193 140.829C20.7329 140.074 20.5221 139.213 20.5221 138.247C20.5221 136.561 21.0842 135.191 22.2083 134.102C23.3325 133.013 24.7904 132.468 26.6172 132.468C27.8643 132.468 28.9709 132.749 29.937 133.294C30.903 133.856 31.6583 134.611 32.1853 135.612C32.7122 136.596 32.9757 137.685 32.9757 138.862H30.3058C30.3058 137.545 29.9897 136.543 29.3573 135.823C28.725 135.103 27.8116 134.752 26.6347 134.752C25.5633 134.752 24.7201 135.05 24.1405 135.648C23.5433 136.245 23.2447 137.088 23.2447 138.177C23.2447 139.073 23.5609 139.828 24.2108 140.425C24.8431 141.022 25.8443 141.567 27.1793 142.041C29.2695 142.726 30.7625 143.587 31.6583 144.588C32.5542 145.589 33.0109 146.924 33.0109 148.54C33.0109 150.262 32.4488 151.632 31.3422 152.668C30.218 153.704 28.7074 154.214 26.7928 154.214C25.5633 154.214 24.4215 153.95 23.3852 153.406C22.3489 152.861 21.5233 152.106 20.9261 151.14C20.3289 150.156 20.0303 149.05 20.0303 147.785H22.7002C22.7002 149.102 23.069 150.121 23.8068 150.841C24.5445 151.561 25.5281 151.93 26.7928 151.93C27.9697 151.93 28.8479 151.632 29.4451 151.035C29.9721 150.455 30.2707 149.629 30.2707 148.593Z"
    fill="#464141" />
  <path
    d="M39.8788 132.767L45.4118 150.051L50.9448 132.767H54.3699V153.95H51.7001V145.695L51.946 137.422L46.3954 153.933H44.3579L38.8424 137.474L39.0883 145.677V153.933H36.4185V132.767H39.8788Z"
    fill="#464141" />
  <path
    d="M69.107 148.417H61.9405L60.2894 153.968H57.5668L64.3996 132.784H66.683L73.5158 153.968H70.7757L69.107 148.417ZM62.6431 146.134H68.422L65.5237 136.508L62.6431 146.134Z"
    fill="#464141" />
  <path
    d="M82.7903 145.379H79.0665V153.95H76.3966V132.767H82.3336C84.4063 132.767 85.9871 133.311 87.041 134.383C88.1125 135.472 88.6395 137.053 88.6395 139.125C88.6395 140.443 88.3584 141.585 87.7788 142.551C87.1991 143.534 86.3911 144.254 85.3197 144.764L89.4299 153.775V153.95H86.5668L82.7903 145.379ZM79.0665 143.095H82.2985C83.4226 143.095 84.3009 142.744 84.9684 142.024C85.6358 141.303 85.9696 140.337 85.9696 139.143C85.9696 136.42 84.74 135.068 82.2809 135.068H79.0841V143.095H79.0665Z"
    fill="#464141" />
  <path d="M103.429 135.05H97.8611V153.95H95.1912V135.05H89.6406V132.767H103.429V135.05Z"
    fill="#464141" />
  <path
    d="M118.851 149.858L123.699 132.767H126.633L120.046 153.95H117.71L111.14 132.767H114.056L118.851 149.858Z"
    fill="#464141" />
  <path d="M132.271 153.95H129.601V132.767H132.271V153.95Z" fill="#464141" />
  <path d="M139.613 151.667H147.922V153.95H136.943V132.767H139.613V151.667Z" fill="#464141" />
  <path d="M153.771 151.667H162.079V153.95H151.101V132.767H153.771V151.667Z" fill="#464141" />
  <path
    d="M175.411 148.417H168.244L166.593 153.968H163.853L170.686 132.784H172.969L179.802 153.968H177.062L175.411 148.417ZM168.947 146.134H174.726L171.828 136.508L168.947 146.134Z"
    fill="#464141" />
  <path
    d="M195.786 151.316L195.312 151.895C193.977 153.458 192.01 154.231 189.428 154.231C187.144 154.231 185.335 153.476 184.035 151.948C182.735 150.437 182.068 148.277 182.033 145.502V141.339C182.033 138.37 182.63 136.139 183.807 134.664C185.001 133.188 186.775 132.451 189.147 132.451C191.167 132.451 192.748 133.013 193.889 134.137C195.031 135.261 195.663 136.86 195.769 138.95H193.099C192.993 137.632 192.625 136.596 191.992 135.858C191.36 135.121 190.411 134.752 189.147 134.752C187.619 134.752 186.512 135.244 185.792 136.245C185.089 137.246 184.72 138.827 184.685 141.005V145.326C184.685 147.451 185.089 149.102 185.915 150.244C186.74 151.386 187.9 151.948 189.428 151.948C190.868 151.948 191.957 151.597 192.695 150.912L193.081 150.543V145.677H189.217V143.394H195.751V151.316H195.786Z"
    fill="#464141" />
  <path
    d="M210.295 144.167H202.795V151.667H211.524V153.95H200.125V132.767H211.366V135.05H202.777V141.883H210.277V144.167H210.295Z"
    fill="#464141" />
  <path
    d="M148.115 88.2392V69.5149H152.576C154.754 69.5149 156.458 70.1999 157.67 71.57C158.882 72.9401 159.479 74.8547 159.479 77.3313V80.4755C159.479 82.9522 158.864 84.8668 157.635 86.2193C156.405 87.5718 154.631 88.2392 152.295 88.2392H148.115ZM150.468 71.5349V86.2193H152.365C154.016 86.2193 155.228 85.745 155.984 84.7965C156.739 83.848 157.143 82.4428 157.161 80.5809V77.2611C157.161 75.2938 156.774 73.8359 156.019 72.9225C155.264 72.0091 154.122 71.5349 152.576 71.5349H150.468Z"
    fill="#736D6D" />
  <path
    d="M167.787 88.5027C166.049 88.5027 164.731 87.9933 163.8 86.957C162.869 85.9206 162.395 84.41 162.377 82.4076V80.7214C162.377 78.6487 162.834 77.0151 163.73 75.8383C164.626 74.6614 165.89 74.0642 167.524 74.0642C169.158 74.0642 170.37 74.5912 171.178 75.6275C171.986 76.6638 172.39 78.2798 172.407 80.4755V81.9685H164.643V82.2847C164.643 83.7777 164.924 84.8667 165.486 85.5342C166.049 86.2192 166.857 86.553 167.91 86.553C168.578 86.553 169.175 86.43 169.685 86.1665C170.194 85.9206 170.668 85.5166 171.125 84.9721L172.302 86.4124C171.318 87.8001 169.807 88.5027 167.787 88.5027ZM167.542 76.0315C166.593 76.0315 165.908 76.3477 165.451 76.9976C164.995 77.6475 164.731 78.6487 164.678 80.0188H170.159V79.7026C170.106 78.3852 169.86 77.4367 169.439 76.8746C169.017 76.3125 168.385 76.0315 167.542 76.0315Z"
    fill="#736D6D" />
  <path
    d="M181.91 84.6735C181.91 84.1817 181.734 83.7601 181.365 83.4088C180.996 83.0575 180.294 82.6535 179.222 82.1793C177.993 81.6699 177.132 81.2483 176.623 80.8795C176.113 80.5281 175.744 80.1066 175.499 79.6499C175.253 79.1932 175.13 78.6487 175.13 78.0163C175.13 76.8922 175.551 75.9437 176.377 75.1884C177.202 74.4331 178.256 74.0642 179.539 74.0642C180.891 74.0642 181.98 74.4506 182.806 75.2411C183.631 76.0315 184.035 77.0327 184.035 78.2798H181.769C181.769 77.6475 181.558 77.1205 181.137 76.6814C180.715 76.2423 180.188 76.0139 179.521 76.0139C178.853 76.0139 178.327 76.1896 177.94 76.5409C177.554 76.8922 177.36 77.3489 177.36 77.9285C177.36 78.3852 177.501 78.7541 177.782 79.0527C178.063 79.3337 178.731 79.7026 179.802 80.1593C181.488 80.8268 182.648 81.4591 183.245 82.0914C183.86 82.7238 184.158 83.5318 184.158 84.4979C184.158 85.7098 183.737 86.6759 182.911 87.3961C182.085 88.1163 180.961 88.4851 179.574 88.4851C178.133 88.4851 176.956 88.0636 176.043 87.238C175.147 86.4124 174.691 85.3585 174.691 84.0763H176.974C176.992 84.8492 177.237 85.4464 177.677 85.8855C178.116 86.3246 178.748 86.5354 179.556 86.5354C180.311 86.5354 180.891 86.3598 181.277 86.026C181.717 85.7099 181.91 85.2532 181.91 84.6735Z"
    fill="#736D6D" />
  <path
    d="M194.311 88.2392C194.17 87.9406 194.082 87.4313 194.012 86.7286C193.204 87.9055 192.185 88.5027 190.921 88.5027C189.656 88.5027 188.672 88.1514 187.97 87.4488C187.267 86.7462 186.916 85.745 186.916 84.4628C186.916 83.04 187.39 81.9334 188.356 81.0903C189.322 80.2647 190.64 79.8431 192.308 79.8256H193.977V78.3501C193.977 77.5246 193.801 76.9273 193.433 76.576C193.064 76.2247 192.502 76.0491 191.746 76.0491C191.061 76.0491 190.499 76.2599 190.078 76.6639C189.656 77.0679 189.428 77.5948 189.428 78.2096H187.144C187.144 77.507 187.355 76.8219 187.777 76.172C188.198 75.5221 188.76 75.0127 189.48 74.6439C190.183 74.275 190.991 74.0994 191.852 74.0994C193.274 74.0994 194.363 74.4507 195.101 75.1533C195.839 75.8559 196.225 76.8922 196.243 78.2447V85.2707C196.243 86.3422 196.401 87.2732 196.682 88.0636V88.2744H194.311V88.2392ZM191.272 86.43C191.834 86.43 192.361 86.2719 192.87 85.9733C193.38 85.6572 193.749 85.2707 193.977 84.8141V81.4943H192.695C191.623 81.5118 190.763 81.7577 190.13 82.2144C189.498 82.6887 189.199 83.3386 189.199 84.1817C189.199 84.9721 189.357 85.5342 189.674 85.9031C189.972 86.2544 190.517 86.43 191.272 86.43Z"
    fill="#736D6D" />
  <path
    d="M148.115 113.884V95.1599H152.576C154.754 95.1599 156.458 95.8449 157.67 97.215C158.882 98.5851 159.479 100.5 159.479 102.976V106.121C159.479 108.597 158.864 110.512 157.635 111.864C156.405 113.217 154.631 113.884 152.295 113.884H148.115ZM150.468 97.1799V111.864H152.365C154.016 111.864 155.228 111.39 155.984 110.442C156.739 109.493 157.143 108.088 157.161 106.226V102.906C157.161 100.939 156.774 99.4809 156.019 98.5675C155.264 97.6541 154.122 97.1799 152.576 97.1799H150.468Z"
    fill="#736D6D" />
  <path
    d="M165.451 96.2841C165.451 96.6705 165.346 96.9867 165.135 97.2502C164.924 97.5137 164.591 97.6366 164.152 97.6366C163.73 97.6366 163.396 97.5137 163.185 97.2502C162.975 96.9867 162.869 96.6705 162.869 96.2841C162.869 95.8977 162.975 95.5815 163.185 95.3005C163.396 95.037 163.712 94.8965 164.152 94.8965C164.573 94.8965 164.907 95.037 165.118 95.3005C165.346 95.5815 165.451 95.9153 165.451 96.2841ZM165.276 113.884H162.992V99.9728H165.276V113.884Z"
    fill="#736D6D" />
  <path
    d="M168.402 106.296C168.402 104.136 168.789 102.485 169.579 101.378C170.369 100.271 171.529 99.7092 173.039 99.7092C174.462 99.7092 175.534 100.306 176.271 101.518L176.394 99.9551H178.449V113.99C178.449 115.711 178.01 117.028 177.132 117.959C176.254 118.873 175.024 119.347 173.443 119.347C172.758 119.347 171.985 119.171 171.142 118.838C170.282 118.504 169.649 118.082 169.228 117.59L170.159 116.027C171.107 116.958 172.144 117.415 173.285 117.415C175.182 117.415 176.148 116.378 176.201 114.323V112.514C175.463 113.603 174.409 114.148 173.057 114.148C171.617 114.148 170.492 113.603 169.684 112.514C168.876 111.425 168.455 109.879 168.42 107.842V106.296H168.402ZM170.668 107.596C170.668 109.159 170.896 110.301 171.353 111.039C171.81 111.776 172.565 112.145 173.601 112.145C174.726 112.145 175.586 111.566 176.148 110.406V103.451C175.551 102.309 174.708 101.747 173.637 101.747C172.583 101.747 171.845 102.116 171.371 102.853C170.914 103.591 170.668 104.715 170.668 106.226V107.596Z"
    fill="#736D6D" />
  <path
    d="M184.457 96.2841C184.457 96.6705 184.351 96.9867 184.141 97.2502C183.93 97.5137 183.596 97.6366 183.157 97.6366C182.735 97.6366 182.402 97.5137 182.191 97.2502C181.98 96.9867 181.875 96.6705 181.875 96.2841C181.875 95.8977 181.98 95.5815 182.191 95.3005C182.402 95.037 182.718 94.8965 183.157 94.8965C183.578 94.8965 183.912 95.037 184.123 95.3005C184.351 95.5815 184.457 95.9153 184.457 96.2841ZM184.281 113.884H181.998V99.9728H184.281V113.884Z"
    fill="#736D6D" />
  <path
    d="M190.833 96.6001V99.9726H192.923V101.817H190.833V110.459C190.833 111.003 190.921 111.425 191.096 111.706C191.272 111.987 191.588 112.128 192.027 112.128C192.326 112.128 192.624 112.075 192.941 111.97L192.923 113.884C192.414 114.06 191.887 114.148 191.342 114.148C190.446 114.148 189.761 113.831 189.287 113.182C188.813 112.532 188.584 111.636 188.584 110.459V101.817H186.459V99.9726H188.584V96.6001H190.833Z"
    fill="#736D6D" />
  <path
    d="M202.795 113.884C202.654 113.586 202.566 113.076 202.496 112.374C201.688 113.551 200.669 114.148 199.405 114.148C198.14 114.148 197.156 113.796 196.454 113.094C195.751 112.391 195.4 111.39 195.4 110.108C195.4 108.685 195.874 107.578 196.84 106.735C197.806 105.91 199.124 105.488 200.792 105.471H202.461V103.995C202.461 103.17 202.285 102.572 201.916 102.221C201.548 101.87 200.985 101.694 200.23 101.694C199.545 101.694 198.983 101.905 198.561 102.309C198.14 102.713 197.912 103.24 197.912 103.855H195.628C195.628 103.152 195.839 102.467 196.26 101.817C196.682 101.167 197.244 100.658 197.964 100.289C198.667 99.92 199.475 99.7444 200.336 99.7444C201.758 99.7444 202.847 100.096 203.585 100.798C204.323 101.501 204.709 102.537 204.727 103.89V110.916C204.727 111.987 204.885 112.918 205.166 113.709V113.919H202.795V113.884ZM199.756 112.075C200.318 112.075 200.845 111.917 201.354 111.618C201.864 111.302 202.233 110.916 202.461 110.459V107.139H201.179C200.107 107.157 199.247 107.403 198.614 107.859C197.982 108.334 197.683 108.984 197.683 109.827C197.683 110.617 197.841 111.179 198.158 111.548C198.474 111.899 199.001 112.075 199.756 112.075Z"
    fill="#736D6D" />
  <path d="M210.699 113.884H208.416V94.1411H210.699V113.884Z" fill="#736D6D" />
  <path
    d="M22.3312 168.652L22.2961 164.454H20.4518V163.699C21.0314 163.4 21.9624 163.26 23.1919 163.26C23.5959 163.26 23.8594 163.365 24.0175 163.558L31.5353 173.834C31.4651 168.582 31.2719 165.192 30.9206 163.646C30.9206 163.646 30.9381 163.646 30.9733 163.628C31.0084 163.611 31.0611 163.593 31.1665 163.576C31.2543 163.558 31.3948 163.523 31.5529 163.488L32.2379 163.33C32.3082 163.295 32.396 163.277 32.5365 163.277C32.6771 163.277 32.7649 163.312 32.8351 163.382C32.9054 163.453 32.9581 163.558 32.9932 163.699C33.0459 163.909 33.0635 164.331 33.0635 164.963C33.0635 165.596 33.0635 166.246 33.0459 166.895C33.0284 167.545 33.0108 168.213 32.9757 168.933C32.9581 169.653 32.923 170.373 32.8878 171.129C32.8527 171.884 32.8176 172.622 32.7825 173.342C32.7122 174.712 32.6244 175.977 32.5365 177.153H31.6583C31.4651 177.153 31.3246 177.118 31.2192 177.066C31.1313 177.013 31.0435 176.925 30.9557 176.82L23.7716 166.895C23.9824 169.442 24.0702 171.375 24.0702 172.71C24.0702 174.413 24.0351 175.555 23.9648 176.135C23.8945 176.714 23.8418 177.066 23.7891 177.241L22.6123 177.013C22.1029 176.908 21.8394 176.627 21.8394 176.152C21.8394 176.012 21.857 175.819 21.9097 175.573C21.9624 175.327 22.0151 175.028 22.0678 174.659C22.1205 174.29 22.1732 173.834 22.2083 173.289C22.2961 172.2 22.3312 170.672 22.3312 168.652Z"
    fill="#464141" />
  <path
    d="M55.3887 163.26C56.0386 163.26 56.3723 163.576 56.3723 164.208V171.743C56.3723 173.5 55.8278 174.888 54.7563 175.906C53.7551 176.855 52.4729 177.329 50.9271 177.329C48.0816 177.329 46.2548 176.275 45.4644 174.15C45.2009 173.447 45.078 172.639 45.078 171.726V164.454H43.2161V163.699C43.9538 163.4 44.9023 163.26 46.0616 163.26C46.6061 163.26 46.9399 163.277 47.0453 163.312C47.2209 163.365 47.3087 163.505 47.3087 163.751V171.761C47.3087 172.903 47.5722 173.886 48.0992 174.694C48.7139 175.66 49.6624 176.135 50.9447 176.135C52.6309 176.135 53.7375 175.344 54.2821 173.763C54.4928 173.149 54.5807 172.481 54.5807 171.726V166.298C54.5807 165.35 54.5455 164.682 54.4577 164.278C54.3699 163.874 54.3172 163.628 54.3172 163.541C54.5455 163.347 54.9144 163.26 55.3887 163.26Z"
    fill="#464141" />
  <path
    d="M69.669 166.386C69.669 167.3 70.477 168.108 72.1281 168.793L73.2874 169.284C74.7102 169.917 75.729 170.584 76.3086 171.287C76.818 171.902 77.0815 172.569 77.0815 173.272C77.0815 173.974 76.9585 174.572 76.7126 175.063C76.4667 175.555 76.133 175.959 75.7114 176.293C74.8507 176.995 73.7617 177.329 72.4619 177.329C70.6 177.329 68.984 176.873 67.6139 175.959C67.2099 175.696 66.9991 175.415 66.9991 175.134C66.9991 174.993 67.0518 174.888 67.1397 174.782L68.1233 173.623L69.1421 174.413C70.5824 175.538 71.7241 176.082 72.5673 176.082C73.1645 176.082 73.6914 175.889 74.1481 175.52C74.6224 175.134 74.8507 174.642 74.8507 174.045C74.8507 173.008 74.0779 172.077 72.5146 171.269C72.0754 171.041 71.5309 170.795 70.9162 170.532C70.3014 170.268 69.7569 169.987 69.265 169.653C68.7732 169.32 68.4044 169.003 68.1409 168.67C67.7017 168.108 67.4734 167.458 67.4734 166.72C67.4734 165.051 68.4746 163.945 70.477 163.383C71.2499 163.172 72.093 163.049 72.9888 163.049C74.1657 163.049 75.1142 163.189 75.8344 163.47C76.2735 163.646 76.5018 163.874 76.5018 164.138C76.5018 164.243 76.4667 164.366 76.3789 164.507L75.606 165.824L74.7278 165.315C73.6212 164.665 72.6024 164.331 71.689 164.331C70.7756 164.331 70.1609 164.718 69.8271 165.473C69.7393 165.754 69.669 166.035 69.669 166.386Z"
    fill="#464141" />
  <path
    d="M100.671 175.45C99.4067 176.609 98.3528 177.206 97.5273 177.206C97.1409 177.206 96.8598 177.013 96.7017 176.644L95.2614 173.307H89.4298C89.2366 174.009 89.1312 174.642 89.1312 175.239C89.1312 175.836 89.1839 176.293 89.2893 176.679L87.7962 177.083C87.6382 177.118 87.4976 177.136 87.3571 177.136C86.9707 177.136 86.7775 176.943 86.7775 176.574C86.9004 175.555 87.1815 174.501 87.5855 173.377C88.007 172.271 88.3583 171.34 88.6745 170.602C89.5 168.758 90.0973 167.458 90.4486 166.702C91.2039 165.192 91.6606 164.261 91.8538 163.927C92.0294 163.593 92.1172 163.418 92.1172 163.418H93.1009C93.4171 163.418 93.6454 163.453 93.7684 163.541C93.9616 163.664 94.1197 163.874 94.2426 164.208L98.6515 175.415L100.338 174.747L100.671 175.45ZM92.3807 165.631L90.8174 169.179C90.308 170.338 89.9567 171.287 89.7635 172.007H94.8047L92.5037 165.631H92.3807Z"
    fill="#464141" />
  <path
    d="M110.894 168.652L110.859 164.454H109.015V163.699C109.594 163.4 110.525 163.26 111.755 163.26C112.159 163.26 112.422 163.365 112.58 163.558L120.098 173.834C120.028 168.582 119.835 165.192 119.484 163.646C119.484 163.646 119.501 163.646 119.536 163.628C119.571 163.611 119.624 163.593 119.729 163.576C119.817 163.558 119.958 163.523 120.116 163.488L120.801 163.33C120.871 163.295 120.959 163.277 121.1 163.277C121.24 163.277 121.328 163.312 121.398 163.382C121.468 163.453 121.521 163.558 121.556 163.699C121.609 163.909 121.626 164.331 121.626 164.963C121.626 165.596 121.626 166.246 121.609 166.895C121.591 167.545 121.574 168.213 121.539 168.933C121.521 169.653 121.486 170.373 121.451 171.129C121.416 171.884 121.381 172.622 121.345 173.342C121.275 174.712 121.187 175.977 121.1 177.153H120.221C120.028 177.153 119.888 177.118 119.782 177.066C119.694 177.013 119.606 176.925 119.519 176.82L112.335 166.895C112.545 169.442 112.633 171.375 112.633 172.71C112.633 174.413 112.598 175.555 112.528 176.135C112.458 176.714 112.405 177.066 112.352 177.241L111.175 177.013C110.666 176.908 110.402 176.627 110.402 176.152C110.402 176.012 110.42 175.819 110.473 175.573C110.525 175.327 110.578 175.028 110.631 174.659C110.683 174.29 110.736 173.834 110.771 173.289C110.842 172.2 110.894 170.672 110.894 168.652Z"
    fill="#464141" />
  <path
    d="M137.857 177.136C137.084 177.136 136.697 176.82 136.697 176.188V164.805C135.362 164.805 133.94 164.928 132.394 165.192C132.078 165.245 131.832 165.297 131.656 165.315C131.656 165.315 131.656 165.28 131.639 165.192C131.621 165.104 131.603 164.999 131.568 164.893C131.498 164.595 131.48 164.349 131.48 164.138C131.48 163.927 131.568 163.787 131.762 163.681C131.955 163.576 132.201 163.523 132.534 163.488C132.798 163.453 133.079 163.435 133.413 163.435C133.5 163.435 133.588 163.435 133.676 163.453C134.115 163.453 134.572 163.47 135.081 163.47C136.381 163.47 137.769 163.47 139.262 163.47C140.755 163.47 142.318 163.365 143.934 163.154C143.934 163.154 143.952 163.189 143.969 163.26C143.987 163.312 144.004 163.4 144.022 163.506C144.075 163.804 144.11 164.033 144.11 164.208C144.11 164.384 144.057 164.507 143.934 164.595C143.829 164.682 143.671 164.753 143.495 164.788C143.232 164.858 142.669 164.876 141.844 164.876C141.018 164.876 140.052 164.858 138.963 164.823V173.992C138.963 174.958 138.998 175.661 139.086 176.082L139.244 176.855C138.823 177.031 138.366 177.136 137.857 177.136Z"
    fill="#464141" />
  <path
    d="M165.662 175.45C164.397 176.609 163.344 177.206 162.518 177.206C162.132 177.206 161.851 177.013 161.692 176.644L160.252 173.307H154.421C154.227 174.009 154.122 174.642 154.122 175.239C154.122 175.836 154.175 176.293 154.28 176.679L152.787 177.083C152.629 177.118 152.488 177.136 152.348 177.136C151.961 177.136 151.768 176.943 151.768 176.574C151.891 175.555 152.172 174.501 152.576 173.377C152.998 172.271 153.349 171.34 153.665 170.602C154.491 168.758 155.088 167.458 155.439 166.702C156.195 165.192 156.651 164.261 156.844 163.927C157.02 163.593 157.108 163.418 157.108 163.418H158.092C158.408 163.418 158.636 163.453 158.759 163.541C158.952 163.664 159.11 163.874 159.233 164.208L163.642 175.415L165.328 174.747L165.662 175.45ZM157.354 165.631L155.791 169.179C155.281 170.338 154.93 171.287 154.737 172.007H159.778L157.477 165.631H157.354Z"
    fill="#464141" />
  <path
    d="M185.3 167.581C185.3 169.495 184.457 170.742 182.753 171.339L185.511 175.45L187.056 174.431L187.531 175.081C186.916 175.924 186.231 176.539 185.44 176.925C185.159 177.066 184.896 177.136 184.668 177.136C184.176 177.136 183.789 176.908 183.526 176.468L180.557 171.691H180.188C179.468 171.691 178.748 171.656 178.046 171.603V173.957C178.046 174.888 178.133 175.713 178.309 176.433C178.344 176.591 178.379 176.714 178.397 176.82C177.993 177.031 177.501 177.154 176.957 177.154C176.184 177.154 175.797 176.837 175.797 176.205V164.735L173.953 164.858V164.015C174.041 163.997 174.146 163.945 174.251 163.909C174.374 163.857 174.533 163.804 174.726 163.751C174.919 163.699 175.165 163.646 175.463 163.593C175.762 163.541 176.113 163.488 176.535 163.453C177.483 163.347 178.485 163.295 179.521 163.295C180.557 163.295 181.4 163.365 182.05 163.488C182.7 163.611 183.262 163.839 183.737 164.155C184.773 164.805 185.3 165.965 185.3 167.581ZM179.732 164.524C179.047 164.524 178.502 164.559 178.046 164.612V170.233C178.45 170.373 179.012 170.444 179.714 170.444C180.434 170.444 180.996 170.356 181.4 170.198C181.822 170.04 182.138 169.811 182.384 169.548C182.806 169.074 182.999 168.424 182.999 167.563C182.999 166.597 182.806 165.877 182.437 165.42C181.945 164.823 181.032 164.524 179.732 164.524Z"
    fill="#464141" />
  <path
    d="M210.207 175.45C208.942 176.609 207.888 177.206 207.063 177.206C206.676 177.206 206.395 177.013 206.237 176.644L204.797 173.307H198.965C198.772 174.009 198.667 174.642 198.667 175.239C198.667 175.836 198.72 176.293 198.825 176.679L197.332 177.083C197.174 177.118 197.033 177.136 196.893 177.136C196.506 177.136 196.313 176.943 196.313 176.574C196.436 175.555 196.717 174.501 197.121 173.377C197.543 172.271 197.894 171.34 198.21 170.602C199.036 168.758 199.633 167.458 199.984 166.702C200.74 165.192 201.196 164.261 201.389 163.927C201.565 163.593 201.653 163.418 201.653 163.418H202.637C202.953 163.418 203.181 163.453 203.304 163.541C203.497 163.664 203.655 163.874 203.778 164.208L208.187 175.415L209.873 174.747L210.207 175.45ZM201.916 165.631L200.353 169.179C199.844 170.338 199.492 171.287 199.299 172.007H204.34L202.039 165.631H201.916Z"
    fill="#464141" />
</svg>