<svg width="528" height="200" viewBox="0 0 528 200" fill="none" xmlns="http://www.w3.org/2000/svg">
<g clip-path="url(#clip0_919_1482)">
<path d="M418.849 18.7075H395.9L381.086 114.911H403.847L418.849 18.7075Z" fill="#EE3124"/>
<path d="M72.8376 18.7075H13.8779C7.99792 18.7075 2.96854 22.932 1.95238 28.7206L0 39.8698H22.127L8.93416 114.911H33.5331L46.7259 39.8755H69.127L72.8376 18.7132V18.7075Z" fill="#465374"/>
<path d="M53.8677 87.6976C53.8677 102.951 61.426 115.185 76.8168 115.185C82.7253 115.185 89.8726 112.85 94.5481 107.764C94.6223 111.731 97.8648 114.911 101.832 114.911H115.436L126.705 51.1446C118.045 46.1952 109.117 43.7233 100.183 43.4493C75.8577 42.6272 53.8677 59.114 53.8677 87.7033V87.6976ZM96.4719 91.5453C93.5833 95.1189 90.0096 96.3577 87.6748 96.3577C79.4256 96.3577 75.7207 90.3122 77.5018 81.104C79.4256 70.6571 85.1972 63.3727 93.3036 63.0987C95.6384 62.9617 98.39 63.3727 101.273 64.4745L96.4605 91.551L96.4719 91.5453Z" fill="#465374"/>
<path d="M226.197 47.4336C216.714 42.4841 200.77 43.3119 191.425 52.52C187.029 44.2709 165.998 38.9162 141.399 50.3222L129.993 114.916H142.124C148.141 114.916 153.29 110.595 154.335 104.669L161.191 65.7186C169.161 61.3229 178.78 64.2058 177.136 73.551L169.851 114.916H180.213C186.224 114.916 191.368 110.606 192.418 104.686L198.024 73.14C198.983 67.2314 203.111 63.9318 207.643 63.9318C212.176 63.9318 215.476 66.6777 214.38 73.14L206.958 114.916H218.81C224.832 114.916 229.981 110.589 231.02 104.664L236.507 73.414C238.841 59.9471 234.172 51.561 226.197 47.4393V47.4336Z" fill="#465374"/>
<path d="M500.889 43.4434C476.564 42.6214 454.574 59.1082 454.574 87.6975C454.574 102.951 462.133 115.185 477.523 115.185C483.432 115.185 490.579 112.85 495.249 107.764C495.323 111.731 498.566 114.911 502.533 114.911H516.137L527.406 51.1445C518.746 46.195 509.818 43.7231 500.883 43.4491L500.889 43.4434ZM497.178 91.5451C494.295 95.1188 490.722 96.3576 488.381 96.3576C480.132 96.3576 476.427 90.3121 478.208 81.1039C480.132 70.6569 485.904 63.3726 494.01 63.0986C496.345 62.9615 499.097 63.3726 501.979 64.4744L497.167 91.5508L497.178 91.5451Z" fill="#465374"/>
<path d="M413.546 94.8732L421.738 114.911H446.885L447.159 113.261L431.095 78.0781L413.546 94.8732Z" fill="#465374"/>
<path d="M479.288 0L411.171 62.3792L404.064 69.2811C404.064 69.2811 397.921 63.2755 389.152 57.1044C382.662 52.5374 374.738 47.8848 366.78 45.4928C364.439 44.6708 362.122 44.254 359.992 44.0485C359.872 44.0371 359.758 44.0257 359.638 44.0143C359.456 43.9971 359.273 43.9857 359.09 43.9743C357.977 43.8773 356.864 43.8259 355.768 43.8601C342.301 43.8601 327.184 51.2815 324.57 66.5352C322.098 80.8298 333.641 88.3882 345.184 89.7583C349.168 90.3063 350.407 91.9562 349.996 93.743C349.448 95.8038 347.108 97.0426 342.849 97.0426C338.482 96.7972 333.372 94.9475 329.582 91.2083L315.921 104.584C320.813 112.353 331.854 116.144 340.919 116.144C353.564 116.144 373.488 109.408 373.488 89.4843C373.488 76.7024 362.082 71.2049 351.635 69.6921C348.335 69.2811 346.685 67.6313 347.096 65.8444C347.507 64.1946 349.848 62.5448 353.005 62.5448C353.005 62.5448 357.309 61.7627 365.65 65.8102C369.617 67.734 374.492 70.7425 380.27 75.4693C382.028 76.9079 383.649 78.2381 385.196 79.5054C399.371 91.1341 404.697 95.6611 404.697 95.6611L405.388 94.9989L411.005 89.627L428.554 72.8319L437.248 64.5143L457.395 45.2359L504.674 0H479.288Z" fill="#465374"/>
<path d="M243.86 87.6976C243.86 102.951 251.418 115.185 266.809 115.185C272.717 115.185 279.865 112.85 284.54 107.764C284.614 111.731 287.857 114.911 291.825 114.911H305.428L316.697 51.1446C308.037 46.1952 299.109 43.7233 290.175 43.4493C265.85 42.6272 243.86 59.114 243.86 87.7033V87.6976ZM286.464 91.5453C283.575 95.1189 280.002 96.3577 277.667 96.3577C269.418 96.3577 265.713 90.3122 267.494 81.104C269.418 70.6571 275.189 63.3727 283.296 63.0987C285.631 62.9617 288.382 63.3727 291.265 64.4745L286.453 91.551L286.464 91.5453Z" fill="#465374"/>
</g>
<path d="M243.867 174.125H257.186V178.165H238.899V140.117H243.867V174.125Z" fill="#465374"/>
<path d="M275.508 178.656C272.706 178.656 270.159 178.019 267.866 176.746C265.61 175.472 263.826 173.671 262.516 171.341C261.243 168.976 260.606 166.247 260.606 163.153C260.606 160.096 261.261 157.403 262.571 155.074C263.917 152.709 265.737 150.907 268.03 149.67C270.322 148.396 272.888 147.76 275.726 147.76C278.565 147.76 281.131 148.396 283.423 149.67C285.716 150.907 287.517 152.691 288.828 155.02C290.174 157.349 290.847 160.06 290.847 163.153C290.847 166.247 290.156 168.976 288.773 171.341C287.426 173.671 285.589 175.472 283.26 176.746C280.931 178.019 278.347 178.656 275.508 178.656ZM275.508 174.289C277.291 174.289 278.965 173.871 280.53 173.034C282.095 172.197 283.351 170.941 284.297 169.267C285.279 167.593 285.771 165.555 285.771 163.153C285.771 160.751 285.298 158.713 284.351 157.039C283.405 155.365 282.168 154.128 280.639 153.328C279.111 152.49 277.455 152.072 275.672 152.072C273.852 152.072 272.178 152.49 270.65 153.328C269.158 154.128 267.957 155.365 267.047 157.039C266.137 158.713 265.682 160.751 265.682 163.153C265.682 165.592 266.119 167.648 266.992 169.322C267.902 170.996 269.103 172.251 270.595 173.088C272.087 173.889 273.725 174.289 275.508 174.289Z" fill="#465374"/>
<path d="M314.082 178.165L302.346 164.955V178.165H297.379V137.77H302.346V161.516L313.864 148.251H320.797L306.713 163.153L320.851 178.165H314.082Z" fill="#465374"/>
<path d="M352.766 162.062C352.766 163.008 352.711 164.008 352.602 165.064H328.693C328.875 168.012 329.875 170.322 331.695 171.996C333.551 173.634 335.789 174.453 338.409 174.453C340.556 174.453 342.34 173.962 343.759 172.979C345.215 171.96 346.234 170.614 346.816 168.94H352.165C351.365 171.815 349.764 174.162 347.362 175.981C344.96 177.765 341.976 178.656 338.409 178.656C335.571 178.656 333.023 178.019 330.767 176.746C328.547 175.472 326.8 173.671 325.527 171.341C324.253 168.976 323.616 166.247 323.616 163.153C323.616 160.06 324.235 157.349 325.472 155.02C326.709 152.691 328.438 150.907 330.658 149.67C332.914 148.396 335.498 147.76 338.409 147.76C341.248 147.76 343.759 148.378 345.942 149.616C348.126 150.853 349.8 152.563 350.965 154.747C352.165 156.894 352.766 159.332 352.766 162.062ZM347.635 161.024C347.635 159.132 347.216 157.513 346.379 156.166C345.542 154.783 344.396 153.746 342.94 153.055C341.521 152.327 339.938 151.963 338.191 151.963C335.68 151.963 333.533 152.763 331.75 154.365C330.003 155.966 329.002 158.186 328.747 161.024H347.635Z" fill="#465374"/>
<path d="M365.382 152.345V169.977C365.382 171.432 365.691 172.47 366.31 173.088C366.929 173.671 368.002 173.962 369.531 173.962H373.188V178.165H368.712C365.946 178.165 363.872 177.528 362.489 176.254C361.106 174.981 360.415 172.888 360.415 169.977V152.345H356.539V148.251H360.415V140.718H365.382V148.251H373.188V152.345H365.382Z" fill="#465374"/>
<path d="M405.606 140.117C409.754 140.117 413.339 140.9 416.359 142.465C419.416 143.993 421.745 146.195 423.347 149.07C424.984 151.945 425.803 155.329 425.803 159.223C425.803 163.117 424.984 166.501 423.347 169.376C421.745 172.215 419.416 174.398 416.359 175.927C413.339 177.419 409.754 178.165 405.606 178.165H393.76V140.117H405.606ZM405.606 174.071C410.518 174.071 414.267 172.779 416.851 170.195C419.434 167.575 420.726 163.918 420.726 159.223C420.726 154.492 419.416 150.798 416.796 148.142C414.212 145.485 410.482 144.157 405.606 144.157H398.727V174.071H405.606Z" fill="#465374"/>
<path d="M459.649 162.062C459.649 163.008 459.594 164.008 459.485 165.064H435.576C435.758 168.012 436.759 170.322 438.578 171.996C440.434 173.634 442.672 174.453 445.293 174.453C447.44 174.453 449.223 173.962 450.642 172.979C452.098 171.96 453.117 170.614 453.699 168.94H459.049C458.248 171.815 456.647 174.162 454.245 175.981C451.843 177.765 448.859 178.656 445.293 178.656C442.454 178.656 439.907 178.019 437.65 176.746C435.43 175.472 433.684 173.671 432.41 171.341C431.136 168.976 430.499 166.247 430.499 163.153C430.499 160.06 431.118 157.349 432.355 155.02C433.593 152.691 435.321 150.907 437.541 149.67C439.797 148.396 442.381 147.76 445.293 147.76C448.131 147.76 450.642 148.378 452.826 149.616C455.009 150.853 456.683 152.563 457.848 154.747C459.049 156.894 459.649 159.332 459.649 162.062ZM454.518 161.024C454.518 159.132 454.099 157.513 453.262 156.166C452.425 154.783 451.279 153.746 449.823 153.055C448.404 152.327 446.821 151.963 445.074 151.963C442.563 151.963 440.416 152.763 438.633 154.365C436.886 155.966 435.885 158.186 435.63 161.024H454.518Z" fill="#465374"/>
<path d="M476.796 178.656C474.503 178.656 472.447 178.274 470.628 177.51C468.808 176.709 467.371 175.617 466.315 174.235C465.26 172.815 464.678 171.196 464.568 169.376H469.7C469.845 170.868 470.537 172.087 471.774 173.034C473.048 173.98 474.703 174.453 476.741 174.453C478.634 174.453 480.126 174.034 481.218 173.197C482.309 172.36 482.855 171.305 482.855 170.031C482.855 168.721 482.273 167.757 481.108 167.138C479.944 166.483 478.142 165.846 475.704 165.228C473.484 164.645 471.665 164.063 470.245 163.481C468.863 162.862 467.662 161.971 466.643 160.806C465.66 159.605 465.169 158.04 465.169 156.111C465.169 154.583 465.624 153.182 466.534 151.908C467.443 150.635 468.735 149.634 470.409 148.906C472.083 148.142 473.994 147.76 476.141 147.76C479.453 147.76 482.127 148.597 484.165 150.271C486.203 151.945 487.295 154.237 487.441 157.149H482.473C482.364 155.584 481.727 154.328 480.563 153.382C479.434 152.436 477.906 151.963 475.977 151.963C474.194 151.963 472.775 152.345 471.719 153.109C470.664 153.873 470.136 154.874 470.136 156.111C470.136 157.094 470.446 157.913 471.064 158.568C471.719 159.187 472.52 159.696 473.466 160.096C474.449 160.46 475.795 160.879 477.506 161.352C479.653 161.934 481.4 162.516 482.746 163.099C484.093 163.645 485.239 164.482 486.185 165.61C487.168 166.738 487.677 168.212 487.714 170.031C487.714 171.669 487.259 173.143 486.349 174.453C485.439 175.763 484.147 176.8 482.473 177.564C480.835 178.292 478.943 178.656 476.796 178.656Z" fill="#465374"/>
<path d="M492.87 163.099C492.87 160.042 493.489 157.367 494.726 155.074C495.963 152.745 497.655 150.944 499.803 149.67C501.986 148.396 504.406 147.76 507.063 147.76C509.683 147.76 511.957 148.324 513.886 149.452C515.815 150.58 517.252 151.999 518.199 153.71V148.251H523.221V178.165H518.199V172.597C517.216 174.344 515.742 175.799 513.777 176.964C511.848 178.092 509.592 178.656 507.008 178.656C504.352 178.656 501.95 178.001 499.803 176.691C497.655 175.381 495.963 173.543 494.726 171.178C493.489 168.812 492.87 166.119 492.87 163.099ZM518.199 163.153C518.199 160.897 517.744 158.932 516.834 157.258C515.924 155.584 514.687 154.31 513.122 153.437C511.594 152.527 509.901 152.072 508.045 152.072C506.189 152.072 504.497 152.509 502.969 153.382C501.44 154.255 500.221 155.529 499.311 157.203C498.401 158.877 497.947 160.842 497.947 163.099C497.947 165.391 498.401 167.393 499.311 169.103C500.221 170.777 501.44 172.069 502.969 172.979C504.497 173.852 506.189 174.289 508.045 174.289C509.901 174.289 511.594 173.852 513.122 172.979C514.687 172.069 515.924 170.777 516.834 169.103C517.744 167.393 518.199 165.41 518.199 163.153Z" fill="#465374"/>
<defs>
<clipPath id="clip0_919_1482">
<rect width="527.412" height="116.144" fill="white"/>
</clipPath>
</defs>
</svg>
