<svg width="528" height="200" viewBox="0 0 528 200" fill="none" xmlns="http://www.w3.org/2000/svg">
<g clip-path="url(#clip0_919_1481)">
<path d="M418.849 18.7075H395.9L381.086 114.911H403.847L418.849 18.7075Z" fill="#EE3124"/>
<path d="M72.8376 18.7075H13.8779C7.99792 18.7075 2.96854 22.932 1.95238 28.7206L0 39.8698H22.127L8.93416 114.911H33.5331L46.7259 39.8755H69.127L72.8376 18.7132V18.7075Z" fill="#465374"/>
<path d="M53.8677 87.6974C53.8677 102.951 61.426 115.185 76.8168 115.185C82.7253 115.185 89.8726 112.85 94.5481 107.764C94.6223 111.731 97.8648 114.911 101.832 114.911H115.436L126.705 51.1444C118.045 46.1949 109.117 43.723 100.183 43.449C75.8577 42.627 53.8677 59.1138 53.8677 87.7031V87.6974ZM96.4719 91.545C93.5833 95.1187 90.0096 96.3575 87.6748 96.3575C79.4256 96.3575 75.7207 90.312 77.5018 81.1038C79.4256 70.6568 85.1972 63.3725 93.3036 63.0985C95.6384 62.9615 98.39 63.3725 101.273 64.4743L96.4605 91.5507L96.4719 91.545Z" fill="#465374"/>
<path d="M226.197 47.4338C216.714 42.4843 200.77 43.3121 191.425 52.5203C187.029 44.2712 165.998 38.9164 141.399 50.3224L129.993 114.917H142.124C148.141 114.917 153.29 110.595 154.335 104.67L161.191 65.7189C169.161 61.3231 178.78 64.2061 177.136 73.5512L169.851 114.917H180.213C186.224 114.917 191.368 110.607 192.418 104.687L198.024 73.1402C198.983 67.2317 203.111 63.932 207.643 63.932C212.176 63.932 215.476 66.6779 214.38 73.1402L206.958 114.917H218.81C224.832 114.917 229.981 110.589 231.02 104.664L236.507 73.4142C238.841 59.9473 234.172 51.5612 226.197 47.4395V47.4338Z" fill="#465374"/>
<path d="M500.889 43.4434C476.564 42.6214 454.574 59.1082 454.574 87.6975C454.574 102.951 462.133 115.185 477.523 115.185C483.432 115.185 490.579 112.85 495.249 107.764C495.323 111.731 498.566 114.911 502.533 114.911H516.137L527.406 51.1445C518.746 46.195 509.818 43.7231 500.883 43.4491L500.889 43.4434ZM497.178 91.5451C494.295 95.1188 490.722 96.3576 488.381 96.3576C480.132 96.3576 476.427 90.3121 478.208 81.1039C480.132 70.6569 485.904 63.3726 494.01 63.0986C496.345 62.9615 499.097 63.3726 501.979 64.4744L497.167 91.5508L497.178 91.5451Z" fill="#465374"/>
<path d="M413.546 94.8732L421.738 114.911H446.885L447.159 113.261L431.095 78.0781L413.546 94.8732Z" fill="#465374"/>
<path d="M479.288 0L411.171 62.3792L404.064 69.2811C404.064 69.2811 397.921 63.2755 389.152 57.1044C382.662 52.5374 374.738 47.8848 366.78 45.4928C364.439 44.6708 362.122 44.254 359.992 44.0485C359.872 44.0371 359.758 44.0257 359.638 44.0143C359.456 43.9971 359.273 43.9857 359.09 43.9743C357.977 43.8773 356.864 43.8259 355.768 43.8601C342.301 43.8601 327.184 51.2815 324.57 66.5352C322.098 80.8298 333.641 88.3882 345.184 89.7583C349.168 90.3063 350.407 91.9562 349.996 93.743C349.448 95.8038 347.108 97.0426 342.849 97.0426C338.482 96.7972 333.372 94.9475 329.582 91.2083L315.921 104.584C320.813 112.353 331.854 116.144 340.919 116.144C353.564 116.144 373.488 109.408 373.488 89.4843C373.488 76.7024 362.082 71.2049 351.635 69.6921C348.335 69.2811 346.685 67.6313 347.096 65.8444C347.507 64.1946 349.848 62.5448 353.005 62.5448C353.005 62.5448 357.309 61.7627 365.65 65.8102C369.617 67.734 374.492 70.7425 380.27 75.4693C382.028 76.9079 383.649 78.2381 385.196 79.5054C399.371 91.1341 404.697 95.6611 404.697 95.6611L405.388 94.9989L411.005 89.627L428.554 72.8319L437.248 64.5143L457.395 45.2359L504.674 0H479.288Z" fill="#465374"/>
<path d="M243.86 87.6974C243.86 102.951 251.418 115.185 266.809 115.185C272.717 115.185 279.865 112.85 284.54 107.764C284.614 111.731 287.857 114.911 291.825 114.911H305.428L316.697 51.1444C308.037 46.1949 299.109 43.723 290.175 43.449C265.85 42.627 243.86 59.1138 243.86 87.7031V87.6974ZM286.464 91.545C283.575 95.1187 280.002 96.3575 277.667 96.3575C269.418 96.3575 265.713 90.312 267.494 81.1038C269.418 70.6568 275.189 63.3725 283.296 63.0985C285.631 62.9615 288.382 63.3725 291.265 64.4743L286.453 91.5507L286.464 91.545Z" fill="#465374"/>
</g>
<path d="M396.275 174.125H409.594V178.165H391.308V140.117H396.275V174.125Z" fill="#465374"/>
<path d="M427.916 178.656C425.114 178.656 422.567 178.019 420.274 176.746C418.018 175.472 416.235 173.671 414.924 171.341C413.651 168.976 413.014 166.247 413.014 163.153C413.014 160.096 413.669 157.403 414.979 155.074C416.326 152.709 418.145 150.907 420.438 149.67C422.731 148.396 425.296 147.76 428.135 147.76C430.973 147.76 433.539 148.396 435.832 149.67C438.124 150.907 439.926 152.691 441.236 155.02C442.582 157.349 443.255 160.06 443.255 163.153C443.255 166.247 442.564 168.976 441.181 171.341C439.835 173.671 437.997 175.472 435.668 176.746C433.339 178.019 430.755 178.656 427.916 178.656ZM427.916 174.289C429.7 174.289 431.374 173.871 432.938 173.034C434.503 172.197 435.759 170.941 436.705 169.267C437.688 167.593 438.179 165.555 438.179 163.153C438.179 160.751 437.706 158.713 436.76 157.039C435.813 155.365 434.576 154.128 433.048 153.328C431.519 152.49 429.863 152.072 428.08 152.072C426.261 152.072 424.586 152.49 423.058 153.328C421.566 154.128 420.365 155.365 419.455 157.039C418.545 158.713 418.091 160.751 418.091 163.153C418.091 165.592 418.527 167.648 419.401 169.322C420.31 170.996 421.511 172.251 423.003 173.088C424.496 173.889 426.133 174.289 427.916 174.289Z" fill="#465374"/>
<path d="M466.491 178.165L454.754 164.955V178.165H449.787V137.77H454.754V161.516L466.272 148.251H473.205L459.121 163.153L473.26 178.165H466.491Z" fill="#465374"/>
<path d="M505.174 162.062C505.174 163.008 505.12 164.008 505.01 165.064H481.101C481.283 168.012 482.284 170.322 484.103 171.996C485.959 173.634 488.197 174.453 490.818 174.453C492.965 174.453 494.748 173.962 496.167 172.979C497.623 171.96 498.642 170.614 499.224 168.94H504.574C503.773 171.815 502.172 174.162 499.77 175.981C497.368 177.765 494.384 178.656 490.818 178.656C487.979 178.656 485.432 178.019 483.175 176.746C480.955 175.472 479.209 173.671 477.935 171.341C476.661 168.976 476.024 166.247 476.024 163.153C476.024 160.06 476.643 157.349 477.88 155.02C479.118 152.691 480.846 150.907 483.066 149.67C485.322 148.396 487.906 147.76 490.818 147.76C493.656 147.76 496.167 148.378 498.351 149.616C500.534 150.853 502.208 152.563 503.373 154.747C504.574 156.894 505.174 159.332 505.174 162.062ZM500.043 161.024C500.043 159.132 499.624 157.513 498.787 156.166C497.95 154.783 496.804 153.746 495.348 153.055C493.929 152.327 492.346 151.963 490.599 151.963C488.088 151.963 485.941 152.763 484.158 154.365C482.411 155.966 481.41 158.186 481.156 161.024H500.043Z" fill="#465374"/>
<path d="M517.79 152.345V169.977C517.79 171.432 518.1 172.47 518.718 173.088C519.337 173.671 520.41 173.962 521.939 173.962H525.596V178.165H521.12C518.354 178.165 516.28 177.528 514.897 176.254C513.514 174.981 512.823 172.888 512.823 169.977V152.345H508.947V148.251H512.823V140.718H517.79V148.251H525.596V152.345H517.79Z" fill="#465374"/>
<defs>
<clipPath id="clip0_919_1481">
<rect width="527.412" height="116.144" fill="white"/>
</clipPath>
</defs>
</svg>
