<svg width="792" height="280" viewBox="0 0 792 280" fill="none" xmlns="http://www.w3.org/2000/svg">
<path d="M0 114.27V258.659C0 265.47 1.81907 270.465 5.45722 274.097C9.09536 277.73 14.5526 279.319 21.8289 279.319C27.5135 279.319 32.2885 278.411 35.9267 276.368V194.184C35.2445 174.659 34.5624 161.719 33.6528 155.589C35.4719 162.4 40.4744 175.114 48.6602 194.184L60.4842 221.427C61.8485 225.059 63.6675 227.557 65.9414 229.146C67.9878 230.735 70.4891 231.416 73.6724 231.416C77.3106 231.416 80.2666 230.962 82.7678 229.6L98.0025 194.411C103.687 181.47 108.69 168.53 113.237 155.589C112.328 161.265 111.646 174.205 110.736 194.184V258.659C110.736 265.47 112.328 270.465 115.966 274.097C119.604 277.73 124.834 279.319 131.883 279.319C137.795 279.319 142.57 278.411 146.663 276.368V144.919C146.663 133.568 144.616 125.622 140.978 121.081C137.34 116.541 130.973 114.27 121.878 114.27H101.641L73.4451 182.378L53.89 134.703C50.7066 127.211 47.0685 121.989 42.5208 118.811C37.9731 115.859 32.5159 114.27 25.6944 114.27H0Z" fill="#FF0025"/>
<path d="M171.202 236.184C168.019 239.135 166.427 242.541 166.427 246.627C166.427 252.984 168.701 258.886 173.476 263.881C178.024 268.876 184.845 272.962 193.486 275.686C202.127 278.638 212.359 280 223.956 280C236.689 280 247.831 277.957 257.836 273.643C267.841 269.557 275.572 263.654 281.029 255.935C286.486 248.216 289.215 239.362 289.215 229.373C289.215 221.2 287.85 214.162 285.349 207.805C282.848 201.449 278.073 196 271.024 191.005C263.975 186.238 254.198 182.378 241.464 179.427C231.914 177.384 224.638 175.341 219.863 173.524C215.088 171.708 211.677 169.438 209.858 166.714C207.811 164.216 206.902 160.811 206.902 156.497C206.902 151.503 208.948 147.416 213.041 144.238C217.134 141.059 222.819 139.243 230.55 139.243C238.736 139.243 246.239 141.286 253.061 145.373C259.882 149.459 264.43 154.908 266.704 162.173C272.616 161.038 277.163 158.995 280.347 155.816C283.53 152.865 285.122 149.232 285.122 145.146C285.122 139.016 282.848 133.341 278.3 128.346C273.753 123.351 267.159 119.265 258.973 116.314C250.787 113.589 241.237 112 230.55 112C218.271 112 207.811 114.043 198.716 117.903C189.621 121.762 182.572 127.211 177.569 134.249C172.567 141.514 170.066 149.914 170.066 159.449C170.066 172.162 173.931 182.832 181.662 191.005C189.393 199.405 202.127 205.535 219.863 209.622C228.048 211.438 233.96 213.027 238.053 214.389C241.919 215.751 245.102 218.022 247.831 220.746C250.559 223.47 251.924 227.557 251.924 232.551C251.924 238.908 249.423 243.903 244.875 247.308C240.1 250.941 233.051 252.53 223.956 252.53C215.088 252.53 207.129 250.714 200.08 246.627C192.804 242.541 187.801 237.092 185.073 229.827C178.934 231.189 174.386 233.232 171.202 236.184Z" fill="#FF0025"/>
<path d="M308.558 115.859V258.659C308.558 265.47 310.378 270.465 314.016 274.097C317.654 277.73 323.111 279.319 330.16 279.319C332.661 279.319 335.39 279.092 338.118 278.638C340.847 278.184 343.121 277.276 344.94 276.368V133.568C344.94 126.984 342.893 121.989 339.255 118.357C335.617 114.724 330.16 112.908 323.338 112.908C320.61 112.908 318.109 113.362 315.38 113.816C312.651 114.27 310.377 114.951 308.558 115.859Z" fill="#FF0025"/>
<path d="M393.957 270.919C403.507 277.049 414.422 280 427.155 280C436.705 280 445.346 277.73 452.622 272.735C459.898 267.741 464.674 261.384 467.175 253.211V260.703C467.175 267.514 468.539 272.508 471.495 275.232C474.451 277.957 478.999 279.319 484.911 279.319C490.368 279.319 494.916 278.411 498.554 276.368V186.692H429.202C428.747 187.373 428.519 189.189 428.519 192.141C428.519 200.086 430.566 205.989 434.886 209.849C439.207 213.935 445.573 215.751 454.214 215.751H463.537C463.537 226.422 460.808 235.049 455.578 241.405C450.348 247.762 443.072 250.941 433.977 250.941C423.062 250.941 414.649 246.854 408.964 238.227C403.052 229.6 400.324 216.659 400.324 198.951C400.324 180.108 403.052 165.805 408.964 155.816C414.876 146.054 425.109 141.059 439.889 141.059C448.757 141.059 456.26 143.103 462.172 146.735C468.084 150.595 473.087 156.497 476.725 164.443C482.409 163.308 486.73 161.265 489.686 158.086C492.642 155.135 494.233 151.276 494.233 146.508C494.233 140.605 491.732 134.93 486.957 129.481C481.955 124.259 475.361 119.946 466.947 116.768C458.307 113.589 448.984 112 438.979 112C423.744 112 410.556 115.178 399.187 121.535C387.818 127.892 378.95 137.2 372.583 149.686C366.216 162.4 363.26 177.838 363.26 196.227C363.26 214.843 365.989 230.281 371.446 242.768C376.903 255.481 384.407 264.789 393.957 270.919Z" fill="#FF0025"/>
<path d="M523.316 274.097C526.954 277.73 532.411 279.319 539.46 279.319C545.372 279.319 550.147 278.411 554.24 276.368V211.892H611.995V258.659C611.995 265.47 613.814 270.465 617.453 274.097C621.091 277.73 626.548 279.319 633.597 279.319C639.509 279.319 644.284 278.411 648.377 276.368V133.568C648.377 126.984 646.33 121.989 642.692 118.357C639.054 114.724 633.597 112.908 626.775 112.908C624.047 112.908 621.545 113.362 618.817 113.816C616.088 114.27 613.814 114.951 611.995 115.859V180.108H554.24V133.568C554.24 126.984 552.193 121.989 548.555 118.357C544.917 114.724 539.46 112.908 532.638 112.908C529.91 112.908 527.408 113.362 524.68 113.816C521.951 114.27 519.677 114.951 517.858 115.859V258.659C517.858 265.47 519.677 270.465 523.316 274.097Z" fill="#FF0025"/>
<path d="M660.117 114.27V124.032C660.117 130.389 661.709 135.157 665.347 138.562C668.985 141.968 673.988 143.557 680.809 143.557H707.868V258.659C707.868 265.47 709.687 270.465 713.325 274.097C716.963 277.73 722.42 279.319 729.469 279.319C731.971 279.319 734.699 279.092 737.428 278.638C740.156 278.184 742.43 277.276 744.249 276.368V143.557H792V133.795C792 127.665 790.181 122.897 786.543 119.492C782.905 116.086 777.902 114.27 771.308 114.27H660.117Z" fill="#FF0025"/>
<g clip-path="url(#clip0_318_1138)">
<path fill-rule="evenodd" clip-rule="evenodd" d="M258.516 58.1071C258.516 68.7222 251.85 75.8819 242.663 75.8819C233.476 75.8819 226.544 69.0538 226.544 58.1071C226.544 47.1604 233.254 40.3318 242.663 40.3318C252.072 40.3318 258.516 47.4919 258.516 58.1071ZM242.663 25.346C222.951 25.3158 209.143 39.3362 209.169 58.1075C209.196 76.8788 222.727 91.0077 242.663 90.9999C262.6 90.9921 275.844 76.6671 275.845 58.1075C275.847 39.548 262.376 25.3762 242.663 25.346Z" fill="#FF0025"/>
<path fill-rule="evenodd" clip-rule="evenodd" d="M85.653 25.346C76.1583 25.3284 69.0227 28.2569 62.8996 34.1173C56.7764 39.9776 53.3147 48.0043 53.3285 59.0812C53.3422 70.158 58.0386 78.5425 64.1329 83.438C70.2272 88.3336 77.5106 91.0013 87.7653 90.9999C98.02 90.9985 105.948 87.2974 110.001 84.7804V69.768C107.188 72.1421 98.5977 76.7889 89.9879 76.7889C81.378 76.7889 72.4883 73.9279 70.302 63.3219H113.882C114.093 61.6567 114.477 59.1489 114.468 56.5152C114.439 47.9506 112.575 42.265 108.163 36.1762C103.752 30.0874 95.1478 25.3636 85.653 25.346ZM84.8295 38.3856C88.8431 38.3856 91.6272 39.6479 93.7749 41.8917C95.9225 44.1354 97.3856 47.4809 97.6201 51.0783H70.6148C71.3531 47.9282 72.2057 45.6672 74.5842 42.906C76.9627 40.1447 80.8158 38.3856 84.8295 38.3856Z" fill="#FF0025"/>
<path fill-rule="evenodd" clip-rule="evenodd" d="M123.191 7.62939e-05V79.091C123.191 87.2695 129.049 91.0001 134.786 91.0001C140.524 91.0001 144.163 89.0991 144.163 89.0991C144.163 89.0991 140.664 86.2808 140.649 73.7551C140.634 61.6068 140.647 15.9328 140.649 10.5298C140.65 5.12674 137.185 7.62939e-05 130.795 7.62939e-05H123.191Z" fill="#FF0025"/>
<path fill-rule="evenodd" clip-rule="evenodd" d="M0 11.9075V20.8382H25.3595V79.091C25.3595 87.2695 31.2169 91.0001 36.9544 91.0001C42.6919 91.0001 46.3312 89.0991 46.3312 89.0991C46.3312 89.0991 42.8322 86.2808 42.8171 73.7551C42.8023 61.6068 42.8157 23.3004 42.8171 17.8974C42.8184 12.4944 36.4877 2.76598 26.0708 2.76601L9.97128 2.76606C4.69472 2.76607 0 7.04185 0 11.9075ZM37.2437 2.76601C36.9111 2.76601 36.6435 3.03222 36.6435 3.36311C36.6435 3.69399 36.9771 3.93945 37.2437 4.13735C38.3481 4.9574 41.7904 7.38537 43.4342 10.7072C45.078 14.029 45.1172 17.0435 46.1852 18.7848C47.2532 20.5262 48.9963 20.8382 50.8397 20.8382H64.0936C67.0222 20.8382 68.1731 18.8799 68.1731 16.5572V2.76601H37.2437Z" fill="#FF0025"/>
<path fill-rule="evenodd" clip-rule="evenodd" d="M152.096 0V89.9606H169.553C169.553 80.6255 169.554 71.2748 169.553 61.5185C173.327 65.8564 183.639 77.9166 184.95 79.4314C189.625 84.8344 192.978 89.9606 200.626 89.9606H214.589C214.589 89.9606 197.703 70.5486 196.152 68.7554C191.961 63.9123 188.759 59.2944 182.633 58.3887V57.7587C187.913 56.5664 190.982 52.1588 194.79 47.5467C196.27 45.7535 212.075 26.3415 212.075 26.3415H192.305L169.553 53.9638C169.553 53.9638 169.552 16.4254 169.553 0L152.096 0Z" fill="#FF0025"/>
<path fill-rule="evenodd" clip-rule="evenodd" d="M317.732 25.346C310.773 25.346 306.183 28.4176 304.11 30.7925C302.036 33.1675 302.374 33.8218 301.752 34.2772C300.564 29.6309 297.396 26.3501 291.959 26.3501H284.355V89.9606H301.813V57.1167C301.813 46.8144 306.587 40.1511 313.354 40.1706C320.121 40.1902 323.869 43.6216 323.869 51.5829V89.9606H341.327V57.388C341.327 48.129 345.092 40.1261 353.136 40.1706C361.179 40.2152 363.739 45.4622 363.739 52.3356V89.9606H381.064V47.7627C381.064 40.5705 378.926 35.2486 374.558 31.2444C370.189 27.2402 365.414 25.346 357.558 25.346C349.703 25.346 344.149 28.581 339.879 33.1956C339.134 34.0009 338.43 35.09 337.775 35.9961C336.685 33.6897 334.771 31.1639 333.131 29.8065C329.018 26.4011 324.691 25.346 317.732 25.346Z" fill="#FF0025"/>
<path fill-rule="evenodd" clip-rule="evenodd" d="M415.66 25.346C405.097 25.3272 399.404 28.6112 396.196 31.4198C392.989 34.2284 390.062 37.7864 390.036 45.487C390.009 53.1876 395.676 59.5406 406.854 62.9576C418.032 66.3746 422.666 67.5531 422.629 71.3076C422.592 75.0622 419.808 77.4525 411.948 77.4525C404.088 77.4525 396.146 73.9782 390.423 68.8389V84.6034C394.699 87.7841 402.967 90.9987 412.837 91.0001C422.706 91.0015 428.661 88.5989 432.094 85.8906C435.527 83.1823 439.477 78.8853 439.447 70.2963C439.418 61.7072 433.634 56.0566 424.816 52.9864C415.999 49.9163 407.745 48.8809 407.063 45.2944C406.382 41.7078 408.429 39.2807 414.928 38.6953C421.427 38.1099 431.979 41.4416 435.555 44.9675V30.383C432.221 28.463 426.224 25.3649 415.66 25.346Z" fill="#FF0025"/>
<path fill-rule="evenodd" clip-rule="evenodd" d="M476.49 25.346C466.996 25.3284 459.86 28.2569 453.737 34.1172C447.614 39.9776 444.152 48.0043 444.166 59.0811C444.18 70.158 448.876 78.5425 454.97 83.438C461.065 88.3335 468.348 91.0012 478.603 90.9999C488.857 90.9985 496.785 87.2974 500.838 84.7803V69.768C498.026 72.1421 489.435 76.7888 480.825 76.7888C472.215 76.7888 463.326 73.9278 461.139 63.3218H504.72C504.93 61.6566 505.314 59.1488 505.305 56.5152C505.276 47.9506 503.412 42.265 499.001 36.1762C494.589 30.0874 485.985 25.3636 476.49 25.346ZM475.667 38.3856C479.681 38.3856 482.465 39.6478 484.612 41.8916C486.76 44.1354 488.223 47.4809 488.458 51.0783H461.452C462.19 47.9282 463.043 45.6672 465.422 42.9059C467.8 40.1447 471.653 38.3856 475.667 38.3856Z" fill="#FF0025"/>
<path fill-rule="evenodd" clip-rule="evenodd" d="M514.028 7.62939e-05V79.091C514.028 87.2695 519.886 91.0001 525.623 91.0001C531.361 91.0001 535 89.0991 535 89.0991C535 89.0991 531.501 86.2808 531.486 73.7551C531.471 61.6068 531.486 15.9328 531.486 10.5298C531.486 5.12674 528.023 7.62939e-05 521.632 7.62939e-05H514.028Z" fill="#FF0025"/>
</g>
<defs>
<clipPath id="clip0_318_1138">
<rect width="535" height="91" fill="white"/>
</clipPath>
</defs>
</svg>
