<svg xmlns="http://www.w3.org/2000/svg" fill="none" viewBox="0 0 404 689">
  <g class="alur-jelajah-scn">
    <g class="Connector line">
      <path fill="#9D02FF" d="M333 420.5a1.5 1.5 0 0 0 0-3v3ZM93.66 448c.829 0 1.415-1.015 1-1.732L88 434.732c-.414-.717-1.586-.717-2 0l-6.66 11.536c-.415.717.171 1.732 1 1.732h13.32ZM333 417.5h-98.5v3H333v-3ZM209 443v22h3v-22h-3Zm-22.5 44.5H111v3h75.5v-3Zm-98-22.5v-18.5h-3V465h3Zm22.5 22.5c-12.426 0-22.5-10.074-22.5-22.5h-3c0 14.083 11.417 25.5 25.5 25.5v-3Zm98-22.5c0 12.426-10.074 22.5-22.5 22.5v3c14.083 0 25.5-11.417 25.5-25.5h-3Zm25.5-47.5c-14.083 0-25.5 11.417-25.5 25.5h3c0-12.426 10.074-22.5 22.5-22.5v-3Z" class="Shape"/>
    </g>
    <g class="Connector line">
      <path fill="#9D02FF" d="M85.5 266a1.5 1.5 0 0 0 3 0h-3Zm8.16-91c.829 0 1.415-1.015 1-1.732L88 161.732c-.414-.717-1.586-.717-2 0l-6.66 11.536c-.415.717.171 1.732 1 1.732h13.32Zm-5.16 91v-92.5h-3V266h3Z" class="Shape"/>
    </g>
    <g class="Connector line">
      <path fill="#9D02FF" d="M85.5 404a1.5 1.5 0 0 0 3 0h-3Zm8.16-91c.829 0 1.415-1.015 1-1.732L88 299.732c-.414-.717-1.586-.717-2 0l-6.66 11.536c-.415.717.171 1.732 1 1.732h13.32Zm-5.16 91v-92.5h-3V404h3Z" class="Shape"/>
    </g>
    <g class="Connector line">
      <path fill="#9D02FF" d="M85.5 131a1.5 1.5 0 0 0 3 0h-3Zm130.84 46c-.829 0-1.414 1.015-1 1.732l6.66 11.536c.414.717 1.586.717 2 0l6.66-11.536c.414-.717-.171-1.732-1-1.732h-13.32ZM88.5 131v-4h-3v4h3Zm22.5-26.5h88v-3h-88v3ZM221.5 127v51.5h3V127h-3ZM199 104.5c12.426 0 22.5 10.074 22.5 22.5h3c0-14.083-11.417-25.5-25.5-25.5v3ZM88.5 127c0-12.426 10.074-22.5 22.5-22.5v-3c-14.083 0-25.5 11.417-25.5 25.5h3Z" class="Shape"/>
    </g>
    <g class="Connector line">
      <path fill="#9D02FF" d="M224.5 221a1.5 1.5 0 0 0-3 0h3ZM271 386.66c0 .829 1.015 1.414 1.732 1l11.536-6.66c.717-.414.717-1.586 0-2l-11.536-6.66c-.717-.414-1.732.171-1.732 1v13.32ZM199.5 263.5a1.5 1.5 0 0 0 0 3v-3Zm22-42.5v20.5h3V221h-3Zm-47 67.5V356h3v-67.5h-3Zm25.5 93h72.5v-3H200v3ZM174.5 356c0 14.083 11.417 25.5 25.5 25.5v-3c-12.426 0-22.5-10.074-22.5-22.5h-3Zm25-92.5c-13.807 0-25 11.193-25 25h3c0-12.15 9.85-22 22-22v-3Zm22-22c0 12.15-9.85 22-22 22v3c13.807 0 25-11.193 25-25h-3Z" class="Shape"/>
    </g>
    <path  d="M300.092 411.092c0 82.843-67.157 150-150 150s-150-67.157-150-150 67.157-150 150-150 150 67.157 150 150Z" class="ellipse-gradient"/>
    <path  d="M308.244 189.244c0 82.843-67.157 150-150 150s-150-67.157-150-150c0-82.842 67.157-150 150-150s150 67.158 150 150Z" class="ellipse-gradient"/>
    <g class="Map Journey" clip-path="url(#c)">
      <g class="Screen">
        <path fill="#9C0E0E" d="M47 209.079c-8.837 0-16-7.163-16-16V95.48c0-8.836 7.163-16 16-16h24v129.6H47Z"/>
        <path fill="#fff" d="M53.82 180.803c-.215 0-.412.02-.589.058-.177.039-.34.122-.49.249a2.21 2.21 0 0 0-.447.54 6.25 6.25 0 0 0-.465.913c-.188.448-.388.883-.598 1.303a6.15 6.15 0 0 1-.747 1.138 3.264 3.264 0 0 1-.996.805c-.388.193-.841.29-1.361.29a3.4 3.4 0 0 1-1.387-.274 3.01 3.01 0 0 1-1.062-.797 3.638 3.638 0 0 1-.69-1.203 4.733 4.733 0 0 1-.24-1.552c0-.775.16-1.445.482-2.009.32-.57.76-1.01 1.32-1.32.558-.315 1.2-.473 1.925-.473v2.424c-.343 0-.645.049-.905.149a1.249 1.249 0 0 0-.622.457c-.15.21-.224.481-.224.813 0 .31.063.567.19.772.122.199.291.349.507.448.21.094.448.141.714.141.199 0 .379-.047.54-.141.154-.099.295-.235.423-.406a4.68 4.68 0 0 0 .357-.606 10.3 10.3 0 0 0 .34-.781 9.069 9.069 0 0 1 .714-1.452c.254-.421.542-.772.863-1.055a3.248 3.248 0 0 1 1.07-.639 3.99 3.99 0 0 1 1.362-.215c.504 0 .963.088 1.378.265.41.172.764.423 1.063.756.293.332.52.733.68 1.203.16.465.241.985.241 1.561 0 .559-.077 1.087-.232 1.585a3.87 3.87 0 0 1-.723 1.32 3.4 3.4 0 0 1-1.236.888c-.504.216-1.099.324-1.785.324v-2.432c.365 0 .678-.036.938-.108a1.43 1.43 0 0 0 .614-.332c.15-.15.263-.332.34-.548.072-.221.108-.473.108-.755 0-.321-.06-.576-.182-.764a1.019 1.019 0 0 0-.49-.415 1.843 1.843 0 0 0-.697-.125Zm-8.906-4.93v-2.134l8.268-2.465-8.268-2.457v-1.884L57 170.369v1.818l-12.086 3.686Zm0 .863v-2.034l7.969-.315H57v2.349H44.914Zm0-8.874v-2.042H57v2.341h-4.117l-7.969-.299Zm2.158-8.549L57 161.911v2.565l-12.086-3.777v-1.602l2.158.216ZM57 157.262l-9.928 2.615-2.158.241v-1.627L57 154.681v2.581Zm-4.507-.091h2.017v5.454h-2.017v-5.454Zm-7.579-3.652v-3.877c0-.808.138-1.497.415-2.067a2.934 2.934 0 0 1 1.229-1.311c.542-.305 1.212-.457 2.008-.457.653 0 1.212.089 1.677.266.46.177.844.429 1.154.755.304.327.548.717.73 1.171l.44.738v3.146l-2.017.009v-2.183c0-.332-.072-.606-.215-.822a1.308 1.308 0 0 0-.623-.49 2.485 2.485 0 0 0-.946-.166c-.382 0-.709.05-.98.149a1.213 1.213 0 0 0-.63.457c-.15.205-.225.473-.225.805v1.445H57v2.432H44.914ZM57 148.032l-5.387 2.216-.008-2.548 5.279-2.266H57v2.598Zm-12.086-8.301H57v2.416H44.914v-2.416Zm0-3.005h2.017v8.367h-2.017v-8.367Zm0-9.147H57v2.415H44.914v-2.415Zm0-3.005h2.017v8.367h-2.017v-8.367Zm9.505-5.304-9.505-2.291v-2.623L57 117.859v1.768l-2.581-.357Zm-9.505 1.959 9.505-2.283 2.581-.374v1.777l-12.086 3.478v-2.598Zm4.972-13.846v-1.129c0-.293-.066-.534-.199-.722a1.192 1.192 0 0 0-.581-.415 2.589 2.589 0 0 0-.872-.133c-.31 0-.58.042-.813.125a1.17 1.17 0 0 0-.548.381c-.133.172-.2.388-.2.648 0 .199.056.384.167.556.11.172.268.31.473.415.2.1.44.149.722.149v2.341c-.664 0-1.242-.152-1.735-.456a3.203 3.203 0 0 1-1.153-1.229 3.55 3.55 0 0 1-.416-1.71c0-.703.133-1.32.399-1.851a2.87 2.87 0 0 1 1.162-1.245c.51-.299 1.14-.448 1.893-.448.387 0 .76.074 1.12.224.36.144.684.354.971.631.283.276.507.614.673 1.012.166.393.249.842.249 1.345v1.511h-1.312Zm1.884 0H50.5v-1.511c0-.564.075-1.057.225-1.477.143-.426.354-.778.63-1.055.277-.282.606-.492.988-.63a3.664 3.664 0 0 1 1.262-.208c.564 0 1.068.094 1.51.282.443.188.817.451 1.121.789.305.337.537.73.698 1.179.155.448.232.935.232 1.461 0 .437-.07.866-.207 1.286a3.28 3.28 0 0 1-.64 1.121c-.287.332-.65.595-1.087.788-.437.194-.955.291-1.552.291v-2.324c.298 0 .567-.053.805-.158.232-.105.415-.249.548-.432.133-.188.199-.398.199-.631 0-.271-.07-.506-.208-.705a1.305 1.305 0 0 0-.58-.457 2.231 2.231 0 0 0-.872-.157c-.426 0-.77.055-1.03.166a1.15 1.15 0 0 0-.58.481c-.128.21-.192.465-.192.764v1.137Z" class="ANDROID TV 1"/>
      </g>
      <g class="Screen">
        <path fill="#9C0E0E" d="M47 346.778c-8.837 0-16-7.163-16-16v-97.599c0-8.836 7.163-16 16-16h24v129.599H47Z"/>
        <path fill="#fff" d="M53.82 318.502c-.215 0-.412.019-.589.058-.177.039-.34.122-.49.249a2.21 2.21 0 0 0-.447.54 6.25 6.25 0 0 0-.465.913c-.188.448-.388.882-.598 1.303-.216.421-.465.8-.747 1.137a3.235 3.235 0 0 1-.996.805c-.388.194-.841.291-1.361.291a3.4 3.4 0 0 1-1.387-.274 3.022 3.022 0 0 1-1.062-.797 3.638 3.638 0 0 1-.69-1.203 4.739 4.739 0 0 1-.24-1.553c0-.774.16-1.444.482-2.008.32-.57.76-1.01 1.32-1.32.558-.316 1.2-.473 1.925-.473v2.423c-.343 0-.645.05-.905.15a1.253 1.253 0 0 0-.622.456c-.15.211-.224.482-.224.814 0 .31.063.567.19.772.122.199.291.348.507.448.21.094.448.141.714.141.199 0 .379-.047.54-.141.154-.1.295-.235.423-.407.121-.171.24-.373.357-.606.116-.238.23-.498.34-.78a9.123 9.123 0 0 1 .714-1.453c.254-.42.542-.772.863-1.054a3.248 3.248 0 0 1 1.07-.639 3.99 3.99 0 0 1 1.362-.216c.504 0 .963.089 1.378.266.41.171.764.423 1.063.755.293.332.52.733.68 1.204.16.465.241.985.241 1.56 0 .559-.077 1.088-.232 1.586a3.87 3.87 0 0 1-.723 1.32 3.4 3.4 0 0 1-1.236.888c-.504.216-1.099.324-1.785.324v-2.433c.365 0 .678-.036.938-.107a1.43 1.43 0 0 0 .614-.332c.15-.15.263-.333.34-.548.072-.222.108-.473.108-.756 0-.321-.06-.575-.182-.763a1.019 1.019 0 0 0-.49-.415 1.843 1.843 0 0 0-.697-.125Zm-8.906-4.931v-2.133l8.268-2.465-8.268-2.457v-1.885L57 308.068v1.818l-12.086 3.685Zm0 .864v-2.034l7.969-.315H57v2.349H44.914Zm0-8.874v-2.042H57v2.341h-4.117l-7.969-.299Zm2.158-8.55L57 299.609v2.565l-12.086-3.776v-1.602l2.158.215Zm9.928-2.05-9.928 2.615-2.158.241v-1.627L57 292.38v2.581Zm-4.507-.091h2.017v5.453h-2.017v-5.453Zm-7.579-3.653v-3.876c0-.808.138-1.497.415-2.067a2.934 2.934 0 0 1 1.229-1.311c.542-.305 1.212-.457 2.008-.457.653 0 1.212.089 1.677.266.46.177.844.428 1.154.755.304.326.548.717.73 1.17l.44.739v3.146l-2.017.008v-2.183c0-.332-.072-.606-.215-.821a1.308 1.308 0 0 0-.623-.49 2.485 2.485 0 0 0-.946-.166c-.382 0-.709.05-.98.149a1.202 1.202 0 0 0-.63.457c-.15.205-.225.473-.225.805v1.444H57v2.432H44.914ZM57 285.731l-5.387 2.216-.008-2.548 5.279-2.267H57v2.599Zm-12.086-8.301H57v2.415H44.914v-2.415Zm0-3.005h2.017v8.367h-2.017v-8.367Zm0-9.148H57v2.416H44.914v-2.416Zm0-3.004h2.017v8.367h-2.017v-8.367Zm9.505-5.305-9.505-2.291v-2.623L57 255.557v1.768l-2.581-.357Zm-9.505 1.959 9.505-2.282 2.581-.374v1.776l-12.086 3.479v-2.599Zm10.152-18.876H57v7.122h-1.652l-4.159-3.27a10.977 10.977 0 0 0-1.145-.739 4.964 4.964 0 0 0-.888-.382 2.693 2.693 0 0 0-.747-.116c-.36 0-.667.042-.922.125-.26.083-.459.207-.597.373a.864.864 0 0 0-.216.598 1 1 0 0 0 .265.714c.178.188.421.329.73.423a3.7 3.7 0 0 0 1.039.133v2.332a4.485 4.485 0 0 1-1.993-.44 3.586 3.586 0 0 1-1.436-1.253c-.36-.542-.54-1.193-.54-1.951 0-.741.14-1.361.416-1.859a2.674 2.674 0 0 1 1.187-1.137c.509-.26 1.118-.39 1.826-.39.404 0 .797.052 1.179.157a5.99 5.99 0 0 1 1.129.449c.37.193.75.431 1.137.713.387.283.788.601 1.203.955l2.25 1.577v-4.134Z" class="ANDROID TV 2"/>
      </g>
      <g class="Screen">
        <path fill="#9C0E0E" d="M47 484.477c-8.837 0-16-7.164-16-16v-97.599c0-8.837 7.163-16 16-16h24v129.599H47Z"/>
        <path fill="#fff" d="M53.82 456.201c-.215 0-.412.019-.589.058-.177.039-.34.122-.49.249a2.21 2.21 0 0 0-.447.54 6.2 6.2 0 0 0-.465.913c-.188.448-.388.882-.598 1.303a6.16 6.16 0 0 1-.747 1.137 3.235 3.235 0 0 1-.996.805c-.388.194-.841.291-1.361.291-.51 0-.972-.092-1.387-.274a3.022 3.022 0 0 1-1.062-.797 3.633 3.633 0 0 1-.69-1.204 4.728 4.728 0 0 1-.24-1.552c0-.775.16-1.444.482-2.009.32-.57.76-1.01 1.32-1.32.558-.315 1.2-.473 1.925-.473v2.424c-.343 0-.645.05-.905.15a1.253 1.253 0 0 0-.622.456c-.15.21-.224.482-.224.814 0 .31.063.567.19.772.122.199.291.348.507.448.21.094.448.141.714.141.199 0 .379-.047.54-.141.154-.1.295-.235.423-.407.121-.171.24-.373.357-.606.116-.238.23-.498.34-.78a9.123 9.123 0 0 1 .714-1.453c.254-.42.542-.772.863-1.054a3.248 3.248 0 0 1 1.07-.639 3.99 3.99 0 0 1 1.362-.216c.504 0 .963.089 1.378.266.41.171.764.423 1.063.755.293.332.52.733.68 1.204.16.464.241.985.241 1.56 0 .559-.077 1.088-.232 1.586-.16.498-.402.938-.723 1.319a3.391 3.391 0 0 1-1.236.889c-.504.215-1.099.323-1.785.323v-2.432c.365 0 .678-.036.938-.108a1.42 1.42 0 0 0 .614-.332c.15-.149.263-.332.34-.548.072-.221.108-.473.108-.755 0-.321-.06-.575-.182-.764a1.024 1.024 0 0 0-.49-.415 1.843 1.843 0 0 0-.697-.124Zm-8.906-4.931v-2.133l8.268-2.465-8.268-2.457v-1.885L57 445.767v1.818l-12.086 3.685Zm0 .863V450.1l7.969-.316H57v2.349H44.914Zm0-8.873v-2.042H57v2.341h-4.117l-7.969-.299Zm2.158-8.55L57 437.308v2.565l-12.086-3.777v-1.602l2.158.216ZM57 432.66l-9.928 2.615-2.158.24v-1.627L57 430.078v2.582Zm-4.507-.091h2.017v5.453h-2.017v-5.453Zm-7.579-3.653v-3.876c0-.808.138-1.497.415-2.067a2.942 2.942 0 0 1 1.229-1.312c.542-.304 1.212-.456 2.008-.456.653 0 1.212.088 1.677.265.46.177.844.429 1.154.756.304.326.548.716.73 1.17l.44.739v3.146l-2.017.008v-2.183c0-.332-.072-.606-.215-.822a1.312 1.312 0 0 0-.623-.489 2.485 2.485 0 0 0-.946-.166c-.382 0-.709.049-.98.149a1.202 1.202 0 0 0-.63.457c-.15.204-.225.473-.225.805v1.444H57v2.432H44.914ZM57 423.429l-5.387 2.217-.008-2.549 5.279-2.266H57v2.598Zm-12.086-8.3H57v2.415H44.914v-2.415Zm0-3.005h2.017v8.367h-2.017v-8.367Zm0-9.148H57v2.416H44.914v-2.416Zm0-3.005h2.017v8.368h-2.017v-8.368Zm9.505-5.304-9.505-2.291v-2.623L57 393.256v1.768l-2.581-.357Zm-9.505 1.959 9.505-2.283L57 393.97v1.776l-12.086 3.478v-2.598Zm-.025-16.909H57v2.325h-9.255l.888 2.307H46.69l-1.8-4.383v-.249Z" class="ANDROID TV 3"/>
      </g>
      <g class="Meja">
        <rect width="95.73" height="39.986" x="235.389" y="537.658" fill="#fff" rx="14" transform="rotate(-90 235.389 537.658)"/>
        <path fill="#2A2A2D" d="M249.296 513.989v-2.133l8.267-2.465-8.267-2.457v-1.885l12.086 3.437v1.818l-12.086 3.685Zm0 .864v-2.034l7.969-.316h4.117v2.35h-12.086Zm0-8.874v-2.042h12.086v2.341h-4.117l-7.969-.299Zm10.077-10.957h2.009v5.254h-2.009v-5.254Zm-10.077 4.499h12.086v2.432h-12.086v-2.432Zm4.897-3.793h1.951v4.548h-1.951v-4.548Zm-4.897-.689h2.017v5.237h-2.017v-5.237Zm8.359-5.413h-8.359v-2.423h8.367c.802 0 1.497.155 2.084.464.581.305 1.026.72 1.336 1.246.31.525.465 1.117.465 1.776 0 .675-.133 1.278-.399 1.81-.271.525-.68.94-1.228 1.245-.553.304-1.256.456-2.109.456v-2.44c.432 0 .772-.045 1.021-.133.25-.089.429-.213.54-.374a.991.991 0 0 0 .166-.564.795.795 0 0 0-.224-.573c-.149-.16-.363-.282-.639-.365a3.652 3.652 0 0 0-1.021-.125Zm-6.201-8.549 9.928 2.598v2.565l-12.086-3.777v-1.602l2.158.216Zm9.928-2.051-9.928 2.615-2.158.241v-1.627l12.086-3.81v2.581Zm-4.507-.091h2.017v5.454h-2.017v-5.454Zm2.573-14.493h1.934v7.122h-1.652l-4.159-3.271a10.99 10.99 0 0 0-1.145-.738 4.891 4.891 0 0 0-.888-.382 2.659 2.659 0 0 0-.747-.116c-.36 0-.667.041-.922.124-.26.083-.459.208-.598.374a.863.863 0 0 0-.215.597 1 1 0 0 0 .265.714c.177.188.421.329.731.424.304.088.65.132 1.037.132v2.333a4.497 4.497 0 0 1-1.992-.44 3.595 3.595 0 0 1-1.436-1.254c-.36-.542-.539-1.192-.539-1.95 0-.742.138-1.362.415-1.86a2.68 2.68 0 0 1 1.187-1.137c.509-.26 1.117-.39 1.826-.39.404 0 .797.053 1.179.158a5.95 5.95 0 0 1 1.128.448c.371.194.75.432 1.138.714.387.282.788.6 1.203.955l2.25 1.577v-4.134Z" class="MEJA 2"/>
        <rect width="95.73" height="39.986" x="235.389" y="537.658" stroke="#9C0E0E" stroke-width="4" rx="14" transform="rotate(-90 235.389 537.658)"/>
      </g>
      <g class="Meja">
        <rect width="178.248" height="39.986" x="246.006" y="279.979" fill="#fff" rx="14" transform="rotate(-90 246.006 279.979)"/>
        <path fill="#2A2A2D" d="M259.913 215.051v-2.133l8.268-2.465-8.268-2.457v-1.885l12.086 3.437v1.818l-12.086 3.685Zm0 .864v-2.034l7.969-.316h4.117v2.35h-12.086Zm0-8.874v-2.042h12.086v2.341h-4.117l-7.969-.299Zm10.077-10.957h2.009v5.254h-2.009v-5.254Zm-10.077 4.499h12.086v2.432h-12.086v-2.432Zm4.898-3.793h1.95v4.548h-1.95v-4.548Zm-4.898-.689h2.017v5.237h-2.017v-5.237Zm8.359-5.413h-8.359v-2.423h8.367c.803 0 1.497.155 2.084.464.581.305 1.026.72 1.336 1.246.31.525.465 1.117.465 1.776 0 .675-.133 1.278-.398 1.81-.272.525-.681.94-1.229 1.245-.553.304-1.256.456-2.108.456v-2.44c.431 0 .772-.044 1.021-.133.249-.089.429-.213.539-.374a.991.991 0 0 0 .166-.564.791.791 0 0 0-.224-.573c-.149-.16-.362-.282-.639-.365a3.652 3.652 0 0 0-1.021-.125Zm-6.201-8.549 9.928 2.598v2.565l-12.086-3.777v-1.602l2.158.216Zm9.928-2.051-9.928 2.615-2.158.241v-1.627l12.086-3.81v2.581Zm-4.507-.091h2.017v5.454h-2.017v-5.454Zm-7.604-12.526h12.111v2.324h-9.255l.888 2.308h-1.943l-1.801-4.383v-.249Z" class="MEJA 1"/>
        <rect width="178.248" height="39.986" x="246.006" y="279.979" stroke="#9C0E0E" stroke-width="4" rx="14" transform="rotate(-90 246.006 279.979)"/>
      </g>
      <g class="Group 1">
        <path fill="#4D91C6" d="M19.023 571.551h104.15v112.893H19.023z" class="Rectangle 8"/>
        <g class="wheelchair 1" clip-path="url(#d)">
          <path fill="#fff" d="M77.25 619.053a1.777 1.777 0 0 0-2.405.731 8.278 8.278 0 0 1-7.318 4.401c-4.573 0-8.295-3.727-8.295-8.306a8.326 8.326 0 0 1 5.485-7.816 1.78 1.78 0 0 0-1.203-3.348c-4.688 1.687-7.837 6.173-7.837 11.164 0 6.542 5.316 11.865 11.85 11.865 4.383 0 8.39-2.406 10.457-6.28a1.782 1.782 0 0 0-.733-2.411Zm-7.353-22.158a3.557 3.557 0 0 0 3.555-3.56 3.558 3.558 0 0 0-3.555-3.559 3.558 3.558 0 0 0-3.555 3.559 3.558 3.558 0 0 0 3.555 3.56Zm23.61 24.946a1.774 1.774 0 0 0-2.248-1.125l-2.015.672-3.497-8.001c-.283-.652-.927-1.067-1.697-1.067H73.748l-1.074-5.933h8.48a1.779 1.779 0 0 0 0-3.559H72.03l-.385-2.099c-.178-.964-1.104-1.617-2.067-1.431a1.782 1.782 0 0 0-1.43 2.069l2.37 13.051a1.779 1.779 0 0 0 1.749 1.461h10.687l3.682 8.424c.287.668.939 1.068 1.56 1.068.187 0 .377-.029.563-.091l3.489-1.187c1.066-.309 1.563-1.384 1.259-2.252Z" class="Vector"/>
        </g>
        <g class="restroom-simple 1" clip-path="url(#e)">
          <path fill="#fff" d="M61.491 643.564a3.865 3.865 0 0 0 3.877-3.86 3.865 3.865 0 0 0-3.877-3.86 3.865 3.865 0 0 0-3.876 3.86 3.866 3.866 0 0 0 3.876 3.86Zm21.32 0a3.865 3.865 0 0 0 3.875-3.86 3.865 3.865 0 0 0-3.876-3.86 3.865 3.865 0 0 0-3.876 3.86 3.865 3.865 0 0 0 3.876 3.86Zm-11.63-7.72c-.799 0-1.453.652-1.453 1.448v27.986a1.454 1.454 0 0 0 2.907 0v-27.986c0-.796-.654-1.448-1.453-1.448Zm-7.752 9.651h-3.876a3.87 3.87 0 0 0-3.876 3.86v5.79c0 1.066.868 1.93 1.938 1.93v8.203c0 .802.651 1.447 1.454 1.447a1.45 1.45 0 0 0 1.453-1.447v-8.203h1.939v8.203a1.45 1.45 0 0 0 1.453 1.447c.8 0 1.454-.645 1.454-1.447v-8.203c1.07 0 1.938-.864 1.938-1.93v-5.79c0-2.129-1.739-3.86-3.877-3.86Zm.97 8.685h-5.815v-4.825c0-.532.435-.965.97-.965h3.875c.535 0 .97.433.97.965v4.825Zm25.77 2.364-2.362-8.251a3.876 3.876 0 0 0-3.731-2.798H81.54a3.874 3.874 0 0 0-3.727 2.799l-2.367 8.251a1.908 1.908 0 0 0 1.864 2.46h1.623v6.273a1.45 1.45 0 0 0 1.454 1.447 1.45 1.45 0 0 0 1.453-1.447v-6.273h1.938v6.273a1.45 1.45 0 0 0 1.454 1.447c.802 0 1.453-.645 1.453-1.447v-6.273h1.622a1.928 1.928 0 0 0 1.86-2.461Zm-11.574-.434 2.014-7.021a.972.972 0 0 1 .935-.699h2.535c.433 0 .813.285.931.699l2.015 7.021h-8.43Z" class="Vector"/>
        </g>
      </g>
      <g class="VOID">
        <rect width="52.143" height="62.187" x="80.703" y="59.231" fill="#999" class="Rectangle 4" rx="5" transform="rotate(-90 80.703 59.23)"/>
        <g class="xmark-large 1" clip-path="url(#f)">
          <path fill="#CEC1C1" d="m107.679 33.16-22.235-21.3c-1.138-1.095-1.138-2.864 0-3.853a2.83 2.83 0 0 1 4.122 0l22.231 21.206 22.227-21.206c1.141-1.187 2.987-1.187 4.02 0 1.239.99 1.239 2.758 0 3.852l-22.13 21.3 22.13 21.303c1.239 1.09 1.239 2.86 0 3.95-1.033 1.091-2.879 1.091-4.02 0l-22.227-21.307-22.23 21.308c-1.139 1.09-2.985 1.09-4.123 0a2.712 2.712 0 0 1 0-3.95l22.235-21.304Z" class="Vector"/>
        </g>
      </g>
      <g class="VOID">
        <rect width="51.864" height="89.994" x="197.999" y="59" fill="#999" class="Rectangle 5" rx="5" transform="rotate(-90 197.999 59)"/>
        <g class="xmark-large 2" clip-path="url(#g)">
          <path fill="#CEC1C1" d="m237.037 33.068-32.178-21.185c-1.647-1.088-1.647-2.848 0-3.832 1.647-1.18 4.318-1.18 5.965 0l32.171 21.093L275.161 8.05c1.652-1.18 4.324-1.18 5.818 0 1.793.984 1.793 2.744 0 3.832l-32.025 21.185 32.025 21.189c1.793 1.085 1.793 2.844 0 3.93-1.494 1.084-4.166 1.084-5.818 0l-32.166-21.194-32.171 21.193c-1.647 1.085-4.318 1.085-5.965 0-1.647-1.085-1.647-2.844 0-3.929l32.178-21.189Z" class="Vector"/>
        </g>
      </g>
      <g class="VOID">
        <rect width="43.494" height="89.994" x="197.999" y="357.409" fill="#999" class="Rectangle 6" rx="5" transform="rotate(-90 197.999 357.409)"/>
        <g class="xmark-large 3" clip-path="url(#h)">
          <path fill="#CEC1C1" d="m237.037 335.662-32.178-17.766c-1.647-.913-1.647-2.388 0-3.214 1.647-.99 4.318-.99 5.965 0l32.171 17.689 32.166-17.689c1.652-.99 4.324-.99 5.818 0 1.793.826 1.793 2.301 0 3.214l-32.025 17.766 32.025 17.77c1.793.909 1.793 2.385 0 3.295-1.494.91-4.166.91-5.818 0l-32.166-17.773-32.171 17.773c-1.647.91-4.318.91-5.965 0-1.647-.91-1.647-2.386 0-3.295l32.178-17.77Z" class="Vector"/>
        </g>
      </g>
      <g class="VOID">
        <rect width="41.347" height="89.994" x="197.999" y="587.586" fill="#999" class="Rectangle 7" rx="5" transform="rotate(-90 197.999 587.586)"/>
        <g class="xmark-large 4" clip-path="url(#i)">
          <path fill="#CEC1C1" d="m237.037 566.912-32.178-16.889c-1.647-.868-1.647-2.271 0-3.055 1.647-.942 4.318-.942 5.965 0l32.171 16.815 32.166-16.815c1.652-.942 4.324-.942 5.818 0 1.793.784 1.793 2.187 0 3.055l-32.025 16.889 32.025 16.892c1.793.865 1.793 2.268 0 3.133-1.494.865-4.166.865-5.818 0l-32.166-16.896-32.171 16.896c-1.647.865-4.318.865-5.965 0-1.647-.865-1.647-2.268 0-3.133l32.178-16.892Z" class="Vector"/>
        </g>
      </g>
      <path fill="#9C0E0E" d="M242.995 288.56a5.056 5.056 0 0 0-5.055-5.063v10.125a5.057 5.057 0 0 0 5.055-5.062Zm-22.609-1.898h-8.358c-5.227 0-9.479 4.256-9.479 9.492v8.227c0 5.233 4.252 9.492 9.479 9.492h30.967v-3.797h-30.967c-3.136 0-5.687-2.556-5.687-5.695v-8.227c0-3.139 2.551-5.695 5.687-5.695h8.358c.846 6.851 6.135 12.308 12.885 13.273 1.129.15 2.141-.767 2.141-1.914v-26.515c0-1.149-1.012-2.069-2.146-1.913-6.749.964-12.034 6.414-12.88 13.272Zm11.234 12.767a11.377 11.377 0 0 1-5.377-4.075c-1.405-1.955-2.066-4.349-2.066-6.758v-.074c0-2.409.662-4.805 2.069-6.761 1.337-1.854 3.201-3.294 5.374-4.069v21.737Z" class="Vector"/>
      <g class="lamp-street 2" clip-path="url(#j)">
        <path fill="#9C0E0E" d="M242.995 84.037a5.056 5.056 0 0 1-5.055 5.063V78.975a5.057 5.057 0 0 1 5.055 5.062Zm-22.609 1.898h-8.358c-5.227 0-9.479-4.255-9.479-9.492v-8.226c0-5.234 4.252-9.492 9.479-9.492h30.967v3.796h-30.967c-3.136 0-5.687 2.556-5.687 5.696v8.226c0 3.14 2.551 5.695 5.687 5.695h8.358c.846-6.85 6.135-12.308 12.885-13.273 1.129-.15 2.141.767 2.141 1.915v26.514c0 1.15-1.012 2.07-2.146 1.913-6.749-.964-12.034-6.414-12.88-13.272Zm11.234-12.767a11.378 11.378 0 0 0-5.377 4.076c-1.405 1.954-2.066 4.349-2.066 6.757v.074c0 2.41.662 4.805 2.069 6.76 1.337 1.855 3.201 3.295 5.374 4.07V73.168Z" class="Vector"/>
      </g>
      <path fill="#999" stroke="#999" d="M288.492 357.415V6.574h3.045v350.841z" class="Rectangle 11"/>
      <path stroke="#999" d="M288.492 597.376v-159.48h3.045v159.48z" class="Rectangle 13"/>
      <path stroke="#999" d="M333.5 439.427h-45.008v-1.531H333.5z" class="Rectangle 14"/>
      <path stroke="#999" d="M333.5 357.415h-45.008v-2.037H333.5z" class="Rectangle 15"/>
      <path fill="#999" d="M17 689V0h4.045v689z" class="Rectangle 12"/>
      <g class="meter-bolt 1" clip-path="url(#k)">
        <path fill="#FFC300" d="M30.05 532.975c0 7.089 5.7 12.833 12.735 12.833 7.034 0 12.734-5.744 12.734-12.833 0-3.486-1.377-6.651-3.618-8.965a2.97 2.97 0 0 0 .68-1.894v-1.129l.918.463a15.79 15.79 0 0 1 4.959 11.525c0 8.724-7.016 15.795-15.673 15.795s-15.673-7.071-15.673-15.795c0-8.397 6.581-15.35 14.865-15.776l2.412 3.042a13.674 13.674 0 0 0-1.604-.099c-7.035 0-12.734 5.744-12.734 12.833Zm9.306 3.949c.815 0 1.47.66 1.47 1.481 0 .82-.655 1.48-1.47 1.48h-2.938c-.815 0-1.47-.66-1.47-1.48 0-.821.655-1.481 1.47-1.481h2.938Zm0-5.43c.815 0 1.47.661 1.47 1.481 0 .821-.655 1.481-1.47 1.481h-2.938c-.815 0-1.47-.66-1.47-1.481 0-.82.655-1.481 1.47-1.481h2.938Zm0-5.429c.815 0 1.47.66 1.47 1.481 0 .82-.655 1.48-1.47 1.48h-2.938c-.815 0-1.47-.66-1.47-1.48 0-.821.655-1.481 1.47-1.481h2.938Zm1.69-14.444a.972.972 0 0 1 1.2-.259l6.416 3.233v-4.325c0-.42.264-.796.655-.932a.93.93 0 0 1 1.09.371l7.837 9.871c.287.309.287.821-.007 1.185a.972.972 0 0 1-1.2.259l-6.416-3.233v4.325a.99.99 0 0 1-.655.932.983.983 0 0 1-1.09-.315l-7.836-9.872a.99.99 0 0 1 .006-1.24Z" class="Vector"/>
      </g>
    </g>
    <g class="person 1" clip-path="url(#l)">
      <path fill="#9D02FF" d="m363.175 376.604-3.307 5.485a3.71 3.71 0 0 1-5.076 1.256 3.684 3.684 0 0 1-1.26-5.059l6.741-11.178a11.118 11.118 0 0 1 9.516-5.37h3.434c3.897 0 7.504 2.04 9.516 5.37l6.741 11.178a3.685 3.685 0 0 1-1.26 5.059 3.71 3.71 0 0 1-5.076-1.256l-3.319-5.485v25.708a3.69 3.69 0 0 1-3.7 3.688 3.69 3.69 0 0 1-3.7-3.688v-14.75h-1.85v14.75a3.69 3.69 0 0 1-3.7 3.688 3.69 3.69 0 0 1-3.7-3.688v-25.708Z" class="Vector"/>
      <path fill="#9D02FF" d="M365.95 352.531a5.52 5.52 0 0 1 1.626-3.911 5.56 5.56 0 0 1 7.849 0 5.524 5.524 0 0 1 1.625 3.911 5.524 5.524 0 0 1-1.625 3.911 5.558 5.558 0 0 1-3.925 1.62 5.556 5.556 0 0 1-3.924-1.62 5.52 5.52 0 0 1-1.626-3.911Z" class="Vector" opacity=".4"/>
    </g>
    <path fill="#605756" d="M339.016 423.096c-.248 0-.44-.068-.576-.204-.128-.144-.192-.34-.192-.588v-6.984c0-.256.068-.448.204-.576.136-.136.328-.204.576-.204h2.892c.928 0 1.644.232 2.148.696.504.464.756 1.112.756 1.944 0 .832-.252 1.484-.756 1.956-.504.464-1.22.696-2.148.696h-2.136v2.472c0 .248-.064.444-.192.588-.128.136-.32.204-.576.204Zm.768-4.476h1.896c.544 0 .956-.12 1.236-.36.28-.248.42-.608.42-1.08 0-.472-.14-.828-.42-1.068-.28-.24-.692-.36-1.236-.36h-1.896v2.868Zm8.52 4.5c-.608 0-1.136-.124-1.584-.372a2.602 2.602 0 0 1-1.044-1.056c-.248-.464-.372-1.008-.372-1.632 0-.472.068-.892.204-1.26.144-.376.348-.696.612-.96.264-.272.58-.476.948-.612.368-.144.78-.216 1.236-.216.608 0 1.136.124 1.584.372.448.248.796.6 1.044 1.056.248.456.372.996.372 1.62 0 .472-.072.896-.216 1.272a2.69 2.69 0 0 1-.6.972c-.264.264-.58.468-.948.612-.368.136-.78.204-1.236.204Zm0-1.14c.296 0 .556-.072.78-.216.224-.144.396-.356.516-.636.128-.288.192-.644.192-1.068 0-.64-.136-1.116-.408-1.428-.272-.32-.632-.48-1.08-.48a1.41 1.41 0 0 0-.78.216c-.224.136-.4.348-.528.636-.12.28-.18.632-.18 1.056 0 .632.136 1.112.408 1.44.272.32.632.48 1.08.48Zm6.386 1.14c-.344 0-.708-.036-1.092-.108a3.231 3.231 0 0 1-1.032-.372.758.758 0 0 1-.276-.276.684.684 0 0 1-.06-.324.583.583 0 0 1 .12-.288.498.498 0 0 1 .264-.156.541.541 0 0 1 .36.06c.32.152.62.26.9.324.28.056.556.084.828.084.384 0 .668-.064.852-.192a.621.621 0 0 0 .288-.528.493.493 0 0 0-.192-.42c-.12-.104-.304-.18-.552-.228l-1.2-.228c-.496-.096-.876-.276-1.14-.54-.256-.272-.384-.62-.384-1.044 0-.384.104-.716.312-.996.216-.28.512-.496.888-.648a3.437 3.437 0 0 1 1.296-.228c.352 0 .68.04.984.12.312.072.612.188.9.348.12.064.2.148.24.252.048.104.06.212.036.324a.7.7 0 0 1-.144.288.502.502 0 0 1-.276.156.63.63 0 0 1-.36-.072 3.229 3.229 0 0 0-.72-.276 2.67 2.67 0 0 0-.648-.084c-.392 0-.684.068-.876.204a.64.64 0 0 0-.276.54.57.57 0 0 0 .168.42c.112.112.284.188.516.228l1.2.228c.52.096.912.272 1.176.528.272.256.408.6.408 1.032 0 .584-.228 1.044-.684 1.38-.456.328-1.064.492-1.824.492Zm4.455-.036c-.24 0-.424-.072-.552-.216-.128-.144-.192-.344-.192-.6v-4.404c0-.264.064-.464.192-.6.128-.144.312-.216.552-.216.24 0 .424.072.552.216.136.136.204.336.204.6v4.404c0 .256-.064.456-.192.6-.128.144-.316.216-.564.216Zm0-7.152c-.28 0-.5-.068-.66-.204-.152-.144-.228-.34-.228-.588 0-.256.076-.452.228-.588.16-.136.38-.204.66-.204.288 0 .508.068.66.204.152.136.228.332.228.588 0 .248-.076.444-.228.588-.152.136-.372.204-.66.204Zm4.463 7.188c-.344 0-.708-.036-1.092-.108a3.231 3.231 0 0 1-1.032-.372.758.758 0 0 1-.276-.276.684.684 0 0 1-.06-.324.583.583 0 0 1 .12-.288.498.498 0 0 1 .264-.156.541.541 0 0 1 .36.06c.32.152.62.26.9.324.28.056.556.084.828.084.384 0 .668-.064.852-.192a.621.621 0 0 0 .288-.528.493.493 0 0 0-.192-.42c-.12-.104-.304-.18-.552-.228l-1.2-.228c-.496-.096-.876-.276-1.14-.54-.256-.272-.384-.62-.384-1.044 0-.384.104-.716.312-.996.216-.28.512-.496.888-.648a3.437 3.437 0 0 1 1.296-.228c.352 0 .68.04.984.12.312.072.612.188.9.348.12.064.2.148.24.252.048.104.06.212.036.324a.7.7 0 0 1-.144.288.502.502 0 0 1-.276.156.63.63 0 0 1-.36-.072 3.229 3.229 0 0 0-.72-.276 2.67 2.67 0 0 0-.648-.084c-.392 0-.684.068-.876.204a.64.64 0 0 0-.276.54.57.57 0 0 0 .168.42c.112.112.284.188.516.228l1.2.228c.52.096.912.272 1.176.528.272.256.408.6.408 1.032 0 .584-.228 1.044-.684 1.38-.456.328-1.064.492-1.824.492Zm4.455-.036c-.24 0-.424-.072-.552-.216-.128-.144-.192-.344-.192-.6v-4.404c0-.264.064-.464.192-.6.128-.144.312-.216.552-.216.24 0 .424.072.552.216.136.136.204.336.204.6v4.404c0 .256-.064.456-.192.6-.128.144-.316.216-.564.216Zm0-7.152c-.28 0-.5-.068-.66-.204-.152-.144-.228-.34-.228-.588 0-.256.076-.452.228-.588.16-.136.38-.204.66-.204.288 0 .508.068.66.204.152.136.228.332.228.588 0 .248-.076.444-.228.588-.152.136-.372.204-.66.204Zm6.436 7.164c-.224 0-.396-.064-.516-.192s-.18-.304-.18-.528v-7.212c0-.232.064-.408.192-.528.128-.128.304-.192.528-.192.2 0 .356.04.468.12.12.072.228.2.324.384l2.964 5.484h-.384l2.964-5.484c.096-.184.2-.312.312-.384.112-.08.268-.12.468-.12.224 0 .396.064.516.192.12.12.18.296.18.528v7.212c0 .224-.06.4-.18.528-.112.128-.284.192-.516.192-.224 0-.396-.064-.516-.192s-.18-.304-.18-.528v-5.556h.264l-2.52 4.596a.977.977 0 0 1-.252.3.6.6 0 0 1-.36.096.658.658 0 0 1-.372-.096.948.948 0 0 1-.252-.3l-2.544-4.608h.288v5.568c0 .224-.06.4-.18.528-.112.128-.284.192-.516.192Zm11.678.024c-.488 0-.892-.088-1.212-.264a1.714 1.714 0 0 1-.72-.816c-.152-.36-.228-.808-.228-1.344v-2.904c0-.256.064-.444.192-.564.128-.128.312-.192.552-.192.24 0 .424.064.552.192.136.12.204.308.204.564v2.928c0 .416.084.724.252.924.168.2.436.3.804.3.4 0 .728-.136.984-.408.256-.28.384-.648.384-1.104v-2.64c0-.256.064-.444.192-.564.128-.128.312-.192.552-.192.24 0 .424.064.552.192.136.12.204.308.204.564v4.536c0 .512-.244.768-.732.768-.232 0-.412-.064-.54-.192-.128-.136-.192-.328-.192-.576v-.912l.168.36c-.168.432-.424.764-.768.996-.336.232-.736.348-1.2.348Zm6.83 0c-.664 0-1.164-.188-1.5-.564-.336-.384-.504-.944-.504-1.68V415.2c0-.248.064-.436.192-.564.128-.128.312-.192.552-.192.24 0 .424.064.552.192.136.128.204.316.204.564v5.604c0 .368.076.64.228.816.16.176.384.264.672.264h.18l.168-.024c.112-.016.188.016.228.096.04.072.06.224.06.456 0 .2-.04.356-.12.468-.08.112-.212.18-.396.204l-.252.024a2.915 2.915 0 0 1-.264.012Zm3.76 0a2.62 2.62 0 0 1-1.14-.24 2.067 2.067 0 0 1-.78-.672 1.688 1.688 0 0 1-.276-.948c0-.432.112-.772.336-1.02.224-.256.588-.44 1.092-.552.504-.112 1.18-.168 2.028-.168h.6v.864h-.588c-.496 0-.892.024-1.188.072-.296.048-.508.132-.636.252-.12.112-.18.272-.18.48 0 .264.092.48.276.648.184.168.44.252.768.252.264 0 .496-.06.696-.18.208-.128.372-.3.492-.516.12-.216.18-.464.18-.744v-1.38c0-.4-.088-.688-.264-.864-.176-.176-.472-.264-.888-.264a3.766 3.766 0 0 0-1.596.372c-.152.072-.288.092-.408.06a.459.459 0 0 1-.264-.192.63.63 0 0 1-.096-.336c0-.12.032-.236.096-.348a.572.572 0 0 1 .324-.264c.368-.152.72-.26 1.056-.324a5.16 5.16 0 0 1 .936-.096c.576 0 1.048.088 1.416.264.376.176.656.444.84.804.184.352.276.808.276 1.368v2.88c0 .248-.06.44-.18.576-.12.128-.292.192-.516.192-.224 0-.4-.064-.528-.192-.12-.136-.18-.328-.18-.576v-.576h.096a1.627 1.627 0 0 1-.948 1.2 2.05 2.05 0 0 1-.852.168Zm5.374-.036c-.24 0-.424-.072-.552-.216-.128-.144-.192-.344-.192-.6v-4.404c0-.264.064-.464.192-.6.128-.144.312-.216.552-.216.24 0 .424.072.552.216.136.136.204.336.204.6v4.404c0 .256-.064.456-.192.6-.128.144-.316.216-.564.216Zm0-7.152c-.28 0-.5-.068-.66-.204-.152-.144-.228-.34-.228-.588 0-.256.076-.452.228-.588.16-.136.38-.204.66-.204.288 0 .508.068.66.204.152.136.228.332.228.588 0 .248-.076.444-.228.588-.152.136-.372.204-.66.204Z" class="Posisi Mulai"/>
    <path fill="#605756" d="M293.924 384.12c-.352 0-.704-.028-1.056-.084a5.489 5.489 0 0 1-.996-.228 4.096 4.096 0 0 1-.84-.408.774.774 0 0 1-.36-.744.73.73 0 0 1 .156-.348.547.547 0 0 1 .324-.192c.128-.024.268.012.42.108a4.1 4.1 0 0 0 1.116.456 5.18 5.18 0 0 0 1.236.144c.632 0 1.092-.104 1.38-.312.288-.216.432-.492.432-.828 0-.28-.104-.5-.312-.66-.2-.16-.548-.292-1.044-.396l-1.32-.276c-.76-.16-1.328-.428-1.704-.804-.368-.384-.552-.888-.552-1.512a2.355 2.355 0 0 1 .912-1.896 3.131 3.131 0 0 1 1.044-.528 4.472 4.472 0 0 1 1.344-.192c.48 0 .936.06 1.368.18.432.12.82.296 1.164.528a.614.614 0 0 1 .252.324c.048.128.06.256.036.384a.599.599 0 0 1-.168.312.55.55 0 0 1-.336.156c-.128.016-.276-.024-.444-.12a3.416 3.416 0 0 0-.9-.36 4.263 4.263 0 0 0-.984-.108c-.368 0-.684.052-.948.156a1.369 1.369 0 0 0-.612.444 1.08 1.08 0 0 0-.204.66.9.9 0 0 0 .288.696c.192.168.52.3.984.396l1.308.276c.792.168 1.38.432 1.764.792.392.36.588.84.588 1.44 0 .384-.08.732-.24 1.044-.152.312-.376.58-.672.804a3.11 3.11 0 0 1-1.044.516c-.408.12-.868.18-1.38.18Zm7.402 0c-.664 0-1.236-.124-1.716-.372s-.852-.6-1.116-1.056c-.256-.456-.384-.996-.384-1.62 0-.608.124-1.14.372-1.596a2.79 2.79 0 0 1 1.044-1.068 2.945 2.945 0 0 1 1.524-.396c.416 0 .788.068 1.116.204.336.136.62.332.852.588.24.256.42.568.54.936.128.36.192.768.192 1.224a.4.4 0 0 1-.156.336c-.096.072-.236.108-.42.108h-3.852v-.864h3.372l-.192.18c0-.368-.056-.676-.168-.924a1.171 1.171 0 0 0-.468-.564c-.2-.136-.452-.204-.756-.204-.336 0-.624.08-.864.24a1.484 1.484 0 0 0-.54.66c-.12.28-.18.616-.18 1.008v.084c0 .656.152 1.148.456 1.476.312.32.768.48 1.368.48.208 0 .44-.024.696-.072.264-.056.512-.148.744-.276.168-.096.316-.136.444-.12a.42.42 0 0 1 .3.132c.08.08.128.18.144.3a.562.562 0 0 1-.072.348.742.742 0 0 1-.3.312 3.22 3.22 0 0 1-.972.396c-.36.08-.696.12-1.008.12Zm5.616 0c-.664 0-1.164-.188-1.5-.564-.336-.384-.504-.944-.504-1.68V376.2c0-.248.064-.436.192-.564.128-.128.312-.192.552-.192.24 0 .424.064.552.192.136.128.204.316.204.564v5.604c0 .368.076.64.228.816.16.176.384.264.672.264h.18l.168-.024c.112-.016.188.016.228.096.04.072.06.224.06.456 0 .2-.04.356-.12.468-.08.112-.212.18-.396.204l-.252.024a2.915 2.915 0 0 1-.264.012Zm4.662 0c-.664 0-1.236-.124-1.716-.372s-.852-.6-1.116-1.056c-.256-.456-.384-.996-.384-1.62 0-.608.124-1.14.372-1.596a2.79 2.79 0 0 1 1.044-1.068 2.945 2.945 0 0 1 1.524-.396c.416 0 .788.068 1.116.204.336.136.62.332.852.588.24.256.42.568.54.936.128.36.192.768.192 1.224a.4.4 0 0 1-.156.336c-.096.072-.236.108-.42.108H309.6v-.864h3.372l-.192.18c0-.368-.056-.676-.168-.924a1.171 1.171 0 0 0-.468-.564c-.2-.136-.452-.204-.756-.204-.336 0-.624.08-.864.24a1.484 1.484 0 0 0-.54.66c-.12.28-.18.616-.18 1.008v.084c0 .656.152 1.148.456 1.476.312.32.768.48 1.368.48.208 0 .44-.024.696-.072.264-.056.512-.148.744-.276.168-.096.316-.136.444-.12a.42.42 0 0 1 .3.132c.08.08.128.18.144.3a.562.562 0 0 1-.072.348.742.742 0 0 1-.3.312 3.22 3.22 0 0 1-.972.396c-.36.08-.696.12-1.008.12Zm5.76 0c-.344 0-.708-.036-1.092-.108a3.231 3.231 0 0 1-1.032-.372.758.758 0 0 1-.276-.276.684.684 0 0 1-.06-.324.583.583 0 0 1 .12-.288.498.498 0 0 1 .264-.156.541.541 0 0 1 .36.06c.32.152.62.26.9.324.28.056.556.084.828.084.384 0 .668-.064.852-.192a.621.621 0 0 0 .288-.528.493.493 0 0 0-.192-.42c-.12-.104-.304-.18-.552-.228l-1.2-.228c-.496-.096-.876-.276-1.14-.54-.256-.272-.384-.62-.384-1.044 0-.384.104-.716.312-.996.216-.28.512-.496.888-.648a3.437 3.437 0 0 1 1.296-.228c.352 0 .68.04.984.12.312.072.612.188.9.348.12.064.2.148.24.252.048.104.06.212.036.324a.7.7 0 0 1-.144.288.502.502 0 0 1-.276.156.63.63 0 0 1-.36-.072 3.229 3.229 0 0 0-.72-.276 2.67 2.67 0 0 0-.648-.084c-.392 0-.684.068-.876.204a.64.64 0 0 0-.276.54.57.57 0 0 0 .168.42c.112.112.284.188.516.228l1.2.228c.52.096.912.272 1.176.528.272.256.408.6.408 1.032 0 .584-.228 1.044-.684 1.38-.456.328-1.064.492-1.824.492Zm5.643 0a2.62 2.62 0 0 1-1.14-.24 2.067 2.067 0 0 1-.78-.672 1.688 1.688 0 0 1-.276-.948c0-.432.112-.772.336-1.02.224-.256.588-.44 1.092-.552.504-.112 1.18-.168 2.028-.168h.6v.864h-.588c-.496 0-.892.024-1.188.072-.296.048-.508.132-.636.252-.12.112-.18.272-.18.48 0 .264.092.48.276.648.184.168.44.252.768.252.264 0 .496-.06.696-.18.208-.128.372-.3.492-.516.12-.216.18-.464.18-.744v-1.38c0-.4-.088-.688-.264-.864-.176-.176-.472-.264-.888-.264a3.766 3.766 0 0 0-1.596.372c-.152.072-.288.092-.408.06a.459.459 0 0 1-.264-.192.63.63 0 0 1-.096-.336c0-.12.032-.236.096-.348a.572.572 0 0 1 .324-.264c.368-.152.72-.26 1.056-.324a5.16 5.16 0 0 1 .936-.096c.576 0 1.048.088 1.416.264.376.176.656.444.84.804.184.352.276.808.276 1.368v2.88c0 .248-.06.44-.18.576-.12.128-.292.192-.516.192-.224 0-.4-.064-.528-.192-.12-.136-.18-.328-.18-.576v-.576h.096a1.627 1.627 0 0 1-.948 1.2 2.05 2.05 0 0 1-.852.168Zm5.374-.036c-.24 0-.424-.072-.552-.216-.128-.144-.192-.344-.192-.6v-4.404c0-.264.064-.464.192-.6.128-.144.312-.216.552-.216.24 0 .424.072.552.216.136.136.204.336.204.6v4.404c0 .256-.064.456-.192.6-.128.144-.316.216-.564.216Zm0-7.152c-.28 0-.5-.068-.66-.204-.152-.144-.228-.34-.228-.588 0-.256.076-.452.228-.588.16-.136.38-.204.66-.204.288 0 .508.068.66.204.152.136.228.332.228.588 0 .248-.076.444-.228.588-.152.136-.372.204-.66.204Z" class="Selesai"/>
    <g class="Visitor Step">
      <rect width="22" height="22" x="76" y="409" fill="#fff" rx="11"/>
      <path fill="#333" d="M85.13 424c-.225 0-.402-.061-.532-.182-.122-.13-.183-.303-.183-.52 0-.225.061-.394.182-.507.13-.113.308-.169.534-.169h1.456v-6.383h.805l-1.91 1.157a.759.759 0 0 1-.469.117.73.73 0 0 1-.364-.182.826.826 0 0 1-.195-.364.686.686 0 0 1 .027-.416.757.757 0 0 1 .338-.364l1.793-1.079c.174-.104.347-.191.52-.26.174-.078.334-.117.481-.117.183 0 .334.052.456.156.12.095.181.256.181.481v7.254h1.326c.226 0 .4.056.52.169.13.113.195.282.195.507 0 .225-.064.399-.194.52-.122.121-.295.182-.52.182H85.13Z" class="1"/>
      <rect width="22" height="22" x="76" y="409" stroke="#9D02FF" stroke-width="2" rx="11"/>
    </g>
    <g class="Visitor Step">
      <rect width="22" height="22" x="76" y="271" fill="#fff" rx="11"/>
      <path fill="#333" d="M84.832 286c-.278 0-.481-.061-.611-.182-.122-.13-.183-.316-.183-.559 0-.147.04-.29.118-.429.078-.139.19-.286.337-.442l2.614-2.782c.398-.416.684-.793.858-1.131.173-.347.26-.693.26-1.04 0-.433-.14-.763-.416-.988-.27-.225-.663-.338-1.183-.338-.295 0-.59.043-.885.13a3.086 3.086 0 0 0-.897.416c-.155.104-.303.147-.441.13a.635.635 0 0 1-.352-.169.737.737 0 0 1-.195-.351.756.756 0 0 1 .014-.416.76.76 0 0 1 .311-.377 4.327 4.327 0 0 1 1.249-.572c.467-.13.935-.195 1.403-.195.66 0 1.214.1 1.665.299.45.199.792.49 1.026.871.234.381.352.845.352 1.391 0 .364-.061.719-.183 1.066a4.14 4.14 0 0 1-.532 1.053 8.205 8.205 0 0 1-.924 1.131l-2.444 2.548v-.442h3.822c.235 0 .412.056.534.169.12.113.181.282.181.507 0 .225-.06.399-.181.52-.122.121-.3.182-.534.182h-4.783Z" class="2"/>
      <rect width="22" height="22" x="76" y="271" stroke="#9D02FF" stroke-width="2" rx="11"/>
    </g>
    <g class="Visitor Step">
      <rect width="22" height="22" x="76" y="133" fill="#fff" rx="11"/>
      <path fill="#333" d="M86.82 148.13c-.467 0-.953-.061-1.455-.182a4.172 4.172 0 0 1-1.313-.546.878.878 0 0 1-.352-.39.713.713 0 0 1-.052-.416.737.737 0 0 1 .196-.351.657.657 0 0 1 .377-.169.889.889 0 0 1 .507.117c.355.191.697.329 1.026.416.33.078.668.117 1.014.117.382 0 .703-.052.963-.156.26-.104.455-.26.585-.468.138-.208.207-.459.207-.754 0-.433-.147-.754-.441-.962-.286-.217-.707-.325-1.261-.325h-.832c-.243 0-.43-.061-.56-.182-.12-.121-.181-.29-.181-.507 0-.217.06-.386.181-.507.13-.121.317-.182.56-.182h.675c.33 0 .611-.052.846-.156a1.32 1.32 0 0 0 .545-.468c.13-.199.195-.442.195-.728 0-.399-.134-.702-.403-.91-.26-.208-.64-.312-1.143-.312-.321 0-.624.039-.91.117a3.56 3.56 0 0 0-.923.403.71.71 0 0 1-.456.117.585.585 0 0 1-.35-.169.738.738 0 0 1-.195-.338.686.686 0 0 1 .025-.416.747.747 0 0 1 .326-.377 4.274 4.274 0 0 1 1.234-.546 5 5 0 0 1 1.392-.195c.632 0 1.174.1 1.625.299.45.191.793.468 1.027.832.242.355.364.789.364 1.3 0 .364-.07.698-.209 1.001a2.158 2.158 0 0 1-.584.754 2.238 2.238 0 0 1-.91.442v-.156c.624.104 1.109.364 1.456.78.346.407.52.919.52 1.534 0 .537-.135 1.005-.403 1.404-.27.399-.65.706-1.145.923-.493.208-1.083.312-1.767.312Z" class="3"/>
      <rect width="22" height="22" x="76" y="133" stroke="#9D02FF" stroke-width="2" rx="11"/>
    </g>
    <g class="Visitor Step">
      <rect width="22" height="22" x="212" y="194" fill="#fff" rx="11"/>
      <path fill="#333" d="M224.472 209.104c-.26 0-.464-.069-.611-.208-.148-.147-.221-.355-.221-.624v-1.014h-3.211c-.269 0-.486-.056-.65-.169-.156-.113-.234-.29-.234-.533 0-.139.034-.29.104-.455.078-.165.212-.381.403-.65l3.562-5.161a1.41 1.41 0 0 1 .403-.416.914.914 0 0 1 .507-.143c.225 0 .411.069.559.208.147.13.221.338.221.624v5.317h.637c.251 0 .437.061.559.182.13.113.195.282.195.507 0 .225-.065.399-.195.52-.122.113-.308.169-.559.169h-.637v1.014c0 .269-.074.477-.221.624-.148.139-.351.208-.611.208Zm-.832-3.224v-4.056h.377l-3.068 4.498v-.442h2.691Z" class="4"/>
      <rect width="22" height="22" x="212" y="194" stroke="#9D02FF" stroke-width="2" rx="11"/>
    </g>
  </g>
  <defs>
    <clipPath id="c" class="c">
      <path fill="#fff" d="M0 0h689v317H0z" transform="rotate(-90 353 336)"/>
    </clipPath>
    <clipPath id="d" class="d">
      <path fill="#fff" d="M0 0h37.919v37.968H0z" transform="translate(55.677 589.776)"/>
    </clipPath>
    <clipPath id="e" class="e">
      <path fill="#fff" d="M0 0h34.885v30.881H0z" transform="translate(55.677 635.844)"/>
    </clipPath>
    <clipPath id="f" class="f">
      <path fill="#fff" d="M0 0h52.143v62.187H0z" transform="rotate(-90 69.967 -10.736)"/>
    </clipPath>
    <clipPath id="g" class="g">
      <path fill="#fff" d="M0 0h51.864v89.994H0z" transform="rotate(-90 128.5 -69.5)"/>
    </clipPath>
    <clipPath id="h" class="h">
      <path fill="#fff" d="M0 0h43.494v89.994H0z" transform="rotate(-90 277.704 79.705)"/>
    </clipPath>
    <clipPath id="i" class="i">
      <path fill="#fff" d="M0 0h41.347v89.994H0z" transform="rotate(-90 392.793 194.793)"/>
    </clipPath>
    <clipPath id="j" class="j">
      <path fill="#fff" d="M0 0h40.5v40.447H0z" transform="matrix(0 1 1 0 202.549 58.724)"/>
    </clipPath>
    <clipPath id="k" class="k">
      <path fill="#fff" d="M0 0h39.487v31.346H0z" transform="rotate(-90 287.94 260.83)"/>
    </clipPath>
    <clipPath id="l" class="l">
      <path fill="#fff" d="M0 0h37v59H0z" transform="translate(353 347)"/>
    </clipPath>
    <radialGradient id="a" cx="0" cy="0" r="1" class="a" gradientTransform="rotate(90 -130.5 280.592) scale(150)" gradientUnits="userSpaceOnUse">
      <stop stop-color="#fff"/>
      <stop offset=".151" stop-color="#fff" stop-opacity="0"/>
      <stop offset=".297" stop-color="#fff"/>
      <stop offset=".448" stop-color="#fff" stop-opacity="0"/>
      <stop offset=".604" stop-color="#fff"/>
      <stop offset=".745" stop-color="#fff" stop-opacity="0"/>
      <stop offset=".865" stop-color="#fff"/>
      <stop offset="1" stop-color="#fff" stop-opacity="0"/>
    </radialGradient>
    <radialGradient id="b" cx="0" cy="0" r="1" class="b" gradientTransform="rotate(90 -15.5 173.744) scale(150)" gradientUnits="userSpaceOnUse">
      <stop stop-color="#fff"/>
      <stop offset=".151" stop-color="#fff" stop-opacity="0"/>
      <stop offset=".297" stop-color="#fff"/>
      <stop offset=".448" stop-color="#fff" stop-opacity="0"/>
      <stop offset=".604" stop-color="#fff"/>
      <stop offset=".745" stop-color="#fff" stop-opacity="0"/>
      <stop offset=".865" stop-color="#fff"/>
      <stop offset="1" stop-color="#fff" stop-opacity="0"/>
    </radialGradient>
  </defs>
</svg>
