<svg xmlns="http://www.w3.org/2000/svg" fill="none" viewBox="0 0 301 561">
  <g clip-path="url(#a)">
    <g clip-path="url(#b)">
      <path fill="#9D02FF" d="M30 191.458c-8.837 0-16-7.163-16-16V84.443c0-8.837 7.163-16 16-16h24v123.015H30Z"/>
      <path fill="#fff" d="M36.82 166.474c-.215 0-.412.019-.589.058-.177.039-.34.122-.49.249a2.21 2.21 0 0 0-.447.54 6.25 6.25 0 0 0-.465.913c-.188.448-.388.883-.598 1.303-.216.421-.465.8-.747 1.137a3.235 3.235 0 0 1-.996.805c-.388.194-.841.291-1.361.291a3.4 3.4 0 0 1-1.387-.274 3.022 3.022 0 0 1-1.062-.797 3.638 3.638 0 0 1-.69-1.203 4.739 4.739 0 0 1-.24-1.553c0-.774.16-1.444.482-2.008.32-.57.76-1.01 1.32-1.32.558-.316 1.2-.473 1.925-.473v2.423c-.343 0-.645.05-.905.15a1.253 1.253 0 0 0-.622.456c-.15.211-.224.482-.224.814 0 .31.063.567.19.772.122.199.291.348.507.448.21.094.448.141.714.141.199 0 .379-.047.54-.141.154-.1.295-.235.423-.407.121-.171.24-.373.357-.606.116-.238.23-.498.34-.78a9.123 9.123 0 0 1 .714-1.453c.254-.42.542-.772.863-1.054a3.248 3.248 0 0 1 1.07-.639 3.99 3.99 0 0 1 1.362-.216c.504 0 .963.089 1.378.266.41.171.764.423 1.063.755.293.332.52.734.68 1.204.16.465.241.985.241 1.56 0 .559-.077 1.088-.232 1.586a3.87 3.87 0 0 1-.723 1.32 3.4 3.4 0 0 1-1.236.888c-.504.216-1.099.324-1.785.324v-2.432c.365 0 .678-.036.938-.108a1.43 1.43 0 0 0 .614-.332c.15-.15.263-.332.34-.548.072-.222.108-.473.108-.756 0-.321-.06-.575-.182-.763a1.019 1.019 0 0 0-.49-.415 1.843 1.843 0 0 0-.697-.125Zm-8.906-4.931v-2.133l8.268-2.465-8.268-2.457v-1.884L40 156.04v1.818l-12.086 3.685Zm0 .864v-2.034l7.969-.315H40v2.349H27.914Zm0-8.874v-2.042H40v2.341h-4.117l-7.969-.299Zm2.158-8.55L40 147.582v2.564l-12.086-3.776v-1.602l2.158.215Zm9.928-2.05-9.928 2.615-2.158.241v-1.627L40 140.352v2.581Zm-4.507-.091h2.017v5.453h-2.017v-5.453Zm-7.579-3.653v-3.876c0-.808.138-1.497.415-2.067a2.934 2.934 0 0 1 1.229-1.311c.542-.305 1.212-.457 2.008-.457.653 0 1.212.089 1.677.266.46.177.844.429 1.154.755.304.327.548.717.73 1.17l.44.739v3.146l-2.017.008v-2.183c0-.332-.072-.606-.215-.821a1.308 1.308 0 0 0-.623-.49 2.485 2.485 0 0 0-.946-.166c-.382 0-.709.05-.98.149a1.208 1.208 0 0 0-.63.457c-.15.205-.225.473-.225.805v1.444H40v2.432H27.914ZM40 133.703l-5.387 2.216-.008-2.548 5.279-2.267H40v2.599Zm-12.086-8.301H40v2.415H27.914v-2.415Zm0-3.005h2.017v8.367h-2.017v-8.367Zm0-9.147H40v2.415H27.914v-2.415Zm0-3.005h2.017v8.367h-2.017v-8.367Zm9.505-5.305-9.505-2.291v-2.623L40 103.529v1.768l-2.581-.357Zm-9.505 1.959 9.505-2.282 2.581-.374v1.777l-12.086 3.478v-2.599Zm4.972-13.845v-1.13c0-.293-.066-.533-.199-.721a1.195 1.195 0 0 0-.581-.415 2.602 2.602 0 0 0-.872-.133c-.31 0-.58.041-.813.124a1.17 1.17 0 0 0-.548.382c-.133.172-.2.388-.2.648 0 .199.056.384.167.556.11.171.268.31.473.415.2.1.44.15.722.15v2.34c-.664 0-1.242-.152-1.735-.456a3.2 3.2 0 0 1-1.154-1.229 3.553 3.553 0 0 1-.415-1.71c0-.703.133-1.32.399-1.851a2.87 2.87 0 0 1 1.162-1.245c.51-.299 1.14-.448 1.893-.448.387 0 .76.074 1.12.224a3 3 0 0 1 .971.63c.283.277.507.615.673 1.013.166.393.249.841.249 1.345v1.51h-1.312Zm1.884 0H33.5v-1.511c0-.565.075-1.057.225-1.478a2.67 2.67 0 0 1 .63-1.054c.277-.282.606-.492.988-.63a3.678 3.678 0 0 1 1.262-.208c.564 0 1.068.094 1.51.282.443.188.817.451 1.121.789.305.337.537.73.698 1.178.155.449.232.936.232 1.461 0 .438-.07.866-.207 1.287a3.277 3.277 0 0 1-.64 1.12c-.287.333-.65.595-1.087.79-.437.193-.955.29-1.552.29v-2.325c.298 0 .567-.052.805-.157.232-.105.415-.25.548-.432.133-.188.199-.398.199-.63 0-.272-.07-.507-.208-.706a1.304 1.304 0 0 0-.58-.457 2.227 2.227 0 0 0-.872-.158c-.426 0-.77.056-1.03.166-.265.111-.459.271-.58.482a1.44 1.44 0 0 0-.192.763v1.138Z"/>
      <path fill="#605756" d="M30 322.163c-8.837 0-16-7.164-16-16v-91.016c0-8.836 7.163-16 16-16h24v123.016H30Z"/>
      <path fill="#fff" d="M36.82 297.178c-.215 0-.412.02-.589.058-.177.039-.34.122-.49.249a2.21 2.21 0 0 0-.447.54 6.25 6.25 0 0 0-.465.913c-.188.448-.388.883-.598 1.303-.216.421-.465.8-.747 1.137a3.252 3.252 0 0 1-.996.806c-.388.193-.841.29-1.361.29a3.4 3.4 0 0 1-1.387-.274 3.022 3.022 0 0 1-1.062-.797 3.638 3.638 0 0 1-.69-1.203 4.739 4.739 0 0 1-.24-1.553c0-.774.16-1.444.482-2.008.32-.57.76-1.01 1.32-1.32.558-.316 1.2-.473 1.925-.473v2.424c-.343 0-.645.049-.905.149a1.253 1.253 0 0 0-.622.456c-.15.211-.224.482-.224.814 0 .31.063.567.19.772.122.199.291.349.507.448.21.094.448.141.714.141.199 0 .379-.047.54-.141.154-.099.295-.235.423-.407.121-.171.24-.373.357-.606.116-.237.23-.498.34-.78a9.069 9.069 0 0 1 .714-1.452c.254-.421.542-.772.863-1.055a3.248 3.248 0 0 1 1.07-.639 3.99 3.99 0 0 1 1.362-.216c.504 0 .963.089 1.378.266.41.172.764.423 1.063.755.293.332.52.734.68 1.204.16.465.241.985.241 1.561a5.31 5.31 0 0 1-.232 1.585 3.87 3.87 0 0 1-.723 1.32 3.4 3.4 0 0 1-1.236.888c-.504.216-1.099.324-1.785.324v-2.432c.365 0 .678-.036.938-.108a1.43 1.43 0 0 0 .614-.332c.15-.15.263-.332.34-.548.072-.222.108-.473.108-.756 0-.321-.06-.575-.182-.763a1.019 1.019 0 0 0-.49-.415 1.843 1.843 0 0 0-.697-.125Zm-8.906-4.93v-2.134l8.268-2.465-8.268-2.457v-1.884L40 286.744v1.818l-12.086 3.686Zm0 .863v-2.034l7.969-.315H40v2.349H27.914Zm0-8.874v-2.042H40v2.341h-4.117l-7.969-.299Zm2.158-8.55L40 278.286v2.565l-12.086-3.777v-1.602l2.158.215Zm9.928-2.05-9.928 2.615-2.158.241v-1.627L40 271.056v2.581Zm-4.507-.091h2.017V279h-2.017v-5.454Zm-7.579-3.652v-3.877c0-.808.138-1.497.415-2.067a2.934 2.934 0 0 1 1.229-1.311c.542-.305 1.212-.457 2.008-.457.653 0 1.212.089 1.677.266.46.177.844.429 1.154.755.304.327.548.717.73 1.171l.44.738v3.146l-2.017.009v-2.184c0-.332-.072-.605-.215-.821a1.308 1.308 0 0 0-.623-.49 2.485 2.485 0 0 0-.946-.166c-.382 0-.709.05-.98.149a1.208 1.208 0 0 0-.63.457c-.15.205-.225.473-.225.805v1.444H40v2.433H27.914ZM40 264.407l-5.387 2.216-.008-2.548 5.279-2.266H40v2.598Zm-12.086-8.301H40v2.415H27.914v-2.415Zm0-3.005h2.017v8.367h-2.017v-8.367Zm0-9.147H40v2.415H27.914v-2.415Zm0-3.005h2.017v8.367h-2.017v-8.367Zm9.505-5.304-9.505-2.291v-2.624L40 234.233v1.768l-2.581-.356Zm-9.505 1.959 9.505-2.283 2.581-.374v1.777l-12.086 3.478v-2.598Zm10.152-18.876H40v7.122h-1.652l-4.159-3.271a10.977 10.977 0 0 0-1.145-.739 4.964 4.964 0 0 0-.888-.382 2.693 2.693 0 0 0-.747-.116c-.36 0-.667.042-.922.125-.26.083-.459.207-.597.373a.864.864 0 0 0-.216.598 1 1 0 0 0 .265.714c.177.188.421.329.73.423a3.7 3.7 0 0 0 1.038.133v2.333a4.499 4.499 0 0 1-1.992-.44 3.595 3.595 0 0 1-1.436-1.254c-.36-.542-.54-1.192-.54-1.951 0-.741.14-1.361.416-1.859a2.68 2.68 0 0 1 1.187-1.137c.509-.26 1.118-.39 1.826-.39.404 0 .797.052 1.179.157a6.03 6.03 0 0 1 1.129.449c.37.193.75.431 1.137.714.387.282.788.6 1.203.954l2.25 1.577v-4.133Z"/>
      <path fill="#605756" d="M30 452.866c-8.837 0-16-7.163-16-16v-91.015c0-8.837 7.163-16 16-16h24v123.015H30Z"/>
      <path fill="#fff" d="M36.82 427.882c-.215 0-.412.019-.589.058-.177.039-.34.122-.49.249a2.21 2.21 0 0 0-.447.54 6.2 6.2 0 0 0-.465.913c-.188.448-.388.882-.598 1.303a6.16 6.16 0 0 1-.747 1.137 3.235 3.235 0 0 1-.996.805c-.388.194-.841.291-1.361.291-.51 0-.972-.092-1.387-.274a3.022 3.022 0 0 1-1.062-.797 3.633 3.633 0 0 1-.69-1.204 4.733 4.733 0 0 1-.24-1.552c0-.775.16-1.444.482-2.009.32-.57.76-1.01 1.32-1.32.558-.315 1.2-.473 1.925-.473v2.424c-.343 0-.645.05-.905.15a1.253 1.253 0 0 0-.622.456c-.15.21-.224.482-.224.814 0 .309.063.567.19.772.122.199.291.348.507.448.21.094.448.141.714.141.199 0 .379-.047.54-.141.154-.1.295-.235.423-.407.121-.171.24-.373.357-.606.116-.238.23-.498.34-.78a9.123 9.123 0 0 1 .714-1.453c.254-.42.542-.772.863-1.054a3.248 3.248 0 0 1 1.07-.639 3.99 3.99 0 0 1 1.362-.216c.504 0 .963.089 1.378.266.41.171.764.423 1.063.755.293.332.52.733.68 1.204.16.464.241.985.241 1.56 0 .559-.077 1.088-.232 1.586-.16.498-.402.938-.723 1.319a3.391 3.391 0 0 1-1.236.889c-.504.215-1.099.323-1.785.323v-2.432c.365 0 .678-.036.938-.108a1.42 1.42 0 0 0 .614-.332c.15-.149.263-.332.34-.548.072-.221.108-.473.108-.755 0-.321-.06-.575-.182-.764a1.024 1.024 0 0 0-.49-.415 1.843 1.843 0 0 0-.697-.124Zm-8.906-4.931v-2.133l8.268-2.465-8.268-2.457v-1.885L40 417.448v1.818l-12.086 3.685Zm0 .863v-2.033l7.969-.316H40v2.349H27.914Zm0-8.873v-2.042H40v2.341h-4.117l-7.969-.299Zm2.158-8.55L40 408.989v2.565l-12.086-3.777v-1.602l2.158.216Zm9.928-2.05-9.928 2.615-2.158.24v-1.627L40 401.759v2.582Zm-4.507-.091h2.017v5.453h-2.017v-5.453Zm-7.579-3.653v-3.876c0-.808.138-1.497.415-2.067a2.942 2.942 0 0 1 1.229-1.312c.542-.304 1.212-.456 2.008-.456.653 0 1.212.088 1.677.265.46.177.844.429 1.154.756.304.326.548.716.73 1.17l.44.739v3.146l-2.017.008v-2.183c0-.332-.072-.606-.215-.822a1.312 1.312 0 0 0-.623-.489 2.485 2.485 0 0 0-.946-.166c-.382 0-.709.049-.98.149a1.202 1.202 0 0 0-.63.457c-.15.204-.225.473-.225.805v1.444H40v2.432H27.914ZM40 395.11l-5.387 2.217-.008-2.549 5.279-2.266H40v2.598Zm-12.086-8.3H40v2.415H27.914v-2.415Zm0-3.005h2.017v8.367h-2.017v-8.367Zm0-9.148H40v2.416H27.914v-2.416Zm0-3.005h2.017v8.368h-2.017v-8.368Zm9.505-5.304-9.505-2.291v-2.623L40 364.937v1.768l-2.581-.357Zm-9.505 1.959 9.505-2.283 2.581-.373v1.776l-12.086 3.478v-2.598Zm-.025-16.909H40v2.325h-9.255l.888 2.307H29.69l-1.8-4.383v-.249Z"/>
      <rect width="90.664" height="37.766" x="207.467" y="503.244" fill="#fff" rx="14" transform="rotate(-90 207.467 503.244)"/>
      <path fill="#333" d="M220.264 482.109v-2.133l8.268-2.466-8.268-2.457v-1.884l12.086 3.436v1.818l-12.086 3.686Zm0 .863v-2.034l7.969-.315h4.117v2.349h-12.086Zm0-8.873v-2.042h12.086v2.34h-4.117l-7.969-.298Zm10.077-10.957h2.009v5.254h-2.009v-5.254Zm-10.077 4.499h12.086v2.432h-12.086v-2.432Zm4.898-3.794h1.95v4.549h-1.95v-4.549Zm-4.898-.689h2.017v5.238h-2.017v-5.238Zm8.359-5.412h-8.359v-2.424h8.367c.803 0 1.497.155 2.084.465.581.304 1.026.72 1.336 1.245.31.526.465 1.118.465 1.777 0 .675-.133 1.278-.398 1.809a2.955 2.955 0 0 1-1.229 1.245c-.553.305-1.256.457-2.108.457v-2.441c.431 0 .772-.044 1.021-.132.249-.089.429-.213.539-.374a.991.991 0 0 0 .166-.564.791.791 0 0 0-.224-.573c-.149-.161-.362-.282-.639-.365a3.652 3.652 0 0 0-1.021-.125Zm-6.201-8.55 9.928 2.598v2.565l-12.086-3.776v-1.603l2.158.216Zm9.928-2.05-9.928 2.615-2.158.24v-1.626l12.086-3.811v2.582Zm-4.507-.091h2.017v5.453h-2.017v-5.453Zm2.573-14.493h1.934v7.122h-1.652l-4.158-3.271a11.02 11.02 0 0 0-1.146-.739 4.963 4.963 0 0 0-.888-.382 2.696 2.696 0 0 0-.747-.116c-.36 0-.667.042-.922.125-.26.083-.459.207-.597.373a.864.864 0 0 0-.216.598c0 .288.088.526.266.714.177.188.42.329.73.423.304.089.65.133 1.038.133v2.333a4.504 4.504 0 0 1-1.993-.44 3.602 3.602 0 0 1-1.436-1.254c-.359-.542-.539-1.192-.539-1.951 0-.741.138-1.361.415-1.859a2.68 2.68 0 0 1 1.187-1.137c.509-.26 1.118-.39 1.826-.39.404 0 .797.052 1.179.157.376.106.752.255 1.129.449.37.193.75.431 1.137.714.387.282.788.6 1.204.954l2.249 1.577v-4.133Z"/>
      <rect width="90.664" height="37.766" x="207.467" y="503.244" stroke="#605756" stroke-width="4" rx="14" transform="rotate(-90 207.467 503.244)"/>
      <rect width="168.99" height="37.766" x="217.549" y="258.655" fill="#fff" rx="14" transform="rotate(-90 217.549 258.655)"/>
      <path fill="#333" d="M230.345 198.356v-2.133l8.268-2.465-8.268-2.457v-1.884l12.086 3.436v1.818l-12.086 3.685Zm0 .864v-2.034l7.969-.315h4.117v2.349h-12.086Zm0-8.874v-2.042h12.086v2.341h-4.117l-7.969-.299Zm10.078-10.957h2.008v5.255h-2.008v-5.255Zm-10.078 4.499h12.086v2.432h-12.086v-2.432Zm4.898-3.793h1.951v4.549h-1.951v-4.549Zm-4.898-.689h2.018v5.238h-2.018v-5.238Zm8.359-5.412h-8.359v-2.424h8.368c.802 0 1.497.155 2.083.465a3.269 3.269 0 0 1 1.337 1.245 3.44 3.44 0 0 1 .464 1.776c0 .675-.132 1.278-.398 1.81-.271.525-.681.94-1.229 1.245-.553.304-1.256.456-2.108.456v-2.44c.432 0 .772-.044 1.021-.133.249-.088.429-.213.54-.373.11-.166.166-.355.166-.565a.795.795 0 0 0-.224-.573c-.15-.16-.363-.282-.64-.365a3.65 3.65 0 0 0-1.021-.124Zm-6.2-8.55 9.927 2.598v2.565l-12.086-3.777v-1.602l2.159.216Zm9.927-2.05-9.927 2.614-2.159.241v-1.627l12.086-3.81v2.582Zm-4.507-.092h2.017v5.454h-2.017v-5.454Zm-7.603-12.526h12.11v2.325h-9.255l.888 2.307h-1.942l-1.801-4.383v-.249Z"/>
      <rect width="168.99" height="37.766" x="217.549" y="258.655" stroke="#605756" stroke-width="4" rx="14" transform="rotate(-90 217.549 258.655)"/>
      <rect width="49.495" height="59.048" x="60.488" y="49.222" fill="#999" rx="5" transform="rotate(-90 60.488 49.222)"/>
      <g clip-path="url(#c)">
        <path fill="#CEC1C1" d="M86.102 24.474 64.99 4.257c-1.08-1.039-1.08-2.718 0-3.657a2.689 2.689 0 0 1 3.914 0l21.109 20.13L111.117.6c1.084-1.127 2.837-1.127 3.817 0 1.177.939 1.177 2.618 0 3.657L93.921 24.474l21.013 20.221c1.177 1.035 1.177 2.715 0 3.75-.98 1.035-2.733 1.035-3.817 0L90.012 28.22 68.903 48.445a2.854 2.854 0 0 1-3.914 0 2.574 2.574 0 0 1 0-3.75l21.113-20.22Z"/>
      </g>
      <rect width="49.229" height="85.451" x="171.863" y="49.003" fill="#999" rx="5" transform="rotate(-90 171.863 49.003)"/>
      <g clip-path="url(#d)">
        <path fill="#CEC1C1" d="M208.931 24.388 178.377 4.28c-1.564-1.033-1.564-2.703 0-3.637 1.564-1.12 4.1-1.12 5.664 0l30.547 20.021L245.131.642c1.568-1.12 4.105-1.12 5.524 0 1.702.934 1.702 2.604 0 3.637l-30.409 20.11L250.655 44.5c1.702 1.03 1.702 2.7 0 3.73-1.419 1.03-3.956 1.03-5.524 0l-30.543-20.117-30.547 20.116c-1.564 1.03-4.1 1.03-5.664 0s-1.564-2.7 0-3.73l30.554-20.112Z"/>
      </g>
      <rect width="41.284" height="85.451" x="171.863" y="332.253" fill="#999" rx="5" transform="rotate(-90 171.863 332.253)"/>
      <g clip-path="url(#e)">
        <path fill="#CEC1C1" d="m208.931 311.611-30.554-16.864c-1.564-.866-1.564-2.267 0-3.05 1.564-.94 4.1-.94 5.664 0l30.547 16.79 30.543-16.79c1.568-.94 4.105-.94 5.524 0 1.702.783 1.702 2.184 0 3.05l-30.409 16.864 30.409 16.867c1.702.863 1.702 2.264 0 3.128-1.419.863-3.956.863-5.524 0l-30.543-16.871-30.547 16.871c-1.564.863-4.1.863-5.664 0-1.564-.864-1.564-2.265 0-3.128l30.554-16.867Z"/>
      </g>
      <rect width="39.246" height="85.451" x="171.863" y="550.737" fill="#999" rx="5" transform="rotate(-90 171.863 550.737)"/>
      <g clip-path="url(#f)">
        <path fill="#CEC1C1" d="m208.931 531.114-30.554-16.031c-1.564-.824-1.564-2.155 0-2.9 1.564-.894 4.1-.894 5.664 0l30.547 15.961 30.543-15.961c1.568-.894 4.105-.894 5.524 0 1.702.745 1.702 2.076 0 2.9l-30.409 16.031 30.409 16.034c1.702.821 1.702 2.153 0 2.974-1.419.821-3.956.821-5.524 0l-30.543-16.038-30.547 16.038c-1.564.821-4.1.821-5.664 0s-1.564-2.153 0-2.974l30.554-16.034Z"/>
      </g>
      <path fill="#605756" d="M214.588 266.902a4.8 4.8 0 0 0-4.8-4.806v9.611a4.801 4.801 0 0 0 4.8-4.805Zm-21.467-1.802h-7.936c-4.964 0-9.002 4.04-9.002 9.01v7.809c0 4.967 4.038 9.01 9.002 9.01h29.403v-3.604h-29.403a5.41 5.41 0 0 1-5.401-5.406v-7.809a5.41 5.41 0 0 1 5.401-5.406h7.936c.802 6.503 5.825 11.683 12.234 12.599 1.072.143 2.032-.728 2.032-1.817v-25.168c0-1.091-.96-1.964-2.037-1.816-6.409.915-11.427 6.089-12.229 12.598Zm10.666 12.119a10.808 10.808 0 0 1-5.105-3.869c-1.335-1.855-1.962-4.128-1.962-6.414v-.07c0-2.287.629-4.561 1.964-6.417a10.78 10.78 0 0 1 5.103-3.863v20.633Z"/>
      <g clip-path="url(#g)">
        <path fill="#605756" d="M214.588 72.768a4.8 4.8 0 0 1-4.8 4.806v-9.61a4.8 4.8 0 0 1 4.8 4.804Zm-21.467 1.802h-7.936c-4.964 0-9.002-4.04-9.002-9.01v-7.81c0-4.967 4.038-9.01 9.002-9.01h29.403v3.604h-29.403a5.41 5.41 0 0 0-5.401 5.406v7.809a5.41 5.41 0 0 0 5.401 5.406h7.936c.802-6.503 5.825-11.683 12.234-12.6 1.072-.142 2.032.73 2.032 1.818v25.168c0 1.09-.96 1.964-2.037 1.816-6.409-.916-11.427-6.089-12.229-12.598Zm10.666-12.119a10.805 10.805 0 0 0-5.105 3.869c-1.335 1.855-1.962 4.128-1.962 6.414v.07c0 2.287.629 4.561 1.964 6.417a10.782 10.782 0 0 0 5.103 3.863V62.451Z"/>
      </g>
      <path fill="#999" stroke="#999" d="M257.814 332.234V-.734h2.841v332.968z"/>
      <path stroke="#999" d="M257.814 560.005V408.677h2.841v151.328z"/>
      <path stroke="#999" d="M300.5 410.08h-42.686v-1.403H300.5zm0-77.846h-42.686v-1.883H300.5z"/>
      <g clip-path="url(#h)">
        <path fill="#9C0E0E" d="M12.392 498.901c0 6.729 5.412 12.181 12.091 12.181 6.68 0 12.092-5.452 12.092-12.181a12.19 12.19 0 0 0-3.436-8.509 2.822 2.822 0 0 0 .645-1.798v-1.072l.873.439a14.986 14.986 0 0 1 4.708 10.94c0 8.281-6.662 14.993-14.882 14.993-8.22 0-14.882-6.712-14.882-14.993 0-7.971 6.25-14.571 14.115-14.975l2.29 2.887c-.5-.058-1.005-.093-1.523-.093-6.68 0-12.091 5.452-12.091 12.181Zm8.836 3.748c.773 0 1.395.627 1.395 1.406 0 .779-.622 1.405-1.395 1.405h-2.79a1.396 1.396 0 0 1-1.396-1.405c0-.779.622-1.406 1.395-1.406h2.79Zm0-5.153c.773 0 1.395.626 1.395 1.405s-.622 1.406-1.395 1.406h-2.79a1.397 1.397 0 0 1-1.396-1.406c0-.779.622-1.405 1.395-1.405h2.79Zm0-5.154c.773 0 1.395.626 1.395 1.405s-.622 1.406-1.395 1.406h-2.79a1.397 1.397 0 0 1-1.396-1.406c0-.779.622-1.405 1.395-1.405h2.79Zm1.604-13.71a.923.923 0 0 1 1.14-.246l6.092 3.069v-4.106c0-.398.25-.755.622-.884a.882.882 0 0 1 1.035.351l7.44 9.371c.274.293.274.779-.005 1.124a.923.923 0 0 1-1.14.246l-6.092-3.069v4.106a.94.94 0 0 1-.622.884.933.933 0 0 1-1.035-.299l-7.44-9.37a.94.94 0 0 1 .005-1.177Z"/>
      </g>
    </g>
    <g clip-path="url(#i)">
      <path fill="#9C0E0E" d="m82.175 255.604-3.307 5.485a3.711 3.711 0 0 1-5.076 1.256 3.684 3.684 0 0 1-1.26-5.059l6.74-11.178a11.118 11.118 0 0 1 9.517-5.37h3.434a11.12 11.12 0 0 1 9.516 5.37l6.741 11.178a3.684 3.684 0 0 1-1.261 5.059 3.711 3.711 0 0 1-5.076-1.256l-3.318-5.485v25.708a3.69 3.69 0 0 1-3.7 3.688 3.69 3.69 0 0 1-3.7-3.688v-14.75h-1.85v14.75a3.69 3.69 0 0 1-3.7 3.688 3.69 3.69 0 0 1-3.7-3.688v-25.708Z"/>
      <path fill="#9C0E0E" d="M84.95 231.531a5.52 5.52 0 0 1 1.626-3.911 5.56 5.56 0 0 1 7.848 0 5.52 5.52 0 0 1 0 7.822 5.557 5.557 0 0 1-3.924 1.62 5.557 5.557 0 0 1-3.924-1.62 5.52 5.52 0 0 1-1.626-3.911Z" opacity=".4"/>
    </g>
    <path fill="#605756" d="M59.757 302.096c-.248 0-.44-.068-.576-.204-.128-.144-.192-.34-.192-.588v-6.984c0-.256.068-.448.204-.576.136-.136.328-.204.576-.204h2.892c.928 0 1.644.232 2.147.696.504.464.756 1.112.756 1.944 0 .832-.251 1.484-.755 1.956-.504.464-1.22.696-2.148.696h-2.136v2.472c0 .248-.064.444-.192.588-.128.136-.32.204-.576.204Zm.768-4.476h1.895c.544 0 .956-.12 1.236-.36.28-.248.42-.608.42-1.08 0-.472-.14-.828-.42-1.068-.28-.24-.691-.36-1.236-.36h-1.895v2.868Zm8.519 4.5c-.608 0-1.136-.124-1.584-.372a2.602 2.602 0 0 1-1.044-1.056c-.248-.464-.372-1.008-.372-1.632 0-.472.068-.892.204-1.26.144-.376.348-.696.612-.96.264-.272.58-.476.948-.612.368-.144.78-.216 1.236-.216.608 0 1.136.124 1.584.372.448.248.796.6 1.044 1.056.248.456.372.996.372 1.62 0 .472-.072.896-.216 1.272a2.69 2.69 0 0 1-.6.972c-.264.264-.58.468-.948.612-.368.136-.78.204-1.236.204Zm0-1.14c.296 0 .556-.072.78-.216.224-.144.396-.356.516-.636.128-.288.192-.644.192-1.068 0-.64-.136-1.116-.408-1.428-.272-.32-.632-.48-1.08-.48a1.41 1.41 0 0 0-.78.216c-.224.136-.4.348-.528.636-.12.28-.18.632-.18 1.056 0 .632.136 1.112.408 1.44.272.32.632.48 1.08.48Zm6.386 1.14c-.344 0-.708-.036-1.092-.108a3.231 3.231 0 0 1-1.032-.372.758.758 0 0 1-.276-.276.684.684 0 0 1-.06-.324.583.583 0 0 1 .12-.288.498.498 0 0 1 .264-.156.541.541 0 0 1 .36.06c.32.152.62.26.9.324.28.056.556.084.828.084.384 0 .668-.064.852-.192a.621.621 0 0 0 .288-.528.493.493 0 0 0-.192-.42c-.12-.104-.304-.18-.552-.228l-1.2-.228c-.496-.096-.876-.276-1.14-.54-.256-.272-.384-.62-.384-1.044 0-.384.104-.716.312-.996.216-.28.512-.496.888-.648a3.437 3.437 0 0 1 1.296-.228c.352 0 .68.04.984.12.312.072.612.188.9.348.12.064.2.148.24.252.048.104.06.212.036.324a.7.7 0 0 1-.144.288.502.502 0 0 1-.276.156.63.63 0 0 1-.36-.072 3.229 3.229 0 0 0-.72-.276 2.67 2.67 0 0 0-.648-.084c-.392 0-.684.068-.876.204a.64.64 0 0 0-.276.54.57.57 0 0 0 .168.42c.112.112.284.188.516.228l1.2.228c.52.096.912.272 1.176.528.272.256.408.6.408 1.032 0 .584-.228 1.044-.684 1.38-.456.328-1.064.492-1.824.492Zm4.455-.036c-.24 0-.424-.072-.552-.216-.128-.144-.192-.344-.192-.6v-4.404c0-.264.064-.464.192-.6.128-.144.312-.216.552-.216.24 0 .424.072.552.216.136.136.204.336.204.6v4.404c0 .256-.064.456-.192.6-.128.144-.316.216-.564.216Zm0-7.152c-.28 0-.5-.068-.66-.204-.152-.144-.228-.34-.228-.588 0-.256.076-.452.228-.588.16-.136.38-.204.66-.204.288 0 .508.068.66.204.152.136.228.332.228.588 0 .248-.076.444-.228.588-.152.136-.372.204-.66.204Zm4.463 7.188c-.344 0-.708-.036-1.092-.108a3.231 3.231 0 0 1-1.032-.372.758.758 0 0 1-.276-.276.684.684 0 0 1-.06-.324.583.583 0 0 1 .12-.288.498.498 0 0 1 .264-.156.541.541 0 0 1 .36.06c.32.152.62.26.9.324.28.056.556.084.828.084.384 0 .668-.064.852-.192a.621.621 0 0 0 .288-.528.493.493 0 0 0-.192-.42c-.12-.104-.304-.18-.552-.228l-1.2-.228c-.496-.096-.876-.276-1.14-.54-.256-.272-.384-.62-.384-1.044 0-.384.104-.716.312-.996.216-.28.512-.496.888-.648a3.437 3.437 0 0 1 1.296-.228c.352 0 .68.04.984.12.312.072.612.188.9.348.12.064.2.148.24.252.048.104.06.212.036.324a.7.7 0 0 1-.144.288.502.502 0 0 1-.276.156.63.63 0 0 1-.36-.072 3.229 3.229 0 0 0-.72-.276 2.67 2.67 0 0 0-.648-.084c-.392 0-.684.068-.876.204a.64.64 0 0 0-.276.54.57.57 0 0 0 .168.42c.112.112.284.188.516.228l1.2.228c.52.096.912.272 1.176.528.272.256.408.6.408 1.032 0 .584-.228 1.044-.684 1.38-.456.328-1.064.492-1.824.492Zm4.455-.036c-.24 0-.424-.072-.552-.216-.128-.144-.192-.344-.192-.6v-4.404c0-.264.064-.464.192-.6.128-.144.312-.216.552-.216.24 0 .424.072.552.216.136.136.204.336.204.6v4.404c0 .256-.064.456-.192.6-.128.144-.316.216-.564.216Zm0-7.152c-.28 0-.5-.068-.66-.204-.152-.144-.228-.34-.228-.588 0-.256.076-.452.228-.588.16-.136.38-.204.66-.204.288 0 .508.068.66.204.152.136.228.332.228.588 0 .248-.076.444-.228.588-.152.136-.372.204-.66.204Zm7.505 7.188a2.62 2.62 0 0 1-1.14-.24 2.067 2.067 0 0 1-.78-.672 1.688 1.688 0 0 1-.276-.948c0-.432.112-.772.336-1.02.224-.256.588-.44 1.092-.552.504-.112 1.18-.168 2.028-.168h.6v.864h-.588c-.496 0-.892.024-1.188.072-.296.048-.508.132-.636.252-.12.112-.18.272-.18.48 0 .264.092.48.276.648.184.168.44.252.768.252.264 0 .496-.06.696-.18.208-.128.372-.3.492-.516.12-.216.18-.464.18-.744v-1.38c0-.4-.088-.688-.264-.864-.176-.176-.472-.264-.888-.264a3.766 3.766 0 0 0-1.596.372c-.152.072-.288.092-.408.06a.459.459 0 0 1-.264-.192.63.63 0 0 1-.096-.336c0-.12.032-.236.096-.348a.572.572 0 0 1 .324-.264c.368-.152.72-.26 1.056-.324a5.16 5.16 0 0 1 .936-.096c.576 0 1.048.088 1.416.264.376.176.656.444.84.804.184.352.276.808.276 1.368v2.88c0 .248-.06.44-.18.576-.12.128-.292.192-.516.192-.224 0-.4-.064-.528-.192-.12-.136-.18-.328-.18-.576v-.576h.096a1.627 1.627 0 0 1-.948 1.2 2.05 2.05 0 0 1-.852.168Zm5.374-.024c-.24 0-.424-.064-.552-.192-.128-.136-.192-.328-.192-.576v-4.536c0-.248.064-.436.192-.564.128-.128.308-.192.54-.192.232 0 .412.064.54.192.128.128.192.316.192.564v.816l-.132-.3c.176-.424.448-.744.816-.96.376-.224.8-.336 1.272-.336s.86.088 1.164.264c.304.176.532.444.684.804.152.352.228.8.228 1.344v2.904c0 .248-.064.44-.192.576-.128.128-.312.192-.552.192-.24 0-.428-.064-.564-.192-.128-.136-.192-.328-.192-.576v-2.832c0-.456-.088-.788-.264-.996-.168-.208-.432-.312-.792-.312-.44 0-.792.14-1.056.42-.256.272-.384.636-.384 1.092v2.628c0 .512-.252.768-.756.768Zm8.532.024c-.512 0-.964-.124-1.356-.372a2.49 2.49 0 0 1-.9-1.056c-.216-.464-.324-1.008-.324-1.632 0-.632.108-1.172.324-1.62a2.49 2.49 0 0 1 .9-1.056 2.482 2.482 0 0 1 1.356-.372c.488 0 .912.12 1.272.36.368.24.616.556.744.948h-.132v-3.12c0-.248.064-.436.192-.564.128-.128.312-.192.552-.192.24 0 .424.064.552.192.136.128.204.316.204.564v7.128c0 .248-.064.44-.192.576-.128.128-.312.192-.552.192-.24 0-.424-.064-.552-.192-.128-.136-.192-.328-.192-.576v-.936l.132.36c-.12.416-.364.748-.732.996s-.8.372-1.296.372Zm.42-1.14c.296 0 .556-.072.78-.216.224-.144.396-.356.516-.636.128-.288.192-.644.192-1.068 0-.64-.136-1.116-.408-1.428-.272-.32-.632-.48-1.08-.48a1.41 1.41 0 0 0-.78.216c-.224.136-.4.348-.528.636-.12.28-.18.632-.18 1.056 0 .632.136 1.112.408 1.44.272.32.632.48 1.08.48Zm6.451 1.14a2.62 2.62 0 0 1-1.14-.24 2.067 2.067 0 0 1-.78-.672 1.688 1.688 0 0 1-.276-.948c0-.432.112-.772.336-1.02.224-.256.588-.44 1.092-.552.504-.112 1.18-.168 2.028-.168h.6v.864h-.588c-.496 0-.892.024-1.188.072-.296.048-.508.132-.636.252-.12.112-.18.272-.18.48 0 .264.092.48.276.648.184.168.44.252.768.252.264 0 .496-.06.696-.18.208-.128.372-.3.492-.516.12-.216.18-.464.18-.744v-1.38c0-.4-.088-.688-.264-.864-.176-.176-.472-.264-.888-.264a3.766 3.766 0 0 0-1.596.372c-.152.072-.288.092-.408.06a.459.459 0 0 1-.264-.192.63.63 0 0 1-.096-.336c0-.12.032-.236.096-.348a.572.572 0 0 1 .324-.264c.368-.152.72-.26 1.056-.324a5.16 5.16 0 0 1 .936-.096c.576 0 1.048.088 1.416.264.376.176.656.444.84.804.184.352.276.808.276 1.368v2.88c0 .248-.06.44-.18.576-.12.128-.292.192-.516.192-.224 0-.4-.064-.528-.192-.12-.136-.18-.328-.18-.576v-.576h.096a1.627 1.627 0 0 1-.948 1.2 2.05 2.05 0 0 1-.852.168Zm-44.65 16c-.343 0-.707-.036-1.091-.108a3.231 3.231 0 0 1-1.032-.372.758.758 0 0 1-.276-.276.684.684 0 0 1-.06-.324.583.583 0 0 1 .12-.288.498.498 0 0 1 .264-.156.541.541 0 0 1 .36.06c.32.152.62.26.9.324.28.056.556.084.828.084.384 0 .668-.064.852-.192a.621.621 0 0 0 .288-.528.493.493 0 0 0-.192-.42c-.12-.104-.304-.18-.552-.228l-1.2-.228c-.496-.096-.876-.276-1.14-.54-.256-.272-.384-.62-.384-1.044 0-.384.104-.716.312-.996.216-.28.512-.496.888-.648a3.437 3.437 0 0 1 1.296-.228c.352 0 .68.04.984.12.312.072.612.188.9.348.12.064.2.148.24.252.048.104.06.212.036.324a.7.7 0 0 1-.144.288.502.502 0 0 1-.276.156.63.63 0 0 1-.36-.072 3.229 3.229 0 0 0-.72-.276 2.67 2.67 0 0 0-.648-.084c-.392 0-.684.068-.876.204a.64.64 0 0 0-.276.54.57.57 0 0 0 .168.42c.112.112.284.188.516.228l1.2.228c.52.096.912.272 1.176.528.272.256.408.6.408 1.032 0 .584-.228 1.044-.684 1.38-.456.328-1.064.492-1.824.492Zm5.644 0a2.62 2.62 0 0 1-1.14-.24 2.067 2.067 0 0 1-.78-.672 1.688 1.688 0 0 1-.276-.948c0-.432.112-.772.336-1.02.224-.256.588-.44 1.092-.552.504-.112 1.18-.168 2.028-.168h.6v.864h-.588c-.496 0-.892.024-1.188.072-.296.048-.508.132-.636.252-.12.112-.18.272-.18.48 0 .264.092.48.276.648.184.168.44.252.768.252.264 0 .496-.06.696-.18.208-.128.372-.3.492-.516.12-.216.18-.464.18-.744v-1.38c0-.4-.088-.688-.264-.864-.176-.176-.472-.264-.888-.264a3.766 3.766 0 0 0-1.596.372c-.152.072-.288.092-.408.06a.459.459 0 0 1-.264-.192.63.63 0 0 1-.096-.336c0-.12.032-.236.096-.348a.572.572 0 0 1 .324-.264c.368-.152.72-.26 1.056-.324a5.16 5.16 0 0 1 .936-.096c.576 0 1.048.088 1.416.264.376.176.656.444.84.804.184.352.276.808.276 1.368v2.88c0 .248-.06.44-.18.576-.12.128-.292.192-.516.192-.224 0-.4-.064-.528-.192-.12-.136-.18-.328-.18-.576v-.576h.096a1.627 1.627 0 0 1-.948 1.2 2.05 2.05 0 0 1-.852.168Zm6.563 0a2.62 2.62 0 0 1-1.14-.24 2.067 2.067 0 0 1-.78-.672 1.688 1.688 0 0 1-.276-.948c0-.432.112-.772.336-1.02.224-.256.588-.44 1.092-.552.504-.112 1.18-.168 2.028-.168h.6v.864h-.588c-.496 0-.892.024-1.188.072-.296.048-.508.132-.636.252-.12.112-.18.272-.18.48 0 .264.092.48.276.648.184.168.44.252.768.252.264 0 .496-.06.696-.18.208-.128.372-.3.492-.516.12-.216.18-.464.18-.744v-1.38c0-.4-.088-.688-.264-.864-.176-.176-.472-.264-.888-.264a3.766 3.766 0 0 0-1.596.372c-.152.072-.288.092-.408.06a.459.459 0 0 1-.264-.192.63.63 0 0 1-.096-.336c0-.12.032-.236.096-.348a.572.572 0 0 1 .324-.264c.368-.152.72-.26 1.056-.324a5.16 5.16 0 0 1 .936-.096c.576 0 1.048.088 1.416.264.376.176.656.444.84.804.184.352.276.808.276 1.368v2.88c0 .248-.06.44-.18.576-.12.128-.292.192-.516.192-.224 0-.4-.064-.528-.192-.12-.136-.18-.328-.18-.576v-.576h.096a1.627 1.627 0 0 1-.948 1.2 2.05 2.05 0 0 1-.852.168Zm7.318 0c-.52 0-.956-.088-1.308-.264a1.7 1.7 0 0 1-.768-.768c-.168-.344-.252-.768-.252-1.272v-2.556h-.624c-.192 0-.34-.048-.444-.144a.568.568 0 0 1-.156-.42c0-.184.052-.324.156-.42.104-.096.252-.144.444-.144h.624v-1.092c0-.248.064-.436.192-.564.136-.128.324-.192.564-.192.24 0 .424.064.552.192.128.128.192.316.192.564v1.092h1.272c.192 0 .34.048.444.144.104.096.156.236.156.42a.568.568 0 0 1-.156.42c-.104.096-.252.144-.444.144h-1.272v2.472c0 .384.084.672.252.864.168.192.44.288.816.288.136 0 .256-.012.36-.036.104-.024.196-.04.276-.048a.275.275 0 0 1 .24.096c.064.064.096.2.096.408 0 .16-.028.304-.084.432a.435.435 0 0 1-.276.252c-.104.032-.24.06-.408.084a2.409 2.409 0 0 1-.444.048Zm5.92-.036c-.24 0-.424-.072-.552-.216-.129-.144-.193-.344-.193-.6v-4.404c0-.264.064-.464.192-.6.129-.144.313-.216.552-.216.24 0 .424.072.552.216.136.136.204.336.204.6v4.404c0 .256-.064.456-.192.6-.127.144-.316.216-.564.216Zm0-7.152c-.28 0-.5-.068-.66-.204-.153-.144-.228-.34-.228-.588 0-.256.075-.452.227-.588.16-.136.38-.204.66-.204.288 0 .508.068.66.204.153.136.228.332.228.588 0 .248-.075.444-.227.588-.153.136-.373.204-.66.204Zm3.058 7.164c-.24 0-.424-.064-.552-.192-.128-.136-.192-.328-.192-.576v-4.536c0-.248.064-.436.192-.564.128-.128.308-.192.54-.192.232 0 .412.064.54.192.128.128.192.316.192.564v.816l-.132-.3c.176-.424.448-.744.816-.96.376-.224.8-.336 1.272-.336s.86.088 1.164.264c.304.176.532.444.684.804.152.352.228.8.228 1.344v2.904c0 .248-.064.44-.192.576-.128.128-.312.192-.552.192-.24 0-.428-.064-.564-.192-.128-.136-.192-.328-.192-.576v-2.832c0-.456-.088-.788-.264-.996-.168-.208-.432-.312-.792-.312-.44 0-.792.14-1.056.42-.256.272-.384.636-.384 1.092v2.628c0 .512-.252.768-.756.768Zm7.02-.012c-.24 0-.424-.072-.552-.216-.128-.144-.192-.344-.192-.6v-4.404c0-.264.064-.464.192-.6.128-.144.312-.216.552-.216.24 0 .424.072.552.216.136.136.204.336.204.6v4.404c0 .256-.064.456-.192.6-.128.144-.316.216-.564.216Zm0-7.152c-.28 0-.5-.068-.66-.204-.152-.144-.228-.34-.228-.588 0-.256.076-.452.228-.588.16-.136.38-.204.66-.204.288 0 .508.068.66.204.152.136.228.332.228.588 0 .248-.076.444-.228.588-.152.136-.372.204-.66.204Z"/>
    <rect width="22" height="22" x="59" y="119" fill="#fff" rx="11"/>
    <path fill="#333" d="M69.82 134.13c-.467 0-.953-.061-1.455-.182a4.172 4.172 0 0 1-1.313-.546.878.878 0 0 1-.352-.39.713.713 0 0 1-.052-.416.737.737 0 0 1 .196-.351.657.657 0 0 1 .377-.169.889.889 0 0 1 .507.117c.355.191.697.329 1.026.416.33.078.668.117 1.014.117.382 0 .703-.052.963-.156.26-.104.455-.26.585-.468.138-.208.207-.459.207-.754 0-.433-.147-.754-.441-.962-.286-.217-.707-.325-1.261-.325h-.832c-.243 0-.43-.061-.56-.182-.12-.121-.181-.29-.181-.507 0-.217.06-.386.181-.507.13-.121.317-.182.56-.182h.675c.33 0 .611-.052.846-.156a1.32 1.32 0 0 0 .545-.468c.13-.199.195-.442.195-.728 0-.399-.134-.702-.403-.91-.26-.208-.64-.312-1.143-.312-.321 0-.624.039-.91.117a3.56 3.56 0 0 0-.923.403.71.71 0 0 1-.456.117.585.585 0 0 1-.35-.169.738.738 0 0 1-.195-.338.686.686 0 0 1 .025-.416.747.747 0 0 1 .326-.377 4.274 4.274 0 0 1 1.234-.546 5 5 0 0 1 1.392-.195c.632 0 1.174.1 1.625.299.45.191.793.468 1.027.832.242.355.364.789.364 1.3 0 .364-.07.698-.209 1.001a2.158 2.158 0 0 1-.584.754 2.238 2.238 0 0 1-.91.442v-.156c.624.104 1.109.364 1.456.78.346.407.52.919.52 1.534 0 .537-.135 1.005-.403 1.404-.27.399-.65.706-1.145.923-.493.208-1.083.312-1.767.312Z"/>
    <rect width="22" height="22" x="59" y="119" stroke="#9D02FF" stroke-width="2" rx="11"/>
    <path fill="#9D02FF" d="M89 222a1.5 1.5 0 0 0 3 0h-3Zm-12.34-61c.829 0 1.415-1.015 1-1.732L71 147.732c-.414-.717-1.586-.717-2 0l-6.66 11.536c-.415.717.171 1.732 1 1.732h13.32Zm3.59 21.5a1.5 1.5 0 0 0 0 3v-3ZM92 222v-27.75h-3V222h3Zm-20.5-48.25V159.5h-3v14.25h3Zm8.75 8.75a8.75 8.75 0 0 1-8.75-8.75h-3c0 6.489 5.26 11.75 11.75 11.75v-3ZM92 194.25c0-6.489-5.26-11.75-11.75-11.75v3a8.75 8.75 0 0 1 8.75 8.75h3Z"/>
  </g>
  <defs>
    <clipPath id="a">
      <path fill="#fff" d="M0 0h301v561H0z"/>
    </clipPath>
    <clipPath id="b">
      <path fill="#fff" d="M0 0h654v301H0z" transform="matrix(0 -1 1 0 0 647)"/>
    </clipPath>
    <clipPath id="c">
      <path fill="#fff" d="M0 0h49.495v59.048H0z" transform="rotate(-90 54.855 -5.633)"/>
    </clipPath>
    <clipPath id="d">
      <path fill="#fff" d="M0 0h49.229v85.451H0z" transform="rotate(-90 110.433 -61.43)"/>
    </clipPath>
    <clipPath id="e">
      <path fill="#fff" d="M0 0h41.284v85.451H0z" transform="rotate(-90 252.058 80.195)"/>
    </clipPath>
    <clipPath id="f">
      <path fill="#fff" d="M0 0h39.246v85.451H0z" transform="rotate(-90 361.3 189.437)"/>
    </clipPath>
    <clipPath id="g">
      <path fill="#fff" d="M0 0h38.442v38.405H0z" transform="matrix(0 1 1 0 176.183 48.741)"/>
    </clipPath>
    <clipPath id="h">
      <path fill="#fff" d="M0 0h37.481v29.764H0z" transform="rotate(-90 261.748 252.146)"/>
    </clipPath>
    <clipPath id="i">
      <path fill="#fff" d="M0 0h37v59H0z" transform="translate(72 226)"/>
    </clipPath>
  </defs>
</svg>
