<svg xmlns="http://www.w3.org/2000/svg" fill="none" viewBox="0 0 385 689">
  <g clip-path="url(#a)">
    <path fill="#E56623" d="M30 209.079c-8.837 0-16-7.163-16-16V95.48c0-8.836 7.163-16 16-16h24v129.6H30Z"/>
    <path fill="#fff" d="M36.82 180.803c-.215 0-.412.02-.589.058-.177.039-.34.122-.49.25a2.182 2.182 0 0 0-.447.539 6.25 6.25 0 0 0-.465.913c-.188.448-.388.883-.598 1.303a6.15 6.15 0 0 1-.747 1.138 3.25 3.25 0 0 1-.996.805c-.388.193-.841.29-1.361.29a3.4 3.4 0 0 1-1.387-.274 3.01 3.01 0 0 1-1.062-.797 3.638 3.638 0 0 1-.69-1.203 4.733 4.733 0 0 1-.24-1.552c0-.775.16-1.445.482-2.009.32-.57.76-1.01 1.32-1.32.558-.315 1.2-.473 1.925-.473v2.424c-.343 0-.645.049-.905.149a1.249 1.249 0 0 0-.622.457c-.15.21-.224.481-.224.813 0 .31.063.567.19.772.122.199.291.349.507.448.21.094.448.141.714.141.199 0 .379-.047.54-.141.154-.099.295-.235.423-.406a4.68 4.68 0 0 0 .357-.606 10.3 10.3 0 0 0 .34-.781 9.11 9.11 0 0 1 .714-1.452c.254-.421.542-.772.863-1.054a3.234 3.234 0 0 1 1.07-.64 3.99 3.99 0 0 1 1.362-.215c.504 0 .963.088 1.378.265.41.172.764.424 1.063.756.293.332.52.733.68 1.203.16.465.241.985.241 1.561 0 .559-.077 1.087-.232 1.585a3.87 3.87 0 0 1-.723 1.32 3.4 3.4 0 0 1-1.236.888c-.504.216-1.099.324-1.785.324v-2.432c.365 0 .678-.036.938-.108a1.43 1.43 0 0 0 .614-.332c.15-.15.263-.332.34-.548.072-.221.108-.473.108-.755 0-.321-.06-.576-.182-.764a1.019 1.019 0 0 0-.49-.415 1.843 1.843 0 0 0-.697-.125Zm-8.906-4.93v-2.134l8.268-2.465-8.268-2.457v-1.884L40 170.369v1.818l-12.086 3.686Zm0 .863v-2.034l7.969-.315H40v2.349H27.914Zm0-8.874v-2.042H40v2.341h-4.117l-7.969-.299Zm2.158-8.549L40 161.911v2.565l-12.086-3.777v-1.602l2.158.216ZM40 157.262l-9.928 2.615-2.158.241v-1.627L40 154.681v2.581Zm-4.507-.091h2.017v5.454h-2.017v-5.454Zm-7.579-3.652v-3.877c0-.808.138-1.497.415-2.067a2.934 2.934 0 0 1 1.229-1.311c.542-.305 1.212-.457 2.008-.457.653 0 1.212.089 1.677.266.46.177.844.429 1.154.755.304.327.548.717.73 1.171l.44.738v3.146l-2.017.009v-2.183c0-.332-.072-.606-.215-.822a1.314 1.314 0 0 0-.623-.49 2.485 2.485 0 0 0-.946-.166c-.382 0-.709.05-.98.15a1.206 1.206 0 0 0-.63.456c-.15.205-.225.473-.225.805v1.445H40v2.432H27.914ZM40 148.032l-5.387 2.216-.008-2.548 5.279-2.266H40v2.598Zm-12.086-8.301H40v2.416H27.914v-2.416Zm0-3.005h2.017v8.367h-2.017v-8.367Zm0-9.147H40v2.415H27.914v-2.415Zm0-3.005h2.017v8.367h-2.017v-8.367Zm9.505-5.304-9.505-2.291v-2.623L40 117.859v1.768l-2.581-.357Zm-9.505 1.959 9.505-2.283 2.581-.374v1.777l-12.086 3.478v-2.598Zm4.972-13.846v-1.129c0-.293-.066-.534-.199-.722a1.192 1.192 0 0 0-.581-.415 2.589 2.589 0 0 0-.872-.133c-.31 0-.58.042-.813.125-.232.083-.415.21-.548.381-.133.172-.2.388-.2.648 0 .199.056.384.167.556.11.172.268.31.473.415.2.1.44.149.722.149v2.341c-.664 0-1.242-.152-1.735-.456a3.203 3.203 0 0 1-1.154-1.229 3.55 3.55 0 0 1-.415-1.71c0-.703.133-1.32.399-1.851a2.87 2.87 0 0 1 1.162-1.245c.51-.299 1.14-.448 1.893-.448a2.9 2.9 0 0 1 1.12.224c.36.144.684.354.971.631.283.276.507.614.673 1.012.166.393.249.842.249 1.345v1.511h-1.312Zm1.884 0H33.5v-1.511c0-.564.075-1.057.225-1.477.143-.426.354-.778.63-1.055.277-.282.606-.492.988-.63a3.664 3.664 0 0 1 1.262-.208c.564 0 1.068.094 1.51.282.443.188.817.451 1.121.789.305.337.537.73.698 1.179.155.448.232.935.232 1.461 0 .437-.07.866-.207 1.286a3.28 3.28 0 0 1-.64 1.121c-.287.332-.65.595-1.087.788-.437.194-.955.291-1.552.291v-2.324c.298 0 .567-.053.805-.158.232-.105.415-.249.548-.432.133-.188.199-.398.199-.631 0-.271-.07-.506-.208-.705a1.305 1.305 0 0 0-.58-.457 2.231 2.231 0 0 0-.872-.157c-.426 0-.77.055-1.03.166a1.15 1.15 0 0 0-.58.481c-.128.21-.192.465-.192.764v1.137Z"/>
    <path fill="#E56623" d="M30 346.778c-8.837 0-16-7.163-16-16v-97.599c0-8.836 7.163-16 16-16h24v129.599H30Z"/>
    <path fill="#fff" d="M36.82 318.502c-.215 0-.412.02-.589.058-.177.039-.34.122-.49.249a2.21 2.21 0 0 0-.447.54 6.25 6.25 0 0 0-.465.913c-.188.448-.388.883-.598 1.303-.216.421-.465.8-.747 1.137a3.252 3.252 0 0 1-.996.806c-.388.193-.841.29-1.361.29a3.4 3.4 0 0 1-1.387-.274 3.022 3.022 0 0 1-1.062-.797 3.638 3.638 0 0 1-.69-1.203 4.739 4.739 0 0 1-.24-1.553c0-.774.16-1.444.482-2.008.32-.57.76-1.01 1.32-1.32.558-.316 1.2-.473 1.925-.473v2.423c-.343 0-.645.05-.905.15a1.253 1.253 0 0 0-.622.456c-.15.211-.224.482-.224.814 0 .31.063.567.19.772.122.199.291.348.507.448.21.094.448.141.714.141.199 0 .379-.047.54-.141.154-.1.295-.235.423-.407.121-.171.24-.373.357-.606.116-.238.23-.498.34-.78a9.123 9.123 0 0 1 .714-1.453c.254-.42.542-.771.863-1.054a3.248 3.248 0 0 1 1.07-.639 3.99 3.99 0 0 1 1.362-.216c.504 0 .963.089 1.378.266.41.171.764.423 1.063.755.293.332.52.734.68 1.204.16.465.241.985.241 1.56 0 .559-.077 1.088-.232 1.586a3.87 3.87 0 0 1-.723 1.32 3.4 3.4 0 0 1-1.236.888c-.504.216-1.099.324-1.785.324v-2.432c.365 0 .678-.036.938-.108a1.43 1.43 0 0 0 .614-.332c.15-.15.263-.332.34-.548.072-.222.108-.473.108-.756 0-.321-.06-.575-.182-.763a1.019 1.019 0 0 0-.49-.415 1.843 1.843 0 0 0-.697-.125Zm-8.906-4.931v-2.133l8.268-2.465-8.268-2.457v-1.884L40 308.068v1.818l-12.086 3.685Zm0 .864v-2.034l7.969-.315H40v2.349H27.914Zm0-8.874v-2.042H40v2.341h-4.117l-7.969-.299Zm2.158-8.55L40 299.61v2.564l-12.086-3.776v-1.602l2.158.215Zm9.928-2.05-9.928 2.615-2.158.241v-1.627L40 292.38v2.581Zm-4.507-.091h2.017v5.453h-2.017v-5.453Zm-7.579-3.653v-3.876c0-.808.138-1.497.415-2.067a2.934 2.934 0 0 1 1.229-1.311c.542-.305 1.212-.457 2.008-.457.653 0 1.212.089 1.677.266.46.177.844.429 1.154.755.304.327.548.717.73 1.17l.44.739v3.146l-2.017.009v-2.184c0-.332-.072-.606-.215-.821a1.308 1.308 0 0 0-.623-.49 2.485 2.485 0 0 0-.946-.166c-.382 0-.709.05-.98.149a1.208 1.208 0 0 0-.63.457c-.15.205-.225.473-.225.805v1.444H40v2.432H27.914ZM40 285.731l-5.387 2.216-.008-2.548 5.279-2.266H40v2.598Zm-12.086-8.301H40v2.415H27.914v-2.415Zm0-3.005h2.017v8.367h-2.017v-8.367Zm0-9.147H40v2.415H27.914v-2.415Zm0-3.005h2.017v8.367h-2.017v-8.367Zm9.505-5.305-9.505-2.291v-2.623L40 255.557v1.768l-2.581-.357Zm-9.505 1.959 9.505-2.282 2.581-.374v1.777l-12.086 3.478v-2.599Zm10.152-18.876H40v7.123h-1.652l-4.159-3.271a10.977 10.977 0 0 0-1.145-.739 4.964 4.964 0 0 0-.888-.382 2.693 2.693 0 0 0-.747-.116c-.36 0-.667.042-.922.125-.26.083-.459.207-.597.373a.864.864 0 0 0-.216.598 1 1 0 0 0 .265.714c.177.188.421.329.73.423a3.7 3.7 0 0 0 1.038.133v2.332a4.485 4.485 0 0 1-1.992-.44 3.586 3.586 0 0 1-1.436-1.253c-.36-.542-.54-1.192-.54-1.951 0-.741.14-1.361.416-1.859a2.674 2.674 0 0 1 1.187-1.137c.509-.26 1.118-.39 1.826-.39.404 0 .797.052 1.179.157a6.03 6.03 0 0 1 1.129.449c.37.193.75.431 1.137.714.387.282.788.6 1.203.954l2.25 1.577v-4.134Z"/>
    <path fill="#E56623" d="M30 484.477c-8.837 0-16-7.164-16-16v-97.599c0-8.837 7.163-16 16-16h24v129.599H30Z"/>
    <path fill="#fff" d="M36.82 456.201c-.215 0-.412.019-.589.058-.177.039-.34.122-.49.249a2.22 2.22 0 0 0-.447.539 6.17 6.17 0 0 0-.465.914c-.188.448-.388.882-.598 1.303a6.16 6.16 0 0 1-.747 1.137 3.235 3.235 0 0 1-.996.805c-.388.194-.841.291-1.361.291-.51 0-.972-.092-1.387-.274a3.022 3.022 0 0 1-1.062-.797 3.633 3.633 0 0 1-.69-1.204 4.733 4.733 0 0 1-.24-1.552c0-.775.16-1.444.482-2.009.32-.57.76-1.01 1.32-1.32.558-.315 1.2-.473 1.925-.473v2.424c-.343 0-.645.05-.905.15a1.253 1.253 0 0 0-.622.456c-.15.21-.224.482-.224.814 0 .309.063.567.19.772.122.199.291.348.507.448.21.094.448.141.714.141.199 0 .379-.047.54-.141.154-.1.295-.235.423-.407a4.68 4.68 0 0 0 .357-.606c.116-.238.23-.498.34-.78a9.123 9.123 0 0 1 .714-1.453c.254-.42.542-.772.863-1.054a3.248 3.248 0 0 1 1.07-.639 3.99 3.99 0 0 1 1.362-.216c.504 0 .963.089 1.378.266.41.171.764.423 1.063.755.293.332.52.733.68 1.204.16.464.241.985.241 1.56 0 .559-.077 1.088-.232 1.586-.16.498-.402.938-.723 1.319a3.391 3.391 0 0 1-1.236.889c-.504.215-1.099.323-1.785.323v-2.432c.365 0 .678-.036.938-.108a1.42 1.42 0 0 0 .614-.332c.15-.149.263-.332.34-.548.072-.221.108-.473.108-.755 0-.321-.06-.575-.182-.764a1.024 1.024 0 0 0-.49-.415 1.843 1.843 0 0 0-.697-.124Zm-8.906-4.931v-2.133l8.268-2.465-8.268-2.458v-1.884L40 445.767v1.818l-12.086 3.685Zm0 .863V450.1l7.969-.316H40v2.349H27.914Zm0-8.873v-2.042H40v2.341h-4.117l-7.969-.299Zm2.158-8.55L40 437.308v2.565l-12.086-3.777v-1.602l2.158.216ZM40 432.66l-9.928 2.615-2.158.24v-1.627L40 430.078v2.582Zm-4.507-.092h2.017v5.454h-2.017v-5.454Zm-7.579-3.652v-3.876c0-.808.138-1.497.415-2.067a2.942 2.942 0 0 1 1.229-1.312c.542-.304 1.212-.456 2.008-.456.653 0 1.212.088 1.677.265.46.177.844.429 1.154.756.304.326.548.716.73 1.17l.44.739v3.146l-2.017.008v-2.183c0-.332-.072-.606-.215-.822a1.312 1.312 0 0 0-.623-.489 2.485 2.485 0 0 0-.946-.166c-.382 0-.709.049-.98.149a1.206 1.206 0 0 0-.63.456c-.15.205-.225.474-.225.806v1.444H40v2.432H27.914ZM40 423.429l-5.387 2.217-.008-2.549 5.279-2.266H40v2.598Zm-12.086-8.3H40v2.415H27.914v-2.415Zm0-3.005h2.017v8.367h-2.017v-8.367Zm0-9.148H40v2.416H27.914v-2.416Zm0-3.005h2.017v8.368h-2.017v-8.368Zm9.505-5.304-9.505-2.291v-2.623L40 393.256v1.768l-2.581-.357Zm-9.505 1.959 9.505-2.283L40 393.97v1.776l-12.086 3.478v-2.598Zm-.025-16.909H40v2.325h-9.255l.888 2.307H29.69l-1.8-4.383v-.249Z"/>
    <rect width="95.73" height="39.986" x="218.389" y="537.658" fill="#fff" rx="14" transform="rotate(-90 218.389 537.658)"/>
    <path fill="#2A2A2D" d="M232.296 513.989v-2.133l8.268-2.465-8.268-2.457v-1.885l12.086 3.437v1.818l-12.086 3.685Zm0 .863v-2.033l7.969-.316h4.117v2.349h-12.086Zm0-8.873v-2.042h12.086v2.341h-4.117l-7.969-.299Zm10.077-10.957h2.009v5.254h-2.009v-5.254Zm-10.077 4.499h12.086v2.432h-12.086v-2.432Zm4.897-3.794h1.951v4.549h-1.951v-4.549Zm-4.897-.688h2.017v5.237h-2.017v-5.237Zm8.359-5.413h-8.359v-2.423h8.367c.803 0 1.497.155 2.084.464.581.305 1.026.72 1.336 1.246.31.525.465 1.117.465 1.776 0 .675-.133 1.278-.398 1.809a2.968 2.968 0 0 1-1.229 1.246c-.553.304-1.256.456-2.108.456v-2.44c.431 0 .772-.045 1.021-.133.249-.089.428-.213.539-.374a.991.991 0 0 0 .166-.564.795.795 0 0 0-.224-.573c-.149-.16-.362-.282-.639-.365a3.652 3.652 0 0 0-1.021-.125Zm-6.201-8.549 9.928 2.598v2.565l-12.086-3.777v-1.602l2.158.216Zm9.928-2.051-9.928 2.615-2.158.241v-1.627l12.086-3.81v2.581Zm-4.507-.091h2.017v5.454h-2.017v-5.454Zm2.573-14.493h1.934v7.122h-1.652l-4.159-3.271a10.99 10.99 0 0 0-1.145-.738 4.891 4.891 0 0 0-.888-.382 2.659 2.659 0 0 0-.747-.116c-.36 0-.667.041-.922.124-.26.083-.459.208-.597.374a.86.86 0 0 0-.216.597 1 1 0 0 0 .265.714c.177.188.421.329.731.423.304.089.65.133 1.037.133v2.333a4.5 4.5 0 0 1-1.992-.44 3.595 3.595 0 0 1-1.436-1.254c-.359-.542-.539-1.192-.539-1.95 0-.742.138-1.362.415-1.86a2.68 2.68 0 0 1 1.187-1.137c.509-.26 1.118-.39 1.826-.39.404 0 .797.053 1.179.158.376.105.752.254 1.129.448.37.194.749.432 1.137.714.387.282.788.6 1.203.954l2.25 1.578v-4.134Z"/>
    <rect width="95.73" height="39.986" x="218.389" y="537.658" stroke="#605756" stroke-width="4" rx="14" transform="rotate(-90 218.389 537.658)"/>
    <rect width="178.248" height="39.986" x="229.006" y="279.979" fill="#fff" rx="14" transform="rotate(-90 229.006 279.979)"/>
    <path fill="#2A2A2D" d="M242.913 215.051v-2.133l8.268-2.465-8.268-2.457v-1.885l12.086 3.437v1.818l-12.086 3.685Zm0 .864v-2.034l7.969-.316h4.117v2.35h-12.086Zm0-8.874v-2.042h12.086v2.341h-4.117l-7.969-.299Zm10.077-10.957h2.009v5.254h-2.009v-5.254Zm-10.077 4.499h12.086v2.432h-12.086v-2.432Zm4.898-3.793h1.95v4.548h-1.95v-4.548Zm-4.898-.689h2.017v5.237h-2.017v-5.237Zm8.359-5.412h-8.359v-2.424h8.367c.803 0 1.497.155 2.084.465a3.266 3.266 0 0 1 1.336 1.245c.31.525.465 1.117.465 1.776 0 .675-.133 1.278-.398 1.81-.271.525-.681.94-1.229 1.245-.553.304-1.256.456-2.108.456v-2.44c.431 0 .772-.044 1.021-.133.249-.089.429-.213.539-.374a.991.991 0 0 0 .166-.564.791.791 0 0 0-.224-.573c-.149-.16-.362-.282-.639-.365a3.65 3.65 0 0 0-1.021-.124Zm-6.201-8.55 9.928 2.598v2.565l-12.086-3.777v-1.602l2.158.216Zm9.928-2.051-9.928 2.615-2.158.241v-1.627l12.086-3.81v2.581Zm-4.507-.091h2.017v5.454h-2.017v-5.454Zm-7.604-12.526h12.111v2.324h-9.255l.888 2.308h-1.942l-1.802-4.383v-.249Z"/>
    <rect width="178.248" height="39.986" x="229.006" y="279.979" stroke="#605756" stroke-width="4" rx="14" transform="rotate(-90 229.006 279.979)"/>
    <path fill="#4D91C6" d="M2.022 571.551h104.15v112.893H2.022z"/>
    <g clip-path="url(#b)">
      <path fill="#fff" d="M60.25 619.053a1.777 1.777 0 0 0-2.405.731 8.278 8.278 0 0 1-7.318 4.401c-4.574 0-8.295-3.727-8.295-8.306a8.325 8.325 0 0 1 5.485-7.816 1.78 1.78 0 0 0-1.204-3.348c-4.687 1.687-7.836 6.173-7.836 11.164 0 6.542 5.316 11.865 11.85 11.865 4.383 0 8.39-2.406 10.457-6.28a1.782 1.782 0 0 0-.733-2.411Zm-7.353-22.158a3.558 3.558 0 0 0 3.554-3.56 3.558 3.558 0 0 0-3.554-3.559 3.558 3.558 0 0 0-3.555 3.559 3.558 3.558 0 0 0 3.555 3.56Zm23.61 24.946a1.774 1.774 0 0 0-2.249-1.125l-2.014.672-3.497-8.001c-.283-.652-.927-1.067-1.698-1.067H56.748l-1.074-5.933h8.48a1.779 1.779 0 0 0 0-3.559h-9.125l-.385-2.099c-.177-.964-1.103-1.617-2.066-1.431a1.782 1.782 0 0 0-1.43 2.069l2.37 13.051a1.778 1.778 0 0 0 1.748 1.461h10.687l3.682 8.424c.288.668.94 1.068 1.562 1.068.186 0 .376-.029.562-.091l3.488-1.187c1.067-.309 1.563-1.384 1.26-2.252Z"/>
    </g>
    <g clip-path="url(#c)">
      <path fill="#fff" d="M44.491 643.564a3.865 3.865 0 0 0 3.876-3.86 3.865 3.865 0 0 0-3.876-3.86 3.865 3.865 0 0 0-3.876 3.86 3.866 3.866 0 0 0 3.876 3.86Zm21.319 0a3.865 3.865 0 0 0 3.876-3.86 3.865 3.865 0 0 0-3.876-3.86 3.865 3.865 0 0 0-3.876 3.86 3.865 3.865 0 0 0 3.876 3.86Zm-11.629-7.72c-.799 0-1.453.652-1.453 1.448v27.986a1.454 1.454 0 0 0 2.907 0v-27.986c0-.796-.654-1.448-1.453-1.448Zm-7.752 9.65h-3.876a3.87 3.87 0 0 0-3.876 3.861v5.79c0 1.066.868 1.93 1.938 1.93v8.203c0 .802.651 1.447 1.454 1.447a1.45 1.45 0 0 0 1.453-1.447v-8.203h1.938v8.203a1.45 1.45 0 0 0 1.454 1.447c.8 0 1.453-.645 1.453-1.447v-8.203c1.07 0 1.938-.864 1.938-1.93v-5.79c0-2.129-1.738-3.861-3.876-3.861Zm.97 8.686h-5.815v-4.825c0-.532.435-.965.97-.965h3.875c.535 0 .97.433.97.965v4.825Zm25.77 2.364-2.362-8.251a3.877 3.877 0 0 0-3.731-2.799H64.54a3.875 3.875 0 0 0-3.727 2.8l-2.367 8.251a1.908 1.908 0 0 0 1.864 2.46h1.623v6.273a1.45 1.45 0 0 0 1.453 1.447 1.45 1.45 0 0 0 1.454-1.447v-6.273h1.938v6.273a1.45 1.45 0 0 0 1.454 1.447c.802 0 1.453-.645 1.453-1.447v-6.273h1.622a1.929 1.929 0 0 0 1.86-2.461Zm-11.574-.434 2.013-7.021a.972.972 0 0 1 .936-.699h2.535c.432 0 .813.285.931.699l2.015 7.021h-8.43Z"/>
    </g>
    <path fill="#434243" d="M63.704 59.23V7.087h62.187V59.23z"/>
    <g clip-path="url(#d)">
      <path fill="#706F6F" d="m90.68 33.16-22.236-21.3c-1.138-1.095-1.138-2.864 0-3.853a2.83 2.83 0 0 1 4.122 0l22.23 21.206 22.228-21.206c1.141-1.187 2.987-1.187 4.02 0 1.239.99 1.239 2.758 0 3.852l-22.13 21.3 22.13 21.303c1.239 1.09 1.239 2.86 0 3.95-1.033 1.091-2.879 1.091-4.02 0L94.797 37.106l-22.23 21.308c-1.139 1.09-2.985 1.09-4.123 0a2.712 2.712 0 0 1 0-3.95L90.679 33.16Z"/>
    </g>
    <path fill="#434243" d="M180.998 59V7.136h89.994V59z"/>
    <g clip-path="url(#e)">
      <path fill="#706F6F" d="m220.037 33.068-32.178-21.185c-1.647-1.088-1.647-2.848 0-3.832 1.647-1.18 4.318-1.18 5.965 0l32.171 21.093L258.161 8.05c1.652-1.18 4.324-1.18 5.818 0 1.793.984 1.793 2.744 0 3.832l-32.025 21.185 32.025 21.189c1.793 1.085 1.793 2.844 0 3.93-1.494 1.084-4.166 1.084-5.818 0l-32.166-21.194-32.171 21.193c-1.647 1.085-4.318 1.085-5.965 0-1.647-1.085-1.647-2.844 0-3.929l32.178-21.189Z"/>
    </g>
    <path fill="#434243" d="M180.998 357.409v-43.494h89.994v43.494z"/>
    <g clip-path="url(#f)">
      <path fill="#706F6F" d="m220.037 335.662-32.178-17.766c-1.647-.913-1.647-2.388 0-3.214 1.647-.99 4.318-.99 5.965 0l32.171 17.689 32.166-17.689c1.652-.99 4.324-.99 5.818 0 1.793.826 1.793 2.301 0 3.214l-32.025 17.766 32.025 17.77c1.793.909 1.793 2.385 0 3.295-1.494.91-4.166.91-5.818 0l-32.166-17.773-32.171 17.773c-1.647.91-4.318.91-5.965 0-1.647-.91-1.647-2.386 0-3.295l32.178-17.77Z"/>
    </g>
    <path fill="#434243" d="M180.998 587.586v-41.347h89.994v41.347z"/>
    <g clip-path="url(#g)">
      <path fill="#706F6F" d="m220.037 566.912-32.178-16.889c-1.647-.868-1.647-2.271 0-3.055 1.647-.942 4.318-.942 5.965 0l32.171 16.815 32.166-16.815c1.652-.942 4.324-.942 5.818 0 1.793.784 1.793 2.187 0 3.055l-32.025 16.889 32.025 16.892c1.793.865 1.793 2.268 0 3.133-1.494.865-4.166.865-5.818 0l-32.166-16.896-32.171 16.896c-1.647.865-4.318.865-5.965 0-1.647-.865-1.647-2.268 0-3.133l32.178-16.892Z"/>
    </g>
    <path fill="#E56623" d="M225.995 286.536a5.057 5.057 0 0 0-5.056-5.064v10.125a5.057 5.057 0 0 0 5.056-5.061Zm-22.609-1.899h-8.358c-5.227 0-9.479 4.256-9.479 9.492v8.227c0 5.233 4.252 9.492 9.479 9.492h30.967v-3.797h-30.967c-3.136 0-5.688-2.556-5.688-5.695v-8.227c0-3.139 2.552-5.695 5.688-5.695h8.358c.845 6.851 6.135 12.308 12.885 13.273 1.129.15 2.14-.767 2.14-1.914v-26.515c0-1.149-1.012-2.069-2.145-1.913-6.75.964-12.035 6.414-12.88 13.272Zm11.234 12.767a11.377 11.377 0 0 1-5.377-4.075c-1.405-1.955-2.066-4.349-2.066-6.758v-.074c0-2.409.662-4.805 2.068-6.761 1.338-1.854 3.202-3.294 5.375-4.069v21.737Z"/>
    <g clip-path="url(#h)">
      <path fill="#E56623" d="M225.995 84.543a5.056 5.056 0 0 1-5.056 5.063V79.481a5.057 5.057 0 0 1 5.056 5.062Zm-22.609 1.898h-8.358c-5.227 0-9.479-4.255-9.479-9.492v-8.226c0-5.233 4.252-9.492 9.479-9.492h30.967v3.797h-30.967c-3.136 0-5.687 2.555-5.687 5.695v8.226c0 3.14 2.551 5.695 5.687 5.695h8.358c.846-6.85 6.135-12.308 12.885-13.273 1.129-.15 2.141.768 2.141 1.915V97.8c0 1.15-1.012 2.07-2.146 1.914-6.75-.965-12.034-6.415-12.88-13.273Zm11.234-12.767a11.378 11.378 0 0 0-5.377 4.076c-1.405 1.954-2.066 4.349-2.066 6.757v.074c0 2.41.662 4.806 2.068 6.761 1.338 1.855 3.202 3.294 5.375 4.07V73.673Z"/>
    </g>
    <path fill="#1D1D1B" stroke="#706F6F" d="M271.492 357.415V6.574h3.045v350.841z"/>
    <path stroke="#706F6F" d="M271.492 597.376v-159.48h3.045v159.48z"/>
    <path stroke="#706F6F" d="M316.5 439.427h-45.008v-1.531H316.5zm0-82.012h-45.008v-2.037H316.5z"/>
    <path fill="#333" d="M0 689V0h4.045v689z"/>
    <g clip-path="url(#i)">
      <path fill="#FFC300" d="M13.05 532.975c0 7.089 5.7 12.833 12.735 12.833 7.034 0 12.734-5.744 12.734-12.833 0-3.486-1.377-6.651-3.618-8.965a2.97 2.97 0 0 0 .68-1.894v-1.129l.918.463a15.789 15.789 0 0 1 4.959 11.525c0 8.724-7.016 15.795-15.673 15.795s-15.673-7.071-15.673-15.795c0-8.397 6.581-15.35 14.865-15.776l2.412 3.042a13.674 13.674 0 0 0-1.604-.099c-7.035 0-12.735 5.744-12.735 12.833Zm9.306 3.949c.814 0 1.47.66 1.47 1.481 0 .82-.655 1.48-1.47 1.48h-2.938c-.815 0-1.47-.66-1.47-1.48 0-.821.655-1.481 1.47-1.481h2.938Zm0-5.43c.814 0 1.47.661 1.47 1.481 0 .821-.655 1.481-1.47 1.481h-2.938c-.815 0-1.47-.66-1.47-1.481 0-.82.655-1.481 1.47-1.481h2.938Zm0-5.429c.814 0 1.47.66 1.47 1.481 0 .82-.655 1.48-1.47 1.48h-2.938c-.815 0-1.47-.66-1.47-1.48 0-.821.655-1.481 1.47-1.481h2.938Zm1.69-14.444a.972.972 0 0 1 1.2-.259l6.416 3.233v-4.325c0-.419.263-.796.655-.932a.93.93 0 0 1 1.09.371l7.837 9.871c.287.309.287.821-.007 1.185a.972.972 0 0 1-1.2.259l-6.416-3.233v4.325a.99.99 0 0 1-.655.932.983.983 0 0 1-1.09-.315l-7.836-9.872a.99.99 0 0 1 .006-1.24Z"/>
    </g>
  </g>
  <g clip-path="url(#j)">
    <path fill="#9C0E0E" d="m346.175 358.604-3.307 5.485a3.71 3.71 0 0 1-5.076 1.256 3.684 3.684 0 0 1-1.26-5.059l6.741-11.178a11.118 11.118 0 0 1 9.516-5.37h3.434a11.12 11.12 0 0 1 9.516 5.37l6.741 11.178a3.684 3.684 0 0 1-1.261 5.059 3.71 3.71 0 0 1-5.076-1.256l-3.318-5.485v25.708a3.69 3.69 0 0 1-3.7 3.688 3.69 3.69 0 0 1-3.7-3.688v-14.75h-1.85v14.75a3.69 3.69 0 0 1-3.7 3.688 3.69 3.69 0 0 1-3.7-3.688v-25.708Z"/>
    <path fill="#9C0E0E" d="M348.95 334.531a5.52 5.52 0 0 1 1.626-3.911 5.558 5.558 0 0 1 7.848 0 5.52 5.52 0 0 1 0 7.822 5.554 5.554 0 0 1-3.924 1.62 5.554 5.554 0 0 1-3.924-1.62 5.52 5.52 0 0 1-1.626-3.911Z" opacity=".4"/>
  </g>
  <path fill="#605756" d="M323.756 405.096c-.248 0-.44-.068-.576-.204-.128-.144-.192-.34-.192-.588v-6.984c0-.256.068-.448.204-.576.136-.136.328-.204.576-.204h2.892c.928 0 1.644.232 2.148.696.504.464.756 1.112.756 1.944 0 .832-.252 1.484-.756 1.956-.504.464-1.22.696-2.148.696h-2.136v2.472c0 .248-.064.444-.192.588-.128.136-.32.204-.576.204Zm.768-4.476h1.896c.544 0 .956-.12 1.236-.36.28-.248.42-.608.42-1.08 0-.472-.14-.828-.42-1.068-.28-.24-.692-.36-1.236-.36h-1.896v2.868Zm8.52 4.5c-.608 0-1.136-.124-1.584-.372a2.602 2.602 0 0 1-1.044-1.056c-.248-.464-.372-1.008-.372-1.632 0-.472.068-.892.204-1.26.144-.376.348-.696.612-.96.264-.272.58-.476.948-.612.368-.144.78-.216 1.236-.216.608 0 1.136.124 1.584.372.448.248.796.6 1.044 1.056.248.456.372.996.372 1.62 0 .472-.072.896-.216 1.272a2.69 2.69 0 0 1-.6.972c-.264.264-.58.468-.948.612-.368.136-.78.204-1.236.204Zm0-1.14c.296 0 .556-.072.78-.216.224-.144.396-.356.516-.636.128-.288.192-.644.192-1.068 0-.64-.136-1.116-.408-1.428-.272-.32-.632-.48-1.08-.48a1.41 1.41 0 0 0-.78.216c-.224.136-.4.348-.528.636-.12.28-.18.632-.18 1.056 0 .632.136 1.112.408 1.44.272.32.632.48 1.08.48Zm6.386 1.14c-.344 0-.708-.036-1.092-.108a3.231 3.231 0 0 1-1.032-.372.758.758 0 0 1-.276-.276.684.684 0 0 1-.06-.324.583.583 0 0 1 .12-.288.498.498 0 0 1 .264-.156.541.541 0 0 1 .36.06c.32.152.62.26.9.324.28.056.556.084.828.084.384 0 .668-.064.852-.192a.621.621 0 0 0 .288-.528.493.493 0 0 0-.192-.42c-.12-.104-.304-.18-.552-.228l-1.2-.228c-.496-.096-.876-.276-1.14-.54-.256-.272-.384-.62-.384-1.044 0-.384.104-.716.312-.996.216-.28.512-.496.888-.648a3.437 3.437 0 0 1 1.296-.228c.352 0 .68.04.984.12.312.072.612.188.9.348.12.064.2.148.24.252.048.104.06.212.036.324a.7.7 0 0 1-.144.288.502.502 0 0 1-.276.156.63.63 0 0 1-.36-.072 3.229 3.229 0 0 0-.72-.276 2.67 2.67 0 0 0-.648-.084c-.392 0-.684.068-.876.204a.64.64 0 0 0-.276.54.57.57 0 0 0 .168.42c.112.112.284.188.516.228l1.2.228c.52.096.912.272 1.176.528.272.256.408.6.408 1.032 0 .584-.228 1.044-.684 1.38-.456.328-1.064.492-1.824.492Zm4.455-.036c-.24 0-.424-.072-.552-.216-.128-.144-.192-.344-.192-.6v-4.404c0-.264.064-.464.192-.6.128-.144.312-.216.552-.216.24 0 .424.072.552.216.136.136.204.336.204.6v4.404c0 .256-.064.456-.192.6-.128.144-.316.216-.564.216Zm0-7.152c-.28 0-.5-.068-.66-.204-.152-.144-.228-.34-.228-.588 0-.256.076-.452.228-.588.16-.136.38-.204.66-.204.288 0 .508.068.66.204.152.136.228.332.228.588 0 .248-.076.444-.228.588-.152.136-.372.204-.66.204Zm4.463 7.188c-.344 0-.708-.036-1.092-.108a3.231 3.231 0 0 1-1.032-.372.758.758 0 0 1-.276-.276.684.684 0 0 1-.06-.324.583.583 0 0 1 .12-.288.498.498 0 0 1 .264-.156.541.541 0 0 1 .36.06c.32.152.62.26.9.324.28.056.556.084.828.084.384 0 .668-.064.852-.192a.621.621 0 0 0 .288-.528.493.493 0 0 0-.192-.42c-.12-.104-.304-.18-.552-.228l-1.2-.228c-.496-.096-.876-.276-1.14-.54-.256-.272-.384-.62-.384-1.044 0-.384.104-.716.312-.996.216-.28.512-.496.888-.648a3.437 3.437 0 0 1 1.296-.228c.352 0 .68.04.984.12.312.072.612.188.9.348.12.064.2.148.24.252.048.104.06.212.036.324a.7.7 0 0 1-.144.288.502.502 0 0 1-.276.156.63.63 0 0 1-.36-.072 3.229 3.229 0 0 0-.72-.276 2.67 2.67 0 0 0-.648-.084c-.392 0-.684.068-.876.204a.64.64 0 0 0-.276.54.57.57 0 0 0 .168.42c.112.112.284.188.516.228l1.2.228c.52.096.912.272 1.176.528.272.256.408.6.408 1.032 0 .584-.228 1.044-.684 1.38-.456.328-1.064.492-1.824.492Zm4.455-.036c-.24 0-.424-.072-.552-.216-.128-.144-.192-.344-.192-.6v-4.404c0-.264.064-.464.192-.6.128-.144.312-.216.552-.216.24 0 .424.072.552.216.136.136.204.336.204.6v4.404c0 .256-.064.456-.192.6-.128.144-.316.216-.564.216Zm0-7.152c-.28 0-.5-.068-.66-.204-.152-.144-.228-.34-.228-.588 0-.256.076-.452.228-.588.16-.136.38-.204.66-.204.288 0 .508.068.66.204.152.136.228.332.228.588 0 .248-.076.444-.228.588-.152.136-.372.204-.66.204Zm7.505 7.188a2.62 2.62 0 0 1-1.14-.24 2.067 2.067 0 0 1-.78-.672 1.688 1.688 0 0 1-.276-.948c0-.432.112-.772.336-1.02.224-.256.588-.44 1.092-.552.504-.112 1.18-.168 2.028-.168h.6v.864h-.588c-.496 0-.892.024-1.188.072-.296.048-.508.132-.636.252-.12.112-.18.272-.18.48 0 .264.092.48.276.648.184.168.44.252.768.252.264 0 .496-.06.696-.18.208-.128.372-.3.492-.516.12-.216.18-.464.18-.744v-1.38c0-.4-.088-.688-.264-.864-.176-.176-.472-.264-.888-.264a3.766 3.766 0 0 0-1.596.372c-.152.072-.288.092-.408.06a.459.459 0 0 1-.264-.192.63.63 0 0 1-.096-.336c0-.12.032-.236.096-.348a.572.572 0 0 1 .324-.264c.368-.152.72-.26 1.056-.324a5.16 5.16 0 0 1 .936-.096c.576 0 1.048.088 1.416.264.376.176.656.444.84.804.184.352.276.808.276 1.368v2.88c0 .248-.06.44-.18.576-.12.128-.292.192-.516.192-.224 0-.4-.064-.528-.192-.12-.136-.18-.328-.18-.576v-.576h.096a1.627 1.627 0 0 1-.948 1.2 2.05 2.05 0 0 1-.852.168Zm5.374-.024c-.24 0-.424-.064-.552-.192-.128-.136-.192-.328-.192-.576v-4.536c0-.248.064-.436.192-.564.128-.128.308-.192.54-.192.232 0 .412.064.54.192.128.128.192.316.192.564v.816l-.132-.3c.176-.424.448-.744.816-.96.376-.224.8-.336 1.272-.336s.86.088 1.164.264c.304.176.532.444.684.804.152.352.228.8.228 1.344v2.904c0 .248-.064.44-.192.576-.128.128-.312.192-.552.192-.24 0-.428-.064-.564-.192-.128-.136-.192-.328-.192-.576v-2.832c0-.456-.088-.788-.264-.996-.168-.208-.432-.312-.792-.312-.44 0-.792.14-1.056.42-.256.272-.384.636-.384 1.092v2.628c0 .512-.252.768-.756.768Zm8.532.024c-.512 0-.964-.124-1.356-.372a2.49 2.49 0 0 1-.9-1.056c-.216-.464-.324-1.008-.324-1.632 0-.632.108-1.172.324-1.62a2.49 2.49 0 0 1 .9-1.056 2.482 2.482 0 0 1 1.356-.372c.488 0 .912.12 1.272.36.368.24.616.556.744.948h-.132v-3.12c0-.248.064-.436.192-.564.128-.128.312-.192.552-.192.24 0 .424.064.552.192.136.128.204.316.204.564v7.128c0 .248-.064.44-.192.576-.128.128-.312.192-.552.192-.24 0-.424-.064-.552-.192-.128-.136-.192-.328-.192-.576v-.936l.132.36c-.12.416-.364.748-.732.996s-.8.372-1.296.372Zm.42-1.14c.296 0 .556-.072.78-.216.224-.144.396-.356.516-.636.128-.288.192-.644.192-1.068 0-.64-.136-1.116-.408-1.428-.272-.32-.632-.48-1.08-.48a1.41 1.41 0 0 0-.78.216c-.224.136-.4.348-.528.636-.12.28-.18.632-.18 1.056 0 .632.136 1.112.408 1.44.272.32.632.48 1.08.48Zm6.451 1.14a2.62 2.62 0 0 1-1.14-.24 2.067 2.067 0 0 1-.78-.672 1.688 1.688 0 0 1-.276-.948c0-.432.112-.772.336-1.02.224-.256.588-.44 1.092-.552.504-.112 1.18-.168 2.028-.168h.6v.864h-.588c-.496 0-.892.024-1.188.072-.296.048-.508.132-.636.252-.12.112-.18.272-.18.48 0 .264.092.48.276.648.184.168.44.252.768.252.264 0 .496-.06.696-.18.208-.128.372-.3.492-.516.12-.216.18-.464.18-.744v-1.38c0-.4-.088-.688-.264-.864-.176-.176-.472-.264-.888-.264a3.766 3.766 0 0 0-1.596.372c-.152.072-.288.092-.408.06a.459.459 0 0 1-.264-.192.63.63 0 0 1-.096-.336c0-.12.032-.236.096-.348a.572.572 0 0 1 .324-.264c.368-.152.72-.26 1.056-.324a5.16 5.16 0 0 1 .936-.096c.576 0 1.048.088 1.416.264.376.176.656.444.84.804.184.352.276.808.276 1.368v2.88c0 .248-.06.44-.18.576-.12.128-.292.192-.516.192-.224 0-.4-.064-.528-.192-.12-.136-.18-.328-.18-.576v-.576h.096a1.627 1.627 0 0 1-.948 1.2 2.05 2.05 0 0 1-.852.168Zm-44.649 16c-.344 0-.708-.036-1.092-.108a3.231 3.231 0 0 1-1.032-.372.758.758 0 0 1-.276-.276.684.684 0 0 1-.06-.324.583.583 0 0 1 .12-.288.498.498 0 0 1 .264-.156.541.541 0 0 1 .36.06c.32.152.62.26.9.324.28.056.556.084.828.084.384 0 .668-.064.852-.192a.621.621 0 0 0 .288-.528.493.493 0 0 0-.192-.42c-.12-.104-.304-.18-.552-.228l-1.2-.228c-.496-.096-.876-.276-1.14-.54-.256-.272-.384-.62-.384-1.044 0-.384.104-.716.312-.996.216-.28.512-.496.888-.648a3.437 3.437 0 0 1 1.296-.228c.352 0 .68.04.984.12.312.072.612.188.9.348.12.064.2.148.24.252.048.104.06.212.036.324a.7.7 0 0 1-.144.288.502.502 0 0 1-.276.156.63.63 0 0 1-.36-.072 3.229 3.229 0 0 0-.72-.276 2.67 2.67 0 0 0-.648-.084c-.392 0-.684.068-.876.204a.64.64 0 0 0-.276.54.57.57 0 0 0 .168.42c.112.112.284.188.516.228l1.2.228c.52.096.912.272 1.176.528.272.256.408.6.408 1.032 0 .584-.228 1.044-.684 1.38-.456.328-1.064.492-1.824.492Zm5.643 0a2.62 2.62 0 0 1-1.14-.24 2.067 2.067 0 0 1-.78-.672 1.688 1.688 0 0 1-.276-.948c0-.432.112-.772.336-1.02.224-.256.588-.44 1.092-.552.504-.112 1.18-.168 2.028-.168h.6v.864h-.588c-.496 0-.892.024-1.188.072-.296.048-.508.132-.636.252-.12.112-.18.272-.18.48 0 .264.092.48.276.648.184.168.44.252.768.252.264 0 .496-.06.696-.18.208-.128.372-.3.492-.516.12-.216.18-.464.18-.744v-1.38c0-.4-.088-.688-.264-.864-.176-.176-.472-.264-.888-.264a3.766 3.766 0 0 0-1.596.372c-.152.072-.288.092-.408.06a.459.459 0 0 1-.264-.192.63.63 0 0 1-.096-.336c0-.12.032-.236.096-.348a.572.572 0 0 1 .324-.264c.368-.152.72-.26 1.056-.324a5.16 5.16 0 0 1 .936-.096c.576 0 1.048.088 1.416.264.376.176.656.444.84.804.184.352.276.808.276 1.368v2.88c0 .248-.06.44-.18.576-.12.128-.292.192-.516.192-.224 0-.4-.064-.528-.192-.12-.136-.18-.328-.18-.576v-.576h.096a1.627 1.627 0 0 1-.948 1.2 2.05 2.05 0 0 1-.852.168Zm6.563 0a2.62 2.62 0 0 1-1.14-.24 2.067 2.067 0 0 1-.78-.672 1.688 1.688 0 0 1-.276-.948c0-.432.112-.772.336-1.02.224-.256.588-.44 1.092-.552.504-.112 1.18-.168 2.028-.168h.6v.864h-.588c-.496 0-.892.024-1.188.072-.296.048-.508.132-.636.252-.12.112-.18.272-.18.48 0 .264.092.48.276.648.184.168.44.252.768.252.264 0 .496-.06.696-.18.208-.128.372-.3.492-.516.12-.216.18-.464.18-.744v-1.38c0-.4-.088-.688-.264-.864-.176-.176-.472-.264-.888-.264a3.766 3.766 0 0 0-1.596.372c-.152.072-.288.092-.408.06a.459.459 0 0 1-.264-.192.63.63 0 0 1-.096-.336c0-.12.032-.236.096-.348a.572.572 0 0 1 .324-.264c.368-.152.72-.26 1.056-.324a5.16 5.16 0 0 1 .936-.096c.576 0 1.048.088 1.416.264.376.176.656.444.84.804.184.352.276.808.276 1.368v2.88c0 .248-.06.44-.18.576-.12.128-.292.192-.516.192-.224 0-.4-.064-.528-.192-.12-.136-.18-.328-.18-.576v-.576h.096a1.627 1.627 0 0 1-.948 1.2 2.05 2.05 0 0 1-.852.168Zm7.318 0c-.52 0-.956-.088-1.308-.264a1.7 1.7 0 0 1-.768-.768c-.168-.344-.252-.768-.252-1.272v-2.556h-.624c-.192 0-.34-.048-.444-.144a.568.568 0 0 1-.156-.42c0-.184.052-.324.156-.42.104-.096.252-.144.444-.144h.624v-1.092c0-.248.064-.436.192-.564.136-.128.324-.192.564-.192.24 0 .424.064.552.192.128.128.192.316.192.564v1.092h1.272c.192 0 .34.048.444.144.104.096.156.236.156.42a.568.568 0 0 1-.156.42c-.104.096-.252.144-.444.144h-1.272v2.472c0 .384.084.672.252.864.168.192.44.288.816.288.136 0 .256-.012.36-.036.104-.024.196-.04.276-.048a.275.275 0 0 1 .24.096c.064.064.096.2.096.408 0 .16-.028.304-.084.432a.435.435 0 0 1-.276.252c-.104.032-.24.06-.408.084a2.409 2.409 0 0 1-.444.048Zm5.919-.036c-.24 0-.424-.072-.552-.216-.128-.144-.192-.344-.192-.6v-4.404c0-.264.064-.464.192-.6.128-.144.312-.216.552-.216.24 0 .424.072.552.216.136.136.204.336.204.6v4.404c0 .256-.064.456-.192.6-.128.144-.316.216-.564.216Zm0-7.152c-.28 0-.5-.068-.66-.204-.152-.144-.228-.34-.228-.588 0-.256.076-.452.228-.588.16-.136.38-.204.66-.204.288 0 .508.068.66.204.152.136.228.332.228.588 0 .248-.076.444-.228.588-.152.136-.372.204-.66.204Zm3.059 7.164c-.24 0-.424-.064-.552-.192-.128-.136-.192-.328-.192-.576v-4.536c0-.248.064-.436.192-.564.128-.128.308-.192.54-.192.232 0 .412.064.54.192.128.128.192.316.192.564v.816l-.132-.3c.176-.424.448-.744.816-.96.376-.224.8-.336 1.272-.336s.86.088 1.164.264c.304.176.532.444.684.804.152.352.228.8.228 1.344v2.904c0 .248-.064.44-.192.576-.128.128-.312.192-.552.192-.24 0-.428-.064-.564-.192-.128-.136-.192-.328-.192-.576v-2.832c0-.456-.088-.788-.264-.996-.168-.208-.432-.312-.792-.312-.44 0-.792.14-1.056.42-.256.272-.384.636-.384 1.092v2.628c0 .512-.252.768-.756.768Zm7.02-.012c-.24 0-.424-.072-.552-.216-.128-.144-.192-.344-.192-.6v-4.404c0-.264.064-.464.192-.6.128-.144.312-.216.552-.216.24 0 .424.072.552.216.136.136.204.336.204.6v4.404c0 .256-.064.456-.192.6-.128.144-.316.216-.564.216Zm0-7.152c-.28 0-.5-.068-.66-.204-.152-.144-.228-.34-.228-.588 0-.256.076-.452.228-.588.16-.136.38-.204.66-.204.288 0 .508.068.66.204.152.136.228.332.228.588 0 .248-.076.444-.228.588-.152.136-.372.204-.66.204Zm-99.034-32.812c-.352 0-.704-.028-1.056-.084a5.489 5.489 0 0 1-.996-.228 4.096 4.096 0 0 1-.84-.408.774.774 0 0 1-.36-.744.73.73 0 0 1 .156-.348.547.547 0 0 1 .324-.192c.128-.024.268.012.42.108a4.1 4.1 0 0 0 1.116.456 5.18 5.18 0 0 0 1.236.144c.632 0 1.092-.104 1.38-.312.288-.216.432-.492.432-.828 0-.28-.104-.5-.312-.66-.2-.16-.548-.292-1.044-.396l-1.32-.276c-.76-.16-1.328-.428-1.704-.804-.368-.384-.552-.888-.552-1.512a2.355 2.355 0 0 1 .912-1.896 3.131 3.131 0 0 1 1.044-.528 4.472 4.472 0 0 1 1.344-.192c.48 0 .936.06 1.368.18.432.12.82.296 1.164.528a.614.614 0 0 1 .252.324c.048.128.06.256.036.384a.599.599 0 0 1-.168.312.55.55 0 0 1-.336.156c-.128.016-.276-.024-.444-.12a3.416 3.416 0 0 0-.9-.36 4.263 4.263 0 0 0-.984-.108c-.368 0-.684.052-.948.156a1.369 1.369 0 0 0-.612.444 1.08 1.08 0 0 0-.204.66.9.9 0 0 0 .288.696c.192.168.52.3.984.396l1.308.276c.792.168 1.38.432 1.764.792.392.36.588.84.588 1.44 0 .384-.08.732-.24 1.044-.152.312-.376.58-.672.804a3.11 3.11 0 0 1-1.044.516c-.408.12-.868.18-1.38.18Zm7.402 0c-.664 0-1.236-.124-1.716-.372s-.852-.6-1.116-1.056c-.256-.456-.384-.996-.384-1.62 0-.608.124-1.14.372-1.596a2.79 2.79 0 0 1 1.044-1.068 2.945 2.945 0 0 1 1.524-.396c.416 0 .788.068 1.116.204.336.136.62.332.852.588.24.256.42.568.54.936.128.36.192.768.192 1.224a.4.4 0 0 1-.156.336c-.096.072-.236.108-.42.108h-3.852v-.864h3.372l-.192.18c0-.368-.056-.676-.168-.924a1.171 1.171 0 0 0-.468-.564c-.2-.136-.452-.204-.756-.204-.336 0-.624.08-.864.24a1.484 1.484 0 0 0-.54.66c-.12.28-.18.616-.18 1.008v.084c0 .656.152 1.148.456 1.476.312.32.768.48 1.368.48.208 0 .44-.024.696-.072.264-.056.512-.148.744-.276.168-.096.316-.136.444-.12a.42.42 0 0 1 .3.132c.08.08.128.18.144.3a.562.562 0 0 1-.072.348.742.742 0 0 1-.3.312 3.22 3.22 0 0 1-.972.396c-.36.08-.696.12-1.008.12Zm5.616 0c-.664 0-1.164-.188-1.5-.564-.336-.384-.504-.944-.504-1.68V373.2c0-.248.064-.436.192-.564.128-.128.312-.192.552-.192.24 0 .424.064.552.192.136.128.204.316.204.564v5.604c0 .368.076.64.228.816.16.176.384.264.672.264h.18l.168-.024c.112-.016.188.016.228.096.04.072.06.224.06.456 0 .2-.04.356-.12.468-.08.112-.212.18-.396.204l-.252.024a2.915 2.915 0 0 1-.264.012Zm4.662 0c-.664 0-1.236-.124-1.716-.372s-.852-.6-1.116-1.056c-.256-.456-.384-.996-.384-1.62 0-.608.124-1.14.372-1.596a2.79 2.79 0 0 1 1.044-1.068 2.945 2.945 0 0 1 1.524-.396c.416 0 .788.068 1.116.204.336.136.62.332.852.588.24.256.42.568.54.936.128.36.192.768.192 1.224a.4.4 0 0 1-.156.336c-.096.072-.236.108-.42.108H288.6v-.864h3.372l-.192.18c0-.368-.056-.676-.168-.924a1.171 1.171 0 0 0-.468-.564c-.2-.136-.452-.204-.756-.204-.336 0-.624.08-.864.24a1.484 1.484 0 0 0-.54.66c-.12.28-.18.616-.18 1.008v.084c0 .656.152 1.148.456 1.476.312.32.768.48 1.368.48.208 0 .44-.024.696-.072.264-.056.512-.148.744-.276.168-.096.316-.136.444-.12a.42.42 0 0 1 .3.132c.08.08.128.18.144.3a.562.562 0 0 1-.072.348.742.742 0 0 1-.3.312 3.22 3.22 0 0 1-.972.396c-.36.08-.696.12-1.008.12Zm5.76 0c-.344 0-.708-.036-1.092-.108a3.231 3.231 0 0 1-1.032-.372.758.758 0 0 1-.276-.276.684.684 0 0 1-.06-.324.583.583 0 0 1 .12-.288.498.498 0 0 1 .264-.156.541.541 0 0 1 .36.06c.32.152.62.26.9.324.28.056.556.084.828.084.384 0 .668-.064.852-.192a.621.621 0 0 0 .288-.528.493.493 0 0 0-.192-.42c-.12-.104-.304-.18-.552-.228l-1.2-.228c-.496-.096-.876-.276-1.14-.54-.256-.272-.384-.62-.384-1.044 0-.384.104-.716.312-.996.216-.28.512-.496.888-.648a3.437 3.437 0 0 1 1.296-.228c.352 0 .68.04.984.12.312.072.612.188.9.348.12.064.2.148.24.252.048.104.06.212.036.324a.7.7 0 0 1-.144.288.502.502 0 0 1-.276.156.63.63 0 0 1-.36-.072 3.229 3.229 0 0 0-.72-.276 2.67 2.67 0 0 0-.648-.084c-.392 0-.684.068-.876.204a.64.64 0 0 0-.276.54.57.57 0 0 0 .168.42c.112.112.284.188.516.228l1.2.228c.52.096.912.272 1.176.528.272.256.408.6.408 1.032 0 .584-.228 1.044-.684 1.38-.456.328-1.064.492-1.824.492Zm5.643 0a2.62 2.62 0 0 1-1.14-.24 2.067 2.067 0 0 1-.78-.672 1.688 1.688 0 0 1-.276-.948c0-.432.112-.772.336-1.02.224-.256.588-.44 1.092-.552.504-.112 1.18-.168 2.028-.168h.6v.864h-.588c-.496 0-.892.024-1.188.072-.296.048-.508.132-.636.252-.12.112-.18.272-.18.48 0 .264.092.48.276.648.184.168.44.252.768.252.264 0 .496-.06.696-.18.208-.128.372-.3.492-.516.12-.216.18-.464.18-.744v-1.38c0-.4-.088-.688-.264-.864-.176-.176-.472-.264-.888-.264a3.766 3.766 0 0 0-1.596.372c-.152.072-.288.092-.408.06a.459.459 0 0 1-.264-.192.63.63 0 0 1-.096-.336c0-.12.032-.236.096-.348a.572.572 0 0 1 .324-.264c.368-.152.72-.26 1.056-.324a5.16 5.16 0 0 1 .936-.096c.576 0 1.048.088 1.416.264.376.176.656.444.84.804.184.352.276.808.276 1.368v2.88c0 .248-.06.44-.18.576-.12.128-.292.192-.516.192-.224 0-.4-.064-.528-.192-.12-.136-.18-.328-.18-.576v-.576h.096a1.627 1.627 0 0 1-.948 1.2 2.05 2.05 0 0 1-.852.168Zm5.374-.036c-.24 0-.424-.072-.552-.216-.128-.144-.192-.344-.192-.6v-4.404c0-.264.064-.464.192-.6.128-.144.312-.216.552-.216.24 0 .424.072.552.216.136.136.204.336.204.6v4.404c0 .256-.064.456-.192.6-.128.144-.316.216-.564.216Zm0-7.152c-.28 0-.5-.068-.66-.204-.152-.144-.228-.34-.228-.588 0-.256.076-.452.228-.588.16-.136.38-.204.66-.204.288 0 .508.068.66.204.152.136.228.332.228.588 0 .248-.076.444-.228.588-.152.136-.372.204-.66.204Z"/>
  <rect width="22" height="22" x="52" y="409" fill="#fff" rx="11"/>
  <path fill="#333" d="M61.13 424c-.225 0-.403-.061-.533-.182-.12-.13-.181-.303-.181-.52 0-.225.06-.394.181-.507.13-.113.308-.169.533-.169h1.456v-6.383h.806l-1.91 1.157a.759.759 0 0 1-.468.117.73.73 0 0 1-.364-.182.826.826 0 0 1-.195-.364.686.686 0 0 1 .026-.416.757.757 0 0 1 .337-.364l1.794-1.079c.174-.104.347-.191.52-.26.174-.078.334-.117.482-.117.181 0 .333.052.455.156.12.095.181.256.181.481v7.254h1.326c.226 0 .4.056.52.169.13.113.195.282.195.507 0 .225-.064.399-.194.52-.122.121-.295.182-.52.182H61.13Z"/>
  <rect width="22" height="22" x="52" y="409" stroke="#9D02FF" stroke-width="2" rx="11"/>
  <path fill="#9D02FF" d="M318 410.5a1.5 1.5 0 0 0 0-3v3ZM69.66 448c.829 0 1.415-1.015 1-1.732L64 434.732c-.414-.717-1.586-.717-2 0l-6.66 11.536c-.415.717.171 1.732 1 1.732h13.32ZM318 407.5h-99.5v3H318v-3ZM193 433v26h3v-26h-3Zm-22.5 48.5H87v3h83.5v-3ZM64.5 459v-12.5h-3V459h3ZM87 481.5c-12.426 0-22.5-10.074-22.5-22.5h-3c0 14.083 11.417 25.5 25.5 25.5v-3ZM193 459c0 12.426-10.074 22.5-22.5 22.5v3c14.083 0 25.5-11.417 25.5-25.5h-3Zm25.5-51.5c-14.083 0-25.5 11.417-25.5 25.5h3c0-12.426 10.074-22.5 22.5-22.5v-3Z"/>
  <rect width="22" height="22" x="52" y="271" fill="#fff" rx="11"/>
  <path fill="#333" d="M60.831 286c-.277 0-.48-.061-.61-.182-.122-.13-.182-.316-.182-.559 0-.147.038-.29.117-.429.078-.139.19-.286.337-.442l2.613-2.782c.4-.416.685-.793.858-1.131.174-.347.26-.693.26-1.04 0-.433-.138-.763-.416-.988-.268-.225-.663-.338-1.182-.338-.295 0-.59.043-.884.13a3.086 3.086 0 0 0-.898.416c-.156.104-.303.147-.441.13a.635.635 0 0 1-.352-.169.737.737 0 0 1-.195-.351.756.756 0 0 1 .014-.416.76.76 0 0 1 .312-.377 4.327 4.327 0 0 1 1.247-.572c.468-.13.936-.195 1.404-.195.66 0 1.214.1 1.665.299.45.199.792.49 1.026.871.234.381.352.845.352 1.391 0 .364-.061.719-.183 1.066a4.14 4.14 0 0 1-.532 1.053 8.205 8.205 0 0 1-.924 1.131l-2.443 2.548v-.442h3.822c.234 0 .411.056.532.169.122.113.183.282.183.507 0 .225-.061.399-.183.52-.12.121-.298.182-.532.182H60.83Z"/>
  <rect width="22" height="22" x="52" y="271" stroke="#9D02FF" stroke-width="2" rx="11"/>
  <rect width="22" height="22" x="52" y="133" fill="#fff" rx="11"/>
  <path fill="#333" d="M62.82 148.13a6.22 6.22 0 0 1-1.456-.182 4.172 4.172 0 0 1-1.313-.546.878.878 0 0 1-.35-.39.713.713 0 0 1-.053-.416.737.737 0 0 1 .195-.351.657.657 0 0 1 .377-.169.889.889 0 0 1 .508.117c.355.191.697.329 1.026.416.33.078.668.117 1.015.117.38 0 .702-.052.962-.156.26-.104.455-.26.584-.468.14-.208.209-.459.209-.754 0-.433-.148-.754-.442-.962-.286-.217-.707-.325-1.261-.325h-.832c-.243 0-.43-.061-.56-.182-.12-.121-.181-.29-.181-.507 0-.217.06-.386.181-.507.13-.121.317-.182.56-.182h.675c.33 0 .611-.052.846-.156a1.32 1.32 0 0 0 .545-.468c.13-.199.195-.442.195-.728 0-.399-.134-.702-.403-.91-.26-.208-.64-.312-1.144-.312-.32 0-.623.039-.91.117a3.56 3.56 0 0 0-.922.403.71.71 0 0 1-.456.117.585.585 0 0 1-.35-.169.738.738 0 0 1-.195-.338.686.686 0 0 1 .026-.416.747.747 0 0 1 .325-.377 4.274 4.274 0 0 1 1.235-.546c.45-.13.914-.195 1.39-.195.633 0 1.175.1 1.626.299.45.191.793.468 1.027.832.242.355.364.789.364 1.3 0 .364-.07.698-.209 1.001a2.158 2.158 0 0 1-.584.754 2.238 2.238 0 0 1-.91.442v-.156c.624.104 1.109.364 1.456.78.346.407.52.919.52 1.534 0 .537-.135 1.005-.403 1.404-.27.399-.65.706-1.145.923-.493.208-1.083.312-1.767.312Z"/>
  <rect width="22" height="22" x="52" y="133" stroke="#9D02FF" stroke-width="2" rx="11"/>
  <path fill="#9D02FF" d="M61.5 266a1.5 1.5 0 0 0 3 0h-3Zm8.16-91c.829 0 1.415-1.015 1-1.732L64 161.732c-.414-.717-1.586-.717-2 0l-6.66 11.536c-.415.717.171 1.732 1 1.732h13.32Zm-5.16 91v-92.5h-3V266h3Zm-3 138a1.5 1.5 0 0 0 3 0h-3Zm8.16-91c.829 0 1.415-1.015 1-1.732L64 299.732c-.414-.717-1.586-.717-2 0l-6.66 11.536c-.415.717.171 1.732 1 1.732h13.32Zm-5.16 91v-92.5h-3V404h3Z"/>
  <rect width="22" height="22" x="195" y="194" fill="#fff" rx="11"/>
  <path fill="#333" d="M207.472 209.104c-.26 0-.464-.069-.611-.208-.148-.147-.221-.355-.221-.624v-1.014h-3.211c-.269 0-.486-.056-.65-.169-.156-.113-.234-.29-.234-.533 0-.139.034-.29.104-.455.078-.165.212-.381.403-.65l3.562-5.161a1.41 1.41 0 0 1 .403-.416.914.914 0 0 1 .507-.143c.225 0 .411.069.559.208.147.13.221.338.221.624v5.317h.637c.251 0 .437.061.559.182.13.113.195.282.195.507 0 .225-.065.399-.195.52-.122.113-.308.169-.559.169h-.637v1.014c0 .269-.074.477-.221.624-.148.139-.351.208-.611.208Zm-.832-3.224v-4.056h.377l-3.068 4.498v-.442h2.691Z"/>
  <rect width="22" height="22" x="195" y="194" stroke="#9D02FF" stroke-width="2" rx="11"/>
  <path fill="#9D02FF" d="M61.5 131a1.5 1.5 0 0 0 3 0h-3Zm137.84 46c-.829 0-1.414 1.015-1 1.732l6.66 11.536c.414.717 1.586.717 2 0l6.66-11.536c.414-.717-.171-1.732-1-1.732h-13.32ZM64.5 131v-4h-3v4h3ZM87 104.5h95v-3H87v3ZM204.5 127v51.5h3V127h-3ZM182 104.5c12.426 0 22.5 10.074 22.5 22.5h3c0-14.083-11.417-25.5-25.5-25.5v3ZM64.5 127c0-12.426 10.074-22.5 22.5-22.5v-3c-14.083 0-25.5 11.417-25.5 25.5h3Zm143 94a1.5 1.5 0 0 0-3 0h3ZM250 383.66c0 .829 1.015 1.414 1.732 1l11.536-6.66c.717-.414.717-1.586 0-2l-11.536-6.66c-.717-.414-1.732.171-1.732 1v13.32ZM182.5 263.5a1.5 1.5 0 0 0 0 3v-3Zm22-42.5v20.5h3V221h-3Zm-47 67.5V353h3v-64.5h-3Zm25.5 90h68.5v-3H183v3ZM157.5 353c0 14.083 11.417 25.5 25.5 25.5v-3c-12.426 0-22.5-10.074-22.5-22.5h-3Zm25-89.5c-13.807 0-25 11.193-25 25h3c0-12.15 9.85-22 22-22v-3Zm22-22c0 12.15-9.85 22-22 22v3c13.807 0 25-11.193 25-25h-3Z"/>
  <defs>
    <clipPath id="a">
      <path fill="#fff" d="M0 0h689v317H0z" transform="matrix(0 -1 1 0 0 689)"/>
    </clipPath>
    <clipPath id="b">
      <path fill="#fff" d="M0 0h37.919v37.968H0z" transform="translate(38.677 589.776)"/>
    </clipPath>
    <clipPath id="c">
      <path fill="#fff" d="M0 0h34.885v30.881H0z" transform="translate(38.677 635.844)"/>
    </clipPath>
    <clipPath id="d">
      <path fill="#fff" d="M0 0h52.143v62.187H0z" transform="rotate(-90 61.467 -2.236)"/>
    </clipPath>
    <clipPath id="e">
      <path fill="#fff" d="M0 0h51.864v89.994H0z" transform="rotate(-90 119.999 -60.999)"/>
    </clipPath>
    <clipPath id="f">
      <path fill="#fff" d="M0 0h43.494v89.994H0z" transform="rotate(-90 269.204 88.205)"/>
    </clipPath>
    <clipPath id="g">
      <path fill="#fff" d="M0 0h41.347v89.994H0z" transform="rotate(-90 384.292 203.294)"/>
    </clipPath>
    <clipPath id="h">
      <path fill="#fff" d="M0 0h40.5v40.447H0z" transform="matrix(0 1 1 0 185.549 59.23)"/>
    </clipPath>
    <clipPath id="i">
      <path fill="#fff" d="M0 0h39.487v31.346H0z" transform="rotate(-90 279.44 269.33)"/>
    </clipPath>
    <clipPath id="j">
      <path fill="#fff" d="M0 0h37v59H0z" transform="translate(336 329)"/>
    </clipPath>
  </defs>
</svg>
