<svg xmlns="http://www.w3.org/2000/svg" fill="none" viewBox="0 0 324 562">
  <g clip-path="url(#a)">
    <g clip-path="url(#b)">
      <path fill="#605756" d="M30 192.458c-8.837 0-16-7.163-16-16V85.443c0-8.837 7.163-16 16-16h24v123.015H30Z"/>
      <path fill="#fff" d="M36.83 167.499c-.493 0-.864.127-1.113.382-.255.249-.518.705-.789 1.369-.46 1.212-.996 2.084-1.61 2.615-.62.531-1.35.797-2.191.797-1.019 0-1.835-.36-2.45-1.079-.62-.725-.929-1.644-.929-2.756 0-.741.158-1.403.473-1.984.31-.581.75-1.026 1.32-1.336.57-.316 1.218-.473 1.942-.473v2.432c-.564 0-.993.122-1.286.365-.3.238-.448.584-.448 1.038 0 .426.127.758.381.996.25.238.587.357 1.013.357.332 0 .634-.133.905-.399.265-.265.542-.736.83-1.411.426-1.179.949-2.034 1.569-2.565.62-.537 1.408-.805 2.365-.805 1.052 0 1.874.335 2.466 1.004.592.67.888 1.58.888 2.731 0 .781-.16 1.492-.481 2.134a3.635 3.635 0 0 1-1.378 1.51c-.598.36-1.304.54-2.117.54v-2.449c.697 0 1.204-.135 1.519-.407.315-.271.473-.713.473-1.328 0-.852-.45-1.278-1.353-1.278Zm-8.916-7.263 8.74-2.283-8.74-2.274v-3.188H40v2.449h-3.27l-5.04-.224 8.31 2.415v1.661l-8.31 2.415 5.04-.224H40v2.44H27.914v-3.187Zm9.612-15.631v3.329l2.474.648v2.581l-12.086-3.777v-2.233L40 141.352v2.606l-2.474.647Zm-2.033 2.798v-2.258l-4.308 1.129 4.308 1.129Zm.091-10.849v1.212H40v2.44H27.914v-3.893c0-1.223.318-2.167.955-2.831.63-.669 1.53-1.004 2.697-1.004 1.605 0 2.729.584 3.37 1.751l4.948-2.116H40v2.623l-4.416 1.818Zm-2.034 1.212v-1.387c0-.487-.16-.852-.481-1.095-.327-.244-.761-.366-1.303-.366-1.212 0-1.818.474-1.818 1.42v1.428h3.602Zm-3.602-14.377v2.988H40v2.449H29.948v2.938h-2.034v-8.375h2.034Zm0-12.153v2.989H40v2.448H29.948v2.939h-2.034v-8.376h2.034Zm6.732-5.47-8.766-2.034v-2.722L40 104.496v2.54l-12.086 3.462v-2.706l8.766-2.026Zm-3.794-11.72v-1.138c0-.431-.15-.747-.448-.946-.304-.205-.708-.307-1.212-.307-.481 0-.855.105-1.12.315a.986.986 0 0 0-.407.83 1 1 0 0 0 .382.806c.254.204.575.307.963.307v2.349c-.631 0-1.196-.144-1.694-.432a3.088 3.088 0 0 1-1.179-1.22 3.627 3.627 0 0 1-.423-1.743c0-1.113.307-1.984.921-2.615.615-.63 1.456-.946 2.524-.946.548 0 1.057.144 1.527.431a2.89 2.89 0 0 1 1.071 1.12c.244-.57.609-.992 1.096-1.27.487-.281 1.062-.422 1.726-.422 1.074 0 1.934.343 2.582 1.029.647.68.971 1.577.971 2.69 0 1.034-.318 1.875-.955 2.523-.642.642-1.483.963-2.523.963v-2.35c.432 0 .794-.113 1.087-.34.294-.227.44-.515.44-.863 0-.404-.15-.722-.448-.955-.299-.238-.697-.357-1.195-.357-1.19 0-1.788.462-1.793 1.387v1.153h-1.893Z"/>
      <path fill="#605756" d="M30 323.163c-8.837 0-16-7.164-16-16v-91.016c0-8.836 7.163-16 16-16h24v123.016H30Z"/>
      <path fill="#fff" d="M36.83 298.203c-.493 0-.864.127-1.113.382-.255.249-.518.706-.789 1.37-.46 1.212-.996 2.083-1.61 2.614-.62.532-1.35.797-2.191.797-1.019 0-1.835-.359-2.45-1.079-.62-.725-.929-1.643-.929-2.756 0-.741.158-1.403.473-1.984.31-.581.75-1.026 1.32-1.336.57-.315 1.218-.473 1.942-.473v2.432c-.564 0-.993.122-1.286.365-.3.238-.448.584-.448 1.038 0 .426.127.758.381.996.25.238.587.357 1.013.357.332 0 .634-.133.905-.399.265-.265.542-.736.83-1.411.426-1.179.949-2.033 1.569-2.565.62-.537 1.408-.805 2.365-.805 1.052 0 1.874.335 2.466 1.004.592.67.888 1.58.888 2.731 0 .781-.16 1.492-.481 2.134a3.635 3.635 0 0 1-1.378 1.51c-.598.36-1.304.54-2.117.54v-2.449c.697 0 1.204-.135 1.519-.406.315-.272.473-.714.473-1.329 0-.852-.45-1.278-1.353-1.278Zm-8.916-7.263 8.74-2.283-8.74-2.274v-3.188H40v2.449h-3.27l-5.04-.224 8.31 2.415v1.661l-8.31 2.415 5.04-.224H40v2.44H27.914v-3.187Zm9.612-15.63v3.328l2.474.648v2.581l-12.086-3.777v-2.233L40 272.056v2.606l-2.474.648Zm-2.033 2.797v-2.258l-4.308 1.129 4.308 1.129Zm.091-10.849v1.212H40v2.44H27.914v-3.893c0-1.223.318-2.166.955-2.83.63-.67 1.53-1.005 2.697-1.005 1.605 0 2.729.584 3.37 1.752l4.948-2.117H40v2.623l-4.416 1.818Zm-2.034 1.212v-1.387c0-.486-.16-.852-.481-1.095-.327-.244-.761-.365-1.303-.365-1.212 0-1.818.473-1.818 1.419v1.428h3.602Zm-3.602-14.377v2.988H40v2.449H29.948v2.938h-2.034v-8.375h2.034Zm0-12.153v2.989H40v2.448H29.948v2.939h-2.034v-8.376h2.034Zm6.732-5.47-8.766-2.033v-2.723L40 235.2v2.54l-12.086 3.462v-2.706l8.766-2.026ZM40 219.719v7.122h-1.66l-4.159-3.27c-.575-.415-1.079-.72-1.51-.913-.438-.2-.856-.299-1.254-.299-.537 0-.957.094-1.262.282a.876.876 0 0 0-.456.797c0 .382.177.686.531.913.354.221.852.332 1.494.332v2.358c-.741 0-1.42-.153-2.034-.457a3.453 3.453 0 0 1-1.427-1.295 3.546 3.546 0 0 1-.515-1.893c0-1.079.299-1.914.896-2.506.593-.598 1.437-.897 2.532-.897.68 0 1.373.166 2.076.498.697.327 1.557.922 2.581 1.785l2.216 1.552v-4.109H40Z"/>
      <path fill="#9D02FF" d="M30 453.866c-8.837 0-16-7.163-16-16v-91.015c0-8.837 7.163-16 16-16h24v123.015H30Z"/>
      <path fill="#fff" d="M36.83 428.907c-.493 0-.864.127-1.113.382-.255.249-.518.705-.789 1.369-.46 1.212-.996 2.084-1.61 2.615-.62.531-1.35.797-2.191.797-1.019 0-1.835-.36-2.45-1.079-.62-.725-.929-1.644-.929-2.756 0-.742.158-1.403.473-1.984.31-.581.75-1.027 1.32-1.336.57-.316 1.218-.474 1.942-.474v2.433c-.564 0-.993.121-1.286.365-.3.238-.448.584-.448 1.037 0 .426.127.759.381.996.25.238.587.357 1.013.357.332 0 .634-.132.905-.398.265-.266.542-.736.83-1.411.426-1.179.949-2.034 1.569-2.565.62-.537 1.408-.805 2.365-.805 1.052 0 1.874.335 2.466 1.004.592.67.888 1.58.888 2.731 0 .78-.16 1.491-.481 2.133a3.637 3.637 0 0 1-1.378 1.511c-.598.36-1.304.54-2.117.54v-2.449c.697 0 1.204-.136 1.519-.407.315-.271.473-.714.473-1.328 0-.852-.45-1.278-1.353-1.278Zm-8.916-7.263 8.74-2.283-8.74-2.275v-3.187H40v2.449h-3.27l-5.04-.224 8.31 2.415v1.66l-8.31 2.416 5.04-.224H40v2.44H27.914v-3.187Zm9.612-15.631v3.329l2.474.647v2.582l-12.086-3.777v-2.233L40 402.759v2.607l-2.474.647Zm-2.033 2.798v-2.258l-4.308 1.129 4.308 1.129Zm.091-10.85v1.212H40v2.441H27.914v-3.893c0-1.223.318-2.167.955-2.831.63-.669 1.53-1.004 2.697-1.004 1.605 0 2.729.584 3.37 1.751l4.948-2.116H40v2.623l-4.416 1.817Zm-2.034 1.212v-1.386c0-.487-.16-.852-.481-1.096-.327-.243-.761-.365-1.303-.365-1.212 0-1.818.473-1.818 1.42v1.427h3.602Zm-3.602-14.377v2.989H40v2.448H29.948v2.939h-2.034v-8.376h2.034Zm0-12.152v2.988H40v2.449H29.948v2.939h-2.034v-8.376h2.034Zm6.732-5.47-8.766-2.034v-2.723L40 365.904v2.54l-12.086 3.461v-2.706l8.766-2.025Zm3.32-14.8v2.357h-9.23l.888 2.299h-1.96l-1.8-4.407v-.249H40Z"/>
      <rect width="90.664" height="37.766" x="207.467" y="504.244" fill="#fff" rx="14" transform="rotate(-90 207.467 504.244)"/>
      <path fill="#333" d="m220.264 480.793 8.741-2.283-8.741-2.274v-3.188h12.086v2.449h-3.27l-5.039-.224 8.309 2.415v1.661l-8.309 2.415 5.039-.224h3.27v2.44h-12.086v-3.187Zm6.857-15.954v3.802h3.204v-4.499h2.025v6.939h-12.086v-6.923h2.034v4.483h2.855v-3.802h1.968Zm-6.857-6.085v-2.44h8.367c1.174 0 2.114.326 2.823.979.708.653 1.062 1.495 1.062 2.524 0 1.107-.329 1.967-.988 2.581-.658.615-1.574.922-2.747.922v-2.449c1.14 0 1.71-.351 1.71-1.054 0-.708-.659-1.063-1.976-1.063h-8.251Zm9.612-9.944v3.329l2.474.647v2.582l-12.086-3.777v-2.233l12.086-3.802v2.607l-2.474.647Zm-2.033 2.797v-2.257l-4.308 1.129 4.308 1.128Zm4.507-18.045v7.122h-1.66l-4.159-3.271c-.575-.415-1.079-.719-1.51-.913-.438-.199-.855-.299-1.254-.299-.537 0-.957.094-1.262.282a.878.878 0 0 0-.456.797c0 .382.177.686.531.913.354.222.852.332 1.494.332v2.358a4.507 4.507 0 0 1-2.033-.457 3.439 3.439 0 0 1-1.428-1.295 3.543 3.543 0 0 1-.515-1.892c0-1.079.299-1.915.897-2.507.592-.598 1.436-.897 2.531-.897.681 0 1.373.166 2.076.498.697.327 1.557.922 2.581 1.785l2.216 1.552v-4.108h1.951Z"/>
      <rect width="90.664" height="37.766" x="207.467" y="504.244" stroke="#605756" stroke-width="4" rx="14" transform="rotate(-90 207.467 504.244)"/>
      <rect width="168.99" height="37.766" x="217.549" y="259.655" fill="#fff" rx="14" transform="rotate(-90 217.549 259.655)"/>
      <path fill="#333" d="m230.345 197.041 8.741-2.283-8.741-2.275v-3.187h12.086v2.449h-3.27l-5.039-.224 8.309 2.415v1.66l-8.309 2.416 5.039-.224h3.27v2.44h-12.086v-3.187Zm6.857-15.955v3.802h3.204v-4.499h2.025v6.94h-12.086v-6.923h2.034v4.482h2.856v-3.802h1.967Zm-6.857-6.084v-2.44h8.368c1.173 0 2.114.326 2.822.979.708.653 1.062 1.494 1.062 2.523 0 1.107-.329 1.968-.987 2.582-.659.614-1.575.921-2.748.921v-2.448c1.14 0 1.71-.352 1.71-1.055 0-.708-.659-1.062-1.976-1.062h-8.251Zm9.613-9.944v3.328l2.473.648v2.581l-12.086-3.777v-2.233l12.086-3.801v2.606l-2.473.648Zm-2.034 2.797v-2.258l-4.308 1.129 4.308 1.129Zm4.507-16.095v2.357h-9.23l.888 2.3h-1.959l-1.801-4.408v-.249h12.102Z"/>
      <rect width="168.99" height="37.766" x="217.549" y="259.655" stroke="#605756" stroke-width="4" rx="14" transform="rotate(-90 217.549 259.655)"/>
      <rect width="49.495" height="59.048" x="60.488" y="50.222" fill="#999" rx="5" transform="rotate(-90 60.488 50.222)"/>
      <g clip-path="url(#c)">
        <path fill="#CEC1C1" d="M86.102 25.474 64.99 5.257c-1.08-1.039-1.08-2.718 0-3.657a2.689 2.689 0 0 1 3.914 0l21.109 20.13L111.117 1.6c1.084-1.127 2.837-1.127 3.817 0 1.177.939 1.177 2.618 0 3.657L93.921 25.474l21.013 20.221c1.177 1.035 1.177 2.715 0 3.75-.98 1.035-2.733 1.035-3.817 0L90.012 29.22 68.903 49.445a2.854 2.854 0 0 1-3.914 0 2.574 2.574 0 0 1 0-3.75l21.113-20.22Z"/>
      </g>
      <rect width="49.229" height="85.451" x="171.863" y="50.003" fill="#999" rx="5" transform="rotate(-90 171.863 50.003)"/>
      <g clip-path="url(#d)">
        <path fill="#CEC1C1" d="M208.931 25.388 178.377 5.28c-1.564-1.033-1.564-2.703 0-3.637 1.564-1.12 4.1-1.12 5.664 0l30.547 20.021 30.543-20.021c1.568-1.12 4.105-1.12 5.524 0 1.702.934 1.702 2.604 0 3.637l-30.409 20.11 30.409 20.11c1.702 1.03 1.702 2.7 0 3.73-1.419 1.03-3.956 1.03-5.524 0l-30.543-20.117-30.547 20.116c-1.564 1.03-4.1 1.03-5.664 0s-1.564-2.7 0-3.73l30.554-20.112Z"/>
      </g>
      <rect width="41.284" height="85.451" x="171.863" y="333.253" fill="#999" rx="5" transform="rotate(-90 171.863 333.253)"/>
      <g clip-path="url(#e)">
        <path fill="#CEC1C1" d="m208.931 312.611-30.554-16.864c-1.564-.866-1.564-2.267 0-3.05 1.564-.94 4.1-.94 5.664 0l30.547 16.79 30.543-16.79c1.568-.94 4.105-.94 5.524 0 1.702.783 1.702 2.184 0 3.05l-30.409 16.864 30.409 16.867c1.702.863 1.702 2.264 0 3.128-1.419.863-3.956.863-5.524 0l-30.543-16.871-30.547 16.871c-1.564.863-4.1.863-5.664 0-1.564-.864-1.564-2.265 0-3.128l30.554-16.867Z"/>
      </g>
      <rect width="39.246" height="85.451" x="171.863" y="551.737" fill="#999" rx="5" transform="rotate(-90 171.863 551.737)"/>
      <g clip-path="url(#f)">
        <path fill="#CEC1C1" d="m208.931 532.114-30.554-16.031c-1.564-.824-1.564-2.155 0-2.9 1.564-.894 4.1-.894 5.664 0l30.547 15.961 30.543-15.961c1.568-.894 4.105-.894 5.524 0 1.702.745 1.702 2.076 0 2.9l-30.409 16.031 30.409 16.034c1.702.821 1.702 2.153 0 2.974-1.419.821-3.956.821-5.524 0l-30.543-16.038-30.547 16.038c-1.564.821-4.1.821-5.664 0s-1.564-2.153 0-2.974l30.554-16.034Z"/>
      </g>
      <path fill="#605756" d="M214.588 267.902a4.8 4.8 0 0 0-4.8-4.806v9.611a4.801 4.801 0 0 0 4.8-4.805Zm-21.467-1.802h-7.936c-4.964 0-9.002 4.04-9.002 9.01v7.809c0 4.967 4.038 9.01 9.002 9.01h29.403v-3.604h-29.403a5.41 5.41 0 0 1-5.401-5.406v-7.809a5.41 5.41 0 0 1 5.401-5.406h7.936c.802 6.503 5.825 11.683 12.234 12.599 1.072.143 2.032-.728 2.032-1.817v-25.168c0-1.091-.96-1.964-2.037-1.816-6.409.915-11.427 6.089-12.229 12.598Zm10.666 12.119a10.808 10.808 0 0 1-5.105-3.869c-1.335-1.855-1.962-4.128-1.962-6.414v-.07c0-2.287.629-4.561 1.964-6.417a10.78 10.78 0 0 1 5.103-3.863v20.633Z"/>
      <g clip-path="url(#g)">
        <path fill="#605756" d="M214.588 73.768a4.8 4.8 0 0 1-4.8 4.806v-9.61a4.8 4.8 0 0 1 4.8 4.804Zm-21.467 1.802h-7.936c-4.964 0-9.002-4.04-9.002-9.01v-7.81c0-4.967 4.038-9.01 9.002-9.01h29.403v3.604h-29.403a5.41 5.41 0 0 0-5.401 5.406v7.809a5.41 5.41 0 0 0 5.401 5.406h7.936c.802-6.503 5.825-11.683 12.234-12.6 1.072-.142 2.032.73 2.032 1.818v25.168c0 1.09-.96 1.964-2.037 1.816-6.409-.916-11.427-6.089-12.229-12.598Zm10.666-12.119a10.805 10.805 0 0 0-5.105 3.869c-1.335 1.855-1.962 4.128-1.962 6.414v.07c0 2.287.629 4.561 1.964 6.417a10.782 10.782 0 0 0 5.103 3.863V63.451Z"/>
      </g>
      <path fill="#999" stroke="#999" d="M257.814 333.234V.266h2.841v332.968z"/>
      <path stroke="#999" d="M257.814 561.005V409.677h2.841v151.328z"/>
      <path stroke="#999" d="M300.5 411.08h-42.686v-1.403H300.5zm0-77.846h-42.686v-1.883H300.5z"/>
      <g clip-path="url(#h)">
        <path fill="#9C0E0E" d="M12.392 499.901c0 6.729 5.412 12.181 12.091 12.181 6.68 0 12.092-5.452 12.092-12.181a12.19 12.19 0 0 0-3.436-8.509 2.822 2.822 0 0 0 .645-1.798v-1.072l.873.439a14.986 14.986 0 0 1 4.708 10.94c0 8.281-6.662 14.993-14.882 14.993-8.22 0-14.882-6.712-14.882-14.993 0-7.971 6.25-14.571 14.115-14.975l2.29 2.887c-.5-.058-1.005-.093-1.523-.093-6.68 0-12.091 5.452-12.091 12.181Zm8.836 3.748c.773 0 1.395.627 1.395 1.406 0 .779-.622 1.405-1.395 1.405h-2.79a1.396 1.396 0 0 1-1.396-1.405c0-.779.622-1.406 1.395-1.406h2.79Zm0-5.153c.773 0 1.395.626 1.395 1.405s-.622 1.406-1.395 1.406h-2.79a1.397 1.397 0 0 1-1.396-1.406c0-.779.622-1.405 1.395-1.405h2.79Zm0-5.154c.773 0 1.395.626 1.395 1.405s-.622 1.406-1.395 1.406h-2.79a1.397 1.397 0 0 1-1.396-1.406c0-.779.622-1.405 1.395-1.405h2.79Zm1.604-13.71a.923.923 0 0 1 1.14-.246l6.092 3.069v-4.106c0-.398.25-.755.622-.884a.882.882 0 0 1 1.035.351l7.44 9.371c.274.293.274.779-.005 1.124a.923.923 0 0 1-1.14.246l-6.092-3.069v4.106a.94.94 0 0 1-.622.884.933.933 0 0 1-1.035-.299l-7.44-9.37a.94.94 0 0 1 .005-1.177Z"/>
      </g>
    </g>
    <g clip-path="url(#i)">
      <path fill="#9C0E0E" d="m229.175 365.604-3.307 5.485a3.711 3.711 0 0 1-5.076 1.256 3.684 3.684 0 0 1-1.26-5.059l6.741-11.178a11.118 11.118 0 0 1 9.516-5.37h3.434a11.12 11.12 0 0 1 9.516 5.37l6.741 11.178a3.684 3.684 0 0 1-1.261 5.059 3.711 3.711 0 0 1-5.076-1.256l-3.318-5.485v25.708a3.69 3.69 0 0 1-3.7 3.688 3.69 3.69 0 0 1-3.7-3.688v-14.75h-1.85v14.75a3.69 3.69 0 0 1-3.7 3.688 3.69 3.69 0 0 1-3.7-3.688v-25.708Z"/>
      <path fill="#9C0E0E" d="M231.95 341.531a5.52 5.52 0 0 1 1.626-3.911 5.558 5.558 0 0 1 7.848 0 5.52 5.52 0 0 1 0 7.822 5.554 5.554 0 0 1-3.924 1.62 5.554 5.554 0 0 1-3.924-1.62 5.52 5.52 0 0 1-1.626-3.911Z" opacity=".4"/>
    </g>
    <path fill="#605756" d="M262.756 372.096c-.248 0-.44-.068-.576-.204-.128-.144-.192-.34-.192-.588v-6.984c0-.256.068-.448.204-.576.136-.136.328-.204.576-.204h2.892c.928 0 1.644.232 2.148.696.504.464.756 1.112.756 1.944 0 .832-.252 1.484-.756 1.956-.504.464-1.22.696-2.148.696h-2.136v2.472c0 .248-.064.444-.192.588-.128.136-.32.204-.576.204Zm.768-4.476h1.896c.544 0 .956-.12 1.236-.36.28-.248.42-.608.42-1.08 0-.472-.14-.828-.42-1.068-.28-.24-.692-.36-1.236-.36h-1.896v2.868Zm8.52 4.5c-.608 0-1.136-.124-1.584-.372a2.602 2.602 0 0 1-1.044-1.056c-.248-.464-.372-1.008-.372-1.632 0-.472.068-.892.204-1.26.144-.376.348-.696.612-.96.264-.272.58-.476.948-.612.368-.144.78-.216 1.236-.216.608 0 1.136.124 1.584.372.448.248.796.6 1.044 1.056.248.456.372.996.372 1.62 0 .472-.072.896-.216 1.272a2.69 2.69 0 0 1-.6.972c-.264.264-.58.468-.948.612-.368.136-.78.204-1.236.204Zm0-1.14c.296 0 .556-.072.78-.216.224-.144.396-.356.516-.636.128-.288.192-.644.192-1.068 0-.64-.136-1.116-.408-1.428-.272-.32-.632-.48-1.08-.48a1.41 1.41 0 0 0-.78.216c-.224.136-.4.348-.528.636-.12.28-.18.632-.18 1.056 0 .632.136 1.112.408 1.44.272.32.632.48 1.08.48Zm6.386 1.14c-.344 0-.708-.036-1.092-.108a3.231 3.231 0 0 1-1.032-.372.758.758 0 0 1-.276-.276.684.684 0 0 1-.06-.324.583.583 0 0 1 .12-.288.498.498 0 0 1 .264-.156.541.541 0 0 1 .36.06c.32.152.62.26.9.324.28.056.556.084.828.084.384 0 .668-.064.852-.192a.621.621 0 0 0 .288-.528.493.493 0 0 0-.192-.42c-.12-.104-.304-.18-.552-.228l-1.2-.228c-.496-.096-.876-.276-1.14-.54-.256-.272-.384-.62-.384-1.044 0-.384.104-.716.312-.996.216-.28.512-.496.888-.648a3.437 3.437 0 0 1 1.296-.228c.352 0 .68.04.984.12.312.072.612.188.9.348.12.064.2.148.24.252.048.104.06.212.036.324a.7.7 0 0 1-.144.288.502.502 0 0 1-.276.156.63.63 0 0 1-.36-.072 3.229 3.229 0 0 0-.72-.276 2.67 2.67 0 0 0-.648-.084c-.392 0-.684.068-.876.204a.64.64 0 0 0-.276.54.57.57 0 0 0 .168.42c.112.112.284.188.516.228l1.2.228c.52.096.912.272 1.176.528.272.256.408.6.408 1.032 0 .584-.228 1.044-.684 1.38-.456.328-1.064.492-1.824.492Zm4.455-.036c-.24 0-.424-.072-.552-.216-.128-.144-.192-.344-.192-.6v-4.404c0-.264.064-.464.192-.6.128-.144.312-.216.552-.216.24 0 .424.072.552.216.136.136.204.336.204.6v4.404c0 .256-.064.456-.192.6-.128.144-.316.216-.564.216Zm0-7.152c-.28 0-.5-.068-.66-.204-.152-.144-.228-.34-.228-.588 0-.256.076-.452.228-.588.16-.136.38-.204.66-.204.288 0 .508.068.66.204.152.136.228.332.228.588 0 .248-.076.444-.228.588-.152.136-.372.204-.66.204Zm4.463 7.188c-.344 0-.708-.036-1.092-.108a3.231 3.231 0 0 1-1.032-.372.758.758 0 0 1-.276-.276.684.684 0 0 1-.06-.324.583.583 0 0 1 .12-.288.498.498 0 0 1 .264-.156.541.541 0 0 1 .36.06c.32.152.62.26.9.324.28.056.556.084.828.084.384 0 .668-.064.852-.192a.621.621 0 0 0 .288-.528.493.493 0 0 0-.192-.42c-.12-.104-.304-.18-.552-.228l-1.2-.228c-.496-.096-.876-.276-1.14-.54-.256-.272-.384-.62-.384-1.044 0-.384.104-.716.312-.996.216-.28.512-.496.888-.648a3.437 3.437 0 0 1 1.296-.228c.352 0 .68.04.984.12.312.072.612.188.9.348.12.064.2.148.24.252.048.104.06.212.036.324a.7.7 0 0 1-.144.288.502.502 0 0 1-.276.156.63.63 0 0 1-.36-.072 3.229 3.229 0 0 0-.72-.276 2.67 2.67 0 0 0-.648-.084c-.392 0-.684.068-.876.204a.64.64 0 0 0-.276.54.57.57 0 0 0 .168.42c.112.112.284.188.516.228l1.2.228c.52.096.912.272 1.176.528.272.256.408.6.408 1.032 0 .584-.228 1.044-.684 1.38-.456.328-1.064.492-1.824.492Zm4.455-.036c-.24 0-.424-.072-.552-.216-.128-.144-.192-.344-.192-.6v-4.404c0-.264.064-.464.192-.6.128-.144.312-.216.552-.216.24 0 .424.072.552.216.136.136.204.336.204.6v4.404c0 .256-.064.456-.192.6-.128.144-.316.216-.564.216Zm0-7.152c-.28 0-.5-.068-.66-.204-.152-.144-.228-.34-.228-.588 0-.256.076-.452.228-.588.16-.136.38-.204.66-.204.288 0 .508.068.66.204.152.136.228.332.228.588 0 .248-.076.444-.228.588-.152.136-.372.204-.66.204Zm7.505 7.188a2.62 2.62 0 0 1-1.14-.24 2.067 2.067 0 0 1-.78-.672 1.688 1.688 0 0 1-.276-.948c0-.432.112-.772.336-1.02.224-.256.588-.44 1.092-.552.504-.112 1.18-.168 2.028-.168h.6v.864h-.588c-.496 0-.892.024-1.188.072-.296.048-.508.132-.636.252-.12.112-.18.272-.18.48 0 .264.092.48.276.648.184.168.44.252.768.252.264 0 .496-.06.696-.18.208-.128.372-.3.492-.516.12-.216.18-.464.18-.744v-1.38c0-.4-.088-.688-.264-.864-.176-.176-.472-.264-.888-.264a3.766 3.766 0 0 0-1.596.372c-.152.072-.288.092-.408.06a.459.459 0 0 1-.264-.192.63.63 0 0 1-.096-.336c0-.12.032-.236.096-.348a.572.572 0 0 1 .324-.264c.368-.152.72-.26 1.056-.324a5.16 5.16 0 0 1 .936-.096c.576 0 1.048.088 1.416.264.376.176.656.444.84.804.184.352.276.808.276 1.368v2.88c0 .248-.06.44-.18.576-.12.128-.292.192-.516.192-.224 0-.4-.064-.528-.192-.12-.136-.18-.328-.18-.576v-.576h.096a1.627 1.627 0 0 1-.948 1.2 2.05 2.05 0 0 1-.852.168Zm5.374-.024c-.24 0-.424-.064-.552-.192-.128-.136-.192-.328-.192-.576v-4.536c0-.248.064-.436.192-.564.128-.128.308-.192.54-.192.232 0 .412.064.54.192.128.128.192.316.192.564v.816l-.132-.3c.176-.424.448-.744.816-.96.376-.224.8-.336 1.272-.336s.86.088 1.164.264c.304.176.532.444.684.804.152.352.228.8.228 1.344v2.904c0 .248-.064.44-.192.576-.128.128-.312.192-.552.192-.24 0-.428-.064-.564-.192-.128-.136-.192-.328-.192-.576v-2.832c0-.456-.088-.788-.264-.996-.168-.208-.432-.312-.792-.312-.44 0-.792.14-1.056.42-.256.272-.384.636-.384 1.092v2.628c0 .512-.252.768-.756.768Zm8.532.024c-.512 0-.964-.124-1.356-.372a2.49 2.49 0 0 1-.9-1.056c-.216-.464-.324-1.008-.324-1.632 0-.632.108-1.172.324-1.62a2.49 2.49 0 0 1 .9-1.056 2.482 2.482 0 0 1 1.356-.372c.488 0 .912.12 1.272.36.368.24.616.556.744.948h-.132v-3.12c0-.248.064-.436.192-.564.128-.128.312-.192.552-.192.24 0 .424.064.552.192.136.128.204.316.204.564v7.128c0 .248-.064.44-.192.576-.128.128-.312.192-.552.192-.24 0-.424-.064-.552-.192-.128-.136-.192-.328-.192-.576v-.936l.132.36c-.12.416-.364.748-.732.996s-.8.372-1.296.372Zm.42-1.14c.296 0 .556-.072.78-.216.224-.144.396-.356.516-.636.128-.288.192-.644.192-1.068 0-.64-.136-1.116-.408-1.428-.272-.32-.632-.48-1.08-.48a1.41 1.41 0 0 0-.78.216c-.224.136-.4.348-.528.636-.12.28-.18.632-.18 1.056 0 .632.136 1.112.408 1.44.272.32.632.48 1.08.48Zm6.451 1.14a2.62 2.62 0 0 1-1.14-.24 2.067 2.067 0 0 1-.78-.672 1.688 1.688 0 0 1-.276-.948c0-.432.112-.772.336-1.02.224-.256.588-.44 1.092-.552.504-.112 1.18-.168 2.028-.168h.6v.864h-.588c-.496 0-.892.024-1.188.072-.296.048-.508.132-.636.252-.12.112-.18.272-.18.48 0 .264.092.48.276.648.184.168.44.252.768.252.264 0 .496-.06.696-.18.208-.128.372-.3.492-.516.12-.216.18-.464.18-.744v-1.38c0-.4-.088-.688-.264-.864-.176-.176-.472-.264-.888-.264a3.766 3.766 0 0 0-1.596.372c-.152.072-.288.092-.408.06a.459.459 0 0 1-.264-.192.63.63 0 0 1-.096-.336c0-.12.032-.236.096-.348a.572.572 0 0 1 .324-.264c.368-.152.72-.26 1.056-.324a5.16 5.16 0 0 1 .936-.096c.576 0 1.048.088 1.416.264.376.176.656.444.84.804.184.352.276.808.276 1.368v2.88c0 .248-.06.44-.18.576-.12.128-.292.192-.516.192-.224 0-.4-.064-.528-.192-.12-.136-.18-.328-.18-.576v-.576h.096a1.627 1.627 0 0 1-.948 1.2 2.05 2.05 0 0 1-.852.168Zm-44.649 16c-.344 0-.708-.036-1.092-.108a3.231 3.231 0 0 1-1.032-.372.758.758 0 0 1-.276-.276.684.684 0 0 1-.06-.324.583.583 0 0 1 .12-.288.498.498 0 0 1 .264-.156.541.541 0 0 1 .36.06c.32.152.62.26.9.324.28.056.556.084.828.084.384 0 .668-.064.852-.192a.621.621 0 0 0 .288-.528.493.493 0 0 0-.192-.42c-.12-.104-.304-.18-.552-.228l-1.2-.228c-.496-.096-.876-.276-1.14-.54-.256-.272-.384-.62-.384-1.044 0-.384.104-.716.312-.996.216-.28.512-.496.888-.648a3.437 3.437 0 0 1 1.296-.228c.352 0 .68.04.984.12.312.072.612.188.9.348.12.064.2.148.24.252.048.104.06.212.036.324a.7.7 0 0 1-.144.288.502.502 0 0 1-.276.156.63.63 0 0 1-.36-.072 3.229 3.229 0 0 0-.72-.276 2.67 2.67 0 0 0-.648-.084c-.392 0-.684.068-.876.204a.64.64 0 0 0-.276.54.57.57 0 0 0 .168.42c.112.112.284.188.516.228l1.2.228c.52.096.912.272 1.176.528.272.256.408.6.408 1.032 0 .584-.228 1.044-.684 1.38-.456.328-1.064.492-1.824.492Zm5.643 0a2.62 2.62 0 0 1-1.14-.24 2.067 2.067 0 0 1-.78-.672 1.688 1.688 0 0 1-.276-.948c0-.432.112-.772.336-1.02.224-.256.588-.44 1.092-.552.504-.112 1.18-.168 2.028-.168h.6v.864h-.588c-.496 0-.892.024-1.188.072-.296.048-.508.132-.636.252-.12.112-.18.272-.18.48 0 .264.092.48.276.648.184.168.44.252.768.252.264 0 .496-.06.696-.18.208-.128.372-.3.492-.516.12-.216.18-.464.18-.744v-1.38c0-.4-.088-.688-.264-.864-.176-.176-.472-.264-.888-.264a3.766 3.766 0 0 0-1.596.372c-.152.072-.288.092-.408.06a.459.459 0 0 1-.264-.192.63.63 0 0 1-.096-.336c0-.12.032-.236.096-.348a.572.572 0 0 1 .324-.264c.368-.152.72-.26 1.056-.324a5.16 5.16 0 0 1 .936-.096c.576 0 1.048.088 1.416.264.376.176.656.444.84.804.184.352.276.808.276 1.368v2.88c0 .248-.06.44-.18.576-.12.128-.292.192-.516.192-.224 0-.4-.064-.528-.192-.12-.136-.18-.328-.18-.576v-.576h.096a1.627 1.627 0 0 1-.948 1.2 2.05 2.05 0 0 1-.852.168Zm6.563 0a2.62 2.62 0 0 1-1.14-.24 2.067 2.067 0 0 1-.78-.672 1.688 1.688 0 0 1-.276-.948c0-.432.112-.772.336-1.02.224-.256.588-.44 1.092-.552.504-.112 1.18-.168 2.028-.168h.6v.864h-.588c-.496 0-.892.024-1.188.072-.296.048-.508.132-.636.252-.12.112-.18.272-.18.48 0 .264.092.48.276.648.184.168.44.252.768.252.264 0 .496-.06.696-.18.208-.128.372-.3.492-.516.12-.216.18-.464.18-.744v-1.38c0-.4-.088-.688-.264-.864-.176-.176-.472-.264-.888-.264a3.766 3.766 0 0 0-1.596.372c-.152.072-.288.092-.408.06a.459.459 0 0 1-.264-.192.63.63 0 0 1-.096-.336c0-.12.032-.236.096-.348a.572.572 0 0 1 .324-.264c.368-.152.72-.26 1.056-.324a5.16 5.16 0 0 1 .936-.096c.576 0 1.048.088 1.416.264.376.176.656.444.84.804.184.352.276.808.276 1.368v2.88c0 .248-.06.44-.18.576-.12.128-.292.192-.516.192-.224 0-.4-.064-.528-.192-.12-.136-.18-.328-.18-.576v-.576h.096a1.627 1.627 0 0 1-.948 1.2 2.05 2.05 0 0 1-.852.168Zm7.318 0c-.52 0-.956-.088-1.308-.264a1.7 1.7 0 0 1-.768-.768c-.168-.344-.252-.768-.252-1.272v-2.556h-.624c-.192 0-.34-.048-.444-.144a.568.568 0 0 1-.156-.42c0-.184.052-.324.156-.42.104-.096.252-.144.444-.144h.624v-1.092c0-.248.064-.436.192-.564.136-.128.324-.192.564-.192.24 0 .424.064.552.192.128.128.192.316.192.564v1.092h1.272c.192 0 .34.048.444.144.104.096.156.236.156.42a.568.568 0 0 1-.156.42c-.104.096-.252.144-.444.144h-1.272v2.472c0 .384.084.672.252.864.168.192.44.288.816.288.136 0 .256-.012.36-.036.104-.024.196-.04.276-.048a.275.275 0 0 1 .24.096c.064.064.096.2.096.408 0 .16-.028.304-.084.432a.435.435 0 0 1-.276.252c-.104.032-.24.06-.408.084a2.409 2.409 0 0 1-.444.048Zm5.919-.036c-.24 0-.424-.072-.552-.216-.128-.144-.192-.344-.192-.6v-4.404c0-.264.064-.464.192-.6.128-.144.312-.216.552-.216.24 0 .424.072.552.216.136.136.204.336.204.6v4.404c0 .256-.064.456-.192.6-.128.144-.316.216-.564.216Zm0-7.152c-.28 0-.5-.068-.66-.204-.152-.144-.228-.34-.228-.588 0-.256.076-.452.228-.588.16-.136.38-.204.66-.204.288 0 .508.068.66.204.152.136.228.332.228.588 0 .248-.076.444-.228.588-.152.136-.372.204-.66.204Zm3.059 7.164c-.24 0-.424-.064-.552-.192-.128-.136-.192-.328-.192-.576v-4.536c0-.248.064-.436.192-.564.128-.128.308-.192.54-.192.232 0 .412.064.54.192.128.128.192.316.192.564v.816l-.132-.3c.176-.424.448-.744.816-.96.376-.224.8-.336 1.272-.336s.86.088 1.164.264c.304.176.532.444.684.804.152.352.228.8.228 1.344v2.904c0 .248-.064.44-.192.576-.128.128-.312.192-.552.192-.24 0-.428-.064-.564-.192-.128-.136-.192-.328-.192-.576v-2.832c0-.456-.088-.788-.264-.996-.168-.208-.432-.312-.792-.312-.44 0-.792.14-1.056.42-.256.272-.384.636-.384 1.092v2.628c0 .512-.252.768-.756.768Zm7.02-.012c-.24 0-.424-.072-.552-.216-.128-.144-.192-.344-.192-.6v-4.404c0-.264.064-.464.192-.6.128-.144.312-.216.552-.216.24 0 .424.072.552.216.136.136.204.336.204.6v4.404c0 .256-.064.456-.192.6-.128.144-.316.216-.564.216Zm0-7.152c-.28 0-.5-.068-.66-.204-.152-.144-.228-.34-.228-.588 0-.256.076-.452.228-.588.16-.136.38-.204.66-.204.288 0 .508.068.66.204.152.136.228.332.228.588 0 .248-.076.444-.228.588-.152.136-.372.204-.66.204Z"/>
    <rect width="22" height="22" x="59" y="377" fill="#fff" rx="11"/>
    <path fill="#333" d="M68.13 392c-.225 0-.402-.061-.532-.182-.122-.13-.183-.303-.183-.52 0-.225.061-.394.182-.507.13-.113.308-.169.534-.169h1.456v-6.383h.805l-1.91 1.157a.759.759 0 0 1-.469.117.73.73 0 0 1-.364-.182.826.826 0 0 1-.195-.364.686.686 0 0 1 .027-.416.757.757 0 0 1 .338-.364l1.793-1.079c.174-.104.347-.191.52-.26.174-.078.334-.117.481-.117.183 0 .334.052.456.156.12.095.181.256.181.481v7.254h1.326c.226 0 .4.056.52.169.13.113.195.282.195.507 0 .225-.064.399-.194.52-.122.121-.295.182-.52.182H68.13Z"/>
    <rect width="22" height="22" x="59" y="377" stroke="#9D02FF" stroke-width="2" rx="11"/>
    <path fill="#9D02FF" d="M215 367a1.5 1.5 0 0 0 0-3v3Zm-114 14.34c0-.829-1.015-1.414-1.732-1L87.732 387c-.717.414-.717 1.586 0 2l11.536 6.66c.717.414 1.732-.171 1.732-1v-13.32Zm48-4.59a1.5 1.5 0 0 0 3 0h-3ZM215 364h-53.25v3H215v-3Zm-75.75 22.5H99.5v3h39.75v-3Zm9.75-9.75a9.75 9.75 0 0 1-9.75 9.75v3c7.042 0 12.75-5.708 12.75-12.75h-3ZM161.75 364c-7.042 0-12.75 5.708-12.75 12.75h3a9.75 9.75 0 0 1 9.75-9.75v-3Z"/>
  </g>
  <defs>
    <clipPath id="a">
      <path fill="#fff" d="M0 0h324v562H0z"/>
    </clipPath>
    <clipPath id="b">
      <path fill="#fff" d="M0 0h654v301H0z" transform="rotate(-90 324 324)"/>
    </clipPath>
    <clipPath id="c">
      <path fill="#fff" d="M0 0h49.495v59.048H0z" transform="rotate(-90 55.355 -5.133)"/>
    </clipPath>
    <clipPath id="d">
      <path fill="#fff" d="M0 0h49.229v85.451H0z" transform="rotate(-90 110.933 -60.93)"/>
    </clipPath>
    <clipPath id="e">
      <path fill="#fff" d="M0 0h41.284v85.451H0z" transform="rotate(-90 252.558 80.695)"/>
    </clipPath>
    <clipPath id="f">
      <path fill="#fff" d="M0 0h39.246v85.451H0z" transform="rotate(-90 361.8 189.937)"/>
    </clipPath>
    <clipPath id="g">
      <path fill="#fff" d="M0 0h38.442v38.405H0z" transform="matrix(0 1 1 0 176.183 49.741)"/>
    </clipPath>
    <clipPath id="h">
      <path fill="#fff" d="M0 0h37.481v29.764H0z" transform="rotate(-90 262.248 252.646)"/>
    </clipPath>
    <clipPath id="i">
      <path fill="#fff" d="M0 0h37v59H0z" transform="translate(219 336)"/>
    </clipPath>
  </defs>
</svg>
