<svg xmlns="http://www.w3.org/2000/svg" width="180" height="180" fill="none" viewBox="0 0 180 180">
  <g clip-path="url(#a)">
    <path fill="#1D1D1B" fill-rule="evenodd" d="M16.821 144.537c-1.37-.466-2.367-.995-2.974-1.57-.607-.576-.903-1.291-.903-2.131 0-.933.28-1.695.84-2.302.561-.607 1.355-.902 2.383-.902 1.075 0 1.916.358 2.508 1.073.591.715.887 1.649.887 2.8h2.648l.031-.078c.031-1.633-.498-3.017-1.62-4.184-1.12-1.151-2.6-1.726-4.422-1.726-1.776 0-3.209.497-4.33 1.493-1.121.995-1.666 2.286-1.666 3.841 0 1.509.498 2.722 1.495 3.64.996.917 2.445 1.664 4.33 2.24 1.323.451 2.242.979 2.771 1.57.53.591.795 1.369.795 2.302 0 .965-.296 1.742-.873 2.318-.591.575-1.401.855-2.445.855-1.152 0-2.086-.326-2.787-.98-.701-.653-1.06-1.664-1.06-3.017H9.783l-.031.109c-.047 1.897.592 3.375 1.9 4.417 1.308 1.042 2.85 1.571 4.625 1.571 1.807 0 3.286-.482 4.392-1.431 1.122-.949 1.682-2.24 1.682-3.857 0-1.54-.467-2.8-1.417-3.764-.934-.964-2.305-1.727-4.112-2.287Zm19.623 7.404h-.077l-4.626-16.129h-3.55v19.768h2.74v-7.59l-.264-7.59.077-.015 4.75 15.195h1.823l4.765-15.211.078.016-.25 7.605v7.59h2.742v-19.768h-3.566l-4.642 16.129Zm18.035-3.546 2.492-8.632h.078l2.476 8.632h-5.046Zm1.2-12.583-6.09 19.768h2.803l1.448-4.992h6.308l1.448 4.992H64.4l-6.043-19.768h-2.679Zm22.129 8.243c-.529.607-1.354.902-2.476.902h-3.27v-7.03h3.395c1.059 0 1.838.311 2.352.934.513.622.778 1.508.778 2.628.031 1.12-.249 1.975-.779 2.566Zm3.598 8.306v-1.727c0-1.182-.218-2.162-.654-2.97-.436-.809-1.152-1.369-2.15-1.711.904-.436 1.59-1.042 2.056-1.804.483-.762.717-1.665.717-2.707 0-1.804-.514-3.204-1.542-4.168s-2.476-1.446-4.345-1.446h-6.167v19.768h2.756v-8.508h3.738c.872 0 1.573.327 2.071.965.499.637.748 1.508.748 2.628v1.664c0 .669.047 1.307.124 1.913.078.607.28 1.058.592 1.353h2.85v-.311c-.296-.295-.514-.715-.638-1.228a8.642 8.642 0 0 1-.156-1.711Zm4.423-14.434h5.061v17.653h2.757v-17.653h5.092v-2.115H85.83v2.115Zm38.7 11.65h-2.631c0 1.462-.281 2.519-.841 3.188-.561.669-1.418 1.011-2.57 1.011-1.153 0-2.056-.451-2.694-1.369-.639-.917-.966-2.224-.966-3.95v-5.522c0-1.695.312-3.001.934-3.903.623-.918 1.511-1.369 2.632-1.369 1.184 0 2.056.342 2.632 1.026.577.685.857 1.742.857 3.173h2.647l.047-.078c.031-2.021-.498-3.561-1.588-4.634-1.09-1.074-2.601-1.602-4.563-1.602-1.916 0-3.442.653-4.595 1.975-1.152 1.306-1.713 3.142-1.713 5.475v5.49c0 2.333.576 4.153 1.744 5.459 1.168 1.307 2.71 1.96 4.657 1.96 1.916 0 3.411-.545 4.485-1.633 1.075-1.089 1.604-2.613 1.573-4.573l-.047-.124Z" clip-rule="evenodd"/>
    <path fill="#1D1D1B" d="M133.204 135.812h-2.741v19.768h2.741v-19.768Z"/>
    <path fill="#1D1D1B" fill-rule="evenodd" d="M138.593 137.927h5.061v17.653h2.757v-17.653h5.092v-2.115h-12.91v2.115Zm25.136 17.653v-7.108l5.809-12.66h-3.053l-4.049 9.596h-.078l-4.049-9.596h-3.083l5.746 12.474v7.294h2.757Zm-145.023 9.301c-.016-.093-.047-.155-.094-.186-.046-.047-.093-.063-.17-.063-.094 0-.266.031-.515.109-.265.062-.39.109-.42.109l-.031.016c.093.388.17 1.088.233 2.115a78.01 78.01 0 0 1 .125 3.95l-4.47-6.096a.466.466 0 0 0-.202-.14c-.078-.032-.172-.032-.296-.032-.187 0-.358.016-.53.032-.171.015-.327.046-.483.062-.14.031-.28.062-.373.078a1.424 1.424 0 0 0-.25.093v.451h1.106c0 .373 0 .762.016 1.166.015.405.015.84.015 1.322 0 .623 0 1.151-.015 1.602a86.16 86.16 0 0 1-.047 1.151 8.986 8.986 0 0 1-.187 1.416c-.015.046-.015.109-.031.155 0 .047-.015.094-.015.14a.52.52 0 0 0 .109.342c.077.078.186.14.342.171l.7.125a2.01 2.01 0 0 0 .079-.436c.015-.155.03-.373.062-.653.016-.28.031-.622.031-1.057 0-.452-.015-1.011-.046-1.696a80.767 80.767 0 0 0-.14-2.286l4.267 5.895a.452.452 0 0 0 .155.14c.047.031.14.046.25.046h.529c.016-.311.047-.653.078-1.042s.047-.793.078-1.229c.015-.435.046-.871.062-1.306.016-.451.047-.887.062-1.307.016-.419.031-.824.031-1.213.016-.389.016-.715.016-1.011v-.528c0-.187 0-.312-.031-.405Zm19.498-.124a.357.357 0 0 0-.187-.094c-.077-.015-.14-.031-.218-.031-.046 0-.109 0-.17.016a.547.547 0 0 0-.172.031c-.063.015-.11.031-.172.047a.297.297 0 0 0-.14.077c0 .047.016.125.047.218.016.093.031.202.062.327.016.14.032.295.047.466.016.187.016.389.016.622v3.22c0 .202-.016.404-.047.607a4.261 4.261 0 0 1-.14.606 2.206 2.206 0 0 1-.265.544c-.109.172-.25.327-.405.452a1.61 1.61 0 0 1-.56.295 2.218 2.218 0 0 1-.748.109c-.28 0-.514-.031-.732-.109a1.929 1.929 0 0 1-.56-.295 1.869 1.869 0 0 1-.406-.452 2.5 2.5 0 0 1-.264-.544 3.68 3.68 0 0 1-.156-.591 3.977 3.977 0 0 1-.047-.606v-4.76a.47.47 0 0 0-.031-.171c-.016-.047-.062-.078-.109-.093a.829.829 0 0 0-.234-.031h-.373c-.187 0-.374.015-.546.031-.17.015-.342.046-.498.062-.156.031-.28.062-.39.078a5.115 5.115 0 0 0-.248.078v.451h1.105v4.323c0 .545.078 1.027.234 1.447.156.42.39.762.685 1.042.296.28.67.498 1.09.638.436.14.92.217 1.48.217a3.68 3.68 0 0 0 1.246-.217 2.932 2.932 0 0 0 1.728-1.68 3.71 3.71 0 0 0 .265-1.431v-4.479a.748.748 0 0 0-.047-.28c-.046-.047-.077-.109-.14-.14Zm17.816 4.65a2.854 2.854 0 0 0-.498-.466 5.737 5.737 0 0 0-.607-.389 5.405 5.405 0 0 0-.685-.327 13.07 13.07 0 0 0-.701-.295 5.789 5.789 0 0 1-.545-.265 3.44 3.44 0 0 1-.467-.311 1.493 1.493 0 0 1-.327-.389.947.947 0 0 1-.125-.466 1.4 1.4 0 0 1 .093-.529.948.948 0 0 1 .265-.373 1.05 1.05 0 0 1 .39-.218c.155-.047.295-.078.467-.078.233 0 .451.031.654.078.202.062.405.124.607.218l.561.28c.171.108.358.202.514.295l.452-.778a.42.42 0 0 0 .062-.217.271.271 0 0 0-.11-.218 1.07 1.07 0 0 0-.295-.171 2.546 2.546 0 0 0-.405-.125 4.737 4.737 0 0 0-.467-.077c-.156-.016-.312-.031-.452-.047s-.265-.016-.374-.016a6.051 6.051 0 0 0-1.495.187 3.33 3.33 0 0 0-.685.264 2.15 2.15 0 0 0-.56.405 1.796 1.796 0 0 0-.39.56c-.093.218-.14.466-.14.746 0 .187.031.374.078.576.062.186.155.389.311.575.156.202.374.389.67.591.28.203.654.389 1.121.576.28.109.545.233.81.373.265.14.498.28.7.451.203.171.375.342.5.544a1.226 1.226 0 0 1 .077 1.151c-.078.156-.187.28-.311.374a1.343 1.343 0 0 1-.436.249 1.344 1.344 0 0 1-.499.077c-.202 0-.42-.046-.654-.155a3.853 3.853 0 0 1-.7-.374 6.674 6.674 0 0 1-.686-.482c-.218-.171-.42-.326-.607-.466l-.577.684c-.062.062-.077.125-.077.218s.046.186.124.28c.078.093.156.155.25.218.435.295.903.497 1.401.622.498.124.997.186 1.48.186a3.42 3.42 0 0 0 1.059-.155c.327-.109.622-.265.872-.451.249-.202.451-.436.591-.731.14-.296.218-.622.218-.996a1.91 1.91 0 0 0-.124-.684 2.44 2.44 0 0 0-.327-.529Zm13.768.42c.062-.249.156-.498.264-.793.11-.28.234-.576.374-.902.14-.311.28-.653.452-.996.156-.357.327-.715.483-1.104h.062l1.37 3.78h-3.005v.015Zm5.295 2.038-2.617-6.657a.81.81 0 0 0-.124-.233c-.047-.063-.078-.109-.14-.14a.544.544 0 0 0-.172-.078c-.062-.016-.155-.016-.249-.016h-.576c-.171.311-.311.607-.452.887-.14.28-.296.591-.483.948-.17.358-.358.747-.545 1.167-.186.404-.373.84-.56 1.275-.187.436-.358.856-.514 1.276-.156.42-.28.808-.39 1.182-.108.373-.17.7-.218.98v.093c0 .218.11.342.343.342.078 0 .171-.015.25-.031l.887-.249a3.172 3.172 0 0 1-.078-.373c-.015-.14-.031-.265-.031-.404 0-.203.016-.405.047-.607.03-.202.078-.404.124-.607h3.473l.857 1.976a.475.475 0 0 0 .202.248.535.535 0 0 0 .28.078c.156 0 .328-.031.514-.109.187-.077.359-.171.53-.28a3.48 3.48 0 0 0 .467-.342c.14-.124.265-.218.358-.311l-.187-.404-.996.389Zm19.358-6.984c-.015-.093-.047-.155-.093-.186-.047-.047-.094-.063-.171-.063-.094 0-.265.031-.515.109-.264.062-.389.109-.42.109l-.031.016c.093.388.171 1.088.234 2.115.062 1.011.109 2.333.124 3.95l-4.47-6.096a.467.467 0 0 0-.202-.14c-.078-.032-.171-.032-.296-.032-.187 0-.358.016-.53.032-.17.015-.326.046-.482.062-.14.031-.28.062-.374.078a1.425 1.425 0 0 0-.25.093v.451h1.107c0 .373 0 .762.015 1.166 0 .405.016.84.016 1.322 0 .623 0 1.151-.016 1.602-.015.451-.031.825-.047 1.151a8.95 8.95 0 0 1-.187 1.416c-.015.046-.015.109-.03.155 0 .047-.016.094-.016.14 0 .156.031.265.109.342.078.078.187.14.342.171l.701.125a3.29 3.29 0 0 0 .094-.436c.015-.155.03-.373.062-.653.016-.28.031-.622.031-1.057 0-.452-.015-1.011-.047-1.696a80.74 80.74 0 0 0-.14-2.286l4.267 5.895a.452.452 0 0 0 .156.14c.047.031.14.046.25.046h.529c.016-.311.047-.653.078-1.042.03-.389.046-.793.078-1.229.015-.435.046-.871.062-1.306.015-.451.031-.887.047-1.307.015-.419.03-.824.03-1.213.016-.389.016-.715.016-1.011v-.528c.016-.187 0-.312-.03-.405Zm19.14-.124c-.015-.063-.015-.109-.031-.14l-.015-.063c-.374.047-.748.094-1.106.109-.358.031-.701.047-1.012.063-.312.015-.592.015-.857.015h-2.305c-.296 0-.576 0-.825-.015-.265 0-.483 0-.685.015a1.11 1.11 0 0 0-.452.125.308.308 0 0 0-.171.279c0 .063 0 .125.015.218l.047.234c.015.077.031.124.031.171a.2.2 0 0 1 .016.077c.109-.015.249-.031.436-.077.187-.032.42-.063.669-.094.265-.031.545-.062.872-.093.312-.031.655-.047 1.013-.047v6.766c0 .109.015.202.046.28a.383.383 0 0 0 .141.171c.062.047.14.078.218.093.078.016.171.031.28.031.062 0 .125 0 .202-.015.078 0 .141-.016.219-.031.077-.016.14-.031.218-.062.062-.032.124-.047.186-.078-.015-.062-.031-.125-.046-.218-.016-.093-.031-.202-.063-.342-.015-.14-.031-.296-.046-.482-.016-.187-.016-.405-.016-.638v-5.444c.218 0 .467.016.779.016.296.016.669.016 1.09.016.156 0 .311 0 .452-.016.14 0 .264-.016.373-.047a.836.836 0 0 0 .265-.109c.062-.046.094-.124.094-.217 0-.078 0-.156-.016-.234.016-.093 0-.155-.016-.217Zm12.148 5.07c.062-.249.155-.498.264-.793.11-.28.234-.576.374-.902.14-.311.281-.653.436-.996.156-.357.327-.715.483-1.104h.062l1.371 3.78h-2.99v.015Zm5.31 2.038-2.616-6.657c-.031-.094-.078-.171-.109-.233a.578.578 0 0 0-.14-.14.497.497 0 0 0-.187-.078c-.062-.016-.156-.016-.249-.016h-.576c-.172.311-.312.607-.452.887s-.296.591-.467.948c-.172.358-.359.747-.545 1.167-.187.404-.374.84-.561 1.275-.187.436-.358.856-.514 1.276-.156.42-.28.808-.389 1.182-.109.373-.172.7-.218.98v.093c0 .218.109.342.342.342.078 0 .172-.015.249-.031l.888-.249a3.3 3.3 0 0 1-.078-.373c-.015-.14-.015-.265-.015-.404 0-.203.015-.405.046-.607.032-.202.078-.404.125-.607h3.473l.857 1.976a.47.47 0 0 0 .202.248.534.534 0 0 0 .28.078c.156 0 .327-.031.514-.109a3.4 3.4 0 0 0 .53-.28c.171-.108.327-.217.467-.342.14-.124.265-.218.358-.311l-.187-.404-1.028.389Zm16.322-3.095c-.249.093-.561.14-.95.14-.171 0-.327 0-.452-.016a8.486 8.486 0 0 1-.327-.047 1.089 1.089 0 0 1-.265-.062v-3.344l.483-.046c.156 0 .312-.016.452-.016.452 0 .81.047 1.074.14.265.093.468.233.608.404.14.171.233.358.265.576.046.218.062.451.062.684 0 .218-.031.436-.078.638a1.247 1.247 0 0 1-.296.544c-.14.171-.342.296-.576.405Zm2.445 3.11-1.651-2.442c.499-.171.872-.451 1.121-.824.265-.373.39-.84.39-1.4 0-.513-.078-.933-.249-1.275-.172-.327-.39-.591-.686-.778a2.874 2.874 0 0 0-.996-.404 6.076 6.076 0 0 0-1.215-.109c-.452 0-.841.016-1.184.031-.342.016-.623.047-.872.062-.249.031-.451.062-.638.094a6.577 6.577 0 0 0-.436.093 1.47 1.47 0 0 0-.281.093c-.078.031-.14.047-.187.062v.498l1.106-.062v6.812c0 .109.016.202.047.28a.376.376 0 0 0 .14.171c.062.047.14.078.218.094.078.015.171.031.28.031.063 0 .141 0 .218-.016.078 0 .156-.015.234-.031a.869.869 0 0 0 .218-.062c.062-.031.14-.047.187-.078a1.985 1.985 0 0 1-.047-.233c-.015-.094-.047-.202-.078-.342a3.775 3.775 0 0 1-.062-.483 7.404 7.404 0 0 1-.031-.637v-1.4c.171.016.327.031.483.031.155 0 .311.016.436.016h.56l1.776 2.846a.844.844 0 0 0 .311.311.832.832 0 0 0 .327.078c.156 0 .327-.047.499-.125.171-.077.327-.186.482-.311.156-.124.296-.249.421-.389s.234-.28.327-.388l-.28-.374-.888.56Zm13.954-2.053c.062-.249.156-.498.265-.793.109-.28.233-.576.374-.902.14-.311.28-.653.436-.996.155-.357.311-.715.482-1.104h.063l1.37 3.78h-2.99v.015Zm6.307 1.649-.996.389-2.617-6.657a.824.824 0 0 0-.124-.233c-.047-.063-.078-.109-.141-.14a.536.536 0 0 0-.171-.078c-.062-.016-.156-.016-.249-.016h-.576c-.172.311-.327.607-.452.887-.14.28-.296.591-.467.948-.171.358-.358.747-.545 1.167-.187.404-.374.84-.561 1.275-.187.436-.358.856-.514 1.276-.155.42-.28.808-.389 1.182-.109.373-.187.7-.218.98v.093c0 .218.109.342.342.342.078 0 .172-.015.25-.031l.887-.249a3.089 3.089 0 0 1-.077-.373c-.016-.14-.016-.265-.016-.404 0-.203.016-.405.047-.607.031-.202.078-.404.124-.607h3.473l.857 1.976a.47.47 0 0 0 .202.248.538.538 0 0 0 .281.078c.155 0 .327-.031.513-.109.187-.077.359-.171.53-.28.171-.108.327-.217.467-.342.14-.124.265-.218.358-.311l-.218-.404Z" clip-rule="evenodd"/>
    <path fill="#BCB9B9" fill-rule="evenodd" d="M91.5 7v.031L91.517 7H91.5Z" clip-rule="evenodd"/>
    <path fill="#E42313" fill-rule="evenodd" d="M133.675 102.979c-.748 0-1.495.078-2.29.249l.872 2.193a8.683 8.683 0 0 1 2.368-.047c1.775.203 3.457.918 4.796 2.1.436.389.857.855 1.215 1.322l2.212-.886a12.848 12.848 0 0 0-1.075-1.385 10.874 10.874 0 0 0-8.098-3.546Zm-.11 5.677 1.028 2.551 2.788-1.104a4.795 4.795 0 0 0-3.816-1.447Z" clip-rule="evenodd"/>
    <path fill="#E42313" fill-rule="evenodd" d="M143.689 100.911c-2.274-1.665-4.813-2.784-7.585-3.282l.047-.016a15.914 15.914 0 0 0-6.821.451l.887 2.209a12.99 12.99 0 0 1 2.243-.358c4.734-.373 9.391 1.711 12.303 5.444.358.451.685.949.981 1.415l2.212-.886a15.972 15.972 0 0 0-4.283-5.071l.016.094Zm-15.543-2.069c-17.801 10.265-49.556 23.143-102.803 29.707 0 0 67.295 3.841 107.693-16.673l-4.89-13.034Z" clip-rule="evenodd"/>
    <path fill="#BCB9B9" fill-rule="evenodd" d="M108.32 49.29V12.132l-3.784 2.037L95.752 7h-.03l2.522 37.499 10.076 4.79ZM91.5 7.031l-5.356 7.123-3.723-2.021v50.625l5.638-2.146 3.442-53.581Z" clip-rule="evenodd"/>
    <path fill="#847F7D" fill-rule="evenodd" d="M94.85 58.03V42.897l3.394 1.602L95.721 7h-4.205l-.015.031-3.442 53.581 6.79-2.582Z" clip-rule="evenodd"/>
    <path fill="#BCB9B9" fill-rule="evenodd" d="m82.421 62.758-21.149 8.057v51.793a327.293 327.293 0 0 0 21.15-5.226V62.758Zm40.726 38.837v-45.26l-14.811-7.046v59.18c5.622-2.301 10.528-4.619 14.811-6.874Z" clip-rule="evenodd"/>
    <path fill="#847F7D" fill-rule="evenodd" d="M102.698 110.709a208.885 208.885 0 0 0 5.622-2.224V49.289L98.244 44.5l4.454 66.21Zm-18.252 6.081 3.613-56.178-5.638 2.146v54.623c.686-.202 1.355-.388 2.025-.591Z" clip-rule="evenodd"/>
    <path fill="#5B5857" fill-rule="evenodd" d="M98.244 44.499 94.85 42.88v15.134l-6.79 2.581-3.613 56.179a248.149 248.149 0 0 0 18.252-6.081l-4.454-66.195Z" clip-rule="evenodd"/>
    <path fill="#767272" fill-rule="evenodd" d="M131.027 96.493c2.274-.637 3.862-.326 6.089.032l-.047.015c2.773.529 5.296 1.664 7.554 3.36l-.031-.094a15.93 15.93 0 0 1 4.236 5.102s2.678-11.198 5.871-22.412c0 0-9.048 5.739-23.672 13.998Z" clip-rule="evenodd"/>
  </g>
  <defs>
    <clipPath id="a">
      <path fill="#fff" d="M0 0h160.503v166H0z" transform="translate(9.749 7)"/>
    </clipPath>
  </defs>
</svg>
