<svg viewBox="0 0 2000 2072" fill="none" xmlns="http://www.w3.org/2000/svg">
<g clip-path="url(#clip0_149_254)">
<path fill-rule="evenodd" clip-rule="evenodd" d="M88.1338 1716.05C71.0564 1710.23 58.6364 1703.63 51.068 1696.45C43.4996 1689.27 39.8124 1680.35 39.8124 1669.87C39.8124 1658.22 43.3055 1648.72 50.2918 1641.15C57.278 1633.58 67.1751 1629.89 79.9832 1629.89C93.3735 1629.89 103.853 1634.35 111.227 1643.28C118.601 1652.21 122.289 1663.85 122.289 1678.21H155.279L155.667 1677.24C156.055 1656.87 149.457 1639.59 135.485 1625.04C121.512 1610.68 103.077 1603.5 80.3713 1603.5C58.2483 1603.5 40.3946 1609.71 26.4222 1622.13C12.4497 1634.55 5.65757 1650.66 5.65757 1670.06C5.65757 1688.89 11.8675 1704.02 24.2875 1715.47C36.7074 1726.92 54.7552 1736.24 78.2367 1743.42C94.7319 1749.04 106.182 1755.64 112.78 1763.02C119.378 1770.39 122.677 1780.09 122.677 1791.74C122.677 1803.77 118.99 1813.47 111.809 1820.65C104.435 1827.83 94.3438 1831.32 81.3416 1831.32C66.9811 1831.32 55.3374 1827.25 46.6046 1819.1C37.8718 1810.95 33.4084 1798.33 33.4084 1781.45H0.417902L0.0297785 1782.81C-0.552407 1806.48 7.40412 1824.92 23.7053 1837.92C40.0065 1850.92 59.2186 1857.52 81.3416 1857.52C103.853 1857.52 122.289 1851.51 136.067 1839.67C150.039 1827.83 157.026 1811.72 157.026 1791.54C157.026 1772.33 151.204 1756.61 139.366 1744.58C127.722 1732.55 110.645 1723.04 88.1338 1716.05Z" fill="#1D1D1B"/>
<path fill-rule="evenodd" clip-rule="evenodd" d="M332.652 1808.42H331.681L274.045 1607.19H229.799V1853.83H263.954V1759.13L260.655 1664.43L261.625 1664.24L320.814 1853.83H343.519L402.902 1664.05L403.872 1664.24L400.767 1759.13V1853.83H434.922V1607.19H390.482L332.652 1808.42Z" fill="#1D1D1B"/>
<path fill-rule="evenodd" clip-rule="evenodd" d="M557.375 1764.18L588.425 1656.48H589.395L620.251 1764.18H557.375ZM572.318 1607.19L496.439 1853.83H531.371L549.418 1791.54H628.013L646.061 1853.83H680.992L605.696 1607.19H572.318Z" fill="#1D1D1B"/>
<path fill-rule="evenodd" clip-rule="evenodd" d="M848.079 1710.04C841.481 1717.61 831.196 1721.29 817.223 1721.29H776.47V1633.58H818.776C831.972 1633.58 841.675 1637.46 848.079 1645.22C854.483 1652.98 857.782 1664.05 857.782 1678.02C858.17 1691.99 854.677 1702.66 848.079 1710.04ZM892.907 1813.66V1792.12C892.907 1777.38 890.19 1765.15 884.757 1755.06C879.323 1744.97 870.396 1737.98 857.976 1733.71C869.232 1728.28 877.77 1720.71 883.592 1711.2C889.608 1701.69 892.519 1690.44 892.519 1677.44C892.519 1654.93 886.115 1637.46 873.307 1625.43C860.499 1613.4 842.451 1607.38 819.164 1607.38H742.315V1854.03H776.664V1747.88H823.239C834.107 1747.88 842.839 1751.95 849.049 1759.91C855.259 1767.87 858.364 1778.73 858.364 1792.71V1813.47C858.364 1821.81 858.947 1829.77 859.917 1837.34C860.887 1844.91 863.41 1850.54 867.291 1854.22H902.805V1850.34C899.117 1846.65 896.4 1841.41 894.848 1835.01C893.49 1828.22 892.907 1821.23 892.907 1813.66Z" fill="#1D1D1B"/>
<path fill-rule="evenodd" clip-rule="evenodd" d="M948.021 1633.58H1011.09V1853.83H1045.44V1633.58H1108.9V1607.19H948.021V1633.58Z" fill="#1D1D1B"/>
<path fill-rule="evenodd" clip-rule="evenodd" d="M1430.26 1778.93H1397.47C1397.47 1797.17 1393.98 1810.37 1386.99 1818.71C1380 1827.05 1369.33 1831.32 1354.97 1831.32C1340.61 1831.32 1329.35 1825.7 1321.4 1814.25C1313.44 1802.8 1309.36 1786.5 1309.36 1764.96V1696.07C1309.36 1674.91 1313.25 1658.61 1321.01 1647.36C1328.77 1635.91 1339.83 1630.28 1353.8 1630.28C1368.55 1630.28 1379.42 1634.55 1386.6 1643.09C1393.78 1651.63 1397.27 1664.82 1397.27 1682.68H1430.26L1430.85 1681.7C1431.24 1656.48 1424.64 1637.27 1411.05 1623.88C1397.47 1610.49 1378.64 1603.89 1354.19 1603.89C1330.32 1603.89 1311.3 1612.04 1296.94 1628.53C1282.58 1644.83 1275.6 1667.73 1275.6 1696.84V1765.34C1275.6 1794.45 1282.78 1817.16 1297.33 1833.46C1311.89 1849.76 1331.1 1857.91 1355.36 1857.91C1379.23 1857.91 1397.86 1851.12 1411.25 1837.53C1424.64 1823.95 1431.24 1804.93 1430.85 1780.48L1430.26 1778.93Z" fill="#1D1D1B"/>
<path d="M1538.36 1607.19H1504.2V1853.83H1538.36V1607.19Z" fill="#1D1D1B"/>
<path fill-rule="evenodd" clip-rule="evenodd" d="M1605.5 1633.58H1668.57V1853.83H1702.92V1633.58H1766.38V1607.19H1605.5V1633.58Z" fill="#1D1D1B"/>
<path fill-rule="evenodd" clip-rule="evenodd" d="M1918.72 1853.83V1765.15L1991.1 1607.19H1953.07L1902.61 1726.92H1901.64L1851.18 1607.19H1812.76L1884.37 1762.82V1853.83H1918.72Z" fill="#1D1D1B"/>
<path fill-rule="evenodd" clip-rule="evenodd" d="M111.615 1969.88C111.421 1968.72 111.033 1967.94 110.451 1967.55C109.868 1966.97 109.286 1966.78 108.316 1966.78C107.152 1966.78 105.017 1967.16 101.912 1968.13C98.6128 1968.91 97.0603 1969.49 96.6722 1969.49L96.2841 1969.69C97.4484 1974.54 98.4188 1983.27 99.195 1996.08C99.9713 2008.69 100.553 2025.19 100.748 2045.37L45.0518 1969.3C44.4696 1968.52 43.4993 1967.94 42.529 1967.55C41.5587 1967.16 40.3943 1967.16 38.8418 1967.16C36.5131 1967.16 34.3784 1967.36 32.2437 1967.55C30.109 1967.75 28.1684 1968.13 26.2278 1968.33C24.4812 1968.72 22.7347 1969.1 21.5703 1969.3C20.2119 1969.69 19.2416 1970.07 18.4653 1970.46V1976.09H32.2437C32.2437 1980.75 32.2437 1985.6 32.4378 1990.65C32.6318 1995.69 32.6318 2001.12 32.6318 2007.14C32.6318 2014.9 32.6318 2021.5 32.4378 2027.13C32.2437 2032.76 32.0497 2037.41 31.8556 2041.49C31.6615 2045.37 31.2734 2048.86 30.8853 2051.58C30.4972 2054.3 30.109 2056.82 29.5268 2059.15C29.3328 2059.73 29.3328 2060.51 29.1387 2061.09C29.1387 2061.67 28.9447 2062.25 28.9447 2062.83C28.9447 2064.78 29.5269 2066.13 30.3031 2067.1C31.2734 2068.07 32.6318 2068.85 34.5725 2069.24L43.3052 2070.79C43.6934 2069.63 44.0815 2067.69 44.2755 2065.36C44.4696 2063.42 44.6637 2060.7 45.0518 2057.21C45.2459 2053.71 45.4399 2049.44 45.4399 2044.01C45.4399 2038.38 45.2459 2031.4 44.8577 2022.86C44.4696 2014.32 43.8874 2004.81 43.1112 1994.33L96.2841 2067.88C96.8663 2068.66 97.4484 2069.24 98.2247 2069.63C98.8069 2070.01 99.9713 2070.21 101.33 2070.21H107.928C108.122 2066.33 108.51 2062.06 108.898 2057.21C109.286 2052.36 109.48 2047.31 109.868 2041.88C110.062 2036.44 110.451 2031.01 110.645 2025.58C110.839 2019.95 111.227 2014.51 111.421 2009.27C111.615 2004.04 111.809 1998.99 111.809 1994.14C112.003 1989.29 112.003 1985.21 112.003 1981.52C112.003 1979 112.003 1976.67 112.003 1974.93C112.003 1972.6 112.003 1971.05 111.615 1969.88Z" fill="#1D1D1B"/>
<path fill-rule="evenodd" clip-rule="evenodd" d="M354.581 1968.33C353.999 1967.75 353.222 1967.36 352.252 1967.16C351.282 1966.97 350.505 1966.78 349.535 1966.78C348.953 1966.78 348.177 1966.78 347.4 1966.97C346.624 1966.97 345.848 1967.16 345.266 1967.36C344.489 1967.55 343.907 1967.75 343.131 1967.94C342.355 1968.13 341.773 1968.52 341.384 1968.91C341.384 1969.49 341.579 1970.46 341.967 1971.63C342.161 1972.79 342.355 1974.15 342.743 1975.7C342.937 1977.45 343.131 1979.39 343.325 1981.52C343.519 1983.85 343.519 1986.38 343.519 1989.29V2029.46C343.519 2031.98 343.325 2034.5 342.937 2037.02C342.549 2039.55 341.967 2042.07 341.19 2044.59C340.414 2047.12 339.25 2049.25 337.891 2051.39C336.533 2053.52 334.786 2055.46 332.846 2057.01C330.905 2058.57 328.576 2059.92 325.86 2060.7C323.143 2061.67 320.038 2062.06 316.545 2062.06C313.051 2062.06 310.141 2061.67 307.424 2060.7C304.707 2059.73 302.378 2058.57 300.437 2057.01C298.497 2055.46 296.75 2053.52 295.392 2051.39C294.033 2049.25 292.869 2046.92 292.093 2044.59C291.317 2042.26 290.54 2039.74 290.152 2037.22C289.764 2034.7 289.57 2032.17 289.57 2029.65V1970.27C289.57 1969.3 289.376 1968.72 289.182 1968.13C288.988 1967.55 288.406 1967.16 287.823 1966.97C287.047 1966.78 286.271 1966.58 284.913 1966.58C283.748 1966.58 282.196 1966.58 280.255 1966.58C277.926 1966.58 275.598 1966.78 273.463 1966.97C271.328 1967.16 269.194 1967.55 267.253 1967.75C265.312 1968.13 263.76 1968.52 262.401 1968.72C261.043 1969.1 259.879 1969.49 259.296 1969.69V1975.31H273.075V2029.26C273.075 2036.05 274.045 2042.07 275.986 2047.31C277.926 2052.55 280.837 2056.82 284.524 2060.31C288.212 2063.8 292.869 2066.52 298.109 2068.27C303.542 2070.01 309.558 2070.98 316.545 2070.98C321.978 2070.98 327.218 2070.01 332.07 2068.27C336.921 2066.52 341.19 2063.8 344.878 2060.31C348.565 2056.82 351.476 2052.55 353.61 2047.31C355.745 2042.07 356.909 2036.25 356.909 2029.46V1973.57C356.909 1972.21 356.715 1971.05 356.327 1970.07C355.745 1969.49 355.357 1968.72 354.581 1968.33Z" fill="#1D1D1B"/>
<path fill-rule="evenodd" clip-rule="evenodd" d="M576.587 2026.35C574.84 2024.22 572.706 2022.28 570.377 2020.53C568.048 2018.78 565.525 2017.23 562.809 2015.68C560.092 2014.13 557.181 2012.77 554.27 2011.6C551.359 2010.24 548.448 2009.08 545.537 2007.92C543.208 2006.95 540.88 2005.78 538.745 2004.62C536.61 2003.45 534.67 2002.09 532.923 2000.74C531.177 1999.18 529.818 1997.63 528.848 1995.88C527.877 1994.14 527.295 1992.2 527.295 1990.06C527.295 1987.54 527.683 1985.41 528.46 1983.46C529.236 1981.52 530.4 1979.97 531.759 1978.81C533.117 1977.64 534.67 1976.67 536.61 1976.09C538.551 1975.51 540.297 1975.12 542.432 1975.12C545.343 1975.12 548.06 1975.51 550.583 1976.09C553.105 1976.87 555.628 1977.64 558.151 1978.81C560.48 1979.97 562.809 1981.14 565.137 1982.3C567.272 1983.66 569.601 1984.82 571.541 1985.99L577.169 1976.28C577.751 1975.31 577.945 1974.34 577.945 1973.57C577.945 1972.6 577.557 1971.63 576.587 1970.85C575.617 1970.07 574.452 1969.3 572.9 1968.72C571.347 1968.13 569.795 1967.55 567.854 1967.16C565.914 1966.78 563.973 1966.39 562.032 1966.19C560.092 1966 558.151 1965.81 556.405 1965.61C554.658 1965.42 553.105 1965.42 551.747 1965.42C548.642 1965.42 545.537 1965.61 542.432 1966C539.327 1966.39 536.222 1966.97 533.117 1967.75C530.012 1968.52 527.295 1969.69 524.578 1971.05C521.862 1972.4 519.533 1974.15 517.592 1976.09C515.652 1978.03 513.905 1980.36 512.741 1983.08C511.576 1985.79 510.994 1988.9 510.994 1992.39C510.994 1994.72 511.382 1997.05 511.964 1999.57C512.741 2001.9 513.905 2004.42 515.846 2006.75C517.786 2009.27 520.503 2011.6 524.19 2014.13C527.683 2016.65 532.341 2018.98 538.163 2021.31C541.656 2022.66 544.955 2024.22 548.254 2025.96C551.553 2027.71 554.464 2029.46 556.987 2031.59C559.51 2033.73 561.644 2035.86 563.197 2038.38C564.749 2040.91 565.525 2043.62 565.525 2046.53C565.525 2048.86 564.943 2051 564.167 2052.74C563.197 2054.68 561.838 2056.24 560.286 2057.4C558.733 2058.76 556.987 2059.73 554.852 2060.51C552.911 2061.28 550.777 2061.48 548.642 2061.48C546.119 2061.48 543.402 2060.89 540.491 2059.54C537.581 2058.37 534.67 2056.82 531.759 2054.88C528.848 2053.13 525.937 2051 523.22 2048.86C520.503 2046.73 517.98 2044.79 515.652 2043.04L508.471 2051.58C507.695 2052.36 507.501 2053.13 507.501 2054.3C507.501 2055.46 508.083 2056.62 509.053 2057.79C510.024 2058.95 510.994 2059.73 512.158 2060.51C517.592 2064.19 523.414 2066.72 529.624 2068.27C535.834 2069.82 542.044 2070.6 548.06 2070.6C552.717 2070.6 556.987 2070.01 561.256 2068.66C565.331 2067.3 569.019 2065.36 572.123 2063.03C575.228 2060.51 577.751 2057.6 579.498 2053.91C581.244 2050.22 582.215 2046.15 582.215 2041.49C582.215 2038.38 581.633 2035.47 580.662 2032.95C579.692 2030.81 578.333 2028.49 576.587 2026.35Z" fill="#1D1D1B"/>
<path fill-rule="evenodd" clip-rule="evenodd" d="M748.137 2031.59C748.914 2028.49 750.078 2025.38 751.436 2021.69C752.795 2018.2 754.347 2014.51 756.094 2010.44C757.84 2006.56 759.587 2002.29 761.722 1998.02C763.662 1993.56 765.797 1989.09 767.738 1984.24H768.514L785.591 2031.4H748.137V2031.59ZM814.118 2057.01L781.516 1973.96C781.128 1972.79 780.546 1971.82 779.963 1971.05C779.381 1970.27 778.993 1969.69 778.217 1969.3C777.635 1968.91 776.858 1968.52 776.082 1968.33C775.306 1968.13 774.142 1968.13 772.977 1968.13H765.797C763.662 1972.02 761.916 1975.7 760.169 1979.2C758.423 1982.69 756.482 1986.57 754.153 1991.03C752.019 1995.5 749.69 2000.35 747.361 2005.59C745.032 2010.63 742.704 2016.07 740.375 2021.5C738.046 2026.93 735.911 2032.17 733.971 2037.41C732.03 2042.65 730.478 2047.5 729.119 2052.16C727.761 2056.82 726.985 2060.89 726.402 2064.39V2064.97V2065.55C726.402 2068.27 727.761 2069.82 730.672 2069.82C731.642 2069.82 732.806 2069.63 733.777 2069.43L744.838 2066.33C744.45 2064.78 744.062 2063.22 743.868 2061.67C743.674 2059.92 743.48 2058.37 743.48 2056.62C743.48 2054.1 743.674 2051.58 744.062 2049.06C744.45 2046.53 745.032 2044.01 745.614 2041.49H788.89L799.564 2066.13C800.146 2067.69 801.116 2068.66 802.086 2069.24C803.057 2069.82 804.221 2070.21 805.58 2070.21C807.52 2070.21 809.655 2069.82 811.984 2068.85C814.312 2067.88 816.447 2066.72 818.582 2065.36C820.716 2064 822.657 2062.64 824.403 2061.09C826.15 2059.54 827.703 2058.37 828.867 2057.21L826.538 2052.16L814.118 2057.01Z" fill="#1D1D1B"/>
<path fill-rule="evenodd" clip-rule="evenodd" d="M1055.34 1969.88C1055.14 1968.72 1054.75 1967.94 1054.17 1967.55C1053.59 1966.97 1053.01 1966.78 1052.04 1966.78C1050.87 1966.78 1048.74 1967.16 1045.63 1968.13C1042.33 1968.91 1040.78 1969.49 1040.39 1969.49L1040.01 1969.69C1041.17 1974.54 1042.14 1983.27 1042.92 1996.08C1043.69 2008.69 1044.28 2025.19 1044.47 2045.37L988.774 1969.3C988.192 1968.52 987.222 1967.94 986.251 1967.55C985.281 1967.16 984.116 1967.16 982.564 1967.16C980.235 1967.16 978.101 1967.36 975.966 1967.55C973.831 1967.75 971.891 1968.13 969.95 1968.33C968.203 1968.72 966.457 1969.1 965.292 1969.3C963.934 1969.69 962.964 1970.07 962.188 1970.46V1976.09H975.966C975.966 1980.75 975.966 1985.6 976.16 1990.65C976.16 1995.69 976.354 2001.12 976.354 2007.14C976.354 2014.9 976.354 2021.5 976.16 2027.13C975.966 2032.76 975.772 2037.41 975.578 2041.49C975.384 2045.37 974.996 2048.86 974.607 2051.58C974.219 2054.3 973.831 2056.82 973.249 2059.15C973.055 2059.73 973.055 2060.51 972.861 2061.09C972.861 2061.67 972.667 2062.25 972.667 2062.83C972.667 2064.78 973.055 2066.13 974.025 2067.1C974.996 2068.07 976.354 2068.85 978.295 2069.24L987.027 2070.79C987.416 2069.63 987.804 2067.69 988.192 2065.36C988.386 2063.42 988.58 2060.7 988.968 2057.21C989.162 2053.71 989.356 2049.44 989.356 2044.01C989.356 2038.38 989.162 2031.4 988.774 2022.86C988.386 2014.32 987.804 2004.81 987.027 1994.33L1040.2 2067.88C1040.78 2068.66 1041.36 2069.24 1042.14 2069.63C1042.72 2070.01 1043.89 2070.21 1045.25 2070.21H1051.84C1052.04 2066.33 1052.43 2062.06 1052.81 2057.21C1053.2 2052.36 1053.4 2047.31 1053.78 2041.88C1053.98 2036.44 1054.37 2031.01 1054.56 2025.58C1054.76 2019.95 1054.95 2014.51 1055.14 2009.27C1055.34 2004.04 1055.53 1998.99 1055.53 1994.14C1055.73 1989.29 1055.73 1985.21 1055.73 1981.52C1055.73 1979 1055.73 1976.67 1055.73 1974.93C1055.92 1972.6 1055.73 1971.05 1055.34 1969.88Z" fill="#1D1D1B"/>
<path fill-rule="evenodd" clip-rule="evenodd" d="M1293.84 1968.33C1293.65 1967.55 1293.65 1966.97 1293.45 1966.58L1293.26 1965.81C1288.6 1966.39 1283.94 1966.97 1279.48 1967.16C1275.02 1967.55 1270.75 1967.75 1266.86 1967.94C1262.98 1968.13 1259.49 1968.13 1256.19 1968.13C1253.09 1968.13 1250.37 1968.13 1248.23 1968.13H1227.47C1223.78 1968.13 1220.29 1968.13 1217.19 1967.94C1213.89 1967.94 1211.17 1967.94 1208.65 1968.13C1206.32 1968.33 1204.38 1968.91 1203.02 1969.69C1201.66 1970.46 1200.88 1971.63 1200.88 1973.18C1200.88 1973.96 1200.88 1974.73 1201.08 1975.9C1201.27 1976.87 1201.47 1977.84 1201.66 1978.81C1201.85 1979.78 1202.05 1980.36 1202.05 1980.94C1202.24 1981.52 1202.24 1981.72 1202.24 1981.91C1203.6 1981.72 1205.35 1981.52 1207.68 1980.94C1210 1980.55 1212.92 1980.17 1216.02 1979.78C1219.32 1979.39 1222.81 1979 1226.89 1978.61C1230.77 1978.23 1235.04 1978.03 1239.5 1978.03V2062.45C1239.5 2063.81 1239.7 2064.97 1240.08 2065.94C1240.47 2066.91 1241.05 2067.49 1241.83 2068.07C1242.61 2068.66 1243.58 2069.04 1244.55 2069.24C1245.52 2069.43 1246.68 2069.63 1248.04 2069.63C1248.82 2069.63 1249.59 2069.63 1250.56 2069.43C1251.53 2069.43 1252.31 2069.24 1253.28 2069.04C1254.25 2068.85 1255.03 2068.66 1256 2068.27C1256.77 2067.88 1257.55 2067.69 1258.33 2067.3C1258.13 2066.52 1257.94 2065.75 1257.74 2064.58C1257.55 2063.42 1257.36 2062.06 1256.97 2060.31C1256.77 2058.57 1256.58 2056.62 1256.39 2054.3C1256.19 2051.97 1256.19 2049.25 1256.19 2046.34V1978.42C1258.91 1978.42 1262.01 1978.61 1265.89 1978.61C1269.58 1978.81 1274.24 1978.81 1279.48 1978.81C1281.42 1978.81 1283.36 1978.81 1285.11 1978.61C1286.85 1978.61 1288.41 1978.42 1289.76 1978.03C1291.12 1977.64 1292.29 1977.26 1293.06 1976.67C1293.84 1976.09 1294.23 1975.12 1294.23 1973.96C1294.23 1972.99 1294.23 1972.02 1294.03 1971.05C1294.23 1969.88 1294.03 1969.1 1293.84 1968.33Z" fill="#1D1D1B"/>
<path fill-rule="evenodd" clip-rule="evenodd" d="M1445.21 2031.59C1445.98 2028.49 1447.15 2025.38 1448.51 2021.69C1449.86 2018.2 1451.42 2014.51 1453.16 2010.44C1454.91 2006.56 1456.66 2002.29 1458.6 1998.02C1460.54 1993.56 1462.67 1989.09 1464.61 1984.24H1465.39L1482.47 2031.4H1445.21V2031.59ZM1511.38 2057.01L1478.78 1973.96C1478.39 1972.79 1477.81 1971.82 1477.42 1971.05C1476.84 1970.27 1476.26 1969.69 1475.67 1969.3C1475.09 1968.91 1474.32 1968.52 1473.35 1968.33C1472.57 1968.13 1471.41 1968.13 1470.24 1968.13H1463.06C1460.93 1972.02 1459.18 1975.7 1457.43 1979.2C1455.69 1982.69 1453.75 1986.57 1451.61 1991.03C1449.48 1995.5 1447.15 2000.35 1444.82 2005.59C1442.49 2010.63 1440.16 2016.07 1437.83 2021.5C1435.5 2026.93 1433.37 2032.17 1431.43 2037.41C1429.49 2042.65 1427.94 2047.5 1426.58 2052.16C1425.22 2056.82 1424.44 2060.89 1423.86 2064.39V2064.97V2065.55C1423.86 2068.27 1425.22 2069.82 1428.13 2069.82C1429.1 2069.82 1430.26 2069.63 1431.23 2069.43L1442.3 2066.33C1441.91 2064.78 1441.52 2063.22 1441.33 2061.67C1441.13 2059.92 1441.13 2058.37 1441.13 2056.62C1441.13 2054.1 1441.33 2051.58 1441.71 2049.06C1442.1 2046.53 1442.68 2044.01 1443.27 2041.49H1486.54L1497.22 2066.13C1497.8 2067.69 1498.77 2068.66 1499.74 2069.24C1500.71 2069.82 1501.87 2070.21 1503.23 2070.21C1505.17 2070.21 1507.31 2069.82 1509.64 2068.85C1511.96 2067.88 1514.1 2066.72 1516.23 2065.36C1518.37 2064 1520.31 2062.64 1522.06 2061.09C1523.8 2059.54 1525.35 2058.37 1526.52 2057.21L1524.19 2052.16L1511.38 2057.01Z" fill="#1D1D1B"/>
<path fill-rule="evenodd" clip-rule="evenodd" d="M1714.76 2018.4C1711.65 2019.56 1707.77 2020.14 1702.92 2020.14C1700.79 2020.14 1698.85 2020.14 1697.29 2019.95C1695.74 2019.75 1694.38 2019.56 1693.22 2019.37C1691.86 2019.17 1690.89 2018.98 1689.92 2018.59V1976.87C1691.86 1976.67 1693.99 1976.48 1695.93 1976.28C1697.88 1976.28 1699.82 1976.09 1701.56 1976.09C1707.19 1976.09 1711.65 1976.67 1714.95 1977.84C1718.25 1979 1720.77 1980.75 1722.52 1982.88C1724.27 1985.02 1725.43 1987.35 1725.82 1990.06C1726.4 1992.78 1726.6 1995.69 1726.6 1998.6C1726.6 2001.32 1726.21 2004.04 1725.63 2006.56C1725.04 2009.08 1723.69 2011.41 1721.94 2013.35C1720.19 2015.48 1717.67 2017.04 1714.76 2018.4ZM1745.23 2057.21L1724.66 2026.74C1730.87 2024.61 1735.52 2021.11 1738.63 2016.45C1741.93 2011.8 1743.48 2005.98 1743.48 1998.99C1743.48 1992.59 1742.51 1987.35 1740.37 1983.08C1738.24 1979 1735.52 1975.7 1731.84 1973.37C1728.34 1971.05 1724.07 1969.3 1719.42 1968.33C1714.76 1967.36 1709.52 1966.97 1704.28 1966.97C1698.65 1966.97 1693.8 1967.16 1689.53 1967.36C1685.26 1967.55 1681.77 1967.94 1678.66 1968.13C1675.56 1968.52 1673.04 1968.91 1670.71 1969.3C1668.57 1969.69 1666.83 1970.07 1665.27 1970.46C1663.72 1970.85 1662.56 1971.24 1661.78 1971.63C1660.81 1972.02 1660.03 1972.21 1659.45 1972.4V1978.61L1673.23 1977.84V2062.83C1673.23 2064.19 1673.42 2065.36 1673.81 2066.33C1674.2 2067.3 1674.78 2067.88 1675.56 2068.46C1676.33 2069.04 1677.3 2069.43 1678.28 2069.63C1679.25 2069.82 1680.41 2070.01 1681.77 2070.01C1682.54 2070.01 1683.51 2070.01 1684.49 2069.82C1685.46 2069.82 1686.43 2069.63 1687.4 2069.43C1688.37 2069.24 1689.34 2069.04 1690.11 2068.66C1690.89 2068.27 1691.86 2068.07 1692.44 2067.69C1692.25 2066.91 1692.05 2066.13 1691.86 2064.78C1691.67 2063.61 1691.28 2062.25 1690.89 2060.51C1690.5 2058.76 1690.31 2056.82 1690.11 2054.49C1689.92 2052.16 1689.72 2049.44 1689.72 2046.53V2029.07C1691.86 2029.26 1693.8 2029.46 1695.74 2029.46C1697.68 2029.46 1699.62 2029.65 1701.17 2029.65C1702.92 2029.65 1704.28 2029.65 1705.44 2029.65C1706.61 2029.65 1707.58 2029.65 1708.16 2029.65L1730.28 2065.16C1731.45 2067.1 1732.81 2068.27 1734.16 2069.04C1735.52 2069.63 1736.88 2070.01 1738.24 2070.01C1740.18 2070.01 1742.32 2069.43 1744.45 2068.46C1746.59 2067.49 1748.53 2066.13 1750.47 2064.58C1752.41 2063.03 1754.15 2061.48 1755.71 2059.73C1757.26 2057.98 1758.62 2056.24 1759.78 2054.88L1756.29 2050.22L1745.23 2057.21Z" fill="#1D1D1B"/>
<path fill-rule="evenodd" clip-rule="evenodd" d="M1919.11 2031.59C1919.88 2028.49 1921.05 2025.38 1922.41 2021.69C1923.76 2018.2 1925.32 2014.51 1927.06 2010.44C1928.81 2006.56 1930.56 2002.29 1932.5 1998.02C1934.44 1993.56 1936.38 1989.09 1938.51 1984.24H1939.29L1956.37 2031.4H1919.11V2031.59ZM1997.7 2052.16L1985.28 2057.01L1952.68 1973.96C1952.29 1972.79 1951.71 1971.82 1951.13 1971.05C1950.54 1970.27 1950.16 1969.69 1949.38 1969.3C1948.8 1968.91 1948.02 1968.52 1947.25 1968.33C1946.47 1968.13 1945.3 1968.13 1944.14 1968.13H1936.96C1934.83 1972.02 1932.88 1975.7 1931.33 1979.2C1929.59 1982.69 1927.65 1986.57 1925.51 1991.03C1923.38 1995.5 1921.05 2000.35 1918.72 2005.59C1916.39 2010.63 1914.06 2016.07 1911.73 2021.5C1909.4 2026.93 1907.27 2032.17 1905.33 2037.41C1903.39 2042.65 1901.83 2047.5 1900.48 2052.16C1899.12 2056.82 1898.15 2060.89 1897.76 2064.39V2064.97V2065.55C1897.76 2068.27 1899.12 2069.82 1902.03 2069.82C1903 2069.82 1904.16 2069.63 1905.13 2069.43L1916.2 2066.33C1915.81 2064.78 1915.42 2063.22 1915.23 2061.67C1915.03 2059.92 1915.03 2058.37 1915.03 2056.62C1915.03 2054.1 1915.23 2051.58 1915.61 2049.06C1916 2046.53 1916.58 2044.01 1917.17 2041.49H1960.44L1971.12 2066.13C1971.7 2067.69 1972.67 2068.66 1973.64 2069.24C1974.61 2069.82 1975.77 2070.21 1977.13 2070.21C1979.07 2070.21 1981.21 2069.82 1983.53 2068.85C1985.86 2067.88 1988 2066.72 1990.13 2065.36C1992.27 2064 1994.21 2062.64 1995.95 2061.09C1997.7 2059.54 1999.25 2058.37 2000.42 2057.21L1997.7 2052.16Z" fill="#1D1D1B"/>
<path fill-rule="evenodd" clip-rule="evenodd" d="M1018.7 0V0.388116L1018.89 0H1018.7Z" fill="#BCB9B9"/>
<path fill-rule="evenodd" clip-rule="evenodd" d="M1544.22 1197.53C1534.9 1197.53 1525.59 1198.5 1515.69 1200.64L1526.56 1228C1536.65 1226.45 1546.35 1226.25 1556.05 1227.42C1578.18 1229.94 1599.14 1238.87 1615.83 1253.61C1621.26 1258.46 1626.5 1264.29 1630.96 1270.11L1658.52 1259.05C1654.64 1253.23 1649.98 1247.21 1645.13 1241.78C1619.51 1213.64 1583.03 1197.34 1544.22 1197.53Z" fill="#E42313"/>
<path fill-rule="evenodd" clip-rule="evenodd" d="M1542.86 1268.36L1555.67 1300.19L1590.4 1286.41C1578.37 1273.99 1561.29 1267 1542.86 1268.36Z" fill="#E42313"/>
<path fill-rule="evenodd" clip-rule="evenodd" d="M1669 1171.72C1640.67 1150.96 1609.03 1136.98 1574.49 1130.77L1575.07 1130.58C1547.32 1126.31 1518.41 1128.06 1490.07 1136.21L1501.13 1163.76C1509.67 1161.63 1519.76 1159.88 1529.08 1159.3C1588.07 1154.64 1646.1 1180.65 1682.39 1227.22C1686.85 1232.85 1690.93 1239.06 1694.61 1244.88L1722.17 1233.82C1708.59 1208.59 1690.35 1187.25 1668.8 1170.56L1669 1171.72Z" fill="#E42313"/>
<path fill-rule="evenodd" clip-rule="evenodd" d="M1475.32 1145.91C1253.51 1273.99 857.82 1434.67 194.323 1516.56C194.323 1516.56 1032.86 1564.49 1536.26 1308.53L1475.32 1145.91Z" fill="#E42313"/>
<path fill-rule="evenodd" clip-rule="evenodd" d="M1228.28 527.643V64.0391L1181.13 89.4606L1071.68 0H1071.29L1102.73 467.873L1228.28 527.643Z" fill="#BCB9B9"/>
<path fill-rule="evenodd" clip-rule="evenodd" d="M1018.7 0.388066L951.94 89.2665L905.56 64.039V695.697L975.81 668.917L1018.7 0.388066Z" fill="#BCB9B9"/>
<path fill-rule="evenodd" clip-rule="evenodd" d="M1060.42 636.704V447.885L1102.73 467.873L1071.29 0H1018.89L1018.7 0.388116L975.81 668.917L1060.42 636.704Z" fill="#847F7D"/>
<path fill-rule="evenodd" clip-rule="evenodd" d="M905.559 695.697L642.023 796.219V1442.43C737.502 1422.06 825.024 1400.13 905.559 1377.23V695.697Z" fill="#BCB9B9"/>
<path fill-rule="evenodd" clip-rule="evenodd" d="M1413.03 1180.26V615.551L1228.48 527.643V1266.03C1298.53 1237.31 1359.66 1208.4 1413.03 1180.26Z" fill="#BCB9B9"/>
<path fill-rule="evenodd" clip-rule="evenodd" d="M1158.23 1293.98C1182.49 1284.66 1205.97 1275.54 1228.28 1266.23V527.643L1102.73 467.873L1158.23 1293.98Z" fill="#847F7D"/>
<path fill-rule="evenodd" clip-rule="evenodd" d="M930.788 1369.85L975.81 668.917L905.56 695.697V1377.23C914.098 1374.71 922.443 1372.38 930.788 1369.85Z" fill="#847F7D"/>
<path fill-rule="evenodd" clip-rule="evenodd" d="M1102.73 467.873L1060.42 447.691V636.51L975.81 668.723L930.788 1369.66C1014.43 1345.21 1090.11 1319.59 1158.23 1293.78L1102.73 467.873Z" fill="#5B5857"/>
<path fill-rule="evenodd" clip-rule="evenodd" d="M1511.23 1116.61C1539.56 1108.65 1559.35 1112.53 1587.1 1117L1586.52 1117.19C1621.07 1123.79 1652.5 1137.96 1680.64 1159.11L1680.25 1157.94C1701.6 1174.83 1719.84 1196.37 1733.04 1221.59C1733.04 1221.59 1766.42 1081.87 1806.2 941.957C1806.2 941.957 1693.45 1013.56 1511.23 1116.61Z" fill="#767272"/>
</g>
<defs>
<clipPath id="clip0_149_254">
<rect width="2000" height="2071.18" fill="white"/>
</clipPath>
</defs>
</svg>
