<svg xmlns="http://www.w3.org/2000/svg" fill="none" viewBox="0 0 430 183">
  <g class="TV-Guide 1" clip-path="url(#a)">
    <g class="TV">
      <g class="TV-Frame">
        <g class="Light" filter="url(#b)">
          <path fill="url(#c)" d="M238.877 151.177c0 8.291-10.698 15.012-23.895 15.012-13.196 0-23.894-6.721-23.894-15.012s10.698-15.012 23.894-15.012c13.197 0 23.895 6.721 23.895 15.012Z"/>
        </g>
        <path fill="#3C3737" stroke="#000" stroke-width="62.22" d="M101.11 31.093h227.745v100.821H101.11z" class="Frame"/>
      </g>
      <g class="TV-Content">
        <path fill="#CEC1C1" d="M76 157V6h278v151z" class="Rectangle 16"/>
        <g class="Frame 13">
          <path stroke="#5CA4E6" stroke-miterlimit="10" d="M243.642 38.04h2.683" class="Vector"/>
          <path fill="url(#d)" d="M292.758 24h-154.58A8.178 8.178 0 0 0 130 32.178v99.616a8.178 8.178 0 0 0 8.178 8.179h154.58a8.18 8.18 0 0 0 8.179-8.179V32.178A8.179 8.179 0 0 0 292.758 24Z" class="Vector"/>
          <path fill="#610C0C" d="M276.192 36.639H147.647c-4.82 0-8.728.961-8.728 2.147V98.49c0 1.186 3.908 2.148 8.728 2.148h128.545c4.82 0 8.727-.962 8.727-2.148V38.786c0-1.186-3.907-2.147-8.727-2.147Z" class="Vector"/>
          <path fill="#fff" d="M211.809 81.418c7.119 0 12.89-5.771 12.89-12.89 0-7.118-5.771-12.89-12.89-12.89-7.119 0-12.89 5.772-12.89 12.89 0 7.119 5.771 12.89 12.89 12.89Z" class="Vector" opacity=".4"/>
          <path fill="#fff" d="M207.821 64.98v8.18a1.3 1.3 0 0 0 .641 1.125 1.31 1.31 0 0 0 1.293.022l7.478-4.09a1.303 1.303 0 0 0 0-2.292l-7.478-4.092a1.308 1.308 0 0 0-1.934 1.147Z" class="Vector"/>
          <path stroke="#22272E" stroke-linecap="round" stroke-miterlimit="10" stroke-width="16.349" d="M146.919 111.639h56" class="Vector"/>
          <path stroke="#fff" stroke-linecap="round" stroke-miterlimit="10" stroke-width="16.349" d="M146.919 126.639h115" class="Vector" opacity=".4"/>
        </g>
        <g class="Group">
          <g class="Group">
            <path fill="#F8AB5D" d="m369.637 177.816-47.409 4.249c-1.919.207-3.678-1.113-3.991-3.019l-9.882-51.654a2.926 2.926 0 0 1 2.757-3.424l48.071-.116c1.834.018 3.369 1.254 3.671 3.054l9.316 47.402c.302 1.801-.828 3.324-2.533 3.508Z" class="Vector"/>
            <path fill="#FFE779" d="m372.101 176.688-47.409 4.25c-1.919.207-3.678-1.113-3.991-3.02l-9.882-51.653a2.925 2.925 0 0 1 2.757-3.424l48.071-.116c1.834.018 3.369 1.254 3.671 3.054l9.316 47.402c.302 1.8-.934 3.335-2.533 3.507Z" class="Vector"/>
            <g class="Group">
              <g class="Group">
                <path stroke="#63737A" stroke-linecap="round" stroke-linejoin="round" stroke-miterlimit="10" stroke-width="1.8" d="m332.207 130.641 25.297-.356m-24.32 5.427 25.274-.569" class="Vector"/>
              </g>
              <g class="Group">
                <path stroke="#63737A" stroke-linecap="round" stroke-linejoin="round" stroke-miterlimit="10" stroke-width="1.8" d="m335.408 147.331 25.334-1.007m-24.369 5.97 25.205-1.208" class="Vector"/>
              </g>
              <g class="Group">
                <path stroke="#63737A" stroke-linecap="round" stroke-linejoin="round" stroke-miterlimit="10" stroke-width="1.8" d="m338.715 164.009 25.159-1.634m-24.192 6.596 25.136-1.848" class="Vector"/>
              </g>
            </g>
          </g>
          <path stroke="#610C0C" stroke-linecap="round" stroke-linejoin="round" stroke-miterlimit="10" stroke-width="1.8" d="m323.885 134.451 1.451 1.461 1.547-2.647m.226 18.088 1.44 1.354 1.654-2.658m.096 17.885 1.546 1.343 1.536-2.753" class="Vector"/>
        </g>
      </g>
    </g>
  </g>
  <defs>
    <radialGradient id="c" cx="0" cy="0" r="1" class="c" gradientTransform="matrix(0 25.6789 -40.8722 0 214.982 136.165)" gradientUnits="userSpaceOnUse">
      <stop offset=".091" stop-color="#B8ECF7"/>
      <stop offset=".513" stop-color="#D1E6EC" stop-opacity=".62"/>
      <stop offset="1" stop-color="#20C8FD" stop-opacity=".01"/>
    </radialGradient>
    <linearGradient id="d" x1="195.68" x2="222.175" y1="-12.9" y2="271.834" class="d" gradientUnits="userSpaceOnUse">
      <stop stop-color="#fff"/>
      <stop offset="1" stop-color="#FFE779"/>
    </linearGradient>
    <clipPath id="a" class="a">
      <path fill="#fff" d="M0 0h430v183H0z"/>
    </clipPath>
    <filter id="b" width="669.986" height="652.221" x="-120.01" y="-39.295" class="b" color-interpolation-filters="sRGB" filterUnits="userSpaceOnUse">
      <feFlood flood-opacity="0" result="BackgroundImageFix"/>
      <feColorMatrix in="SourceAlpha" result="hardAlpha" values="0 0 0 0 0 0 0 0 0 0 0 0 0 0 0 0 0 0 127 0"/>
      <feOffset dy="135.639"/>
      <feGaussianBlur stdDeviation="155.549"/>
      <feColorMatrix values="0 0 0 0 0.446285 0 0 0 0 0.825511 0 0 0 0 0.937049 0 0 0 1 0"/>
      <feBlend in2="BackgroundImageFix" result="effect1_dropShadow_438_1727"/>
      <feBlend in="SourceGraphic" in2="effect1_dropShadow_438_1727" result="shape"/>
    </filter>
  </defs>
</svg>
