<svg xmlns="http://www.w3.org/2000/svg" fill="none" viewBox="0 0 373 328">
  <path fill="#F0F3F9" d="M362.466 196.884a54.395 54.395 0 0 1-16.3 59.597 54.169 54.169 0 0 1-33.285 12.733c-.561 0-1.126.023-1.687.023H275.5a10.684 10.684 0 0 0-3.95.747 10.783 10.783 0 0 0-6.852 10.043v25.067a15.182 15.182 0 0 1-15.17 15.197H84.321v-40.264c0-5.953-4.821-10.781-10.774-10.79H52.34a52.269 52.269 0 0 1-52.29-52.29v-4.111a54.306 54.306 0 0 1 2.259-15.952 44.584 44.584 0 0 1 5.185-11.208 45.766 45.766 0 0 1 7.295-8.689 53.25 53.25 0 0 1 3.503-2.989 55.058 55.058 0 0 1 5.802-3.95c.68-.405 1.36-.8 2.042-1.185a3.85 3.85 0 0 1 .229-.126 72.506 72.506 0 0 1 13.353-5.509l.288-.087a17.207 17.207 0 0 0 5.628-2.899 17.379 17.379 0 0 0 6.706-13.728v-16.979c0-.438 0-.873.035-1.303a24.88 24.88 0 0 1 11.687-19.81 22.304 22.304 0 0 1 2.37-1.3 23.18 23.18 0 0 1 3.34-1.327 24.815 24.815 0 0 1 6.32-1.117h.102c.352 0 .703-.024 1.05-.024.368 0 .735 0 1.095-.032.36-.031.62-.039.92-.075a19.204 19.204 0 0 0 15.268-10.746c.225-.45.423-.908.6-1.374a19.096 19.096 0 0 0 1.304-6.955 19.182 19.182 0 0 0-17.176-19.084 14.233 14.233 0 0 0-.92-.07c-.308-.013-.727-.036-1.094-.036H50.384a32.944 32.944 0 0 1-10.663-1.766 31.88 31.88 0 0 1-4.76-2.061 36.92 36.92 0 0 1-2.116-1.225l-.052-.031a32.381 32.381 0 0 1-4.1-3.053 32.806 32.806 0 0 1-5.276-5.83 32.88 32.88 0 0 1-3.16-5.497 31.252 31.252 0 0 1-1.29-3.38 32.16 32.16 0 0 1-1.276-5.498 32.617 32.617 0 0 1-.304-3.373c0-.438-.028-.88-.028-1.327 0-1.393.088-2.785.26-4.167a32.892 32.892 0 0 1 1.13-5.347 33.681 33.681 0 0 1 1.92-4.933 31.57 31.57 0 0 1 1.812-3.235 32.226 32.226 0 0 1 2.263-3.16c.206-.252.395-.5.624-.75.23-.248.43-.493.656-.73A32.907 32.907 0 0 1 50.135.196h223.773c21.357.002 38.67 17.316 38.673 38.673 0 15.09 12.211 27.397 27.298 27.365a33.033 33.033 0 0 1 .067 66.066h-70.643c-7.797.002-14.119 6.321-14.123 14.119 0 .257 0 .513.024.766.397 7.495 6.594 13.365 14.099 13.357h41.864a54.107 54.107 0 0 1 34.36 12.243 54.772 54.772 0 0 1 11.484 12.903 54.025 54.025 0 0 1 5.455 11.196Z"/>
  <rect width="29.249" height="6.955" x="336.873" y="320.275" fill="#34629B" rx="3.477"/>
  <rect width="319.878" height="6.955" x="14.164" y="320.275" fill="#34629B" rx="3.477"/>
  <path fill="#6E8EC8" d="M209.707.224v173.462a3.292 3.292 0 0 1-3.294 3.297H14.773a53.556 53.556 0 0 1 3.502-2.989 55.078 55.078 0 0 1 5.802-3.95c.68-.405 1.36-.8 2.042-1.185a3.85 3.85 0 0 1 .229-.126 72.509 72.509 0 0 1 13.353-5.509l.288-.087a17.207 17.207 0 0 0 5.628-2.899 17.379 17.379 0 0 0 6.706-13.728v-16.975c0-.438 0-.873.036-1.303a24.88 24.88 0 0 1 11.686-19.81 22.306 22.306 0 0 1 2.37-1.3 23.175 23.175 0 0 1 3.34-1.327 24.814 24.814 0 0 1 6.32-1.117h.102c.352 0 .703-.024 1.051-.024.367 0 .735 0 1.094-.032.36-.031.62-.039.92-.075a19.204 19.204 0 0 0 15.269-10.746c.225-.45.422-.908.6-1.374a19.094 19.094 0 0 0 1.303-6.955 19.182 19.182 0 0 0-17.176-19.084 14.233 14.233 0 0 0-.92-.07c-.308-.013-.727-.036-1.094-.036H50.368a32.945 32.945 0 0 1-10.663-1.766 31.88 31.88 0 0 1-4.76-2.061 36.852 36.852 0 0 1-2.116-1.225l-.051-.031a32.373 32.373 0 0 1-4.1-3.053 32.785 32.785 0 0 1-3.314-3.341 32.34 32.34 0 0 1-1.947-2.489 32.873 32.873 0 0 1-3.16-5.497 31.252 31.252 0 0 1-1.29-3.38 32.16 32.16 0 0 1-1.276-5.498 32.617 32.617 0 0 1-.304-3.373c0-.438-.028-.88-.028-1.327 0-1.393.088-2.785.26-4.167a32.892 32.892 0 0 1 1.13-5.347 33.681 33.681 0 0 1 1.92-4.933 31.55 31.55 0 0 1 1.812-3.235 32.21 32.21 0 0 1 2.263-3.16c.206-.252.395-.5.625-.75.229-.248.43-.493.655-.73A32.906 32.906 0 0 1 50.135.196h159.556l.016.028Z"/>
  <path fill="#E9F1FF" d="M203.297.224v165.685c-.011.111-.029.22-.055.328 0 .083-.036.162-.056.241-.02.079-.051.154-.071.229-.026.07-.056.139-.091.205-.031.079-.071.158-.106.233a2.544 2.544 0 0 1-.17.273 2.32 2.32 0 0 1-.19.253 1.955 1.955 0 0 1-.213.233 2.426 2.426 0 0 1-.229.213c-.087.067-.17.13-.257.189a2.84 2.84 0 0 1-.557.305 3.779 3.779 0 0 1-.624.193 3.246 3.246 0 0 1-.659.067h-173.9a3.85 3.85 0 0 1 .229-.126 72.582 72.582 0 0 1 13.353-5.51l.288-.086a17.207 17.207 0 0 0 5.628-2.899 17.379 17.379 0 0 0 6.706-13.728v-16.987c0-.438 0-.873.036-1.303a24.88 24.88 0 0 1 11.686-19.81 22.306 22.306 0 0 1 2.37-1.3 23.17 23.17 0 0 1 3.34-1.327 24.814 24.814 0 0 1 6.32-1.117h.102c.352 0 .703-.024 1.051-.024.367 0 .735 0 1.094-.032.36-.031.62-.039.92-.075a19.204 19.204 0 0 0 15.269-10.746c.225-.45.422-.908.6-1.374a19.096 19.096 0 0 0 1.303-6.955 19.182 19.182 0 0 0-17.176-19.084 14.233 14.233 0 0 0-.92-.07c-.308-.013-.727-.036-1.094-.036H50.368a32.944 32.944 0 0 1-10.663-1.766 31.885 31.885 0 0 1-4.76-2.061 36.883 36.883 0 0 1-2.116-1.225l-.051-.031a32.795 32.795 0 0 1-7.413-6.394 32.365 32.365 0 0 1-1.948-2.489 32.88 32.88 0 0 1-3.16-5.497 31.252 31.252 0 0 1-1.29-3.38 32.16 32.16 0 0 1-1.276-5.498 32.617 32.617 0 0 1-.304-3.373c0-.438-.028-.88-.028-1.327 0-1.393.088-2.785.26-4.167a32.892 32.892 0 0 1 1.13-5.347 33.681 33.681 0 0 1 1.92-4.933 31.55 31.55 0 0 1 1.812-3.235 32.226 32.226 0 0 1 2.263-3.16c.206-.252.395-.5.625-.75.229-.248.43-.493.655-.73A32.906 32.906 0 0 1 50.135.196h153.162v.028Z"/>
  <path fill="#B3C9EB" d="M203.297 12.345V165.58a3.302 3.302 0 0 1-3.294 3.298H97.149V31.195l.249-.17 3.949-2.67 13.669-9.284h21.899l4.475-2.398 2.046-1.094 1.125-.604 4.74-2.543 11.058-5.924 11.331 2.57V22.72h5.88V.208h9.906l3.092 3.093v9.028l12.729.016Z"/>
  <path fill="#819FCC" d="M178.601 38.86v130.011h21.394a3.298 3.298 0 0 0 3.298-3.298V29.829h-8.164l-16.528 9.032Zm-63.589-19.79h9.415v149.801h-9.415v-149.8Z"/>
  <path fill="#B3C9EB" d="M39.7 11.768v52.728a31.88 31.88 0 0 1-4.758-2.061 36.98 36.98 0 0 1-2.117-1.224l-.051-.032a32.374 32.374 0 0 1-4.1-3.053 32.808 32.808 0 0 1-5.257-5.81 32.885 32.885 0 0 1-3.16-5.497 31.252 31.252 0 0 1-1.29-3.38 32.16 32.16 0 0 1-1.276-5.498 32.618 32.618 0 0 1-.304-3.373c0-.438-.028-.88-.028-1.327 0-1.393.088-2.785.26-4.167a32.89 32.89 0 0 1 1.13-5.347 33.682 33.682 0 0 1 1.92-4.933l8.744-3.235 8.495-3.159 1.793-.632ZM26.348 168.745a72.582 72.582 0 0 1 13.353-5.51v5.636H26.119a3.85 3.85 0 0 1 .229-.126Z"/>
  <path fill="#88A5D2" d="M52.193 37.32v28.942h-1.817a32.948 32.948 0 0 1-10.663-1.766V29.83l12.48 7.492Zm0 111.35v20.201H39.7v-5.636l.288-.087a17.186 17.186 0 0 0 5.628-2.898 17.38 17.38 0 0 0 6.576-11.58Z"/>
  <path fill="#B3C9EB" d="M78.314 25.22v41.073c-.36-.023-.727-.035-1.094-.035H66.407V20.224l9.652 4.052 2.255.944Zm-1.094 79.434c.367 0 .735 0 1.094-.032v64.249H66.407v-61.753a23.18 23.18 0 0 1 3.34-1.327 24.815 24.815 0 0 1 6.32-1.117h.103c.351 0 .703-.024 1.05-.024v.004Z"/>
  <path fill="#819FCC" d="M66.403 20.224v46.038h-8.835V23.296l7.046-2.448 1.789-.624Zm-2.358 88.194a22.304 22.304 0 0 1 2.37-1.3v61.753h-8.843v-54.62a24.937 24.937 0 0 1 6.473-5.833Z"/>
  <path fill="#D1DEF5" d="M168.601 28.347h-31.085v-3.325h31.085v3.325ZM99.688 44.086l13.27-.427V26.685l-13.27 8.926v8.475Zm68.913-4.854h-31.085v-3.325h31.085v3.325Zm0 10.885h-31.085V46.79h31.085v3.326Zm0 10.884h-31.085v-3.325h31.085V61Zm0 10.881h-31.085v-3.326h31.085v3.326Zm0 10.884h-31.085v-3.325h31.085v3.325Zm0 10.889h-31.085v-3.326h31.085v3.326Zm0 10.884h-31.085v-3.325h31.085v3.325Zm0 10.885h-31.085v-3.326h31.085v3.326Zm0 10.88h-31.085v-3.325h31.085v3.325Zm0 10.885h-31.085v-3.325h31.085v3.325Zm0 10.884h-31.085v-3.325h31.085v3.325Zm0 10.885h-31.085v-3.325h31.085v3.325Zm-55.639-83.044h-13.27V49.007h13.27v26.907Zm0 33.1h-13.27V82.107h13.27v26.907Zm0 33.104h-13.27v-26.907h13.27v26.907Zm0 20.683h-13.27v-16.39h13.27v16.39ZM34.938 29.074h-6.22v-3.373h6.22v3.373Zm41.836 4.258H68.12v-9.866l8.653 4.06v5.806Zm-53.353-7.627v3.373H17.62c.142-1.134.344-2.26.604-3.373h5.197Zm11.517 12.24h-6.22v-3.373h6.22v3.373Zm-11.517-3.373v3.373h-5.73a32.622 32.622 0 0 1-.304-3.373h6.034Zm11.517 12.239h-6.22v-3.373h6.22v3.373Zm-11.517-3.373v3.37h-3.16a31.232 31.232 0 0 1-1.294-3.37h4.454Zm11.517 12.243h-6.22V52.31h6.22v3.372Zm.004 5.498v1.256a36.97 36.97 0 0 1-2.117-1.224l-.051-.032h2.168ZM76.77 41.112h-8.653v-4.854h8.653v4.854Zm.004 8.298h-3.18v-4.854h3.18v4.854Zm-5.478 0h-3.18v-4.854h3.18v4.854Zm5.474 9.589h-8.653v-4.854h8.653v4.854Zm-3.18 3.444h3.18v3.819h-3.18v-3.82Zm-5.47 0h3.18v3.819h-3.18v-3.82Zm8.65 49.928h-8.653v-4.854h8.653v4.854Zm.004 8.302h-3.18v-4.854h3.18v4.854Zm-5.478 0h-3.18v-4.854h3.18v4.854Zm5.474 9.443h-8.653v-4.854h8.653v4.854Zm.004 8.301h-3.18v-4.854h3.18v4.854Zm-5.478 0h-3.18v-4.854h3.18v4.854Zm5.474 9.443h-8.653v-4.853h8.653v4.853Zm.004 8.302h-3.18v-4.854h3.18v4.854Zm-5.478 0h-3.18v-4.854h3.18v4.854Z"/>
  <path fill="#fff" d="M203.297 129.353v36.22a3.302 3.302 0 0 1-3.294 3.298l-21.402-30.477-10-14.246-.825-1.185-5.304-7.559-2.334-3.325-5.308-7.544-2.33-3.325-5.304-7.555-2.342-3.33-.293-.418-3.159-4.514-1.841-2.623-2.034-2.902-13.104-18.657-9.407-13.393-2.903-4.135-7.84-11.157-2.938-4.19-8.953-12.757-2.216-3.16L81.6.225h31.046l8.57 12.207 2.208 3.16 2.453 3.491 11.82 16.837 2.33 3.325 1.367 1.947 3.159 4.518.771 1.094 2.338 3.326 5.304 7.559 2.338 3.325 5.304 7.56 2.338 3.325 5.3 7.559.351.493 10.004 14.234 24.696 35.169Zm-9.108 39.518h-14.857l-.731-1.035-13.87-19.762-2.338-3.326-5.308-7.559-2.33-3.325-5.308-7.559-2.338-3.326-2.548-3.629-2.76-3.93-.407-.585-1.923-2.74-15.048-21.426-9.407-13.408-2.054-2.923-13.274-18.901-2.543-3.622-17.91-25.517-3.172-4.518-4.356-6.2-2.208-3.149L60.925.224h14.858l.28.395 3.171 4.514 5.123 7.298 2.211 3.148 10.826 15.427 2.934 4.174 6.098 8.689 3.606 5.138 2.93 4.166 2.054 2.927 9.407 13.404 14.617 20.822 2.338 3.329.016.016 3.167 4.518 2.125 3.021 2.334 3.325 5.308 7.56 2.33 3.325 5.308 7.559 2.338 3.326 14.297 20.371 15.588 22.195Zm-25.655 0h-9.182l-6.955-9.913-2.334-3.325-5.308-7.559-.194-.269-2.14-3.057-1.031-1.461-16.982-24.166-9.392-13.405-2.054-2.926-13.27-18.898-2.543-3.626-17.915-25.513-.92-1.307-2.255-3.21-.577-.826-1.891-2.69-3.95-5.608-1.536-2.188-1.714-2.445-8.835-12.582-5.841-8.318-2.208-3.16-7.772-11.058A32.966 32.966 0 0 1 50.119.224l8.57 12.204 2.208 3.159 3.7 5.268 1.794 2.556 1.714 2.44 5.253 7.504 2.053 2.927.632.9.715 1.011 1.54 2.2.92 1.303 17.915 25.518 2.543 3.625 3.579 5.099 4.344 6.196 5.339 7.607 2.054 2.922 9.408 13.409 13.127 18.617 1.13 1.616 2.745 3.909 2.567 3.65.604.865 1.73 2.46 5.304 7.559 2.334 3.326 5.308 7.559 2.334 3.325 6.951 9.913Z" opacity=".51"/>
  <path fill="#6E8EC8" d="M205.505 12.431v3.16H22.481a32.22 32.22 0 0 1 2.263-3.16h180.761ZM78.314 104.614c.308 0 .62-.039.92-.075v64.332h-3.16v-64.197h.103c.352 0 .703-.024 1.051-.024.36.004.727.004 1.086-.036Z"/>
  <path fill="#6E8EC8" d="M79.234.283v66.085a14.233 14.233 0 0 0-.92-.07c-.308-.012-.727-.036-1.094-.036h-1.16V.236l3.175.047ZM141.39.224h3.171V168.87h-3.171V.224Z"/>
  <path fill="#547DBA" d="M27.928 223.444a61.218 61.218 0 0 1 2.109 1.797 71.887 71.887 0 0 1 6.417 6.414 73.864 73.864 0 0 1 11.454 17.338 73.85 73.85 0 0 1 7.109 31.642v15.589a36.307 36.307 0 0 1-6.32 20.489h24.001a36.26 36.26 0 0 1-6.319-20.489v-15.589a73.884 73.884 0 0 1 18.562-48.972 71.709 71.709 0 0 1 8.487-8.219h-65.5Z"/>
  <path fill="#34629B" d="M27.928 223.444a61.218 61.218 0 0 1 2.109 1.797h6.133a66.814 66.814 0 0 0-2.109-1.797h-6.133Z"/>
  <rect width="38.538" height="3.602" x="79.941" y="320.311" fill="#6E8EC8" rx="1.801" transform="rotate(-180 79.941 320.311)"/>
  <path fill="#547DBA" d="M41.407 318.51a1.8 1.8 0 0 0 1.797 1.801H55.34a1.802 1.802 0 1 1 0-3.598H43.204a1.794 1.794 0 0 0-1.797 1.797Z"/>
  <rect width="82.965" height="7.504" x="102.157" y="225.245" fill="#6E8EC8" rx="3.752" transform="rotate(-180 102.157 225.245)"/>
  <path fill="#547DBA" d="M19.192 221.493a3.748 3.748 0 0 0 3.752 3.748h19.332a3.752 3.752 0 0 1 0-7.504H22.943a3.743 3.743 0 0 0-3.751 3.748v.008Z"/>
  <path fill="#34629B" d="M30.037 225.241c2.272 2 4.416 4.143 6.417 6.414a73.823 73.823 0 0 1 11.454 17.338 73.85 73.85 0 0 1 7.109 31.642v15.589a36.306 36.306 0 0 1-6.32 20.489h6.134a36.307 36.307 0 0 0 6.319-20.489v-15.589a73.85 73.85 0 0 0-7.109-31.642c-.031-.064-.06-.127-.09-.186-3.796-7.958 1.919-17.152 10.734-17.152h20.217a71.742 71.742 0 0 1 6.418-6.414H30.037Z"/>
  <path fill="#547DBA" d="M264.121 223.444a60.84 60.84 0 0 1 2.109 1.797 71.81 71.81 0 0 1 6.418 6.414 73.904 73.904 0 0 1 18.562 48.972v15.589a36.27 36.27 0 0 1-6.342 20.489h24a36.343 36.343 0 0 1-6.339-20.489v-15.581a73.857 73.857 0 0 1 18.563-48.972 72.12 72.12 0 0 1 8.511-8.219h-65.482Z"/>
  <path fill="#34629B" d="M264.121 223.444a60.84 60.84 0 0 1 2.109 1.797h6.134a60.84 60.84 0 0 0-2.109-1.797h-6.134Z"/>
  <rect width="38.538" height="3.602" x="316.139" y="320.311" fill="#6E8EC8" rx="1.801" transform="rotate(-180 316.139 320.311)"/>
  <path fill="#547DBA" d="M277.601 318.51c0 .993.804 1.799 1.797 1.801h12.156a1.802 1.802 0 1 1 0-3.598h-12.156a1.8 1.8 0 0 0-1.797 1.797Z"/>
  <rect width="82.965" height="7.504" x="338.35" y="225.245" fill="#6E8EC8" rx="3.752" transform="rotate(-180 338.35 225.245)"/>
  <path fill="#547DBA" d="M255.385 221.493a3.754 3.754 0 0 0 3.756 3.748h19.329a3.752 3.752 0 0 1 0-7.504h-19.329a3.75 3.75 0 0 0-3.756 3.748v.008Z"/>
  <path fill="#34629B" d="M266.23 225.241c2.273 2 4.416 4.143 6.418 6.414a73.904 73.904 0 0 1 18.562 48.972v15.589a36.27 36.27 0 0 1-6.342 20.489h6.133a36.314 36.314 0 0 0 6.343-20.489v-15.581a73.848 73.848 0 0 0-7.2-31.828c-3.795-7.958 1.92-17.152 10.735-17.152H321.1a72.075 72.075 0 0 1 6.394-6.414H266.23Z"/>
  <path fill="#547DBA" d="M139.439 177.75a97.766 97.766 0 0 1 3.104 2.646 106.838 106.838 0 0 1 9.443 9.435 108.794 108.794 0 0 1 27.318 72.088v22.938a53.43 53.43 0 0 1-9.332 30.158h35.319a53.395 53.395 0 0 1-9.312-30.158v-22.938a108.756 108.756 0 0 1 27.314-72.088 106.792 106.792 0 0 1 9.415-9.435 104.794 104.794 0 0 1 3.104-2.646h-96.373Z"/>
  <path fill="#34629B" d="M139.439 177.75a97.766 97.766 0 0 1 3.104 2.646h9.025a98.782 98.782 0 0 0-3.105-2.646h-9.024Z"/>
  <rect width="56.717" height="5.3" x="215.99" y="320.311" fill="#6E8EC8" rx="2.65" transform="rotate(-180 215.99 320.311)"/>
  <path fill="#547DBA" d="M159.273 317.661a2.65 2.65 0 0 0 2.65 2.65h17.863a2.65 2.65 0 0 1 0-5.296h-17.863a2.65 2.65 0 0 0-2.65 2.646Z"/>
  <rect width="170.954" height="7.903" x="273.106" y="180.399" fill="#6E8EC8" rx="3.951" transform="rotate(-180 273.106 180.399)"/>
  <path fill="#547DBA" d="M102.157 176.446a3.95 3.95 0 0 0 3.949 3.95h46.638a3.95 3.95 0 0 1 0-7.899h-46.638a3.949 3.949 0 0 0-3.949 3.949Z"/>
  <path fill="#34629B" d="M142.543 180.396a106.838 106.838 0 0 1 9.443 9.435 108.792 108.792 0 0 1 27.318 72.088v22.938a53.43 53.43 0 0 1-9.332 30.158h9.024a53.432 53.432 0 0 0 9.333-30.158v-22.938a108.7 108.7 0 0 0-10.47-46.567c-.048-.091-.091-.186-.135-.277-5.584-11.706 2.824-25.244 15.798-25.244h29.755a106.702 106.702 0 0 1 9.431-9.435h-90.165Z"/>
  <path fill="#D7E2FF" d="M151.26 167.303h1.694a1.62 1.62 0 0 1 1.619 1.619v.944h-4.933v-.944a1.62 1.62 0 0 1 1.62-1.619Zm-4.933 0h1.694a1.62 1.62 0 0 1 1.619 1.619v.944h-4.933v-.944a1.62 1.62 0 0 1 1.62-1.619Zm-4.933 0h1.694a1.62 1.62 0 0 1 1.619 1.619v.944h-4.932v-.944a1.62 1.62 0 0 1 1.619-1.619Zm-4.933 0h1.694a1.62 1.62 0 0 1 1.62 1.619v.944h-4.933v-.944a1.619 1.619 0 0 1 1.619-1.619Z"/>
  <path fill="#D7E2FF" d="M131.532 167.303h1.695a1.62 1.62 0 0 1 1.619 1.619v.944h-4.937v-.944a1.62 1.62 0 0 1 1.619-1.619h.004Z"/>
  <path fill="#D7E2FF" d="M126.599 167.303h1.695a1.62 1.62 0 0 1 1.619 1.619v.944h-4.933v-.944c0-.429.171-.841.474-1.145a1.623 1.623 0 0 1 1.145-.474Zm-4.932 0h1.694a1.62 1.62 0 0 1 1.619 1.619v.944h-4.933v-.944a1.62 1.62 0 0 1 1.62-1.619Z"/>
  <rect width="56.291" height="4.02" x="113.491" y="168.48" fill="#FFDD92" rx="2.01"/>
  <path fill="#FDF1D6" d="M154.277 172.497h46.966a4.298 4.298 0 0 0 4.167-3.247l9.154-36.37a4.298 4.298 0 0 0-4.166-5.347h-41.469a4.298 4.298 0 0 0-4.151 3.25l-10.501 41.714Z"/>
  <path fill="#FFDD92" d="m214.564 132.88-9.154 36.37a4.303 4.303 0 0 1-4.167 3.247h-46.966l1.023-4.017h37.124c1.97 0 3.687-1.34 4.167-3.25l9.154-36.37c.109-.433.151-.881.123-1.327h4.526a4.299 4.299 0 0 1 4.17 5.347Z"/>
  <circle cx="79.795" cy="102.636" r="8.412" fill="#F4AD18"/>
  <path fill="#FAEEDE" d="M116.599 157.366c4.412 3.387 5.242 9.71 1.854 14.121-3.387 4.412-9.709 5.242-14.121 1.854l-25.573-19.637c-4.412-3.387-5.242-9.71-1.854-14.121 3.387-4.412 9.71-5.242 14.121-1.854l25.573 19.637Z"/>
  <circle cx="110.446" cy="164.61" r="10.806" fill="#F2E6D7"/>
  <path fill="#FFB2BF" d="M118.865 167.996a8.314 8.314 0 0 1-11.233 3.479 8.315 8.315 0 0 1-3.48-11.233l16.67-31.63a8.317 8.317 0 0 1 14.713 7.754l-16.67 31.63Z"/>
  <path fill="#FFB2BF" d="M132.098 121.047a8.237 8.237 0 1 1 6.558 15.111l-6.612 2.87a8.237 8.237 0 0 1-10.834-4.277 8.236 8.236 0 0 1 4.276-10.835l6.612-2.869Z"/>
  <path fill="#FFB2BF" d="M142.251 116.641a2.979 2.979 0 1 1 2.372 5.467l-15.303 6.641a2.98 2.98 0 0 1-2.373-5.467l15.304-6.641Z"/>
  <path fill="#E1303E" d="M116.599 157.366c4.412 3.387 5.242 9.71 1.854 14.121-3.387 4.412-9.709 5.242-14.121 1.854l-25.573-19.637c-4.412-3.387-5.242-9.71-1.854-14.121 3.387-4.412 9.71-5.242 14.121-1.854l25.573 19.637Z"/>
  <circle cx="110.446" cy="164.61" r="10.806" fill="#F63E4A"/>
  <path fill="#FFB2BF" d="M118.865 167.996a8.316 8.316 0 0 1-11.233 3.479 8.315 8.315 0 0 1-3.48-11.233l16.67-31.63a8.316 8.316 0 0 1 14.713 7.754l-16.67 31.63Z"/>
  <path fill="#FFB2BF" d="M132.098 121.047a8.237 8.237 0 1 1 6.558 15.111l-6.612 2.87a8.237 8.237 0 0 1-10.834-4.277 8.236 8.236 0 0 1 4.276-10.835l6.612-2.869Z"/>
  <path fill="#FC9AAF" d="M142.942 125.325a8.21 8.21 0 0 0-1.141-1.892c.234.768.354 1.567.355 2.37a8.242 8.242 0 0 1-4.96 7.559l-.79.348-3.132 1.358-2.279 4.345-13.61 25.797a8.317 8.317 0 0 1-13.842 1.327 8.314 8.314 0 0 0 15.312 1.461l15.876-30.13 3.95-1.706a8.233 8.233 0 0 0 4.277-10.837h-.016Z"/>
  <path fill="#FFB2BF" d="M142.251 116.641a2.979 2.979 0 1 1 2.372 5.467l-15.303 6.641a2.98 2.98 0 0 1-2.373-5.467l15.304-6.641Z"/>
  <circle cx="79.23" cy="148.398" r="15.782" fill="#E1303E"/>
  <path fill="#F63E4A" d="M59.996 219.675c-13.142-.298-23.555-11.194-23.257-24.337l.811-35.725c.299-13.142 11.195-23.555 24.337-23.257 13.143.299 23.555 11.195 23.257 24.337l-.81 35.725c-.299 13.143-11.195 23.556-24.338 23.257Z"/>
  <path fill="#F63E4A" d="M30.783 146.103c.221-9.732 8.29-17.443 18.022-17.222l26.517.602c9.726.229 17.427 8.295 17.206 18.021-.364 16.056-13.675 28.777-29.732 28.412l-3.616-.082c-16.05-.373-28.76-13.681-28.397-29.731Z"/>
  <path fill="#FFB2BF" d="m70.945 116.593-.34 15.008a8.59 8.59 0 0 1-8.606 8.412h-.193a8.602 8.602 0 0 1-8.4-8.795l.114-5.135.225-9.873a8.6 8.6 0 0 1 8.602-8.412h.197a8.606 8.606 0 0 1 8.4 8.795Z"/>
  <path fill="#252849" d="M49.705 219.44c-7.46-.169-13.37-6.354-13.201-13.814.17-7.46 6.354-13.37 13.814-13.201l61.982 1.407c7.46.169 13.37 6.354 13.201 13.814-.17 7.46-6.354 13.37-13.814 13.201l-61.982-1.407Z"/>
  <path fill="#30335D" d="M63.449 206.912v94.39H36.422v-94.39c.126-7.373 6.139-13.284 13.513-13.284s13.386 5.911 13.513 13.284Z"/>
  <path fill="#252849" d="M63.449 289.667v11.62H36.422v-7.378l27.026-4.242Zm95.224 2.386-24.092 9.656-2.725-7.053-32.385-82.243a13.511 13.511 0 1 1 25.209-9.731l30.742 77.953 3.251 8.409v3.009Z"/>
  <path fill="#FC9AAF" d="m138.412 302.21 18.908-7.3 4 10.361-18.908 7.3-4-10.361Z"/>
  <path fill="#FFB2BF" d="M39.8 303.392h20.268v10.379H39.8v-10.379Z"/>
  <path fill="#FC9AAF" d="m70.945 116.593-.34 15.008a8.692 8.692 0 0 1-.371 2.326h-.644a20.312 20.312 0 0 1-16.078-7.879l.225-9.874a8.602 8.602 0 0 1 8.602-8.412h.197a8.604 8.604 0 0 1 8.409 8.831Z"/>
  <path fill="#FFB2BF" d="M85.889 108.347c0 11.958-8.523 21.721-19.253 22.357-.364.02-.727.032-1.094.032-11.236 0-20.352-10.024-20.352-22.389 0-12.366 9.116-22.39 20.352-22.39.367 0 .73 0 1.094.032 10.73.628 19.253 10.399 19.253 22.358Z"/>
  <path fill="#962F4A" d="M77.185 112.675a5.7 5.7 0 0 1-1.529 4.08c-.13.134-.26.261-.395.395a5.648 5.648 0 0 1-3.574 1.418h-.23a5.691 5.691 0 0 1-5.844-5.028c0-.154-.028-.312-.036-.47a1.1 1.1 0 0 1 1.067-1.137l9.4-.316a1.096 1.096 0 0 1 1.14 1.058Z"/>
  <path fill="#E1617F" d="M71.54 117.687c.012.293-.006.587-.054.877h-.032a5.687 5.687 0 0 1-5.841-5.028 4.527 4.527 0 0 1 5.924 4.151h.004Z"/>
  <path fill="#fff" d="M75.834 111.617c0 1.117-1.694 2.069-3.811 2.14-2.117.071-3.867-.762-3.95-1.88l7.76-.26Z"/>
  <path fill="#FC9AAF" d="M85.889 108.347c0 11.958-8.523 21.721-19.253 22.357a18.824 18.824 0 0 1-3.112-.079c10.3-1.106 18.345-10.663 18.345-22.278 0-11.615-8.045-21.173-18.345-22.279.668-.073 1.34-.11 2.014-.11.371 0 .734 0 1.098.031 10.73.624 19.253 10.403 19.253 22.358Z"/>
  <path fill="#E1303E" d="M48.733 145.751v.21c-.197 6.714-4.68 12.053-10.154 12.132h-.351c-5.695-.15-10.217-5.924-10.103-12.891.063-3.854.88-6.978 3.16-9.233A12.767 12.767 0 0 1 36 133.204a8.576 8.576 0 0 1 4.431-.11c4.807 1.18 8.4 6.433 8.302 12.657Z"/>
  <path fill="#E1303E" d="M49.14 145.491v.213c-.174 4.854-2.563 9.001-5.956 11.035a14.349 14.349 0 0 0 2.828-8.195v-.217c.138-6.32-3.554-11.655-8.511-12.812a9.09 9.09 0 0 0-1.837-.233 8.902 8.902 0 0 0-2.733.371 9.4 9.4 0 0 0-2.203.975 10.562 10.562 0 0 1 5.331-3.815 8.93 8.93 0 0 1 4.57-.134c4.968 1.153 8.65 6.489 8.51 12.812Z"/>
  <path fill="#F63E4A" d="M31.325 179.829c-2.344 5.044-8.334 7.232-13.377 4.887-5.044-2.344-7.232-8.333-4.888-13.377L26.65 142.1c2.345-5.044 8.335-7.232 13.378-4.887 5.044 2.344 7.233 8.333 4.888 13.377l-13.59 29.239Z"/>
  <path fill="#F56" d="M45.293 143.054a10.07 10.07 0 0 0-17.638 1.149l-13.59 29.226a10.038 10.038 0 0 0-.395 7.527 10.05 10.05 0 0 1-.624-9.628l13.59-29.226a10.066 10.066 0 0 1 18.65.952h.007Z"/>
  <circle cx="22.774" cy="175.53" r="10.806" fill="#E1303E"/>
  <rect width="49.865" height="19.498" x="41.17" y="82.146" fill="#FFC535" rx="9.749"/>
  <circle cx="46.861" cy="102.636" r="8.412" fill="#FFC535"/>
  <circle cx="45.416" cy="108.347" r="6.742" fill="#FFB2BF"/>
  <path fill="#E1303E" d="M63.445 318.925H37.69a12.876 12.876 0 0 1 12.878-12.875 12.867 12.867 0 0 1 12.876 12.875Z"/>
  <path fill="#F63E4A" d="M63.445 318.925h-5.948a13.386 13.386 0 0 0-9.115-12.686 12.438 12.438 0 0 1 2.188-.185 12.868 12.868 0 0 1 12.875 12.871Z"/>
  <path fill="#E1303E" d="M67.01 316.599a3.892 3.892 0 0 1-.165 1.105c-.035.119-.083.229-.126.34a3.73 3.73 0 0 1-1.055 1.414 3.7 3.7 0 0 1-2.37.849h-27.48a2.797 2.797 0 0 1-.138-5.592l20.604-1.375 6.837-.454a3.658 3.658 0 0 1 2.247.624 3.439 3.439 0 0 1 .79.727 3.8 3.8 0 0 1 .217.284 3.75 3.75 0 0 1 .64 2.078Z"/>
  <path fill="#F63E4A" d="M67.01 316.599a3.892 3.892 0 0 1-.165 1.105c-.04.115-.079.23-.126.34a3.73 3.73 0 0 1-1.055 1.414 3.693 3.693 0 0 1-2.37.849h-8.81a3.717 3.717 0 0 0 1.796-6.967l6.837-.454a3.658 3.658 0 0 1 2.247.624c.297.2.563.442.79.719a3 3 0 0 1 .217.284 3.75 3.75 0 0 1 .64 2.086Zm74.397-9.984 17.326-7.283 3.28 7.802-20.687 8.696-1.867-4.442a3.645 3.645 0 0 1 1.948-4.773Z"/>
  <path fill="#E1303E" d="m177.653 303.337-23.74 9.98a12.879 12.879 0 0 1 13.484-17.765 12.873 12.873 0 0 1 10.256 7.785Z"/>
  <path fill="#F63E4A" d="m177.653 303.337-6.67 2.8a12.882 12.882 0 0 0-13.314-7.804 12.892 12.892 0 0 1 19.996 5.004h-.012Z"/>
  <path fill="#E1303E" d="m139.755 314.699 34.107-16.319a3.713 3.713 0 0 1 2.921-.124 3.715 3.715 0 0 1 2.103 2.031 3.712 3.712 0 0 1-1.975 4.866l-34.854 14.648a2.795 2.795 0 0 1-3.665-1.492 2.801 2.801 0 0 1 1.363-3.61Z"/>
  <path fill="#F63E4A" d="M178.886 300.292a3.712 3.712 0 0 1-1.975 4.861l-8.124 3.413a3.665 3.665 0 0 0 1.998-2.019 3.71 3.71 0 0 0-3.297-5.134l6.374-3.033a3.71 3.71 0 0 1 5.024 1.912Z"/>
  <path fill="#FC9AAF" d="M70.369 170.338a2.992 2.992 0 0 1-.536 5.96l-9.278-.835a2.992 2.992 0 0 1 .536-5.96l9.278.835Z"/>
  <circle cx="60.724" cy="174.416" r="5.869" fill="#FC9AAF"/>
  <path fill="#FFB2BF" d="M21.855 185.483a8.315 8.315 0 1 1-.165-16.63l35.752-.356a8.315 8.315 0 0 1 8.398 8.232 8.315 8.315 0 0 1-8.232 8.398l-35.752.356Z"/>
  <path fill="#FFB2BF" d="M69.46 174.883a8.237 8.237 0 0 1-10.182 12.949l-5.666-4.455a8.237 8.237 0 0 1-1.383-11.566 8.236 8.236 0 0 1 11.566-1.383l5.665 4.455Z"/>
  <path fill="#FFB2BF" d="M78.162 181.725a2.98 2.98 0 0 1-3.684 4.685l-13.114-10.312a2.98 2.98 0 0 1 3.684-4.685l13.114 10.312Z"/>
  <path fill="#FC9AAF" d="M70.369 170.338a2.992 2.992 0 0 1-.536 5.96l-9.278-.835a2.992 2.992 0 0 1 .536-5.96l9.278.835Z"/>
  <circle cx="60.724" cy="174.416" r="5.869" fill="#FC9AAF"/>
  <path fill="#FFB2BF" d="M21.855 185.483a8.315 8.315 0 1 1-.165-16.63l35.752-.356a8.315 8.315 0 0 1 8.398 8.232 8.315 8.315 0 0 1-8.232 8.398l-35.752.356Z"/>
  <path fill="#FFB2BF" d="M69.46 174.883a8.237 8.237 0 0 1-10.183 12.949l-5.665-4.455a8.237 8.237 0 0 1-1.383-11.566 8.236 8.236 0 0 1 11.566-1.383l5.665 4.455Z"/>
  <path fill="#FDC3CD" d="M71.671 184.349a8.23 8.23 0 0 1-11.568 1.382l-.951-.746-2.421-1.904-3.417.032-30.635.304a8.312 8.312 0 0 1-8.396-8.235v-.083a8.357 8.357 0 0 1 .24-1.998 8.246 8.246 0 0 0-1.07 4.08v.083a8.316 8.316 0 0 0 8.396 8.234l34.052-.335 3.377 2.654a8.24 8.24 0 0 0 13.084-4.507 8.051 8.051 0 0 1-.69 1.039Z"/>
  <path fill="#FFB2BF" d="M78.162 181.725a2.98 2.98 0 0 1-3.684 4.685l-13.114-10.312a2.98 2.98 0 0 1 3.684-4.685l13.114 10.312Z"/>
  <path fill="#171A33" d="m158.673 292.053-24.088 9.656-2.725-7.053 23.554-14.021 3.247 8.409.012 3.009Z"/>
  <path fill="#30335D" d="M63.445 303.451H36.423l-2.757-6.943 34.7-5.45-4.921 12.393Z"/>
  <circle cx="38.666" cy="300.56" r="1.686" fill="#141334"/>
  <circle cx="38.567" cy="301.014" r="1.232" fill="#666DA2"/>
  <path fill="#332D52" d="M38.567 301.816a.73.73 0 0 1-.162 0 .822.822 0 0 1 0-1.643c.054-.004.108-.004.162 0a.822.822 0 0 0 0 1.607v.036Z"/>
  <path fill="#9DA5D1" d="M38.398 299.987a.9.9 0 0 1 .213-.023 1.05 1.05 0 0 1 0 2.097 1.272 1.272 0 0 1-.213-.02 1.05 1.05 0 0 0 0-2.054Z"/>
  <path fill="#252849" d="m160.691 293.696-25.083 10.055-5.142-5.422 30.181-17.966.044 13.333Z"/>
  <circle cx="136.481" cy="299.213" r="1.686" fill="#141334"/>
  <circle cx="136.382" cy="299.668" r="1.232" fill="#666DA2"/>
  <path fill="#332D52" d="M136.382 300.473a1.095 1.095 0 0 1-.162 0 .822.822 0 0 1 0-1.643.731.731 0 0 1 .162 0 .822.822 0 0 0 0 1.608v.035Z"/>
  <path fill="#9DA5D1" d="M136.193 298.641c.07-.007.142-.007.213 0a1.05 1.05 0 0 1 0 2.097.946.946 0 0 1-.213-.024 1.05 1.05 0 0 0 0-2.054v-.019Z"/>
  <path fill="#F9A0B4" d="M43.188 108.133a3.26 3.26 0 0 0 1.995 3.006.935.935 0 0 0 1.267-.885v-4.241a.953.953 0 0 0-1.354-.853 3.273 3.273 0 0 0-1.908 2.973Z"/>
  <path fill="#FFB2BF" d="M128.401 117.188a2.98 2.98 0 0 1 4.965 3.297l-5.133 7.728a2.98 2.98 0 0 1-4.131.833 2.978 2.978 0 0 1-.833-4.13l5.132-7.728Z"/>
  <circle cx="127.559" cy="128.528" r="5.869" fill="#FFB2BF"/>
  <ellipse cx="62.165" cy="180.441" fill="#F9E0E5" rx="3.61" ry="4.53" transform="rotate(-45 62.165 180.441)"/>
  <rect width="27.294" height="10.904" x="85.889" y="89.078" fill="#FFC535" rx="5.452" transform="rotate(-180 85.889 89.078)"/>
  <path fill="#FCD277" d="M60.175 79.773h15.679a5.438 5.438 0 0 1 4.494 2.342 5.42 5.42 0 0 1 .948 2.764 9.767 9.767 0 0 1 2.302 1.706c.26.26.505.536.731.826a9.64 9.64 0 0 1 2.125 6.066 9.748 9.748 0 0 1-4.317 8.097 9.748 9.748 0 0 0 3.744-18.31 5.45 5.45 0 0 0-5.442-5.134h-16.37a5.437 5.437 0 0 0-3.895 1.643Z"/>
  <circle cx="64.724" cy="107.158" r="1.706" fill="#252849"/>
  <circle cx="81.912" cy="107.158" r="1.706" fill="#252849"/>
  <circle cx="84.049" cy="107.158" r="8.701" stroke="#252849" stroke-width="2.27"/>
  <circle cx="63.524" cy="107.158" r="8.701" stroke="#252849" stroke-width="2.27"/>
  <path stroke="#252849" stroke-width="2.27" d="M75.356 107.498h-3.14"/>
  <rect width="25.067" height="9.802" x="51.438" y="86.992" fill="#FCD277" rx="4.901"/>
  <circle cx="315.535" cy="136.597" r="13.661" fill="#E1303E"/>
  <path fill="#fff" d="M272.85 149.93c.149.511.335 1.012.557 1.497a11.634 11.634 0 0 0 13.897 6.378l29.621-8.736a11.64 11.64 0 1 0-6.584-22.326l-29.62 8.732c-6.165 1.818-9.689 8.29-7.871 14.455Z"/>
  <path fill="#E9FFFE" d="M273.407 151.427a11.634 11.634 0 0 0 13.897 6.378l29.621-8.736a11.639 11.639 0 0 0 7.717-7.381 13.629 13.629 0 0 1-6.402 3.688l-20.47 5.336-4.68 1.224c-.3.083-.588.142-.888.206-.3.063-.608.244-.924.351a18.679 18.679 0 0 1-12.058 0c-1.983-.04-3.946-.4-5.813-1.066Z"/>
  <path fill="#F5B5A9" d="M248.003 127.789a6.938 6.938 0 0 1-9.461 2.604l-6.39-3.631a6.94 6.94 0 1 1 6.857-12.066l6.39 3.631a6.94 6.94 0 0 1 2.604 9.462Zm14.766-6.352a5.493 5.493 0 0 1-6.943-3.487l-3.221-9.721a5.494 5.494 0 1 1 10.43-3.455l3.221 9.721a5.493 5.493 0 0 1-3.487 6.942Z"/>
  <path fill="#F5B5A9" d="M255.776 120.05c-2.65 4.663-8.577 6.294-13.239 3.644l-6.675-3.793c-4.662-2.65-6.294-8.577-3.644-13.239 2.649-4.662 8.577-6.294 13.239-3.644l6.675 3.793c4.662 2.65 6.294 8.577 3.644 13.239Z"/>
  <path fill="#F5B5A9" d="M242.698 133.488c-6.162-5.122-7.005-14.27-1.884-20.432 5.122-6.162 14.27-7.005 20.432-1.883l27.555 22.902c6.162 5.122 7.005 14.27 1.883 20.432-5.121 6.162-14.269 7.005-20.431 1.883l-27.555-22.902Z"/>
  <path fill="#F5B5A9" d="M248.003 127.789a6.938 6.938 0 0 1-9.461 2.604l-6.39-3.631a6.94 6.94 0 1 1 6.857-12.066l6.39 3.631a6.94 6.94 0 0 1 2.604 9.462Z"/>
  <path fill="#F8CDC5" d="M289.907 153.232a14.43 14.43 0 0 0 3.247-7.899 14.509 14.509 0 0 1-23.104 7.042l-25.98-21.406-1.643-1.351c-.474-.39-.923-.811-1.342-1.26a6.7 6.7 0 0 1-2.03-.758l-1.304-.742-5.079-2.887a6.858 6.858 0 0 1-2.555-2.512 6.965 6.965 0 0 1-.963-3.377 6.936 6.936 0 0 0 2.973 8.689l6.391 3.629a7.019 7.019 0 0 0 2.037.77 14.9 14.9 0 0 0 1.331 1.244l27.619 22.761c6.171 5.096 15.304 4.226 20.402-1.943Z"/>
  <path fill="#F5B5A9" d="m313.504 121.795.821-17.879 15.328.704-.822 17.879-15.327-.704Z"/>
  <ellipse cx="305.444" cy="84.446" fill="#F4AD18" rx="9.427" ry="4.696" transform="rotate(-87.37 305.444 84.446)"/>
  <path fill="#F29495" d="m329.682 104.654-.245 5.347a21.757 21.757 0 0 1-12.109 7.141c-1.186.246-2.391.39-3.602.43l.628-13.625 15.328.707Z"/>
  <path fill="#F5B5A9" d="m338.738 85.097-.996 9.478c-1.26 11.946-11.963 20.609-23.909 19.352A13.087 13.087 0 0 1 302.19 99.52l1.414-13.428.237-2.271.09-.837.257-2.477a10.893 10.893 0 0 1 11.979-9.695l2.346.249 9.688 1.014c1.257.13 2.485.462 3.637.984a11.848 11.848 0 0 1 6.919 12.038h-.019Z"/>
  <path fill="#F29495" d="M335.764 85.436c-2.662 6.05-13.219 7.267-23.586 2.71a32.606 32.606 0 0 1-8.247-5.154l.257-2.477a10.893 10.893 0 0 1 11.979-9.695l2.346.248 9.687 1.015c1.258.127 2.486.457 3.638.976 3.866 4.076 5.529 8.689 3.926 12.377Z"/>
  <circle cx="321.289" cy="91.53" r="1.505" fill="#252849"/>
  <circle cx="310.657" cy="91.04" r="1.505" fill="#252849"/>
  <path fill="#962F4A" d="M310.511 96.972a4.465 4.465 0 0 0 1.394 3.124c.107.099.218.194.328.285.819.638 1.834.97 2.871.94h.182a4.47 4.47 0 0 0 4.344-4.226v-.371a.867.867 0 0 0-.272-.605.842.842 0 0 0-.616-.237l-7.39.206a.865.865 0 0 0-.841.884Z"/>
  <path fill="#E1617F" d="M315.16 100.63c.006.231.035.461.086.687h.024a4.472 4.472 0 0 0 4.345-4.226 3.554 3.554 0 0 0-4.447 3.554l-.008-.015Z"/>
  <path fill="#fff" d="M311.502 96.08c.06.877 1.43 1.54 3.093 1.493 1.663-.048 2.993-.79 3.005-1.663l-6.098.17Z"/>
  <path fill="#FFC535" d="m331.206 81.99 9.165.422-.835 18.167-.789-.036a8.379 8.379 0 0 1-7.991-8.764l.45-9.788Z"/>
  <circle cx="336.08" cy="96.277" r="5.533" fill="#F5B5A9"/>
  <path fill="#F29495" d="M337.762 95.724a2.393 2.393 0 0 1-1.264 2.323.683.683 0 0 1-.979-.565l-.269-3.096a.698.698 0 0 1 .932-.707 2.393 2.393 0 0 1 1.58 2.045Z"/>
  <circle cx="336.036" cy="77.45" r="9.984" fill="#FFC535"/>
  <path fill="#F4AD18" d="M346.008 77.909a9.965 9.965 0 0 1-3.834 7.413 9.98 9.98 0 0 0-13.428-14.688 9.984 9.984 0 0 1 17.27 7.275h-.008Z"/>
  <ellipse cx="318.743" cy="72.753" fill="#FFC535" rx="12.524" ry="21.836" transform="rotate(-70.33 318.743 72.753)"/>
  <ellipse cx="318.743" cy="72.753" fill="#FCD277" rx="7.678" ry="13.384" transform="rotate(-70.33 318.743 72.753)"/>
  <path fill="#FCD277" d="M302.687 77.462c-2.199-3.084-3.025-6.319-2.006-9.174 2.326-6.513 13.428-8.503 24.779-4.443 4.802 1.714 8.886 4.237 11.816 7.07-2.835-3.974-7.95-7.69-14.344-9.973-11.358-4.06-22.448-2.066-24.778 4.443-1.343 3.764.509 8.207 4.533 12.077Z"/>
  <path fill="#F63E4A" d="m333.48 194.589-43.105-1.98 2.241-48.802c.601-13.074 11.686-23.185 24.759-22.584l8.348.383c6.123.281 10.858 5.473 10.577 11.595l-2.82 61.388Z"/>
  <path fill="#F63E4A" d="M337.366 122.528a5.44 5.44 0 0 1-5.682 5.183l-22.985-1.056a5.438 5.438 0 1 1 .499-10.865l22.985 1.055a5.438 5.438 0 0 1 5.183 5.683Z"/>
  <path fill="#F9A0B4" d="m265.535 303.348-.284 8.839-18.028-.58.284-8.838 18.028.579Z"/>
  <path fill="#F492AC" d="m265.535 303.351-.142 4.421-18.027-.579.142-4.421 18.027.579Z"/>
  <path fill="#30335D" d="m257.538 313.763-17.721.963a8.883 8.883 0 1 1 17.737-.963h-.016Z"/>
  <path fill="#FDBF48" d="m238 316.891-.027-2.721a2.23 2.23 0 0 1 2.069-2.251l23.301-1.703a2.79 2.79 0 0 1 2.994 2.765l.051 5.043L238 316.891Z"/>
  <path fill="#30335D" d="M266.381 316.504v1.635a1.884 1.884 0 0 1-1.865 1.907l-25.22.265a3.079 3.079 0 0 1-3.113-3.049 3.085 3.085 0 0 1 3.049-3.116l7.062-.075a2.646 2.646 0 0 1 2.674 2.618l17.413-.185Z"/>
  <path fill="#252849" d="m268.6 302.231-1.212-97.87a12.184 12.184 0 0 0-12.243-12.141h-.32a12.186 12.186 0 0 0-12.141 12.243l1.213 97.87a1.86 1.86 0 0 0 1.864 1.849l20.979-.079a1.86 1.86 0 0 0 1.86-1.872Z"/>
  <path fill="#252849" d="m256.434 192.288 44.929-.573a4.91 4.91 0 0 1 4.971 4.847l.053 4.146c.12 9.389-7.395 17.098-16.784 17.218l-32.837.418c-7.197.092-13.106-5.669-13.198-12.866-.091-7.197 5.669-13.106 12.866-13.198v.008Z"/>
  <path fill="#30335D" d="M333.9 200.352a17.247 17.247 0 0 1-4.921 12.346 16.103 16.103 0 0 1-10.3 4.818h-.178c-.277 0-.553.028-.834.032l-31.761.394a12.357 12.357 0 0 1-8.965-3.676 13.123 13.123 0 0 1-3.388-5.984 13.345 13.345 0 0 1-.395-2.978c-.202-7.274 5.628-13.305 12.669-13.392l47.97-.612.103 9.052Z"/>
  <path fill="#FFB2BF" d="m215.954 304.839-7.185 8.904-14.179-11.44 7.185-8.904 14.179 11.44Z"/>
  <path fill="#F9A0B4" d="m215.958 304.836-2.361 2.926-14.179-11.44 2.361-2.926 14.179 11.44Z"/>
  <path fill="#30335D" d="m202.096 310.564-14.688-9.992a8.883 8.883 0 0 1 14.688 9.992Z"/>
  <path fill="#FDBF48" d="m184.667 301.204 1.628-2.18a2.23 2.23 0 0 1 3.009-.537l19.569 12.78a2.791 2.791 0 0 1 .711 4.005l-3.017 4.04-21.9-18.108Z"/>
  <path fill="#30335D" d="m207.467 318.107-.971 1.303a1.895 1.895 0 0 1-2.65.395l-20.213-15.078a3.077 3.077 0 0 1-.624-4.313 3.077 3.077 0 0 1 4.312-.628l5.66 4.222a2.644 2.644 0 0 1 .541 3.704l13.945 10.395Zm87.361-106.164-.395.482-4.427 5.494-22.642 28.041-47.796 59.323a2.696 2.696 0 0 1-3.787.395l-15.008-12.124a2.695 2.695 0 0 1-.395-3.788l34.956-43.412 31.785-39.387 8.523-10.557a12.304 12.304 0 0 1 10.805-4.534 12.344 12.344 0 0 1 8.405 20.04l-.024.027Z"/>
  <circle cx="321.246" cy="140.641" r="13.661" fill="#E1303E"/>
  <path fill="#fff" d="M308.868 183.614a11.64 11.64 0 0 0 14.534-7.729l9.02-29.537a11.637 11.637 0 1 0-22.262-6.797l-9.025 29.533c-1.874 6.148 1.587 12.651 7.733 14.53Z"/>
  <path fill="#F9E8EA" d="M310.424 183.974a11.64 11.64 0 0 0 12.978-8.089l9.02-29.537a11.631 11.631 0 0 0-1.911-10.494 13.602 13.602 0 0 1-.446 7.37l-6.821 20.027-1.58 4.582c-.095.292-.205.568-.316.853-.11.284-.13.639-.213.963a18.7 18.7 0 0 1-6.639 10.067 18.5 18.5 0 0 1-4.072 4.258Z"/>
  <circle cx="308.6" cy="174.416" r="16.631" fill="#E1303E"/>
  <path fill="#F5B5A9" d="M274.062 174.201a6.94 6.94 0 0 1-7.209 6.658l-7.344-.291a6.939 6.939 0 1 1 .55-13.867l7.344.291a6.94 6.94 0 0 1 6.659 7.209Zm10.237-12.457a5.495 5.495 0 0 1-7.769.09l-7.324-7.158a5.495 5.495 0 0 1 7.679-7.858l7.324 7.158a5.493 5.493 0 0 1 .09 7.768Z"/>
  <path fill="#F5B5A9" d="M277.417 163.757c-.212 5.358-4.728 9.53-10.087 9.317l-7.671-.304c-5.359-.212-9.53-4.728-9.318-10.087.213-5.358 4.729-9.529 10.087-9.317l7.671.304a9.71 9.71 0 0 1 9.318 10.087Z"/>
  <path fill="#F5B5A9" d="M270.805 181.113c-7.823-1.686-12.799-9.395-11.113-17.218s9.394-12.799 17.218-11.113l34.982 7.538c7.823 1.686 12.799 9.394 11.113 17.218-1.686 7.823-9.394 12.798-17.217 11.113l-34.983-7.538Z"/>
  <path fill="#F5B5A9" d="M274.062 174.201a6.94 6.94 0 0 1-7.209 6.658l-7.344-.291a6.939 6.939 0 1 1 .55-13.867l7.344.291a6.94 6.94 0 0 1 6.659 7.209Z"/>
  <path fill="#F8CDC5" d="M322.983 177.517a14.417 14.417 0 0 0-.726-8.488 14.515 14.515 0 0 1-17.275 16.868l-32.91-7.085-2.078-.45c-.6-.127-1.191-.294-1.769-.498a6.72 6.72 0 0 1-2.153.253l-1.5-.059-5.837-.233a6.84 6.84 0 0 1-3.425-1.055 6.97 6.97 0 0 1-2.409-2.571 6.936 6.936 0 0 0 6.635 6.359l7.346.292a7.092 7.092 0 0 0 2.16-.253c.576.2 1.163.365 1.758.494l34.972 7.535a14.48 14.48 0 0 0 17.211-11.109Z"/>
  <g clip-path="url(#a)">
    <path fill="#BCB9B9" fill-rule="evenodd" d="M183.315 140.922v.004l.002-.004h-.002Z" clip-rule="evenodd"/>
    <path fill="#E42313" fill-rule="evenodd" d="M186.254 154.446a1.269 1.269 0 0 0-.293-.021l.056.306a1.089 1.089 0 0 1 .968.638l.299-.064a1.781 1.781 0 0 0-.101-.206 1.363 1.363 0 0 0-.929-.653Zm-.152.739.066.357.377-.079a.6.6 0 0 0-.443-.278Z" clip-rule="evenodd"/>
    <path fill="#E42313" fill-rule="evenodd" d="M187.561 154.411a2.28 2.28 0 0 0-.871-.606l.006-.001a1.95 1.95 0 0 0-.866-.102l.057.309c.09-.006.195-.005.29.006a1.794 1.794 0 0 1 1.41 1c.034.068.062.14.088.208l.299-.063a2.096 2.096 0 0 0-.413-.763v.012Zm-1.899-.635c-2.483.922-6.78 1.857-13.618 1.462 0 0 8.344 2.084 13.913.355l-.295-1.817Z" clip-rule="evenodd"/>
    <path fill="#BCB9B9" fill-rule="evenodd" d="m184.389 146.839.91-4.851-.525.177-.925-1.143-.004-.001-.602 4.956 1.146.862Zm-1.074-5.913-.847.804-.417-.351-1.239 6.61.759-.147 1.744-6.916Z" clip-rule="evenodd"/>
    <path fill="#847F7D" fill-rule="evenodd" d="m182.486 147.664.371-1.976.386.289.602-4.956-.528-.099-.002.004-1.744 6.915.915-.177Z" clip-rule="evenodd"/>
    <path fill="#BCB9B9" fill-rule="evenodd" d="m180.812 147.989-2.849.555-1.268 6.763a40.696 40.696 0 0 0 2.78-.185l1.337-7.133Zm4.156 6.029 1.108-5.91-1.685-1.268-1.448 7.727a21.116 21.116 0 0 0 2.025-.549Z" clip-rule="evenodd"/>
    <path fill="#847F7D" fill-rule="evenodd" d="M182.181 154.727c.262-.052.516-.103.759-.158l1.449-7.73-1.146-.862-1.062 8.75Zm-2.438.365 1.828-7.25-.759.147-1.337 7.133c.091-.011.179-.019.268-.03Z" clip-rule="evenodd"/>
    <path fill="#5B5857" fill-rule="evenodd" d="m183.243 145.977-.386-.291-.371 1.976-.914.178-1.829 7.25c.89-.098 1.702-.223 2.438-.365l1.062-8.748Z" clip-rule="evenodd"/>
    <path fill="#767272" fill-rule="evenodd" d="M186.081 153.537c.301-.03.493.048.763.147l-.006.001c.335.134.623.342.865.616l-.002-.013c.182.217.323.477.406.766 0 0 .611-1.399 1.285-2.788 0 0-1.275.536-3.311 1.271Z" clip-rule="evenodd"/>
  </g>
  <defs>
    <clipPath id="a">
      <path fill="#fff" d="M0 0h20.478v22.053H0z" transform="rotate(10.618 -661.35 1000.661)"/>
    </clipPath>
  </defs>
</svg>