<svg xmlns="http://www.w3.org/2000/svg" fill="none" viewBox="0 0 563 406">
  <path fill="#ABDFDD" d="M414.571 406a5.984 5.984 0 0 1-3.053-.838l-71.486-42.288c-4.047-2.393-4.041-8.355.01-10.742l15.112-8.896 56.362 33.34a6.058 6.058 0 0 0 3.082.839h.064a6.007 6.007 0 0 0 2.953-.833l35.939-21.156a5.89 5.89 0 0 1 2.852-.835v.148h.039c.061-.002.122-.004.183-.004 1.028 0 2.052.273 2.974.815l22.044 12.795a5.897 5.897 0 0 0 3.015.811v-.149c1.05 0 2.095-.276 3.038-.826l56.683-33.38 15.167 8.907c4.063 2.384 4.067 8.36.008 10.75l-71.859 42.31a5.976 5.976 0 0 1-6.052.017l-22.041-12.796a5.991 5.991 0 0 0-6.053.018l-35.939 21.16a5.974 5.974 0 0 1-3.042.833Z"/>
  <path fill="#BF5949" d="M562.6 308.293v12.529l-.018-.006c-.101 1.979-1.101 3.917-3.025 5.052l-71.859 42.313a6.014 6.014 0 0 1-3.037.827v.148a5.906 5.906 0 0 1-3.016-.811l-22.043-12.795a5.855 5.855 0 0 0-3.157-.811h-.039v-.148a5.887 5.887 0 0 0-2.852.835l-35.939 21.156a5.997 5.997 0 0 1-2.954.833 6.054 6.054 0 0 1-3.145-.838l-71.484-42.287c-1.807-1.07-2.801-2.844-2.993-4.693l-.039.012.011-.517c-.006-.163 0-.329.006-.499l.237-13.118 5.477 6.491 19.192-11.299 1.835-1.082c4.066-2.398 4.049-8.395-.033-10.766l-9.695-5.629c-2.383-1.383-3.371-4.003-2.976-6.423v-11.735l6.51 5.284 67.961-40.302a5.998 5.998 0 0 1 6.093-.011l125.651 73.778 5.331-5.488Z"/>
  <path fill="#51BEA5" d="m559.557 320.443-71.859 42.31a5.985 5.985 0 0 1-6.053.019l-22.04-12.798a5.985 5.985 0 0 0-6.053.019l-35.939 21.161a5.985 5.985 0 0 1-6.095-.006l-71.486-42.288c-2.069-1.224-3.079-3.381-3.03-5.514.017-.746.303-6.613.303-6.613s1.481 2.125 2.737 1.386l23.713-13.962c4.071-2.396 4.053-8.396-.032-10.767l-9.69-5.627c-2.211-1.283-3.231-3.628-3.055-5.89.055-.715-.122-5.956-.122-5.956s1.966 1.78 3.128 1.09l71.539-42.417a5.99 5.99 0 0 1 6.095-.014L562.6 308.797s-.004 4.175-.002 6.263c.004 2.092-1.01 4.188-3.041 5.383Z"/>
  <path fill="#915140" d="M414.597 377.415a6.057 6.057 0 0 1-3.081-.839l-71.484-42.286c-1.807-1.07-2.801-2.844-2.993-4.693l-.039.012.011-.517-.002-.138c0-.119.004-.238.008-.361l.073-4.028a6.123 6.123 0 0 0 2.941 4.295l71.487 42.288a5.992 5.992 0 0 0 3.053.837h.09v5.43h-.064Zm69.516-8.283a5.897 5.897 0 0 1-2.467-.787l-22.044-12.795a5.855 5.855 0 0 0-2.974-.815c-.061 0-.121.002-.182.004v-5.576h.149c1.038 0 2.077.269 3.01.811l22.041 12.798a6 6 0 0 0 2.467.788v5.572ZM337.188 319.18l.006-.357.009.035-.015.322Z"/>
  <path fill="#3EAD91" d="M414.571 371.985a5.992 5.992 0 0 1-3.053-.837l-71.486-42.288a6.122 6.122 0 0 1-2.942-4.295l.097-5.385.015-.322a6.104 6.104 0 0 0 2.83 3.765l71.486 42.288c.944.56 1.998.839 3.053.839h.091v6.235h-.091Zm69.542-8.425a6.004 6.004 0 0 1-2.468-.788l-22.04-12.798a5.989 5.989 0 0 0-3.011-.811h-.149v-6.235c.05-.002.1-.002.149-.002 1.039 0 2.077.271 3.011.813l22.04 12.796c.771.449 1.613.71 2.468.788v6.237Z"/>
  <path fill="#96D8CB" d="m559.557 314.208-71.859 42.309a5.98 5.98 0 0 1-6.052.018l-22.041-12.796a5.98 5.98 0 0 0-6.053.019l-35.939 21.161a5.985 5.985 0 0 1-6.095-.008l-71.486-42.288c-4.047-2.392-4.041-8.355.01-10.741l23.713-13.96c4.071-2.398 4.053-8.396-.032-10.767l-9.69-5.627c-4.078-2.367-4.105-8.352-.049-10.756l71.539-42.417a5.985 5.985 0 0 1 6.095-.014l127.931 75.116c4.063 2.385 4.067 8.361.008 10.751Z"/>
  <path fill="#90C5AE" d="m414.573 357.508-1.035-.612 36.132-20.888-68.415-39.943-10.018 5.822c2.227-2.542 3.476-5.837 3.465-9.384-.015-5.108-2.64-9.676-7.022-12.219l-7.171-4.164 1.655-.981a3.402 3.402 0 0 0 2.067 2.626c.774.324 5.741 3.27 7.332 4.217.573.412 1.27.648 1.991.648.57 0 1.156-.148 1.707-.47l2.652-1.55c2.862-.076 5.046-.595 5.046-.595a20.385 20.385 0 0 1-2.248-6.738c.554 1.236.939 2.061.939 2.061l7.788 10.634 2.633-1.636-6.508-11.396-2.858-9.962-.005-.015 45.886-27.207 31.688 18.606.046 35.495a2.82 2.82 0 0 0 1.402 2.438l31.09 18.06a5.98 5.98 0 0 0 1.539 1.704h.001a.053.053 0 0 1 .012.01c.001 0 .002 0 .003.002a.038.038 0 0 1 .011.008l.004.002c.003.002.006.006.01.007l.004.004.009.006c.002.002.004.004.006.004a.055.055 0 0 1 .008.006.043.043 0 0 0 .007.006l.007.006c.003 0 .005.002.007.004l.007.005.009.006.005.004.01.006.004.004.011.008.003.002c.004.002.008.006.013.007l.001.002.014.01h.001a5.86 5.86 0 0 0 2.689 1.018h.002l.036.004h.001l.017.002h.002l.016.002h.004c.005.002.01.002.015.002h.003l.015.002h.004l.015.002h.004c.005 0 .01 0 .014.002h.005l.014.001h.019c.001 0 .003 0 .004.002h.019l.014.002h.005c.005 0 .009 0 .014.002h.024a.025.025 0 0 0 .012.002h.006a.03.03 0 0 1 .013.002h.025l.012.002h.026a.022.022 0 0 0 .011.002h.027c.003.002.007.002.011.002h.026c.004 0 .008 0 .012.002h.056c.002.002.005.002.008.002h.076l.008.002h.167c.004 0 .008 0 .012-.002h.081l.012-.002h.045l.009-.002h.037l.008-.002h.029l.008-.002h.031c.002-.002.004-.002.006-.002h.017c.006 0 .01 0 .014-.002h.023c.006-.002.012-.002.018-.002l.017-.002h.002l.148-.011v-.002l.036-.002.037-.006a5.846 5.846 0 0 0 1.822-.511l-.697 6.298-2.021-1.047a3.45 3.45 0 0 0 .223-1.121v-.02l.001-.015v-.076a3.462 3.462 0 0 0-3.454-3.469 3.45 3.45 0 0 0-2.906 1.591 3.46 3.46 0 0 0-.55 1.878v.031a3.466 3.466 0 0 0 1.645 2.924c.004.002.008.004.012.008.002 0 .004.002.006.004a.088.088 0 0 1 .01.006c.003 0 .005.002.008.004l.009.006.009.006a.01.01 0 0 1 .007.003l.011.006.007.004.011.006.007.006a.088.088 0 0 1 .01.006c.003 0 .005.002.008.004l.011.005.007.004a.11.11 0 0 0 .011.006l.007.004.011.006.007.004a.11.11 0 0 1 .011.006l.007.004.012.005.006.004.012.006.006.004a.163.163 0 0 0 .013.006c.001.002.004.002.006.004l.012.006.006.004.013.005.005.002.013.008.006.002a.163.163 0 0 1 .013.006l.006.004.013.006.006.002.013.007c.002 0 .004 0 .006.002l.013.006.005.002.014.008c.002 0 .004 0 .005.002l.014.006.005.002.015.006c.001.002.003.002.004.002a.1.1 0 0 0 .015.007c.001 0 .003 0 .004.002l.015.006.005.002.014.006.005.002.014.006a.006.006 0 0 0 .005.002l.015.006c.001.002.003.002.005.002l.014.005a.006.006 0 0 0 .005.002l.015.006c.002.002.003.002.005.002l.015.006.004.002.016.006.004.002a.277.277 0 0 0 .036.013h.003l.018.006c0 .002.001.002.002.002l.018.006h.002c.006.004.012.006.018.008h.002a3.268 3.268 0 0 0 .264.078h.003l.018.006h.005c.005.002.01.004.015.004l.006.001c.005 0 .01.002.015.004h.006c.005.002.01.004.015.004l.006.002.014.002a.01.01 0 0 0 .007.002l.014.004c.003 0 .005 0 .007.002l.014.002.007.002.014.002.008.002.013.002c.002.002.005.002.008.002l.013.002c.003.002.005.002.008.002l.013.002a.022.022 0 0 0 .008.001l.013.002.008.002.013.002.009.002.012.002c.003 0 .006 0 .009.002.004 0 .008 0 .012.002h.009a.027.027 0 0 0 .013.002l.008.002c.005 0 .009 0 .013.002h.009a.025.025 0 0 0 .012.002c.003.002.006.002.009.002.004 0 .008 0 .012.002h.01a.025.025 0 0 0 .012.002l.009.002h.012c.003.002.006.002.01.002s.008 0 .012.002h.009l.012.002h.01a.025.025 0 0 0 .012.002h.009a.049.049 0 0 0 .012.001h.01a.025.025 0 0 0 .012.002h.01a.025.025 0 0 0 .012.002h.009l.013.002h.009c.004 0 .008 0 .012.002h.022a.02.02 0 0 1 .01.002h.034c.003.002.006.002.009.002h.036c.003 0 .005 0 .008.002h.219l.009-.002h.043c.004-.002.008-.002.012-.002h.022l.009-.002h.021l.013-.002h.008c.005 0 .009 0 .013-.002h.021l.009-.002h.013l.008-.002h.014l.007-.001h.014l.007-.002h.015c.002-.002.004-.002.006-.002.005 0 .01 0 .015-.002h.006l.016-.002h.005c.006-.002.011-.002.017-.002.001 0 .003 0 .004-.002.006 0 .012 0 .019-.002h.002l.02-.002h.001a3.432 3.432 0 0 0 2.103-1.131l2.426 2.176-1.058 9.56s1.753 1.101 3.703 1.101c1.361 0 2.82-.538 3.839-2.367l-3.157-17.185c.023.027.046.051.072.076l.001.004.012.012.006.006a.081.081 0 0 0 .01.009l.009.01.006.006.012.012c.002.002.002.004.004.004a.061.061 0 0 1 .013.015 8.192 8.192 0 0 0 5.048 2.4l.025.002h.002l.023.002h.002a.09.09 0 0 0 .023.002l.004.002c.008 0 .016 0 .023.002h.004a.09.09 0 0 1 .022.002h.004c.007 0 .013 0 .021.002h.006c.006 0 .013 0 .019.002h.006c.008 0 .014 0 .019.002h.028c.002.002.004.002.007.002h.018l.008.002h.027c.006.002.01.002.015.002h.01l.018.002h.025l.01.002h.025l.017.002h.035c.006.002.012.002.016.002h.027l.01.001h.052l.016.002h.079l.01.002h.262c.002 0 .006 0 .01-.002h.077c.004 0 .01 0 .016-.002h.051l.009-.001h.043c.004 0 .006 0 .008-.002h.025c.008 0 .014 0 .019-.002h.033c.006-.002.014-.002.02-.002h.006c.005 0 .013 0 .021-.002h.029a8.193 8.193 0 0 0 5.1-2.192 8.344 8.344 0 0 0 1.495-1.866v-.002l.01-.013.004-.008a.061.061 0 0 0 .005-.012l.008-.011.004-.006a8.236 8.236 0 0 0 1.105-4.136 8.264 8.264 0 0 0-5.36-7.744c.004-.08.006-.16.008-.24.004-.064.004-.131.004-.193a8.844 8.844 0 0 0-5.748-8.292l-.037-9.041 2.4 1.409c-.033.283-.05.574-.05.866v.039a7.313 7.313 0 0 0 2.567 5.535 7.253 7.253 0 0 0 3.95 1.701l.023.002h.002l.021.002a.177.177 0 0 0 .022.001h.004a.055.055 0 0 0 .019.002l.004.002h.017l.006.002h.018l.004.002h.019c.002.002.004.002.006.002h.017l.006.002h.016l.008.002h.021c.006.002.012.002.017.002h.006l.018.002h.005c.006 0 .012 0 .016.002h.023l.008.002h.023l.016.002h.021c.004 0 .008 0 .01.002h.037c.004.002.006.002.01.002h.036c.002.002.006.002.01.002h.047a.027.027 0 0 0 .013.002h.057l.011.002h.298c.003 0 .007 0 .013-.002h.068l.01-.002h.044c.004-.002.01-.002.014-.002h.031l.016-.002h.031c.004-.002.009-.002.013-.002h.008c.006 0 .012 0 .016-.002h.029c.006-.002.011-.002.019-.002h.004l.019-.002h.002c.008 0 .016 0 .022-.002h.002a7.21 7.21 0 0 0 3.79-1.39l6.244 3.665-2.218 20.032s3.698 2.322 7.807 2.322c2.87 0 5.944-1.134 8.094-4.989l-1.923-10.461 15.274 8.969-68.404 40.274-21.087-12.242a13.897 13.897 0 0 0-6.968-1.878 13.9 13.9 0 0 0-7.041 1.921l-34.98 20.597Z"/>
  <path fill="#FFEDD5" d="m381.256 296.066 68.414 39.942-37.267 21.543-68.166-39.966 37.019-21.519Z"/>
  <path fill="#FFEDD5" d="m465.582 282.31-9.008-5.26-54.178 31.496 8.989 5.27 54.197-31.506Z"/>
  <path fill="#fff" d="M516.956 190.723c-.38-1.989-.25-3.804.391-5.117.021-.046.044-.091.069-.138.325-.614.766-1.109 1.323-1.447l.144-.082c.044-.023.089-.046.134-.066 1.095-.526 2.419-.417 3.773.205 1.082.495 2.179 1.322 3.191 2.408.149-1.117.435-2.135.864-3.013.035-.078.074-.15.112-.226.527-.996 1.243-1.801 2.15-2.349.078-.045.154-.09.233-.133.072-.037.144-.076.218-.109 1.779-.856 3.932-.678 6.129.332 3.233 1.483 6.561 4.765 8.929 9.196 1.949 3.645 2.893 7.402 2.86 10.582 1.132.608 2.27 1.776 3.096 3.322 1.064 1.991 1.336 4.067.839 5.446l-.002.008a7.276 7.276 0 0 1 2.227 5.24c0 5.586-6.014 9.084-10.84 6.302l-29.145-16.793a7.27 7.27 0 0 1-3.635-6.302c0-4.125 3.282-7.107 6.94-7.266Zm-125.595 3.544c.25-1.306.164-2.501-.257-3.363-.015-.033-.03-.062-.046-.094a2.4 2.4 0 0 0-.965-1.004 1.003 1.003 0 0 0-.087-.043c-.721-.347-1.593-.276-2.482.133-.712.328-1.434.87-2.1 1.585-.098-.735-.286-1.404-.568-1.981a2.62 2.62 0 0 0-.075-.15c-.345-.655-.817-1.183-1.414-1.544-.051-.031-.1-.061-.153-.088-.047-.025-.095-.051-.143-.072-1.17-.563-2.587-.447-4.032.218-2.127.975-4.316 3.136-5.874 6.05-1.282 2.399-1.903 4.869-1.882 6.961-.744.4-1.492 1.168-2.036 2.186-.7 1.308-.878 2.675-.552 3.581l.002.006a4.788 4.788 0 0 0-1.466 3.447c0 3.676 3.957 5.974 7.131 4.146l19.173-11.048a4.782 4.782 0 0 0 2.391-4.145c0-2.714-2.158-4.675-4.565-4.781Z"/>
  <path fill="#30596B" d="m427.583 240.35-.122-95.165c-.005-3.976 4.276-6.47 7.711-4.493l58.594 33.743a5.174 5.174 0 0 1 2.588 4.463l.387 95.613c.012 2.993-2.406 5.149-5.067 5.198a5.091 5.091 0 0 1-2.661-.702l-58.859-34.189a5.177 5.177 0 0 1-2.571-4.468Z"/>
  <path fill="#FFEDD5" d="m427.183 239.979-8.711-88.171s9.233-5.147 10.21-6.027c1.486-1.335 3.75-1.749 5.721-.614l55.746 32.101a4.922 4.922 0 0 1 2.461 4.248l.368 90.964a4.866 4.866 0 0 1-1.953 3.952c-.82.614-12.16 7.071-12.16 7.071l-49.236-39.273a4.922 4.922 0 0 1-2.446-4.251Z"/>
  <path fill="#30596B" d="m415.69 247.226-.123-95.165c-.005-3.975 4.276-6.469 7.712-4.492l58.594 33.742a5.173 5.173 0 0 1 2.587 4.463l.387 95.614c.012 2.993-2.405 5.149-5.066 5.198a5.104 5.104 0 0 1-2.662-.702l-58.859-34.189a5.177 5.177 0 0 1-2.57-4.469Z"/>
  <path fill="#5EA2E5" d="M481.875 187.27a5.168 5.168 0 0 0-2.587-4.463l-58.595-33.742c-3.435-1.977-7.716.514-7.711 4.492l.123 95.165a5.169 5.169 0 0 0 2.57 4.467l58.859 34.191c.86.499 1.774.717 2.662.701 2.661-.048 5.078-2.205 5.066-5.198l-.387-95.613Z"/>
  <path fill="#FFEDD5" d="m459.324 224.303-4.029-2.269c1.808-2.108 3.235-4.787 4.084-7.825.25-.891.478-1.918.642-3.072l4.045 2.353.131-.228c-.154 4.925-1.777 8.922-4.873 11.041Zm-20.644-47.677a16.125 16.125 0 0 0-4.291 3.147l-3.328-1.616c.239-.174.486-.338.743-.486 2.005-1.16 4.361-1.466 6.876-1.045Zm-9.057 2.829 3.547 1.722c-1.549 2.024-2.664 4.471-3.308 7.302a24.032 24.032 0 0 0-.453 2.766l-3.048-1.772c.063-4.153 1.149-7.676 3.262-10.018Zm22.717 42.977c-1.217 1.047-2.552 1.824-3.948 2.263a20.343 20.343 0 0 1-.535-.226 23.722 23.722 0 0 0 2.067-3.396l2.416 1.359Zm5.999-12.274a22.647 22.647 0 0 1-.683 3.566c-.806 2.882-2.216 5.438-3.98 7.399l-2.991-1.684c1.264-2.948 2.437-6.998 2.701-12.165l4.953 2.884Zm.141-1.997-5.041-2.932c.014-4.389-.633-9.505-2.364-15.356l2.731 1.326c3.817 6.783 4.803 12.56 4.674 16.962Zm.14-14.625c3.508 6.138 5.365 12.5 5.569 17.948l-3.972-2.311c.284-4.318-.418-9.994-3.704-16.658l2.107 1.021Zm-8.006-10.269c2.214 2.073 4.33 4.568 6.233 7.413l-1.767-.858c-1.215-2.104-2.687-4.291-4.466-6.555Zm-7.665-5.292c.149.067.297.131.446.203l.093 6.013-3.879-1.883a21.372 21.372 0 0 1 3.34-4.333Zm-6.838 2.634a14.804 14.804 0 0 1 4.668-2.973 23.344 23.344 0 0 0-2.805 3.878l-1.863-.905Zm-5 11.627c.091-1.158.252-2.283.495-3.356.616-2.704 1.71-5.012 3.232-6.892l2.291 1.111c-1.688 3.486-2.486 7.265-2.663 11.09l-3.355-1.953Zm-.084 2.03 3.403 1.978c.051 5.471 1.251 10.929 2.814 15.63l-2.539-1.43c-2.361-5.155-3.708-10.938-3.678-16.178Zm9.019 24.617c-1.437-1.646-2.735-3.525-3.873-5.551l1.992 1.121a62.846 62.846 0 0 0 1.881 4.43Zm8.266 1.281c-.844 1.724-1.644 2.888-2.105 3.498-.108-.059-.216-.123-.323-.182l-.073-4.724 2.501 1.408Zm3.24-13.956c-.157 5.262-1.284 9.364-2.5 12.312l-3.273-1.842-.215-13.955 5.988 3.485Zm-7.795-4.535.216 13.987-4.268-2.402c-1.67-4.582-3.136-10.211-3.372-15.906l7.424 4.321Zm-7.449-6.413c.057-3.925.767-7.819 2.46-11.363l4.751 2.306.206 13.374-7.417-4.317Zm12.54-6.469c1.87 5.841 2.631 10.955 2.714 15.344l-6.03-3.507-.209-13.549 3.525 1.712Zm.347-4.424a57.468 57.468 0 0 1 2.879 3.995l-1.742-.847a74.249 74.249 0 0 0-1.137-3.148Zm-1.161 2.031-2.742-1.329-.084-5.471a79.716 79.716 0 0 1 2.826 6.8Zm-4.19 35.811c-.821-1.337-1.963-3.537-3.114-6.313l3.275 1.844.071 4.625c-.077-.05-.155-.103-.232-.156Zm-11.866-13.35c-3.375-5.884-5.228-11.977-5.564-17.278l2.853 1.661c-.183 5.04.889 10.624 2.914 15.781l-.159-.09-.044-.074Zm19.03 16.675a14.262 14.262 0 0 0 3.001-2.163l3.41 1.921c-1.932.719-4.115.772-6.411.242Zm8.645.686c8.191-4.736 8.408-19.827.484-33.643-7.924-13.814-21.035-21.2-29.226-16.464-.586.34-1.127.737-1.632 1.178l-.091-.045-.109.226c-6.335 5.828-5.933 19.591 1.348 32.284.04.07.082.137.122.207l-.086.154.267.15c2.681 4.545 5.919 8.372 9.348 11.268.048.046.094.097.142.144l.015-.016c6.702 5.592 14.098 7.634 19.418 4.557Zm-34.601.622-.081 7.947 40.393 23.639.233-8.035-40.545-23.551Z"/>
  <path fill="#AA4035" d="M433.935 268.323a3.889 3.889 0 0 1-2.082 3.46l-1.92 1.012-.952.501-5.64 2.974-.038-.035-1.434-1.33-3.702-3.43-3.187-2.954-17.613-16.317a2.463 2.463 0 0 1-.291-.331 2.46 2.46 0 0 1-.338-.607l-2.849-7.715-4.604-12.465.62-.315h.002l4.942-2.522 1.024-.522 2.496-1.273a3.888 3.888 0 0 1 3.682.078l1.368.772 3.293 1.86 17.713 9.998 3.293 1.86 4.872 2.751c.297.166.552.388.755.648.044.056.086.115.126.171.273.419.428.911.428 1.427l.036 22.304Z"/>
  <path fill="#93342F" d="M433.935 268.323a3.92 3.92 0 0 1-.552 2.01 3.89 3.89 0 0 1-1.529 1.45l-1.922 1.012-.952.503-5.64 2.97-1.472-1.363V251.03l11.603-6.436a2.6 2.6 0 0 1 .428 1.425l.036 22.304Z"/>
  <path fill="#B5574C" d="M424.781 251.319v22.58a2.563 2.563 0 0 1-1.478 2.336 2.538 2.538 0 0 1-2.37-.096l-2.765-1.591-3.188-1.831-17.903-10.294-3.188-1.835-4.767-2.74a2.583 2.583 0 0 1-1.293-2.238v-22.305c0-1.316.94-2.306 2.076-2.535h.002a2.514 2.514 0 0 1 1.755.285l2.335 1.324 3.287 1.862 17.696 10.02 3.277 1.856 5.216 2.954a2.588 2.588 0 0 1 1.308 2.248Z"/>
  <path fill="#FCC048" d="M429.933 246.885v25.91l-.953.503v-25.847a.478.478 0 0 0-.246-.418l-33.885-18.784 1.025-.522 33.812 18.739a.473.473 0 0 1 .247.419Z"/>
  <path fill="#3E6387" d="m426.435 240.365-9.215 4.96a.807.807 0 0 0-.421.708v27.589l-3.188-1.833v-28.152l9.531-5.132 3.293 1.86Z"/>
  <path fill="#81B5F1" d="m426.036 239.987.126.647-.265-.573-9.201 4.954a.78.78 0 0 0-.409.687v27.614l.512.322h-.512l-3.225-1.856v-27.999a.817.817 0 0 1 .426-.715l9.216-4.962 3.332 1.881Z"/>
  <path fill="#FCC048" d="M398.869 242.635h5.977l.597 4.001h-6.574v-4.001Z"/>
  <path fill="#F3725C" d="M422.519 260.294c0 1.382-.972 1.938-2.171 1.242-1.199-.695-2.17-2.377-2.17-3.758 0-1.382.971-1.938 2.17-1.242 1.199.693 2.171 2.377 2.171 3.758Zm-31.418-6.058 9.164-.601v4.2l-9.164.201v-3.8Z"/>
  <path fill="#FF8676" d="m392.35 254.673 6.664-.437v3.055l-6.664.144v-2.762Z"/>
  <path fill="#3E6387" d="m406.712 229.164-9.215 4.962a.784.784 0 0 0-.285.26.795.795 0 0 0-.136.446v27.591l-3.187-1.835v-28.152l9.53-5.132 3.293 1.86Z"/>
  <path fill="#81B5F1" d="m406.315 228.786.125.649-.264-.575-9.202 4.956a.766.766 0 0 0-.346.378.785.785 0 0 0-.063.308v27.613l.512.321h-.512l-3.225-1.856v-27.996a.816.816 0 0 1 .426-.718l9.217-4.962 3.332 1.882Z"/>
  <path fill="#CC973A" d="m415.537 241.578 3.229-1.757v-.478l-3.229-1.277-3.149 1.277v.478l3.149 1.757Z"/>
  <path fill="#FCC048" d="m415.537 241.098 3.229-1.754-3.229-1.757-3.149 1.757 3.149 1.754Z"/>
  <path fill="#CC973A" d="m405.289 235.592 3.229-1.754v-.48l-3.229-1.275-3.149 1.275v.48l3.149 1.754Z"/>
  <path fill="#FCC048" d="m405.289 235.115 3.229-1.757-3.229-1.755-3.149 1.755 3.149 1.757Z"/>
  <path fill="#3E6387" d="m416.265 240.508 1.044-.593c-.287-3.995-3.075-8.616-6.473-10.585-1.94-1.125-3.682-1.155-4.873-.289-1.01.733-1.623 2.11-1.623 4.007 0 .201.006.401.02.606l1.576.907.013.008 1.036-.591c.091-.729.358-1.295.755-1.665.71-.665 1.832-.708 3.096.023 2.147 1.246 3.887 4.258 3.887 6.731a4.6 4.6 0 0 1-.029.536l1.571.905Z"/>
  <path fill="#81B5F1" d="M409.798 229.821c-1.434-.833-2.76-1.066-3.835-.78-1.505.396-2.518 1.809-2.647 4.011l1.044.602 1.576.907c.135-1.312.823-2.11 1.804-2.248.597-.084 1.303.076 2.058.515 1.99 1.152 3.63 3.825 3.86 6.178l1.036.597 1.584.912c-.242-4.018-3.051-8.707-6.48-10.694Z"/>
  <path fill="#F4D8B7" d="M375.701 328.073c-9.044 0-16.375-4.444-16.375-9.923s7.331-9.92 16.375-9.92c9.043 0 16.375 4.441 16.375 9.92s-7.332 9.923-16.375 9.923Z"/>
  <path fill="#FBA594" d="M357.411 273.661s-1.286-.232-1.9.415c-.614.646.48 1.057.48 1.057-1.377 2.363-.502 2.691-.502 2.691 1.287 1.232 1.901.587 1.901.587.943-.523 2.046-3.49 2.046-3.49l-2.025-1.26Z"/>
  <path fill="#70B7F2" d="m367.386 260.512-1.203-5.011-2.237 6.854-6.916 11.15 2.573 1.73 8.167-10.342s1.205-2.355 2.475-5.073l-2.859.692Z"/>
  <path fill="#123945" d="M385.201 319.324c-.279-.981-4.606-1.261-4.606-1.261l-4.048 1.823c.14 2.242.558 2.802 1.535 2.802 6.421-.7 7.119-1.962 7.119-1.962s.279-.421 0-1.402Zm-10.229-3.911c-.279-.981-4.607-1.262-4.607-1.262l-4.048 1.821c.14 2.243.559 2.804 1.536 2.804 6.421-.7 7.119-1.961 7.119-1.961s.279-.421 0-1.402Z"/>
  <path fill="#FBA594" d="m381.124 286.052.696 16.27-1.437 16.836s-.974 2.317-3.653.755l-.489-16.731-1.747-22.617 6.63 5.487Zm-7.29-3.096-.769 16.268-2.945 16.639s-1.178 2.217-3.706.419l1.017-16.705.294-22.685 6.109 6.064Z"/>
  <path fill="#E25940" d="m379.728 276.925-11.027-1.983c-4.369 6.356-4.192 24.696-4.192 24.696 10.471 5.931 18.996.243 18.996.243l-1.076-19.887a3.305 3.305 0 0 0-.609-1.741 3.29 3.29 0 0 0-2.092-1.328Z"/>
  <path fill="#FBA594" d="M391.686 284.478s1.293-.185 1.883.484c.591.667-.518 1.037-.518 1.037 1.292 2.412.405 2.708.405 2.708-1.331 1.186-1.922.517-1.922.517-.923-.556-1.918-3.56-1.918-3.56l2.07-1.186Z"/>
  <path fill="#5EA2E5" d="m381.631 262.062-.828 4.697c-.8 4.537-.04 9.211 2.157 13.256 0 0-11.28 2.677-16.16-3.226l.135-1.48a22.031 22.031 0 0 0 .279-10.299l-1.6-7.543s.088-1.176.999-2.225a3.126 3.126 0 0 1 1.725-1.01 3.22 3.22 0 0 1 1.991.222l8.8 4.011a4.283 4.283 0 0 1 1.478 1.111 4.31 4.31 0 0 1 1.024 2.486Z"/>
  <path fill="#70B7F2" d="M378.378 259.239c-1.457.487-2.364 1.745-1.062 5.675 1.301 3.931 4.334 10.424 4.334 10.424l7.788 10.634 2.633-1.636-6.508-11.396-2.858-9.962s-1.413-4.712-4.327-3.739Z"/>
  <path fill="#FBA594" d="M378.647 244.694s1.77 10.688-2.478 10.021c-4.248-.666-5.734-5.615-5.734-5.615l2.644-3.991 5.568-.415Z"/>
  <path fill="#FBA594" d="m374.944 252.344.748 4.442s-3.129 1.217-4.635-.216l-.289-3.914 4.176-.312Z"/>
  <path fill="#123945" d="M376.441 248.934c1.779-.555.959-2.18.959-2.18s2.294-1.154 2.149-3.111c-.145-1.956-2.97-2.309-2.97-2.309s-5.46-.013-6.893 3.326c-1.432 3.338 1.219 8.903 1.219 8.903l2.361-.175 1.845-3.512 1.33-.942Z"/>
  <path fill="#FBA594" d="M377.44 249.513a1.585 1.585 0 0 1-1.457 1.699 1.582 1.582 0 0 1-1.69-1.463 1.579 1.579 0 1 1 3.147-.236Z"/>
  <path fill="#4F90C6" d="M377.392 257.578c-1.186 3.166-3.053 2.724-4.49 2.283-.808-.25-1.481-.497-1.82-.103-.94 1.095-5.884-1.27-1.368-4.686 4.515-3.414 7.678 2.506 7.678 2.506Z"/>
  <path fill="#376D91" d="M370.416 255.363c-2.295 1.197-.105 3.971.739 3.464.258-.154.642-.084 1.093-.015 1.019.16 2.375.318 3.375-2.129 1.442-3.526-5.207-1.32-5.207-1.32Z"/>
  <path fill="#123945" d="m377.524 245.339-7.724-.782c-3.803 3.453.566 7.655-4.234 9.823-4.799 2.17-2.057 8.756 3.043 10.64 5.1 1.883 7.457-2.82 5.879-5.871-1.58-3.051 1.842-5.57 2.572-7.889.73-2.318-1.579-3.051.464-5.921Z"/>
  <path fill="#AA4035" d="M376.769 262.752c.844-3.137 3.837-3.176 3.837-3.176s-1.274-1.31-2.437-1.55c0 0-2.984.37-3.591 4.028l2.191.698Z"/>
  <path fill="#AA4035" d="m370.931 275.404 1.121 6.871s-6.897-4.124-7.822-4.51a3.398 3.398 0 0 1-2.106-3.16v-4.247c0-3.802 2.573-11.784 4.571-12.913 1.128-.6 2.152-.712 2.989-.355 1.156.492 8.286 4.676 8.286 4.676l-5.346 10.682a3.419 3.419 0 0 1-1.693 2.956Z"/>
  <path fill="#B5574C" d="m378.95 280.006-3.689 2.154c-2.27 1.326-5.118-.318-5.118-2.956v-4.246c0-3.8 2.572-11.783 4.571-12.912 2.684-1.431 4.783-.089 5.165 3.744l.764 11.26a3.426 3.426 0 0 1-1.693 2.956Z"/>
  <path fill="#B5574C" d="m376.787 261.401 1.945 1.08s.157-.99-.684-1.331c-.842-.344-1.261.251-1.261.251Z"/>
  <path fill="#FCC048" d="m369.092 275.853-6.873-3.834s-.954 3.898 3.341 6.454c4.296 2.556 3.532-2.62 3.532-2.62Z"/>
  <path fill="#EAAA39" d="M362.124 271.924s-.764 1.15-.573 2.109l6.682 3.641s.191-1.533.764-1.917l-6.873-3.833Zm11.436 2.764v5.058c0 .121.072.216.169.257l1.228.712 2.15-2.566a.28.28 0 0 0 .138-.242l.831-3.776.186-.848-1.158-.679a.281.281 0 0 0-.282.002l-3.124 1.839a.283.283 0 0 0-.138.243Z"/>
  <path fill="#FCC048" d="M378.452 273.552v5.058a.278.278 0 0 1-.138.241l-3.125 1.839a.28.28 0 0 1-.422-.242v-5.057c0-.1.052-.193.138-.244l3.125-1.839a.28.28 0 0 1 .422.244Z"/>
  <path fill="#AA4035" d="m380.023 267.897.058 1.256-1.008.158a3.395 3.395 0 0 1-2.368-.495l-4.814-3.077 1.844-2.687 6.288 4.845Z"/>
  <path fill="#EAAA39" d="M360.463 256.189c0 .989.58 1.841 1.417 2.233l14.644 8.559c.264.156 1.553 1.026 2.595 1.067 1.365.054 2.473-1.112 2.473-2.482a2.485 2.485 0 0 0-.687-1.718 2.302 2.302 0 0 0-.276-.265l-.001-.002-.121-.07a2.34 2.34 0 0 0-.319-.184l-.29-.169-15.593-9.02s-.01 0-.028.004a2.441 2.441 0 0 0-2.371-.197 2.461 2.461 0 0 0-1.443 2.244Z"/>
  <path fill="#E78010" d="M379.672 267.316c-.145 0-.29-.027-.428-.083-.546-.227-.831-.847-.739-1.502-.043.31-.002.612.111.87-.021-.263.02-.544.132-.817.258-.632.818-1.028 1.372-1.028.145 0 .289.028.428.084.287.119.502.347.627.634a1.715 1.715 0 0 1-.131.817c-.258.63-.818 1.025-1.372 1.025Zm-.645-1.121c.043.279.202.517.451.618a.676.676 0 0 0 .261.053c.338 0 .68-.242.838-.628a1.028 1.028 0 0 0-.003-.817c.027.18.006.377-.072.568-.158.384-.5.625-.838.625a.677.677 0 0 1-.261-.05.72.72 0 0 1-.376-.369Zm.85-.795c-.135 0-.272.095-.335.249-.08.195-.012.408.151.476.034.014.07.022.105.022.135 0 .272-.098.336-.252.079-.195.011-.407-.152-.476a.291.291 0 0 0-.105-.019Zm1.215-.322-.008-.021.008.021Zm-.658-.725-.009-.004.009.004Z"/>
  <path fill="#D5750F" d="M379.797 266.147a.278.278 0 0 1-.105-.022c-.163-.068-.23-.28-.151-.475.063-.154.2-.25.336-.25a.29.29 0 0 1 .104.019c.164.069.232.281.152.476-.064.154-.2.252-.336.252Z"/>
  <path fill="#D5750F" d="M379.739 266.866a.684.684 0 0 1-.262-.052c-.248-.102-.408-.34-.45-.619a.72.72 0 0 0 .376.369.678.678 0 0 0 .261.051c.338 0 .68-.242.838-.626.078-.191.099-.388.072-.568.109.234.119.533.003.817-.158.386-.5.628-.838.628Z"/>
  <path fill="#D89C34" d="m378.508 265.712.001-.004-.001.004Zm2.544-.733Zm-.573-.607-.007-.001.007.001Zm-.016-.005-.012-.006.012.006Z"/>
  <path fill="#D5750F" d="M378.616 266.601a1.617 1.617 0 0 1-.111-.87v-.001l.002-.008v-.004l.001-.006.001-.004.001-.006.001-.006v-.004a1.9 1.9 0 0 1 .095-.354h.001l.003-.008.001-.002.002-.008.002-.002.002-.008.002-.004.002-.005a.051.051 0 0 0 .004-.01l.011-.025.012-.03c.266-.592.803-.965 1.336-.971h.014a1.153 1.153 0 0 1 .403.074l.008.004.016.006.009.004c.001 0 .003 0 .004.002.001 0 .003 0 .005.002.001 0 .003 0 .004.002.002 0 .003 0 .004.002l.013.006.006.002c.001 0 .002 0 .002.002l.007.002c.26.124.456.341.574.606v.002l.003.006.001.004.003.005v.002l.005.01.002.004.002.006.002.004a.01.01 0 0 0 .001.004l.003.009.001.002.004.008.001.002.002.008.001.002.008.021c.044.123.072.258.083.396a1.18 1.18 0 0 0-.627-.634 1.14 1.14 0 0 0-.429-.083c-.553 0-1.113.395-1.371 1.027a1.783 1.783 0 0 0-.132.817Z"/>
  <path fill="#E78010" d="m377.642 265.258-17.022-9.938a2.457 2.457 0 0 1 1.286-1.375 2.673 2.673 0 0 1 1.737.439c.019-.004.03-.004.03-.004s16.595 9.072 16.406 9.072c-.95 0-2.002.739-2.437 1.806Z"/>
  <path fill="#FCC048" d="m377.698 264.624-17.253-10.072a2.61 2.61 0 0 1 3.53-.587c.019-.004.029-.004.029-.004l16.479 9.532a2.72 2.72 0 0 0-2.785 1.131Z"/>
  <path fill="#C1625B" d="M378.266 261.274c-3.586-.195-5.112 3.873-5.699 6.269a1.25 1.25 0 0 1-1.861.772l-7.175-4.323a1.255 1.255 0 0 1-.546-1.47c.673-2.059 2.538-6.683 5.727-6.773l9.554 5.525Z"/>
  <path fill="#D6706E" d="M371.35 267.777a.533.533 0 0 0 .521-.406c.837-3.418 2.341-5.643 4.324-6.465l1.063-.197-7.337-4.311-1.38.08c-2.711.283-4.412 4.847-4.877 6.266a.546.546 0 0 0 .235.632l7.175 4.323c.086.05.179.078.276.078Z"/>
  <path fill="#EAAA39" d="M364.034 268.145a.628.628 0 0 0 .622-.56c.175-1.579 1.253-3.583 1.264-3.603a.63.63 0 0 0-.25-.852.625.625 0 0 0-.85.25c-.049.091-1.207 2.238-1.409 4.065a.628.628 0 0 0 .623.7Z"/>
  <path fill="#EAAA39" d="M363.658 265.055c-.3.456-.142 1.092.353 1.419.494.328 1.138.226 1.438-.23.3-.454.142-1.09-.353-1.417-.494-.33-1.138-.226-1.438.228Z"/>
  <path fill="#F3725C" d="M364.636 266.127c.157 0 .29-.066.365-.179a.416.416 0 0 0 .049-.33.587.587 0 0 0-.25-.343.606.606 0 0 0-.33-.103.422.422 0 0 0-.364.181.416.416 0 0 0-.049.33.583.583 0 0 0 .25.341.589.589 0 0 0 .329.103Z"/>
  <path fill="#EAAA39" d="M368.807 270.637a.628.628 0 0 0 .622-.56c.175-1.585 1.253-3.583 1.263-3.603a.628.628 0 0 0-.25-.852.624.624 0 0 0-.849.25c-.049.091-1.207 2.238-1.409 4.065a.626.626 0 0 0 .623.7Z"/>
  <path fill="#EAAA39" d="M368.31 267.57c-.3.456-.142 1.092.353 1.419.494.33 1.139.227 1.438-.23.3-.454.142-1.09-.352-1.417-.495-.33-1.139-.226-1.439.228Z"/>
  <path fill="#F3725C" d="M369.289 268.642a.423.423 0 0 0 .365-.179.42.42 0 0 0 .048-.33.608.608 0 0 0-.579-.444.42.42 0 0 0-.365.179.415.415 0 0 0-.048.33.603.603 0 0 0 .579.444Z"/>
  <path fill="#30596B" d="M389.082 307.236h.862v-13.237c0-.882.475-1.696 1.239-2.129l4.833-2.738c.32-.181.701-.179 1.018.008.318.185.508.517.508.887v12.091h.862v-12.091c0-.68-.35-1.293-.935-1.636a1.862 1.862 0 0 0-1.877-.013l-4.832 2.737a3.32 3.32 0 0 0-1.678 2.884v13.237Z"/>
  <path fill="#184349" d="M389.513 294.742a.741.741 0 0 0 .739-.743c0-.77.415-1.482 1.083-1.86l4.832-2.738a.703.703 0 0 1 .713.006.708.708 0 0 1 .354.62.74.74 0 1 0 1.478 0 2.18 2.18 0 0 0-1.087-1.901 2.168 2.168 0 0 0-2.184-.017l-4.832 2.737a3.625 3.625 0 0 0-1.835 3.153c0 .409.331.743.739.743Z"/>
  <path fill="#93342F" d="M384.453 307.838v24.345c0 .583.349 1.041.814 1.246.084.037 5.916 3.427 5.916 3.427l10.346-12.357c.414-.242.669-.689.669-1.168l3.997-18.176.898-4.086s-5.179-3.034-5.575-3.264a1.338 1.338 0 0 0-1.356.008l-15.041 8.853a1.353 1.353 0 0 0-.668 1.172Z"/>
  <path fill="#AA4035" d="m384.648 307.136 7.18 3.945s8.637-3.592 14.367-5.926l.898-4.086s-5.179-3.034-5.575-3.264a1.338 1.338 0 0 0-1.356.008l-15.041 8.853a1.331 1.331 0 0 0-.473.47Z"/>
  <path fill="#FCC048" d="M407.053 301.786v24.347c0 .481-.254.926-.667 1.169l-15.043 8.854c-.901.531-2.034-.123-2.034-1.17v-24.348c0-.48.254-.926.667-1.17l15.043-8.854c.45-.263.959-.234 1.355-.006.396.229.679.654.679 1.178Z"/>
  <path fill="#EAAA39" d="M408.01 302.363v24.347c0 .481-.254.926-.667 1.17l-15.043 8.853c-.9.529-2.034-.122-2.034-1.171v-24.347c0-.481.254-.926.667-1.17l15.043-8.853c.45-.266.959-.234 1.355-.006s.679.653.679 1.177Z"/>
  <path fill="#30596B" d="M397.199 332.229a.386.386 0 0 0 .193-.052l7.379-4.344a3.874 3.874 0 0 0 1.9-3.328v-18.537c0-.7-.33-1.325-.906-1.717a2.044 2.044 0 0 0-2.209-.074l-10.05 5.915a3.873 3.873 0 0 0-1.9 3.328v15.429c0 .21.172.384.383.384a.385.385 0 0 0 .383-.384V313.42c0-1.092.583-2.113 1.521-2.665l10.05-5.916a1.292 1.292 0 0 1 1.392.047c.362.248.57.642.57 1.082v18.537a3.104 3.104 0 0 1-1.521 2.665l-7.379 4.342a.386.386 0 0 0 .194.717Z"/>
  <path fill="#93342F" d="M393.907 321.284v14.699c0 .351.211.627.492.75.05.024 3.571 2.071 3.571 2.071l6.247-7.46a.82.82 0 0 0 .404-.706l2.413-10.975.543-2.466s-3.127-1.833-3.367-1.971a.807.807 0 0 0-.818.006l-9.081 5.344a.815.815 0 0 0-.404.708Z"/>
  <path fill="#FCC048" d="M407.552 317.63v14.699c0 .29-.154.559-.404.708l-9.082 5.344a.816.816 0 0 1-1.228-.706v-14.701c0-.291.153-.56.403-.706l9.082-5.346a.809.809 0 0 1 .818-.004c.24.138.411.396.411.712Z"/>
  <path fill="#B5574C" d="M408.13 317.977v14.701c0 .29-.154.559-.403.706l-9.082 5.346a.817.817 0 0 1-1.229-.708v-14.699c0-.291.154-.56.403-.706l9.083-5.346a.804.804 0 0 1 .818-.004.81.81 0 0 1 .41.71Z"/>
  <path fill="#93342F" d="M388.608 326.037v5.411a.3.3 0 0 1-.181.276c-.018.008-1.314.761-1.314.761l-2.3-2.745a.306.306 0 0 1-.148-.26l-.888-4.04-.2-.908s1.151-.675 1.239-.725a.3.3 0 0 1 .301.002l3.343 1.967a.303.303 0 0 1 .148.261Z"/>
  <path fill="#FCC048" d="M383.585 324.692v5.41c0 .107.056.207.148.259l3.343 1.968a.3.3 0 0 0 .452-.26v-5.41a.297.297 0 0 0-.148-.259l-3.343-1.968a.3.3 0 0 0-.452.26Z"/>
  <path fill="#B5574C" d="M383.372 324.821v5.41a.3.3 0 0 0 .149.259l3.342 1.968a.3.3 0 0 0 .452-.26v-5.41a.303.303 0 0 0-.148-.261l-3.343-1.968a.3.3 0 0 0-.301 0 .3.3 0 0 0-.151.262Z"/>
  <path fill="#30596B" d="m468.217 285.293-.067-51.902c-.003-2.168 2.332-3.529 4.206-2.449l31.956 18.402a2.823 2.823 0 0 1 1.412 2.433l.21 52.146c.008 1.634-1.311 2.81-2.764 2.835-.483.01-.98-.109-1.45-.382l-32.101-18.648a2.818 2.818 0 0 1-1.402-2.435Z"/>
  <path fill="#FFEDD5" d="m467.998 285.09-4.751-48.086s5.036-2.808 5.569-3.287a2.653 2.653 0 0 1 3.12-.336l30.402 17.509a2.681 2.681 0 0 1 1.342 2.314l.202 49.612a2.652 2.652 0 0 1-1.066 2.154c-.447.337-6.631 3.859-6.631 3.859l-26.853-21.42a2.683 2.683 0 0 1-1.334-2.319Z"/>
  <path fill="#30596B" d="m461.73 289.042-.067-51.9c-.003-2.17 2.332-3.529 4.206-2.451l31.956 18.402a2.825 2.825 0 0 1 1.41 2.435l.212 52.146c.007 1.632-1.311 2.808-2.763 2.835a2.795 2.795 0 0 1-1.452-.382l-32.1-18.647a2.82 2.82 0 0 1-1.402-2.438Z"/>
  <path fill="#E25940" d="M497.825 256.344a2.817 2.817 0 0 0-1.41-2.434l-31.957-18.401c-1.873-1.081-4.208.28-4.205 2.448l.067 51.901a2.82 2.82 0 0 0 1.401 2.437l32.101 18.647c.469.271.968.392 1.452.382a2.818 2.818 0 0 0 2.763-2.835l-.212-52.145Z"/>
  <path fill="#FFEDD5" d="m485.527 276.541-2.197-1.238c.986-1.149 1.764-2.609 2.227-4.266.136-.488.261-1.047.351-1.677l2.205 1.283.072-.123c-.084 2.685-.969 4.865-2.658 6.021Zm-11.259-26.002a8.792 8.792 0 0 0-2.34 1.716l-1.815-.881c.131-.094.265-.184.406-.266 1.093-.631 2.378-.799 3.749-.569Zm-4.939 1.542 1.934.94c-.844 1.104-1.453 2.439-1.804 3.981-.111.488-.191.993-.247 1.51l-1.662-.967c.034-2.264.627-4.187 1.779-5.464Zm12.389 23.44c-.663.569-1.392.995-2.153 1.234l-.292-.124c.291-.39.701-1.008 1.127-1.853l1.318.743Zm3.272-6.695a12.304 12.304 0 0 1-.373 1.946c-.439 1.571-1.208 2.965-2.17 4.036l-1.631-.919c.689-1.608 1.329-3.817 1.472-6.635l2.702 1.572Zm.077-1.088-2.749-1.599c.007-2.394-.346-5.184-1.29-8.376l1.49.723c2.081 3.701 2.62 6.852 2.549 9.252Zm.077-7.977c1.913 3.348 2.925 6.817 3.036 9.788l-2.165-1.259c.154-2.356-.229-5.452-2.021-9.086l1.15.557Zm-4.367-5.601a23.288 23.288 0 0 1 3.399 4.044l-.963-.468a30.631 30.631 0 0 0-2.436-3.576Zm-4.18-2.886c.081.037.162.072.243.111l.05 3.28-2.115-1.028c.488-.836 1.09-1.63 1.822-2.363Zm-3.73 1.437a8.049 8.049 0 0 1 2.546-1.62c-.6.669-1.102 1.378-1.53 2.113l-1.016-.493Zm-2.727 6.341c.05-.632.138-1.246.271-1.829.335-1.476.932-2.734 1.762-3.759l1.249.606c-.92 1.901-1.355 3.962-1.452 6.046l-1.83-1.064Zm-.045 1.107 1.855 1.08c.028 2.983.683 5.961 1.535 8.523l-1.384-.778c-1.288-2.814-2.023-5.967-2.006-8.825Zm4.918 13.426a18.04 18.04 0 0 1-2.112-3.028l1.087.612c.334.88.683 1.689 1.025 2.416Zm4.509.698c-.461.94-.897 1.575-1.149 1.909l-.176-.1-.04-2.575 1.365.766Zm1.767-7.61c-.086 2.87-.701 5.107-1.364 6.713l-1.785-1.004-.117-7.61 3.266 1.901Zm-4.252-2.474.118 7.629-2.328-1.31c-.91-2.499-1.71-5.57-1.838-8.674l4.048 2.355Zm-4.063-3.498c.031-2.141.419-4.264 1.342-6.198l2.591 1.259.113 7.294-4.046-2.355Zm6.84-3.527c1.02 3.184 1.435 5.974 1.48 8.368l-3.289-1.912-.114-7.39 1.923.934Zm.189-2.414a31.58 31.58 0 0 1 1.57 2.178l-.95-.46a41.188 41.188 0 0 0-.62-1.718Zm-.633 1.11-1.496-.728-.045-2.983a43.724 43.724 0 0 1 1.541 3.711Zm-2.285 19.53c-.448-.731-1.071-1.93-1.698-3.443l1.786 1.004.038 2.523-.126-.084Zm-6.472-7.282c-1.84-3.209-2.851-6.532-3.034-9.423l1.556.905c-.1 2.751.484 5.794 1.589 8.608l-.087-.049-.024-.041Zm10.379 9.094a7.68 7.68 0 0 0 1.636-1.18l1.861 1.047c-1.055.394-2.245.423-3.497.133Zm4.715.374c4.467-2.582 4.585-10.813.264-18.347-4.322-7.534-11.472-11.562-15.94-8.981-.32.186-.614.404-.89.644l-.05-.024-.059.123c-3.455 3.178-3.236 10.685.735 17.606l.067.113-.047.084.146.082c1.462 2.478 3.227 4.566 5.098 6.146l.077.078.008-.01c3.656 3.051 7.689 4.165 10.591 2.486Zm-18.871.339-.044 4.334 22.03 12.892.127-4.381-22.113-12.845Z"/>
  <path fill="#337A69" d="M551.726 244.908c0 .135 0 .273-.007.406-.212 10.103-8.436 18.228-18.552 18.228-10.248 0-18.558-8.345-18.558-18.634a18.58 18.58 0 0 1 2.954-10.084c3.303-5.142 9.057-8.548 15.604-8.548 10.248 0 18.559 8.343 18.559 18.632Z"/>
  <path fill="#2B6D5D" d="M530.491 253.694a12.4 12.4 0 0 0-7.729-2.691c-1.36 0-2.667.218-3.89.62a25.045 25.045 0 0 1-4.247-6.058c-.01-.183-.014-.366-.016-.552v-.105a18.58 18.58 0 0 1 2.954-10.084c3.222 8.084 9.999 12.519 17.332 13.668a17.53 17.53 0 0 0-4.404 5.202Zm21.21-7.872c-.177-.066-.355-.13-.534-.191.185-.103.369-.208.552-.317-.004.169-.01.339-.018.508Z"/>
  <path fill="#246252" d="M516.346 252.783a18.565 18.565 0 0 1-1.721-7.218 25.006 25.006 0 0 0 4.247 6.058c-.891.293-1.736.684-2.526 1.16Z"/>
  <path fill="#123945" d="m523.802 312.995 4.857-43.881h3.468l7.576 41.214c-5.226 9.368-15.901 2.667-15.901 2.667Z"/>
  <path fill="#3D8F7D" d="M563 262.148c0 .125 0 .255-.008.38-.196 9.441-7.884 17.033-17.336 17.033-9.578 0-17.344-7.797-17.344-17.413 0-3.473 1.012-6.707 2.76-9.425 3.088-4.806 8.465-7.988 14.584-7.988 9.578 0 17.344 7.797 17.344 17.413Z"/>
  <path fill="#BCDBDD" d="m558.8 273.511.002-.004-.002.004Z"/>
  <path fill="#33806E" d="M550.369 275.825c-6.057 0-12.102-1.981-16.738-6.11a12.461 12.461 0 0 0 1.612-5.9c.006-.092.006-.184.006-.273 0-2.215-.573-4.296-1.575-6.101 4.158 5.654 10.7 8.339 17.262 8.339 4.22.002 8.448-1.109 12.056-3.252a17.393 17.393 0 0 1-4.15 10.932l-.012.012c-.002.004-.003.008-.007.01l-.008.009-.014.016-.002.004c-.423.491-.872.959-1.345 1.402a28.032 28.032 0 0 1-7.085.912Zm-17.78-20.02a12.66 12.66 0 0 0-2.098-2.111c.185-.33.377-.654.581-.971a21.743 21.743 0 0 0 1.517 3.082Z"/>
  <path fill="#9EC4C3" d="M545.588 279.561h-.016.016Zm.161 0h.016-.016Zm-.27 0h-.019.019Zm-.058 0h-.016.016Zm-.029-.002h-.014.014Zm.627-.002h.017-.017Zm.027 0h.02-.02Zm-.847-.002h-.015.015Zm-.027 0h-.015.015Zm.983 0 .021-.002-.021.002Zm-1.091-.004h-.02.02Zm1.198 0Zm-1.253-.002h-.019.019Zm-.192-.007h-.025.025Zm-.054-.002c-.01-.002-.02-.002-.028-.002.01 0 .018 0 .028.002Zm-.028-.002-.027-.002.027.002Zm-10.49-4.276a.1.1 0 0 0-.016-.014l.016.014Z"/>
  <path fill="#2B7361" d="M545.656 279.561h-.251c-.004-.002-.009-.002-.013-.002h-.082l-.015-.002h-.084c-.004-.002-.008-.002-.012-.002h-.054c-.006-.002-.012-.002-.017-.002h-.037l-.018-.002h-.037c-.008 0-.013 0-.019-.002h-.037l-.018-.002h-.036c-.006-.002-.014-.002-.02-.002h-.008c-.005 0-.013 0-.021-.002h-.033l-.023-.001h-.029l-.002-.002h-.028c-.009-.002-.017-.002-.027-.002l-.027-.002h-.002a17.233 17.233 0 0 1-10.459-4.272l-.002-.002-.016-.014-.01-.008c-.001-.003-.005-.005-.009-.007-.004-.006-.008-.008-.012-.012l-.006-.006a17.505 17.505 0 0 1-2.573-2.837 12.2 12.2 0 0 0 .814-.906s.002 0 .002-.002a.146.146 0 0 0 .021-.028l.004-.002.021-.027.002-.004.022-.025c0-.002.002-.004.004-.004.005-.01.013-.018.019-.025l.004-.006c.006-.008.013-.016.019-.026a.004.004 0 0 0 .004-.004l.022-.025.001-.004.022-.027.002-.004a.647.647 0 0 1 .023-.027v-.002c.371-.478.707-.985 1.006-1.515 4.636 4.129 10.681 6.11 16.738 6.11 2.387 0 4.777-.308 7.084-.912a17.235 17.235 0 0 1-11.191 4.638h-.03c-.007.002-.015.002-.023.002h-.033l-.021.002h-.035c-.006 0-.014 0-.02.002h-.091c-.006.002-.011.002-.017.002h-.082l-.01.002h-.244Z"/>
  <path fill="#337A69" d="M535.249 263.542c0 .089 0 .181-.006.273-.141 6.797-5.676 12.264-12.481 12.264-6.896 0-12.489-5.614-12.489-12.537 0-2.502.731-4.83 1.989-6.787 2.222-3.459 6.094-5.752 10.5-5.752 6.894 0 12.487 5.615 12.487 12.539Z"/>
  <path fill="#246756" d="M532.505 271.384c0-.002.002-.002.004-.004a.004.004 0 0 0-.004.004Zm.121-.152v-.002.002Z"/>
  <path fill="#2B6D5D" d="M526.155 273.388c-6.339 0-12.656-3.01-15.872-9.405a11.454 11.454 0 0 1-.01-.373v-.068c0-2.502.731-4.83 1.989-6.787 2.55 6.401 8.415 9.402 14.301 9.402 3.039 0 6.082-.8 8.68-2.342a12.496 12.496 0 0 1-2.617 7.415v.002l-.024.027-.002.004a.278.278 0 0 1-.021.027l-.002.004a.183.183 0 0 0-.021.026c0 .001-.002.003-.004.003-.006.01-.014.018-.02.026l-.004.006c-.005.007-.013.015-.019.025-.002.002-.004.002-.004.004l-.021.025-.002.004c-.008.01-.016.018-.022.027-.001 0-.001.002-.003.002a.151.151 0 0 1-.022.028c0 .002-.002.002-.002.002a12.43 12.43 0 0 1-1.177 1.259 20.18 20.18 0 0 1-5.101.657Z"/>
  <path fill="#9EC4C3" d="M522.935 276.077h.022-.022Zm-.351 0h-.021.021Zm-.159-.002c-.008 0-.014 0-.022-.002a.075.075 0 0 0 .022.002Zm.976-.012c.008-.002.018-.002.026-.002-.008 0-.016 0-.026.002Zm-1.291-.002h-.025.025Zm1.523-.012Z"/>
  <path fill="#0D2E36" d="M528.016 274.919Z"/>
  <path fill="#9EC4C3" d="m521.679 276.032-.031-.002.031.002Zm-.156-.014-.037-.004.037.004Zm-7.222-3.256c-.004-.004-.009-.007-.013-.013a.04.04 0 0 0 .013.013Z"/>
  <path fill="#246252" d="M522.762 276.079h-.136c-.007 0-.015 0-.025-.002h-.097c-.008 0-.014 0-.021-.002h-.059c-.007 0-.015 0-.021-.002h-.041c-.006 0-.011 0-.017-.002h-.039c-.008 0-.016 0-.023-.002h-.039c-.006-.002-.012-.002-.018-.002h-.023l-.016-.002h-.023c-.006 0-.01 0-.015-.002h-.026c-.003 0-.009 0-.013-.002h-.025c-.006 0-.01 0-.014-.002h-.025c-.006-.002-.01-.002-.016-.002-.008 0-.017 0-.025-.002h-.014l-.025-.002h-.013c-.01-.002-.018-.002-.028-.002h-.011l-.028-.004h-.011l-.029-.002h-.01l-.029-.003h-.012l-.029-.002c-.002 0-.006 0-.01-.002-.009 0-.019 0-.029-.002h-.009c-.01-.002-.02-.002-.032-.002-.001-.002-.005-.002-.007-.002l-.031-.002c-.002 0-.006 0-.008-.002l-.033-.002h-.006l-.033-.004h-.006l-.035-.004h-.004l-.037-.004h-.001l-.037-.004h-.002c-.014-.002-.026-.004-.039-.004h-.002a12.408 12.408 0 0 1-7.038-3.183c-.002-.002-.004-.004-.006-.004-.005-.008-.013-.014-.021-.022a.028.028 0 0 1-.008-.006l-.019-.017-.012-.012a.035.035 0 0 1-.013-.014.07.07 0 0 1-.016-.013l-.012-.01a.11.11 0 0 0-.019-.018.027.027 0 0 1-.006-.005l-.021-.022c-.002-.002-.004-.002-.004-.004a12.522 12.522 0 0 1-3.927-8.694c3.216 6.396 9.533 9.406 15.872 9.406 1.719 0 3.439-.222 5.102-.657a12.583 12.583 0 0 1-.389.347 12.423 12.423 0 0 1-7.236 2.971h-.004l-.035.002h-.005c-.01.002-.022.002-.033.002-.002 0-.006 0-.01.002h-.029c-.002.002-.006.002-.01.002-.01 0-.019 0-.027.002h-.014l-.025.002h-.014c-.007 0-.017 0-.025.002h-.013c-.01 0-.018 0-.026.002h-.015c-.008 0-.016 0-.023.002h-.039c-.006.002-.01.002-.016.002h-.023l-.016.002h-.039l-.023.002h-.039c-.004 0-.009 0-.015.002h-.078c-.008.002-.015.002-.023.002h-.078c-.006 0-.011 0-.017.002h-.156Z"/>
  <path fill="#123945" d="m530.047 290.01-10.755-5.573-.693 1.741 9.713 8.708 1.735-4.876Z"/>
  <path fill="#3D8F7D" d="M522.762 283.392c0 .053 0 .108-.004.16-.083 3.966-3.311 7.154-7.282 7.154-4.022 0-7.285-3.274-7.285-7.314 0-1.458.426-2.817 1.162-3.958a7.267 7.267 0 0 1 6.123-3.355c4.024 0 7.286 3.275 7.286 7.313Z"/>
  <path fill="#0F333D" d="m521.018 288.14.004-.004c-.002 0-.002.002-.004.004Zm.084-.1.01-.011a.035.035 0 0 0-.01.011Zm.014-.015a.034.034 0 0 1 .009-.014.048.048 0 0 0-.009.014Zm.027-.034c.002-.005.008-.009.009-.015l-.009.015Zm.039-.05Z"/>
  <path fill="#33806E" d="M517.457 289.136c-3.698 0-7.384-1.755-9.26-5.486-.004-.073-.004-.145-.006-.219v-.039c0-1.458.426-2.817 1.162-3.958 1.485 3.734 4.907 5.485 8.34 5.485 1.774 0 3.548-.466 5.065-1.367a7.308 7.308 0 0 1-1.225 3.907c-.006.006-.01.012-.014.018v.002a.064.064 0 0 0-.011.016l-.002.003a.06.06 0 0 1-.01.014l-.002.004-.01.014-.004.005c-.004.004-.005.01-.009.014l-.002.004-.01.014-.004.006-.008.011-.006.008a.035.035 0 0 1-.005.008c-.002.004-.004.008-.008.01l-.006.007-.006.01a.028.028 0 0 1-.006.008l-.007.012-.002.004c-.072.097-.144.195-.22.29a.112.112 0 0 1-.013.016v.002l-.012.015-.004.002c-.002.006-.008.01-.01.016-.002 0-.002 0-.002.002a.127.127 0 0 1-.011.013l-.004.004a.036.036 0 0 0-.01.014c-.002 0-.002.002-.004.004-.004.004-.005.008-.009.011-.002.002-.004.004-.004.006-.004.004-.008.008-.01.012l-.006.004-.008.012a.03.03 0 0 1-.005.007c-.004.002-.006.006-.008.01a.016.016 0 0 0-.008.008c-.002.002-.004.006-.008.008a.043.043 0 0 1-.007.01l-.006.005c-.002.006-.006.01-.01.014l-.004.004-.012.014-.001.002c-.181.21-.371.409-.573.598-.969.254-1.973.382-2.975.382Z"/>
  <path fill="#669E88" d="M515.531 290.706h.015-.015Zm-.319-.004h-.013.013Zm-.116-.006h-.014.014Zm-.16-.01h-.016.016Zm-.023-.002h-.016.016Zm-.022-.002h-.017.017Zm-.023-.002h-.019.019Zm-.091-.007c-.006 0-.014 0-.022-.002.008.002.014.002.022.002Z"/>
  <path fill="#2B7361" d="M515.476 290.706h-.15l-.011-.002h-.057c-.006 0-.009 0-.013-.002h-.047c-.004 0-.006 0-.01-.002h-.037c-.003 0-.005 0-.009-.002h-.037c-.002-.002-.006-.002-.01-.002h-.021l-.016-.002h-.023l-.008-.002h-.023c-.004-.002-.01-.002-.016-.002h-.005l-.018-.002h-.006c-.006 0-.011 0-.017-.002h-.022c-.002-.002-.005-.002-.007-.002h-.016l-.006-.002h-.017c-.002 0-.004 0-.006-.002h-.019l-.004-.001h-.018l-.006-.002h-.017l-.004-.002c-.008 0-.014 0-.019-.002h-.004c-.008 0-.014 0-.022-.002l-.021-.002h-.002l-.023-.002a7.256 7.256 0 0 1-3.95-1.7 7.318 7.318 0 0 1-2.562-5.317c1.876 3.731 5.562 5.486 9.26 5.486 1.002 0 2.006-.128 2.975-.382-.064.061-.13.119-.196.176l-.008.007-.004.002a7.217 7.217 0 0 1-4.239 1.749h-.002c-.006.002-.014.002-.022.002h-.002l-.019.002h-.004c-.008 0-.014 0-.019.002h-.03c-.003.002-.009.002-.015.002h-.008c-.004 0-.01 0-.013.002h-.031l-.016.002h-.031c-.004 0-.01 0-.014.002h-.044l-.01.002h-.068c-.006.002-.01.002-.014.002h-.147Z"/>
  <path fill="#337A69" d="M511.627 298.45c0 .063 0 .129-.004.193-.101 4.791-4.002 8.645-8.799 8.645-4.861 0-8.803-3.958-8.803-8.838 0-1.762.515-3.404 1.402-4.785a8.785 8.785 0 0 1 7.401-4.053c4.861 0 8.803 3.958 8.803 8.838Z"/>
  <path fill="#2B6D5D" d="M501.554 302.617a5.877 5.877 0 0 0-3.666-1.277c-.644 0-1.264.103-1.844.294a11.864 11.864 0 0 1-2.016-2.874 5.617 5.617 0 0 1-.006-.261l-.001-.016v-.033c0-1.762.515-3.404 1.402-4.785 1.528 3.836 4.743 5.939 8.221 6.485a8.283 8.283 0 0 0-2.09 2.467Zm10.062-3.734c-.084-.031-.169-.06-.255-.09.09-.048.177-.099.262-.15l-.007.24Z"/>
  <path fill="#246252" d="M494.845 302.186a8.825 8.825 0 0 1-.817-3.426 11.888 11.888 0 0 0 2.015 2.874 5.95 5.95 0 0 0-1.198.552Z"/>
  <path fill="#123945" d="m498.381 330.746 2.305-20.816h1.645l3.592 19.55c-2.477 4.444-7.542 1.266-7.542 1.266Z"/>
  <path fill="#3D8F7D" d="M516.975 306.627c0 .059 0 .121-.004.18-.093 4.478-3.74 8.079-8.224 8.079-4.543 0-8.226-3.698-8.226-8.259 0-1.647.479-3.182 1.308-4.47a8.214 8.214 0 0 1 6.918-3.791c4.544 0 8.228 3.699 8.228 8.261Z"/>
  <path fill="#79B09A" d="M515.839 310.813a.057.057 0 0 0 .01-.013l-.01.013Z"/>
  <path fill="#33806E" d="M510.982 313.114c-2.872 0-5.739-.94-7.939-2.897a5.94 5.94 0 0 0 .765-2.8c.002-.043.002-.086.002-.129 0-1.05-.27-2.037-.745-2.893 1.971 2.681 5.074 3.954 8.187 3.956 2.002 0 4.006-.526 5.719-1.544a8.236 8.236 0 0 1-1.091 3.936l-.01.02-.004.006a.028.028 0 0 1-.008.011l-.006.012-.003.008a.06.06 0 0 1-.01.014v.002a8.338 8.338 0 0 1-1.495 1.865 13.284 13.284 0 0 1-3.362.433Zm-8.434-9.495a5.818 5.818 0 0 0-.994-1.002c.087-.156.18-.31.275-.46.208.52.449 1.008.719 1.462Z"/>
  <path fill="#669E88" d="M508.887 314.885h.016-.016Zm-.386-.002h-.016.016Zm.743-.01Zm-1.235-.02-.023-.002a.093.093 0 0 0 .023.002Z"/>
  <path fill="#2B7361" d="M508.747 314.886h-.132l-.01-.001h-.079l-.016-.002h-.052c-.002-.002-.006-.002-.01-.002h-.027c-.004 0-.01 0-.016-.002h-.035l-.017-.002h-.026l-.009-.002h-.025l-.018-.002h-.01c-.006 0-.009 0-.015-.002h-.027l-.008-.002h-.018c-.004 0-.005 0-.007-.002h-.028c-.005-.002-.011-.002-.019-.002h-.006c-.006-.002-.013-.002-.019-.002h-.006c-.008-.002-.014-.002-.021-.002h-.004c-.008-.002-.016-.002-.022-.002h-.004c-.007-.002-.015-.002-.023-.002l-.004-.002c-.008 0-.015 0-.023-.002h-.002c-.008 0-.016 0-.023-.002h-.002l-.026-.002a8.192 8.192 0 0 1-5.045-2.398c0-.002 0-.002-.002-.002l-.013-.015-.004-.004-.012-.012-.006-.006-.009-.01a.081.081 0 0 1-.01-.009l-.006-.006-.012-.012-.001-.004a7.985 7.985 0 0 1-.748-.893 5.83 5.83 0 0 0 .804-1.01l.008-.013a.046.046 0 0 0 .007-.014h.002a6.26 6.26 0 0 0 .132-.224c2.201 1.957 5.067 2.897 7.939 2.897 1.134 0 2.266-.146 3.362-.433a8.188 8.188 0 0 1-5.1 2.192h-.029a.086.086 0 0 1-.021.002h-.006c-.006 0-.014 0-.02.002h-.033c-.006.002-.011.002-.019.002h-.025c-.002.002-.004.002-.008.002h-.043c-.002.002-.006.002-.01.002h-.05c-.006.002-.012.002-.016.002h-.077l-.01.001h-.13Z"/>
  <path fill="#337A69" d="M503.811 307.288c0 .043 0 .086-.002.129-.068 3.225-2.692 5.818-5.921 5.818-3.271 0-5.923-2.663-5.923-5.947 0-1.187.346-2.291.943-3.219a5.912 5.912 0 0 1 4.98-2.729c3.272 0 5.923 2.663 5.923 5.948Z"/>
  <path fill="#2B6D5D" d="M499.498 311.958c-3.007 0-6.003-1.427-7.528-4.461a3.44 3.44 0 0 1-.005-.175v-.034c0-1.187.346-2.291.943-3.219 1.21 3.036 3.991 4.459 6.784 4.459a8.099 8.099 0 0 0 4.117-1.111 5.952 5.952 0 0 1-.897 3.024h-.002a.032.032 0 0 1-.008.014l-.008.013a5.83 5.83 0 0 1-.804 1.01v.002l-.081.08c-.029.029-.06.059-.092.086a9.538 9.538 0 0 1-2.419.312Z"/>
  <path fill="#669E88" d="M497.952 313.235h.01-.01Zm-.15 0-.008-.002c.002.002.006.002.008.002Zm.185-.002H498h-.013Zm-.239 0h-.011.011Zm-.019 0h-.011.011Zm-.019-.002h-.011.011Zm-.019 0h-.011.011Zm-.018 0h-.012.012Zm-.019 0c-.004-.002-.008-.002-.012-.002.004 0 .008 0 .012.002Zm-.018-.002h-.013.013Zm.52 0h.009-.009Zm-.54 0c-.004 0-.008 0-.011-.002.003.002.007.002.011.002Zm-.018-.002h-.012.012Zm-.019 0c-.005 0-.008 0-.012-.002a.025.025 0 0 0 .012.002Zm-.019-.002h-.012.012Zm-.037-.002h-.012.012Zm-.019 0c-.004-.002-.008-.002-.012-.002.004 0 .008 0 .012.002Zm-.018-.002-.013-.001a.053.053 0 0 0 .013.001Zm-.019-.001h-.013.013Zm-.037-.002-.014-.002.014.002Zm-.018-.002h-.015.015Zm-.037-.002c-.005-.002-.01-.002-.015-.002.005 0 .01 0 .015.002Zm-.02-.002c-.004-.002-.009-.002-.014-.002.005 0 .01 0 .014.002Zm-.018-.002-.015-.002.015.002Zm-.018-.002-.016-.002.016.002Zm1.167-.004.037-.002-.037.002Zm-1.205 0-.016-.002.016.002Zm-.036-.004-.036-.004.036.004Zm1.315-.004a5.823 5.823 0 0 0 1.821-.513v.002a5.848 5.848 0 0 1-1.821.511Z"/>
  <path fill="#0D2E36" d="M500.381 312.685v-.002a5.836 5.836 0 0 0 0 .002Z"/>
  <path fill="#669E88" d="M497.207 313.196Zm-2.706-1.029-.012-.008.012.008Zm-.03-.022Zm-.016-.01a.035.035 0 0 0-.008-.005l.008.005Zm-.044-.033c-.002 0-.004-.002-.006-.004.002.002.004.004.006.004Zm-.015-.01-.005-.003.005.003Zm-.015-.011-.003-.002.003.002Zm-.014-.01c-.001-.002-.002-.002-.003-.002.001 0 .002 0 .003.002Z"/>
  <path fill="#246252" d="M497.888 313.235h-.086c-.001 0-.005 0-.007-.002h-.077c-.003 0-.005 0-.008-.002h-.056c-.004-.002-.008-.002-.012-.002h-.026c-.003 0-.007 0-.011-.002h-.026c-.004 0-.008 0-.012-.002h-.025l-.013-.002h-.025c-.004-.002-.008-.002-.012-.002h-.006l-.013-.001h-.024c-.005-.002-.009-.002-.014-.002h-.005l-.014-.002h-.018c-.002-.002-.003-.002-.005-.002h-.018c-.005-.002-.01-.002-.015-.002h-.004c-.005-.002-.01-.002-.015-.002h-.003l-.015-.002h-.004l-.016-.002h-.003c-.005 0-.01 0-.015-.002h-.003l-.017-.002h-.001l-.018-.002h-.001l-.036-.004h-.001a5.86 5.86 0 0 1-2.69-1.018h-.001c-.004-.004-.009-.006-.013-.009l-.002-.002-.013-.008-.002-.002-.012-.008-.003-.004-.011-.006c-.001-.002-.003-.004-.005-.004l-.008-.005-.007-.006-.007-.004a.055.055 0 0 1-.008-.006l-.006-.006-.009-.006c-.002 0-.003-.002-.005-.004a.04.04 0 0 0-.009-.005l-.005-.004-.01-.008-.004-.002a.028.028 0 0 0-.011-.008c0-.002-.001-.002-.002-.002l-.012-.01h-.002l-.013-.011a5.937 5.937 0 0 1-2.368-4.551c1.525 3.034 4.521 4.461 7.528 4.461.815 0 1.631-.105 2.419-.312-.015.016-.031.029-.046.043a5.815 5.815 0 0 1-1.49.994 5.816 5.816 0 0 1-1.821.513l-.037.006-.037.002v.002l-.148.012h-.002l-.017.002-.017.001h-.024c-.004.002-.008.002-.013.002h-.018c-.002 0-.004 0-.006.002h-.031l-.008.002h-.029c-.002 0-.004 0-.007.002h-.037l-.01.002h-.045l-.011.002h-.082c-.004.002-.008.002-.012.002h-.081Z"/>
  <path fill="#123945" d="m501.342 319.843-5.1-2.644-.329.827 4.607 4.129.822-2.312Z"/>
  <path fill="#3D8F7D" d="M497.888 316.704v.076a3.462 3.462 0 0 1-3.455 3.392 3.461 3.461 0 0 1-3.455-3.468c0-.693.201-1.336.55-1.878a3.449 3.449 0 0 1 2.905-1.591 3.463 3.463 0 0 1 3.455 3.469Z"/>
  <path fill="#33806E" d="M495.372 319.429c-1.754 0-3.502-.834-4.392-2.602l-.002-.092v-.031c0-.692.201-1.336.55-1.878.705 1.77 2.328 2.601 3.957 2.601.841 0 1.683-.22 2.403-.647-.002.006-.002.011-.002.015v.02a3.459 3.459 0 0 1-1.103 2.431c-.46.121-.936.183-1.411.183Z"/>
  <path fill="#669E88" d="M494.461 320.172h.015-.015Zm-.058 0h-.014.014Zm-.044 0h-.014.014Zm.17 0h.012-.012Zm.021-.002h.013-.013Zm-.236 0h-.013.013Zm.28 0c.004-.002.008-.002.012-.002-.004 0-.008 0-.012.002Zm-.324-.002h-.013.013Zm.366-.002h.013-.013Zm.022 0 .012-.002-.012.002Zm-.476-.002-.012-.002.012.002Zm.539-.004h.013-.013Zm.022-.002h.013-.013Zm-.626 0-.012-.001a.049.049 0 0 0 .012.001Zm-.043-.003-.012-.002.012.002Zm.732-.002c.004 0 .01 0 .014-.002-.004.002-.009.002-.014.002Zm-.818-.008c-.004-.002-.008-.002-.012-.002.004 0 .008 0 .012.002Zm-.022-.004c-.004 0-.008 0-.012-.002a.025.025 0 0 0 .012.002Zm-.042-.006c-.004 0-.008 0-.012-.002a.025.025 0 0 0 .012.002Zm-.064-.01-.012-.002.012.002Zm-.063-.011-.013-.002.013.002Zm-.145-.03c-.006-.002-.011-.004-.016-.004.005 0 .01.002.016.004Zm-.042-.009-.018-.006.018.006Zm-.02-.006Zm-.286-.086Zm-.041-.014-.017-.006.017.006Zm-.04-.015-.016-.006.016.006Zm-.04-.016-.015-.006.015.006Zm-.117-.047Zm-.019-.009Zm-.133-.061-.013-.008.013.008Zm-.093-.049-.012-.005.012.005Zm-.037-.019-.011-.006.011.006Zm-.126-.072-.007-.004.007.004Z"/>
  <path fill="#2B7361" d="M494.433 320.172h-.11c-.003-.002-.006-.002-.009-.002h-.035c-.003 0-.006 0-.009-.002h-.035c-.003-.002-.006-.002-.009-.002h-.022c-.004-.002-.008-.002-.012-.002h-.01l-.012-.002h-.01c-.004 0-.008 0-.012-.002h-.01c-.004 0-.008 0-.012-.002h-.009l-.012-.001h-.01c-.004 0-.008 0-.012-.002h-.009l-.012-.002h-.01c-.004-.002-.008-.002-.012-.002-.003 0-.006 0-.009-.002h-.013l-.009-.002c-.004 0-.008 0-.012-.002h-.009c-.004-.002-.008-.002-.012-.002-.003 0-.006 0-.01-.002-.004 0-.008 0-.012-.002h-.009c-.004-.002-.008-.002-.012-.002l-.009-.002c-.004 0-.008 0-.013-.002h-.008c-.005-.002-.009-.002-.013-.002-.003-.002-.006-.002-.008-.002l-.013-.002-.009-.002-.012-.002-.009-.002-.013-.002-.008-.001-.013-.002c-.002 0-.005 0-.008-.002l-.013-.002c-.002 0-.005 0-.008-.002l-.013-.002-.008-.002-.013-.002-.007-.002-.014-.002c-.003-.002-.005-.002-.007-.002l-.014-.004c-.003 0-.005 0-.007-.002l-.015-.002-.006-.002a.042.042 0 0 1-.015-.004h-.006c-.005-.002-.01-.004-.015-.004l-.005-.001a.047.047 0 0 1-.016-.004h-.005l-.018-.006h-.002a.058.058 0 0 0-.019-.004l-.002-.002a4.025 4.025 0 0 1-.244-.072h-.001c-.006-.002-.013-.004-.019-.008h-.002l-.018-.006-.002-.002a.325.325 0 0 1-.017-.006h-.003l-.017-.006-.004-.001a.277.277 0 0 0-.016-.006l-.004-.002-.015-.006-.005-.002-.015-.006c-.001 0-.003 0-.004-.002l-.015-.006c-.002 0-.004 0-.005-.002l-.015-.006c-.001 0-.003.001-.005-.001l-.014-.006c-.002 0-.003 0-.005-.002l-.015-.006-.005-.002-.014-.006-.005-.002-.014-.006c-.002-.002-.003-.002-.005-.002a.061.061 0 0 1-.014-.007c-.002 0-.004 0-.005-.002a.196.196 0 0 1-.014-.006l-.005-.002-.014-.006c-.002-.002-.004-.002-.006-.002l-.013-.008c-.002 0-.004 0-.006-.002a.163.163 0 0 0-.013-.006c-.002-.002-.004-.002-.006-.002a.054.054 0 0 0-.013-.007l-.006-.002-.013-.006-.005-.004a.163.163 0 0 1-.013-.006l-.006-.002-.013-.008-.006-.002-.013-.005-.005-.004-.013-.006-.006-.004-.012-.006c-.002-.002-.005-.002-.006-.004a.163.163 0 0 1-.013-.006l-.006-.004-.012-.005-.006-.004-.012-.006-.007-.004-.011-.006-.007-.004-.011-.006-.007-.004-.011-.005-.007-.004-.01-.006a.055.055 0 0 1-.008-.006l-.011-.006-.007-.004-.01-.006c-.003-.002-.005-.004-.008-.004a.04.04 0 0 1-.009-.005l-.009-.006-.007-.004-.011-.006c-.001-.002-.003-.004-.005-.004a.042.042 0 0 0-.012-.008l-.002-.002a3.465 3.465 0 0 1-1.641-2.831c.89 1.769 2.638 2.603 4.392 2.603.476 0 .952-.062 1.411-.183a3.428 3.428 0 0 1-1.873.895l-.021.002h-.002c-.006.002-.012.002-.019.002-.001.002-.002.002-.004.002-.005 0-.011 0-.017.002h-.004l-.016.002h-.007c-.005.002-.01.002-.014.002-.003 0-.005 0-.007.002h-.014l-.008.002h-.014l-.007.001h-.014l-.008.002h-.013l-.008.002h-.022c-.004.002-.008.002-.012.002h-.009l-.012.002h-.022l-.009.002h-.021c-.005 0-.008 0-.012.002h-.044l-.009.002h-.108Z"/>
  <path fill="#FFEDD5" d="m156.849 0 .233 121.878-32.605 41.333-2.599.303-42.442 4.896-1.13 1.539-15.458 20.954-2.157.298-36.083 4.976-.228-116.148 32.987-4.548 2.912-3.948 13.73-18.64 3.29-.383 41.945-4.831 2.53-3.213L156.849 0Z"/>
  <path fill="#70B7F2" d="m152.107 13.71.154 79.26.055 27.255-30.353 38.477-21.901 2.528-23.235 2.676-5.535 7.518-10.948 14.842-.13.183-30.848 4.256-.065-31.506-.144-75.009 6.975-.958 23.874-3.297L76.62 57.39l25.115-2.895 20.025-2.309 6.885-8.739 23.463-29.738Z"/>
  <path fill="#3D8F7D" d="m152.107 13.71.154 79.259-6.3 8.004-6.885-3.962-4.836 3.635-12.62 2.825 2.029 14.013 5.511 3.168 5.422-1.465-.809 7.791-11.414 12.691-7.128-5.933-5.819 2.15-6.795.675-.09-4.638 8.091-4.513-1.463-5.428-4.817-2.775-.174-9.271 5.025-.775 1.171 4.34 1.587-2.756-.674-6.807-7.074-6.823 1.597-9.171-2.336-8.685 8.587-6.976 7.386 1.5 3.169-5.517-1.071-6.118 7.713-10.234-.6-8.466 23.463-29.738ZM88.584 151.413l10.14 3.083 1.339 6.734-23.235 2.676-5.536 7.518-2.555-2.999 2.287-8.774 6.8-.671 4.44-2.949-1.755-6.51 4.444-2.949 3.631 4.841ZM59.06 139.009l-6.697-1.107-4.613-6.321.02-6.411 5.506 3.168 1.393-5.616-8.16-6.529-.361-12.131 3.943-.487 3.443 1.982 5.01 5.635 1.979-3.441.362-6.217 3.993-1.37 4.32 5.239 3.721 9.479-3.477 10.839-8.106 2.945 2.957 6.013-5.233 4.33Zm-20.761 26.57 6.508-1.757 3.82 7.701-3.165 5.517 5.695 6.033 7.594-2.051 1.592 5.244-.129.183-30.849 4.256-.064-31.506 3.8-2.115 5.198 8.495Z"/>
  <path fill="#96C9AA" d="m121.879 163.514-.005-4.802.089-.01 30.353-38.478-.055-27.255-.153-79.26-23.463 29.74-6.861 8.709-.01-7.692L156.85 0l.233 121.878-32.605 41.333-2.599.303Z"/>
  <path fill="#429BC1" d="m121.874 158.712-.015-19.46.501.417 11.414-12.691.808-7.791-5.422 1.465-5.511-3.168-1.82-12.578-.005-1.48 12.416-2.78 4.836-3.635 6.886 3.962 6.299-8.004-.153-79.26-23.463 29.74.6 8.465-7.456 9.892-.005-9.648 6.861-8.71 23.463-29.738.153 79.26.055 27.255-30.353 38.477-.089.01Zm-.075-89.046-.005-6.033.809 4.633-.804 1.4Z"/>
  <path fill="#247964" d="m122.36 139.669-.501-.417-.03-34.346 1.82 12.578 5.511 3.168 5.422-1.465-.808 7.791-11.414 12.691Zm-.536-36.243-.025-33.76.804-1.4-.809-4.633-.005-1.827 7.456-9.892-.601-8.466 23.464-29.738.153 79.259-6.3 8.004-6.885-3.962-4.836 3.635-12.416 2.78Z"/>
  <path fill="#3D8F7D" d="m101.734 54.496-2.063 4.24-4.837 3.636 4.613 6.326-3.17 5.516-5.917 3.928-8.076-1.897-5.248 5.15 4.628 5.501 7.575 4.36.57 8.58-1.984 3.446-5.318-.308-5.645-3.128.075-7.13-3.175 1.554-12.396-7.136-1.295 7.508-11.032-3.595-3.631-4.841-6.508 1.758-2.768-4.732 23.875-3.297L76.619 57.39l25.115-2.895Z"/>
  <path fill="#96C9AA" d="m60.69 191.201-.02-5.377 10.621-14.4 5.13-6.967 1.884 5.492-15.456 20.954-2.158.298Z"/>
  <path fill="#429BC1" d="m60.671 185.824-.164-48.012 3.785-3.133-2.956-6.013 8.105-2.945 3.477-10.839-3.72-9.479-4.32-5.239-3.994 1.37-.362 6.217-.119.204-.05-14.951 1.012-5.87 12.397 7.136 3.17-1.554-.035 4.18-.035 2.95h.005l-.54 59.283-5.303.522-2.287 8.774 2.554 2.999-10.62 14.4Z"/>
  <path fill="#247964" d="m71.292 171.424-2.555-2.999 2.287-8.774 5.303-.522-.045 4.926.139.402-5.13 6.967Zm-10.784-33.612-.105-29.857.12-.204.361-6.217 3.994-1.37 4.32 5.238 3.72 9.48-3.477 10.839-8.105 2.945 2.956 6.013-3.785 3.133Z"/>
  <path fill="#96C9AA" d="m60.304 79.527-.025-7.994 13.73-18.64 3.29-.383-.045 4.812-.635.07-16.315 22.135Z"/>
  <path fill="#247964" d="M76.867 99.846h-.005l.035-2.95-.03 2.95ZM73.76 94.27l-12.396-7.135-1.012 5.869-.05-13.477L76.62 57.391l.635-.07-.219 24.073v.005l-.104 11.317-3.17 1.554Z"/>
  <path fill="#ABDFDD" d="M131.944 377a6.859 6.859 0 0 1-3.423-.919L23.126 315.165c-4.569-2.637-4.564-9.236.005-11.873l14.336-8.252 71.361 41.243a6.9 6.9 0 0 0 6.846 0l183.81-106.132 34.083 19.603c4.574 2.632 4.579 9.236.01 11.878l-198.21 114.449a6.832 6.832 0 0 1-3.423.919Z"/>
  <path fill="#BF5949" d="M317.306 202.384v13.749l-.015-.02c-.074 2.235-1.2 4.439-3.408 5.72l-198.21 114.45a6.911 6.911 0 0 1-2.733.874 6.878 6.878 0 0 1-4.113-.874l-105.4-60.912a6.792 6.792 0 0 1-3.13-3.972H.292v-.02c-.352-1.211-.287-17.29-.287-17.29l12.773 4.027 40.135-23.114 148.75-85.67a6.831 6.831 0 0 1 6.82 0l100.266 57.679 8.557-4.627Z"/>
  <path fill="#51BEA5" d="m3.532 267.297 105.4 60.917a6.84 6.84 0 0 0 6.84 0l198.211-114.45a6.777 6.777 0 0 0 3.403-5.377c.099-1.271-.303-9.167-.303-9.167s-1.9 3.362-3.11 2.667l-105.385-60.624a6.854 6.854 0 0 0-6.826.005L3.542 255.425c-1.236.715-3.393-2.935-3.393-2.935s-.124 8.218-.015 9.479c.183 2.096 1.314 4.127 3.398 5.328Z"/>
  <path fill="#96D8CB" d="m3.532 259.348 105.4 60.911a6.827 6.827 0 0 0 6.84.005L313.983 205.81c4.568-2.637 4.563-9.241-.01-11.873l-105.385-60.623a6.837 6.837 0 0 0-6.826 0L3.542 247.475c-4.574 2.632-4.579 9.231-.01 11.873Z"/>
  <path fill="#90C5AE" d="M126.447 304.176c-9.088 0-16.454-4.449-16.454-9.941 0-5.487 7.366-9.936 16.454-9.936 9.088 0 16.454 4.449 16.454 9.936 0 5.492-7.366 9.941-16.454 9.941Zm70.691-39.754c-9.087 0-16.453-4.454-16.453-9.941 0-5.491 7.366-9.94 16.453-9.94 9.088 0 16.454 4.449 16.454 9.94 0 5.487-7.366 9.941-16.454 9.941Z"/>
  <path fill="#B95547" d="m264.164 204.399 2.044-2.924h1.756l2.043-1.46h4.673l3.502 1.46h2.044l1.171 1.753-6.136 4.97-11.097-2.637v-1.162Z"/>
  <path fill="#AA4035" d="m284.026 213.754-2.337 1.167-.084.129-1.672 2.503h-3.502l-.039.025-3.755 2.314-3.507-2.339-2.922.586-4.668-4.385 2.624-9.354 2.629 1.166 3.795-2.338 4.092 2.338 1.751-2.338h4.966l2.629 10.526Z"/>
  <path fill="#73957D" d="m266.208 218.432.05-.303 2.872-.576.084.055-3.006.824Z"/>
  <path fill="#822C21" d="m272.637 219.892-3.214-2.339-.209.055-.084-.055-2.872.576 1.414-9.052 1.458 3.213 1.458-9.062.933 7.602-1.25 4.449.997.928 1.037.974.332 2.711Zm-9.599-4.732-1.498-1.405 2.624-9.355.913.407-.913 3.391 1.463-.874-2.589 7.836Z"/>
  <path fill="#95352A" d="m281.05 207.051-.789-.327-1.786-2.324.496 1.787h-3.095l-.704.502-.491-1.122 1.751-2.339h3.462l1.156 3.823Zm-6.181-.144-.188-1.34.193 1.335-.005.005Z"/>
  <path fill="#72251A" d="m274.874 206.902-.193-1.336.491 1.123-.298.213Zm7.501.248h-1.087l-.238-.099-1.156-3.823h1.503l.978 3.922Zm-2.114-.427-1.289-.536-.496-1.787 1.785 2.323Z"/>
  <path fill="#FAA292" d="m272.012 209.087 1.354-1.936h1.156l1.354-.964h3.095l2.317.964h1.354l.774 1.161-4.063 3.288-7.341-1.743v-.77Z"/>
  <path fill="#B95547" d="m285.152 215.279-1.543.775-.059.084-1.102 1.654h-2.321l-.025.014-2.485 1.535-2.321-1.549-1.93.387-3.095-2.9 1.741-6.192 1.741.775 2.51-1.55 2.708 1.55 1.156-1.55h3.289l1.736 6.967Z"/>
  <path fill="#822C21" d="m273.366 218.372.03-.198 1.9-.383.059.04-1.989.541Z"/>
  <path fill="#8D3B2C" d="m277.617 219.341-2.128-1.549-.134.039-.06-.039-1.899.382.937-5.993.962 2.13.968-5.999 1.354 11.029Zm4.832-1.549h-2.322l-1.155-7.93 3.477 7.93Zm-11.181-1.584-.997-.929 1.741-6.192.605.268-.605 2.245.967-.576-1.711 5.184Z"/>
  <path fill="#B95547" d="m162.133 167.307 1.061-1.519h.913l1.062-.76h2.43l1.821.76h1.066l.605.914-3.189 2.582-5.769-1.371v-.606Z"/>
  <path fill="#AA4035" d="m172.46 172.173-1.215.606-.044.07-.869 1.301h-1.82l-.02.01-1.954 1.206-1.826-1.216-1.518.303-2.43-2.28 1.369-4.866 1.369.611 1.974-1.217 2.123 1.217.913-1.217h2.579l1.369 5.472Z"/>
  <path fill="#73957D" d="m163.194 174.607.025-.159 1.493-.298.045.03-1.563.427Z"/>
  <path fill="#822C21" d="m166.537 175.366-1.671-1.216-.11.029-.044-.029-1.493.298.734-4.708.759 1.674.764-4.713.481 3.953-.65 2.314.516.482.541.506.173 1.41Zm-4.99-2.462-.783-.73 1.369-4.867.476.214-.476 1.763.759-.457-1.345 4.077Z"/>
  <path fill="#95352A" d="m170.912 168.688-.411-.169-.928-1.212.258.929h-1.607l-.367.263-.258-.581.912-1.216h1.796l.605 1.986Zm-3.214-.075-.099-.695.104.69-.005.005Z"/>
  <path fill="#72251A" d="m167.703 168.608-.104-.69.258.581-.154.109Zm3.899.134h-.565l-.124-.054-.606-1.987h.784l.511 2.041Zm-1.101-.223-.67-.283-.258-.929.928 1.212Z"/>
  <path fill="#FAA292" d="m166.215 169.746.699-1.004h.605l.705-.506h1.607l1.205.506h.705l.402.601-2.114 1.713-3.814-.908v-.402Z"/>
  <path fill="#B95547" d="m173.045 172.968-.804.397-.029.045-.576.864h-1.205l-.01.005-1.295.799-1.205-.804-1.007.199-1.607-1.505.907-3.223.903.403 1.305-.805 1.409.805.6-.805h1.711l.903 3.625Z"/>
  <path fill="#822C21" d="m166.914 174.577.02-.105.987-.198.03.02-1.037.283Z"/>
  <path fill="#8D3B2C" d="m169.127 175.078-1.106-.804-.07.02-.029-.02-.987.199.486-3.119.501 1.108.501-3.119.704 5.735Zm2.51-.804h-1.206l-.6-4.126 1.806 4.126Zm-5.814-.825-.516-.481.907-3.223.313.139-.313 1.172.501-.303-.892 2.696Z"/>
  <path fill="#90C5AE" d="M76.957 287.939a4.03 4.03 0 0 1-2.02-.541l-51.772-29.734c-2.713-1.559-2.718-5.477-.01-7.046l6.588-3.803 44.694 25.666a5.342 5.342 0 0 0 2.44.705h.08c.05.005.094.005.143.005a5.31 5.31 0 0 0 2.669-.725l93.158-54.049 6.409 3.714c1.518.879 2.182 2.498 1.994 4.027a4.011 4.011 0 0 1-1.989 3.009L78.995 287.393a4.094 4.094 0 0 1-2.038.546Z"/>
  <path fill="#184349" d="m79.769 272.467 98.946-57.407a5.057 5.057 0 0 0 1.716-1.648 4.983 4.983 0 0 0 .804-2.751l.129-5.462-55.468-28.676-82.805 48.096-1.568.909-20.452 8.441.883 6.455a4.9 4.9 0 0 0 .809 1.882 4.832 4.832 0 0 0 1.513 1.366l50.16 28.809a5.355 5.355 0 0 0 2.44.706h.08a5.276 5.276 0 0 0 2.813-.72Z"/>
  <path fill="#30596B" d="m76.956 273.187-1.816-16.253-32.05-32.315-1.567.909-20.452 8.441.883 6.455a4.9 4.9 0 0 0 .809 1.882 4.832 4.832 0 0 0 1.513 1.366l50.16 28.809a5.355 5.355 0 0 0 2.44.706h.08Z"/>
  <path fill="#FCC048" d="m179.336 201.753-51.54-29.877a4.057 4.057 0 0 0-4.077.005l-82.33 47.822-18.234 10.537c-2.708 1.569-2.703 5.487.01 7.046l51.773 29.733a4.057 4.057 0 0 0 4.057-.005l100.346-58.225a4.011 4.011 0 0 0 1.989-3.009c.188-1.529-.476-3.148-1.994-4.027Z"/>
  <path fill="#fff" d="m85.141 263.449 12.02-6.976 3.065-1.778 77.006-44.684-5.595-3.243-3.051-1.768-43.845-25.418-3.061-1.773-4.097-2.373-68.023 39.53-9.103 5.259-3.07 1.772-12.173 7.036 27.719 15.92 3.06 1.758 29.148 16.738Zm-24.658-8.342-2.361-1.35a1.561 1.561 0 0 1-.01-2.712l.01-.005a1.556 1.556 0 0 1 1.562-.005l2.356 1.356c1.042.601 1.042 2.11 0 2.711a1.559 1.559 0 0 1-1.557.005Zm-17.938-13.938 10.512 6.053c.46.263.719.705.773 1.172a1.558 1.558 0 0 1-.768 1.539l-.035.02a1.571 1.571 0 0 1-1.558.005l-10.55-6.028c-1.047-.601-1.052-2.116-.006-2.716l.075-.045a1.559 1.559 0 0 1 1.557 0Z"/>
  <path fill="#E0F4FB" d="m94.333 224.058 20.621-12.185 24.107 14.032 32.576-19.137-3.051-1.768-29.529 17.345-43.955-25.577 29.639-17.186-3.061-1.773-32.685 18.959 22.923 13.332-43.87 25.925-27.59-15.8-3.071 1.772 27.62 15.825-12.074 7.131 3.06 1.758 35.29-20.851 20.918 11.714-23.845 13.824 8.804 5.075 3.066-1.778-5.74-3.302 23.905-13.864-24.058-13.471Z"/>
  <path fill="#F4E9DB" d="M58.176 239.684c-6.042 0-10.938-2.855-10.938-6.375 0-1.589.992-3.039 2.634-4.156l15.135 8.669-2.089 1.232a17.64 17.64 0 0 1-4.742.63Zm9.871-3.659-14.722-8.437c1.463-.422 3.11-.655 4.851-.655 6.042 0 10.938 2.85 10.938 6.376 0 .958-.362 1.867-1.012 2.681l-.055.035Z"/>
  <path fill="#D6DFD8" d="m62.918 239.054 2.088-1.232-15.134-8.669c.957-.646 2.128-1.182 3.453-1.565l14.722 8.437.055-.035c-1.067 1.341-2.907 2.423-5.184 3.064Z"/>
  <path fill="#B6583F" d="M69.129 194.945s-7.352-4.354-7.922-4.568c-2.039-.765-4.663-.417-7.52 1.236-6.518 3.764-11.796 12.886-11.796 20.369 0 .735.05 1.425.148 2.075v.005c.253 1.644.809 2.995 1.603 4.018l8.383 9.156 7.406 4.558s6.16-11.669 7.917-21.197c1.116-6.034-1.865-11.039-1.865-12.25 0-3.283 3.646-3.402 3.646-3.402Z"/>
  <path fill="#F3725C" d="M61.455 216.386c-2.614 1.51-4.727.303-4.727-2.696 0-3.004 2.113-6.659 4.727-8.168 2.61-1.51 4.728-.298 4.728 2.701s-2.119 6.654-4.728 8.163Zm-.248-20.219c-6.513 3.769-11.796 12.885-11.796 20.373 0 .735.055 1.425.154 2.071l-.005.005.005.005c.248 1.643.803 2.994 1.602 4.012l8.378 9.161s9.688-16.599 10.76-18.7l.213-.318v-.119c1.558-3.198 2.485-6.619 2.485-9.757 0-7.483-5.278-10.497-11.796-6.733Z"/>
  <path fill="#F4E9DB" d="M146.175 217.99c-6.042 0-10.938-2.855-10.938-6.376 0-3.52 4.896-6.375 10.938-6.375 6.042 0 10.938 2.855 10.938 6.375v.129l-10.635 6.247h-.303Z"/>
  <path fill="#D6DFD8" d="m146.478 217.99 10.635-6.247c-.114 3.402-4.807 6.153-10.635 6.247Z"/>
  <path fill="#B6583F" d="M157.128 173.251s-7.352-4.355-7.922-4.568c-2.039-.765-4.663-.417-7.52 1.236-6.518 3.764-11.796 12.886-11.796 20.369 0 .734.049 1.43.148 2.075v.005c.253 1.644.809 2.994 1.603 4.017l8.383 9.157 7.406 4.558s6.161-11.664 7.917-21.198c1.116-6.033-1.865-11.033-1.865-12.25 0-3.282 3.646-3.401 3.646-3.401Z"/>
  <path fill="#F3725C" d="M149.453 194.692c-2.614 1.509-4.732.303-4.732-2.696s2.118-6.659 4.732-8.169c2.609-1.509 4.728-.297 4.728 2.702s-2.119 6.653-4.728 8.163Zm-.248-20.215c-6.513 3.764-11.796 12.886-11.796 20.369 0 .735.055 1.425.149 2.075l.005.005c.248 1.644.804 2.995 1.602 4.013l8.378 9.161s9.688-16.6 10.76-18.7l.213-.318v-.119c1.558-3.193 2.485-6.619 2.485-9.752 0-7.488-5.278-10.502-11.796-6.734Z"/>
  <path fill="#123945" d="m223.688 174.855 4.444-40.042h3.175l4.762 33.05c0 9.534-12.381 6.992-12.381 6.992Z"/>
  <path fill="#337A69" d="m230.195 98.957 24.575 43.26c-1.573 16.872-48.206 19.251-49.784.948l25.209-44.208Z"/>
  <path fill="#3D8F7D" d="m230.145 92.309 20.735 36.501c-1.329 14.241-40.676 16.247-42.005.804l21.27-37.305Z"/>
  <path fill="#337A69" d="m230.096 86.45 17.094 30.09c-1.097 11.734-33.528 13.387-34.625.66l17.531-30.75Z"/>
  <path fill="#3D8F7D" d="m230.067 78.922 14.42 25.383c-.928 9.901-28.29 11.297-29.213.556l14.793-25.94Z"/>
  <path fill="#123945" d="m243.275 216.059 2.927-26.382h2.093l3.135 21.774c0 6.281-8.155 4.608-8.155 4.608Z"/>
  <path fill="#337A69" d="m247.562 166.051 16.191 28.502c-1.037 11.118-31.762 12.687-32.799.626l16.608-29.128Z"/>
  <path fill="#3D8F7D" d="m247.527 161.677 13.666 24.047c-.878 9.38-26.801 10.701-27.674.527l14.008-24.574Z"/>
  <path fill="#337A69" d="m247.497 157.813 11.261 19.823c-.72 7.736-22.085 8.823-22.809.436l11.548-20.259Z"/>
  <path fill="#3D8F7D" d="m247.478 152.853 9.499 16.724c-.61 6.524-18.636 7.443-19.247.367l9.748-17.091Z"/>
  <path fill="#123945" d="m204.396 200.323 2.326-20.984h1.667l2.495 17.319c0 4.996-6.488 3.665-6.488 3.665Z"/>
  <path fill="#337A69" d="m207.803 160.549 12.878 22.673c-.824 8.843-25.264 10.09-26.087.496l13.209-23.169Z"/>
  <path fill="#3D8F7D" d="m207.779 157.069 10.863 19.127c-.694 7.463-21.315 8.511-22.009.417l11.146-19.544Z"/>
  <path fill="#337A69" d="m207.754 153.995 8.959 15.77c-.576 6.148-17.575 7.017-18.146.343l9.187-16.113Z"/>
  <path fill="#3D8F7D" d="m207.735 150.047 7.559 13.308c-.486 5.189-14.827 5.919-15.308.288l7.749-13.596Z"/>
  <path fill="#123945" d="m277.195 199.111 6.518-58.732h4.658l6.985 48.479c0 13.982-18.161 10.253-18.161 10.253Z"/>
  <path fill="#337A69" d="m286.74 87.78 36.048 63.459c-2.312 24.753-70.712 28.239-73.023 1.39l36.975-64.85Z"/>
  <path fill="#3D8F7D" d="m286.665 78.033 30.418 53.543c-1.95 20.885-59.665 23.824-61.614 1.176l31.196-54.72Z"/>
  <path fill="#337A69" d="m286.596 69.442 25.075 44.129c-1.607 17.215-49.178 19.643-50.785.973l25.71-45.102Z"/>
  <path fill="#3D8F7D" d="m286.546 58.394 21.156 37.236c-1.359 14.525-41.494 16.57-42.853.82l21.697-38.056Z"/>
  <path fill="#123945" d="m178.478 178.038 5.535-49.899h3.959l5.933 41.184c0 11.883-15.427 8.715-15.427 8.715Z"/>
  <path fill="#337A69" d="m186.583 83.45 30.631 53.911c-1.965 21.033-60.082 23.998-62.046 1.186l31.415-55.097Z"/>
  <path fill="#3D8F7D" d="m186.523 75.168 25.844 45.489c-1.656 17.746-50.691 20.244-52.347.998l26.503-46.487Z"/>
  <path fill="#337A69" d="m186.463 67.868 21.3 37.495c-1.364 14.628-41.782 16.689-43.146.824l21.846-38.319Z"/>
  <path fill="#3D8F7D" d="m186.423 58.479 17.972 31.64c-1.156 12.339-35.254 14.077-36.41.695l18.438-32.335Z"/>
  <path fill="#FBA594" d="M99.408 230.424s-1.295-.661-2.019-.313c-.724.352.352 1.102.352 1.102-1.746 1.594-.888 2.195-.888 2.195 1.161 1.544 1.885 1.192 1.885 1.192 1.047-.125 2.595-2.349 2.595-2.349l-1.925-1.827Z"/>
  <path fill="#70B7F2" d="M117.488 213.68c1.414.988 2.128 2.428.104 5.338-2.024 2.905-6.27 7.364-6.27 7.364l-9.861 6.207-2.426-2.438 8.681-7.369 4.673-7.533s2.272-3.54 5.099-1.569Z"/>
  <path fill="#FBA594" d="M150.704 243.369s1.473-.676 2.411-.09c.932.581-.253 1.415-.253 1.415 2.381 2.404 1.428 3.069 1.428 3.069-1.165 1.872-2.103 1.286-2.103 1.286-1.295-.333-3.532-3.545-3.532-3.545l2.049-2.135Z"/>
  <path fill="#5EA2E5" d="M127.464 289.171c-.347-1.217-5.714-1.56-5.714-1.56l-5.025 2.25c.173 2.775.694 3.466 1.904 3.466 7.967-.864 8.835-2.424 8.835-2.424s.342-.521 0-1.732Z"/>
  <path fill="#123945" d="m127.98 247.227-3.115 23.05-2.599 18.72s-1.211 1.385-6.057.69l1.21-20.969-.565-25.136 11.126 3.645Z"/>
  <path fill="#5EA2E5" d="M139.235 294.891c-.347-1.217-5.714-1.564-5.714-1.564l-5.02 2.254c.174 2.776.694 3.466 1.905 3.466 7.966-.864 8.829-2.423 8.829-2.423s.348-.522 0-1.733Z"/>
  <path fill="#123945" d="m134.389 249.998.863 21.49-.863 23.745s-1.216 1.391-6.062.695l-1.042-20.452-5.63-31.397 12.734 5.919Z"/>
  <path fill="#5EA2E5" d="m132.469 221.714 3.339 31.159s-14.039 5.516-20.061-5.169l-.382-10.07-2.941-20.95s.059-1.46 1.151-2.79a3.829 3.829 0 0 1 2.093-1.316 3.992 3.992 0 0 1 2.48.193l11.072 4.598a5.306 5.306 0 0 1 1.875 1.316 5.303 5.303 0 0 1 1.374 3.029Z"/>
  <path fill="#70B7F2" d="M126.025 218.129c-1.562 1.088-2.197 2.9.729 7.101 2.927 4.206 8.81 10.834 8.81 10.834l12.987 9.867 2.559-2.865-11.736-11.222-6.89-10.805s-3.334-5.095-6.459-2.91Z"/>
  <path fill="#FBA594" d="M127.92 200.382s2.624 13.139-2.668 12.489c-5.293-.651-7.337-6.709-7.337-6.709l3.115-5.04 6.89-.74Z"/>
  <path fill="#FBA594" d="m123.635 209.991 1.106 5.457s-3.83 1.633-5.754-.08l-.516-4.826 5.164-.551Z"/>
  <path fill="#123945" d="M125.356 205.715c2.183-.759 1.101-2.735 1.101-2.735s2.793-1.52 2.535-3.933-2.659-3.724-2.659-3.724l-1.116.993s-6.766.203-8.408 4.389c-1.642 4.186 1.87 10.954 1.87 10.954l2.917-.313 2.148-4.414 1.612-1.217Z"/>
  <path fill="#FBA594" d="M126.616 206.391a1.954 1.954 0 0 1-1.736 2.155 1.953 1.953 0 0 1-2.153-1.738 1.956 1.956 0 1 1 3.889-.417Z"/>
  <path fill="#376D91" d="M118.848 215.115c-1.706.378-2.138 2.14-2.138 2.14l.813 2.806h2.282l3.423-3.044.486-1.629s-3.16 1.629-4.866-.273Z"/>
  <path fill="#4F90C6" d="M124.746 215.492c-1.141-1.519-1.518 1.907-4.564 3.427-3.04 1.524-3.417-1.902-3.417-1.902-1.905 8.372 5.699 6.852 6.84 2.284 1.141-4.568 2.684-3.148 2.684-3.148l-1.543-.661Z"/>
  <path fill="#4F90C6" d="M118.976 215.244c-2.212 1.013-2.51 3.819-2.51 3.819-.466-3.57 2.416-4.673 2.416-4.673l.094.854Z"/>
  <path fill="#5EA2E5" d="m133.109 245.176-17.515-1.594s-2.252 3.878.788 4.261c6.464 8.372 19.391 4.945 19.391 4.945s1.9-.377-2.664-7.612Z"/>
  <path fill="#FBA594" d="m196.072 206.47 3.284 21.55 6.24 23.08s.928 1.643 3.756-1.028l-2.759-22.101.759-22.514c.05-1.594-.888-2.85-2.138-3.411a3.553 3.553 0 0 0-3.556.377l-5.586 4.047Z"/>
  <path fill="#123945" d="M205.542 250.807s-4.291 2.955-4.648 4.241c-.362 1.286-.134 2.457 1.037 2.234 1.17-.228 7.262-1.708 9.256-2.398 1.994-.686-1.974-5.596-1.974-5.596s-.402 2.711-3.671 1.519Z"/>
  <path fill="#FBA594" d="m188.622 202.319-.853 21.779 1.765 23.844s.596 1.793 3.88-.298l1.488-22.394 6.617-28.949-12.897 6.018Z"/>
  <path fill="#123945" d="M189.534 247.644s-4.772 2.091-5.372 3.282c-.595 1.197-.595 2.389.6 2.389 1.191 0 7.456-.298 9.544-.596 2.089-.298-.883-5.869-.883-5.869s-.907 2.587-3.889.794Z"/>
  <path fill="#E25940" d="M187.044 224.108c.322 7.18 1.304 20.889 1.304 20.889s4.887 1.306 6.191 0l.174-10.596.154-9.638 5.868-21.575-4.475-.953-7.589-1.624s-1.955 16.317-1.627 23.497Z"/>
  <path fill="#E25940" d="M207.908 202.895c-.327 1.961-1.28 24.107-1.28 24.107l2.912 18.646c-1.959 2.612-5.868 1.306-5.868 1.306l-5.219-19.256-3.259-16.317v-7.831s13.041-2.611 12.714-.655Z"/>
  <path fill="#FBA594" d="M167.153 189.111s-1.196-1.122-2.287-.864c-1.086.258-.213 1.44-.213 1.44-3.061 1.539-2.362 2.483-2.362 2.483.516 2.18 1.603 1.921 1.603 1.921 1.349.095 4.534-2.264 4.534-2.264l-1.275-2.716Z"/>
  <path fill="#FCC048" d="m166.548 188.396 14.44-4.261s6.443-9.111 10.228-12.046l2.872 4.683.983 1.593s-9.396 10.746-11.414 11.178c-1.915.402-14.406 2.766-15.81 3.019l-.039.01-.045.01-.04.01-1.175-4.196Z"/>
  <path fill="#724116" d="m195.288 170.634 7.868-8.456c3.125 7.374-2.714 12.99 4.96 18.814 7.674 5.825-18.954 13.74-12.828-10.358Z"/>
  <path fill="#EAAA39" d="m208.324 182.298-.342 1.669a45.286 45.286 0 0 0 .342 19.782s-13.78 3.645-20.283-1.787l.05-.303a82.28 82.28 0 0 0 1.021-17.419l-.436-9.176s.218-1.46 1.458-2.687a3.923 3.923 0 0 1 2.257-1.102 4.055 4.055 0 0 1 2.471.467l10.66 5.829a5.392 5.392 0 0 1 2.802 4.727Z"/>
  <path fill="#FBA594" d="M194.792 176.196s4.038 1.226 5.789-.705v-10.234l-1.776 1.792-3.487 3.526-.392 4.191-.134 1.43Z"/>
  <path fill="#F57B65" d="m194.926 174.765.392-4.19 3.487-3.526c-.04 3.997-1.979 6.361-3.879 7.716Z"/>
  <path fill="#EAAA39" d="m188.637 175.088 1.195 11.942c-5.67-2.686-1.195-11.942-1.195-11.942Z"/>
  <path fill="#FBA594" d="M189.014 206.083s-1.588-.417-2.421.333c-.834.744.496 1.365.496 1.365-1.955 2.816-.893 3.312-.893 3.312 1.493 1.668 2.326.924 2.326.924 1.236-.561 2.907-4.161 2.907-4.161l-2.415-1.773Z"/>
  <path fill="#FCC048" d="m188.135 205.74 10.655-10.641s1.086-9.097 2.718-14.072a4.106 4.106 0 0 1 1.617-2.135c1.275-.859 2.788-.72 3.879.034a3.404 3.404 0 0 1 1.469 2.96l-.04 1.013a4.35 4.35 0 0 1-.104.794c-.526 2.275-3.2 13.67-4.613 14.882-1.488 1.266-11.34 9.315-12.446 10.209l-.03.025-.04.03-.029.029-3.036-3.128Z"/>
  <path fill="#FBA594" d="M192.57 160.212s-4.767 12.711.635 12.925c5.402.208 8.428-5.512 8.428-5.512l-2.297-5.551-6.766-1.862Z"/>
  <path fill="#724116" d="M194.693 158.156s-5.01 1.787-3.577 7.101c.184.193.412.372.66.531l.412-.829v1.062c.65.338 1.399.576 2.068.745l.437-.735v.839c.818.174 1.433.239 1.433.239s.358-1.435 2.143-1.435c.362 1.077 1.434 2.15 1.434 2.15s0 1.435 2.148-.715l1.785-2.15c.363-3.938-3.576-8.238-8.943-6.803Z"/>
  <path fill="#FBA594" d="M199.276 167.407c-.769.735-.947 1.797-.402 2.363.541.566 1.608.427 2.377-.313.768-.734.952-1.797.406-2.363-.545-.566-1.612-.427-2.381.313Z"/>
</svg>
